<?xml version="1.0" encoding="UTF-8" standalone="no"?>
<!DOCTYPE svg PUBLIC "-//W3C//DTD SVG 1.1//EN"
 "http://www.w3.org/Graphics/SVG/1.1/DTD/svg11.dtd">
<!-- Generated by graphviz version 8.0.3 (20230416.2022)
 -->
<!-- Title: HW&#45;Components/devices/imu/src/BMI088.cpp Pages: 1 -->
<svg width="523pt" height="203pt"
 viewBox="0.00 0.00 523.00 203.00" xmlns="http://www.w3.org/2000/svg" xmlns:xlink="http://www.w3.org/1999/xlink">
<g id="graph0" class="graph" transform="scale(1 1) rotate(0) translate(4 199)">
<title>HW&#45;Components/devices/imu/src/BMI088.cpp</title>
<!-- Node1 -->
<g id="Node000001" class="node">
<title>Node1</title>
<g id="a_Node000001"><a xlink:title=": @history : Version Date Author Note V0.9.0 yyyy&#45;mm&#45;dd &lt;author&gt; 1.">
<polygon fill="#999999" stroke="#666666" points="353,-195 227,-195 227,-165 353,-165 353,-195"/>
<text text-anchor="start" x="235" y="-183" font-family="Helvetica,sans-Serif" font-size="10.00">HW&#45;Components/devices</text>
<text text-anchor="middle" x="290" y="-172" font-family="Helvetica,sans-Serif" font-size="10.00">/imu/src/BMI088.cpp</text>
</a>
</g>
</g>
<!-- Node2 -->
<g id="Node000002" class="node">
<title>Node2</title>
<g id="a_Node000002"><a xlink:href="$_b_m_i088_8hpp.html" xlink:title=": @history : Version Date Author Note V1.0.0 2023&#45;12&#45;08 Caikunzhen 1.">
<polygon fill="white" stroke="#666666" points="164,-129 96,-129 96,-110 164,-110 164,-129"/>
<text text-anchor="middle" x="130" y="-117" font-family="Helvetica,sans-Serif" font-size="10.00">BMI088.hpp</text>
</a>
</g>
</g>
<!-- Node1&#45;&gt;Node2 -->
<g id="edge25_Node000001_Node000002" class="edge">
<title>Node1&#45;&gt;Node2</title>
<g id="a_edge25_Node000001_Node000002"><a xlink:title=" ">
<path fill="none" stroke="#63b8ff" d="M250.45,-164.54C224.05,-154.89 189.68,-142.32 164.42,-133.08"/>
<polygon fill="#63b8ff" stroke="#63b8ff" points="165.79,-129.49 155.19,-129.35 163.38,-136.07 165.79,-129.49"/>
</a>
</g>
</g>
<!-- Node7 -->
<g id="Node000007" class="node">
<title>Node7</title>
<g id="a_Node000007"><a xlink:title=" ">
<polygon fill="#e0e0e0" stroke="#999999" points="228,-129 182,-129 182,-110 228,-110 228,-129"/>
<text text-anchor="middle" x="205" y="-117" font-family="Helvetica,sans-Serif" font-size="10.00">cstring</text>
</a>
</g>
</g>
<!-- Node1&#45;&gt;Node7 -->
<g id="edge30_Node000001_Node000007" class="edge">
<title>Node1&#45;&gt;Node7</title>
<g id="a_edge30_Node000001_Node000007"><a xlink:title=" ">
<path fill="none" stroke="#63b8ff" d="M268.99,-164.54C256.01,-155.61 239.41,-144.18 226.37,-135.21"/>
<polygon fill="#63b8ff" stroke="#63b8ff" points="228.83,-131.96 218.6,-129.18 224.86,-137.73 228.83,-131.96"/>
</a>
</g>
</g>
<!-- Node8 -->
<g id="Node000008" class="node">
<title>Node8</title>
<g id="a_Node000008"><a xlink:href="$_b_m_i088__reg_8hpp.html" xlink:title=": @history : Version Date Author Note V0.9.0 2023&#45;12&#45;05 Caikunzhen 1.">
<polygon fill="white" stroke="#666666" points="333.5,-129 246.5,-129 246.5,-110 333.5,-110 333.5,-129"/>
<text text-anchor="middle" x="290" y="-117" font-family="Helvetica,sans-Serif" font-size="10.00">BMI088_reg.hpp</text>
</a>
</g>
</g>
<!-- Node1&#45;&gt;Node8 -->
<g id="edge31_Node000001_Node000008" class="edge">
<title>Node1&#45;&gt;Node8</title>
<g id="a_edge31_Node000001_Node000008"><a xlink:title=" ">
<path fill="none" stroke="#63b8ff" d="M290,-164.54C290,-157.17 290,-148.1 290,-140.11"/>
<polygon fill="#63b8ff" stroke="#63b8ff" points="293.5,-140.18 290,-130.18 286.5,-140.18 293.5,-140.18"/>
</a>
</g>
</g>
<!-- Node9 -->
<g id="Node000009" class="node">
<title>Node9</title>
<g id="a_Node000009"><a xlink:href="$assert_8hpp.html" xlink:title=": @history : Version Date Author Note V0.9.0 yyyy&#45;mm&#45;dd &lt;author&gt; 1.">
<polygon fill="white" stroke="#666666" points="389,-74 327,-74 327,-55 389,-55 389,-74"/>
<text text-anchor="middle" x="358" y="-62" font-family="Helvetica,sans-Serif" font-size="10.00">assert.hpp</text>
</a>
</g>
</g>
<!-- Node1&#45;&gt;Node9 -->
<g id="edge32_Node000001_Node000009" class="edge">
<title>Node1&#45;&gt;Node9</title>
<g id="a_edge32_Node000001_Node000009"><a xlink:title=" ">
<path fill="none" stroke="#63b8ff" d="M309.71,-164.61C320.75,-155.56 333.89,-142.97 342,-129 349.87,-115.45 353.9,-98.09 355.95,-84.94"/>
<polygon fill="#63b8ff" stroke="#63b8ff" points="359.51,-85.65 357.32,-75.29 352.57,-84.76 359.51,-85.65"/>
</a>
</g>
</g>
<!-- Node10 -->
<g id="Node000010" class="node">
<title>Node10</title>
<g id="a_Node000010"><a xlink:href="$base_8hpp.html" xlink:title=": @history : Version Date Author Note V0.9.0 yyyy&#45;mm&#45;dd &lt;author&gt; 1.">
<polygon fill="white" stroke="#666666" points="453,-129 397,-129 397,-110 453,-110 453,-129"/>
<text text-anchor="middle" x="425" y="-117" font-family="Helvetica,sans-Serif" font-size="10.00">base.hpp</text>
</a>
</g>
</g>
<!-- Node1&#45;&gt;Node10 -->
<g id="edge33_Node000001_Node000010" class="edge">
<title>Node1&#45;&gt;Node10</title>
<g id="a_edge33_Node000001_Node000010"><a xlink:title=" ">
<path fill="none" stroke="#63b8ff" d="M323.37,-164.54C345.15,-155.1 373.35,-142.88 394.52,-133.71"/>
<polygon fill="#63b8ff" stroke="#63b8ff" points="395.8,-136.53 403.59,-129.35 393.02,-130.11 395.8,-136.53"/>
</a>
</g>
</g>
<!-- Node3 -->
<g id="Node000003" class="node">
<title>Node3</title>
<g id="a_Node000003"><a xlink:title=" ">
<polygon fill="#e0e0e0" stroke="#999999" points="68,-74 0,-74 0,-55 68,-55 68,-74"/>
<text text-anchor="middle" x="34" y="-62" font-family="Helvetica,sans-Serif" font-size="10.00">arm_math.h</text>
</a>
</g>
</g>
<!-- Node2&#45;&gt;Node3 -->
<g id="edge26_Node000002_Node000003" class="edge">
<title>Node2&#45;&gt;Node3</title>
<g id="a_edge26_Node000002_Node000003"><a xlink:title=" ">
<path fill="none" stroke="#63b8ff" d="M113.71,-109.51C98.87,-101.31 76.7,-89.07 59.5,-79.58"/>
<polygon fill="#63b8ff" stroke="#63b8ff" points="61.49,-76.13 51.04,-74.36 58.11,-82.26 61.49,-76.13"/>
</a>
</g>
</g>
<!-- Node4 -->
<g id="Node000004" class="node">
<title>Node4</title>
<g id="a_Node000004"><a xlink:title=" ">
<polygon fill="#e0e0e0" stroke="#999999" points="174,-74 86,-74 86,-55 174,-55 174,-74"/>
<text text-anchor="middle" x="130" y="-62" font-family="Helvetica,sans-Serif" font-size="10.00">stm32f4xx_hal.h</text>
</a>
</g>
</g>
<!-- Node2&#45;&gt;Node4 -->
<g id="edge27_Node000002_Node000004" class="edge">
<title>Node2&#45;&gt;Node4</title>
<g id="a_edge27_Node000002_Node000004"><a xlink:title=" ">
<path fill="none" stroke="#63b8ff" d="M130,-109.75C130,-103.11 130,-93.73 130,-85.31"/>
<polygon fill="#63b8ff" stroke="#63b8ff" points="133.5,-85.44 130,-75.44 126.5,-85.44 133.5,-85.44"/>
</a>
</g>
</g>
<!-- Node5 -->
<g id="Node000005" class="node">
<title>Node5</title>
<g id="a_Node000005"><a xlink:href="$system_8hpp.html" xlink:title=" ">
<polygon fill="white" stroke="#666666" points="260,-74 192,-74 192,-55 260,-55 260,-74"/>
<text text-anchor="middle" x="226" y="-62" font-family="Helvetica,sans-Serif" font-size="10.00">system.hpp</text>
</a>
</g>
</g>
<!-- Node2&#45;&gt;Node5 -->
<g id="edge28_Node000002_Node000005" class="edge">
<title>Node2&#45;&gt;Node5</title>
<g id="a_edge28_Node000002_Node000005"><a xlink:title=" ">
<path fill="none" stroke="#63b8ff" d="M146.29,-109.51C161.13,-101.31 183.3,-89.07 200.5,-79.58"/>
<polygon fill="#63b8ff" stroke="#63b8ff" points="201.89,-82.26 208.96,-74.36 198.51,-76.13 201.89,-82.26"/>
</a>
</g>
</g>
<!-- Node6 -->
<g id="Node000006" class="node">
<title>Node6</title>
<g id="a_Node000006"><a xlink:title=" ">
<polygon fill="#e0e0e0" stroke="#999999" points="248.5,-19 203.5,-19 203.5,0 248.5,0 248.5,-19"/>
<text text-anchor="middle" x="226" y="-7" font-family="Helvetica,sans-Serif" font-size="10.00">cstdlib</text>
</a>
</g>
</g>
<!-- Node5&#45;&gt;Node6 -->
<g id="edge29_Node000005_Node000006" class="edge">
<title>Node5&#45;&gt;Node6</title>
<g id="a_edge29_Node000005_Node000006"><a xlink:title=" ">
<path fill="none" stroke="#63b8ff" d="M226,-54.75C226,-48.11 226,-38.73 226,-30.31"/>
<polygon fill="#63b8ff" stroke="#63b8ff" points="229.5,-30.44 226,-20.44 222.5,-30.44 229.5,-30.44"/>
</a>
</g>
</g>
<!-- Node10&#45;&gt;Node9 -->
<g id="edge36_Node000010_Node000009" class="edge">
<title>Node10&#45;&gt;Node9</title>
<g id="a_edge36_Node000010_Node000009"><a xlink:title=" ">
<path fill="none" stroke="#63b8ff" d="M413.63,-109.51C403.76,-101.7 389.23,-90.21 377.5,-80.93"/>
<polygon fill="#63b8ff" stroke="#63b8ff" points="380.21,-77.82 370.2,-74.36 375.87,-83.31 380.21,-77.82"/>
</a>
</g>
</g>
<!-- Node11 -->
<g id="Node000011" class="node">
<title>Node11</title>
<g id="a_Node000011"><a xlink:title=" ">
<polygon fill="#e0e0e0" stroke="#999999" points="451,-74 407,-74 407,-55 451,-55 451,-74"/>
<text text-anchor="middle" x="429" y="-62" font-family="Helvetica,sans-Serif" font-size="10.00">cmath</text>
</a>
</g>
</g>
<!-- Node10&#45;&gt;Node11 -->
<g id="edge34_Node000010_Node000011" class="edge">
<title>Node10&#45;&gt;Node11</title>
<g id="a_edge34_Node000010_Node000011"><a xlink:title=" ">
<path fill="none" stroke="#63b8ff" d="M425.66,-109.75C426.16,-103.11 426.87,-93.73 427.5,-85.31"/>
<polygon fill="#63b8ff" stroke="#63b8ff" points="431.06,-85.68 428.33,-75.44 424.08,-85.15 431.06,-85.68"/>
</a>
</g>
</g>
<!-- Node12 -->
<g id="Node000012" class="node">
<title>Node12</title>
<g id="a_Node000012"><a xlink:title=" ">
<polygon fill="#e0e0e0" stroke="#999999" points="515,-74 469,-74 469,-55 515,-55 515,-74"/>
<text text-anchor="middle" x="492" y="-62" font-family="Helvetica,sans-Serif" font-size="10.00">cstdint</text>
</a>
</g>
</g>
<!-- Node10&#45;&gt;Node12 -->
<g id="edge35_Node000010_Node000012" class="edge">
<title>Node10&#45;&gt;Node12</title>
<g id="a_edge35_Node000010_Node000012"><a xlink:title=" ">
<path fill="none" stroke="#63b8ff" d="M436.37,-109.51C446.24,-101.7 460.77,-90.21 472.5,-80.93"/>
<polygon fill="#63b8ff" stroke="#63b8ff" points="474.13,-83.31 479.8,-74.36 469.79,-77.82 474.13,-83.31"/>
</a>
</g>
</g>
</g>
</svg>
