<?xml version="1.0" encoding="UTF-8" standalone="no"?>
<!DOCTYPE svg PUBLIC "-//W3C//DTD SVG 1.1//EN"
 "http://www.w3.org/Graphics/SVG/1.1/DTD/svg11.dtd">
<!-- Generated by graphviz version 8.0.3 (20230416.2022)
 -->
<!-- Title: HW&#45;Components/devices/remote_control/src/DT7.cpp Pages: 1 -->
<svg width="208pt" height="203pt"
 viewBox="0.00 0.00 208.00 203.00" xmlns="http://www.w3.org/2000/svg" xmlns:xlink="http://www.w3.org/1999/xlink">
<g id="graph0" class="graph" transform="scale(1 1) rotate(0) translate(4 199)">
<title>HW&#45;Components/devices/remote_control/src/DT7.cpp</title>
<!-- Node1 -->
<g id="Node000001" class="node">
<title>Node1</title>
<g id="a_Node000001"><a xlink:title=": @history : Version Date Author Note V1.0.0 2023&#45;12&#45;05 Caikunzhen 1.">
<polygon fill="#999999" stroke="#666666" points="200,-195 60,-195 60,-165 200,-165 200,-195"/>
<text text-anchor="start" x="68" y="-183" font-family="Helvetica,sans-Serif" font-size="10.00">HW&#45;Components/devices</text>
<text text-anchor="middle" x="130" y="-172" font-family="Helvetica,sans-Serif" font-size="10.00">/remote_control/src/DT7.cpp</text>
</a>
</g>
</g>
<!-- Node2 -->
<g id="Node000002" class="node">
<title>Node2</title>
<g id="a_Node000002"><a xlink:href="$_d_t7_8hpp.html" xlink:title=": @history : Version Date Author Note V1.0.0 2023&#45;12&#45;05 Caikunzhen 1.">
<polygon fill="white" stroke="#666666" points="118.5,-129 65.5,-129 65.5,-110 118.5,-110 118.5,-129"/>
<text text-anchor="middle" x="92" y="-117" font-family="Helvetica,sans-Serif" font-size="10.00">DT7.hpp</text>
</a>
</g>
</g>
<!-- Node1&#45;&gt;Node2 -->
<g id="edge11_Node000001_Node000002" class="edge">
<title>Node1&#45;&gt;Node2</title>
<g id="a_edge11_Node000001_Node000002"><a xlink:title=" ">
<path fill="none" stroke="#63b8ff" d="M120.61,-164.54C115.43,-156.56 108.95,-146.59 103.47,-138.16"/>
<polygon fill="#63b8ff" stroke="#63b8ff" points="106.02,-136.65 97.64,-130.18 100.15,-140.47 106.02,-136.65"/>
</a>
</g>
</g>
<!-- Node6 -->
<g id="Node000006" class="node">
<title>Node6</title>
<g id="a_Node000006"><a xlink:href="$assert_8hpp.html" xlink:title=": @history : Version Date Author Note V0.9.0 yyyy&#45;mm&#45;dd &lt;author&gt; 1.">
<polygon fill="white" stroke="#666666" points="199,-129 137,-129 137,-110 199,-110 199,-129"/>
<text text-anchor="middle" x="168" y="-117" font-family="Helvetica,sans-Serif" font-size="10.00">assert.hpp</text>
</a>
</g>
</g>
<!-- Node1&#45;&gt;Node6 -->
<g id="edge15_Node000001_Node000006" class="edge">
<title>Node1&#45;&gt;Node6</title>
<g id="a_edge15_Node000001_Node000006"><a xlink:title=" ">
<path fill="none" stroke="#63b8ff" d="M139.39,-164.54C144.57,-156.56 151.05,-146.59 156.53,-138.16"/>
<polygon fill="#63b8ff" stroke="#63b8ff" points="159.85,-140.47 162.36,-130.18 153.98,-136.65 159.85,-140.47"/>
</a>
</g>
</g>
<!-- Node3 -->
<g id="Node000003" class="node">
<title>Node3</title>
<g id="a_Node000003"><a xlink:title=" ">
<polygon fill="#e0e0e0" stroke="#999999" points="88,-74 0,-74 0,-55 88,-55 88,-74"/>
<text text-anchor="middle" x="44" y="-62" font-family="Helvetica,sans-Serif" font-size="10.00">stm32f4xx_hal.h</text>
</a>
</g>
</g>
<!-- Node2&#45;&gt;Node3 -->
<g id="edge12_Node000002_Node000003" class="edge">
<title>Node2&#45;&gt;Node3</title>
<g id="a_edge12_Node000002_Node000003"><a xlink:title=" ">
<path fill="none" stroke="#63b8ff" d="M84.07,-109.75C77.37,-102.35 67.58,-91.54 59.36,-82.45"/>
<polygon fill="#63b8ff" stroke="#63b8ff" points="62.41,-80.5 53.1,-75.44 57.22,-85.2 62.41,-80.5"/>
</a>
</g>
</g>
<!-- Node4 -->
<g id="Node000004" class="node">
<title>Node4</title>
<g id="a_Node000004"><a xlink:href="$system_8hpp.html" xlink:title=" ">
<polygon fill="white" stroke="#666666" points="174,-74 106,-74 106,-55 174,-55 174,-74"/>
<text text-anchor="middle" x="140" y="-62" font-family="Helvetica,sans-Serif" font-size="10.00">system.hpp</text>
</a>
</g>
</g>
<!-- Node2&#45;&gt;Node4 -->
<g id="edge13_Node000002_Node000004" class="edge">
<title>Node2&#45;&gt;Node4</title>
<g id="a_edge13_Node000002_Node000004"><a xlink:title=" ">
<path fill="none" stroke="#63b8ff" d="M99.93,-109.75C106.63,-102.35 116.42,-91.54 124.64,-82.45"/>
<polygon fill="#63b8ff" stroke="#63b8ff" points="126.78,-85.2 130.9,-75.44 121.59,-80.5 126.78,-85.2"/>
</a>
</g>
</g>
<!-- Node5 -->
<g id="Node000005" class="node">
<title>Node5</title>
<g id="a_Node000005"><a xlink:title=" ">
<polygon fill="#e0e0e0" stroke="#999999" points="162.5,-19 117.5,-19 117.5,0 162.5,0 162.5,-19"/>
<text text-anchor="middle" x="140" y="-7" font-family="Helvetica,sans-Serif" font-size="10.00">cstdlib</text>
</a>
</g>
</g>
<!-- Node4&#45;&gt;Node5 -->
<g id="edge14_Node000004_Node000005" class="edge">
<title>Node4&#45;&gt;Node5</title>
<g id="a_edge14_Node000004_Node000005"><a xlink:title=" ">
<path fill="none" stroke="#63b8ff" d="M140,-54.75C140,-48.11 140,-38.73 140,-30.31"/>
<polygon fill="#63b8ff" stroke="#63b8ff" points="143.5,-30.44 140,-20.44 136.5,-30.44 143.5,-30.44"/>
</a>
</g>
</g>
</g>
</svg>
