<?xml version="1.0" encoding="UTF-8" standalone="no"?>
<!DOCTYPE svg PUBLIC "-//W3C//DTD SVG 1.1//EN"
 "http://www.w3.org/Graphics/SVG/1.1/DTD/svg11.dtd">
<!-- Generated by graphviz version 8.0.3 (20230416.2022)
 -->
<!-- Title: HW&#45;Components/tools/inc/base.hpp Pages: 1 -->
<svg width="1586pt" height="324pt"
 viewBox="0.00 0.00 1586.00 324.00" xmlns="http://www.w3.org/2000/svg" xmlns:xlink="http://www.w3.org/1999/xlink">
<g id="graph0" class="graph" transform="scale(1 1) rotate(0) translate(4 320)">
<title>HW&#45;Components/tools/inc/base.hpp</title>
<!-- Node1 -->
<g id="Node000001" class="node">
<title>Node1</title>
<g id="a_Node000001"><a xlink:title=": @history : Version Date Author Note V0.9.0 yyyy&#45;mm&#45;dd &lt;author&gt; 1.">
<polygon fill="#999999" stroke="#666666" points="579,-316 464,-316 464,-286 579,-286 579,-316"/>
<text text-anchor="start" x="472" y="-304" font-family="Helvetica,sans-Serif" font-size="10.00">HW&#45;Components/tools</text>
<text text-anchor="middle" x="521.5" y="-293" font-family="Helvetica,sans-Serif" font-size="10.00">/inc/base.hpp</text>
</a>
</g>
</g>
<!-- Node2 -->
<g id="Node000002" class="node">
<title>Node2</title>
<g id="a_Node000002"><a xlink:href="$pid_8cpp.html" xlink:title=" ">
<polygon fill="white" stroke="#666666" points="139,-244.5 0,-244.5 0,-214.5 139,-214.5 139,-244.5"/>
<text text-anchor="start" x="8" y="-232.5" font-family="Helvetica,sans-Serif" font-size="10.00">HW&#45;Components/algorithms</text>
<text text-anchor="middle" x="69.5" y="-221.5" font-family="Helvetica,sans-Serif" font-size="10.00">/controller/src/pid.cpp</text>
</a>
</g>
</g>
<!-- Node1&#45;&gt;Node2 -->
<g id="edge65_Node000001_Node000002" class="edge">
<title>Node1&#45;&gt;Node2</title>
<g id="a_edge65_Node000001_Node000002"><a xlink:title=" ">
<path fill="none" stroke="#63b8ff" d="M452.76,-293.15C377.46,-285.1 253.29,-270.23 147.5,-250 139.82,-248.53 131.77,-246.77 123.88,-244.92"/>
<polygon fill="#63b8ff" stroke="#63b8ff" points="452.2,-296.71 462.51,-294.29 452.94,-289.75 452.2,-296.71"/>
</a>
</g>
</g>
<!-- Node3 -->
<g id="Node000003" class="node">
<title>Node3</title>
<g id="a_Node000003"><a xlink:href="$chassis__iksolver_8hpp.html" xlink:title=" ">
<polygon fill="white" stroke="#666666" points="296,-250 157,-250 157,-209 296,-209 296,-250"/>
<text text-anchor="start" x="165" y="-238" font-family="Helvetica,sans-Serif" font-size="10.00">HW&#45;Components/algorithms</text>
<text text-anchor="start" x="165" y="-227" font-family="Helvetica,sans-Serif" font-size="10.00">/ik_solver/inc/chassis</text>
<text text-anchor="middle" x="226.5" y="-216" font-family="Helvetica,sans-Serif" font-size="10.00">_iksolver.hpp</text>
</a>
</g>
</g>
<!-- Node1&#45;&gt;Node3 -->
<g id="edge66_Node000001_Node000003" class="edge">
<title>Node1&#45;&gt;Node3</title>
<g id="a_edge66_Node000001_Node000003"><a xlink:title=" ">
<path fill="none" stroke="#63b8ff" d="M453.18,-284.45C410.65,-274.71 354.85,-261.8 305.5,-250 302.48,-249.28 299.39,-248.53 296.27,-247.78"/>
<polygon fill="#63b8ff" stroke="#63b8ff" points="452.16,-288.04 462.69,-286.86 453.72,-281.21 452.16,-288.04"/>
</a>
</g>
</g>
<!-- Node5 -->
<g id="Node000005" class="node">
<title>Node5</title>
<g id="a_Node000005"><a xlink:href="$buzzer_8cpp.html" xlink:title=": @history : Version Date Author Note V0.9.0 2023&#45;11&#45;28 Caikunzhen 1.">
<polygon fill="white" stroke="#666666" points="440.5,-244.5 314.5,-244.5 314.5,-214.5 440.5,-214.5 440.5,-244.5"/>
<text text-anchor="start" x="322.5" y="-232.5" font-family="Helvetica,sans-Serif" font-size="10.00">HW&#45;Components/devices</text>
<text text-anchor="middle" x="377.5" y="-221.5" font-family="Helvetica,sans-Serif" font-size="10.00">/buzzer/src/buzzer.cpp</text>
</a>
</g>
</g>
<!-- Node1&#45;&gt;Node5 -->
<g id="edge68_Node000001_Node000005" class="edge">
<title>Node1&#45;&gt;Node5</title>
<g id="a_edge68_Node000001_Node000005"><a xlink:title=" ">
<path fill="none" stroke="#63b8ff" d="M481.96,-280.91C458.37,-269.53 428.91,-255.31 407.3,-244.88"/>
<polygon fill="#63b8ff" stroke="#63b8ff" points="480.14,-284.4 490.66,-285.6 483.18,-278.1 480.14,-284.4"/>
</a>
</g>
</g>
<!-- Node6 -->
<g id="Node000006" class="node">
<title>Node6</title>
<g id="a_Node000006"><a xlink:href="$_b_m_i088_8cpp.html" xlink:title=": @history : Version Date Author Note V0.9.0 yyyy&#45;mm&#45;dd &lt;author&gt; 1.">
<polygon fill="white" stroke="#666666" points="584.5,-244.5 458.5,-244.5 458.5,-214.5 584.5,-214.5 584.5,-244.5"/>
<text text-anchor="start" x="466.5" y="-232.5" font-family="Helvetica,sans-Serif" font-size="10.00">HW&#45;Components/devices</text>
<text text-anchor="middle" x="521.5" y="-221.5" font-family="Helvetica,sans-Serif" font-size="10.00">/imu/src/BMI088.cpp</text>
</a>
</g>
</g>
<!-- Node1&#45;&gt;Node6 -->
<g id="edge69_Node000001_Node000006" class="edge">
<title>Node1&#45;&gt;Node6</title>
<g id="a_edge69_Node000001_Node000006"><a xlink:title=" ">
<path fill="none" stroke="#63b8ff" d="M521.5,-274.91C521.5,-264.82 521.5,-253.54 521.5,-244.88"/>
<polygon fill="#63b8ff" stroke="#63b8ff" points="518,-274.6 521.5,-284.6 525,-274.6 518,-274.6"/>
</a>
</g>
</g>
<!-- Node7 -->
<g id="Node000007" class="node">
<title>Node7</title>
<g id="a_Node000007"><a xlink:href="$laser_8cpp.html" xlink:title=": @history : Version Date Author Note V0.9.0 2023&#45;11&#45;27 Caikunzhen 1.">
<polygon fill="white" stroke="#666666" points="728.5,-244.5 602.5,-244.5 602.5,-214.5 728.5,-214.5 728.5,-244.5"/>
<text text-anchor="start" x="610.5" y="-232.5" font-family="Helvetica,sans-Serif" font-size="10.00">HW&#45;Components/devices</text>
<text text-anchor="middle" x="665.5" y="-221.5" font-family="Helvetica,sans-Serif" font-size="10.00">/laser/src/laser.cpp</text>
</a>
</g>
</g>
<!-- Node1&#45;&gt;Node7 -->
<g id="edge70_Node000001_Node000007" class="edge">
<title>Node1&#45;&gt;Node7</title>
<g id="a_edge70_Node000001_Node000007"><a xlink:title=" ">
<path fill="none" stroke="#63b8ff" d="M561.04,-280.91C584.63,-269.53 614.09,-255.31 635.7,-244.88"/>
<polygon fill="#63b8ff" stroke="#63b8ff" points="559.82,-278.1 552.34,-285.6 562.86,-284.4 559.82,-278.1"/>
</a>
</g>
</g>
<!-- Node8 -->
<g id="Node000008" class="node">
<title>Node8</title>
<g id="a_Node000008"><a xlink:href="$motor__base_8hpp.html" xlink:title=": @history : Version Date Author Note V0.9.0 2023&#45;11&#45;25 Caikunzhen 1.">
<polygon fill="white" stroke="#666666" points="880,-244.5 747,-244.5 747,-214.5 880,-214.5 880,-244.5"/>
<text text-anchor="start" x="755" y="-232.5" font-family="Helvetica,sans-Serif" font-size="10.00">HW&#45;Components/devices</text>
<text text-anchor="middle" x="813.5" y="-221.5" font-family="Helvetica,sans-Serif" font-size="10.00">/motor/inc/motor_base.hpp</text>
</a>
</g>
</g>
<!-- Node1&#45;&gt;Node8 -->
<g id="edge71_Node000001_Node000008" class="edge">
<title>Node1&#45;&gt;Node8</title>
<g id="a_edge71_Node000001_Node000008"><a xlink:title=" ">
<path fill="none" stroke="#63b8ff" d="M589.86,-284.61C632.4,-274.93 688.2,-262.03 737.5,-250 744.12,-248.39 751.05,-246.66 757.92,-244.92"/>
<polygon fill="#63b8ff" stroke="#63b8ff" points="589.32,-281.37 580.35,-287 590.87,-288.2 589.32,-281.37"/>
</a>
</g>
</g>
<!-- Node26 -->
<g id="Node000026" class="node">
<title>Node26</title>
<g id="a_Node000026"><a xlink:href="$servo_8cpp.html" xlink:title=": @history : Version Date Author Note V0.9.0 2023&#45;11&#45;27 Caikunzhen 1.">
<polygon fill="white" stroke="#666666" points="1024.5,-244.5 898.5,-244.5 898.5,-214.5 1024.5,-214.5 1024.5,-244.5"/>
<text text-anchor="start" x="906.5" y="-232.5" font-family="Helvetica,sans-Serif" font-size="10.00">HW&#45;Components/devices</text>
<text text-anchor="middle" x="961.5" y="-221.5" font-family="Helvetica,sans-Serif" font-size="10.00">/servo/src/servo.cpp</text>
</a>
</g>
</g>
<!-- Node1&#45;&gt;Node26 -->
<g id="edge96_Node000001_Node000026" class="edge">
<title>Node1&#45;&gt;Node26</title>
<g id="a_edge96_Node000001_Node000026"><a xlink:title=" ">
<path fill="none" stroke="#63b8ff" d="M589.85,-293.39C664.08,-285.59 785.9,-270.98 889.5,-250 896.61,-248.56 904.05,-246.82 911.34,-244.97"/>
<polygon fill="#63b8ff" stroke="#63b8ff" points="589.84,-289.98 580.25,-294.49 590.56,-296.94 589.84,-289.98"/>
</a>
</g>
</g>
<!-- Node4 -->
<g id="Node000004" class="node">
<title>Node4</title>
<g id="a_Node000004"><a xlink:href="$chassis__iksolver_8cpp.html" xlink:title=" ">
<polygon fill="white" stroke="#666666" points="249,-173 110,-173 110,-132 249,-132 249,-173"/>
<text text-anchor="start" x="118" y="-161" font-family="Helvetica,sans-Serif" font-size="10.00">HW&#45;Components/algorithms</text>
<text text-anchor="start" x="118" y="-150" font-family="Helvetica,sans-Serif" font-size="10.00">/ik_solver/src/chassis</text>
<text text-anchor="middle" x="179.5" y="-139" font-family="Helvetica,sans-Serif" font-size="10.00">_iksolver.cpp</text>
</a>
</g>
</g>
<!-- Node3&#45;&gt;Node4 -->
<g id="edge67_Node000003_Node000004" class="edge">
<title>Node3&#45;&gt;Node4</title>
<g id="a_edge67_Node000003_Node000004"><a xlink:title=" ">
<path fill="none" stroke="#63b8ff" d="M208.4,-199.62C202.9,-190.83 196.97,-181.38 191.93,-173.33"/>
<polygon fill="#63b8ff" stroke="#63b8ff" points="205.88,-201.18 214.15,-207.79 211.81,-197.46 205.88,-201.18"/>
</a>
</g>
</g>
<!-- Node9 -->
<g id="Node000009" class="node">
<title>Node9</title>
<g id="a_Node000009"><a xlink:href="$motor_8hpp.html" xlink:title=": @history : Version Date Author Note V0.9.0 2023&#45;11&#45;25 Caikunzhen 1.">
<polygon fill="white" stroke="#666666" points="870.5,-96 744.5,-96 744.5,-66 870.5,-66 870.5,-96"/>
<text text-anchor="start" x="752.5" y="-84" font-family="Helvetica,sans-Serif" font-size="10.00">HW&#45;Components/devices</text>
<text text-anchor="middle" x="807.5" y="-73" font-family="Helvetica,sans-Serif" font-size="10.00">/motor/inc/motor.hpp</text>
</a>
</g>
</g>
<!-- Node8&#45;&gt;Node9 -->
<g id="edge72_Node000008_Node000009" class="edge">
<title>Node8&#45;&gt;Node9</title>
<g id="a_edge72_Node000008_Node000009"><a xlink:title=" ">
<path fill="none" stroke="#63b8ff" d="M792.4,-206.03C784.9,-196.58 777.37,-184.99 773.5,-173 767.9,-155.66 768.14,-149.42 773.5,-132 777.64,-118.56 786.76,-105.49 794.51,-96.08"/>
<polygon fill="#63b8ff" stroke="#63b8ff" points="790.33,-208 799.45,-213.39 795.68,-203.49 790.33,-208"/>
</a>
</g>
</g>
<!-- Node11 -->
<g id="Node000011" class="node">
<title>Node11</title>
<g id="a_Node000011"><a xlink:href="$motor___a1_8hpp.html" xlink:title=": @history : Version Date Author Note V0.9.0 2023&#45;11&#45;25 Caikunzhen 1.">
<polygon fill="white" stroke="#666666" points="1234.5,-167.5 1108.5,-167.5 1108.5,-137.5 1234.5,-137.5 1234.5,-167.5"/>
<text text-anchor="start" x="1116.5" y="-155.5" font-family="Helvetica,sans-Serif" font-size="10.00">HW&#45;Components/devices</text>
<text text-anchor="middle" x="1171.5" y="-144.5" font-family="Helvetica,sans-Serif" font-size="10.00">/motor/inc/motor_A1.hpp</text>
</a>
</g>
</g>
<!-- Node8&#45;&gt;Node11 -->
<g id="edge74_Node000008_Node000011" class="edge">
<title>Node8&#45;&gt;Node11</title>
<g id="a_edge74_Node000008_Node000011"><a xlink:title=" ">
<path fill="none" stroke="#63b8ff" d="M878.37,-211.48C882.13,-210.61 885.86,-209.78 889.5,-209 982.11,-189.22 1007.03,-193.4 1099.5,-173 1106.33,-171.49 1113.48,-169.75 1120.51,-167.95"/>
<polygon fill="#63b8ff" stroke="#63b8ff" points="877.68,-208.29 868.76,-214.01 879.3,-215.1 877.68,-208.29"/>
</a>
</g>
</g>
<!-- Node13 -->
<g id="Node000013" class="node">
<title>Node13</title>
<g id="a_Node000013"><a xlink:href="$motor___d_m___j4310_8hpp.html" xlink:title=": @history : Version Date Author Note V0.9.0 2023&#45;11&#45;25 Caikunzhen 1.">
<polygon fill="white" stroke="#666666" points="1410.5,-167.5 1252.5,-167.5 1252.5,-137.5 1410.5,-137.5 1410.5,-167.5"/>
<text text-anchor="start" x="1260.5" y="-155.5" font-family="Helvetica,sans-Serif" font-size="10.00">HW&#45;Components/devices</text>
<text text-anchor="middle" x="1331.5" y="-144.5" font-family="Helvetica,sans-Serif" font-size="10.00">/motor/inc/motor_DM_J4310.hpp</text>
</a>
</g>
</g>
<!-- Node8&#45;&gt;Node13 -->
<g id="edge77_Node000008_Node000013" class="edge">
<title>Node8&#45;&gt;Node13</title>
<g id="a_edge77_Node000008_Node000013"><a xlink:title=" ">
<path fill="none" stroke="#63b8ff" d="M876.12,-211.65C880.63,-210.68 885.12,-209.78 889.5,-209 1045.19,-181.27 1087.37,-198.15 1243.5,-173 1252.31,-171.58 1261.55,-169.83 1270.61,-167.96"/>
<polygon fill="#63b8ff" stroke="#63b8ff" points="875.58,-208.41 866.61,-214.04 877.13,-215.24 875.58,-208.41"/>
</a>
</g>
</g>
<!-- Node15 -->
<g id="Node000015" class="node">
<title>Node15</title>
<g id="a_Node000015"><a xlink:href="$motor___g_m6020_8hpp.html" xlink:title=": @history : Version Date Author Note V0.9.0 2023&#45;11&#45;25 Caikunzhen 1.">
<polygon fill="white" stroke="#666666" points="1578,-167.5 1429,-167.5 1429,-137.5 1578,-137.5 1578,-167.5"/>
<text text-anchor="start" x="1437" y="-155.5" font-family="Helvetica,sans-Serif" font-size="10.00">HW&#45;Components/devices</text>
<text text-anchor="middle" x="1503.5" y="-144.5" font-family="Helvetica,sans-Serif" font-size="10.00">/motor/inc/motor_GM6020.hpp</text>
</a>
</g>
</g>
<!-- Node8&#45;&gt;Node15 -->
<g id="edge80_Node000008_Node000015" class="edge">
<title>Node8&#45;&gt;Node15</title>
<g id="a_edge80_Node000008_Node000015"><a xlink:title=" ">
<path fill="none" stroke="#63b8ff" d="M874.99,-211.71C879.88,-210.69 884.76,-209.76 889.5,-209 1122.6,-171.5 1185.98,-207.81 1419.5,-173 1428.38,-171.68 1437.72,-169.9 1446.8,-167.96"/>
<polygon fill="#63b8ff" stroke="#63b8ff" points="874.33,-208.5 865.33,-214.09 875.85,-215.33 874.33,-208.5"/>
</a>
</g>
</g>
<!-- Node17 -->
<g id="Node000017" class="node">
<title>Node17</title>
<g id="a_Node000017"><a xlink:href="$motor___m2006_8hpp.html" xlink:title=": @history : Version Date Author Note V0.9.0 2023&#45;11&#45;25 Caikunzhen 1.">
<polygon fill="white" stroke="#666666" points="408,-167.5 267,-167.5 267,-137.5 408,-137.5 408,-167.5"/>
<text text-anchor="start" x="275" y="-155.5" font-family="Helvetica,sans-Serif" font-size="10.00">HW&#45;Components/devices</text>
<text text-anchor="middle" x="337.5" y="-144.5" font-family="Helvetica,sans-Serif" font-size="10.00">/motor/inc/motor_M2006.hpp</text>
</a>
</g>
</g>
<!-- Node8&#45;&gt;Node17 -->
<g id="edge83_Node000008_Node000017" class="edge">
<title>Node8&#45;&gt;Node17</title>
<g id="a_edge83_Node000008_Node000017"><a xlink:title=" ">
<path fill="none" stroke="#63b8ff" d="M750.27,-211.57C745.96,-210.63 741.68,-209.77 737.5,-209 596.3,-183.1 557.82,-198.26 416.5,-173 408.57,-171.58 400.26,-169.83 392.13,-167.96"/>
<polygon fill="#63b8ff" stroke="#63b8ff" points="749.44,-215.2 759.97,-214.01 751,-208.37 749.44,-215.2"/>
</a>
</g>
</g>
<!-- Node19 -->
<g id="Node000019" class="node">
<title>Node19</title>
<g id="a_Node000019"><a xlink:href="$motor___m3508_8hpp.html" xlink:title=": @history : Version Date Author Note V0.9.0 2023&#45;11&#45;25 Caikunzhen 1.">
<polygon fill="white" stroke="#666666" points="567,-167.5 426,-167.5 426,-137.5 567,-137.5 567,-167.5"/>
<text text-anchor="start" x="434" y="-155.5" font-family="Helvetica,sans-Serif" font-size="10.00">HW&#45;Components/devices</text>
<text text-anchor="middle" x="496.5" y="-144.5" font-family="Helvetica,sans-Serif" font-size="10.00">/motor/inc/motor_M3508.hpp</text>
</a>
</g>
</g>
<!-- Node8&#45;&gt;Node19 -->
<g id="edge86_Node000008_Node000019" class="edge">
<title>Node8&#45;&gt;Node19</title>
<g id="a_edge86_Node000008_Node000019"><a xlink:title=" ">
<path fill="none" stroke="#63b8ff" d="M747.3,-211.38C743.99,-210.57 740.71,-209.77 737.5,-209 665.77,-191.83 647.31,-189.84 575.5,-173 568.62,-171.39 561.42,-169.66 554.28,-167.93"/>
<polygon fill="#63b8ff" stroke="#63b8ff" points="746.38,-215.01 756.93,-214.02 748.07,-208.21 746.38,-215.01"/>
</a>
</g>
</g>
<!-- Node21 -->
<g id="Node000021" class="node">
<title>Node21</title>
<g id="a_Node000021"><a xlink:href="$motor___m8910_8hpp.html" xlink:title=": @history : Version Date Author Note V0.9.0 2023&#45;11&#45;25 Caikunzhen 1.">
<polygon fill="white" stroke="#666666" points="726,-167.5 585,-167.5 585,-137.5 726,-137.5 726,-167.5"/>
<text text-anchor="start" x="593" y="-155.5" font-family="Helvetica,sans-Serif" font-size="10.00">HW&#45;Components/devices</text>
<text text-anchor="middle" x="655.5" y="-144.5" font-family="Helvetica,sans-Serif" font-size="10.00">/motor/inc/motor_M8910.hpp</text>
</a>
</g>
</g>
<!-- Node8&#45;&gt;Node21 -->
<g id="edge89_Node000008_Node000021" class="edge">
<title>Node8&#45;&gt;Node21</title>
<g id="a_edge89_Node000008_Node000021"><a xlink:title=" ">
<path fill="none" stroke="#63b8ff" d="M773.41,-209.47C746.2,-196.55 710.76,-179.73 685.87,-167.92"/>
<polygon fill="#63b8ff" stroke="#63b8ff" points="771.5,-212.91 782.04,-214.04 774.5,-206.59 771.5,-212.91"/>
</a>
</g>
</g>
<!-- Node23 -->
<g id="Node000023" class="node">
<title>Node23</title>
<g id="a_Node000023"><a xlink:href="$motor___m_f9025v2_8hpp.html" xlink:title=": @history : Version Date Author Note V0.9.0 2023&#45;11&#45;25 Caikunzhen 1.">
<polygon fill="white" stroke="#666666" points="938.5,-167.5 782.5,-167.5 782.5,-137.5 938.5,-137.5 938.5,-167.5"/>
<text text-anchor="start" x="790.5" y="-155.5" font-family="Helvetica,sans-Serif" font-size="10.00">HW&#45;Components/devices</text>
<text text-anchor="middle" x="860.5" y="-144.5" font-family="Helvetica,sans-Serif" font-size="10.00">/motor/inc/motor_MF9025v2.hpp</text>
</a>
</g>
</g>
<!-- Node8&#45;&gt;Node23 -->
<g id="edge92_Node000008_Node000023" class="edge">
<title>Node8&#45;&gt;Node23</title>
<g id="a_edge92_Node000008_Node000023"><a xlink:title=" ">
<path fill="none" stroke="#63b8ff" d="M828.28,-204.91C835.88,-192.78 844.91,-178.38 851.47,-167.92"/>
<polygon fill="#63b8ff" stroke="#63b8ff" points="824.91,-202.71 822.56,-213.04 830.84,-206.42 824.91,-202.71"/>
</a>
</g>
</g>
<!-- Node25 -->
<g id="Node000025" class="node">
<title>Node25</title>
<g id="a_Node000025"><a xlink:href="$motor__base_8cpp.html" xlink:title=": @history : Version Date Author Note V0.9.0 2023&#45;11&#45;25 Caikunzhen 1.">
<polygon fill="white" stroke="#666666" points="1090.5,-167.5 956.5,-167.5 956.5,-137.5 1090.5,-137.5 1090.5,-167.5"/>
<text text-anchor="start" x="964.5" y="-155.5" font-family="Helvetica,sans-Serif" font-size="10.00">HW&#45;Components/devices</text>
<text text-anchor="middle" x="1023.5" y="-144.5" font-family="Helvetica,sans-Serif" font-size="10.00">/motor/src/motor_base.cpp</text>
</a>
</g>
</g>
<!-- Node8&#45;&gt;Node25 -->
<g id="edge95_Node000008_Node000025" class="edge">
<title>Node8&#45;&gt;Node25</title>
<g id="a_edge95_Node000008_Node000025"><a xlink:title=" ">
<path fill="none" stroke="#63b8ff" d="M863.95,-210.48C900.47,-197.44 949.18,-180.04 983.13,-167.92"/>
<polygon fill="#63b8ff" stroke="#63b8ff" points="863.23,-207.38 854.99,-214.04 865.58,-213.97 863.23,-207.38"/>
</a>
</g>
</g>
<!-- Node10 -->
<g id="Node000010" class="node">
<title>Node10</title>
<g id="a_Node000010"><a xlink:href="$motor_8cpp.html" xlink:title=": @history : Version Date Author Note V0.9.0 yyyy&#45;mm&#45;dd &lt;author&gt; 1.">
<polygon fill="white" stroke="#666666" points="870.5,-30 744.5,-30 744.5,0 870.5,0 870.5,-30"/>
<text text-anchor="start" x="752.5" y="-18" font-family="Helvetica,sans-Serif" font-size="10.00">HW&#45;Components/devices</text>
<text text-anchor="middle" x="807.5" y="-7" font-family="Helvetica,sans-Serif" font-size="10.00">/motor/src/motor.cpp</text>
</a>
</g>
</g>
<!-- Node9&#45;&gt;Node10 -->
<g id="edge73_Node000009_Node000010" class="edge">
<title>Node9&#45;&gt;Node10</title>
<g id="a_edge73_Node000009_Node000010"><a xlink:title=" ">
<path fill="none" stroke="#63b8ff" d="M807.5,-54.97C807.5,-46.55 807.5,-37.45 807.5,-30.16"/>
<polygon fill="#63b8ff" stroke="#63b8ff" points="804,-54.8 807.5,-64.8 811,-54.8 804,-54.8"/>
</a>
</g>
</g>
<!-- Node11&#45;&gt;Node9 -->
<g id="edge75_Node000011_Node000009" class="edge">
<title>Node11&#45;&gt;Node9</title>
<g id="a_edge75_Node000011_Node000009"><a xlink:title=" ">
<path fill="none" stroke="#63b8ff" d="M1109.94,-134.39C1106.41,-133.54 1102.92,-132.74 1099.5,-132 1003.1,-111.08 977.61,-113.29 880.5,-96 877.32,-95.43 874.07,-94.85 870.79,-94.24"/>
<polygon fill="#63b8ff" stroke="#63b8ff" points="1108.98,-138 1119.52,-137.01 1110.66,-131.21 1108.98,-138"/>
</a>
</g>
</g>
<!-- Node12 -->
<g id="Node000012" class="node">
<title>Node12</title>
<g id="a_Node000012"><a xlink:href="$motor___a1_8cpp.html" xlink:title=": @history : Version Date Author Note V0.9.0 2023&#45;11&#45;25 Caikunzhen 1.">
<polygon fill="white" stroke="#666666" points="1234.5,-96 1108.5,-96 1108.5,-66 1234.5,-66 1234.5,-96"/>
<text text-anchor="start" x="1116.5" y="-84" font-family="Helvetica,sans-Serif" font-size="10.00">HW&#45;Components/devices</text>
<text text-anchor="middle" x="1171.5" y="-73" font-family="Helvetica,sans-Serif" font-size="10.00">/motor/src/motor_A1.cpp</text>
</a>
</g>
</g>
<!-- Node11&#45;&gt;Node12 -->
<g id="edge76_Node000011_Node000012" class="edge">
<title>Node11&#45;&gt;Node12</title>
<g id="a_edge76_Node000011_Node000012"><a xlink:title=" ">
<path fill="none" stroke="#63b8ff" d="M1171.5,-126.41C1171.5,-116.32 1171.5,-105.04 1171.5,-96.38"/>
<polygon fill="#63b8ff" stroke="#63b8ff" points="1168,-126.1 1171.5,-136.1 1175,-126.1 1168,-126.1"/>
</a>
</g>
</g>
<!-- Node13&#45;&gt;Node9 -->
<g id="edge78_Node000013_Node000009" class="edge">
<title>Node13&#45;&gt;Node9</title>
<g id="a_edge78_Node000013_Node000009"><a xlink:title=" ">
<path fill="none" stroke="#63b8ff" d="M1259.95,-134.9C1254.4,-133.84 1248.87,-132.86 1243.5,-132 1083.41,-106.42 1040.94,-119.29 880.5,-96 877.31,-95.54 874.04,-95.03 870.75,-94.49"/>
<polygon fill="#63b8ff" stroke="#63b8ff" points="1259.12,-138.5 1269.61,-137.02 1260.49,-131.64 1259.12,-138.5"/>
</a>
</g>
</g>
<!-- Node14 -->
<g id="Node000014" class="node">
<title>Node14</title>
<g id="a_Node000014"><a xlink:href="$motor___d_m___j4310_8cpp.html" xlink:title=": @history : Version Date Author Note V0.9.0 2023&#45;11&#45;25 Caikunzhen 1.">
<polygon fill="white" stroke="#666666" points="1410.5,-96 1252.5,-96 1252.5,-66 1410.5,-66 1410.5,-96"/>
<text text-anchor="start" x="1260.5" y="-84" font-family="Helvetica,sans-Serif" font-size="10.00">HW&#45;Components/devices</text>
<text text-anchor="middle" x="1331.5" y="-73" font-family="Helvetica,sans-Serif" font-size="10.00">/motor/src/motor_DM_J4310.cpp</text>
</a>
</g>
</g>
<!-- Node13&#45;&gt;Node14 -->
<g id="edge79_Node000013_Node000014" class="edge">
<title>Node13&#45;&gt;Node14</title>
<g id="a_edge79_Node000013_Node000014"><a xlink:title=" ">
<path fill="none" stroke="#63b8ff" d="M1331.5,-126.41C1331.5,-116.32 1331.5,-105.04 1331.5,-96.38"/>
<polygon fill="#63b8ff" stroke="#63b8ff" points="1328,-126.1 1331.5,-136.1 1335,-126.1 1328,-126.1"/>
</a>
</g>
</g>
<!-- Node15&#45;&gt;Node9 -->
<g id="edge81_Node000015_Node000009" class="edge">
<title>Node15&#45;&gt;Node9</title>
<g id="a_edge81_Node000015_Node000009"><a xlink:title=" ">
<path fill="none" stroke="#63b8ff" d="M1436.09,-134.85C1430.5,-133.78 1424.91,-132.8 1419.5,-132 1182.01,-96.74 1118.62,-126.67 880.5,-96 877.3,-95.59 874.03,-95.12 870.73,-94.62"/>
<polygon fill="#63b8ff" stroke="#63b8ff" points="1435.31,-138.47 1445.8,-137.03 1436.7,-131.61 1435.31,-138.47"/>
</a>
</g>
</g>
<!-- Node16 -->
<g id="Node000016" class="node">
<title>Node16</title>
<g id="a_Node000016"><a xlink:href="$motor___g_m6020_8cpp.html" xlink:title=" ">
<polygon fill="white" stroke="#666666" points="1578,-96 1429,-96 1429,-66 1578,-66 1578,-96"/>
<text text-anchor="start" x="1437" y="-84" font-family="Helvetica,sans-Serif" font-size="10.00">HW&#45;Components/devices</text>
<text text-anchor="middle" x="1503.5" y="-73" font-family="Helvetica,sans-Serif" font-size="10.00">/motor/src/motor_GM6020.cpp</text>
</a>
</g>
</g>
<!-- Node15&#45;&gt;Node16 -->
<g id="edge82_Node000015_Node000016" class="edge">
<title>Node15&#45;&gt;Node16</title>
<g id="a_edge82_Node000015_Node000016"><a xlink:title=" ">
<path fill="none" stroke="#63b8ff" d="M1503.5,-126.41C1503.5,-116.32 1503.5,-105.04 1503.5,-96.38"/>
<polygon fill="#63b8ff" stroke="#63b8ff" points="1500,-126.1 1503.5,-136.1 1507,-126.1 1500,-126.1"/>
</a>
</g>
</g>
<!-- Node17&#45;&gt;Node9 -->
<g id="edge84_Node000017_Node000009" class="edge">
<title>Node17&#45;&gt;Node9</title>
<g id="a_edge84_Node000017_Node000009"><a xlink:title=" ">
<path fill="none" stroke="#63b8ff" d="M402.86,-134.67C407.46,-133.7 412.04,-132.8 416.5,-132 556.94,-106.85 594.47,-117.63 735.5,-96 738.39,-95.56 741.35,-95.08 744.33,-94.58"/>
<polygon fill="#63b8ff" stroke="#63b8ff" points="402.14,-131.47 393.13,-137.04 403.65,-138.3 402.14,-131.47"/>
</a>
</g>
</g>
<!-- Node18 -->
<g id="Node000018" class="node">
<title>Node18</title>
<g id="a_Node000018"><a xlink:href="$motor___m2006_8cpp.html" xlink:title=": @history : Version Date Author Note V0.9.0 2023&#45;11&#45;25 Caikunzhen 1.">
<polygon fill="white" stroke="#666666" points="406.5,-96 264.5,-96 264.5,-66 406.5,-66 406.5,-96"/>
<text text-anchor="start" x="272.5" y="-84" font-family="Helvetica,sans-Serif" font-size="10.00">HW&#45;Components/devices</text>
<text text-anchor="middle" x="335.5" y="-73" font-family="Helvetica,sans-Serif" font-size="10.00">/motor/src/motor_M2006.cpp</text>
</a>
</g>
</g>
<!-- Node17&#45;&gt;Node18 -->
<g id="edge85_Node000017_Node000018" class="edge">
<title>Node17&#45;&gt;Node18</title>
<g id="a_edge85_Node000017_Node000018"><a xlink:title=" ">
<path fill="none" stroke="#63b8ff" d="M336.78,-126.41C336.49,-116.32 336.16,-105.04 335.91,-96.38"/>
<polygon fill="#63b8ff" stroke="#63b8ff" points="333.3,-126.2 337.09,-136.1 340.3,-126 333.3,-126.2"/>
</a>
</g>
</g>
<!-- Node19&#45;&gt;Node9 -->
<g id="edge87_Node000019_Node000009" class="edge">
<title>Node19&#45;&gt;Node9</title>
<g id="a_edge87_Node000019_Node000009"><a xlink:title=" ">
<path fill="none" stroke="#63b8ff" d="M564.65,-134.54C568.32,-133.67 571.95,-132.82 575.5,-132 632.5,-118.82 697.65,-104.88 744.37,-95.08"/>
<polygon fill="#63b8ff" stroke="#63b8ff" points="564.18,-131.3 555.27,-137.03 565.81,-138.1 564.18,-131.3"/>
</a>
</g>
</g>
<!-- Node20 -->
<g id="Node000020" class="node">
<title>Node20</title>
<g id="a_Node000020"><a xlink:href="$motor___m3508_8cpp.html" xlink:title=": @history : Version Date Author Note V0.9.0 2023&#45;11&#45;25 Caikunzhen 1.">
<polygon fill="white" stroke="#666666" points="566.5,-96 424.5,-96 424.5,-66 566.5,-66 566.5,-96"/>
<text text-anchor="start" x="432.5" y="-84" font-family="Helvetica,sans-Serif" font-size="10.00">HW&#45;Components/devices</text>
<text text-anchor="middle" x="495.5" y="-73" font-family="Helvetica,sans-Serif" font-size="10.00">/motor/src/motor_M3508.cpp</text>
</a>
</g>
</g>
<!-- Node19&#45;&gt;Node20 -->
<g id="edge88_Node000019_Node000020" class="edge">
<title>Node19&#45;&gt;Node20</title>
<g id="a_edge88_Node000019_Node000020"><a xlink:title=" ">
<path fill="none" stroke="#63b8ff" d="M496.14,-126.41C495.99,-116.32 495.83,-105.04 495.71,-96.38"/>
<polygon fill="#63b8ff" stroke="#63b8ff" points="492.65,-126.15 496.29,-136.1 499.65,-126.05 492.65,-126.15"/>
</a>
</g>
</g>
<!-- Node21&#45;&gt;Node9 -->
<g id="edge90_Node000021_Node000009" class="edge">
<title>Node21&#45;&gt;Node9</title>
<g id="a_edge90_Node000021_Node000009"><a xlink:title=" ">
<path fill="none" stroke="#63b8ff" d="M696.91,-132.57C721.86,-121.16 753.13,-106.86 776.05,-96.38"/>
<polygon fill="#63b8ff" stroke="#63b8ff" points="695.63,-129.76 687.99,-137.1 698.54,-136.12 695.63,-129.76"/>
</a>
</g>
</g>
<!-- Node22 -->
<g id="Node000022" class="node">
<title>Node22</title>
<g id="a_Node000022"><a xlink:href="$motor___m8910_8cpp.html" xlink:title=": @history : Version Date Author Note V0.9.0 2023&#45;11&#45;25 Caikunzhen 1.">
<polygon fill="white" stroke="#666666" points="726.5,-96 584.5,-96 584.5,-66 726.5,-66 726.5,-96"/>
<text text-anchor="start" x="592.5" y="-84" font-family="Helvetica,sans-Serif" font-size="10.00">HW&#45;Components/devices</text>
<text text-anchor="middle" x="655.5" y="-73" font-family="Helvetica,sans-Serif" font-size="10.00">/motor/src/motor_M8910.cpp</text>
</a>
</g>
</g>
<!-- Node21&#45;&gt;Node22 -->
<g id="edge91_Node000021_Node000022" class="edge">
<title>Node21&#45;&gt;Node22</title>
<g id="a_edge91_Node000021_Node000022"><a xlink:title=" ">
<path fill="none" stroke="#63b8ff" d="M655.5,-126.41C655.5,-116.32 655.5,-105.04 655.5,-96.38"/>
<polygon fill="#63b8ff" stroke="#63b8ff" points="652,-126.1 655.5,-136.1 659,-126.1 652,-126.1"/>
</a>
</g>
</g>
<!-- Node23&#45;&gt;Node9 -->
<g id="edge93_Node000023_Node000009" class="edge">
<title>Node23&#45;&gt;Node9</title>
<g id="a_edge93_Node000023_Node000009"><a xlink:title=" ">
<path fill="none" stroke="#63b8ff" d="M843.09,-128.67C834.98,-118.03 825.57,-105.7 818.47,-96.38"/>
<polygon fill="#63b8ff" stroke="#63b8ff" points="840.67,-130.27 849.52,-136.1 846.24,-126.03 840.67,-130.27"/>
</a>
</g>
</g>
<!-- Node24 -->
<g id="Node000024" class="node">
<title>Node24</title>
<g id="a_Node000024"><a xlink:href="$motor___m_f9025v2_8cpp.html" xlink:title=": @history : Version Date Author Note V0.9.0 2023&#45;11&#45;25 Caikunzhen 1.">
<polygon fill="white" stroke="#666666" points="1046,-96 889,-96 889,-66 1046,-66 1046,-96"/>
<text text-anchor="start" x="897" y="-84" font-family="Helvetica,sans-Serif" font-size="10.00">HW&#45;Components/devices</text>
<text text-anchor="middle" x="967.5" y="-73" font-family="Helvetica,sans-Serif" font-size="10.00">/motor/src/motor_MF9025v2.cpp</text>
</a>
</g>
</g>
<!-- Node23&#45;&gt;Node24 -->
<g id="edge94_Node000023_Node000024" class="edge">
<title>Node23&#45;&gt;Node24</title>
<g id="a_edge94_Node000023_Node000024"><a xlink:title=" ">
<path fill="none" stroke="#63b8ff" d="M891.78,-131.18C908.96,-120.02 929.87,-106.44 945.36,-96.38"/>
<polygon fill="#63b8ff" stroke="#63b8ff" points="890.15,-128.72 883.67,-137.1 893.96,-134.59 890.15,-128.72"/>
</a>
</g>
</g>
</g>
</svg>
