<?xml version="1.0" encoding="UTF-8" standalone="no"?>
<!DOCTYPE svg PUBLIC "-//W3C//DTD SVG 1.1//EN"
 "http://www.w3.org/Graphics/SVG/1.1/DTD/svg11.dtd">
<!-- Generated by graphviz version 8.0.3 (20230416.2022)
 -->
<!-- Title: HW&#45;Components/devices/buzzer/src/buzzer.cpp Pages: 1 -->
<svg width="456pt" height="203pt"
 viewBox="0.00 0.00 455.50 203.00" xmlns="http://www.w3.org/2000/svg" xmlns:xlink="http://www.w3.org/1999/xlink">
<g id="graph0" class="graph" transform="scale(1 1) rotate(0) translate(4 199)">
<title>HW&#45;Components/devices/buzzer/src/buzzer.cpp</title>
<!-- Node1 -->
<g id="Node000001" class="node">
<title>Node1</title>
<g id="a_Node000001"><a xlink:title=": @history : Version Date Author Note V0.9.0 2023&#45;11&#45;28 Caikunzhen 1.">
<polygon fill="#999999" stroke="#666666" points="340,-195 214,-195 214,-165 340,-165 340,-195"/>
<text text-anchor="start" x="222" y="-183" font-family="Helvetica,sans-Serif" font-size="10.00">HW&#45;Components/devices</text>
<text text-anchor="middle" x="277" y="-172" font-family="Helvetica,sans-Serif" font-size="10.00">/buzzer/src/buzzer.cpp</text>
</a>
</g>
</g>
<!-- Node2 -->
<g id="Node000002" class="node">
<title>Node2</title>
<g id="a_Node000002"><a xlink:href="$buzzer_8hpp.html" xlink:title=": @history : Version Date Author Note V0.9.0 2023&#45;11&#45;28 Caikunzhen 1.">
<polygon fill="white" stroke="#666666" points="172.5,-129 107.5,-129 107.5,-110 172.5,-110 172.5,-129"/>
<text text-anchor="middle" x="140" y="-117" font-family="Helvetica,sans-Serif" font-size="10.00">buzzer.hpp</text>
</a>
</g>
</g>
<!-- Node1&#45;&gt;Node2 -->
<g id="edge25_Node000001_Node000002" class="edge">
<title>Node1&#45;&gt;Node2</title>
<g id="a_edge25_Node000001_Node000002"><a xlink:title=" ">
<path fill="none" stroke="#63b8ff" d="M243.13,-164.54C220.94,-155.06 192.15,-142.77 170.63,-133.58"/>
<polygon fill="#63b8ff" stroke="#63b8ff" points="172.29,-130.05 161.72,-129.35 169.54,-136.49 172.29,-130.05"/>
</a>
</g>
</g>
<!-- Node6 -->
<g id="Node000006" class="node">
<title>Node6</title>
<g id="a_Node000006"><a xlink:title=" ">
<polygon fill="#e0e0e0" stroke="#999999" points="236,-74 192,-74 192,-55 236,-55 236,-74"/>
<text text-anchor="middle" x="214" y="-62" font-family="Helvetica,sans-Serif" font-size="10.00">cmath</text>
</a>
</g>
</g>
<!-- Node1&#45;&gt;Node6 -->
<g id="edge29_Node000001_Node000006" class="edge">
<title>Node1&#45;&gt;Node6</title>
<g id="a_edge29_Node000001_Node000006"><a xlink:title=" ">
<path fill="none" stroke="#63b8ff" d="M264.98,-164.78C257.2,-155.11 247.21,-141.8 240,-129 231.95,-114.71 225.04,-97.42 220.37,-84.5"/>
<polygon fill="#63b8ff" stroke="#63b8ff" points="223.47,-83.74 216.87,-75.45 216.85,-86.04 223.47,-83.74"/>
</a>
</g>
</g>
<!-- Node7 -->
<g id="Node000007" class="node">
<title>Node7</title>
<g id="a_Node000007"><a xlink:href="$assert_8hpp.html" xlink:title=": @history : Version Date Author Note V0.9.0 yyyy&#45;mm&#45;dd &lt;author&gt; 1.">
<polygon fill="white" stroke="#666666" points="380,-74 318,-74 318,-55 380,-55 380,-74"/>
<text text-anchor="middle" x="349" y="-62" font-family="Helvetica,sans-Serif" font-size="10.00">assert.hpp</text>
</a>
</g>
</g>
<!-- Node1&#45;&gt;Node7 -->
<g id="edge30_Node000001_Node000007" class="edge">
<title>Node1&#45;&gt;Node7</title>
<g id="a_edge30_Node000001_Node000007"><a xlink:title=" ">
<path fill="none" stroke="#63b8ff" d="M288.21,-164.92C295.83,-155.09 305.95,-141.54 314,-129 323.45,-114.27 332.96,-96.8 339.68,-83.92"/>
<polygon fill="#63b8ff" stroke="#63b8ff" points="343.15,-85.83 344.6,-75.34 336.92,-82.64 343.15,-85.83"/>
</a>
</g>
</g>
<!-- Node8 -->
<g id="Node000008" class="node">
<title>Node8</title>
<g id="a_Node000008"><a xlink:href="$base_8hpp.html" xlink:title=": @history : Version Date Author Note V0.9.0 yyyy&#45;mm&#45;dd &lt;author&gt; 1.">
<polygon fill="white" stroke="#666666" points="305,-129 249,-129 249,-110 305,-110 305,-129"/>
<text text-anchor="middle" x="277" y="-117" font-family="Helvetica,sans-Serif" font-size="10.00">base.hpp</text>
</a>
</g>
</g>
<!-- Node1&#45;&gt;Node8 -->
<g id="edge31_Node000001_Node000008" class="edge">
<title>Node1&#45;&gt;Node8</title>
<g id="a_edge31_Node000001_Node000008"><a xlink:title=" ">
<path fill="none" stroke="#63b8ff" d="M277,-164.54C277,-157.17 277,-148.1 277,-140.11"/>
<polygon fill="#63b8ff" stroke="#63b8ff" points="280.5,-140.18 277,-130.18 273.5,-140.18 280.5,-140.18"/>
</a>
</g>
</g>
<!-- Node10 -->
<g id="Node000010" class="node">
<title>Node10</title>
<g id="a_Node000010"><a xlink:href="$tick_8hpp.html" xlink:title=" ">
<polygon fill="white" stroke="#666666" points="434.5,-129 383.5,-129 383.5,-110 434.5,-110 434.5,-129"/>
<text text-anchor="middle" x="409" y="-117" font-family="Helvetica,sans-Serif" font-size="10.00">tick.hpp</text>
</a>
</g>
</g>
<!-- Node1&#45;&gt;Node10 -->
<g id="edge35_Node000001_Node000010" class="edge">
<title>Node1&#45;&gt;Node10</title>
<g id="a_edge35_Node000001_Node000010"><a xlink:title=" ">
<path fill="none" stroke="#63b8ff" d="M309.63,-164.54C330.92,-155.1 358.5,-142.88 379.2,-133.71"/>
<polygon fill="#63b8ff" stroke="#63b8ff" points="380.32,-136.6 388.04,-129.35 377.48,-130.2 380.32,-136.6"/>
</a>
</g>
</g>
<!-- Node3 -->
<g id="Node000003" class="node">
<title>Node3</title>
<g id="a_Node000003"><a xlink:title=" ">
<polygon fill="#e0e0e0" stroke="#999999" points="88,-74 0,-74 0,-55 88,-55 88,-74"/>
<text text-anchor="middle" x="44" y="-62" font-family="Helvetica,sans-Serif" font-size="10.00">stm32f4xx_hal.h</text>
</a>
</g>
</g>
<!-- Node2&#45;&gt;Node3 -->
<g id="edge26_Node000002_Node000003" class="edge">
<title>Node2&#45;&gt;Node3</title>
<g id="a_edge26_Node000002_Node000003"><a xlink:title=" ">
<path fill="none" stroke="#63b8ff" d="M123.71,-109.51C108.87,-101.31 86.7,-89.07 69.5,-79.58"/>
<polygon fill="#63b8ff" stroke="#63b8ff" points="71.49,-76.13 61.04,-74.36 68.11,-82.26 71.49,-76.13"/>
</a>
</g>
</g>
<!-- Node4 -->
<g id="Node000004" class="node">
<title>Node4</title>
<g id="a_Node000004"><a xlink:href="$system_8hpp.html" xlink:title=" ">
<polygon fill="white" stroke="#666666" points="174,-74 106,-74 106,-55 174,-55 174,-74"/>
<text text-anchor="middle" x="140" y="-62" font-family="Helvetica,sans-Serif" font-size="10.00">system.hpp</text>
</a>
</g>
</g>
<!-- Node2&#45;&gt;Node4 -->
<g id="edge27_Node000002_Node000004" class="edge">
<title>Node2&#45;&gt;Node4</title>
<g id="a_edge27_Node000002_Node000004"><a xlink:title=" ">
<path fill="none" stroke="#63b8ff" d="M140,-109.75C140,-103.11 140,-93.73 140,-85.31"/>
<polygon fill="#63b8ff" stroke="#63b8ff" points="143.5,-85.44 140,-75.44 136.5,-85.44 143.5,-85.44"/>
</a>
</g>
</g>
<!-- Node5 -->
<g id="Node000005" class="node">
<title>Node5</title>
<g id="a_Node000005"><a xlink:title=" ">
<polygon fill="#e0e0e0" stroke="#999999" points="162.5,-19 117.5,-19 117.5,0 162.5,0 162.5,-19"/>
<text text-anchor="middle" x="140" y="-7" font-family="Helvetica,sans-Serif" font-size="10.00">cstdlib</text>
</a>
</g>
</g>
<!-- Node4&#45;&gt;Node5 -->
<g id="edge28_Node000004_Node000005" class="edge">
<title>Node4&#45;&gt;Node5</title>
<g id="a_edge28_Node000004_Node000005"><a xlink:title=" ">
<path fill="none" stroke="#63b8ff" d="M140,-54.75C140,-48.11 140,-38.73 140,-30.31"/>
<polygon fill="#63b8ff" stroke="#63b8ff" points="143.5,-30.44 140,-20.44 136.5,-30.44 143.5,-30.44"/>
</a>
</g>
</g>
<!-- Node8&#45;&gt;Node6 -->
<g id="edge32_Node000008_Node000006" class="edge">
<title>Node8&#45;&gt;Node6</title>
<g id="a_edge32_Node000008_Node000006"><a xlink:title=" ">
<path fill="none" stroke="#63b8ff" d="M266.31,-109.51C257.12,-101.77 243.64,-90.43 232.66,-81.2"/>
<polygon fill="#63b8ff" stroke="#63b8ff" points="235.43,-78.12 225.53,-74.36 230.93,-83.47 235.43,-78.12"/>
</a>
</g>
</g>
<!-- Node8&#45;&gt;Node7 -->
<g id="edge34_Node000008_Node000007" class="edge">
<title>Node8&#45;&gt;Node7</title>
<g id="a_edge34_Node000008_Node000007"><a xlink:title=" ">
<path fill="none" stroke="#63b8ff" d="M289.21,-109.51C299.93,-101.62 315.74,-89.98 328.41,-80.65"/>
<polygon fill="#63b8ff" stroke="#63b8ff" points="329.99,-83.1 335.97,-74.36 325.84,-77.47 329.99,-83.1"/>
</a>
</g>
</g>
<!-- Node9 -->
<g id="Node000009" class="node">
<title>Node9</title>
<g id="a_Node000009"><a xlink:title=" ">
<polygon fill="#e0e0e0" stroke="#999999" points="300,-74 254,-74 254,-55 300,-55 300,-74"/>
<text text-anchor="middle" x="277" y="-62" font-family="Helvetica,sans-Serif" font-size="10.00">cstdint</text>
</a>
</g>
</g>
<!-- Node8&#45;&gt;Node9 -->
<g id="edge33_Node000008_Node000009" class="edge">
<title>Node8&#45;&gt;Node9</title>
<g id="a_edge33_Node000008_Node000009"><a xlink:title=" ">
<path fill="none" stroke="#63b8ff" d="M277,-109.75C277,-103.11 277,-93.73 277,-85.31"/>
<polygon fill="#63b8ff" stroke="#63b8ff" points="280.5,-85.44 277,-75.44 273.5,-85.44 280.5,-85.44"/>
</a>
</g>
</g>
<!-- Node11 -->
<g id="Node000011" class="node">
<title>Node11</title>
<g id="a_Node000011"><a xlink:title=" ">
<polygon fill="#e0e0e0" stroke="#999999" points="447.5,-74 398.5,-74 398.5,-55 447.5,-55 447.5,-74"/>
<text text-anchor="middle" x="423" y="-62" font-family="Helvetica,sans-Serif" font-size="10.00">stdint.h</text>
</a>
</g>
</g>
<!-- Node10&#45;&gt;Node11 -->
<g id="edge36_Node000010_Node000011" class="edge">
<title>Node10&#45;&gt;Node11</title>
<g id="a_edge36_Node000010_Node000011"><a xlink:title=" ">
<path fill="none" stroke="#63b8ff" d="M411.31,-109.75C413.08,-103.04 415.6,-93.52 417.84,-85.02"/>
<polygon fill="#63b8ff" stroke="#63b8ff" points="421.47,-86 420.64,-75.44 414.7,-84.22 421.47,-86"/>
</a>
</g>
</g>
</g>
</svg>
