<?xml version="1.0" encoding="UTF-8" standalone="no"?>
<!DOCTYPE svg PUBLIC "-//W3C//DTD SVG 1.1//EN"
 "http://www.w3.org/Graphics/SVG/1.1/DTD/svg11.dtd">
<!-- Generated by graphviz version 8.0.3 (20230416.2022)
 -->
<!-- Title: hello_world::devices::motor::Motor::angle Pages: 1 -->
<svg width="471pt" height="326pt"
 viewBox="0.00 0.00 471.00 326.00" xmlns="http://www.w3.org/2000/svg" xmlns:xlink="http://www.w3.org/1999/xlink">
<g id="graph0" class="graph" transform="scale(1 1) rotate(0) translate(4 322)">
<title>hello_world::devices::motor::Motor::angle</title>
<!-- Node1 -->
<g id="Node000001" class="node">
<title>Node1</title>
<g id="a_Node000001"><a xlink:title=" ">
<polygon fill="#999999" stroke="#666666" points="463,-198 356,-198 356,-168 463,-168 463,-198"/>
<text text-anchor="start" x="364" y="-186" font-family="Helvetica,sans-Serif" font-size="10.00">hello_world::devices</text>
<text text-anchor="middle" x="409.5" y="-175" font-family="Helvetica,sans-Serif" font-size="10.00">::motor::Motor::angle</text>
</a>
</g>
</g>
<!-- Node2 -->
<g id="Node000002" class="node">
<title>Node2</title>
<g id="a_Node000002"><a xlink:href="$classhello__world_1_1devices_1_1motor_1_1_d_m___j4310.html#a84ecfac4c74e3f0f7b85fba6c69f2aa1" xlink:title="将电调发回的 CAN 报文进行解包">
<polygon fill="white" stroke="#666666" points="137,-318 0,-318 0,-288 137,-288 137,-318"/>
<text text-anchor="start" x="8" y="-306" font-family="Helvetica,sans-Serif" font-size="10.00">hello_world::devices</text>
<text text-anchor="middle" x="68.5" y="-295" font-family="Helvetica,sans-Serif" font-size="10.00">::motor::DM_J4310::decode</text>
</a>
</g>
</g>
<!-- Node1&#45;&gt;Node2 -->
<g id="edge21_Node000001_Node000002" class="edge">
<title>Node1&#45;&gt;Node2</title>
<g id="a_edge21_Node000001_Node000002"><a xlink:title=" ">
<path fill="none" stroke="#63b8ff" d="M354.55,-202.1C287.67,-225.77 174.98,-265.66 113.23,-287.52"/>
<polygon fill="#63b8ff" stroke="#63b8ff" points="355.62,-205.08 363.88,-198.44 353.28,-198.48 355.62,-205.08"/>
</a>
</g>
</g>
<!-- Node3 -->
<g id="Node000003" class="node">
<title>Node3</title>
<g id="a_Node000003"><a xlink:href="$classhello__world_1_1devices_1_1motor_1_1_motor.html#a21092858a98af5688b398d57cd203592" xlink:title="将角度转换到指定范围">
<polygon fill="white" stroke="#666666" points="312,-198 181,-198 181,-168 312,-168 312,-198"/>
<text text-anchor="start" x="189" y="-186" font-family="Helvetica,sans-Serif" font-size="10.00">hello_world::devices</text>
<text text-anchor="middle" x="246.5" y="-175" font-family="Helvetica,sans-Serif" font-size="10.00">::motor::Motor::normAngle</text>
</a>
</g>
</g>
<!-- Node1&#45;&gt;Node3 -->
<g id="edge22_Node000001_Node000003" class="edge">
<title>Node1&#45;&gt;Node3</title>
<g id="a_edge22_Node000001_Node000003"><a xlink:title=" ">
<path fill="none" stroke="#63b8ff" d="M344.86,-183C334.2,-183 323.12,-183 312.43,-183"/>
<polygon fill="#63b8ff" stroke="#63b8ff" points="344.78,-186.5 354.78,-183 344.78,-179.5 344.78,-186.5"/>
</a>
</g>
</g>
<!-- Node10 -->
<g id="Node000010" class="node">
<title>Node10</title>
<g id="a_Node000010"><a xlink:href="$classhello__world_1_1devices_1_1motor_1_1_motor.html#a8c96d433ffdc4000153e08175b97d445" xlink:title="将当前电机输出端所处位置设置为指定的角度">
<polygon fill="white" stroke="#666666" points="320,-150 173,-150 173,-120 320,-120 320,-150"/>
<text text-anchor="start" x="181" y="-138" font-family="Helvetica,sans-Serif" font-size="10.00">hello_world::devices</text>
<text text-anchor="middle" x="246.5" y="-127" font-family="Helvetica,sans-Serif" font-size="10.00">::motor::Motor::setAngleValue</text>
</a>
</g>
</g>
<!-- Node1&#45;&gt;Node10 -->
<g id="edge30_Node000001_Node000010" class="edge">
<title>Node1&#45;&gt;Node10</title>
<g id="a_edge30_Node000001_Node000010"><a xlink:title=" ">
<path fill="none" stroke="#63b8ff" d="M346.57,-164.54C330.93,-159.87 314.31,-154.92 299.23,-150.42"/>
<polygon fill="#63b8ff" stroke="#63b8ff" points="345.09,-168.05 355.67,-167.55 347.09,-161.34 345.09,-168.05"/>
</a>
</g>
</g>
<!-- Node3&#45;&gt;Node2 -->
<g id="edge24_Node000003_Node000002" class="edge">
<title>Node3&#45;&gt;Node2</title>
<g id="a_edge24_Node000003_Node000002"><a xlink:title=" ">
<path fill="none" stroke="#63b8ff" d="M220.68,-205.86C191.62,-232.49 146.27,-273.53 137,-279 131.64,-282.16 125.81,-285 119.88,-287.53"/>
<polygon fill="#63b8ff" stroke="#63b8ff" points="222.75,-208.79 227.76,-199.45 218.02,-203.63 222.75,-208.79"/>
</a>
</g>
</g>
<!-- Node4 -->
<g id="Node000004" class="node">
<title>Node4</title>
<g id="a_Node000004"><a xlink:href="$classhello__world_1_1devices_1_1motor_1_1_a1.html#a1dc9df605f9df5fff3b2bc8ed4a63ff8" xlink:title="将电调发回的 CAN 报文进行解包">
<polygon fill="white" stroke="#666666" points="120,-270 17,-270 17,-240 120,-240 120,-270"/>
<text text-anchor="start" x="25" y="-258" font-family="Helvetica,sans-Serif" font-size="10.00">hello_world::devices</text>
<text text-anchor="middle" x="68.5" y="-247" font-family="Helvetica,sans-Serif" font-size="10.00">::motor::A1::decode</text>
</a>
</g>
</g>
<!-- Node3&#45;&gt;Node4 -->
<g id="edge23_Node000003_Node000004" class="edge">
<title>Node3&#45;&gt;Node4</title>
<g id="a_edge23_Node000003_Node000004"><a xlink:title=" ">
<path fill="none" stroke="#63b8ff" d="M202.58,-202.88C182.76,-211.82 158.84,-222.3 137,-231 129.72,-233.9 121.94,-236.83 114.34,-239.59"/>
<polygon fill="#63b8ff" stroke="#63b8ff" points="203.87,-205.68 211.53,-198.35 200.98,-199.3 203.87,-205.68"/>
</a>
</g>
</g>
<!-- Node5 -->
<g id="Node000005" class="node">
<title>Node5</title>
<g id="a_Node000005"><a xlink:href="$classhello__world_1_1devices_1_1motor_1_1_g_m6020.html#a732687f3fc5d5d302135f950ac260e3f" xlink:title="将电调发回的 CAN 报文进行解包">
<polygon fill="white" stroke="#666666" points="132.5,-222 4.5,-222 4.5,-192 132.5,-192 132.5,-222"/>
<text text-anchor="start" x="12.5" y="-210" font-family="Helvetica,sans-Serif" font-size="10.00">hello_world::devices</text>
<text text-anchor="middle" x="68.5" y="-199" font-family="Helvetica,sans-Serif" font-size="10.00">::motor::GM6020::decode</text>
</a>
</g>
</g>
<!-- Node3&#45;&gt;Node5 -->
<g id="edge25_Node000003_Node000005" class="edge">
<title>Node3&#45;&gt;Node5</title>
<g id="a_edge25_Node000003_Node000005"><a xlink:title=" ">
<path fill="none" stroke="#63b8ff" d="M170.15,-193.27C157.72,-194.97 144.95,-196.71 132.85,-198.36"/>
<polygon fill="#63b8ff" stroke="#63b8ff" points="170.53,-196.62 179.96,-191.8 169.58,-189.68 170.53,-196.62"/>
</a>
</g>
</g>
<!-- Node6 -->
<g id="Node000006" class="node">
<title>Node6</title>
<g id="a_Node000006"><a xlink:href="$classhello__world_1_1devices_1_1motor_1_1_m2006.html#a4f74b1c55fc5c0f9e7c28d329ff0c9cd" xlink:title="将电调发回的 CAN 报文进行解包">
<polygon fill="white" stroke="#666666" points="128.5,-174 8.5,-174 8.5,-144 128.5,-144 128.5,-174"/>
<text text-anchor="start" x="16.5" y="-162" font-family="Helvetica,sans-Serif" font-size="10.00">hello_world::devices</text>
<text text-anchor="middle" x="68.5" y="-151" font-family="Helvetica,sans-Serif" font-size="10.00">::motor::M2006::decode</text>
</a>
</g>
</g>
<!-- Node3&#45;&gt;Node6 -->
<g id="edge26_Node000003_Node000006" class="edge">
<title>Node3&#45;&gt;Node6</title>
<g id="a_edge26_Node000003_Node000006"><a xlink:title=" ">
<path fill="none" stroke="#63b8ff" d="M170.43,-172.76C156.51,-170.86 142.14,-168.91 128.78,-167.08"/>
<polygon fill="#63b8ff" stroke="#63b8ff" points="169.58,-176.32 179.96,-174.2 170.53,-169.38 169.58,-176.32"/>
</a>
</g>
</g>
<!-- Node7 -->
<g id="Node000007" class="node">
<title>Node7</title>
<g id="a_Node000007"><a xlink:href="$classhello__world_1_1devices_1_1motor_1_1_m3508.html#aec43855db5fbc6a2fb7b3b550b601f8e" xlink:title="将电调发回的 CAN 报文进行解包">
<polygon fill="white" stroke="#666666" points="128.5,-126 8.5,-126 8.5,-96 128.5,-96 128.5,-126"/>
<text text-anchor="start" x="16.5" y="-114" font-family="Helvetica,sans-Serif" font-size="10.00">hello_world::devices</text>
<text text-anchor="middle" x="68.5" y="-103" font-family="Helvetica,sans-Serif" font-size="10.00">::motor::M3508::decode</text>
</a>
</g>
</g>
<!-- Node3&#45;&gt;Node7 -->
<g id="edge27_Node000003_Node000007" class="edge">
<title>Node3&#45;&gt;Node7</title>
<g id="a_edge27_Node000003_Node000007"><a xlink:title=" ">
<path fill="none" stroke="#63b8ff" d="M183.29,-163.65C179.77,-162.17 176.32,-160.62 173,-159 155.72,-150.57 154.19,-143.62 137,-135 130.89,-131.93 124.28,-129.08 117.68,-126.48"/>
<polygon fill="#63b8ff" stroke="#63b8ff" points="181.75,-167.2 192.34,-167.62 184.32,-160.69 181.75,-167.2"/>
</a>
</g>
</g>
<!-- Node8 -->
<g id="Node000008" class="node">
<title>Node8</title>
<g id="a_Node000008"><a xlink:href="$classhello__world_1_1devices_1_1motor_1_1_m8910.html#ae5b934cb41237293299dce618befba6d" xlink:title="将电调发回的 CAN 报文进行解包">
<polygon fill="white" stroke="#666666" points="128.5,-78 8.5,-78 8.5,-48 128.5,-48 128.5,-78"/>
<text text-anchor="start" x="16.5" y="-66" font-family="Helvetica,sans-Serif" font-size="10.00">hello_world::devices</text>
<text text-anchor="middle" x="68.5" y="-55" font-family="Helvetica,sans-Serif" font-size="10.00">::motor::M8910::decode</text>
</a>
</g>
</g>
<!-- Node3&#45;&gt;Node8 -->
<g id="edge28_Node000003_Node000008" class="edge">
<title>Node3&#45;&gt;Node8</title>
<g id="a_edge28_Node000003_Node000008"><a xlink:title=" ">
<path fill="none" stroke="#63b8ff" d="M176.7,-161.96C175.43,-161.02 174.19,-160.03 173,-159 145.95,-135.59 163.79,-110.71 137,-87 133.27,-83.7 129.06,-80.85 124.61,-78.38"/>
<polygon fill="#63b8ff" stroke="#63b8ff" points="174.29,-165.21 184.61,-167.6 178.03,-159.29 174.29,-165.21"/>
</a>
</g>
</g>
<!-- Node9 -->
<g id="Node000009" class="node">
<title>Node9</title>
<g id="a_Node000009"><a xlink:href="$classhello__world_1_1devices_1_1motor_1_1_m_f9025v2.html#ab446cad174a3d963931102233a88c7e8" xlink:title="将电调发回的 CAN 报文进行解包">
<polygon fill="white" stroke="#666666" points="136,-30 1,-30 1,0 136,0 136,-30"/>
<text text-anchor="start" x="9" y="-18" font-family="Helvetica,sans-Serif" font-size="10.00">hello_world::devices</text>
<text text-anchor="middle" x="68.5" y="-7" font-family="Helvetica,sans-Serif" font-size="10.00">::motor::MF9025v2::decode</text>
</a>
</g>
</g>
<!-- Node3&#45;&gt;Node9 -->
<g id="edge29_Node000003_Node000009" class="edge">
<title>Node3&#45;&gt;Node9</title>
<g id="a_edge29_Node000003_Node000009"><a xlink:title=" ">
<path fill="none" stroke="#63b8ff" d="M175.19,-161.12C174.44,-160.43 173.71,-159.73 173,-159 134.19,-119.08 175.37,-79.35 137,-39 133.83,-35.67 130.16,-32.79 126.21,-30.32"/>
<polygon fill="#63b8ff" stroke="#63b8ff" points="172.82,-164.47 182.93,-167.66 177.02,-158.87 172.82,-164.47"/>
</a>
</g>
</g>
</g>
</svg>
