<?xml version="1.0" encoding="UTF-8" standalone="no"?>
<!DOCTYPE svg PUBLIC "-//W3C//DTD SVG 1.1//EN"
 "http://www.w3.org/Graphics/SVG/1.1/DTD/svg11.dtd">
<!-- Generated by graphviz version 8.0.3 (20230416.2022)
 -->
<!-- Title: hello_world::devices::motor::Motor::curr2torq Pages: 1 -->
<svg width="317pt" height="134pt"
 viewBox="0.00 0.00 317.00 134.00" xmlns="http://www.w3.org/2000/svg" xmlns:xlink="http://www.w3.org/1999/xlink">
<g id="graph0" class="graph" transform="scale(1 1) rotate(0) translate(4 130)">
<title>hello_world::devices::motor::Motor::curr2torq</title>
<!-- Node1 -->
<g id="Node000001" class="node">
<title>Node1</title>
<g id="a_Node000001"><a xlink:title="将转子电流转换为输出端力矩">
<polygon fill="#999999" stroke="#666666" points="309,-78 187,-78 187,-48 309,-48 309,-78"/>
<text text-anchor="start" x="195" y="-66" font-family="Helvetica,sans-Serif" font-size="10.00">hello_world::devices</text>
<text text-anchor="middle" x="248" y="-55" font-family="Helvetica,sans-Serif" font-size="10.00">::motor::Motor::curr2torq</text>
</a>
</g>
</g>
<!-- Node2 -->
<g id="Node000002" class="node">
<title>Node2</title>
<g id="a_Node000002"><a xlink:href="$classhello__world_1_1devices_1_1motor_1_1_d_m___j4310.html#a0a61fcd9a79f7bbb0addccaf677f2c5f" xlink:title="DM_J4310 初始化">
<polygon fill="white" stroke="#666666" points="151,-126 0,-126 0,-96 151,-96 151,-126"/>
<text text-anchor="start" x="8" y="-114" font-family="Helvetica,sans-Serif" font-size="10.00">hello_world::devices</text>
<text text-anchor="middle" x="75.5" y="-103" font-family="Helvetica,sans-Serif" font-size="10.00">::motor::DM_J4310::DM_J4310</text>
</a>
</g>
</g>
<!-- Node1&#45;&gt;Node2 -->
<g id="edge7_Node000001_Node000002" class="edge">
<title>Node1&#45;&gt;Node2</title>
<g id="a_edge7_Node000001_Node000002"><a xlink:title=" ">
<path fill="none" stroke="#63b8ff" d="M181.88,-81.33C165.19,-86.03 147.4,-91.04 131.28,-95.58"/>
<polygon fill="#63b8ff" stroke="#63b8ff" points="182.44,-84.53 191.11,-78.45 180.54,-77.79 182.44,-84.53"/>
</a>
</g>
</g>
<!-- Node3 -->
<g id="Node000003" class="node">
<title>Node3</title>
<g id="a_Node000003"><a xlink:href="$classhello__world_1_1devices_1_1motor_1_1_motor.html#ad101045a9eef9a699001fc94631e8395" xlink:title="设定发给电调的期望值">
<polygon fill="white" stroke="#666666" points="135,-78 16,-78 16,-48 135,-48 135,-78"/>
<text text-anchor="start" x="24" y="-66" font-family="Helvetica,sans-Serif" font-size="10.00">hello_world::devices</text>
<text text-anchor="middle" x="75.5" y="-55" font-family="Helvetica,sans-Serif" font-size="10.00">::motor::Motor::setInput</text>
</a>
</g>
</g>
<!-- Node1&#45;&gt;Node3 -->
<g id="edge8_Node000001_Node000003" class="edge">
<title>Node1&#45;&gt;Node3</title>
<g id="a_edge8_Node000001_Node000003"><a xlink:title=" ">
<path fill="none" stroke="#63b8ff" d="M176.17,-63C162.64,-63 148.61,-63 135.5,-63"/>
<polygon fill="#63b8ff" stroke="#63b8ff" points="175.89,-66.5 185.89,-63 175.89,-59.5 175.89,-66.5"/>
</a>
</g>
</g>
<!-- Node4 -->
<g id="Node000004" class="node">
<title>Node4</title>
<g id="a_Node000004"><a xlink:href="$classhello__world_1_1devices_1_1motor_1_1_d_m___j4310.html#ae15373ce02962c1a287d7e813413869b" xlink:title="设定发给电调的期望值">
<polygon fill="white" stroke="#666666" points="145.5,-30 5.5,-30 5.5,0 145.5,0 145.5,-30"/>
<text text-anchor="start" x="13.5" y="-18" font-family="Helvetica,sans-Serif" font-size="10.00">hello_world::devices</text>
<text text-anchor="middle" x="75.5" y="-7" font-family="Helvetica,sans-Serif" font-size="10.00">::motor::DM_J4310::setInput</text>
</a>
</g>
</g>
<!-- Node1&#45;&gt;Node4 -->
<g id="edge9_Node000001_Node000004" class="edge">
<title>Node1&#45;&gt;Node4</title>
<g id="a_edge9_Node000001_Node000004"><a xlink:title=" ">
<path fill="none" stroke="#63b8ff" d="M181.88,-44.67C165.19,-39.97 147.4,-34.96 131.28,-30.42"/>
<polygon fill="#63b8ff" stroke="#63b8ff" points="180.54,-48.21 191.11,-47.55 182.44,-41.47 180.54,-48.21"/>
</a>
</g>
</g>
</g>
</svg>
