<?xml version="1.0" encoding="UTF-8" standalone="no"?>
<!DOCTYPE svg PUBLIC "-//W3C//DTD SVG 1.1//EN"
 "http://www.w3.org/Graphics/SVG/1.1/DTD/svg11.dtd">
<!-- Generated by graphviz version 8.0.3 (20230416.2022)
 -->
<!-- Title: hello_world::algorithms::controller::pid::PidNode Pages: 1 -->
<svg width="838pt" height="473pt"
 viewBox="0.00 0.00 838.00 473.00" xmlns="http://www.w3.org/2000/svg" xmlns:xlink="http://www.w3.org/1999/xlink">
<g id="graph0" class="graph" transform="scale(1 1) rotate(0) translate(4 469)">
<title>hello_world::algorithms::controller::pid::PidNode</title>
<!-- Node1 -->
<g id="Node000001" class="node">
<title>Node1</title>
<g id="a_Node000001"><a xlink:title="PID节点类，用于实现PID链表">
<polygon fill="#999999" stroke="#666666" points="830,-436 706,-436 706,-406 830,-406 830,-436"/>
<text text-anchor="start" x="714" y="-424" font-family="Helvetica,sans-Serif" font-size="10.00">hello_world::algorithms</text>
<text text-anchor="middle" x="768" y="-413" font-family="Helvetica,sans-Serif" font-size="10.00">::controller::pid::PidNode</text>
</a>
</g>
</g>
<!-- Node1&#45;&gt;Node1 -->
<g id="edge48_Node000001_Node000001" class="edge">
<title>Node1&#45;&gt;Node1</title>
<g id="a_edge48_Node000001_Node000001"><a xlink:title=" ">
<path fill="none" stroke="#9a32cd" stroke-dasharray="5,2" d="M752.25,-446.94C754.53,-451.13 759.78,-454 768,-454 782.22,-454 787.55,-445.41 784,-436.28"/>
<polygon fill="#9a32cd" stroke="#9a32cd" points="755.73,-447.19 752,-437.28 748.74,-447.35 755.73,-447.19"/>
</a>
</g>
<text text-anchor="middle" x="768" y="-457" font-family="Helvetica,sans-Serif" font-size="10.00" fill="grey"> next_ptr_</text>
</g>
<!-- Node2 -->
<g id="Node000002" class="node">
<title>Node2</title>
<g id="a_Node000002"><a xlink:href="$classhello__world_1_1_mem_mang.html" xlink:title=" ">
<polygon fill="white" stroke="#666666" points="140,-451.5 24,-451.5 24,-432.5 140,-432.5 140,-451.5"/>
<text text-anchor="middle" x="82" y="-439.5" font-family="Helvetica,sans-Serif" font-size="10.00">hello_world::MemMang</text>
</a>
</g>
</g>
<!-- Node2&#45;&gt;Node1 -->
<g id="edge33_Node000001_Node000002" class="edge">
<title>Node2&#45;&gt;Node1</title>
<g id="a_edge33_Node000001_Node000002"><a xlink:title=" ">
<path fill="none" stroke="#63b8ff" d="M151.3,-439.9C284.73,-435.81 578.08,-426.8 705.69,-422.88"/>
<polygon fill="#63b8ff" stroke="#63b8ff" points="151.32,-436.43 141.43,-440.24 151.54,-443.43 151.32,-436.43"/>
</a>
</g>
</g>
<!-- Node4 -->
<g id="Node000004" class="node">
<title>Node4</title>
<g id="a_Node000004"><a xlink:href="$classhello__world_1_1algorithms_1_1controller_1_1_controller.html" xlink:title=" ">
<polygon fill="white" stroke="#666666" points="423,-414 307,-414 307,-384 423,-384 423,-414"/>
<text text-anchor="start" x="315" y="-402" font-family="Helvetica,sans-Serif" font-size="10.00">hello_world::algorithms</text>
<text text-anchor="middle" x="365" y="-391" font-family="Helvetica,sans-Serif" font-size="10.00">::controller::Controller</text>
</a>
</g>
</g>
<!-- Node2&#45;&gt;Node4 -->
<g id="edge36_Node000004_Node000002" class="edge">
<title>Node2&#45;&gt;Node4</title>
<g id="a_edge36_Node000004_Node000002"><a xlink:title=" ">
<path fill="none" stroke="#63b8ff" d="M151.05,-431.59C198.75,-424.29 261.79,-414.64 306.88,-407.74"/>
<polygon fill="#63b8ff" stroke="#63b8ff" points="150.56,-428.27 141.2,-433.25 151.62,-435.19 150.56,-428.27"/>
</a>
</g>
</g>
<!-- Node3 -->
<g id="Node000003" class="node">
<title>Node3</title>
<g id="a_Node000003"><a xlink:href="$classhello__world_1_1algorithms_1_1controller_1_1pid_1_1_basic_pid.html" xlink:title="基础 PID 控制器类，继承自Controller类">
<polygon fill="white" stroke="#666666" points="648,-342 522,-342 522,-312 648,-312 648,-342"/>
<text text-anchor="start" x="530" y="-330" font-family="Helvetica,sans-Serif" font-size="10.00">hello_world::algorithms</text>
<text text-anchor="middle" x="585" y="-319" font-family="Helvetica,sans-Serif" font-size="10.00">::controller::pid::BasicPid</text>
</a>
</g>
</g>
<!-- Node3&#45;&gt;Node1 -->
<g id="edge34_Node000001_Node000003" class="edge">
<title>Node3&#45;&gt;Node1</title>
<g id="a_edge34_Node000001_Node000003"><a xlink:title=" ">
<path fill="none" stroke="#9a32cd" stroke-dasharray="5,2" d="M625.01,-347.26C658.67,-364.74 706.58,-389.62 737.23,-405.54"/>
<polygon fill="#9a32cd" stroke="#9a32cd" points="626.97,-343.81 616.48,-342.31 623.75,-350.03 626.97,-343.81"/>
</a>
</g>
<text text-anchor="middle" x="677" y="-382" font-family="Helvetica,sans-Serif" font-size="10.00" fill="grey"> obj_</text>
</g>
<!-- Node4&#45;&gt;Node3 -->
<g id="edge35_Node000003_Node000004" class="edge">
<title>Node4&#45;&gt;Node3</title>
<g id="a_edge35_Node000003_Node000004"><a xlink:title=" ">
<path fill="none" stroke="#63b8ff" d="M423,-380.17C458.6,-368.42 503.85,-353.47 537.31,-342.42"/>
<polygon fill="#63b8ff" stroke="#63b8ff" points="422.16,-377.09 413.77,-383.55 424.36,-383.74 422.16,-377.09"/>
</a>
</g>
</g>
<!-- Node5 -->
<g id="Node000005" class="node">
<title>Node5</title>
<g id="a_Node000005"><a xlink:href="$structhello__world_1_1algorithms_1_1controller_1_1pid_1_1_basic_pid_params.html" xlink:title="定义了基础 PID 的参数">
<polygon fill="white" stroke="#666666" points="445,-270 285,-270 285,-240 445,-240 445,-270"/>
<text text-anchor="start" x="293" y="-258" font-family="Helvetica,sans-Serif" font-size="10.00">hello_world::algorithms</text>
<text text-anchor="middle" x="365" y="-247" font-family="Helvetica,sans-Serif" font-size="10.00">::controller::pid::BasicPidParams</text>
</a>
</g>
</g>
<!-- Node5&#45;&gt;Node3 -->
<g id="edge37_Node000003_Node000005" class="edge">
<title>Node5&#45;&gt;Node3</title>
<g id="a_edge37_Node000003_Node000005"><a xlink:title=" ">
<path fill="none" stroke="#9a32cd" stroke-dasharray="5,2" d="M423,-273.83C458.6,-285.58 503.85,-300.53 537.31,-311.58"/>
<polygon fill="#9a32cd" stroke="#9a32cd" points="424.36,-270.26 413.77,-270.45 422.16,-276.91 424.36,-270.26"/>
</a>
</g>
<text text-anchor="middle" x="483.5" y="-302" font-family="Helvetica,sans-Serif" font-size="10.00" fill="grey"> params_</text>
</g>
<!-- Node6 -->
<g id="Node000006" class="node">
<title>Node6</title>
<g id="a_Node000006"><a xlink:href="$classhello__world_1_1algorithms_1_1controller_1_1pid_1_1_out_limit.html" xlink:title=" ">
<polygon fill="white" stroke="#666666" points="144,-414 20,-414 20,-384 144,-384 144,-414"/>
<text text-anchor="start" x="28" y="-402" font-family="Helvetica,sans-Serif" font-size="10.00">hello_world::algorithms</text>
<text text-anchor="middle" x="82" y="-391" font-family="Helvetica,sans-Serif" font-size="10.00">::controller::pid::OutLimit</text>
</a>
</g>
</g>
<!-- Node6&#45;&gt;Node5 -->
<g id="edge38_Node000005_Node000006" class="edge">
<title>Node6&#45;&gt;Node5</title>
<g id="a_edge38_Node000005_Node000006"><a xlink:title=" ">
<path fill="none" stroke="#9a32cd" stroke-dasharray="5,2" d="M154.37,-383.7C189.75,-374.27 232.23,-360.07 267,-340 300.35,-320.74 332.68,-288.99 350.3,-270.23"/>
<polygon fill="#9a32cd" stroke="#9a32cd" points="153.92,-380.46 145.12,-386.36 155.68,-387.24 153.92,-380.46"/>
</a>
</g>
<text text-anchor="middle" x="224.5" y="-377" font-family="Helvetica,sans-Serif" font-size="10.00" fill="grey"> out_limit</text>
</g>
<!-- Node7 -->
<g id="Node000007" class="node">
<title>Node7</title>
<g id="a_Node000007"><a xlink:href="$classhello__world_1_1algorithms_1_1controller_1_1pid_1_1_inte_trapezoidal.html" xlink:title="梯形积分优化类">
<polygon fill="white" stroke="#666666" points="158,-366 6,-366 6,-336 158,-336 158,-366"/>
<text text-anchor="start" x="14" y="-354" font-family="Helvetica,sans-Serif" font-size="10.00">hello_world::algorithms</text>
<text text-anchor="middle" x="82" y="-343" font-family="Helvetica,sans-Serif" font-size="10.00">::controller::pid::InteTrapezoidal</text>
</a>
</g>
</g>
<!-- Node7&#45;&gt;Node5 -->
<g id="edge39_Node000005_Node000007" class="edge">
<title>Node7&#45;&gt;Node5</title>
<g id="a_edge39_Node000005_Node000007"><a xlink:title=" ">
<path fill="none" stroke="#9a32cd" stroke-dasharray="5,2" d="M157.06,-332.79C190.95,-323.77 231.4,-312.02 267,-299 289.58,-290.74 314.24,-279.53 333.04,-270.48"/>
<polygon fill="#9a32cd" stroke="#9a32cd" points="156.55,-329.57 147.77,-335.51 158.33,-336.34 156.55,-329.57"/>
</a>
</g>
<text text-anchor="middle" x="224.5" y="-328" font-family="Helvetica,sans-Serif" font-size="10.00" fill="grey"> inte_trapezoidal</text>
</g>
<!-- Node8 -->
<g id="Node000008" class="node">
<title>Node8</title>
<g id="a_Node000008"><a xlink:href="$classhello__world_1_1algorithms_1_1controller_1_1pid_1_1_inte_anti_windup.html" xlink:title="积分抗饱和优化类">
<polygon fill="white" stroke="#666666" points="158.5,-318 5.5,-318 5.5,-288 158.5,-288 158.5,-318"/>
<text text-anchor="start" x="13.5" y="-306" font-family="Helvetica,sans-Serif" font-size="10.00">hello_world::algorithms</text>
<text text-anchor="middle" x="82" y="-295" font-family="Helvetica,sans-Serif" font-size="10.00">::controller::pid::InteAntiWindup</text>
</a>
</g>
</g>
<!-- Node8&#45;&gt;Node5 -->
<g id="edge40_Node000005_Node000008" class="edge">
<title>Node8&#45;&gt;Node5</title>
<g id="a_edge40_Node000005_Node000008"><a xlink:title=" ">
<path fill="none" stroke="#9a32cd" stroke-dasharray="5,2" d="M169.38,-288.24C206.17,-281.96 248.79,-274.68 284.76,-268.54"/>
<polygon fill="#9a32cd" stroke="#9a32cd" points="168.94,-284.94 159.67,-290.07 170.12,-291.84 168.94,-284.94"/>
</a>
</g>
<text text-anchor="middle" x="224.5" y="-287" font-family="Helvetica,sans-Serif" font-size="10.00" fill="grey"> inte_anti_windup</text>
</g>
<!-- Node9 -->
<g id="Node000009" class="node">
<title>Node9</title>
<g id="a_Node000009"><a xlink:href="$classhello__world_1_1algorithms_1_1controller_1_1pid_1_1_inte_changing_rate.html" xlink:title="控制器参数类">
<polygon fill="white" stroke="#666666" points="164,-270 0,-270 0,-240 164,-240 164,-270"/>
<text text-anchor="start" x="8" y="-258" font-family="Helvetica,sans-Serif" font-size="10.00">hello_world::algorithms</text>
<text text-anchor="middle" x="82" y="-247" font-family="Helvetica,sans-Serif" font-size="10.00">::controller::pid::InteChangingRate</text>
</a>
</g>
</g>
<!-- Node9&#45;&gt;Node5 -->
<g id="edge41_Node000005_Node000009" class="edge">
<title>Node9&#45;&gt;Node5</title>
<g id="a_edge41_Node000005_Node000009"><a xlink:title=" ">
<path fill="none" stroke="#9a32cd" stroke-dasharray="5,2" d="M175.12,-255C210.57,-255 250.71,-255 284.84,-255"/>
<polygon fill="#9a32cd" stroke="#9a32cd" points="175.28,-251.5 165.28,-255 175.28,-258.5 175.28,-251.5"/>
</a>
</g>
<text text-anchor="middle" x="224.5" y="-258" font-family="Helvetica,sans-Serif" font-size="10.00" fill="grey"> inte_changing_rate</text>
</g>
<!-- Node10 -->
<g id="Node000010" class="node">
<title>Node10</title>
<g id="a_Node000010"><a xlink:href="$classhello__world_1_1algorithms_1_1controller_1_1pid_1_1_inte_separation.html" xlink:title="积分分离优化类">
<polygon fill="white" stroke="#666666" points="156.5,-222 7.5,-222 7.5,-192 156.5,-192 156.5,-222"/>
<text text-anchor="start" x="15.5" y="-210" font-family="Helvetica,sans-Serif" font-size="10.00">hello_world::algorithms</text>
<text text-anchor="middle" x="82" y="-199" font-family="Helvetica,sans-Serif" font-size="10.00">::controller::pid::InteSeparation</text>
</a>
</g>
</g>
<!-- Node10&#45;&gt;Node5 -->
<g id="edge42_Node000005_Node000010" class="edge">
<title>Node10&#45;&gt;Node5</title>
<g id="a_edge42_Node000005_Node000010"><a xlink:title=" ">
<path fill="none" stroke="#9a32cd" stroke-dasharray="5,2" d="M167.64,-221.46C204.82,-227.81 248.22,-235.22 284.76,-241.46"/>
<polygon fill="#9a32cd" stroke="#9a32cd" points="168.28,-217.85 157.83,-219.61 167.1,-224.75 168.28,-217.85"/>
</a>
</g>
<text text-anchor="middle" x="224.5" y="-241" font-family="Helvetica,sans-Serif" font-size="10.00" fill="grey"> inte_separation</text>
</g>
<!-- Node11 -->
<g id="Node000011" class="node">
<title>Node11</title>
<g id="a_Node000011"><a xlink:href="$classhello__world_1_1algorithms_1_1controller_1_1pid_1_1_diff_filter.html" xlink:title="用于实现差分滤波器功能">
<polygon fill="white" stroke="#666666" points="143,-174 21,-174 21,-144 143,-144 143,-174"/>
<text text-anchor="start" x="29" y="-162" font-family="Helvetica,sans-Serif" font-size="10.00">hello_world::algorithms</text>
<text text-anchor="middle" x="82" y="-151" font-family="Helvetica,sans-Serif" font-size="10.00">::controller::pid::DiffFilter</text>
</a>
</g>
</g>
<!-- Node11&#45;&gt;Node5 -->
<g id="edge43_Node000005_Node000011" class="edge">
<title>Node11&#45;&gt;Node5</title>
<g id="a_edge43_Node000005_Node000011"><a xlink:title=" ">
<path fill="none" stroke="#9a32cd" stroke-dasharray="5,2" d="M153.85,-168.55C189.83,-175.81 233.01,-188.39 267,-210 277.37,-216.59 274.71,-224.28 285,-231 290.04,-234.29 295.55,-237.15 301.25,-239.63"/>
<polygon fill="#9a32cd" stroke="#9a32cd" points="154.9,-164.99 144.42,-166.55 153.58,-171.87 154.9,-164.99"/>
</a>
</g>
<text text-anchor="middle" x="224.5" y="-213" font-family="Helvetica,sans-Serif" font-size="10.00" fill="grey"> diff_filter</text>
</g>
<!-- Node12 -->
<g id="Node000012" class="node">
<title>Node12</title>
<g id="a_Node000012"><a xlink:href="$classhello__world_1_1algorithms_1_1controller_1_1pid_1_1_diff_previous.html" xlink:title="微分先行优化类">
<polygon fill="white" stroke="#666666" points="150.5,-126 13.5,-126 13.5,-96 150.5,-96 150.5,-126"/>
<text text-anchor="start" x="21.5" y="-114" font-family="Helvetica,sans-Serif" font-size="10.00">hello_world::algorithms</text>
<text text-anchor="middle" x="82" y="-103" font-family="Helvetica,sans-Serif" font-size="10.00">::controller::pid::DiffPrevious</text>
</a>
</g>
</g>
<!-- Node12&#45;&gt;Node5 -->
<g id="edge44_Node000005_Node000012" class="edge">
<title>Node12&#45;&gt;Node5</title>
<g id="a_edge44_Node000005_Node000012"><a xlink:title=" ">
<path fill="none" stroke="#9a32cd" stroke-dasharray="5,2" d="M161.53,-115.14C198.09,-121.05 239.48,-134.06 267,-162 289.24,-184.58 263.04,-208.15 285,-231 288.18,-234.31 291.8,-237.16 295.69,-239.63"/>
<polygon fill="#9a32cd" stroke="#9a32cd" points="162.27,-111.56 151.87,-113.59 161.26,-118.49 162.27,-111.56"/>
</a>
</g>
<text text-anchor="middle" x="224.5" y="-165" font-family="Helvetica,sans-Serif" font-size="10.00" fill="grey"> diff_previous</text>
</g>
<!-- Node13 -->
<g id="Node000013" class="node">
<title>Node13</title>
<g id="a_Node000013"><a xlink:href="$classhello__world_1_1algorithms_1_1controller_1_1pid_1_1_dead_band.html" xlink:title="死区优化类">
<polygon fill="white" stroke="#666666" points="148,-78 16,-78 16,-48 148,-48 148,-78"/>
<text text-anchor="start" x="24" y="-66" font-family="Helvetica,sans-Serif" font-size="10.00">hello_world::algorithms</text>
<text text-anchor="middle" x="82" y="-55" font-family="Helvetica,sans-Serif" font-size="10.00">::controller::pid::DeadBand</text>
</a>
</g>
</g>
<!-- Node13&#45;&gt;Node5 -->
<g id="edge45_Node000005_Node000013" class="edge">
<title>Node13&#45;&gt;Node5</title>
<g id="a_edge45_Node000005_Node000013"><a xlink:title=" ">
<path fill="none" stroke="#9a32cd" stroke-dasharray="5,2" d="M158.78,-61.72C196.55,-65.27 239.84,-76.38 267,-106 304.93,-147.37 248.44,-188.41 285,-231 287.8,-234.26 291.03,-237.09 294.55,-239.54"/>
<polygon fill="#9a32cd" stroke="#9a32cd" points="159.53,-58.19 149.29,-60.91 159,-65.17 159.53,-58.19"/>
</a>
</g>
<text text-anchor="middle" x="224.5" y="-109" font-family="Helvetica,sans-Serif" font-size="10.00" fill="grey"> dead_band</text>
</g>
<!-- Node14 -->
<g id="Node000014" class="node">
<title>Node14</title>
<g id="a_Node000014"><a xlink:href="$classhello__world_1_1algorithms_1_1controller_1_1pid_1_1_setpoint_ramping.html" xlink:title="设定点斜坡优化类">
<polygon fill="white" stroke="#666666" points="162.5,-30 1.5,-30 1.5,0 162.5,0 162.5,-30"/>
<text text-anchor="start" x="9.5" y="-18" font-family="Helvetica,sans-Serif" font-size="10.00">hello_world::algorithms</text>
<text text-anchor="middle" x="82" y="-7" font-family="Helvetica,sans-Serif" font-size="10.00">::controller::pid::SetpointRamping</text>
</a>
</g>
</g>
<!-- Node14&#45;&gt;Node5 -->
<g id="edge46_Node000005_Node000014" class="edge">
<title>Node14&#45;&gt;Node5</title>
<g id="a_edge46_Node000005_Node000014"><a xlink:title=" ">
<path fill="none" stroke="#9a32cd" stroke-dasharray="5,2" d="M173.64,-10.69C207.57,-14.02 243.53,-24.35 267,-50 294.28,-79.82 259.35,-199.76 285,-231 287.73,-234.32 290.9,-237.2 294.38,-239.68"/>
<polygon fill="#9a32cd" stroke="#9a32cd" points="173.95,-7.12 163.71,-9.84 173.41,-14.1 173.95,-7.12"/>
</a>
</g>
<text text-anchor="middle" x="224.5" y="-53" font-family="Helvetica,sans-Serif" font-size="10.00" fill="grey"> setpointe_ramping</text>
</g>
<!-- Node15 -->
<g id="Node000015" class="node">
<title>Node15</title>
<g id="a_Node000015"><a xlink:href="$structhello__world_1_1algorithms_1_1controller_1_1pid_1_1_basic_pid_datas.html" xlink:title="基础 PID 的数据结构体">
<polygon fill="white" stroke="#666666" points="441,-222 289,-222 289,-192 441,-192 441,-222"/>
<text text-anchor="start" x="297" y="-210" font-family="Helvetica,sans-Serif" font-size="10.00">hello_world::algorithms</text>
<text text-anchor="middle" x="365" y="-199" font-family="Helvetica,sans-Serif" font-size="10.00">::controller::pid::BasicPidDatas</text>
</a>
</g>
</g>
<!-- Node15&#45;&gt;Node3 -->
<g id="edge47_Node000003_Node000015" class="edge">
<title>Node15&#45;&gt;Node3</title>
<g id="a_edge47_Node000003_Node000015"><a xlink:title=" ">
<path fill="none" stroke="#9a32cd" stroke-dasharray="5,2" d="M434.14,-226.2C437.86,-227.71 441.5,-229.31 445,-231 491.75,-253.56 540.3,-290.82 565.81,-311.66"/>
<polygon fill="#9a32cd" stroke="#9a32cd" points="435.77,-222.69 425.18,-222.41 433.28,-229.24 435.77,-222.69"/>
</a>
</g>
<text text-anchor="middle" x="483.5" y="-266" font-family="Helvetica,sans-Serif" font-size="10.00" fill="grey"> datas_</text>
</g>
</g>
</svg>
