<?xml version="1.0" encoding="UTF-8" standalone="no"?>
<!DOCTYPE svg PUBLIC "-//W3C//DTD SVG 1.1//EN"
 "http://www.w3.org/Graphics/SVG/1.1/DTD/svg11.dtd">
<!-- Generated by graphviz version 8.0.3 (20230416.2022)
 -->
<!-- Title: hello_world::devices::referee::RxPackageInfo::decode Pages: 1 -->
<svg width="687pt" height="49pt"
 viewBox="0.00 0.00 687.00 49.00" xmlns="http://www.w3.org/2000/svg" xmlns:xlink="http://www.w3.org/1999/xlink">
<g id="graph0" class="graph" transform="scale(1 1) rotate(0) translate(4 45)">
<title>hello_world::devices::referee::RxPackageInfo::decode</title>
<!-- Node1 -->
<g id="Node000001" class="node">
<title>Node1</title>
<g id="a_Node000001"><a xlink:title=" ">
<polygon fill="#999999" stroke="#666666" points="679,-41 556,-41 556,0 679,0 679,-41"/>
<text text-anchor="start" x="564" y="-29" font-family="Helvetica,sans-Serif" font-size="10.00">hello_world::devices</text>
<text text-anchor="start" x="564" y="-18" font-family="Helvetica,sans-Serif" font-size="10.00">::referee::RxPackageInfo</text>
<text text-anchor="middle" x="617.5" y="-7" font-family="Helvetica,sans-Serif" font-size="10.00">::decode</text>
</a>
</g>
</g>
<!-- Node2 -->
<g id="Node000002" class="node">
<title>Node2</title>
<g id="a_Node000002"><a xlink:href="$classhello__world_1_1devices_1_1referee_1_1_referee.html#af9388d8910762162a0d23d0ba44df19a" xlink:title=" ">
<polygon fill="white" stroke="#666666" points="520,-41 380,-41 380,0 520,0 520,-41"/>
<text text-anchor="start" x="388" y="-29" font-family="Helvetica,sans-Serif" font-size="10.00">hello_world::devices</text>
<text text-anchor="start" x="388" y="-18" font-family="Helvetica,sans-Serif" font-size="10.00">::referee::Referee::decodeRx</text>
<text text-anchor="middle" x="450" y="-7" font-family="Helvetica,sans-Serif" font-size="10.00">Package</text>
</a>
</g>
</g>
<!-- Node1&#45;&gt;Node2 -->
<g id="edge7_Node000001_Node000002" class="edge">
<title>Node1&#45;&gt;Node2</title>
<g id="a_edge7_Node000001_Node000002"><a xlink:title=" ">
<path fill="none" stroke="#63b8ff" d="M544.85,-20.5C536.73,-20.5 528.45,-20.5 520.36,-20.5"/>
<polygon fill="#63b8ff" stroke="#63b8ff" points="544.81,-24 554.81,-20.5 544.81,-17 544.81,-24"/>
</a>
</g>
</g>
<!-- Node3 -->
<g id="Node000003" class="node">
<title>Node3</title>
<g id="a_Node000003"><a xlink:href="$classhello__world_1_1devices_1_1referee_1_1_referee.html#a823f73d223421b7d025005e99ff08291" xlink:title=" ">
<polygon fill="white" stroke="#666666" points="344,-35.5 192,-35.5 192,-5.5 344,-5.5 344,-35.5"/>
<text text-anchor="start" x="200" y="-23.5" font-family="Helvetica,sans-Serif" font-size="10.00">hello_world::devices</text>
<text text-anchor="middle" x="268" y="-12.5" font-family="Helvetica,sans-Serif" font-size="10.00">::referee::Referee::processByte</text>
</a>
</g>
</g>
<!-- Node2&#45;&gt;Node3 -->
<g id="edge8_Node000002_Node000003" class="edge">
<title>Node2&#45;&gt;Node3</title>
<g id="a_edge8_Node000002_Node000003"><a xlink:title=" ">
<path fill="none" stroke="#63b8ff" d="M368.69,-20.5C360.57,-20.5 352.34,-20.5 344.28,-20.5"/>
<polygon fill="#63b8ff" stroke="#63b8ff" points="368.66,-24 378.66,-20.5 368.66,-17 368.66,-24"/>
</a>
</g>
</g>
<!-- Node4 -->
<g id="Node000004" class="node">
<title>Node4</title>
<g id="a_Node000004"><a xlink:href="$classhello__world_1_1devices_1_1referee_1_1_referee.html#aaa5ff496d5c254b8fd821c351bb75325" xlink:title=" ">
<polygon fill="white" stroke="#666666" points="156,-35.5 0,-35.5 0,-5.5 156,-5.5 156,-35.5"/>
<text text-anchor="start" x="8" y="-23.5" font-family="Helvetica,sans-Serif" font-size="10.00">hello_world::devices</text>
<text text-anchor="middle" x="78" y="-12.5" font-family="Helvetica,sans-Serif" font-size="10.00">::referee::Referee::decodeFrame</text>
</a>
</g>
</g>
<!-- Node3&#45;&gt;Node4 -->
<g id="edge9_Node000003_Node000004" class="edge">
<title>Node3&#45;&gt;Node4</title>
<g id="a_edge9_Node000003_Node000004"><a xlink:title=" ">
<path fill="none" stroke="#63b8ff" d="M180.88,-20.5C172.67,-20.5 164.37,-20.5 156.24,-20.5"/>
<polygon fill="#63b8ff" stroke="#63b8ff" points="180.62,-24 190.62,-20.5 180.62,-17 180.62,-24"/>
</a>
</g>
</g>
</g>
</svg>
