<?xml version="1.0" encoding="UTF-8" standalone="no"?>
<!DOCTYPE svg PUBLIC "-//W3C//DTD SVG 1.1//EN"
 "http://www.w3.org/Graphics/SVG/1.1/DTD/svg11.dtd">
<!-- Generated by graphviz version 8.0.3 (20230416.2022)
 -->
<!-- Title: hello_world::devices::laser::Laser::setLuminPct Pages: 1 -->
<svg width="455pt" height="38pt"
 viewBox="0.00 0.00 455.00 38.00" xmlns="http://www.w3.org/2000/svg" xmlns:xlink="http://www.w3.org/1999/xlink">
<g id="graph0" class="graph" transform="scale(1 1) rotate(0) translate(4 34)">
<title>hello_world::devices::laser::Laser::setLuminPct</title>
<!-- Node1 -->
<g id="Node000001" class="node">
<title>Node1</title>
<g id="a_Node000001"><a xlink:title="设置红点激光器百分比亮度">
<polygon fill="#999999" stroke="#666666" points="134,-30 0,-30 0,0 134,0 134,-30"/>
<text text-anchor="start" x="8" y="-18" font-family="Helvetica,sans-Serif" font-size="10.00">hello_world::devices</text>
<text text-anchor="middle" x="67" y="-7" font-family="Helvetica,sans-Serif" font-size="10.00">::laser::Laser::setLuminPct</text>
</a>
</g>
</g>
<!-- Node2 -->
<g id="Node000002" class="node">
<title>Node2</title>
<g id="a_Node000002"><a xlink:href="$classhello__world_1_1devices_1_1laser_1_1_laser.html#a71727ea81371581d369751653e0fc5ca" xlink:title="百分比亮度转定时器PWM比较值">
<polygon fill="white" stroke="#666666" points="313,-30 170,-30 170,0 313,0 313,-30"/>
<text text-anchor="start" x="178" y="-18" font-family="Helvetica,sans-Serif" font-size="10.00">hello_world::devices</text>
<text text-anchor="middle" x="241.5" y="-7" font-family="Helvetica,sans-Serif" font-size="10.00">::laser::Laser::luminPct2Cmp</text>
</a>
</g>
</g>
<!-- Node1&#45;&gt;Node2 -->
<g id="edge5_Node000001_Node000002" class="edge">
<title>Node1&#45;&gt;Node2</title>
<g id="a_edge5_Node000001_Node000002"><a xlink:title=" ">
<path fill="none" stroke="#63b8ff" d="M134.2,-15C142.26,-15 150.57,-15 158.82,-15"/>
<polygon fill="#63b8ff" stroke="#63b8ff" points="158.61,-18.5 168.61,-15 158.61,-11.5 158.61,-18.5"/>
</a>
</g>
</g>
<!-- Node3 -->
<g id="Node000003" class="node">
<title>Node3</title>
<g id="a_Node000003"><a xlink:href="$namespacehello__world.html#a34cb06299a34f746d556d23dc16904aa" xlink:title="将输入值限制在一个范围内">
<polygon fill="white" stroke="#666666" points="447,-24.5 349,-24.5 349,-5.5 447,-5.5 447,-24.5"/>
<text text-anchor="middle" x="398" y="-12.5" font-family="Helvetica,sans-Serif" font-size="10.00">hello_world::Bound</text>
</a>
</g>
</g>
<!-- Node2&#45;&gt;Node3 -->
<g id="edge6_Node000002_Node000003" class="edge">
<title>Node2&#45;&gt;Node3</title>
<g id="a_edge6_Node000002_Node000003"><a xlink:title=" ">
<path fill="none" stroke="#63b8ff" d="M313.42,-15C321.51,-15 329.69,-15 337.6,-15"/>
<polygon fill="#63b8ff" stroke="#63b8ff" points="337.58,-18.5 347.58,-15 337.58,-11.5 337.58,-18.5"/>
</a>
</g>
</g>
</g>
</svg>
