<?xml version="1.0" encoding="UTF-8" standalone="no"?>
<!DOCTYPE svg PUBLIC "-//W3C//DTD SVG 1.1//EN"
 "http://www.w3.org/Graphics/SVG/1.1/DTD/svg11.dtd">
<!-- Generated by graphviz version 8.0.3 (20230416.2022)
 -->
<!-- Title: hello_world::algorithms::controller::pid::BasicPid::params Pages: 1 -->
<svg width="486pt" height="150pt"
 viewBox="0.00 0.00 486.00 150.00" xmlns="http://www.w3.org/2000/svg" xmlns:xlink="http://www.w3.org/1999/xlink">
<g id="graph0" class="graph" transform="scale(1 1) rotate(0) translate(4 146)">
<title>hello_world::algorithms::controller::pid::BasicPid::params</title>
<!-- Node1 -->
<g id="Node000001" class="node">
<title>Node1</title>
<g id="a_Node000001"><a xlink:title="获取 PID 参数的常量引用">
<polygon fill="#999999" stroke="#666666" points="478,-106 352,-106 352,-65 478,-65 478,-106"/>
<text text-anchor="start" x="360" y="-94" font-family="Helvetica,sans-Serif" font-size="10.00">hello_world::algorithms</text>
<text text-anchor="start" x="360" y="-83" font-family="Helvetica,sans-Serif" font-size="10.00">::controller::pid::BasicPid</text>
<text text-anchor="middle" x="415" y="-72" font-family="Helvetica,sans-Serif" font-size="10.00">::params</text>
</a>
</g>
</g>
<!-- Node2 -->
<g id="Node000002" class="node">
<title>Node2</title>
<g id="a_Node000002"><a xlink:href="$classhello__world_1_1algorithms_1_1controller_1_1pid_1_1_multi_nodes_pid.html#a5798e287814521e3627db78943c840c4" xlink:title="获取指定索引处 PID 控制器的参数">
<polygon fill="white" stroke="#666666" points="312,-142 176,-142 176,-101 312,-101 312,-142"/>
<text text-anchor="start" x="184" y="-130" font-family="Helvetica,sans-Serif" font-size="10.00">hello_world::algorithms</text>
<text text-anchor="start" x="184" y="-119" font-family="Helvetica,sans-Serif" font-size="10.00">::controller::pid::MultiNodes</text>
<text text-anchor="middle" x="244" y="-108" font-family="Helvetica,sans-Serif" font-size="10.00">Pid::paramsAt</text>
</a>
</g>
</g>
<!-- Node1&#45;&gt;Node2 -->
<g id="edge11_Node000001_Node000002" class="edge">
<title>Node1&#45;&gt;Node2</title>
<g id="a_edge11_Node000001_Node000002"><a xlink:title=" ">
<path fill="none" stroke="#63b8ff" d="M340.92,-101.07C331.42,-103.09 321.71,-105.16 312.3,-107.16"/>
<polygon fill="#63b8ff" stroke="#63b8ff" points="341.5,-104.31 350.55,-98.8 340.04,-97.46 341.5,-104.31"/>
</a>
</g>
</g>
<!-- Node3 -->
<g id="Node000003" class="node">
<title>Node3</title>
<g id="a_Node000003"><a xlink:href="$classhello__world_1_1algorithms_1_1controller_1_1pid_1_1_pid_list.html#a3b9df804e3d0bd9402c289727b00a25e" xlink:title="向链表尾部添加一个新的 PidNode">
<polygon fill="white" stroke="#666666" points="316,-64.5 172,-64.5 172,-34.5 316,-34.5 316,-64.5"/>
<text text-anchor="start" x="180" y="-52.5" font-family="Helvetica,sans-Serif" font-size="10.00">hello_world::algorithms</text>
<text text-anchor="middle" x="244" y="-41.5" font-family="Helvetica,sans-Serif" font-size="10.00">::controller::pid::PidList::push</text>
</a>
</g>
</g>
<!-- Node1&#45;&gt;Node3 -->
<g id="edge12_Node000001_Node000003" class="edge">
<title>Node1&#45;&gt;Node3</title>
<g id="a_edge12_Node000001_Node000003"><a xlink:title=" ">
<path fill="none" stroke="#63b8ff" d="M340.93,-69.93C332.77,-68.2 324.46,-66.43 316.32,-64.69"/>
<polygon fill="#63b8ff" stroke="#63b8ff" points="340.04,-73.54 350.55,-72.2 341.5,-66.69 340.04,-73.54"/>
</a>
</g>
</g>
<!-- Node3&#45;&gt;Node3 -->
<g id="edge15_Node000003_Node000003" class="edge">
<title>Node3&#45;&gt;Node3</title>
<g id="a_edge15_Node000003_Node000003"><a xlink:title=" ">
<path fill="none" stroke="#63b8ff" d="M273.6,-75.44C269.31,-79.63 259.45,-82.5 244,-82.5 217.28,-82.5 207.26,-73.91 213.94,-64.78"/>
<polygon fill="#63b8ff" stroke="#63b8ff" points="277.12,-75.92 274.06,-65.78 270.13,-75.61 277.12,-75.92"/>
</a>
</g>
</g>
<!-- Node4 -->
<g id="Node000004" class="node">
<title>Node4</title>
<g id="a_Node000004"><a xlink:href="$classhello__world_1_1algorithms_1_1controller_1_1pid_1_1_multi_nodes_pid.html#a8e4bfd26c1bb829f58d3fb14e80c4c0b" xlink:title="构造函数，初始化 MultiNodesPid 对象，至少会存在一个 PID 控制器节点，推荐和 paramsAt 函数一起使用">
<polygon fill="white" stroke="#666666" points="136,-100 0,-100 0,-59 136,-59 136,-100"/>
<text text-anchor="start" x="8" y="-88" font-family="Helvetica,sans-Serif" font-size="10.00">hello_world::algorithms</text>
<text text-anchor="start" x="8" y="-77" font-family="Helvetica,sans-Serif" font-size="10.00">::controller::pid::MultiNodes</text>
<text text-anchor="middle" x="68" y="-66" font-family="Helvetica,sans-Serif" font-size="10.00">Pid::MultiNodesPid</text>
</a>
</g>
</g>
<!-- Node3&#45;&gt;Node4 -->
<g id="edge13_Node000003_Node000004" class="edge">
<title>Node3&#45;&gt;Node4</title>
<g id="a_edge13_Node000003_Node000004"><a xlink:title=" ">
<path fill="none" stroke="#63b8ff" d="M160.92,-63.65C152.65,-65.08 144.32,-66.51 136.24,-67.91"/>
<polygon fill="#63b8ff" stroke="#63b8ff" points="161.47,-66.94 170.73,-61.79 160.28,-60.04 161.47,-66.94"/>
</a>
</g>
</g>
<!-- Node5 -->
<g id="Node000005" class="node">
<title>Node5</title>
<g id="a_Node000005"><a xlink:href="$classhello__world_1_1algorithms_1_1controller_1_1pid_1_1_multi_nodes_pid.html#a9a3282e6e51a5b7689717079f0d25abe" xlink:title="构造函数，初始化 MultiNodesPid 对象，至少会存在一个 PID 控制器节点">
<polygon fill="white" stroke="#666666" points="136,-41 0,-41 0,0 136,0 136,-41"/>
<text text-anchor="start" x="8" y="-29" font-family="Helvetica,sans-Serif" font-size="10.00">hello_world::algorithms</text>
<text text-anchor="start" x="8" y="-18" font-family="Helvetica,sans-Serif" font-size="10.00">::controller::pid::MultiNodes</text>
<text text-anchor="middle" x="68" y="-7" font-family="Helvetica,sans-Serif" font-size="10.00">Pid::MultiNodesPid</text>
</a>
</g>
</g>
<!-- Node3&#45;&gt;Node5 -->
<g id="edge14_Node000003_Node000005" class="edge">
<title>Node3&#45;&gt;Node5</title>
<g id="a_edge14_Node000003_Node000005"><a xlink:title=" ">
<path fill="none" stroke="#63b8ff" d="M160.92,-35.82C152.65,-34.44 144.32,-33.05 136.24,-31.71"/>
<polygon fill="#63b8ff" stroke="#63b8ff" points="160.29,-39.43 170.73,-37.62 161.44,-32.52 160.29,-39.43"/>
</a>
</g>
</g>
</g>
</svg>
