<?xml version="1.0" encoding="UTF-8" standalone="no"?>
<!DOCTYPE svg PUBLIC "-//W3C//DTD SVG 1.1//EN"
 "http://www.w3.org/Graphics/SVG/1.1/DTD/svg11.dtd">
<!-- Generated by graphviz version 8.0.3 (20230416.2022)
 -->
<!-- Title: hello_world::devices::imu::BMI088::accWrite Pages: 1 -->
<svg width="587pt" height="59pt"
 viewBox="0.00 0.00 587.00 59.00" xmlns="http://www.w3.org/2000/svg" xmlns:xlink="http://www.w3.org/1999/xlink">
<g id="graph0" class="graph" transform="scale(1 1) rotate(0) translate(4 55)">
<title>hello_world::devices::imu::BMI088::accWrite</title>
<!-- Node1 -->
<g id="Node000001" class="node">
<title>Node1</title>
<g id="a_Node000001"><a xlink:title="向加速度计寄存器写入数据">
<polygon fill="#999999" stroke="#666666" points="579,-51 457,-51 457,-21 579,-21 579,-51"/>
<text text-anchor="start" x="465" y="-39" font-family="Helvetica,sans-Serif" font-size="10.00">hello_world::devices</text>
<text text-anchor="middle" x="518" y="-28" font-family="Helvetica,sans-Serif" font-size="10.00">::imu::BMI088::accWrite</text>
</a>
</g>
</g>
<!-- Node2 -->
<g id="Node000002" class="node">
<title>Node2</title>
<g id="a_Node000002"><a xlink:href="$classhello__world_1_1devices_1_1imu_1_1_b_m_i088.html#af18363d9dd6de94e4961ce1772923483" xlink:title="加速度计配置">
<polygon fill="white" stroke="#666666" points="251,-51 139,-51 139,-21 251,-21 251,-51"/>
<text text-anchor="start" x="147" y="-39" font-family="Helvetica,sans-Serif" font-size="10.00">hello_world::devices</text>
<text text-anchor="middle" x="195" y="-28" font-family="Helvetica,sans-Serif" font-size="10.00">::imu::BMI088::accInit</text>
</a>
</g>
</g>
<!-- Node1&#45;&gt;Node2 -->
<g id="edge9_Node000001_Node000002" class="edge">
<title>Node1&#45;&gt;Node2</title>
<g id="a_edge9_Node000001_Node000002"><a xlink:title=" ">
<path fill="none" stroke="#63b8ff" d="M445.7,-38.48C437.37,-38.69 429,-38.88 421,-39 361.45,-39.93 346.55,-39.98 287,-39 275.46,-38.81 263.11,-38.48 251.33,-38.12"/>
<polygon fill="#63b8ff" stroke="#63b8ff" points="445.68,-41.95 455.58,-38.18 445.49,-34.95 445.68,-41.95"/>
</a>
</g>
</g>
<!-- Node4 -->
<g id="Node000004" class="node">
<title>Node4</title>
<g id="a_Node000004"><a xlink:href="$classhello__world_1_1devices_1_1imu_1_1_b_m_i088.html#a7bc81c0ed908d469d3c0bde126a80311" xlink:title="加速度计自检测">
<polygon fill="white" stroke="#666666" points="421,-30 287,-30 287,0 421,0 421,-30"/>
<text text-anchor="start" x="295" y="-18" font-family="Helvetica,sans-Serif" font-size="10.00">hello_world::devices</text>
<text text-anchor="middle" x="354" y="-7" font-family="Helvetica,sans-Serif" font-size="10.00">::imu::BMI088::accSelfTest</text>
</a>
</g>
</g>
<!-- Node1&#45;&gt;Node4 -->
<g id="edge11_Node000001_Node000004" class="edge">
<title>Node1&#45;&gt;Node4</title>
<g id="a_edge11_Node000001_Node000004"><a xlink:title=" ">
<path fill="none" stroke="#63b8ff" d="M446.01,-26.8C437.82,-25.74 429.49,-24.66 421.36,-23.6"/>
<polygon fill="#63b8ff" stroke="#63b8ff" points="445.31,-30.37 455.68,-28.18 446.21,-23.42 445.31,-30.37"/>
</a>
</g>
</g>
<!-- Node3 -->
<g id="Node000003" class="node">
<title>Node3</title>
<g id="a_Node000003"><a xlink:href="$classhello__world_1_1devices_1_1imu_1_1_b_m_i088.html#a623a7d90db0585ea45bac12fd3d19061" xlink:title="进行 BMI088 芯片配置">
<polygon fill="white" stroke="#666666" points="103,-51 0,-51 0,-21 103,-21 103,-51"/>
<text text-anchor="start" x="8" y="-39" font-family="Helvetica,sans-Serif" font-size="10.00">hello_world::devices</text>
<text text-anchor="middle" x="51.5" y="-28" font-family="Helvetica,sans-Serif" font-size="10.00">::imu::BMI088::init</text>
</a>
</g>
</g>
<!-- Node2&#45;&gt;Node3 -->
<g id="edge10_Node000002_Node000003" class="edge">
<title>Node2&#45;&gt;Node3</title>
<g id="a_edge10_Node000002_Node000003"><a xlink:title=" ">
<path fill="none" stroke="#63b8ff" d="M127.98,-36C119.61,-36 111.15,-36 103.07,-36"/>
<polygon fill="#63b8ff" stroke="#63b8ff" points="127.89,-39.5 137.89,-36 127.89,-32.5 127.89,-39.5"/>
</a>
</g>
</g>
<!-- Node4&#45;&gt;Node2 -->
<g id="edge12_Node000004_Node000002" class="edge">
<title>Node4&#45;&gt;Node2</title>
<g id="a_edge12_Node000004_Node000002"><a xlink:title=" ">
<path fill="none" stroke="#63b8ff" d="M276.2,-25.27C267.74,-26.4 259.26,-27.54 251.14,-28.63"/>
<polygon fill="#63b8ff" stroke="#63b8ff" points="276.43,-28.64 285.87,-23.85 275.5,-21.7 276.43,-28.64"/>
</a>
</g>
</g>
</g>
</svg>
