<?xml version="1.0" encoding="UTF-8" standalone="no"?>
<!DOCTYPE svg PUBLIC "-//W3C//DTD SVG 1.1//EN"
 "http://www.w3.org/Graphics/SVG/1.1/DTD/svg11.dtd">
<!-- Generated by graphviz version 8.0.3 (20230416.2022)
 -->
<!-- Title: hello_world::devices::referee::Referee::restartDecodeFrame Pages: 1 -->
<svg width="513pt" height="49pt"
 viewBox="0.00 0.00 513.00 49.00" xmlns="http://www.w3.org/2000/svg" xmlns:xlink="http://www.w3.org/1999/xlink">
<g id="graph0" class="graph" transform="scale(1 1) rotate(0) translate(4 45)">
<title>hello_world::devices::referee::Referee::restartDecodeFrame</title>
<!-- Node1 -->
<g id="Node000001" class="node">
<title>Node1</title>
<g id="a_Node000001"><a xlink:title=" ">
<polygon fill="#999999" stroke="#666666" points="505,-41 380,-41 380,0 505,0 505,-41"/>
<text text-anchor="start" x="388" y="-29" font-family="Helvetica,sans-Serif" font-size="10.00">hello_world::devices</text>
<text text-anchor="start" x="388" y="-18" font-family="Helvetica,sans-Serif" font-size="10.00">::referee::Referee::restart</text>
<text text-anchor="middle" x="442.5" y="-7" font-family="Helvetica,sans-Serif" font-size="10.00">DecodeFrame</text>
</a>
</g>
</g>
<!-- Node2 -->
<g id="Node000002" class="node">
<title>Node2</title>
<g id="a_Node000002"><a xlink:href="$classhello__world_1_1devices_1_1referee_1_1_referee.html#a823f73d223421b7d025005e99ff08291" xlink:title=" ">
<polygon fill="white" stroke="#666666" points="344,-35.5 192,-35.5 192,-5.5 344,-5.5 344,-35.5"/>
<text text-anchor="start" x="200" y="-23.5" font-family="Helvetica,sans-Serif" font-size="10.00">hello_world::devices</text>
<text text-anchor="middle" x="268" y="-12.5" font-family="Helvetica,sans-Serif" font-size="10.00">::referee::Referee::processByte</text>
</a>
</g>
</g>
<!-- Node1&#45;&gt;Node2 -->
<g id="edge5_Node000001_Node000002" class="edge">
<title>Node1&#45;&gt;Node2</title>
<g id="a_edge5_Node000001_Node000002"><a xlink:title=" ">
<path fill="none" stroke="#63b8ff" d="M368.77,-20.5C360.65,-20.5 352.36,-20.5 344.22,-20.5"/>
<polygon fill="#63b8ff" stroke="#63b8ff" points="368.71,-24 378.71,-20.5 368.71,-17 368.71,-24"/>
</a>
</g>
</g>
<!-- Node3 -->
<g id="Node000003" class="node">
<title>Node3</title>
<g id="a_Node000003"><a xlink:href="$classhello__world_1_1devices_1_1referee_1_1_referee.html#aaa5ff496d5c254b8fd821c351bb75325" xlink:title=" ">
<polygon fill="white" stroke="#666666" points="156,-35.5 0,-35.5 0,-5.5 156,-5.5 156,-35.5"/>
<text text-anchor="start" x="8" y="-23.5" font-family="Helvetica,sans-Serif" font-size="10.00">hello_world::devices</text>
<text text-anchor="middle" x="78" y="-12.5" font-family="Helvetica,sans-Serif" font-size="10.00">::referee::Referee::decodeFrame</text>
</a>
</g>
</g>
<!-- Node2&#45;&gt;Node3 -->
<g id="edge6_Node000002_Node000003" class="edge">
<title>Node2&#45;&gt;Node3</title>
<g id="a_edge6_Node000002_Node000003"><a xlink:title=" ">
<path fill="none" stroke="#63b8ff" d="M180.88,-20.5C172.67,-20.5 164.37,-20.5 156.24,-20.5"/>
<polygon fill="#63b8ff" stroke="#63b8ff" points="180.62,-24 190.62,-20.5 180.62,-17 180.62,-24"/>
</a>
</g>
</g>
</g>
</svg>
