<?xml version="1.0" encoding="UTF-8" standalone="no"?>
<!DOCTYPE svg PUBLIC "-//W3C//DTD SVG 1.1//EN"
 "http://www.w3.org/Graphics/SVG/1.1/DTD/svg11.dtd">
<!-- Generated by graphviz version 8.0.3 (20230416.2022)
 -->
<!-- Title: hello_world::devices::referee::Referee::encodeSetCrc Pages: 1 -->
<svg width="549pt" height="86pt"
 viewBox="0.00 0.00 549.00 86.00" xmlns="http://www.w3.org/2000/svg" xmlns:xlink="http://www.w3.org/1999/xlink">
<g id="graph0" class="graph" transform="scale(1 1) rotate(0) translate(4 82)">
<title>hello_world::devices::referee::Referee::encodeSetCrc</title>
<!-- Node1 -->
<g id="Node000001" class="node">
<title>Node1</title>
<g id="a_Node000001"><a xlink:title=" ">
<polygon fill="#999999" stroke="#666666" points="158,-54 0,-54 0,-24 158,-24 158,-54"/>
<text text-anchor="start" x="8" y="-42" font-family="Helvetica,sans-Serif" font-size="10.00">hello_world::devices</text>
<text text-anchor="middle" x="79" y="-31" font-family="Helvetica,sans-Serif" font-size="10.00">::referee::Referee::encodeSetCrc</text>
</a>
</g>
</g>
<!-- Node2 -->
<g id="Node000002" class="node">
<title>Node2</title>
<g id="a_Node000002"><a xlink:href="$namespacehello__world_1_1devices_1_1referee.html#a73a313c37bf9c08d99668eb8e20b0126" xlink:title="Set the last two bytes of a message to a CRC16 checksum.">
<polygon fill="white" stroke="#666666" points="358,-78 194,-78 194,-48 358,-48 358,-78"/>
<text text-anchor="start" x="202" y="-66" font-family="Helvetica,sans-Serif" font-size="10.00">hello_world::devices</text>
<text text-anchor="middle" x="276" y="-55" font-family="Helvetica,sans-Serif" font-size="10.00">::referee::SetEndCrc16CheckSum</text>
</a>
</g>
</g>
<!-- Node1&#45;&gt;Node2 -->
<g id="edge9_Node000001_Node000002" class="edge">
<title>Node1&#45;&gt;Node2</title>
<g id="a_edge9_Node000001_Node000002"><a xlink:title=" ">
<path fill="none" stroke="#63b8ff" d="M158.47,-48.66C166.49,-49.65 174.69,-50.65 182.84,-51.66"/>
<polygon fill="#63b8ff" stroke="#63b8ff" points="182.15,-55.22 192.51,-52.97 183.01,-48.27 182.15,-55.22"/>
</a>
</g>
</g>
<!-- Node4 -->
<g id="Node000004" class="node">
<title>Node4</title>
<g id="a_Node000004"><a xlink:href="$namespacehello__world_1_1devices_1_1referee.html#a1010051b064aba848f58d85e35720c8e" xlink:title="Set the last byte of a message to a CRC8 checksum.">
<polygon fill="white" stroke="#666666" points="355,-30 197,-30 197,0 355,0 355,-30"/>
<text text-anchor="start" x="205" y="-18" font-family="Helvetica,sans-Serif" font-size="10.00">hello_world::devices</text>
<text text-anchor="middle" x="276" y="-7" font-family="Helvetica,sans-Serif" font-size="10.00">::referee::SetEndCrc8CheckSum</text>
</a>
</g>
</g>
<!-- Node1&#45;&gt;Node4 -->
<g id="edge11_Node000001_Node000004" class="edge">
<title>Node1&#45;&gt;Node4</title>
<g id="a_edge11_Node000001_Node000004"><a xlink:title=" ">
<path fill="none" stroke="#63b8ff" d="M158.47,-29.34C167.52,-28.23 176.8,-27.09 185.98,-25.96"/>
<polygon fill="#63b8ff" stroke="#63b8ff" points="186.19,-29.33 195.69,-24.64 185.34,-22.39 186.19,-29.33"/>
</a>
</g>
</g>
<!-- Node3 -->
<g id="Node000003" class="node">
<title>Node3</title>
<g id="a_Node000003"><a xlink:href="$namespacehello__world_1_1devices_1_1referee.html#a30f1e50d6e85c306486883a0668b7f50" xlink:title="Calculate and return the CRC16 checksum of a message.">
<polygon fill="white" stroke="#666666" points="541,-78 394,-78 394,-48 541,-48 541,-78"/>
<text text-anchor="start" x="402" y="-66" font-family="Helvetica,sans-Serif" font-size="10.00">hello_world::devices</text>
<text text-anchor="middle" x="467.5" y="-55" font-family="Helvetica,sans-Serif" font-size="10.00">::referee::GetCrc16CheckSum</text>
</a>
</g>
</g>
<!-- Node2&#45;&gt;Node3 -->
<g id="edge10_Node000002_Node000003" class="edge">
<title>Node2&#45;&gt;Node3</title>
<g id="a_edge10_Node000002_Node000003"><a xlink:title=" ">
<path fill="none" stroke="#63b8ff" d="M358.46,-63C366.53,-63 374.73,-63 382.82,-63"/>
<polygon fill="#63b8ff" stroke="#63b8ff" points="382.77,-66.5 392.77,-63 382.77,-59.5 382.77,-66.5"/>
</a>
</g>
</g>
<!-- Node5 -->
<g id="Node000005" class="node">
<title>Node5</title>
<g id="a_Node000005"><a xlink:href="$namespacehello__world_1_1devices_1_1referee.html#a42050a73d989fc581253585524abbf57" xlink:title="Calculate and return the CRC8 checksum of a message.">
<polygon fill="white" stroke="#666666" points="538.5,-30 396.5,-30 396.5,0 538.5,0 538.5,-30"/>
<text text-anchor="start" x="404.5" y="-18" font-family="Helvetica,sans-Serif" font-size="10.00">hello_world::devices</text>
<text text-anchor="middle" x="467.5" y="-7" font-family="Helvetica,sans-Serif" font-size="10.00">::referee::GetCrc8CheckSum</text>
</a>
</g>
</g>
<!-- Node4&#45;&gt;Node5 -->
<g id="edge12_Node000004_Node000005" class="edge">
<title>Node4&#45;&gt;Node5</title>
<g id="a_edge12_Node000004_Node000005"><a xlink:title=" ">
<path fill="none" stroke="#63b8ff" d="M355.44,-15C365.39,-15 375.58,-15 385.57,-15"/>
<polygon fill="#63b8ff" stroke="#63b8ff" points="385.29,-18.5 395.29,-15 385.29,-11.5 385.29,-18.5"/>
</a>
</g>
</g>
</g>
</svg>
