<?xml version="1.0" encoding="UTF-8" standalone="no"?>
<!DOCTYPE svg PUBLIC "-//W3C//DTD SVG 1.1//EN"
 "http://www.w3.org/Graphics/SVG/1.1/DTD/svg11.dtd">
<!-- Generated by graphviz version 8.0.3 (20230416.2022)
 -->
<!-- Title: hello_world::devices::laser::Laser::luminPct2Cmp Pages: 1 -->
<svg width="321pt" height="86pt"
 viewBox="0.00 0.00 321.00 86.00" xmlns="http://www.w3.org/2000/svg" xmlns:xlink="http://www.w3.org/1999/xlink">
<g id="graph0" class="graph" transform="scale(1 1) rotate(0) translate(4 82)">
<title>hello_world::devices::laser::Laser::luminPct2Cmp</title>
<!-- Node1 -->
<g id="Node000001" class="node">
<title>Node1</title>
<g id="a_Node000001"><a xlink:title="百分比亮度转定时器PWM比较值">
<polygon fill="#999999" stroke="#666666" points="313,-54 170,-54 170,-24 313,-24 313,-54"/>
<text text-anchor="start" x="178" y="-42" font-family="Helvetica,sans-Serif" font-size="10.00">hello_world::devices</text>
<text text-anchor="middle" x="241.5" y="-31" font-family="Helvetica,sans-Serif" font-size="10.00">::laser::Laser::luminPct2Cmp</text>
</a>
</g>
</g>
<!-- Node2 -->
<g id="Node000002" class="node">
<title>Node2</title>
<g id="a_Node000002"><a xlink:href="$classhello__world_1_1devices_1_1laser_1_1_laser.html#ade6858f65e516d3f2d99e140e27eeb21" xlink:title="红点激光器初始化">
<polygon fill="white" stroke="#666666" points="119,-78 15,-78 15,-48 119,-48 119,-78"/>
<text text-anchor="start" x="23" y="-66" font-family="Helvetica,sans-Serif" font-size="10.00">hello_world::devices</text>
<text text-anchor="middle" x="67" y="-55" font-family="Helvetica,sans-Serif" font-size="10.00">::laser::Laser::Laser</text>
</a>
</g>
</g>
<!-- Node1&#45;&gt;Node2 -->
<g id="edge5_Node000001_Node000002" class="edge">
<title>Node1&#45;&gt;Node2</title>
<g id="a_edge5_Node000001_Node000002"><a xlink:title=" ">
<path fill="none" stroke="#63b8ff" d="M159.04,-50.33C145.5,-52.22 131.8,-54.12 119.28,-55.87"/>
<polygon fill="#63b8ff" stroke="#63b8ff" points="159.42,-53.68 168.84,-48.83 158.45,-46.74 159.42,-53.68"/>
</a>
</g>
</g>
<!-- Node3 -->
<g id="Node000003" class="node">
<title>Node3</title>
<g id="a_Node000003"><a xlink:href="$classhello__world_1_1devices_1_1laser_1_1_laser.html#ae18c0d286f4c46619adf603ef47ecdb5" xlink:title="设置红点激光器百分比亮度">
<polygon fill="white" stroke="#666666" points="134,-30 0,-30 0,0 134,0 134,-30"/>
<text text-anchor="start" x="8" y="-18" font-family="Helvetica,sans-Serif" font-size="10.00">hello_world::devices</text>
<text text-anchor="middle" x="67" y="-7" font-family="Helvetica,sans-Serif" font-size="10.00">::laser::Laser::setLuminPct</text>
</a>
</g>
</g>
<!-- Node1&#45;&gt;Node3 -->
<g id="edge6_Node000001_Node000003" class="edge">
<title>Node1&#45;&gt;Node3</title>
<g id="a_edge6_Node000001_Node000003"><a xlink:title=" ">
<path fill="none" stroke="#63b8ff" d="M159.04,-27.67C150.78,-26.52 142.46,-25.36 134.38,-24.24"/>
<polygon fill="#63b8ff" stroke="#63b8ff" points="158.45,-31.26 168.84,-29.17 159.42,-24.32 158.45,-31.26"/>
</a>
</g>
</g>
</g>
</svg>
