<?xml version="1.0" encoding="UTF-8" standalone="no"?>
<!DOCTYPE svg PUBLIC "-//W3C//DTD SVG 1.1//EN"
 "http://www.w3.org/Graphics/SVG/1.1/DTD/svg11.dtd">
<!-- Generated by graphviz version 8.0.3 (20230416.2022)
 -->
<!-- Title: hello_world::algorithms::controller::pid::BasicPid::reset Pages: 1 -->
<svg width="664pt" height="133pt"
 viewBox="0.00 0.00 664.00 133.00" xmlns="http://www.w3.org/2000/svg" xmlns:xlink="http://www.w3.org/1999/xlink">
<g id="graph0" class="graph" transform="scale(1 1) rotate(0) translate(4 129)">
<title>hello_world::algorithms::controller::pid::BasicPid::reset</title>
<!-- Node1 -->
<g id="Node000001" class="node">
<title>Node1</title>
<g id="a_Node000001"><a xlink:title="重置PID数据">
<polygon fill="#999999" stroke="#666666" points="656,-68 530,-68 530,-27 656,-27 656,-68"/>
<text text-anchor="start" x="538" y="-56" font-family="Helvetica,sans-Serif" font-size="10.00">hello_world::algorithms</text>
<text text-anchor="start" x="538" y="-45" font-family="Helvetica,sans-Serif" font-size="10.00">::controller::pid::BasicPid</text>
<text text-anchor="middle" x="593" y="-34" font-family="Helvetica,sans-Serif" font-size="10.00">::reset</text>
</a>
</g>
</g>
<!-- Node2 -->
<g id="Node000002" class="node">
<title>Node2</title>
<g id="a_Node000002"><a xlink:href="$classhello__world_1_1algorithms_1_1controller_1_1pid_1_1_basic_pid.html#a2b8667e517f1999ec3fecffe9e6bd33d" xlink:title="PID 控制器的计算函数">
<polygon fill="white" stroke="#666666" points="494,-89.5 344,-89.5 344,-59.5 494,-59.5 494,-89.5"/>
<text text-anchor="start" x="352" y="-77.5" font-family="Helvetica,sans-Serif" font-size="10.00">hello_world::algorithms</text>
<text text-anchor="middle" x="419" y="-66.5" font-family="Helvetica,sans-Serif" font-size="10.00">::controller::pid::BasicPid::calc</text>
</a>
</g>
</g>
<!-- Node1&#45;&gt;Node2 -->
<g id="edge13_Node000001_Node000002" class="edge">
<title>Node1&#45;&gt;Node2</title>
<g id="a_edge13_Node000001_Node000002"><a xlink:title=" ">
<path fill="none" stroke="#63b8ff" d="M519.2,-58.93C510.97,-60.22 502.57,-61.54 494.32,-62.83"/>
<polygon fill="#63b8ff" stroke="#63b8ff" points="519.57,-62.26 528.9,-57.25 518.48,-55.34 519.57,-62.26"/>
</a>
</g>
</g>
<!-- Node6 -->
<g id="Node000006" class="node">
<title>Node6</title>
<g id="a_Node000006"><a xlink:href="$classhello__world_1_1algorithms_1_1controller_1_1pid_1_1_multi_nodes_pid.html#a5edb64efe535b8e5b8b1e30a91f28fe0" xlink:title="重置 PID 控制器">
<polygon fill="white" stroke="#666666" points="487,-41 351,-41 351,0 487,0 487,-41"/>
<text text-anchor="start" x="359" y="-29" font-family="Helvetica,sans-Serif" font-size="10.00">hello_world::algorithms</text>
<text text-anchor="start" x="359" y="-18" font-family="Helvetica,sans-Serif" font-size="10.00">::controller::pid::MultiNodes</text>
<text text-anchor="middle" x="419" y="-7" font-family="Helvetica,sans-Serif" font-size="10.00">Pid::reset</text>
</a>
</g>
</g>
<!-- Node1&#45;&gt;Node6 -->
<g id="edge18_Node000001_Node000006" class="edge">
<title>Node1&#45;&gt;Node6</title>
<g id="a_edge18_Node000001_Node000006"><a xlink:title=" ">
<path fill="none" stroke="#63b8ff" d="M519.37,-36.1C508.71,-34.43 497.78,-32.71 487.24,-31.05"/>
<polygon fill="#63b8ff" stroke="#63b8ff" points="518.48,-39.66 528.9,-37.75 519.57,-32.74 518.48,-39.66"/>
</a>
</g>
</g>
<!-- Node3 -->
<g id="Node000003" class="node">
<title>Node3</title>
<g id="a_Node000003"><a xlink:href="$classhello__world_1_1algorithms_1_1controller_1_1pid_1_1_multi_nodes_pid.html#accc1fd43233ab6d228f7111eab364c51" xlink:title="计算级联 PID 控制器的输出">
<polygon fill="white" stroke="#666666" points="308,-125 172,-125 172,-84 308,-84 308,-125"/>
<text text-anchor="start" x="180" y="-113" font-family="Helvetica,sans-Serif" font-size="10.00">hello_world::algorithms</text>
<text text-anchor="start" x="180" y="-102" font-family="Helvetica,sans-Serif" font-size="10.00">::controller::pid::MultiNodes</text>
<text text-anchor="middle" x="240" y="-91" font-family="Helvetica,sans-Serif" font-size="10.00">Pid::cascade_calc</text>
</a>
</g>
</g>
<!-- Node2&#45;&gt;Node3 -->
<g id="edge14_Node000002_Node000003" class="edge">
<title>Node2&#45;&gt;Node3</title>
<g id="a_edge14_Node000002_Node000003"><a xlink:title=" ">
<path fill="none" stroke="#63b8ff" d="M332.91,-88.92C324.66,-90.32 316.38,-91.72 308.34,-93.09"/>
<polygon fill="#63b8ff" stroke="#63b8ff" points="333.43,-92.21 342.71,-87.09 332.26,-85.31 333.43,-92.21"/>
</a>
</g>
</g>
<!-- Node5 -->
<g id="Node000005" class="node">
<title>Node5</title>
<g id="a_Node000005"><a xlink:href="$classhello__world_1_1algorithms_1_1controller_1_1pid_1_1_multi_nodes_pid.html#a180ce707d30cae5f45ec5820d1b2c50c" xlink:title="计算并行 PID 控制器的输出">
<polygon fill="white" stroke="#666666" points="308,-66 172,-66 172,-25 308,-25 308,-66"/>
<text text-anchor="start" x="180" y="-54" font-family="Helvetica,sans-Serif" font-size="10.00">hello_world::algorithms</text>
<text text-anchor="start" x="180" y="-43" font-family="Helvetica,sans-Serif" font-size="10.00">::controller::pid::MultiNodes</text>
<text text-anchor="middle" x="240" y="-32" font-family="Helvetica,sans-Serif" font-size="10.00">Pid::parallel_calc</text>
</a>
</g>
</g>
<!-- Node2&#45;&gt;Node5 -->
<g id="edge16_Node000002_Node000005" class="edge">
<title>Node2&#45;&gt;Node5</title>
<g id="a_edge16_Node000002_Node000005"><a xlink:title=" ">
<path fill="none" stroke="#63b8ff" d="M332.91,-60.56C324.66,-59.21 316.38,-57.85 308.34,-56.53"/>
<polygon fill="#63b8ff" stroke="#63b8ff" points="332.27,-64.16 342.71,-62.33 333.4,-57.26 332.27,-64.16"/>
</a>
</g>
</g>
<!-- Node4 -->
<g id="Node000004" class="node">
<title>Node4</title>
<g id="a_Node000004"><a xlink:href="$classhello__world_1_1algorithms_1_1controller_1_1pid_1_1_multi_nodes_pid.html#ae10478e0d731be3f6e6d0c479964d448" xlink:title="计算 PID 控制器的输出">
<polygon fill="white" stroke="#666666" points="136,-95 0,-95 0,-54 136,-54 136,-95"/>
<text text-anchor="start" x="8" y="-83" font-family="Helvetica,sans-Serif" font-size="10.00">hello_world::algorithms</text>
<text text-anchor="start" x="8" y="-72" font-family="Helvetica,sans-Serif" font-size="10.00">::controller::pid::MultiNodes</text>
<text text-anchor="middle" x="68" y="-61" font-family="Helvetica,sans-Serif" font-size="10.00">Pid::calc</text>
</a>
</g>
</g>
<!-- Node3&#45;&gt;Node4 -->
<g id="edge15_Node000003_Node000004" class="edge">
<title>Node3&#45;&gt;Node4</title>
<g id="a_edge15_Node000003_Node000004"><a xlink:title=" ">
<path fill="none" stroke="#63b8ff" d="M161.02,-90.74C152.75,-89.28 144.39,-87.8 136.26,-86.37"/>
<polygon fill="#63b8ff" stroke="#63b8ff" points="160.36,-94.35 170.81,-92.64 161.57,-87.46 160.36,-94.35"/>
</a>
</g>
</g>
<!-- Node5&#45;&gt;Node4 -->
<g id="edge17_Node000005_Node000004" class="edge">
<title>Node5&#45;&gt;Node4</title>
<g id="a_edge17_Node000005_Node000004"><a xlink:title=" ">
<path fill="none" stroke="#63b8ff" d="M161.02,-58.8C152.75,-60.21 144.39,-61.64 136.26,-63.03"/>
<polygon fill="#63b8ff" stroke="#63b8ff" points="161.54,-62.09 170.81,-56.96 160.37,-55.19 161.54,-62.09"/>
</a>
</g>
</g>
</g>
</svg>
