<?xml version="1.0" encoding="UTF-8" standalone="no"?>
<!DOCTYPE svg PUBLIC "-//W3C//DTD SVG 1.1//EN"
 "http://www.w3.org/Graphics/SVG/1.1/DTD/svg11.dtd">
<!-- Generated by graphviz version 8.0.3 (20230416.2022)
 -->
<!-- Title: hello_world::devices::servo::Servo::Servo Pages: 1 -->
<svg width="413pt" height="38pt"
 viewBox="0.00 0.00 413.00 38.00" xmlns="http://www.w3.org/2000/svg" xmlns:xlink="http://www.w3.org/1999/xlink">
<g id="graph0" class="graph" transform="scale(1 1) rotate(0) translate(4 34)">
<title>hello_world::devices::servo::Servo::Servo</title>
<!-- Node1 -->
<g id="Node000001" class="node">
<title>Node1</title>
<g id="a_Node000001"><a xlink:title="舵机初始化">
<polygon fill="#999999" stroke="#666666" points="105,-30 0,-30 0,0 105,0 105,-30"/>
<text text-anchor="start" x="8" y="-18" font-family="Helvetica,sans-Serif" font-size="10.00">hello_world::devices</text>
<text text-anchor="middle" x="52.5" y="-7" font-family="Helvetica,sans-Serif" font-size="10.00">::servo::Servo::Servo</text>
</a>
</g>
</g>
<!-- Node2 -->
<g id="Node000002" class="node">
<title>Node2</title>
<g id="a_Node000002"><a xlink:href="$classhello__world_1_1devices_1_1servo_1_1_servo.html#af678b6d9c70e3be611755ac1ae233aa5" xlink:title="舵机角度转定时器PWM比较值">
<polygon fill="white" stroke="#666666" points="271,-30 141,-30 141,0 271,0 271,-30"/>
<text text-anchor="start" x="149" y="-18" font-family="Helvetica,sans-Serif" font-size="10.00">hello_world::devices</text>
<text text-anchor="middle" x="206" y="-7" font-family="Helvetica,sans-Serif" font-size="10.00">::servo::Servo::angle2Cmp</text>
</a>
</g>
</g>
<!-- Node1&#45;&gt;Node2 -->
<g id="edge5_Node000001_Node000002" class="edge">
<title>Node1&#45;&gt;Node2</title>
<g id="a_edge5_Node000001_Node000002"><a xlink:title=" ">
<path fill="none" stroke="#63b8ff" d="M105.21,-15C113.14,-15 121.46,-15 129.77,-15"/>
<polygon fill="#63b8ff" stroke="#63b8ff" points="129.66,-18.5 139.66,-15 129.66,-11.5 129.66,-18.5"/>
</a>
</g>
</g>
<!-- Node3 -->
<g id="Node000003" class="node">
<title>Node3</title>
<g id="a_Node000003"><a xlink:href="$namespacehello__world.html#a34cb06299a34f746d556d23dc16904aa" xlink:title="将输入值限制在一个范围内">
<polygon fill="white" stroke="#666666" points="405,-24.5 307,-24.5 307,-5.5 405,-5.5 405,-24.5"/>
<text text-anchor="middle" x="356" y="-12.5" font-family="Helvetica,sans-Serif" font-size="10.00">hello_world::Bound</text>
</a>
</g>
</g>
<!-- Node2&#45;&gt;Node3 -->
<g id="edge6_Node000002_Node000003" class="edge">
<title>Node2&#45;&gt;Node3</title>
<g id="a_edge6_Node000002_Node000003"><a xlink:title=" ">
<path fill="none" stroke="#63b8ff" d="M271.48,-15C279.62,-15 287.92,-15 295.97,-15"/>
<polygon fill="#63b8ff" stroke="#63b8ff" points="295.76,-18.5 305.76,-15 295.76,-11.5 295.76,-18.5"/>
</a>
</g>
</g>
</g>
</svg>
