<?xml version="1.0" encoding="UTF-8" standalone="no"?>
<!DOCTYPE svg PUBLIC "-//W3C//DTD SVG 1.1//EN"
 "http://www.w3.org/Graphics/SVG/1.1/DTD/svg11.dtd">
<!-- Generated by graphviz version 8.0.3 (20230416.2022)
 -->
<!-- Title: hello_world::devices::referee::Referee::decodeFrame Pages: 1 -->
<svg width="727pt" height="205pt"
 viewBox="0.00 0.00 727.00 204.50" xmlns="http://www.w3.org/2000/svg" xmlns:xlink="http://www.w3.org/1999/xlink">
<g id="graph0" class="graph" transform="scale(1 1) rotate(0) translate(4 200.5)">
<title>hello_world::devices::referee::Referee::decodeFrame</title>
<!-- Node1 -->
<g id="Node000001" class="node">
<title>Node1</title>
<g id="a_Node000001"><a xlink:title=" ">
<polygon fill="#999999" stroke="#666666" points="156,-105 0,-105 0,-75 156,-75 156,-105"/>
<text text-anchor="start" x="8" y="-93" font-family="Helvetica,sans-Serif" font-size="10.00">hello_world::devices</text>
<text text-anchor="middle" x="78" y="-82" font-family="Helvetica,sans-Serif" font-size="10.00">::referee::Referee::decodeFrame</text>
</a>
</g>
</g>
<!-- Node2 -->
<g id="Node000002" class="node">
<title>Node2</title>
<g id="a_Node000002"><a xlink:href="$classhello__world_1_1devices_1_1referee_1_1_referee.html#a823f73d223421b7d025005e99ff08291" xlink:title=" ">
<polygon fill="white" stroke="#666666" points="344,-105 192,-105 192,-75 344,-75 344,-105"/>
<text text-anchor="start" x="200" y="-93" font-family="Helvetica,sans-Serif" font-size="10.00">hello_world::devices</text>
<text text-anchor="middle" x="268" y="-82" font-family="Helvetica,sans-Serif" font-size="10.00">::referee::Referee::processByte</text>
</a>
</g>
</g>
<!-- Node1&#45;&gt;Node2 -->
<g id="edge17_Node000001_Node000002" class="edge">
<title>Node1&#45;&gt;Node2</title>
<g id="a_edge17_Node000001_Node000002"><a xlink:title=" ">
<path fill="none" stroke="#63b8ff" d="M156.28,-90C164.29,-90 172.46,-90 180.56,-90"/>
<polygon fill="#63b8ff" stroke="#63b8ff" points="180.54,-93.5 190.54,-90 180.54,-86.5 180.54,-93.5"/>
</a>
</g>
</g>
<!-- Node3 -->
<g id="Node000003" class="node">
<title>Node3</title>
<g id="a_Node000003"><a xlink:href="$classhello__world_1_1devices_1_1referee_1_1_referee.html#af9388d8910762162a0d23d0ba44df19a" xlink:title=" ">
<polygon fill="white" stroke="#666666" points="528,-196.5 388,-196.5 388,-155.5 528,-155.5 528,-196.5"/>
<text text-anchor="start" x="396" y="-184.5" font-family="Helvetica,sans-Serif" font-size="10.00">hello_world::devices</text>
<text text-anchor="start" x="396" y="-173.5" font-family="Helvetica,sans-Serif" font-size="10.00">::referee::Referee::decodeRx</text>
<text text-anchor="middle" x="458" y="-162.5" font-family="Helvetica,sans-Serif" font-size="10.00">Package</text>
</a>
</g>
</g>
<!-- Node2&#45;&gt;Node3 -->
<g id="edge18_Node000002_Node000003" class="edge">
<title>Node2&#45;&gt;Node3</title>
<g id="a_edge18_Node000002_Node000003"><a xlink:title=" ">
<path fill="none" stroke="#63b8ff" d="M296.85,-105.43C319.05,-117.44 351.09,-134.18 380,-147 382.97,-148.32 386.03,-149.63 389.12,-150.93"/>
<polygon fill="#63b8ff" stroke="#63b8ff" points="387.53,-154.47 398.11,-155.01 390.18,-147.99 387.53,-154.47"/>
</a>
</g>
</g>
<!-- Node5 -->
<g id="Node000005" class="node">
<title>Node5</title>
<g id="a_Node000005"><a xlink:href="$classhello__world_1_1devices_1_1referee_1_1_referee.html#a7531c733933a65549c9d019e87ee9d0b" xlink:title=" ">
<polygon fill="white" stroke="#666666" points="520.5,-137.5 395.5,-137.5 395.5,-96.5 520.5,-96.5 520.5,-137.5"/>
<text text-anchor="start" x="403.5" y="-125.5" font-family="Helvetica,sans-Serif" font-size="10.00">hello_world::devices</text>
<text text-anchor="start" x="403.5" y="-114.5" font-family="Helvetica,sans-Serif" font-size="10.00">::referee::Referee::restart</text>
<text text-anchor="middle" x="458" y="-103.5" font-family="Helvetica,sans-Serif" font-size="10.00">DecodeFrame</text>
</a>
</g>
</g>
<!-- Node2&#45;&gt;Node5 -->
<g id="edge20_Node000002_Node000005" class="edge">
<title>Node2&#45;&gt;Node5</title>
<g id="a_edge20_Node000002_Node000005"><a xlink:title=" ">
<path fill="none" stroke="#63b8ff" d="M344.38,-100.83C357.55,-102.72 371.23,-104.68 384.32,-106.56"/>
<polygon fill="#63b8ff" stroke="#63b8ff" points="383.76,-110.16 394.16,-108.12 384.76,-103.23 383.76,-110.16"/>
</a>
</g>
</g>
<!-- Node6 -->
<g id="Node000006" class="node">
<title>Node6</title>
<g id="a_Node000006"><a xlink:href="$namespacehello__world_1_1devices_1_1referee.html#aa177d9a48e848cf495e1119b8449a1f7" xlink:title="Verifies the CRC16 checksum of a message.">
<polygon fill="white" stroke="#666666" points="536,-78 380,-78 380,-48 536,-48 536,-78"/>
<text text-anchor="start" x="388" y="-66" font-family="Helvetica,sans-Serif" font-size="10.00">hello_world::devices</text>
<text text-anchor="middle" x="458" y="-55" font-family="Helvetica,sans-Serif" font-size="10.00">::referee::VerifyCrc16CheckSum</text>
</a>
</g>
</g>
<!-- Node2&#45;&gt;Node6 -->
<g id="edge21_Node000002_Node000006" class="edge">
<title>Node2&#45;&gt;Node6</title>
<g id="a_edge21_Node000002_Node000006"><a xlink:title=" ">
<path fill="none" stroke="#63b8ff" d="M344.38,-79.17C352.48,-78.01 360.77,-76.82 369,-75.64"/>
<polygon fill="#63b8ff" stroke="#63b8ff" points="369.36,-78.98 378.76,-74.09 368.36,-72.05 369.36,-78.98"/>
</a>
</g>
</g>
<!-- Node8 -->
<g id="Node000008" class="node">
<title>Node8</title>
<g id="a_Node000008"><a xlink:href="$namespacehello__world_1_1devices_1_1referee.html#a5ac9b8968addb626ab283eaf7b80bd6c" xlink:title="Verifies the CRC8 checksum of a message.">
<polygon fill="white" stroke="#666666" points="533.5,-30 382.5,-30 382.5,0 533.5,0 533.5,-30"/>
<text text-anchor="start" x="390.5" y="-18" font-family="Helvetica,sans-Serif" font-size="10.00">hello_world::devices</text>
<text text-anchor="middle" x="458" y="-7" font-family="Helvetica,sans-Serif" font-size="10.00">::referee::VerifyCrc8CheckSum</text>
</a>
</g>
</g>
<!-- Node2&#45;&gt;Node8 -->
<g id="edge23_Node000002_Node000008" class="edge">
<title>Node2&#45;&gt;Node8</title>
<g id="a_edge23_Node000002_Node000008"><a xlink:title=" ">
<path fill="none" stroke="#63b8ff" d="M299.64,-74.63C321.68,-63.89 352.28,-49.64 380,-39 384.66,-37.21 389.51,-35.46 394.41,-33.76"/>
<polygon fill="#63b8ff" stroke="#63b8ff" points="395.14,-36.87 403.5,-30.37 392.91,-30.24 395.14,-36.87"/>
</a>
</g>
</g>
<!-- Node4 -->
<g id="Node000004" class="node">
<title>Node4</title>
<g id="a_Node000004"><a xlink:href="$classhello__world_1_1devices_1_1referee_1_1_rx_package_info.html#acb3daf6092bba76a10fa7cc2d580a429" xlink:title=" ">
<polygon fill="white" stroke="#666666" points="707,-196.5 584,-196.5 584,-155.5 707,-155.5 707,-196.5"/>
<text text-anchor="start" x="592" y="-184.5" font-family="Helvetica,sans-Serif" font-size="10.00">hello_world::devices</text>
<text text-anchor="start" x="592" y="-173.5" font-family="Helvetica,sans-Serif" font-size="10.00">::referee::RxPackageInfo</text>
<text text-anchor="middle" x="645.5" y="-162.5" font-family="Helvetica,sans-Serif" font-size="10.00">::decode</text>
</a>
</g>
</g>
<!-- Node3&#45;&gt;Node4 -->
<g id="edge19_Node000003_Node000004" class="edge">
<title>Node3&#45;&gt;Node4</title>
<g id="a_edge19_Node000003_Node000004"><a xlink:title=" ">
<path fill="none" stroke="#63b8ff" d="M528.34,-176C542.85,-176 558.19,-176 572.78,-176"/>
<polygon fill="#63b8ff" stroke="#63b8ff" points="572.78,-179.5 582.78,-176 572.78,-172.5 572.78,-179.5"/>
</a>
</g>
</g>
<!-- Node7 -->
<g id="Node000007" class="node">
<title>Node7</title>
<g id="a_Node000007"><a xlink:href="$namespacehello__world_1_1devices_1_1referee.html#a30f1e50d6e85c306486883a0668b7f50" xlink:title="Calculate and return the CRC16 checksum of a message.">
<polygon fill="white" stroke="#666666" points="719,-78 572,-78 572,-48 719,-48 719,-78"/>
<text text-anchor="start" x="580" y="-66" font-family="Helvetica,sans-Serif" font-size="10.00">hello_world::devices</text>
<text text-anchor="middle" x="645.5" y="-55" font-family="Helvetica,sans-Serif" font-size="10.00">::referee::GetCrc16CheckSum</text>
</a>
</g>
</g>
<!-- Node6&#45;&gt;Node7 -->
<g id="edge22_Node000006_Node000007" class="edge">
<title>Node6&#45;&gt;Node7</title>
<g id="a_edge22_Node000006_Node000007"><a xlink:title=" ">
<path fill="none" stroke="#63b8ff" d="M536.33,-63C544.48,-63 552.8,-63 561.02,-63"/>
<polygon fill="#63b8ff" stroke="#63b8ff" points="560.75,-66.5 570.75,-63 560.75,-59.5 560.75,-66.5"/>
</a>
</g>
</g>
<!-- Node9 -->
<g id="Node000009" class="node">
<title>Node9</title>
<g id="a_Node000009"><a xlink:href="$namespacehello__world_1_1devices_1_1referee.html#a42050a73d989fc581253585524abbf57" xlink:title="Calculate and return the CRC8 checksum of a message.">
<polygon fill="white" stroke="#666666" points="716.5,-30 574.5,-30 574.5,0 716.5,0 716.5,-30"/>
<text text-anchor="start" x="582.5" y="-18" font-family="Helvetica,sans-Serif" font-size="10.00">hello_world::devices</text>
<text text-anchor="middle" x="645.5" y="-7" font-family="Helvetica,sans-Serif" font-size="10.00">::referee::GetCrc8CheckSum</text>
</a>
</g>
</g>
<!-- Node8&#45;&gt;Node9 -->
<g id="edge24_Node000008_Node000009" class="edge">
<title>Node8&#45;&gt;Node9</title>
<g id="a_edge24_Node000008_Node000009"><a xlink:title=" ">
<path fill="none" stroke="#63b8ff" d="M533.92,-15C543.56,-15 553.47,-15 563.21,-15"/>
<polygon fill="#63b8ff" stroke="#63b8ff" points="563.11,-18.5 573.11,-15 563.11,-11.5 563.11,-18.5"/>
</a>
</g>
</g>
</g>
</svg>
