<?xml version="1.0" encoding="UTF-8" standalone="no"?>
<!DOCTYPE svg PUBLIC "-//W3C//DTD SVG 1.1//EN"
 "http://www.w3.org/Graphics/SVG/1.1/DTD/svg11.dtd">
<!-- Generated by graphviz version 8.0.3 (20230416.2022)
 -->
<!-- Title: hello_world::devices::buzzer::Buzzer Pages: 1 -->
<svg width="252pt" height="115pt"
 viewBox="0.00 0.00 252.00 115.00" xmlns="http://www.w3.org/2000/svg" xmlns:xlink="http://www.w3.org/1999/xlink">
<g id="graph0" class="graph" transform="scale(1 1) rotate(0) translate(4 111)">
<title>hello_world::devices::buzzer::Buzzer</title>
<!-- Node1 -->
<g id="Node000001" class="node">
<title>Node1</title>
<g id="a_Node000001"><a xlink:title=" ">
<polygon fill="#999999" stroke="#666666" points="174.5,-30 71.5,-30 71.5,0 174.5,0 174.5,-30"/>
<text text-anchor="start" x="79.5" y="-18" font-family="Helvetica,sans-Serif" font-size="10.00">hello_world::devices</text>
<text text-anchor="middle" x="123" y="-7" font-family="Helvetica,sans-Serif" font-size="10.00">::buzzer::Buzzer</text>
</a>
</g>
</g>
<!-- Node2 -->
<g id="Node000002" class="node">
<title>Node2</title>
<g id="a_Node000002"><a xlink:href="$classhello__world_1_1_mem_mang.html" xlink:title=" ">
<polygon fill="white" stroke="#666666" points="116,-101.5 0,-101.5 0,-82.5 116,-82.5 116,-101.5"/>
<text text-anchor="middle" x="58" y="-89.5" font-family="Helvetica,sans-Serif" font-size="10.00">hello_world::MemMang</text>
</a>
</g>
</g>
<!-- Node2&#45;&gt;Node1 -->
<g id="edge5_Node000001_Node000002" class="edge">
<title>Node2&#45;&gt;Node1</title>
<g id="a_edge5_Node000001_Node000002"><a xlink:title=" ">
<path fill="none" stroke="#63b8ff" d="M72.84,-73.87C84.27,-60.69 99.88,-42.67 110.64,-30.27"/>
<polygon fill="#63b8ff" stroke="#63b8ff" points="69.62,-71.25 65.71,-81.1 74.91,-75.84 69.62,-71.25"/>
</a>
</g>
</g>
<!-- Node3 -->
<g id="Node000003" class="node">
<title>Node3</title>
<g id="a_Node000003"><a xlink:href="$structhello__world_1_1devices_1_1buzzer_1_1_tune_list_info.html" xlink:title=" ">
<polygon fill="white" stroke="#666666" points="244,-107 134,-107 134,-77 244,-77 244,-107"/>
<text text-anchor="start" x="142" y="-95" font-family="Helvetica,sans-Serif" font-size="10.00">hello_world::devices</text>
<text text-anchor="middle" x="189" y="-84" font-family="Helvetica,sans-Serif" font-size="10.00">::buzzer::TuneListInfo</text>
</a>
</g>
</g>
<!-- Node3&#45;&gt;Node1 -->
<g id="edge6_Node000001_Node000003" class="edge">
<title>Node3&#45;&gt;Node1</title>
<g id="a_edge6_Node000001_Node000003"><a xlink:title=" ">
<path fill="none" stroke="#9a32cd" stroke-dasharray="5,2" d="M169.19,-68.49C158.32,-56.14 145.17,-41.2 135.69,-30.42"/>
<polygon fill="#9a32cd" stroke="#9a32cd" points="167.04,-70.34 176.27,-75.54 172.3,-65.72 167.04,-70.34"/>
</a>
</g>
<text text-anchor="middle" x="198.5" y="-51" font-family="Helvetica,sans-Serif" font-size="10.00" fill="grey"> kTuneListInfoPtr_</text>
</g>
</g>
</svg>
