<?xml version="1.0" encoding="UTF-8" standalone="no"?>
<!DOCTYPE svg PUBLIC "-//W3C//DTD SVG 1.1//EN"
 "http://www.w3.org/Graphics/SVG/1.1/DTD/svg11.dtd">
<!-- Generated by graphviz version 8.0.3 (20230416.2022)
 -->
<!-- Title: hello_world::algorithms::controller::pid::PidList::size Pages: 1 -->
<svg width="493pt" height="344pt"
 viewBox="0.00 0.00 493.00 344.00" xmlns="http://www.w3.org/2000/svg" xmlns:xlink="http://www.w3.org/1999/xlink">
<g id="graph0" class="graph" transform="scale(1 1) rotate(0) translate(4 340)">
<title>hello_world::algorithms::controller::pid::PidList::size</title>
<!-- Node1 -->
<g id="Node000001" class="node">
<title>Node1</title>
<g id="a_Node000001"><a xlink:title="获取链表的大小">
<polygon fill="#999999" stroke="#666666" points="485,-182.5 344,-182.5 344,-152.5 485,-152.5 485,-182.5"/>
<text text-anchor="start" x="352" y="-170.5" font-family="Helvetica,sans-Serif" font-size="10.00">hello_world::algorithms</text>
<text text-anchor="middle" x="414.5" y="-159.5" font-family="Helvetica,sans-Serif" font-size="10.00">::controller::pid::PidList::size</text>
</a>
</g>
</g>
<!-- Node2 -->
<g id="Node000002" class="node">
<title>Node2</title>
<g id="a_Node000002"><a xlink:href="$classhello__world_1_1algorithms_1_1controller_1_1pid_1_1_multi_nodes_pid.html#accc1fd43233ab6d228f7111eab364c51" xlink:title="计算级联 PID 控制器的输出">
<polygon fill="white" stroke="#666666" points="308,-336 172,-336 172,-295 308,-295 308,-336"/>
<text text-anchor="start" x="180" y="-324" font-family="Helvetica,sans-Serif" font-size="10.00">hello_world::algorithms</text>
<text text-anchor="start" x="180" y="-313" font-family="Helvetica,sans-Serif" font-size="10.00">::controller::pid::MultiNodes</text>
<text text-anchor="middle" x="240" y="-302" font-family="Helvetica,sans-Serif" font-size="10.00">Pid::cascade_calc</text>
</a>
</g>
</g>
<!-- Node1&#45;&gt;Node2 -->
<g id="edge17_Node000001_Node000002" class="edge">
<title>Node1&#45;&gt;Node2</title>
<g id="a_edge17_Node000001_Node000002"><a xlink:title=" ">
<path fill="none" stroke="#63b8ff" d="M396.89,-191.9C377.96,-218.18 344.84,-259.81 308,-286.5 304,-289.4 299.66,-292.09 295.18,-294.57"/>
<polygon fill="#63b8ff" stroke="#63b8ff" points="400.29,-194.15 403.2,-183.97 394.57,-190.11 400.29,-194.15"/>
</a>
</g>
</g>
<!-- Node4 -->
<g id="Node000004" class="node">
<title>Node4</title>
<g id="a_Node000004"><a xlink:href="$classhello__world_1_1algorithms_1_1controller_1_1pid_1_1_multi_nodes_pid.html#a8e4bfd26c1bb829f58d3fb14e80c4c0b" xlink:title="构造函数，初始化 MultiNodesPid 对象，至少会存在一个 PID 控制器节点，推荐和 paramsAt 函数一起使用">
<polygon fill="white" stroke="#666666" points="308,-277 172,-277 172,-236 308,-236 308,-277"/>
<text text-anchor="start" x="180" y="-265" font-family="Helvetica,sans-Serif" font-size="10.00">hello_world::algorithms</text>
<text text-anchor="start" x="180" y="-254" font-family="Helvetica,sans-Serif" font-size="10.00">::controller::pid::MultiNodes</text>
<text text-anchor="middle" x="240" y="-243" font-family="Helvetica,sans-Serif" font-size="10.00">Pid::MultiNodesPid</text>
</a>
</g>
</g>
<!-- Node1&#45;&gt;Node4 -->
<g id="edge19_Node000001_Node000004" class="edge">
<title>Node1&#45;&gt;Node4</title>
<g id="a_edge19_Node000001_Node000004"><a xlink:title=" ">
<path fill="none" stroke="#63b8ff" d="M379.15,-188.29C358.77,-200.31 332.25,-215.4 308,-227.5 302.56,-230.22 296.8,-232.93 291.04,-235.56"/>
<polygon fill="#63b8ff" stroke="#63b8ff" points="380.53,-190.95 387.34,-182.84 376.95,-184.93 380.53,-190.95"/>
</a>
</g>
</g>
<!-- Node5 -->
<g id="Node000005" class="node">
<title>Node5</title>
<g id="a_Node000005"><a xlink:href="$classhello__world_1_1algorithms_1_1controller_1_1pid_1_1_multi_nodes_pid.html#a9a3282e6e51a5b7689717079f0d25abe" xlink:title="构造函数，初始化 MultiNodesPid 对象，至少会存在一个 PID 控制器节点">
<polygon fill="white" stroke="#666666" points="308,-218 172,-218 172,-177 308,-177 308,-218"/>
<text text-anchor="start" x="180" y="-206" font-family="Helvetica,sans-Serif" font-size="10.00">hello_world::algorithms</text>
<text text-anchor="start" x="180" y="-195" font-family="Helvetica,sans-Serif" font-size="10.00">::controller::pid::MultiNodes</text>
<text text-anchor="middle" x="240" y="-184" font-family="Helvetica,sans-Serif" font-size="10.00">Pid::MultiNodesPid</text>
</a>
</g>
</g>
<!-- Node1&#45;&gt;Node5 -->
<g id="edge20_Node000001_Node000005" class="edge">
<title>Node1&#45;&gt;Node5</title>
<g id="a_edge20_Node000001_Node000005"><a xlink:title=" ">
<path fill="none" stroke="#63b8ff" d="M333.06,-181.49C324.81,-182.92 316.49,-184.37 308.41,-185.78"/>
<polygon fill="#63b8ff" stroke="#63b8ff" points="333.58,-184.78 342.83,-179.62 332.38,-177.88 333.58,-184.78"/>
</a>
</g>
</g>
<!-- Node6 -->
<g id="Node000006" class="node">
<title>Node6</title>
<g id="a_Node000006"><a xlink:href="$classhello__world_1_1algorithms_1_1controller_1_1pid_1_1_multi_nodes_pid.html#a180ce707d30cae5f45ec5820d1b2c50c" xlink:title="计算并行 PID 控制器的输出">
<polygon fill="white" stroke="#666666" points="308,-159 172,-159 172,-118 308,-118 308,-159"/>
<text text-anchor="start" x="180" y="-147" font-family="Helvetica,sans-Serif" font-size="10.00">hello_world::algorithms</text>
<text text-anchor="start" x="180" y="-136" font-family="Helvetica,sans-Serif" font-size="10.00">::controller::pid::MultiNodes</text>
<text text-anchor="middle" x="240" y="-125" font-family="Helvetica,sans-Serif" font-size="10.00">Pid::parallel_calc</text>
</a>
</g>
</g>
<!-- Node1&#45;&gt;Node6 -->
<g id="edge21_Node000001_Node000006" class="edge">
<title>Node1&#45;&gt;Node6</title>
<g id="a_edge21_Node000001_Node000006"><a xlink:title=" ">
<path fill="none" stroke="#63b8ff" d="M333.06,-153.98C324.81,-152.59 316.49,-151.19 308.41,-149.83"/>
<polygon fill="#63b8ff" stroke="#63b8ff" points="332.39,-157.58 342.83,-155.79 333.55,-150.68 332.39,-157.58"/>
</a>
</g>
</g>
<!-- Node7 -->
<g id="Node000007" class="node">
<title>Node7</title>
<g id="a_Node000007"><a xlink:href="$classhello__world_1_1algorithms_1_1controller_1_1pid_1_1_multi_nodes_pid.html#a5edb64efe535b8e5b8b1e30a91f28fe0" xlink:title="重置 PID 控制器">
<polygon fill="white" stroke="#666666" points="308,-100 172,-100 172,-59 308,-59 308,-100"/>
<text text-anchor="start" x="180" y="-88" font-family="Helvetica,sans-Serif" font-size="10.00">hello_world::algorithms</text>
<text text-anchor="start" x="180" y="-77" font-family="Helvetica,sans-Serif" font-size="10.00">::controller::pid::MultiNodes</text>
<text text-anchor="middle" x="240" y="-66" font-family="Helvetica,sans-Serif" font-size="10.00">Pid::reset</text>
</a>
</g>
</g>
<!-- Node1&#45;&gt;Node7 -->
<g id="edge23_Node000001_Node000007" class="edge">
<title>Node1&#45;&gt;Node7</title>
<g id="a_edge23_Node000001_Node000007"><a xlink:title=" ">
<path fill="none" stroke="#63b8ff" d="M377.5,-146.75C357.28,-135.35 331.48,-121.19 308,-109.5 301.95,-106.49 295.54,-103.44 289.17,-100.5"/>
<polygon fill="#63b8ff" stroke="#63b8ff" points="375.51,-150.22 385.94,-152.11 378.96,-144.13 375.51,-150.22"/>
</a>
</g>
</g>
<!-- Node8 -->
<g id="Node000008" class="node">
<title>Node8</title>
<g id="a_Node000008"><a xlink:href="$classhello__world_1_1algorithms_1_1controller_1_1pid_1_1_multi_nodes_pid.html#a02e66f815cbf9b95e4d390a456098850" xlink:title="获取 PID 控制器的数量">
<polygon fill="white" stroke="#666666" points="308,-41 172,-41 172,0 308,0 308,-41"/>
<text text-anchor="start" x="180" y="-29" font-family="Helvetica,sans-Serif" font-size="10.00">hello_world::algorithms</text>
<text text-anchor="start" x="180" y="-18" font-family="Helvetica,sans-Serif" font-size="10.00">::controller::pid::MultiNodes</text>
<text text-anchor="middle" x="240" y="-7" font-family="Helvetica,sans-Serif" font-size="10.00">Pid::size</text>
</a>
</g>
</g>
<!-- Node1&#45;&gt;Node8 -->
<g id="edge24_Node000001_Node000008" class="edge">
<title>Node1&#45;&gt;Node8</title>
<g id="a_edge24_Node000001_Node000008"><a xlink:title=" ">
<path fill="none" stroke="#63b8ff" d="M396.74,-143.61C377.68,-117.86 344.44,-77.01 308,-50.5 303.47,-47.2 298.51,-44.15 293.41,-41.36"/>
<polygon fill="#63b8ff" stroke="#63b8ff" points="394.39,-145.33 403.1,-151.36 400.05,-141.22 394.39,-145.33"/>
</a>
</g>
</g>
<!-- Node3 -->
<g id="Node000003" class="node">
<title>Node3</title>
<g id="a_Node000003"><a xlink:href="$classhello__world_1_1algorithms_1_1controller_1_1pid_1_1_multi_nodes_pid.html#ae10478e0d731be3f6e6d0c479964d448" xlink:title="计算 PID 控制器的输出">
<polygon fill="white" stroke="#666666" points="136,-247 0,-247 0,-206 136,-206 136,-247"/>
<text text-anchor="start" x="8" y="-235" font-family="Helvetica,sans-Serif" font-size="10.00">hello_world::algorithms</text>
<text text-anchor="start" x="8" y="-224" font-family="Helvetica,sans-Serif" font-size="10.00">::controller::pid::MultiNodes</text>
<text text-anchor="middle" x="68" y="-213" font-family="Helvetica,sans-Serif" font-size="10.00">Pid::calc</text>
</a>
</g>
</g>
<!-- Node2&#45;&gt;Node3 -->
<g id="edge18_Node000002_Node000003" class="edge">
<title>Node2&#45;&gt;Node3</title>
<g id="a_edge18_Node000002_Node000003"><a xlink:title=" ">
<path fill="none" stroke="#63b8ff" d="M179.02,-289.96C176.64,-288.81 174.29,-287.66 172,-286.5 148.17,-274.46 122.21,-259.32 102.31,-247.26"/>
<polygon fill="#63b8ff" stroke="#63b8ff" points="177.4,-293.53 187.94,-294.61 180.37,-287.2 177.4,-293.53"/>
</a>
</g>
</g>
<!-- Node6&#45;&gt;Node3 -->
<g id="edge22_Node000006_Node000003" class="edge">
<title>Node6&#45;&gt;Node3</title>
<g id="a_edge22_Node000006_Node000003"><a xlink:title=" ">
<path fill="none" stroke="#63b8ff" d="M180.98,-164.08C177.93,-165.55 174.92,-167.03 172,-168.5 149.09,-180.05 124,-194.15 104.32,-205.55"/>
<polygon fill="#63b8ff" stroke="#63b8ff" points="182.26,-166.87 189.8,-159.44 179.27,-160.55 182.26,-166.87"/>
</a>
</g>
</g>
</g>
</svg>
