<?xml version="1.0" encoding="UTF-8" standalone="no"?>
<!DOCTYPE svg PUBLIC "-//W3C//DTD SVG 1.1//EN"
 "http://www.w3.org/Graphics/SVG/1.1/DTD/svg11.dtd">
<!-- Generated by graphviz version 8.0.3 (20230416.2022)
 -->
<!-- Title: hello_world::MemMang Pages: 1 -->
<svg width="470pt" height="508pt"
 viewBox="0.00 0.00 470.00 507.50" xmlns="http://www.w3.org/2000/svg" xmlns:xlink="http://www.w3.org/1999/xlink">
<g id="graph0" class="graph" transform="scale(1 1) rotate(0) translate(4 503.5)">
<title>hello_world::MemMang</title>
<!-- Node1 -->
<g id="Node000001" class="node">
<title>Node1</title>
<g id="a_Node000001"><a xlink:title=" ">
<polygon fill="#999999" stroke="#666666" points="116,-288.5 0,-288.5 0,-269.5 116,-269.5 116,-288.5"/>
<text text-anchor="middle" x="58" y="-276.5" font-family="Helvetica,sans-Serif" font-size="10.00">hello_world::MemMang</text>
</a>
</g>
</g>
<!-- Node2 -->
<g id="Node000002" class="node">
<title>Node2</title>
<g id="a_Node000002"><a xlink:href="$classhello__world_1_1_wheel.html" xlink:title=" ">
<polygon fill="white" stroke="#666666" points="263,-499.5 165,-499.5 165,-480.5 263,-480.5 263,-499.5"/>
<text text-anchor="middle" x="214" y="-487.5" font-family="Helvetica,sans-Serif" font-size="10.00">hello_world::Wheel</text>
</a>
</g>
</g>
<!-- Node1&#45;&gt;Node2 -->
<g id="edge39_Node000001_Node000002" class="edge">
<title>Node1&#45;&gt;Node2</title>
<g id="a_edge39_Node000001_Node000002"><a xlink:title=" ">
<path fill="none" stroke="#63b8ff" d="M63.21,-299.37C72.34,-338.46 97.68,-424.23 152,-471 156.29,-474.69 161.29,-477.67 166.55,-480.06"/>
<polygon fill="#63b8ff" stroke="#63b8ff" points="66.41,-298.64 60.84,-289.63 59.58,-300.15 66.41,-298.64"/>
</a>
</g>
</g>
<!-- Node3 -->
<g id="Node000003" class="node">
<title>Node3</title>
<g id="a_Node000003"><a xlink:href="$classhello__world_1_1algorithms_1_1controller_1_1_controller.html" xlink:title=" ">
<polygon fill="white" stroke="#666666" points="272,-462 156,-462 156,-432 272,-432 272,-462"/>
<text text-anchor="start" x="164" y="-450" font-family="Helvetica,sans-Serif" font-size="10.00">hello_world::algorithms</text>
<text text-anchor="middle" x="214" y="-439" font-family="Helvetica,sans-Serif" font-size="10.00">::controller::Controller</text>
</a>
</g>
</g>
<!-- Node1&#45;&gt;Node3 -->
<g id="edge40_Node000001_Node000003" class="edge">
<title>Node1&#45;&gt;Node3</title>
<g id="a_edge40_Node000001_Node000003"><a xlink:title=" ">
<path fill="none" stroke="#63b8ff" d="M66.99,-298.8C80.29,-329.44 109.75,-388.41 152,-423 155.96,-426.24 160.42,-429.09 165.07,-431.58"/>
<polygon fill="#63b8ff" stroke="#63b8ff" points="69.93,-297.75 62.83,-289.89 63.48,-300.46 69.93,-297.75"/>
</a>
</g>
</g>
<!-- Node6 -->
<g id="Node000006" class="node">
<title>Node6</title>
<g id="a_Node000006"><a xlink:href="$classhello__world_1_1algorithms_1_1controller_1_1pid_1_1_pid_list.html" xlink:title="一个用于存储 PidNode 的链表类，用于 Ozone 监视">
<polygon fill="white" stroke="#666666" points="272.5,-414 155.5,-414 155.5,-384 272.5,-384 272.5,-414"/>
<text text-anchor="start" x="163.5" y="-402" font-family="Helvetica,sans-Serif" font-size="10.00">hello_world::algorithms</text>
<text text-anchor="middle" x="214" y="-391" font-family="Helvetica,sans-Serif" font-size="10.00">::controller::pid::PidList</text>
</a>
</g>
</g>
<!-- Node1&#45;&gt;Node6 -->
<g id="edge43_Node000001_Node000006" class="edge">
<title>Node1&#45;&gt;Node6</title>
<g id="a_edge43_Node000001_Node000006"><a xlink:title=" ">
<path fill="none" stroke="#63b8ff" d="M72.84,-297.48C89.57,-318.69 119.52,-353.34 152,-375 156.73,-378.16 161.95,-381 167.27,-383.52"/>
<polygon fill="#63b8ff" stroke="#63b8ff" points="75.01,-295.55 66.13,-289.77 69.47,-299.83 75.01,-295.55"/>
</a>
</g>
</g>
<!-- Node7 -->
<g id="Node000007" class="node">
<title>Node7</title>
<g id="a_Node000007"><a xlink:href="$classhello__world_1_1algorithms_1_1controller_1_1pid_1_1_pid_node.html" xlink:title="PID节点类，用于实现PID链表">
<polygon fill="white" stroke="#666666" points="276,-366 152,-366 152,-336 276,-336 276,-366"/>
<text text-anchor="start" x="160" y="-354" font-family="Helvetica,sans-Serif" font-size="10.00">hello_world::algorithms</text>
<text text-anchor="middle" x="214" y="-343" font-family="Helvetica,sans-Serif" font-size="10.00">::controller::pid::PidNode</text>
</a>
</g>
</g>
<!-- Node1&#45;&gt;Node7 -->
<g id="edge44_Node000001_Node000007" class="edge">
<title>Node1&#45;&gt;Node7</title>
<g id="a_edge44_Node000001_Node000007"><a xlink:title=" ">
<path fill="none" stroke="#63b8ff" d="M86.37,-294.06C104.71,-303.92 129.52,-316.81 152,-327 158.43,-329.91 165.32,-332.82 172.07,-335.56"/>
<polygon fill="#63b8ff" stroke="#63b8ff" points="88.37,-290.62 77.91,-288.93 85.04,-296.77 88.37,-290.62"/>
</a>
</g>
</g>
<!-- Node8 -->
<g id="Node000008" class="node">
<title>Node8</title>
<g id="a_Node000008"><a xlink:href="$classhello__world_1_1devices_1_1buzzer_1_1_buzzer.html" xlink:title=" ">
<polygon fill="white" stroke="#666666" points="265.5,-318 162.5,-318 162.5,-288 265.5,-288 265.5,-318"/>
<text text-anchor="start" x="170.5" y="-306" font-family="Helvetica,sans-Serif" font-size="10.00">hello_world::devices</text>
<text text-anchor="middle" x="214" y="-295" font-family="Helvetica,sans-Serif" font-size="10.00">::buzzer::Buzzer</text>
</a>
</g>
</g>
<!-- Node1&#45;&gt;Node8 -->
<g id="edge45_Node000001_Node000008" class="edge">
<title>Node1&#45;&gt;Node8</title>
<g id="a_edge45_Node000001_Node000008"><a xlink:title=" ">
<path fill="none" stroke="#63b8ff" d="M127.07,-289.61C138.87,-291.45 150.96,-293.33 162.2,-295.08"/>
<polygon fill="#63b8ff" stroke="#63b8ff" points="127.76,-286.02 117.34,-287.94 126.69,-292.93 127.76,-286.02"/>
</a>
</g>
</g>
<!-- Node9 -->
<g id="Node000009" class="node">
<title>Node9</title>
<g id="a_Node000009"><a xlink:href="$classhello__world_1_1devices_1_1imu_1_1_b_m_i088.html" xlink:title=" ">
<polygon fill="white" stroke="#666666" points="265.5,-270 162.5,-270 162.5,-240 265.5,-240 265.5,-270"/>
<text text-anchor="start" x="170.5" y="-258" font-family="Helvetica,sans-Serif" font-size="10.00">hello_world::devices</text>
<text text-anchor="middle" x="214" y="-247" font-family="Helvetica,sans-Serif" font-size="10.00">::imu::BMI088</text>
</a>
</g>
</g>
<!-- Node1&#45;&gt;Node9 -->
<g id="edge46_Node000001_Node000009" class="edge">
<title>Node1&#45;&gt;Node9</title>
<g id="a_edge46_Node000001_Node000009"><a xlink:title=" ">
<path fill="none" stroke="#63b8ff" d="M127.07,-268.39C138.87,-266.55 150.96,-264.67 162.2,-262.92"/>
<polygon fill="#63b8ff" stroke="#63b8ff" points="126.69,-265.07 117.34,-270.06 127.76,-271.98 126.69,-265.07"/>
</a>
</g>
</g>
<!-- Node10 -->
<g id="Node000010" class="node">
<title>Node10</title>
<g id="a_Node000010"><a xlink:href="$classhello__world_1_1devices_1_1laser_1_1_laser.html" xlink:title=" ">
<polygon fill="white" stroke="#666666" points="265.5,-222 162.5,-222 162.5,-192 265.5,-192 265.5,-222"/>
<text text-anchor="start" x="170.5" y="-210" font-family="Helvetica,sans-Serif" font-size="10.00">hello_world::devices</text>
<text text-anchor="middle" x="214" y="-199" font-family="Helvetica,sans-Serif" font-size="10.00">::laser::Laser</text>
</a>
</g>
</g>
<!-- Node1&#45;&gt;Node10 -->
<g id="edge47_Node000001_Node000010" class="edge">
<title>Node1&#45;&gt;Node10</title>
<g id="a_edge47_Node000001_Node000010"><a xlink:title=" ">
<path fill="none" stroke="#63b8ff" d="M86.37,-263.94C104.71,-254.08 129.52,-241.19 152,-231 158.43,-228.09 165.32,-225.18 172.07,-222.44"/>
<polygon fill="#63b8ff" stroke="#63b8ff" points="85.04,-261.23 77.91,-269.07 88.37,-267.38 85.04,-261.23"/>
</a>
</g>
</g>
<!-- Node11 -->
<g id="Node000011" class="node">
<title>Node11</title>
<g id="a_Node000011"><a xlink:href="$classhello__world_1_1devices_1_1motor_1_1_motor.html" xlink:title=" ">
<polygon fill="white" stroke="#666666" points="265.5,-174 162.5,-174 162.5,-144 265.5,-144 265.5,-174"/>
<text text-anchor="start" x="170.5" y="-162" font-family="Helvetica,sans-Serif" font-size="10.00">hello_world::devices</text>
<text text-anchor="middle" x="214" y="-151" font-family="Helvetica,sans-Serif" font-size="10.00">::motor::Motor</text>
</a>
</g>
</g>
<!-- Node1&#45;&gt;Node11 -->
<g id="edge48_Node000001_Node000011" class="edge">
<title>Node1&#45;&gt;Node11</title>
<g id="a_edge48_Node000001_Node000011"><a xlink:title=" ">
<path fill="none" stroke="#63b8ff" d="M72.84,-260.52C89.57,-239.31 119.52,-204.66 152,-183 156.73,-179.84 161.95,-177 167.27,-174.48"/>
<polygon fill="#63b8ff" stroke="#63b8ff" points="69.47,-258.17 66.13,-268.23 75.01,-262.45 69.47,-258.17"/>
</a>
</g>
</g>
<!-- Node19 -->
<g id="Node000019" class="node">
<title>Node19</title>
<g id="a_Node000019"><a xlink:href="$classhello__world_1_1devices_1_1remote__control_1_1_d_t7.html" xlink:title=" ">
<polygon fill="white" stroke="#666666" points="269,-126 159,-126 159,-96 269,-96 269,-126"/>
<text text-anchor="start" x="167" y="-114" font-family="Helvetica,sans-Serif" font-size="10.00">hello_world::devices</text>
<text text-anchor="middle" x="214" y="-103" font-family="Helvetica,sans-Serif" font-size="10.00">::remote_control::DT7</text>
</a>
</g>
</g>
<!-- Node1&#45;&gt;Node19 -->
<g id="edge56_Node000001_Node000019" class="edge">
<title>Node1&#45;&gt;Node19</title>
<g id="a_edge56_Node000001_Node000019"><a xlink:title=" ">
<path fill="none" stroke="#63b8ff" d="M66.99,-259.2C80.29,-228.56 109.75,-169.59 152,-135 155.96,-131.76 160.42,-128.91 165.07,-126.42"/>
<polygon fill="#63b8ff" stroke="#63b8ff" points="63.48,-257.54 62.83,-268.11 69.93,-260.25 63.48,-257.54"/>
</a>
</g>
</g>
<!-- Node20 -->
<g id="Node000020" class="node">
<title>Node20</title>
<g id="a_Node000020"><a xlink:href="$classhello__world_1_1devices_1_1servo_1_1_servo.html" xlink:title=" ">
<polygon fill="white" stroke="#666666" points="265.5,-78 162.5,-78 162.5,-48 265.5,-48 265.5,-78"/>
<text text-anchor="start" x="170.5" y="-66" font-family="Helvetica,sans-Serif" font-size="10.00">hello_world::devices</text>
<text text-anchor="middle" x="214" y="-55" font-family="Helvetica,sans-Serif" font-size="10.00">::servo::Servo</text>
</a>
</g>
</g>
<!-- Node1&#45;&gt;Node20 -->
<g id="edge57_Node000001_Node000020" class="edge">
<title>Node1&#45;&gt;Node20</title>
<g id="a_edge57_Node000001_Node000020"><a xlink:title=" ">
<path fill="none" stroke="#63b8ff" d="M63.66,-258.43C73.44,-219.7 99.67,-135.49 152,-87 155.51,-83.75 159.5,-80.92 163.74,-78.46"/>
<polygon fill="#63b8ff" stroke="#63b8ff" points="60.03,-257.57 61.09,-268.11 66.83,-259.2 60.03,-257.57"/>
</a>
</g>
</g>
<!-- Node4 -->
<g id="Node000004" class="node">
<title>Node4</title>
<g id="a_Node000004"><a xlink:href="$classhello__world_1_1algorithms_1_1controller_1_1pid_1_1_basic_pid.html" xlink:title="基础 PID 控制器类，继承自Controller类">
<polygon fill="white" stroke="#666666" points="450,-486 324,-486 324,-456 450,-456 450,-486"/>
<text text-anchor="start" x="332" y="-474" font-family="Helvetica,sans-Serif" font-size="10.00">hello_world::algorithms</text>
<text text-anchor="middle" x="387" y="-463" font-family="Helvetica,sans-Serif" font-size="10.00">::controller::pid::BasicPid</text>
</a>
</g>
</g>
<!-- Node3&#45;&gt;Node4 -->
<g id="edge41_Node000003_Node000004" class="edge">
<title>Node3&#45;&gt;Node4</title>
<g id="a_edge41_Node000003_Node000004"><a xlink:title=" ">
<path fill="none" stroke="#63b8ff" d="M283.04,-456.55C296.47,-458.43 310.51,-460.41 323.75,-462.26"/>
<polygon fill="#63b8ff" stroke="#63b8ff" points="283.81,-452.98 273.42,-455.06 282.83,-459.91 283.81,-452.98"/>
</a>
</g>
</g>
<!-- Node5 -->
<g id="Node000005" class="node">
<title>Node5</title>
<g id="a_Node000005"><a xlink:href="$classhello__world_1_1algorithms_1_1controller_1_1pid_1_1_multi_nodes_pid.html" xlink:title="一个多节点 PID 控制器类，继承自 Controller 类，目前实现类型有串联或并联">
<polygon fill="white" stroke="#666666" points="462,-438 312,-438 312,-408 462,-408 462,-438"/>
<text text-anchor="start" x="320" y="-426" font-family="Helvetica,sans-Serif" font-size="10.00">hello_world::algorithms</text>
<text text-anchor="middle" x="387" y="-415" font-family="Helvetica,sans-Serif" font-size="10.00">::controller::pid::MultiNodesPid</text>
</a>
</g>
</g>
<!-- Node3&#45;&gt;Node5 -->
<g id="edge42_Node000003_Node000005" class="edge">
<title>Node3&#45;&gt;Node5</title>
<g id="a_edge42_Node000003_Node000005"><a xlink:title=" ">
<path fill="none" stroke="#63b8ff" d="M283.25,-437.42C292.61,-436.11 302.26,-434.75 311.73,-433.42"/>
<polygon fill="#63b8ff" stroke="#63b8ff" points="282.83,-434.09 273.42,-438.94 283.81,-441.02 282.83,-434.09"/>
</a>
</g>
</g>
<!-- Node12 -->
<g id="Node000012" class="node">
<title>Node12</title>
<g id="a_Node000012"><a xlink:href="$classhello__world_1_1devices_1_1motor_1_1_a1.html" xlink:title=" ">
<polygon fill="white" stroke="#666666" points="438.5,-318 335.5,-318 335.5,-288 438.5,-288 438.5,-318"/>
<text text-anchor="start" x="343.5" y="-306" font-family="Helvetica,sans-Serif" font-size="10.00">hello_world::devices</text>
<text text-anchor="middle" x="387" y="-295" font-family="Helvetica,sans-Serif" font-size="10.00">::motor::A1</text>
</a>
</g>
</g>
<!-- Node11&#45;&gt;Node12 -->
<g id="edge49_Node000011_Node000012" class="edge">
<title>Node11&#45;&gt;Node12</title>
<g id="a_edge49_Node000011_Node000012"><a xlink:title=" ">
<path fill="none" stroke="#63b8ff" d="M273.84,-180.93C274.58,-181.6 275.3,-182.29 276,-183 307.96,-215.48 279.06,-247.51 312,-279 318.54,-285.25 326.73,-289.88 335.25,-293.3"/>
<polygon fill="#63b8ff" stroke="#63b8ff" points="276.29,-177.65 266.18,-174.5 272.12,-183.27 276.29,-177.65"/>
</a>
</g>
</g>
<!-- Node13 -->
<g id="Node000013" class="node">
<title>Node13</title>
<g id="a_Node000013"><a xlink:href="$classhello__world_1_1devices_1_1motor_1_1_d_m___j4310.html" xlink:title=" ">
<polygon fill="white" stroke="#666666" points="438.5,-270 335.5,-270 335.5,-240 438.5,-240 438.5,-270"/>
<text text-anchor="start" x="343.5" y="-258" font-family="Helvetica,sans-Serif" font-size="10.00">hello_world::devices</text>
<text text-anchor="middle" x="387" y="-247" font-family="Helvetica,sans-Serif" font-size="10.00">::motor::DM_J4310</text>
</a>
</g>
</g>
<!-- Node11&#45;&gt;Node13 -->
<g id="edge50_Node000011_Node000013" class="edge">
<title>Node11&#45;&gt;Node13</title>
<g id="a_edge50_Node000011_Node000013"><a xlink:title=" ">
<path fill="none" stroke="#63b8ff" d="M271.45,-179.79C273.02,-180.82 274.54,-181.89 276,-183 297.21,-199.16 290.3,-215.5 312,-231 318.92,-235.95 326.92,-239.91 335.04,-243.08"/>
<polygon fill="#63b8ff" stroke="#63b8ff" points="273.49,-176.35 263.08,-174.39 269.99,-182.42 273.49,-176.35"/>
</a>
</g>
</g>
<!-- Node14 -->
<g id="Node000014" class="node">
<title>Node14</title>
<g id="a_Node000014"><a xlink:href="$classhello__world_1_1devices_1_1motor_1_1_g_m6020.html" xlink:title=" ">
<polygon fill="white" stroke="#666666" points="438.5,-222 335.5,-222 335.5,-192 438.5,-192 438.5,-222"/>
<text text-anchor="start" x="343.5" y="-210" font-family="Helvetica,sans-Serif" font-size="10.00">hello_world::devices</text>
<text text-anchor="middle" x="387" y="-199" font-family="Helvetica,sans-Serif" font-size="10.00">::motor::GM6020</text>
</a>
</g>
</g>
<!-- Node11&#45;&gt;Node14 -->
<g id="edge51_Node000011_Node000014" class="edge">
<title>Node11&#45;&gt;Node14</title>
<g id="a_edge51_Node000011_Node000014"><a xlink:title=" ">
<path fill="none" stroke="#63b8ff" d="M276.33,-176.21C295.58,-181.62 316.61,-187.52 335.06,-192.7"/>
<polygon fill="#63b8ff" stroke="#63b8ff" points="277.42,-172.6 266.84,-173.27 275.52,-179.34 277.42,-172.6"/>
</a>
</g>
</g>
<!-- Node15 -->
<g id="Node000015" class="node">
<title>Node15</title>
<g id="a_Node000015"><a xlink:href="$classhello__world_1_1devices_1_1motor_1_1_m2006.html" xlink:title=" ">
<polygon fill="white" stroke="#666666" points="438.5,-174 335.5,-174 335.5,-144 438.5,-144 438.5,-174"/>
<text text-anchor="start" x="343.5" y="-162" font-family="Helvetica,sans-Serif" font-size="10.00">hello_world::devices</text>
<text text-anchor="middle" x="387" y="-151" font-family="Helvetica,sans-Serif" font-size="10.00">::motor::M2006</text>
</a>
</g>
</g>
<!-- Node11&#45;&gt;Node15 -->
<g id="edge52_Node000011_Node000015" class="edge">
<title>Node11&#45;&gt;Node15</title>
<g id="a_edge52_Node000011_Node000015"><a xlink:title=" ">
<path fill="none" stroke="#63b8ff" d="M276.59,-159C295.77,-159 316.69,-159 335.06,-159"/>
<polygon fill="#63b8ff" stroke="#63b8ff" points="276.84,-155.5 266.84,-159 276.84,-162.5 276.84,-155.5"/>
</a>
</g>
</g>
<!-- Node16 -->
<g id="Node000016" class="node">
<title>Node16</title>
<g id="a_Node000016"><a xlink:href="$classhello__world_1_1devices_1_1motor_1_1_m3508.html" xlink:title=" ">
<polygon fill="white" stroke="#666666" points="438.5,-126 335.5,-126 335.5,-96 438.5,-96 438.5,-126"/>
<text text-anchor="start" x="343.5" y="-114" font-family="Helvetica,sans-Serif" font-size="10.00">hello_world::devices</text>
<text text-anchor="middle" x="387" y="-103" font-family="Helvetica,sans-Serif" font-size="10.00">::motor::M3508</text>
</a>
</g>
</g>
<!-- Node11&#45;&gt;Node16 -->
<g id="edge53_Node000011_Node000016" class="edge">
<title>Node11&#45;&gt;Node16</title>
<g id="a_edge53_Node000011_Node000016"><a xlink:title=" ">
<path fill="none" stroke="#63b8ff" d="M276.33,-141.79C295.58,-136.38 316.61,-130.48 335.06,-125.3"/>
<polygon fill="#63b8ff" stroke="#63b8ff" points="275.52,-138.66 266.84,-144.73 277.42,-145.4 275.52,-138.66"/>
</a>
</g>
</g>
<!-- Node17 -->
<g id="Node000017" class="node">
<title>Node17</title>
<g id="a_Node000017"><a xlink:href="$classhello__world_1_1devices_1_1motor_1_1_m8910.html" xlink:title=" ">
<polygon fill="white" stroke="#666666" points="438.5,-78 335.5,-78 335.5,-48 438.5,-48 438.5,-78"/>
<text text-anchor="start" x="343.5" y="-66" font-family="Helvetica,sans-Serif" font-size="10.00">hello_world::devices</text>
<text text-anchor="middle" x="387" y="-55" font-family="Helvetica,sans-Serif" font-size="10.00">::motor::M8910</text>
</a>
</g>
</g>
<!-- Node11&#45;&gt;Node17 -->
<g id="edge54_Node000011_Node000017" class="edge">
<title>Node11&#45;&gt;Node17</title>
<g id="a_edge54_Node000011_Node000017"><a xlink:title=" ">
<path fill="none" stroke="#63b8ff" d="M271.45,-138.21C273.02,-137.18 274.54,-136.11 276,-135 297.21,-118.84 290.3,-102.5 312,-87 318.92,-82.05 326.92,-78.09 335.04,-74.92"/>
<polygon fill="#63b8ff" stroke="#63b8ff" points="269.99,-135.58 263.08,-143.61 273.49,-141.65 269.99,-135.58"/>
</a>
</g>
</g>
<!-- Node18 -->
<g id="Node000018" class="node">
<title>Node18</title>
<g id="a_Node000018"><a xlink:href="$classhello__world_1_1devices_1_1motor_1_1_m_f9025v2.html" xlink:title=" ">
<polygon fill="white" stroke="#666666" points="438.5,-30 335.5,-30 335.5,0 438.5,0 438.5,-30"/>
<text text-anchor="start" x="343.5" y="-18" font-family="Helvetica,sans-Serif" font-size="10.00">hello_world::devices</text>
<text text-anchor="middle" x="387" y="-7" font-family="Helvetica,sans-Serif" font-size="10.00">::motor::MF9025v2</text>
</a>
</g>
</g>
<!-- Node11&#45;&gt;Node18 -->
<g id="edge55_Node000011_Node000018" class="edge">
<title>Node11&#45;&gt;Node18</title>
<g id="a_edge55_Node000011_Node000018"><a xlink:title=" ">
<path fill="none" stroke="#63b8ff" d="M273.84,-137.07C274.58,-136.4 275.3,-135.71 276,-135 307.96,-102.52 279.06,-70.49 312,-39 318.54,-32.75 326.73,-28.12 335.25,-24.7"/>
<polygon fill="#63b8ff" stroke="#63b8ff" points="272.12,-134.73 266.18,-143.5 276.29,-140.35 272.12,-134.73"/>
</a>
</g>
</g>
</g>
</svg>
