<?xml version="1.0" encoding="UTF-8" standalone="no"?>
<!DOCTYPE svg PUBLIC "-//W3C//DTD SVG 1.1//EN"
 "http://www.w3.org/Graphics/SVG/1.1/DTD/svg11.dtd">
<!-- Generated by graphviz version 8.0.3 (20230416.2022)
 -->
<!-- Title: hello_world::devices::referee::Referee Pages: 1 -->
<svg width="910pt" height="392pt"
 viewBox="0.00 0.00 910.00 391.95" xmlns="http://www.w3.org/2000/svg" xmlns:xlink="http://www.w3.org/1999/xlink">
<g id="graph0" class="graph" transform="scale(1 1) rotate(0) translate(4 387.95)">
<title>hello_world::devices::referee::Referee</title>
<!-- Node1 -->
<g id="Node000001" class="node">
<title>Node1</title>
<g id="a_Node000001"><a xlink:title=" ">
<polygon fill="#999999" stroke="#666666" points="902,-120.95 799,-120.95 799,-90.95 902,-90.95 902,-120.95"/>
<text text-anchor="start" x="807" y="-108.95" font-family="Helvetica,sans-Serif" font-size="10.00">hello_world::devices</text>
<text text-anchor="middle" x="850.5" y="-97.95" font-family="Helvetica,sans-Serif" font-size="10.00">::referee::Referee</text>
</a>
</g>
</g>
<!-- Node2 -->
<g id="Node000002" class="node">
<title>Node2</title>
<g id="a_Node000002"><a xlink:href="$classhello__world_1_1devices_1_1referee_1_1_rx_package.html" xlink:title=" ">
<polygon fill="white" stroke="#666666" points="372,-179.95 202,-179.95 202,-127.95 372,-127.95 372,-179.95"/>
<text text-anchor="start" x="210" y="-167.95" font-family="Helvetica,sans-Serif" font-size="10.00">hello_world::devices</text>
<text text-anchor="start" x="210" y="-156.95" font-family="Helvetica,sans-Serif" font-size="10.00">::referee::RxPackage</text>
<text text-anchor="start" x="210" y="-145.95" font-family="Helvetica,sans-Serif" font-size="10.00">&lt; hello_world::devices</text>
<text text-anchor="middle" x="287" y="-134.95" font-family="Helvetica,sans-Serif" font-size="10.00">::referee::__REFEREE_PACKED &gt;</text>
</a>
</g>
</g>
<!-- Node2&#45;&gt;Node1 -->
<g id="edge25_Node000001_Node000002" class="edge">
<title>Node2&#45;&gt;Node1</title>
<g id="a_edge25_Node000001_Node000002"><a xlink:title=" ">
<path fill="none" stroke="#9a32cd" stroke-dasharray="5,2" d="M382.99,-145.83C502.82,-135.59 704.56,-118.35 798.5,-110.31"/>
<polygon fill="#9a32cd" stroke="#9a32cd" points="383.03,-142.4 373.37,-146.74 383.63,-149.38 383.03,-142.4"/>
</a>
</g>
<text text-anchor="start" x="543" y="-333.95" font-family="Helvetica,sans-Serif" font-size="10.00" fill="grey"> competition_result</text>
<text text-anchor="middle" x="594" y="-322.95" font-family="Helvetica,sans-Serif" font-size="10.00" fill="grey">_</text>
<text text-anchor="start" x="543" y="-311.95" font-family="Helvetica,sans-Serif" font-size="10.00" fill="grey">competition_robots</text>
<text text-anchor="middle" x="594" y="-300.95" font-family="Helvetica,sans-Serif" font-size="10.00" fill="grey">_hp_</text>
<text text-anchor="start" x="543" y="-289.95" font-family="Helvetica,sans-Serif" font-size="10.00" fill="grey">competition_status</text>
<text text-anchor="middle" x="594" y="-278.95" font-family="Helvetica,sans-Serif" font-size="10.00" fill="grey">_</text>
<text text-anchor="start" x="543" y="-267.95" font-family="Helvetica,sans-Serif" font-size="10.00" fill="grey">inter_client_map</text>
<text text-anchor="middle" x="594" y="-256.95" font-family="Helvetica,sans-Serif" font-size="10.00" fill="grey">_to_robots_</text>
<text text-anchor="start" x="543" y="-245.95" font-family="Helvetica,sans-Serif" font-size="10.00" fill="grey">inter_controller</text>
<text text-anchor="middle" x="594" y="-234.95" font-family="Helvetica,sans-Serif" font-size="10.00" fill="grey">_to_robot_</text>
<text text-anchor="start" x="543" y="-223.95" font-family="Helvetica,sans-Serif" font-size="10.00" fill="grey">inter_custom_controller</text>
<text text-anchor="middle" x="594" y="-212.95" font-family="Helvetica,sans-Serif" font-size="10.00" fill="grey">_to_robot_</text>
<text text-anchor="start" x="543" y="-201.95" font-family="Helvetica,sans-Serif" font-size="10.00" fill="grey">robot_aerial_status</text>
<text text-anchor="middle" x="594" y="-190.95" font-family="Helvetica,sans-Serif" font-size="10.00" fill="grey">_</text>
<text text-anchor="middle" x="594" y="-179.95" font-family="Helvetica,sans-Serif" font-size="10.00" fill="grey">robot_buff_</text>
<text text-anchor="middle" x="594" y="-168.95" font-family="Helvetica,sans-Serif" font-size="10.00" fill="grey">robot_damage_</text>
<text text-anchor="start" x="543" y="-157.95" font-family="Helvetica,sans-Serif" font-size="10.00" fill="grey">robot_dart_client</text>
<text text-anchor="middle" x="594" y="-146.95" font-family="Helvetica,sans-Serif" font-size="10.00" fill="grey">_command_</text>
<text text-anchor="middle" x="594" y="-135.95" font-family="Helvetica,sans-Serif" font-size="10.00" fill="grey">...</text>
</g>
<!-- Node3 -->
<g id="Node000003" class="node">
<title>Node3</title>
<g id="a_Node000003"><a xlink:href="$classhello__world_1_1devices_1_1referee_1_1_rx_package_info.html" xlink:title=" ">
<polygon fill="white" stroke="#666666" points="123,-190.95 0,-190.95 0,-160.95 123,-160.95 123,-190.95"/>
<text text-anchor="start" x="8" y="-178.95" font-family="Helvetica,sans-Serif" font-size="10.00">hello_world::devices</text>
<text text-anchor="middle" x="61.5" y="-167.95" font-family="Helvetica,sans-Serif" font-size="10.00">::referee::RxPackageInfo</text>
</a>
</g>
</g>
<!-- Node3&#45;&gt;Node1 -->
<g id="edge35_Node000001_Node000003" class="edge">
<title>Node3&#45;&gt;Node1</title>
<g id="a_edge35_Node000001_Node000003"><a xlink:title=" ">
<path fill="none" stroke="#9a32cd" stroke-dasharray="5,2" d="M91.16,-197.86C180.74,-263.48 461.9,-447.66 670,-343.95 767.51,-295.37 826.02,-165.77 843.75,-121.23"/>
<polygon fill="#9a32cd" stroke="#9a32cd" points="93.5,-194.5 83.38,-191.36 89.33,-200.12 93.5,-194.5"/>
</a>
</g>
<text text-anchor="middle" x="445" y="-375.95" font-family="Helvetica,sans-Serif" font-size="10.00" fill="grey"> kRefereeRxPackagePtrs</text>
</g>
<!-- Node3&#45;&gt;Node2 -->
<g id="edge26_Node000002_Node000003" class="edge">
<title>Node3&#45;&gt;Node2</title>
<g id="a_edge26_Node000002_Node000003"><a xlink:title=" ">
<path fill="none" stroke="#63b8ff" d="M133.99,-168.92C155.56,-166.79 179.44,-164.44 201.76,-162.25"/>
<polygon fill="#63b8ff" stroke="#63b8ff" points="133.89,-165.51 124.28,-169.97 134.57,-172.48 133.89,-165.51"/>
</a>
</g>
</g>
<!-- Node7 -->
<g id="Node000007" class="node">
<title>Node7</title>
<g id="a_Node000007"><a xlink:href="$classhello__world_1_1devices_1_1referee_1_1_rx_package.html" xlink:title=" ">
<polygon fill="white" stroke="#666666" points="344.5,-109.45 229.5,-109.45 229.5,-68.45 344.5,-68.45 344.5,-109.45"/>
<text text-anchor="start" x="237.5" y="-97.45" font-family="Helvetica,sans-Serif" font-size="10.00">hello_world::devices</text>
<text text-anchor="start" x="237.5" y="-86.45" font-family="Helvetica,sans-Serif" font-size="10.00">::referee::RxPackage</text>
<text text-anchor="middle" x="287" y="-75.45" font-family="Helvetica,sans-Serif" font-size="10.00">&lt; InterRadarWarning &gt;</text>
</a>
</g>
</g>
<!-- Node3&#45;&gt;Node7 -->
<g id="edge33_Node000007_Node000003" class="edge">
<title>Node3&#45;&gt;Node7</title>
<g id="a_edge33_Node000007_Node000003"><a xlink:title=" ">
<path fill="none" stroke="#63b8ff" d="M133.41,-159.41C150.67,-153.73 168.59,-146.36 184,-136.95 193.66,-131.06 192.44,-125 202,-118.95 210.37,-113.65 219.81,-109.13 229.26,-105.32"/>
<polygon fill="#63b8ff" stroke="#63b8ff" points="132.85,-156.23 124.35,-162.56 134.94,-162.91 132.85,-156.23"/>
</a>
</g>
</g>
<!-- Node4 -->
<g id="Node000004" class="node">
<title>Node4</title>
<g id="a_Node000004"><a xlink:href="$structhello__world_1_1devices_1_1referee_1_1_____r_e_f_e_r_e_e___p_a_c_k_e_d.html" xlink:title=" ">
<polygon fill="white" stroke="#666666" points="119,-77.45 4,-77.45 4,-36.45 119,-36.45 119,-77.45"/>
<text text-anchor="start" x="12" y="-65.45" font-family="Helvetica,sans-Serif" font-size="10.00">hello_world::devices</text>
<text text-anchor="start" x="12" y="-54.45" font-family="Helvetica,sans-Serif" font-size="10.00">::referee::__REFEREE</text>
<text text-anchor="middle" x="61.5" y="-43.45" font-family="Helvetica,sans-Serif" font-size="10.00">_PACKED</text>
</a>
</g>
</g>
<!-- Node4&#45;&gt;Node1 -->
<g id="edge36_Node000001_Node000004" class="edge">
<title>Node4&#45;&gt;Node1</title>
<g id="a_edge36_Node000001_Node000004"><a xlink:title=" ">
<path fill="none" stroke="#9a32cd" stroke-dasharray="5,2" d="M106.65,-31C117.57,-25.57 129.45,-20.44 141,-16.95 167.13,-9.08 174.76,-11.51 202,-9.95 409.96,1.94 466.67,10.25 670,-34.95 724.63,-47.1 784.37,-73.61 819.31,-90.58"/>
<polygon fill="#9a32cd" stroke="#9a32cd" points="105.2,-28.33 97.94,-36.04 108.43,-34.54 105.2,-28.33"/>
</a>
</g>
<text text-anchor="middle" x="445" y="-30.95" font-family="Helvetica,sans-Serif" font-size="10.00" fill="grey"> frame_header</text>
<text text-anchor="middle" x="445" y="-19.95" font-family="Helvetica,sans-Serif" font-size="10.00" fill="grey">header</text>
<text text-anchor="middle" x="445" y="-8.95" font-family="Helvetica,sans-Serif" font-size="10.00" fill="grey">inter_frame_header</text>
</g>
<!-- Node4&#45;&gt;Node2 -->
<g id="edge27_Node000002_Node000004" class="edge">
<title>Node4&#45;&gt;Node2</title>
<g id="a_edge27_Node000002_Node000004"><a xlink:title=" ">
<path fill="none" stroke="#9a32cd" stroke-dasharray="5,2" d="M118.71,-82.29C144.09,-93.65 174.49,-107.11 202,-118.95 208.53,-121.77 215.36,-124.67 222.18,-127.55"/>
<polygon fill="#9a32cd" stroke="#9a32cd" points="120.44,-78.79 109.88,-77.89 117.58,-85.18 120.44,-78.79"/>
</a>
</g>
<text text-anchor="middle" x="162.5" y="-112.95" font-family="Helvetica,sans-Serif" font-size="10.00" fill="grey"> data_</text>
</g>
<!-- Node4&#45;&gt;Node4 -->
<g id="edge28_Node000004_Node000004" class="edge">
<title>Node4&#45;&gt;Node4</title>
<g id="a_edge28_Node000004_Node000004"><a xlink:title=" ">
<path fill="none" stroke="#9a32cd" stroke-dasharray="5,2" d="M44.88,-88.64C47.75,-92.74 53.29,-95.45 61.5,-95.45 75.7,-95.45 81.92,-87.33 80.14,-77.94"/>
<polygon fill="#9a32cd" stroke="#9a32cd" points="48.15,-88.12 42.86,-78.94 41.27,-89.42 48.15,-88.12"/>
</a>
</g>
<text text-anchor="middle" x="61.5" y="-98.45" font-family="Helvetica,sans-Serif" font-size="10.00" fill="grey"> interaction_graphic</text>
</g>
<!-- Node5 -->
<g id="Node000005" class="node">
<title>Node5</title>
<g id="a_Node000005"><a xlink:href="$unionhello__world_1_1devices_1_1referee_1_1_main_ctrller_keyboard.html" xlink:title=" ">
<polygon fill="white" stroke="#666666" points="360,-48.95 214,-48.95 214,-18.95 360,-18.95 360,-48.95"/>
<text text-anchor="start" x="222" y="-36.95" font-family="Helvetica,sans-Serif" font-size="10.00">hello_world::devices</text>
<text text-anchor="middle" x="287" y="-25.95" font-family="Helvetica,sans-Serif" font-size="10.00">::referee::MainCtrllerKeyboard</text>
</a>
</g>
</g>
<!-- Node4&#45;&gt;Node5 -->
<g id="edge30_Node000005_Node000004" class="edge">
<title>Node4&#45;&gt;Node5</title>
<g id="a_edge30_Node000005_Node000004"><a xlink:title=" ">
<path fill="none" stroke="#9a32cd" stroke-dasharray="5,2" d="M130.17,-49.99C156.63,-47.27 187.01,-44.14 213.88,-41.38"/>
<polygon fill="#9a32cd" stroke="#9a32cd" points="130.07,-46.59 120.48,-51.09 130.78,-53.55 130.07,-46.59"/>
</a>
</g>
<text text-anchor="middle" x="162.5" y="-50.95" font-family="Helvetica,sans-Serif" font-size="10.00" fill="grey"> key</text>
</g>
<!-- Node4&#45;&gt;Node7 -->
<g id="edge34_Node000007_Node000004" class="edge">
<title>Node4&#45;&gt;Node7</title>
<g id="a_edge34_Node000007_Node000004"><a xlink:title=" ">
<path fill="none" stroke="#9a32cd" stroke-dasharray="5,2" d="M129.98,-66.62C161.63,-71.15 198.93,-76.49 229.13,-80.81"/>
<polygon fill="#9a32cd" stroke="#9a32cd" points="130.87,-63.07 120.48,-65.11 129.88,-69.99 130.87,-63.07"/>
</a>
</g>
<text text-anchor="middle" x="162.5" y="-75.95" font-family="Helvetica,sans-Serif" font-size="10.00" fill="grey"> data_</text>
</g>
<!-- Node5&#45;&gt;Node4 -->
<g id="edge29_Node000004_Node000005" class="edge">
<title>Node5&#45;&gt;Node4</title>
<g id="a_edge29_Node000004_Node000005"><a xlink:title=" ">
<path fill="none" stroke="#9a32cd" stroke-dasharray="5,2" d="M202.77,-20.62C182.43,-19.44 160.81,-19.96 141,-23.95 128.39,-26.5 115.29,-31.12 103.48,-36.12"/>
<polygon fill="#9a32cd" stroke="#9a32cd" points="202.37,-24.17 212.6,-21.41 202.88,-17.19 202.37,-24.17"/>
</a>
</g>
<text text-anchor="middle" x="162.5" y="-26.95" font-family="Helvetica,sans-Serif" font-size="10.00" fill="grey"> keyboard</text>
</g>
<!-- Node6 -->
<g id="Node000006" class="node">
<title>Node6</title>
<g id="a_Node000006"><a xlink:href="$classhello__world_1_1devices_1_1referee_1_1_rx_package_inter_radar_warning.html" xlink:title=" ">
<polygon fill="white" stroke="#666666" points="670,-84.45 518,-84.45 518,-43.45 670,-43.45 670,-84.45"/>
<text text-anchor="start" x="526" y="-72.45" font-family="Helvetica,sans-Serif" font-size="10.00">hello_world::devices</text>
<text text-anchor="start" x="526" y="-61.45" font-family="Helvetica,sans-Serif" font-size="10.00">::referee::RxPackageInterRadar</text>
<text text-anchor="middle" x="594" y="-50.45" font-family="Helvetica,sans-Serif" font-size="10.00">Warning</text>
</a>
</g>
</g>
<!-- Node6&#45;&gt;Node1 -->
<g id="edge31_Node000001_Node000006" class="edge">
<title>Node6&#45;&gt;Node1</title>
<g id="a_edge31_Node000001_Node000006"><a xlink:title=" ">
<path fill="none" stroke="#9a32cd" stroke-dasharray="5,2" d="M681.16,-78.17C720.18,-84.61 764.97,-92 798.54,-97.54"/>
<polygon fill="#9a32cd" stroke="#9a32cd" points="681.76,-74.56 671.33,-76.39 680.62,-81.47 681.76,-74.56"/>
</a>
</g>
<text text-anchor="middle" x="734.5" y="-95.95" font-family="Helvetica,sans-Serif" font-size="10.00" fill="grey"> inter_radar_warning_</text>
</g>
<!-- Node7&#45;&gt;Node6 -->
<g id="edge32_Node000006_Node000007" class="edge">
<title>Node7&#45;&gt;Node6</title>
<g id="a_edge32_Node000006_Node000007"><a xlink:title=" ">
<path fill="none" stroke="#63b8ff" d="M355.55,-83.42C403.54,-79.48 468.01,-74.2 517.66,-70.13"/>
<polygon fill="#63b8ff" stroke="#63b8ff" points="355.33,-80.01 345.65,-84.31 355.91,-86.98 355.33,-80.01"/>
</a>
</g>
</g>
</g>
</svg>
