<?xml version="1.0" encoding="UTF-8" standalone="no"?>
<!DOCTYPE svg PUBLIC "-//W3C//DTD SVG 1.1//EN"
 "http://www.w3.org/Graphics/SVG/1.1/DTD/svg11.dtd">
<!-- Generated by graphviz version 8.0.3 (20230416.2022)
 -->
<!-- Title: hello_world::devices::motor::Motor::curr Pages: 1 -->
<svg width="476pt" height="374pt"
 viewBox="0.00 0.00 476.00 374.00" xmlns="http://www.w3.org/2000/svg" xmlns:xlink="http://www.w3.org/1999/xlink">
<g id="graph0" class="graph" transform="scale(1 1) rotate(0) translate(4 370)">
<title>hello_world::devices::motor::Motor::curr</title>
<!-- Node1 -->
<g id="Node000001" class="node">
<title>Node1</title>
<g id="a_Node000001"><a xlink:title=" ">
<polygon fill="#999999" stroke="#666666" points="468,-78 365,-78 365,-48 468,-48 468,-78"/>
<text text-anchor="start" x="373" y="-66" font-family="Helvetica,sans-Serif" font-size="10.00">hello_world::devices</text>
<text text-anchor="middle" x="416.5" y="-55" font-family="Helvetica,sans-Serif" font-size="10.00">::motor::Motor::curr</text>
</a>
</g>
</g>
<!-- Node2 -->
<g id="Node000002" class="node">
<title>Node2</title>
<g id="a_Node000002"><a xlink:href="$classhello__world_1_1devices_1_1motor_1_1_motor.html#aebf04ce4e3628c60907a29771f383027" xlink:title="将转子电流转换为原始报文内容">
<polygon fill="white" stroke="#666666" points="318.5,-222 197.5,-222 197.5,-192 318.5,-192 318.5,-222"/>
<text text-anchor="start" x="205.5" y="-210" font-family="Helvetica,sans-Serif" font-size="10.00">hello_world::devices</text>
<text text-anchor="middle" x="258" y="-199" font-family="Helvetica,sans-Serif" font-size="10.00">::motor::Motor::curr2raw</text>
</a>
</g>
</g>
<!-- Node1&#45;&gt;Node2 -->
<g id="edge27_Node000001_Node000002" class="edge">
<title>Node1&#45;&gt;Node2</title>
<g id="a_edge27_Node000001_Node000002"><a xlink:title=" ">
<path fill="none" stroke="#63b8ff" d="M390.71,-85.81C358.52,-115.43 303.2,-166.33 275.63,-191.7"/>
<polygon fill="#63b8ff" stroke="#63b8ff" points="392.76,-88.76 397.75,-79.41 388.02,-83.61 392.76,-88.76"/>
</a>
</g>
</g>
<!-- Node9 -->
<g id="Node000009" class="node">
<title>Node9</title>
<g id="a_Node000009"><a xlink:href="$classhello__world_1_1devices_1_1motor_1_1_d_m___j4310.html#a358bd9981d81d72077e27f42d775e431" xlink:title="将转子电流转换为原始报文内容">
<polygon fill="white" stroke="#666666" points="329,-30 187,-30 187,0 329,0 329,-30"/>
<text text-anchor="start" x="195" y="-18" font-family="Helvetica,sans-Serif" font-size="10.00">hello_world::devices</text>
<text text-anchor="middle" x="258" y="-7" font-family="Helvetica,sans-Serif" font-size="10.00">::motor::DM_J4310::curr2raw</text>
</a>
</g>
</g>
<!-- Node1&#45;&gt;Node9 -->
<g id="edge34_Node000001_Node000009" class="edge">
<title>Node1&#45;&gt;Node9</title>
<g id="a_edge34_Node000001_Node000009"><a xlink:title=" ">
<path fill="none" stroke="#63b8ff" d="M354.86,-44.4C339.79,-39.78 323.8,-34.87 309.28,-30.42"/>
<polygon fill="#63b8ff" stroke="#63b8ff" points="353.53,-47.96 364.12,-47.55 355.59,-41.27 353.53,-47.96"/>
</a>
</g>
</g>
<!-- Node11 -->
<g id="Node000011" class="node">
<title>Node11</title>
<g id="a_Node000011"><a xlink:href="$classhello__world_1_1devices_1_1motor_1_1_motor.html#a6e11db30817cf05232ee3d52ed48030b" xlink:title="将转子电流转换为输出端力矩">
<polygon fill="white" stroke="#666666" points="319,-78 197,-78 197,-48 319,-48 319,-78"/>
<text text-anchor="start" x="205" y="-66" font-family="Helvetica,sans-Serif" font-size="10.00">hello_world::devices</text>
<text text-anchor="middle" x="258" y="-55" font-family="Helvetica,sans-Serif" font-size="10.00">::motor::Motor::curr2torq</text>
</a>
</g>
</g>
<!-- Node1&#45;&gt;Node11 -->
<g id="edge36_Node000001_Node000011" class="edge">
<title>Node1&#45;&gt;Node11</title>
<g id="a_edge36_Node000001_Node000011"><a xlink:title=" ">
<path fill="none" stroke="#63b8ff" d="M353.97,-63C342.59,-63 330.72,-63 319.37,-63"/>
<polygon fill="#63b8ff" stroke="#63b8ff" points="353.69,-66.5 363.69,-63 353.69,-59.5 353.69,-66.5"/>
</a>
</g>
</g>
<!-- Node3 -->
<g id="Node000003" class="node">
<title>Node3</title>
<g id="a_Node000003"><a xlink:href="$classhello__world_1_1devices_1_1motor_1_1_a1.html#a1c439b72ce074a0e04d38b06749f499c" xlink:title="A1 初始化">
<polygon fill="white" stroke="#666666" points="127,-222 24,-222 24,-192 127,-192 127,-222"/>
<text text-anchor="start" x="32" y="-210" font-family="Helvetica,sans-Serif" font-size="10.00">hello_world::devices</text>
<text text-anchor="middle" x="75.5" y="-199" font-family="Helvetica,sans-Serif" font-size="10.00">::motor::A1::A1</text>
</a>
</g>
</g>
<!-- Node2&#45;&gt;Node3 -->
<g id="edge28_Node000002_Node000003" class="edge">
<title>Node2&#45;&gt;Node3</title>
<g id="a_edge28_Node000002_Node000003"><a xlink:title=" ">
<path fill="none" stroke="#63b8ff" d="M186.38,-207C166.71,-207 145.73,-207 127.43,-207"/>
<polygon fill="#63b8ff" stroke="#63b8ff" points="186.15,-210.5 196.15,-207 186.15,-203.5 186.15,-210.5"/>
</a>
</g>
</g>
<!-- Node4 -->
<g id="Node000004" class="node">
<title>Node4</title>
<g id="a_Node000004"><a xlink:href="$classhello__world_1_1devices_1_1motor_1_1_m2006.html#a52ce5e7bbbb2fffe82f86291b8876221" xlink:title="M2006 初始化">
<polygon fill="white" stroke="#666666" points="134.5,-174 16.5,-174 16.5,-144 134.5,-144 134.5,-174"/>
<text text-anchor="start" x="24.5" y="-162" font-family="Helvetica,sans-Serif" font-size="10.00">hello_world::devices</text>
<text text-anchor="middle" x="75.5" y="-151" font-family="Helvetica,sans-Serif" font-size="10.00">::motor::M2006::M2006</text>
</a>
</g>
</g>
<!-- Node2&#45;&gt;Node4 -->
<g id="edge29_Node000002_Node000004" class="edge">
<title>Node2&#45;&gt;Node4</title>
<g id="a_edge29_Node000002_Node000004"><a xlink:title=" ">
<path fill="none" stroke="#63b8ff" d="M188.57,-188.8C170.75,-184.06 151.72,-179 134.5,-174.42"/>
<polygon fill="#63b8ff" stroke="#63b8ff" points="187.33,-192.36 197.9,-191.55 189.13,-185.6 187.33,-192.36"/>
</a>
</g>
</g>
<!-- Node5 -->
<g id="Node000005" class="node">
<title>Node5</title>
<g id="a_Node000005"><a xlink:href="$classhello__world_1_1devices_1_1motor_1_1_m3508.html#a2fbed6fbaa90b42893978a1805ea78e6" xlink:title="M3508 初始化">
<polygon fill="white" stroke="#666666" points="134.5,-366 16.5,-366 16.5,-336 134.5,-336 134.5,-366"/>
<text text-anchor="start" x="24.5" y="-354" font-family="Helvetica,sans-Serif" font-size="10.00">hello_world::devices</text>
<text text-anchor="middle" x="75.5" y="-343" font-family="Helvetica,sans-Serif" font-size="10.00">::motor::M3508::M3508</text>
</a>
</g>
</g>
<!-- Node2&#45;&gt;Node5 -->
<g id="edge30_Node000002_Node000005" class="edge">
<title>Node2&#45;&gt;Node5</title>
<g id="a_edge30_Node000002_Node000005"><a xlink:title=" ">
<path fill="none" stroke="#63b8ff" d="M241.65,-231.08C223.23,-258.12 189.91,-301.54 151,-327 146,-330.27 140.51,-333.13 134.86,-335.62"/>
<polygon fill="#63b8ff" stroke="#63b8ff" points="244.9,-233.51 247.53,-223.25 239.07,-229.63 244.9,-233.51"/>
</a>
</g>
</g>
<!-- Node6 -->
<g id="Node000006" class="node">
<title>Node6</title>
<g id="a_Node000006"><a xlink:href="$classhello__world_1_1devices_1_1motor_1_1_m8910.html#accd858d8bd3db4aa48532ec8c1f8bd44" xlink:title="M8910 初始化">
<polygon fill="white" stroke="#666666" points="134.5,-318 16.5,-318 16.5,-288 134.5,-288 134.5,-318"/>
<text text-anchor="start" x="24.5" y="-306" font-family="Helvetica,sans-Serif" font-size="10.00">hello_world::devices</text>
<text text-anchor="middle" x="75.5" y="-295" font-family="Helvetica,sans-Serif" font-size="10.00">::motor::M8910::M8910</text>
</a>
</g>
</g>
<!-- Node2&#45;&gt;Node6 -->
<g id="edge31_Node000002_Node000006" class="edge">
<title>Node2&#45;&gt;Node6</title>
<g id="a_edge31_Node000002_Node000006"><a xlink:title=" ">
<path fill="none" stroke="#63b8ff" d="M229.54,-228.88C208.89,-244.51 179.39,-265.14 151,-279 144.53,-282.16 137.54,-285.04 130.53,-287.62"/>
<polygon fill="#63b8ff" stroke="#63b8ff" points="231.3,-231.17 237.1,-222.3 227.04,-225.62 231.3,-231.17"/>
</a>
</g>
</g>
<!-- Node7 -->
<g id="Node000007" class="node">
<title>Node7</title>
<g id="a_Node000007"><a xlink:href="$classhello__world_1_1devices_1_1motor_1_1_m_f9025v2.html#a87787e5484356144bc7bce7b229398de" xlink:title="MF9025v2 初始化">
<polygon fill="white" stroke="#666666" points="149.5,-270 1.5,-270 1.5,-240 149.5,-240 149.5,-270"/>
<text text-anchor="start" x="9.5" y="-258" font-family="Helvetica,sans-Serif" font-size="10.00">hello_world::devices</text>
<text text-anchor="middle" x="75.5" y="-247" font-family="Helvetica,sans-Serif" font-size="10.00">::motor::MF9025v2::MF9025v2</text>
</a>
</g>
</g>
<!-- Node2&#45;&gt;Node7 -->
<g id="edge32_Node000002_Node000007" class="edge">
<title>Node2&#45;&gt;Node7</title>
<g id="a_edge32_Node000002_Node000007"><a xlink:title=" ">
<path fill="none" stroke="#63b8ff" d="M188.57,-225.2C170.75,-229.94 151.72,-235 134.5,-239.58"/>
<polygon fill="#63b8ff" stroke="#63b8ff" points="189.13,-228.4 197.9,-222.45 187.33,-221.64 189.13,-228.4"/>
</a>
</g>
</g>
<!-- Node8 -->
<g id="Node000008" class="node">
<title>Node8</title>
<g id="a_Node000008"><a xlink:href="$classhello__world_1_1devices_1_1motor_1_1_motor.html#ad101045a9eef9a699001fc94631e8395" xlink:title="设定发给电调的期望值">
<polygon fill="white" stroke="#666666" points="135,-126 16,-126 16,-96 135,-96 135,-126"/>
<text text-anchor="start" x="24" y="-114" font-family="Helvetica,sans-Serif" font-size="10.00">hello_world::devices</text>
<text text-anchor="middle" x="75.5" y="-103" font-family="Helvetica,sans-Serif" font-size="10.00">::motor::Motor::setInput</text>
</a>
</g>
</g>
<!-- Node2&#45;&gt;Node8 -->
<g id="edge33_Node000002_Node000008" class="edge">
<title>Node2&#45;&gt;Node8</title>
<g id="a_edge33_Node000002_Node000008"><a xlink:title=" ">
<path fill="none" stroke="#63b8ff" d="M229.54,-185.12C208.89,-169.49 179.39,-148.86 151,-135 144.53,-131.84 137.54,-128.96 130.53,-126.38"/>
<polygon fill="#63b8ff" stroke="#63b8ff" points="227.04,-188.38 237.1,-191.7 231.3,-182.83 227.04,-188.38"/>
</a>
</g>
</g>
<!-- Node10 -->
<g id="Node000010" class="node">
<title>Node10</title>
<g id="a_Node000010"><a xlink:href="$classhello__world_1_1devices_1_1motor_1_1_d_m___j4310.html#ae15373ce02962c1a287d7e813413869b" xlink:title="设定发给电调的期望值">
<polygon fill="white" stroke="#666666" points="145.5,-30 5.5,-30 5.5,0 145.5,0 145.5,-30"/>
<text text-anchor="start" x="13.5" y="-18" font-family="Helvetica,sans-Serif" font-size="10.00">hello_world::devices</text>
<text text-anchor="middle" x="75.5" y="-7" font-family="Helvetica,sans-Serif" font-size="10.00">::motor::DM_J4310::setInput</text>
</a>
</g>
</g>
<!-- Node9&#45;&gt;Node10 -->
<g id="edge35_Node000009_Node000010" class="edge">
<title>Node9&#45;&gt;Node10</title>
<g id="a_edge35_Node000009_Node000010"><a xlink:title=" ">
<path fill="none" stroke="#63b8ff" d="M175.86,-15C165.8,-15 155.58,-15 145.72,-15"/>
<polygon fill="#63b8ff" stroke="#63b8ff" points="175.7,-18.5 185.7,-15 175.7,-11.5 175.7,-18.5"/>
</a>
</g>
</g>
<!-- Node11&#45;&gt;Node8 -->
<g id="edge38_Node000011_Node000008" class="edge">
<title>Node11&#45;&gt;Node8</title>
<g id="a_edge38_Node000011_Node000008"><a xlink:title=" ">
<path fill="none" stroke="#63b8ff" d="M188.57,-81.2C170.75,-85.94 151.72,-91 134.5,-95.58"/>
<polygon fill="#63b8ff" stroke="#63b8ff" points="189.13,-84.4 197.9,-78.45 187.33,-77.64 189.13,-84.4"/>
</a>
</g>
</g>
<!-- Node11&#45;&gt;Node10 -->
<g id="edge39_Node000011_Node000010" class="edge">
<title>Node11&#45;&gt;Node10</title>
<g id="a_edge39_Node000011_Node000010"><a xlink:title=" ">
<path fill="none" stroke="#63b8ff" d="M188.57,-44.8C170.75,-40.06 151.72,-35 134.5,-30.42"/>
<polygon fill="#63b8ff" stroke="#63b8ff" points="187.33,-48.36 197.9,-47.55 189.13,-41.6 187.33,-48.36"/>
</a>
</g>
</g>
<!-- Node12 -->
<g id="Node000012" class="node">
<title>Node12</title>
<g id="a_Node000012"><a xlink:href="$classhello__world_1_1devices_1_1motor_1_1_d_m___j4310.html#a0a61fcd9a79f7bbb0addccaf677f2c5f" xlink:title="DM_J4310 初始化">
<polygon fill="white" stroke="#666666" points="151,-78 0,-78 0,-48 151,-48 151,-78"/>
<text text-anchor="start" x="8" y="-66" font-family="Helvetica,sans-Serif" font-size="10.00">hello_world::devices</text>
<text text-anchor="middle" x="75.5" y="-55" font-family="Helvetica,sans-Serif" font-size="10.00">::motor::DM_J4310::DM_J4310</text>
</a>
</g>
</g>
<!-- Node11&#45;&gt;Node12 -->
<g id="edge37_Node000011_Node000012" class="edge">
<title>Node11&#45;&gt;Node12</title>
<g id="a_edge37_Node000011_Node000012"><a xlink:title=" ">
<path fill="none" stroke="#63b8ff" d="M185.89,-63C174.51,-63 162.71,-63 151.25,-63"/>
<polygon fill="#63b8ff" stroke="#63b8ff" points="185.65,-66.5 195.65,-63 185.65,-59.5 185.65,-66.5"/>
</a>
</g>
</g>
</g>
</svg>
