<?xml version="1.0" encoding="UTF-8" standalone="no"?>
<!DOCTYPE svg PUBLIC "-//W3C//DTD SVG 1.1//EN"
 "http://www.w3.org/Graphics/SVG/1.1/DTD/svg11.dtd">
<!-- Generated by graphviz version 8.0.3 (20230416.2022)
 -->
<!-- Title: hello_world::devices::imu::BMI088::gyroInit Pages: 1 -->
<svg width="614pt" height="141pt"
 viewBox="0.00 0.00 614.00 141.00" xmlns="http://www.w3.org/2000/svg" xmlns:xlink="http://www.w3.org/1999/xlink">
<g id="graph0" class="graph" transform="scale(1 1) rotate(0) translate(4 137)">
<title>hello_world::devices::imu::BMI088::gyroInit</title>
<!-- Node1 -->
<g id="Node000001" class="node">
<title>Node1</title>
<g id="a_Node000001"><a xlink:title="陀螺仪配置">
<polygon fill="#999999" stroke="#666666" points="115,-75 0,-75 0,-45 115,-45 115,-75"/>
<text text-anchor="start" x="8" y="-63" font-family="Helvetica,sans-Serif" font-size="10.00">hello_world::devices</text>
<text text-anchor="middle" x="57.5" y="-52" font-family="Helvetica,sans-Serif" font-size="10.00">::imu::BMI088::gyroInit</text>
</a>
</g>
</g>
<!-- Node2 -->
<g id="Node000002" class="node">
<title>Node2</title>
<g id="a_Node000002"><a xlink:href="$namespacehello__world_1_1devices_1_1imu.html#a6fc8717b2ca9de9512855bad4d226769" xlink:title="微秒级延时">
<polygon fill="white" stroke="#666666" points="438,-133 335,-133 335,-103 438,-103 438,-133"/>
<text text-anchor="start" x="343" y="-121" font-family="Helvetica,sans-Serif" font-size="10.00">hello_world::devices</text>
<text text-anchor="middle" x="386.5" y="-110" font-family="Helvetica,sans-Serif" font-size="10.00">::imu::DelayUs</text>
</a>
</g>
</g>
<!-- Node1&#45;&gt;Node2 -->
<g id="edge23_Node000001_Node000002" class="edge">
<title>Node1&#45;&gt;Node2</title>
<g id="a_edge23_Node000001_Node000002"><a xlink:title=" ">
<path fill="none" stroke="#63b8ff" d="M82.54,-75.4C100.6,-86.1 126.36,-99.54 151,-106 208.25,-121 275.99,-122.85 323.91,-121.64"/>
<polygon fill="#63b8ff" stroke="#63b8ff" points="323.84,-125.11 333.73,-121.3 323.63,-118.11 323.84,-125.11"/>
</a>
</g>
</g>
<!-- Node3 -->
<g id="Node000003" class="node">
<title>Node3</title>
<g id="a_Node000003"><a xlink:href="$classhello__world_1_1devices_1_1imu_1_1_b_m_i088.html#a16b8a6609a3b902bc05c4e2857801cd2" xlink:title="读取陀螺仪寄存器数据">
<polygon fill="white" stroke="#666666" points="449,-30 324,-30 324,0 449,0 449,-30"/>
<text text-anchor="start" x="332" y="-18" font-family="Helvetica,sans-Serif" font-size="10.00">hello_world::devices</text>
<text text-anchor="middle" x="386.5" y="-7" font-family="Helvetica,sans-Serif" font-size="10.00">::imu::BMI088::gyroRead</text>
</a>
</g>
</g>
<!-- Node1&#45;&gt;Node3 -->
<g id="edge24_Node000001_Node000003" class="edge">
<title>Node1&#45;&gt;Node3</title>
<g id="a_edge24_Node000001_Node000003"><a xlink:title=" ">
<path fill="none" stroke="#63b8ff" d="M115.46,-52.16C170.24,-44.62 253.28,-33.2 312.8,-25"/>
<polygon fill="#63b8ff" stroke="#63b8ff" points="313.2,-28.34 322.63,-23.51 312.25,-21.41 313.2,-28.34"/>
</a>
</g>
</g>
<!-- Node6 -->
<g id="Node000006" class="node">
<title>Node6</title>
<g id="a_Node000006"><a xlink:href="$classhello__world_1_1devices_1_1imu_1_1_b_m_i088.html#ac8c0c2e64b56c3feb6888446b4830be3" xlink:title="陀螺仪自检测">
<polygon fill="white" stroke="#666666" points="288,-97 151,-97 151,-67 288,-67 288,-97"/>
<text text-anchor="start" x="159" y="-85" font-family="Helvetica,sans-Serif" font-size="10.00">hello_world::devices</text>
<text text-anchor="middle" x="219.5" y="-74" font-family="Helvetica,sans-Serif" font-size="10.00">::imu::BMI088::gyroSelfTest</text>
</a>
</g>
</g>
<!-- Node1&#45;&gt;Node6 -->
<g id="edge27_Node000001_Node000006" class="edge">
<title>Node1&#45;&gt;Node6</title>
<g id="a_edge27_Node000001_Node000006"><a xlink:title=" ">
<path fill="none" stroke="#63b8ff" d="M115.36,-67.82C123.29,-68.91 131.56,-70.05 139.8,-71.18"/>
<polygon fill="#63b8ff" stroke="#63b8ff" points="139.22,-74.77 149.6,-72.66 140.17,-67.83 139.22,-74.77"/>
</a>
</g>
</g>
<!-- Node7 -->
<g id="Node000007" class="node">
<title>Node7</title>
<g id="a_Node000007"><a xlink:href="$classhello__world_1_1devices_1_1imu_1_1_b_m_i088.html#adf2ebc011e80e2ad115716307c773c6f" xlink:title="向陀螺仪寄存器写入数据">
<polygon fill="white" stroke="#666666" points="449,-78 324,-78 324,-48 449,-48 449,-78"/>
<text text-anchor="start" x="332" y="-66" font-family="Helvetica,sans-Serif" font-size="10.00">hello_world::devices</text>
<text text-anchor="middle" x="386.5" y="-55" font-family="Helvetica,sans-Serif" font-size="10.00">::imu::BMI088::gyroWrite</text>
</a>
</g>
</g>
<!-- Node1&#45;&gt;Node7 -->
<g id="edge33_Node000001_Node000007" class="edge">
<title>Node1&#45;&gt;Node7</title>
<g id="a_edge33_Node000001_Node000007"><a xlink:title=" ">
<path fill="none" stroke="#63b8ff" d="M115.24,-58.58C127.06,-58.34 139.44,-58.13 151,-58 211.89,-57.34 227.13,-56.44 288,-58 296.01,-58.21 304.39,-58.51 312.72,-58.86"/>
<polygon fill="#63b8ff" stroke="#63b8ff" points="312.48,-62.4 322.62,-59.35 312.79,-55.4 312.48,-62.4"/>
</a>
</g>
</g>
<!-- Node4 -->
<g id="Node000004" class="node">
<title>Node4</title>
<g id="a_Node000004"><a xlink:href="$classhello__world_1_1devices_1_1imu_1_1_b_m_i088.html#a54cd103bad13c06059088197dabd6acc" xlink:title=" ">
<polygon fill="white" stroke="#666666" points="606,-78 485,-78 485,-48 606,-48 606,-78"/>
<text text-anchor="start" x="493" y="-66" font-family="Helvetica,sans-Serif" font-size="10.00">hello_world::devices</text>
<text text-anchor="middle" x="545.5" y="-55" font-family="Helvetica,sans-Serif" font-size="10.00">::imu::BMI088::gyroCsH</text>
</a>
</g>
</g>
<!-- Node3&#45;&gt;Node4 -->
<g id="edge25_Node000003_Node000004" class="edge">
<title>Node3&#45;&gt;Node4</title>
<g id="a_edge25_Node000003_Node000004"><a xlink:title=" ">
<path fill="none" stroke="#63b8ff" d="M438.04,-30.45C452.61,-34.91 468.65,-39.81 483.77,-44.43"/>
<polygon fill="#63b8ff" stroke="#63b8ff" points="482.47,-48 493.05,-47.58 484.51,-41.31 482.47,-48"/>
</a>
</g>
</g>
<!-- Node5 -->
<g id="Node000005" class="node">
<title>Node5</title>
<g id="a_Node000005"><a xlink:href="$classhello__world_1_1devices_1_1imu_1_1_b_m_i088.html#ac7e428dbf85a72f9b9689a78e7e73f02" xlink:title=" ">
<polygon fill="white" stroke="#666666" points="605,-30 486,-30 486,0 605,0 605,-30"/>
<text text-anchor="start" x="494" y="-18" font-family="Helvetica,sans-Serif" font-size="10.00">hello_world::devices</text>
<text text-anchor="middle" x="545.5" y="-7" font-family="Helvetica,sans-Serif" font-size="10.00">::imu::BMI088::gyroCsL</text>
</a>
</g>
</g>
<!-- Node3&#45;&gt;Node5 -->
<g id="edge26_Node000003_Node000005" class="edge">
<title>Node3&#45;&gt;Node5</title>
<g id="a_edge26_Node000003_Node000005"><a xlink:title=" ">
<path fill="none" stroke="#63b8ff" d="M449.1,-15C457.56,-15 466.29,-15 474.88,-15"/>
<polygon fill="#63b8ff" stroke="#63b8ff" points="474.64,-18.5 484.64,-15 474.64,-11.5 474.64,-18.5"/>
</a>
</g>
</g>
<!-- Node6&#45;&gt;Node2 -->
<g id="edge28_Node000006_Node000002" class="edge">
<title>Node6&#45;&gt;Node2</title>
<g id="a_edge28_Node000006_Node000002"><a xlink:title=" ">
<path fill="none" stroke="#63b8ff" d="M288.09,-96.75C300.01,-99.35 312.37,-102.04 324.11,-104.61"/>
<polygon fill="#63b8ff" stroke="#63b8ff" points="323.18,-108.2 333.69,-106.91 324.67,-101.36 323.18,-108.2"/>
</a>
</g>
</g>
<!-- Node6&#45;&gt;Node3 -->
<g id="edge29_Node000006_Node000003" class="edge">
<title>Node6&#45;&gt;Node3</title>
<g id="a_edge29_Node000006_Node000003"><a xlink:title=" ">
<path fill="none" stroke="#63b8ff" d="M256.82,-66.68C276.64,-58.39 301.62,-48.01 324,-39 327.67,-37.52 331.47,-36 335.3,-34.49"/>
<polygon fill="#63b8ff" stroke="#63b8ff" points="336.4,-37.42 344.42,-30.5 333.83,-30.91 336.4,-37.42"/>
</a>
</g>
</g>
<!-- Node6&#45;&gt;Node7 -->
<g id="edge30_Node000006_Node000007" class="edge">
<title>Node6&#45;&gt;Node7</title>
<g id="a_edge30_Node000006_Node000007"><a xlink:title=" ">
<path fill="none" stroke="#63b8ff" d="M288.09,-74.22C296.26,-73.28 304.63,-72.31 312.86,-71.36"/>
<polygon fill="#63b8ff" stroke="#63b8ff" points="313.05,-74.75 322.59,-70.13 312.25,-67.8 313.05,-74.75"/>
</a>
</g>
</g>
<!-- Node7&#45;&gt;Node4 -->
<g id="edge31_Node000007_Node000004" class="edge">
<title>Node7&#45;&gt;Node4</title>
<g id="a_edge31_Node000007_Node000004"><a xlink:title=" ">
<path fill="none" stroke="#63b8ff" d="M449.1,-63C457.22,-63 465.6,-63 473.86,-63"/>
<polygon fill="#63b8ff" stroke="#63b8ff" points="473.62,-66.5 483.62,-63 473.62,-59.5 473.62,-66.5"/>
</a>
</g>
</g>
<!-- Node7&#45;&gt;Node5 -->
<g id="edge32_Node000007_Node000005" class="edge">
<title>Node7&#45;&gt;Node5</title>
<g id="a_edge32_Node000007_Node000005"><a xlink:title=" ">
<path fill="none" stroke="#63b8ff" d="M438.04,-47.55C452.61,-43.09 468.65,-38.19 483.77,-33.57"/>
<polygon fill="#63b8ff" stroke="#63b8ff" points="484.51,-36.69 493.05,-30.42 482.47,-30 484.51,-36.69"/>
</a>
</g>
</g>
</g>
</svg>
