<?xml version="1.0" encoding="UTF-8" standalone="no"?>
<!DOCTYPE svg PUBLIC "-//W3C//DTD SVG 1.1//EN"
 "http://www.w3.org/Graphics/SVG/1.1/DTD/svg11.dtd">
<!-- Generated by graphviz version 8.0.3 (20230416.2022)
 -->
<!-- Title: hello_world::devices::motor::GM6020::GM6020 Pages: 1 -->
<svg width="280pt" height="76pt"
 viewBox="0.00 0.00 280.00 75.50" xmlns="http://www.w3.org/2000/svg" xmlns:xlink="http://www.w3.org/1999/xlink">
<g id="graph0" class="graph" transform="scale(1 1) rotate(0) translate(4 71.5)">
<title>hello_world::devices::motor::GM6020::GM6020</title>
<!-- Node1 -->
<g id="Node000001" class="node">
<title>Node1</title>
<g id="a_Node000001"><a xlink:title="GM6020 初始化">
<polygon fill="#999999" stroke="#666666" points="133,-45.5 0,-45.5 0,-15.5 133,-15.5 133,-45.5"/>
<text text-anchor="start" x="8" y="-33.5" font-family="Helvetica,sans-Serif" font-size="10.00">hello_world::devices</text>
<text text-anchor="middle" x="66.5" y="-22.5" font-family="Helvetica,sans-Serif" font-size="10.00">::motor::GM6020::GM6020</text>
</a>
</g>
</g>
<!-- Node2 -->
<g id="Node000002" class="node">
<title>Node2</title>
<g id="a_Node000002"><a xlink:href="$classhello__world_1_1devices_1_1motor_1_1_motor.html#ab3e2187f017e86c6d4a83caa55fe9419" xlink:title=" ">
<polygon fill="white" stroke="#666666" points="272,-67.5 169,-67.5 169,-37.5 272,-37.5 272,-67.5"/>
<text text-anchor="start" x="177" y="-55.5" font-family="Helvetica,sans-Serif" font-size="10.00">hello_world::devices</text>
<text text-anchor="middle" x="220.5" y="-44.5" font-family="Helvetica,sans-Serif" font-size="10.00">::motor::Motor::id</text>
</a>
</g>
</g>
<!-- Node1&#45;&gt;Node2 -->
<g id="edge5_Node000001_Node000002" class="edge">
<title>Node1&#45;&gt;Node2</title>
<g id="a_edge5_Node000001_Node000002"><a xlink:title=" ">
<path fill="none" stroke="#63b8ff" d="M133.29,-40.02C141.45,-41.2 149.77,-42.41 157.87,-43.58"/>
<polygon fill="#63b8ff" stroke="#63b8ff" points="157.34,-47.18 167.74,-45.15 158.34,-40.26 157.34,-47.18"/>
</a>
</g>
</g>
<!-- Node3 -->
<g id="Node000003" class="node">
<title>Node3</title>
<g id="a_Node000003"><a xlink:href="$namespacehello__world.html#a94594f3432536927055026f3f48af251" xlink:title="获取两个变量间的最小值">
<polygon fill="white" stroke="#666666" points="263.5,-19 177.5,-19 177.5,0 263.5,0 263.5,-19"/>
<text text-anchor="middle" x="220.5" y="-7" font-family="Helvetica,sans-Serif" font-size="10.00">hello_world::Min</text>
</a>
</g>
</g>
<!-- Node1&#45;&gt;Node3 -->
<g id="edge6_Node000001_Node000003" class="edge">
<title>Node1&#45;&gt;Node3</title>
<g id="a_edge6_Node000001_Node000003"><a xlink:title=" ">
<path fill="none" stroke="#63b8ff" d="M133.29,-21.41C144.36,-19.88 155.73,-18.31 166.43,-16.83"/>
<polygon fill="#63b8ff" stroke="#63b8ff" points="166.88,-20.17 176.3,-15.33 165.92,-13.23 166.88,-20.17"/>
</a>
</g>
</g>
</g>
</svg>
