<?xml version="1.0" encoding="UTF-8" standalone="no"?>
<!DOCTYPE svg PUBLIC "-//W3C//DTD SVG 1.1//EN"
 "http://www.w3.org/Graphics/SVG/1.1/DTD/svg11.dtd">
<!-- Generated by graphviz version 8.0.3 (20230416.2022)
 -->
<!-- Title: hello_world::devices::imu::BMI088::getAccData Pages: 1 -->
<svg width="599pt" height="86pt"
 viewBox="0.00 0.00 599.00 86.00" xmlns="http://www.w3.org/2000/svg" xmlns:xlink="http://www.w3.org/1999/xlink">
<g id="graph0" class="graph" transform="scale(1 1) rotate(0) translate(4 82)">
<title>hello_world::devices::imu::BMI088::getAccData</title>
<!-- Node1 -->
<g id="Node000001" class="node">
<title>Node1</title>
<g id="a_Node000001"><a xlink:title="获取加速度计数据">
<polygon fill="#999999" stroke="#666666" points="591,-54 457,-54 457,-24 591,-24 591,-54"/>
<text text-anchor="start" x="465" y="-42" font-family="Helvetica,sans-Serif" font-size="10.00">hello_world::devices</text>
<text text-anchor="middle" x="524" y="-31" font-family="Helvetica,sans-Serif" font-size="10.00">::imu::BMI088::getAccData</text>
</a>
</g>
</g>
<!-- Node2 -->
<g id="Node000002" class="node">
<title>Node2</title>
<g id="a_Node000002"><a xlink:href="$classhello__world_1_1devices_1_1imu_1_1_b_m_i088.html#a7bc81c0ed908d469d3c0bde126a80311" xlink:title="加速度计自检测">
<polygon fill="white" stroke="#666666" points="421,-78 287,-78 287,-48 421,-48 421,-78"/>
<text text-anchor="start" x="295" y="-66" font-family="Helvetica,sans-Serif" font-size="10.00">hello_world::devices</text>
<text text-anchor="middle" x="354" y="-55" font-family="Helvetica,sans-Serif" font-size="10.00">::imu::BMI088::accSelfTest</text>
</a>
</g>
</g>
<!-- Node1&#45;&gt;Node2 -->
<g id="edge9_Node000001_Node000002" class="edge">
<title>Node1&#45;&gt;Node2</title>
<g id="a_edge9_Node000001_Node000002"><a xlink:title=" ">
<path fill="none" stroke="#63b8ff" d="M445.94,-50.01C437.76,-51.18 429.5,-52.36 421.47,-53.5"/>
<polygon fill="#63b8ff" stroke="#63b8ff" points="446.2,-53.36 455.6,-48.49 445.21,-46.43 446.2,-53.36"/>
</a>
</g>
</g>
<!-- Node5 -->
<g id="Node000005" class="node">
<title>Node5</title>
<g id="a_Node000005"><a xlink:href="$classhello__world_1_1devices_1_1imu_1_1_b_m_i088.html#aa4b8ef9d615c0ead67e6b88c34bd84d1" xlink:title="获取传感器数据">
<polygon fill="white" stroke="#666666" points="412.5,-30 295.5,-30 295.5,0 412.5,0 412.5,-30"/>
<text text-anchor="start" x="303.5" y="-18" font-family="Helvetica,sans-Serif" font-size="10.00">hello_world::devices</text>
<text text-anchor="middle" x="354" y="-7" font-family="Helvetica,sans-Serif" font-size="10.00">::imu::BMI088::getData</text>
</a>
</g>
</g>
<!-- Node1&#45;&gt;Node5 -->
<g id="edge12_Node000001_Node000005" class="edge">
<title>Node1&#45;&gt;Node5</title>
<g id="a_edge12_Node000001_Node000005"><a xlink:title=" ">
<path fill="none" stroke="#63b8ff" d="M445.97,-28C434.8,-26.4 423.47,-24.78 412.76,-23.25"/>
<polygon fill="#63b8ff" stroke="#63b8ff" points="445.21,-31.57 455.6,-29.51 446.2,-24.64 445.21,-31.57"/>
</a>
</g>
</g>
<!-- Node3 -->
<g id="Node000003" class="node">
<title>Node3</title>
<g id="a_Node000003"><a xlink:href="$classhello__world_1_1devices_1_1imu_1_1_b_m_i088.html#af18363d9dd6de94e4961ce1772923483" xlink:title="加速度计配置">
<polygon fill="white" stroke="#666666" points="251,-78 139,-78 139,-48 251,-48 251,-78"/>
<text text-anchor="start" x="147" y="-66" font-family="Helvetica,sans-Serif" font-size="10.00">hello_world::devices</text>
<text text-anchor="middle" x="195" y="-55" font-family="Helvetica,sans-Serif" font-size="10.00">::imu::BMI088::accInit</text>
</a>
</g>
</g>
<!-- Node2&#45;&gt;Node3 -->
<g id="edge10_Node000002_Node000003" class="edge">
<title>Node2&#45;&gt;Node3</title>
<g id="a_edge10_Node000002_Node000003"><a xlink:title=" ">
<path fill="none" stroke="#63b8ff" d="M275.92,-63C267.55,-63 259.17,-63 251.14,-63"/>
<polygon fill="#63b8ff" stroke="#63b8ff" points="275.87,-66.5 285.87,-63 275.87,-59.5 275.87,-66.5"/>
</a>
</g>
</g>
<!-- Node4 -->
<g id="Node000004" class="node">
<title>Node4</title>
<g id="a_Node000004"><a xlink:href="$classhello__world_1_1devices_1_1imu_1_1_b_m_i088.html#a623a7d90db0585ea45bac12fd3d19061" xlink:title="进行 BMI088 芯片配置">
<polygon fill="white" stroke="#666666" points="103,-78 0,-78 0,-48 103,-48 103,-78"/>
<text text-anchor="start" x="8" y="-66" font-family="Helvetica,sans-Serif" font-size="10.00">hello_world::devices</text>
<text text-anchor="middle" x="51.5" y="-55" font-family="Helvetica,sans-Serif" font-size="10.00">::imu::BMI088::init</text>
</a>
</g>
</g>
<!-- Node3&#45;&gt;Node4 -->
<g id="edge11_Node000003_Node000004" class="edge">
<title>Node3&#45;&gt;Node4</title>
<g id="a_edge11_Node000003_Node000004"><a xlink:title=" ">
<path fill="none" stroke="#63b8ff" d="M127.98,-63C119.61,-63 111.15,-63 103.07,-63"/>
<polygon fill="#63b8ff" stroke="#63b8ff" points="127.89,-66.5 137.89,-63 127.89,-59.5 127.89,-66.5"/>
</a>
</g>
</g>
</g>
</svg>
