<?xml version="1.0" encoding="UTF-8" standalone="no"?>
<!DOCTYPE svg PUBLIC "-//W3C//DTD SVG 1.1//EN"
 "http://www.w3.org/Graphics/SVG/1.1/DTD/svg11.dtd">
<!-- Generated by graphviz version 8.0.3 (20230416.2022)
 -->
<!-- Title: hello_world::devices::motor::Motor::id Pages: 1 -->
<svg width="298pt" height="326pt"
 viewBox="0.00 0.00 298.00 326.00" xmlns="http://www.w3.org/2000/svg" xmlns:xlink="http://www.w3.org/1999/xlink">
<g id="graph0" class="graph" transform="scale(1 1) rotate(0) translate(4 322)">
<title>hello_world::devices::motor::Motor::id</title>
<!-- Node1 -->
<g id="Node000001" class="node">
<title>Node1</title>
<g id="a_Node000001"><a xlink:title=" ">
<polygon fill="#999999" stroke="#666666" points="290,-174 187,-174 187,-144 290,-144 290,-174"/>
<text text-anchor="start" x="195" y="-162" font-family="Helvetica,sans-Serif" font-size="10.00">hello_world::devices</text>
<text text-anchor="middle" x="238.5" y="-151" font-family="Helvetica,sans-Serif" font-size="10.00">::motor::Motor::id</text>
</a>
</g>
</g>
<!-- Node2 -->
<g id="Node000002" class="node">
<title>Node2</title>
<g id="a_Node000002"><a xlink:href="$classhello__world_1_1devices_1_1motor_1_1_a1.html#a1c439b72ce074a0e04d38b06749f499c" xlink:title="A1 初始化">
<polygon fill="white" stroke="#666666" points="127,-318 24,-318 24,-288 127,-288 127,-318"/>
<text text-anchor="start" x="32" y="-306" font-family="Helvetica,sans-Serif" font-size="10.00">hello_world::devices</text>
<text text-anchor="middle" x="75.5" y="-295" font-family="Helvetica,sans-Serif" font-size="10.00">::motor::A1::A1</text>
</a>
</g>
</g>
<!-- Node1&#45;&gt;Node2 -->
<g id="edge15_Node000001_Node000002" class="edge">
<title>Node1&#45;&gt;Node2</title>
<g id="a_edge15_Node000001_Node000002"><a xlink:title=" ">
<path fill="none" stroke="#63b8ff" d="M225.68,-183.86C211.55,-211 185.44,-253.95 151,-279 143.97,-284.12 135.79,-288.17 127.49,-291.38"/>
<polygon fill="#63b8ff" stroke="#63b8ff" points="229.12,-185.8 230.5,-175.3 222.87,-182.65 229.12,-185.8"/>
</a>
</g>
</g>
<!-- Node3 -->
<g id="Node000003" class="node">
<title>Node3</title>
<g id="a_Node000003"><a xlink:href="$classhello__world_1_1devices_1_1motor_1_1_d_m___j4310.html#a0a61fcd9a79f7bbb0addccaf677f2c5f" xlink:title="DM_J4310 初始化">
<polygon fill="white" stroke="#666666" points="151,-270 0,-270 0,-240 151,-240 151,-270"/>
<text text-anchor="start" x="8" y="-258" font-family="Helvetica,sans-Serif" font-size="10.00">hello_world::devices</text>
<text text-anchor="middle" x="75.5" y="-247" font-family="Helvetica,sans-Serif" font-size="10.00">::motor::DM_J4310::DM_J4310</text>
</a>
</g>
</g>
<!-- Node1&#45;&gt;Node3 -->
<g id="edge16_Node000001_Node000003" class="edge">
<title>Node1&#45;&gt;Node3</title>
<g id="a_edge16_Node000001_Node000003"><a xlink:title=" ">
<path fill="none" stroke="#63b8ff" d="M215.41,-181.52C198.91,-197.25 175.13,-217.73 151,-231 145.17,-234.21 138.84,-237.07 132.41,-239.6"/>
<polygon fill="#63b8ff" stroke="#63b8ff" points="217.17,-184.71 221.89,-175.23 212.29,-179.7 217.17,-184.71"/>
</a>
</g>
</g>
<!-- Node4 -->
<g id="Node000004" class="node">
<title>Node4</title>
<g id="a_Node000004"><a xlink:href="$classhello__world_1_1devices_1_1motor_1_1_g_m6020.html#ad61341de888f13343d20bd7e0b06f3c1" xlink:title="GM6020 初始化">
<polygon fill="white" stroke="#666666" points="142,-222 9,-222 9,-192 142,-192 142,-222"/>
<text text-anchor="start" x="17" y="-210" font-family="Helvetica,sans-Serif" font-size="10.00">hello_world::devices</text>
<text text-anchor="middle" x="75.5" y="-199" font-family="Helvetica,sans-Serif" font-size="10.00">::motor::GM6020::GM6020</text>
</a>
</g>
</g>
<!-- Node1&#45;&gt;Node4 -->
<g id="edge17_Node000001_Node000004" class="edge">
<title>Node1&#45;&gt;Node4</title>
<g id="a_edge17_Node000001_Node000004"><a xlink:title=" ">
<path fill="none" stroke="#63b8ff" d="M176.32,-177.24C160.46,-181.97 143.54,-187.01 128.22,-191.58"/>
<polygon fill="#63b8ff" stroke="#63b8ff" points="176.98,-180.4 185.56,-174.19 174.98,-173.69 176.98,-180.4"/>
</a>
</g>
</g>
<!-- Node5 -->
<g id="Node000005" class="node">
<title>Node5</title>
<g id="a_Node000005"><a xlink:href="$classhello__world_1_1devices_1_1motor_1_1_m2006.html#a52ce5e7bbbb2fffe82f86291b8876221" xlink:title="M2006 初始化">
<polygon fill="white" stroke="#666666" points="134.5,-174 16.5,-174 16.5,-144 134.5,-144 134.5,-174"/>
<text text-anchor="start" x="24.5" y="-162" font-family="Helvetica,sans-Serif" font-size="10.00">hello_world::devices</text>
<text text-anchor="middle" x="75.5" y="-151" font-family="Helvetica,sans-Serif" font-size="10.00">::motor::M2006::M2006</text>
</a>
</g>
</g>
<!-- Node1&#45;&gt;Node5 -->
<g id="edge18_Node000001_Node000005" class="edge">
<title>Node1&#45;&gt;Node5</title>
<g id="a_edge18_Node000001_Node000005"><a xlink:title=" ">
<path fill="none" stroke="#63b8ff" d="M175.56,-159C162.22,-159 148.17,-159 134.97,-159"/>
<polygon fill="#63b8ff" stroke="#63b8ff" points="175.56,-162.5 185.56,-159 175.56,-155.5 175.56,-162.5"/>
</a>
</g>
</g>
<!-- Node6 -->
<g id="Node000006" class="node">
<title>Node6</title>
<g id="a_Node000006"><a xlink:href="$classhello__world_1_1devices_1_1motor_1_1_m3508.html#a2fbed6fbaa90b42893978a1805ea78e6" xlink:title="M3508 初始化">
<polygon fill="white" stroke="#666666" points="134.5,-126 16.5,-126 16.5,-96 134.5,-96 134.5,-126"/>
<text text-anchor="start" x="24.5" y="-114" font-family="Helvetica,sans-Serif" font-size="10.00">hello_world::devices</text>
<text text-anchor="middle" x="75.5" y="-103" font-family="Helvetica,sans-Serif" font-size="10.00">::motor::M3508::M3508</text>
</a>
</g>
</g>
<!-- Node1&#45;&gt;Node6 -->
<g id="edge19_Node000001_Node000006" class="edge">
<title>Node1&#45;&gt;Node6</title>
<g id="a_edge19_Node000001_Node000006"><a xlink:title=" ">
<path fill="none" stroke="#63b8ff" d="M176.32,-140.76C160.46,-136.03 143.54,-130.99 128.22,-126.42"/>
<polygon fill="#63b8ff" stroke="#63b8ff" points="174.98,-144.31 185.56,-143.81 176.98,-137.6 174.98,-144.31"/>
</a>
</g>
</g>
<!-- Node7 -->
<g id="Node000007" class="node">
<title>Node7</title>
<g id="a_Node000007"><a xlink:href="$classhello__world_1_1devices_1_1motor_1_1_m8910.html#accd858d8bd3db4aa48532ec8c1f8bd44" xlink:title="M8910 初始化">
<polygon fill="white" stroke="#666666" points="134.5,-78 16.5,-78 16.5,-48 134.5,-48 134.5,-78"/>
<text text-anchor="start" x="24.5" y="-66" font-family="Helvetica,sans-Serif" font-size="10.00">hello_world::devices</text>
<text text-anchor="middle" x="75.5" y="-55" font-family="Helvetica,sans-Serif" font-size="10.00">::motor::M8910::M8910</text>
</a>
</g>
</g>
<!-- Node1&#45;&gt;Node7 -->
<g id="edge20_Node000001_Node000007" class="edge">
<title>Node1&#45;&gt;Node7</title>
<g id="a_edge20_Node000001_Node000007"><a xlink:title=" ">
<path fill="none" stroke="#63b8ff" d="M215.41,-136.48C198.91,-120.75 175.13,-100.27 151,-87 145.17,-83.79 138.84,-80.93 132.41,-78.4"/>
<polygon fill="#63b8ff" stroke="#63b8ff" points="212.29,-138.3 221.89,-142.77 217.17,-133.29 212.29,-138.3"/>
</a>
</g>
</g>
<!-- Node8 -->
<g id="Node000008" class="node">
<title>Node8</title>
<g id="a_Node000008"><a xlink:href="$classhello__world_1_1devices_1_1motor_1_1_m_f9025v2.html#a87787e5484356144bc7bce7b229398de" xlink:title="MF9025v2 初始化">
<polygon fill="white" stroke="#666666" points="149.5,-30 1.5,-30 1.5,0 149.5,0 149.5,-30"/>
<text text-anchor="start" x="9.5" y="-18" font-family="Helvetica,sans-Serif" font-size="10.00">hello_world::devices</text>
<text text-anchor="middle" x="75.5" y="-7" font-family="Helvetica,sans-Serif" font-size="10.00">::motor::MF9025v2::MF9025v2</text>
</a>
</g>
</g>
<!-- Node1&#45;&gt;Node8 -->
<g id="edge21_Node000001_Node000008" class="edge">
<title>Node1&#45;&gt;Node8</title>
<g id="a_edge21_Node000001_Node000008"><a xlink:title=" ">
<path fill="none" stroke="#63b8ff" d="M225.68,-134.14C211.55,-107 185.44,-64.05 151,-39 146.49,-35.72 141.52,-32.88 136.35,-30.42"/>
<polygon fill="#63b8ff" stroke="#63b8ff" points="222.87,-135.35 230.5,-142.7 229.12,-132.2 222.87,-135.35"/>
</a>
</g>
</g>
</g>
</svg>
