<?xml version="1.0" encoding="UTF-8" standalone="no"?>
<!DOCTYPE svg PUBLIC "-//W3C//DTD SVG 1.1//EN"
 "http://www.w3.org/Graphics/SVG/1.1/DTD/svg11.dtd">
<!-- Generated by graphviz version 8.0.3 (20230416.2022)
 -->
<!-- Title: hello_world::devices::imu::BMI088::getData Pages: 1 -->
<svg width="638pt" height="224pt"
 viewBox="0.00 0.00 638.00 224.00" xmlns="http://www.w3.org/2000/svg" xmlns:xlink="http://www.w3.org/1999/xlink">
<g id="graph0" class="graph" transform="scale(1 1) rotate(0) translate(4 220)">
<title>hello_world::devices::imu::BMI088::getData</title>
<!-- Node1 -->
<g id="Node000001" class="node">
<title>Node1</title>
<g id="a_Node000001"><a xlink:title="获取传感器数据">
<polygon fill="#999999" stroke="#666666" points="117,-144 0,-144 0,-114 117,-114 117,-144"/>
<text text-anchor="start" x="8" y="-132" font-family="Helvetica,sans-Serif" font-size="10.00">hello_world::devices</text>
<text text-anchor="middle" x="58.5" y="-121" font-family="Helvetica,sans-Serif" font-size="10.00">::imu::BMI088::getData</text>
</a>
</g>
</g>
<!-- Node2 -->
<g id="Node000002" class="node">
<title>Node2</title>
<g id="a_Node000002"><a xlink:href="$namespacehello__world_1_1devices_1_1imu.html#a6fc8717b2ca9de9512855bad4d226769" xlink:title="微秒级延时">
<polygon fill="white" stroke="#666666" points="273.5,-216 170.5,-216 170.5,-186 273.5,-186 273.5,-216"/>
<text text-anchor="start" x="178.5" y="-204" font-family="Helvetica,sans-Serif" font-size="10.00">hello_world::devices</text>
<text text-anchor="middle" x="222" y="-193" font-family="Helvetica,sans-Serif" font-size="10.00">::imu::DelayUs</text>
</a>
</g>
</g>
<!-- Node1&#45;&gt;Node2 -->
<g id="edge23_Node000001_Node000002" class="edge">
<title>Node1&#45;&gt;Node2</title>
<g id="a_edge23_Node000001_Node000002"><a xlink:title=" ">
<path fill="none" stroke="#63b8ff" d="M86.85,-144.28C105.25,-154.25 130.21,-167.18 153,-177 156.66,-178.58 160.47,-180.14 164.33,-181.65"/>
<polygon fill="#63b8ff" stroke="#63b8ff" points="163,-185.27 173.59,-185.56 165.49,-178.73 163,-185.27"/>
</a>
</g>
</g>
<!-- Node3 -->
<g id="Node000003" class="node">
<title>Node3</title>
<g id="a_Node000003"><a xlink:href="$classhello__world_1_1devices_1_1imu_1_1_b_m_i088.html#ad236f84f69a0ef4e8befa96479bf5618" xlink:title="获取加速度计数据">
<polygon fill="white" stroke="#666666" points="289,-168 155,-168 155,-138 289,-138 289,-168"/>
<text text-anchor="start" x="163" y="-156" font-family="Helvetica,sans-Serif" font-size="10.00">hello_world::devices</text>
<text text-anchor="middle" x="222" y="-145" font-family="Helvetica,sans-Serif" font-size="10.00">::imu::BMI088::getAccData</text>
</a>
</g>
</g>
<!-- Node1&#45;&gt;Node3 -->
<g id="edge24_Node000001_Node000003" class="edge">
<title>Node1&#45;&gt;Node3</title>
<g id="a_edge24_Node000001_Node000003"><a xlink:title=" ">
<path fill="none" stroke="#63b8ff" d="M117.35,-137.6C125.97,-138.88 134.97,-140.22 143.92,-141.54"/>
<polygon fill="#63b8ff" stroke="#63b8ff" points="143.36,-145.15 153.76,-143.16 144.39,-138.22 143.36,-145.15"/>
</a>
</g>
</g>
<!-- Node7 -->
<g id="Node000007" class="node">
<title>Node7</title>
<g id="a_Node000007"><a xlink:href="$classhello__world_1_1devices_1_1imu_1_1_b_m_i088.html#a00755ad04aebc2df220b39f1a83bf811" xlink:title="获取陀螺仪数据">
<polygon fill="white" stroke="#666666" points="291,-72 153,-72 153,-42 291,-42 291,-72"/>
<text text-anchor="start" x="161" y="-60" font-family="Helvetica,sans-Serif" font-size="10.00">hello_world::devices</text>
<text text-anchor="middle" x="222" y="-49" font-family="Helvetica,sans-Serif" font-size="10.00">::imu::BMI088::getGyroData</text>
</a>
</g>
</g>
<!-- Node1&#45;&gt;Node7 -->
<g id="edge28_Node000001_Node000007" class="edge">
<title>Node1&#45;&gt;Node7</title>
<g id="a_edge28_Node000001_Node000007"><a xlink:title=" ">
<path fill="none" stroke="#63b8ff" d="M86.85,-113.72C105.25,-103.75 130.21,-90.82 153,-81 156.66,-79.42 160.47,-77.86 164.33,-76.35"/>
<polygon fill="#63b8ff" stroke="#63b8ff" points="165.49,-79.27 173.59,-72.44 163,-72.73 165.49,-79.27"/>
</a>
</g>
</g>
<!-- Node11 -->
<g id="Node000011" class="node">
<title>Node11</title>
<g id="a_Node000011"><a xlink:href="$classhello__world_1_1devices_1_1imu_1_1_b_m_i088.html#a0672cec3591e037942c7bc03b31dd24a" xlink:title="获取温度数据">
<polygon fill="white" stroke="#666666" points="282.5,-120 161.5,-120 161.5,-90 282.5,-90 282.5,-120"/>
<text text-anchor="start" x="169.5" y="-108" font-family="Helvetica,sans-Serif" font-size="10.00">hello_world::devices</text>
<text text-anchor="middle" x="222" y="-97" font-family="Helvetica,sans-Serif" font-size="10.00">::imu::BMI088::getTemp</text>
</a>
</g>
</g>
<!-- Node1&#45;&gt;Node11 -->
<g id="edge32_Node000001_Node000011" class="edge">
<title>Node1&#45;&gt;Node11</title>
<g id="a_edge32_Node000001_Node000011"><a xlink:title=" ">
<path fill="none" stroke="#63b8ff" d="M117.35,-120.4C128.01,-118.82 139.24,-117.15 150.23,-115.52"/>
<polygon fill="#63b8ff" stroke="#63b8ff" points="150.73,-118.83 160.1,-113.9 149.7,-111.91 150.73,-118.83"/>
</a>
</g>
</g>
<!-- Node4 -->
<g id="Node000004" class="node">
<title>Node4</title>
<g id="a_Node000004"><a xlink:href="$classhello__world_1_1devices_1_1imu_1_1_b_m_i088.html#ad8bdc7c9eee4bb3c35ee8467df9e49ae" xlink:title="加速度计多寄存器数据读取">
<polygon fill="white" stroke="#666666" points="471.5,-144 328.5,-144 328.5,-114 471.5,-114 471.5,-144"/>
<text text-anchor="start" x="336.5" y="-132" font-family="Helvetica,sans-Serif" font-size="10.00">hello_world::devices</text>
<text text-anchor="middle" x="400" y="-121" font-family="Helvetica,sans-Serif" font-size="10.00">::imu::BMI088::accMultiRead</text>
</a>
</g>
</g>
<!-- Node3&#45;&gt;Node4 -->
<g id="edge25_Node000003_Node000004" class="edge">
<title>Node3&#45;&gt;Node4</title>
<g id="a_edge25_Node000003_Node000004"><a xlink:title=" ">
<path fill="none" stroke="#63b8ff" d="M289.29,-143.96C298.39,-142.72 307.83,-141.43 317.17,-140.16"/>
<polygon fill="#63b8ff" stroke="#63b8ff" points="317.63,-143.49 327.07,-138.67 316.69,-136.56 317.63,-143.49"/>
</a>
</g>
</g>
<!-- Node5 -->
<g id="Node000005" class="node">
<title>Node5</title>
<g id="a_Node000005"><a xlink:href="$classhello__world_1_1devices_1_1imu_1_1_b_m_i088.html#abe2be687095fa7b54d31a3a69693b306" xlink:title=" ">
<polygon fill="white" stroke="#666666" points="628.5,-180 510.5,-180 510.5,-150 628.5,-150 628.5,-180"/>
<text text-anchor="start" x="518.5" y="-168" font-family="Helvetica,sans-Serif" font-size="10.00">hello_world::devices</text>
<text text-anchor="middle" x="569.5" y="-157" font-family="Helvetica,sans-Serif" font-size="10.00">::imu::BMI088::accCsH</text>
</a>
</g>
</g>
<!-- Node4&#45;&gt;Node5 -->
<g id="edge26_Node000004_Node000005" class="edge">
<title>Node4&#45;&gt;Node5</title>
<g id="a_edge26_Node000004_Node000005"><a xlink:title=" ">
<path fill="none" stroke="#63b8ff" d="M471.55,-144.16C480.8,-146.15 490.28,-148.19 499.5,-150.17"/>
<polygon fill="#63b8ff" stroke="#63b8ff" points="498.68,-153.79 509.2,-152.47 500.15,-146.95 498.68,-153.79"/>
</a>
</g>
</g>
<!-- Node6 -->
<g id="Node000006" class="node">
<title>Node6</title>
<g id="a_Node000006"><a xlink:href="$classhello__world_1_1devices_1_1imu_1_1_b_m_i088.html#ad1ea4fa147f8bb2da18049c229404f65" xlink:title=" ">
<polygon fill="white" stroke="#666666" points="627.5,-132 511.5,-132 511.5,-102 627.5,-102 627.5,-132"/>
<text text-anchor="start" x="519.5" y="-120" font-family="Helvetica,sans-Serif" font-size="10.00">hello_world::devices</text>
<text text-anchor="middle" x="569.5" y="-109" font-family="Helvetica,sans-Serif" font-size="10.00">::imu::BMI088::accCsL</text>
</a>
</g>
</g>
<!-- Node4&#45;&gt;Node6 -->
<g id="edge27_Node000004_Node000006" class="edge">
<title>Node4&#45;&gt;Node6</title>
<g id="a_edge27_Node000004_Node000006"><a xlink:title=" ">
<path fill="none" stroke="#63b8ff" d="M471.55,-123.95C481.06,-123.26 490.8,-122.57 500.27,-121.89"/>
<polygon fill="#63b8ff" stroke="#63b8ff" points="500.51,-125.31 510.23,-121.1 500.01,-118.33 500.51,-125.31"/>
</a>
</g>
</g>
<!-- Node8 -->
<g id="Node000008" class="node">
<title>Node8</title>
<g id="a_Node000008"><a xlink:href="$classhello__world_1_1devices_1_1imu_1_1_b_m_i088.html#a443cf9b8f3e44acea8ac21258b4d7363" xlink:title="陀螺仪多寄存器数据读取">
<polygon fill="white" stroke="#666666" points="473,-72 327,-72 327,-42 473,-42 473,-72"/>
<text text-anchor="start" x="335" y="-60" font-family="Helvetica,sans-Serif" font-size="10.00">hello_world::devices</text>
<text text-anchor="middle" x="400" y="-49" font-family="Helvetica,sans-Serif" font-size="10.00">::imu::BMI088::gyroMultiRead</text>
</a>
</g>
</g>
<!-- Node7&#45;&gt;Node8 -->
<g id="edge29_Node000007_Node000008" class="edge">
<title>Node7&#45;&gt;Node8</title>
<g id="a_edge29_Node000007_Node000008"><a xlink:title=" ">
<path fill="none" stroke="#63b8ff" d="M291.3,-57C299.36,-57 307.66,-57 315.89,-57"/>
<polygon fill="#63b8ff" stroke="#63b8ff" points="315.66,-60.5 325.66,-57 315.66,-53.5 315.66,-60.5"/>
</a>
</g>
</g>
<!-- Node9 -->
<g id="Node000009" class="node">
<title>Node9</title>
<g id="a_Node000009"><a xlink:href="$classhello__world_1_1devices_1_1imu_1_1_b_m_i088.html#a54cd103bad13c06059088197dabd6acc" xlink:title=" ">
<polygon fill="white" stroke="#666666" points="630,-78 509,-78 509,-48 630,-48 630,-78"/>
<text text-anchor="start" x="517" y="-66" font-family="Helvetica,sans-Serif" font-size="10.00">hello_world::devices</text>
<text text-anchor="middle" x="569.5" y="-55" font-family="Helvetica,sans-Serif" font-size="10.00">::imu::BMI088::gyroCsH</text>
</a>
</g>
</g>
<!-- Node8&#45;&gt;Node9 -->
<g id="edge30_Node000008_Node000009" class="edge">
<title>Node8&#45;&gt;Node9</title>
<g id="a_edge30_Node000008_Node000009"><a xlink:title=" ">
<path fill="none" stroke="#63b8ff" d="M473.49,-59.6C481.58,-59.89 489.81,-60.18 497.87,-60.47"/>
<polygon fill="#63b8ff" stroke="#63b8ff" points="497.61,-64 507.73,-60.86 497.86,-57 497.61,-64"/>
</a>
</g>
</g>
<!-- Node10 -->
<g id="Node000010" class="node">
<title>Node10</title>
<g id="a_Node000010"><a xlink:href="$classhello__world_1_1devices_1_1imu_1_1_b_m_i088.html#ac7e428dbf85a72f9b9689a78e7e73f02" xlink:title=" ">
<polygon fill="white" stroke="#666666" points="629,-30 510,-30 510,0 629,0 629,-30"/>
<text text-anchor="start" x="518" y="-18" font-family="Helvetica,sans-Serif" font-size="10.00">hello_world::devices</text>
<text text-anchor="middle" x="569.5" y="-7" font-family="Helvetica,sans-Serif" font-size="10.00">::imu::BMI088::gyroCsL</text>
</a>
</g>
</g>
<!-- Node8&#45;&gt;Node10 -->
<g id="edge31_Node000008_Node000010" class="edge">
<title>Node8&#45;&gt;Node10</title>
<g id="a_edge31_Node000008_Node000010"><a xlink:title=" ">
<path fill="none" stroke="#63b8ff" d="M462.42,-41.6C474.34,-38.61 486.9,-35.46 499.05,-32.41"/>
<polygon fill="#63b8ff" stroke="#63b8ff" points="499.75,-35.6 508.6,-29.77 498.05,-28.81 499.75,-35.6"/>
</a>
</g>
</g>
<!-- Node11&#45;&gt;Node4 -->
<g id="edge33_Node000011_Node000004" class="edge">
<title>Node11&#45;&gt;Node4</title>
<g id="a_edge33_Node000011_Node000004"><a xlink:title=" ">
<path fill="none" stroke="#63b8ff" d="M282.59,-113.13C293.81,-114.66 305.72,-116.28 317.48,-117.88"/>
<polygon fill="#63b8ff" stroke="#63b8ff" points="316.83,-121.46 327.21,-119.35 317.78,-114.53 316.83,-121.46"/>
</a>
</g>
</g>
</g>
</svg>
