<?xml version="1.0" encoding="UTF-8" standalone="no"?>
<!DOCTYPE svg PUBLIC "-//W3C//DTD SVG 1.1//EN"
 "http://www.w3.org/Graphics/SVG/1.1/DTD/svg11.dtd">
<!-- Generated by graphviz version 8.0.3 (20230416.2022)
 -->
<!-- Title: hello_world::devices::motor::GM6020::decode Pages: 1 -->
<svg width="481pt" height="155pt"
 viewBox="0.00 0.00 481.00 155.00" xmlns="http://www.w3.org/2000/svg" xmlns:xlink="http://www.w3.org/1999/xlink">
<g id="graph0" class="graph" transform="scale(1 1) rotate(0) translate(4 151)">
<title>hello_world::devices::motor::GM6020::decode</title>
<!-- Node1 -->
<g id="Node000001" class="node">
<title>Node1</title>
<g id="a_Node000001"><a xlink:title="将电调发回的 CAN 报文进行解包">
<polygon fill="#999999" stroke="#666666" points="128,-78 0,-78 0,-48 128,-48 128,-78"/>
<text text-anchor="start" x="8" y="-66" font-family="Helvetica,sans-Serif" font-size="10.00">hello_world::devices</text>
<text text-anchor="middle" x="64" y="-55" font-family="Helvetica,sans-Serif" font-size="10.00">::motor::GM6020::decode</text>
</a>
</g>
</g>
<!-- Node2 -->
<g id="Node000002" class="node">
<title>Node2</title>
<g id="a_Node000002"><a xlink:href="$classhello__world_1_1devices_1_1motor_1_1_motor.html#a21092858a98af5688b398d57cd203592" xlink:title="将角度转换到指定范围">
<polygon fill="white" stroke="#666666" points="295,-126 164,-126 164,-96 295,-96 295,-126"/>
<text text-anchor="start" x="172" y="-114" font-family="Helvetica,sans-Serif" font-size="10.00">hello_world::devices</text>
<text text-anchor="middle" x="229.5" y="-103" font-family="Helvetica,sans-Serif" font-size="10.00">::motor::Motor::normAngle</text>
</a>
</g>
</g>
<!-- Node1&#45;&gt;Node2 -->
<g id="edge11_Node000001_Node000002" class="edge">
<title>Node1&#45;&gt;Node2</title>
<g id="a_edge11_Node000001_Node000002"><a xlink:title=" ">
<path fill="none" stroke="#63b8ff" d="M117.63,-78.45C132.95,-82.95 149.83,-87.9 165.71,-92.57"/>
<polygon fill="#63b8ff" stroke="#63b8ff" points="164.39,-96.12 174.97,-95.58 166.36,-89.4 164.39,-96.12"/>
</a>
</g>
</g>
<!-- Node5 -->
<g id="Node000005" class="node">
<title>Node5</title>
<g id="a_Node000005"><a xlink:href="$classhello__world_1_1devices_1_1motor_1_1_motor.html#a1e4467d9f449b9c6c7d6886fffa89667" xlink:title="将原始报文内容转换为转子电流">
<polygon fill="white" stroke="#666666" points="290,-78 169,-78 169,-48 290,-48 290,-78"/>
<text text-anchor="start" x="177" y="-66" font-family="Helvetica,sans-Serif" font-size="10.00">hello_world::devices</text>
<text text-anchor="middle" x="229.5" y="-55" font-family="Helvetica,sans-Serif" font-size="10.00">::motor::Motor::raw2curr</text>
</a>
</g>
</g>
<!-- Node1&#45;&gt;Node5 -->
<g id="edge14_Node000001_Node000005" class="edge">
<title>Node1&#45;&gt;Node5</title>
<g id="a_edge14_Node000001_Node000005"><a xlink:title=" ">
<path fill="none" stroke="#63b8ff" d="M128.21,-63C137.88,-63 147.9,-63 157.72,-63"/>
<polygon fill="#63b8ff" stroke="#63b8ff" points="157.67,-66.5 167.67,-63 157.67,-59.5 157.67,-66.5"/>
</a>
</g>
</g>
<!-- Node6 -->
<g id="Node000006" class="node">
<title>Node6</title>
<g id="a_Node000006"><a xlink:href="$classhello__world_1_1devices_1_1motor_1_1_motor.html#af74a8c4ad7c0067a2d71afd711639366" xlink:title="将原始报文内容转换为输出端力矩">
<polygon fill="white" stroke="#666666" points="290,-30 169,-30 169,0 290,0 290,-30"/>
<text text-anchor="start" x="177" y="-18" font-family="Helvetica,sans-Serif" font-size="10.00">hello_world::devices</text>
<text text-anchor="middle" x="229.5" y="-7" font-family="Helvetica,sans-Serif" font-size="10.00">::motor::Motor::raw2torq</text>
</a>
</g>
</g>
<!-- Node1&#45;&gt;Node6 -->
<g id="edge15_Node000001_Node000006" class="edge">
<title>Node1&#45;&gt;Node6</title>
<g id="a_edge15_Node000001_Node000006"><a xlink:title=" ">
<path fill="none" stroke="#63b8ff" d="M117.63,-47.55C132.95,-43.05 149.83,-38.1 165.71,-33.43"/>
<polygon fill="#63b8ff" stroke="#63b8ff" points="166.36,-36.6 174.97,-30.42 164.39,-29.88 166.36,-36.6"/>
</a>
</g>
</g>
<!-- Node3 -->
<g id="Node000003" class="node">
<title>Node3</title>
<g id="a_Node000003"><a xlink:href="$classhello__world_1_1devices_1_1motor_1_1_motor.html#acad1e1f1792ab8cb6265b1d5195737f6" xlink:title=" ">
<polygon fill="white" stroke="#666666" points="455.5,-147 348.5,-147 348.5,-117 455.5,-117 455.5,-147"/>
<text text-anchor="start" x="356.5" y="-135" font-family="Helvetica,sans-Serif" font-size="10.00">hello_world::devices</text>
<text text-anchor="middle" x="402" y="-124" font-family="Helvetica,sans-Serif" font-size="10.00">::motor::Motor::angle</text>
</a>
</g>
</g>
<!-- Node2&#45;&gt;Node3 -->
<g id="edge12_Node000002_Node000003" class="edge">
<title>Node2&#45;&gt;Node3</title>
<g id="a_edge12_Node000002_Node000003"><a xlink:title=" ">
<path fill="none" stroke="#63b8ff" d="M295.45,-119C309.18,-120.69 323.67,-122.48 337.36,-124.16"/>
<polygon fill="#63b8ff" stroke="#63b8ff" points="336.78,-127.74 347.13,-125.49 337.64,-120.79 336.78,-127.74"/>
</a>
</g>
</g>
<!-- Node4 -->
<g id="Node000004" class="node">
<title>Node4</title>
<g id="a_Node000004"><a xlink:href="$namespacehello__world.html#a71f5ddbc81f1fa181ecefaf0b1f51fa8" xlink:title="将周期性数据归一化到指定周期区间">
<polygon fill="white" stroke="#666666" points="473,-98.5 331,-98.5 331,-79.5 473,-79.5 473,-98.5"/>
<text text-anchor="middle" x="402" y="-86.5" font-family="Helvetica,sans-Serif" font-size="10.00">hello_world::NormPeriodData</text>
</a>
</g>
</g>
<!-- Node2&#45;&gt;Node4 -->
<g id="edge13_Node000002_Node000004" class="edge">
<title>Node2&#45;&gt;Node4</title>
<g id="a_edge13_Node000002_Node000004"><a xlink:title=" ">
<path fill="none" stroke="#63b8ff" d="M295.45,-102.62C303.43,-101.59 311.66,-100.53 319.85,-99.47"/>
<polygon fill="#63b8ff" stroke="#63b8ff" points="320.08,-102.84 329.55,-98.09 319.19,-95.9 320.08,-102.84"/>
</a>
</g>
</g>
</g>
</svg>
