<?xml version="1.0" encoding="UTF-8" standalone="no"?>
<!DOCTYPE svg PUBLIC "-//W3C//DTD SVG 1.1//EN"
 "http://www.w3.org/Graphics/SVG/1.1/DTD/svg11.dtd">
<!-- Generated by graphviz version 8.0.3 (20230416.2022)
 -->
<!-- Title: hello_world::algorithms::controller::pid::BasicPid Pages: 1 -->
<svg width="134pt" height="159pt"
 viewBox="0.00 0.00 134.00 159.00" xmlns="http://www.w3.org/2000/svg" xmlns:xlink="http://www.w3.org/1999/xlink">
<g id="graph0" class="graph" transform="scale(1 1) rotate(0) translate(4 155)">
<title>hello_world::algorithms::controller::pid::BasicPid</title>
<!-- Node1 -->
<g id="Node000001" class="node">
<title>Node1</title>
<g id="a_Node000001"><a xlink:title="基础 PID 控制器类，继承自Controller类">
<polygon fill="#999999" stroke="#666666" points="126,-30 0,-30 0,0 126,0 126,-30"/>
<text text-anchor="start" x="8" y="-18" font-family="Helvetica,sans-Serif" font-size="10.00">hello_world::algorithms</text>
<text text-anchor="middle" x="63" y="-7" font-family="Helvetica,sans-Serif" font-size="10.00">::controller::pid::BasicPid</text>
</a>
</g>
</g>
<!-- Node2 -->
<g id="Node000002" class="node">
<title>Node2</title>
<g id="a_Node000002"><a xlink:href="$classhello__world_1_1algorithms_1_1controller_1_1_controller.html" xlink:title=" ">
<polygon fill="white" stroke="#666666" points="121,-96 5,-96 5,-66 121,-66 121,-96"/>
<text text-anchor="start" x="13" y="-84" font-family="Helvetica,sans-Serif" font-size="10.00">hello_world::algorithms</text>
<text text-anchor="middle" x="63" y="-73" font-family="Helvetica,sans-Serif" font-size="10.00">::controller::Controller</text>
</a>
</g>
</g>
<!-- Node2&#45;&gt;Node1 -->
<g id="edge5_Node000001_Node000002" class="edge">
<title>Node2&#45;&gt;Node1</title>
<g id="a_edge5_Node000001_Node000002"><a xlink:title=" ">
<path fill="none" stroke="#63b8ff" d="M63,-54.97C63,-46.55 63,-37.45 63,-30.16"/>
<polygon fill="#63b8ff" stroke="#63b8ff" points="59.5,-54.8 63,-64.8 66.5,-54.8 59.5,-54.8"/>
</a>
</g>
</g>
<!-- Node3 -->
<g id="Node000003" class="node">
<title>Node3</title>
<g id="a_Node000003"><a xlink:href="$classhello__world_1_1_mem_mang.html" xlink:title=" ">
<polygon fill="white" stroke="#666666" points="121,-151 5,-151 5,-132 121,-132 121,-151"/>
<text text-anchor="middle" x="63" y="-139" font-family="Helvetica,sans-Serif" font-size="10.00">hello_world::MemMang</text>
</a>
</g>
</g>
<!-- Node3&#45;&gt;Node2 -->
<g id="edge6_Node000002_Node000003" class="edge">
<title>Node3&#45;&gt;Node2</title>
<g id="a_edge6_Node000002_Node000003"><a xlink:title=" ">
<path fill="none" stroke="#63b8ff" d="M63,-121.08C63,-112.92 63,-103.6 63,-96.11"/>
<polygon fill="#63b8ff" stroke="#63b8ff" points="59.5,-120.87 63,-130.87 66.5,-120.87 59.5,-120.87"/>
</a>
</g>
</g>
</g>
</svg>
