<?xml version="1.0" encoding="UTF-8" standalone="no"?>
<!DOCTYPE svg PUBLIC "-//W3C//DTD SVG 1.1//EN"
 "http://www.w3.org/Graphics/SVG/1.1/DTD/svg11.dtd">
<!-- Generated by graphviz version 8.0.3 (20230416.2022)
 -->
<!-- Title: hello_world::devices::referee::RxPackage::decode Pages: 1 -->
<svg width="404pt" height="49pt"
 viewBox="0.00 0.00 404.00 49.00" xmlns="http://www.w3.org/2000/svg" xmlns:xlink="http://www.w3.org/1999/xlink">
<g id="graph0" class="graph" transform="scale(1 1) rotate(0) translate(4 45)">
<title>hello_world::devices::referee::RxPackage::decode</title>
<!-- Node1 -->
<g id="Node000001" class="node">
<title>Node1</title>
<g id="a_Node000001"><a xlink:title=" ">
<polygon fill="#999999" stroke="#666666" points="108,-41 0,-41 0,0 108,0 108,-41"/>
<text text-anchor="start" x="8" y="-29" font-family="Helvetica,sans-Serif" font-size="10.00">hello_world::devices</text>
<text text-anchor="start" x="8" y="-18" font-family="Helvetica,sans-Serif" font-size="10.00">::referee::RxPackage</text>
<text text-anchor="middle" x="54" y="-7" font-family="Helvetica,sans-Serif" font-size="10.00">::decode</text>
</a>
</g>
</g>
<!-- Node2 -->
<g id="Node000002" class="node">
<title>Node2</title>
<g id="a_Node000002"><a xlink:href="$namespacehello__world_1_1dsp_1_1tick.html#a97910b07255da1979f8ceafd8c6d2ea5" xlink:title=" ">
<polygon fill="white" stroke="#666666" points="252,-35.5 144,-35.5 144,-5.5 252,-5.5 252,-35.5"/>
<text text-anchor="start" x="152" y="-23.5" font-family="Helvetica,sans-Serif" font-size="10.00">hello_world::dsp::tick</text>
<text text-anchor="middle" x="198" y="-12.5" font-family="Helvetica,sans-Serif" font-size="10.00">::GetTickMs</text>
</a>
</g>
</g>
<!-- Node1&#45;&gt;Node2 -->
<g id="edge5_Node000001_Node000002" class="edge">
<title>Node1&#45;&gt;Node2</title>
<g id="a_edge5_Node000001_Node000002"><a xlink:title=" ">
<path fill="none" stroke="#63b8ff" d="M108.28,-20.5C116.38,-20.5 124.81,-20.5 133.1,-20.5"/>
<polygon fill="#63b8ff" stroke="#63b8ff" points="132.89,-24 142.89,-20.5 132.89,-17 132.89,-24"/>
</a>
</g>
</g>
<!-- Node3 -->
<g id="Node000003" class="node">
<title>Node3</title>
<g id="a_Node000003"><a xlink:href="$namespacehello__world_1_1dsp_1_1tick.html#a0c9c44ee367dc665cc6f1a6d830da9ee" xlink:title=" ">
<polygon fill="white" stroke="#666666" points="396,-35.5 288,-35.5 288,-5.5 396,-5.5 396,-35.5"/>
<text text-anchor="start" x="296" y="-23.5" font-family="Helvetica,sans-Serif" font-size="10.00">hello_world::dsp::tick</text>
<text text-anchor="middle" x="342" y="-12.5" font-family="Helvetica,sans-Serif" font-size="10.00">::GetTickUs</text>
</a>
</g>
</g>
<!-- Node2&#45;&gt;Node3 -->
<g id="edge6_Node000002_Node000003" class="edge">
<title>Node2&#45;&gt;Node3</title>
<g id="a_edge6_Node000002_Node000003"><a xlink:title=" ">
<path fill="none" stroke="#63b8ff" d="M252.28,-20.5C260.38,-20.5 268.81,-20.5 277.1,-20.5"/>
<polygon fill="#63b8ff" stroke="#63b8ff" points="276.89,-24 286.89,-20.5 276.89,-17 276.89,-24"/>
</a>
</g>
</g>
</g>
</svg>
