<?xml version="1.0" encoding="UTF-8" standalone="no"?>
<!DOCTYPE svg PUBLIC "-//W3C//DTD SVG 1.1//EN"
 "http://www.w3.org/Graphics/SVG/1.1/DTD/svg11.dtd">
<!-- Generated by graphviz version 8.0.3 (20230416.2022)
 -->
<!-- Title: hello_world::devices::imu::BMI088::getTemp Pages: 1 -->
<svg width="462pt" height="86pt"
 viewBox="0.00 0.00 462.00 86.00" xmlns="http://www.w3.org/2000/svg" xmlns:xlink="http://www.w3.org/1999/xlink">
<g id="graph0" class="graph" transform="scale(1 1) rotate(0) translate(4 82)">
<title>hello_world::devices::imu::BMI088::getTemp</title>
<!-- Node1 -->
<g id="Node000001" class="node">
<title>Node1</title>
<g id="a_Node000001"><a xlink:title="获取温度数据">
<polygon fill="#999999" stroke="#666666" points="121,-54 0,-54 0,-24 121,-24 121,-54"/>
<text text-anchor="start" x="8" y="-42" font-family="Helvetica,sans-Serif" font-size="10.00">hello_world::devices</text>
<text text-anchor="middle" x="60.5" y="-31" font-family="Helvetica,sans-Serif" font-size="10.00">::imu::BMI088::getTemp</text>
</a>
</g>
</g>
<!-- Node2 -->
<g id="Node000002" class="node">
<title>Node2</title>
<g id="a_Node000002"><a xlink:href="$classhello__world_1_1devices_1_1imu_1_1_b_m_i088.html#ad8bdc7c9eee4bb3c35ee8467df9e49ae" xlink:title="加速度计多寄存器数据读取">
<polygon fill="white" stroke="#666666" points="300,-54 157,-54 157,-24 300,-24 300,-54"/>
<text text-anchor="start" x="165" y="-42" font-family="Helvetica,sans-Serif" font-size="10.00">hello_world::devices</text>
<text text-anchor="middle" x="228.5" y="-31" font-family="Helvetica,sans-Serif" font-size="10.00">::imu::BMI088::accMultiRead</text>
</a>
</g>
</g>
<!-- Node1&#45;&gt;Node2 -->
<g id="edge7_Node000001_Node000002" class="edge">
<title>Node1&#45;&gt;Node2</title>
<g id="a_edge7_Node000001_Node000002"><a xlink:title=" ">
<path fill="none" stroke="#63b8ff" d="M121.43,-39C129.37,-39 137.62,-39 145.85,-39"/>
<polygon fill="#63b8ff" stroke="#63b8ff" points="145.63,-42.5 155.63,-39 145.63,-35.5 145.63,-42.5"/>
</a>
</g>
</g>
<!-- Node3 -->
<g id="Node000003" class="node">
<title>Node3</title>
<g id="a_Node000003"><a xlink:href="$classhello__world_1_1devices_1_1imu_1_1_b_m_i088.html#abe2be687095fa7b54d31a3a69693b306" xlink:title=" ">
<polygon fill="white" stroke="#666666" points="454,-78 336,-78 336,-48 454,-48 454,-78"/>
<text text-anchor="start" x="344" y="-66" font-family="Helvetica,sans-Serif" font-size="10.00">hello_world::devices</text>
<text text-anchor="middle" x="395" y="-55" font-family="Helvetica,sans-Serif" font-size="10.00">::imu::BMI088::accCsH</text>
</a>
</g>
</g>
<!-- Node2&#45;&gt;Node3 -->
<g id="edge8_Node000002_Node000003" class="edge">
<title>Node2&#45;&gt;Node3</title>
<g id="a_edge8_Node000002_Node000003"><a xlink:title=" ">
<path fill="none" stroke="#63b8ff" d="M300.22,-49.32C308.45,-50.52 316.84,-51.74 325.05,-52.94"/>
<polygon fill="#63b8ff" stroke="#63b8ff" points="324.31,-56.52 334.71,-54.5 325.32,-49.59 324.31,-56.52"/>
</a>
</g>
</g>
<!-- Node4 -->
<g id="Node000004" class="node">
<title>Node4</title>
<g id="a_Node000004"><a xlink:href="$classhello__world_1_1devices_1_1imu_1_1_b_m_i088.html#ad1ea4fa147f8bb2da18049c229404f65" xlink:title=" ">
<polygon fill="white" stroke="#666666" points="453,-30 337,-30 337,0 453,0 453,-30"/>
<text text-anchor="start" x="345" y="-18" font-family="Helvetica,sans-Serif" font-size="10.00">hello_world::devices</text>
<text text-anchor="middle" x="395" y="-7" font-family="Helvetica,sans-Serif" font-size="10.00">::imu::BMI088::accCsL</text>
</a>
</g>
</g>
<!-- Node2&#45;&gt;Node4 -->
<g id="edge9_Node000002_Node000004" class="edge">
<title>Node2&#45;&gt;Node4</title>
<g id="a_edge9_Node000002_Node000004"><a xlink:title=" ">
<path fill="none" stroke="#63b8ff" d="M300.22,-28.68C308.79,-27.43 317.53,-26.16 326.06,-24.91"/>
<polygon fill="#63b8ff" stroke="#63b8ff" points="326.34,-28.26 335.73,-23.36 325.33,-21.34 326.34,-28.26"/>
</a>
</g>
</g>
</g>
</svg>
