<?xml version="1.0" encoding="UTF-8" standalone="no"?>
<!DOCTYPE svg PUBLIC "-//W3C//DTD SVG 1.1//EN"
 "http://www.w3.org/Graphics/SVG/1.1/DTD/svg11.dtd">
<!-- Generated by graphviz version 8.0.3 (20230416.2022)
 -->
<!-- Title: hello_world::devices::imu::BMI088::accCsL Pages: 1 -->
<svg width="930pt" height="182pt"
 viewBox="0.00 0.00 930.00 182.00" xmlns="http://www.w3.org/2000/svg" xmlns:xlink="http://www.w3.org/1999/xlink">
<g id="graph0" class="graph" transform="scale(1 1) rotate(0) translate(4 178)">
<title>hello_world::devices::imu::BMI088::accCsL</title>
<!-- Node1 -->
<g id="Node000001" class="node">
<title>Node1</title>
<g id="a_Node000001"><a xlink:title=" ">
<polygon fill="#999999" stroke="#666666" points="922,-78 806,-78 806,-48 922,-48 922,-78"/>
<text text-anchor="start" x="814" y="-66" font-family="Helvetica,sans-Serif" font-size="10.00">hello_world::devices</text>
<text text-anchor="middle" x="864" y="-55" font-family="Helvetica,sans-Serif" font-size="10.00">::imu::BMI088::accCsL</text>
</a>
</g>
</g>
<!-- Node2 -->
<g id="Node000002" class="node">
<title>Node2</title>
<g id="a_Node000002"><a xlink:href="$classhello__world_1_1devices_1_1imu_1_1_b_m_i088.html#ad8bdc7c9eee4bb3c35ee8467df9e49ae" xlink:title="加速度计多寄存器数据读取">
<polygon fill="white" stroke="#666666" points="770,-126 627,-126 627,-96 770,-96 770,-126"/>
<text text-anchor="start" x="635" y="-114" font-family="Helvetica,sans-Serif" font-size="10.00">hello_world::devices</text>
<text text-anchor="middle" x="698.5" y="-103" font-family="Helvetica,sans-Serif" font-size="10.00">::imu::BMI088::accMultiRead</text>
</a>
</g>
</g>
<!-- Node1&#45;&gt;Node2 -->
<g id="edge29_Node000001_Node000002" class="edge">
<title>Node1&#45;&gt;Node2</title>
<g id="a_edge29_Node000001_Node000002"><a xlink:title=" ">
<path fill="none" stroke="#63b8ff" d="M800.1,-81.46C784.23,-86.13 767.34,-91.08 752.03,-95.58"/>
<polygon fill="#63b8ff" stroke="#63b8ff" points="800.76,-84.63 809.37,-78.45 798.79,-77.91 800.76,-84.63"/>
</a>
</g>
</g>
<!-- Node9 -->
<g id="Node000009" class="node">
<title>Node9</title>
<g id="a_Node000009"><a xlink:href="$classhello__world_1_1devices_1_1imu_1_1_b_m_i088.html#a3d46ca9f969584dbbc7060a0665edd0a" xlink:title="读取加速度计寄存器数据">
<polygon fill="white" stroke="#666666" points="585,-30 463,-30 463,0 585,0 585,-30"/>
<text text-anchor="start" x="471" y="-18" font-family="Helvetica,sans-Serif" font-size="10.00">hello_world::devices</text>
<text text-anchor="middle" x="524" y="-7" font-family="Helvetica,sans-Serif" font-size="10.00">::imu::BMI088::accRead</text>
</a>
</g>
</g>
<!-- Node1&#45;&gt;Node9 -->
<g id="edge37_Node000001_Node000009" class="edge">
<title>Node1&#45;&gt;Node9</title>
<g id="a_edge37_Node000001_Node000009"><a xlink:title=" ">
<path fill="none" stroke="#63b8ff" d="M794.93,-53.33C733.62,-44.63 644.33,-31.95 585.47,-23.59"/>
<polygon fill="#63b8ff" stroke="#63b8ff" points="794.27,-56.92 804.66,-54.86 795.25,-49.99 794.27,-56.92"/>
</a>
</g>
</g>
<!-- Node10 -->
<g id="Node000010" class="node">
<title>Node10</title>
<g id="a_Node000010"><a xlink:href="$classhello__world_1_1devices_1_1imu_1_1_b_m_i088.html#a7bbb5b66f79a9d0d40edf7f809743d59" xlink:title="向加速度计寄存器写入数据">
<polygon fill="white" stroke="#666666" points="585,-78 463,-78 463,-48 585,-48 585,-78"/>
<text text-anchor="start" x="471" y="-66" font-family="Helvetica,sans-Serif" font-size="10.00">hello_world::devices</text>
<text text-anchor="middle" x="524" y="-55" font-family="Helvetica,sans-Serif" font-size="10.00">::imu::BMI088::accWrite</text>
</a>
</g>
</g>
<!-- Node1&#45;&gt;Node10 -->
<g id="edge40_Node000001_Node000010" class="edge">
<title>Node1&#45;&gt;Node10</title>
<g id="a_edge40_Node000001_Node000010"><a xlink:title=" ">
<path fill="none" stroke="#63b8ff" d="M794.93,-63C733.62,-63 644.33,-63 585.47,-63"/>
<polygon fill="#63b8ff" stroke="#63b8ff" points="794.66,-66.5 804.66,-63 794.66,-59.5 794.66,-66.5"/>
</a>
</g>
</g>
<!-- Node3 -->
<g id="Node000003" class="node">
<title>Node3</title>
<g id="a_Node000003"><a xlink:href="$classhello__world_1_1devices_1_1imu_1_1_b_m_i088.html#ad236f84f69a0ef4e8befa96479bf5618" xlink:title="获取加速度计数据">
<polygon fill="white" stroke="#666666" points="591,-126 457,-126 457,-96 591,-96 591,-126"/>
<text text-anchor="start" x="465" y="-114" font-family="Helvetica,sans-Serif" font-size="10.00">hello_world::devices</text>
<text text-anchor="middle" x="524" y="-103" font-family="Helvetica,sans-Serif" font-size="10.00">::imu::BMI088::getAccData</text>
</a>
</g>
</g>
<!-- Node2&#45;&gt;Node3 -->
<g id="edge30_Node000002_Node000003" class="edge">
<title>Node2&#45;&gt;Node3</title>
<g id="a_edge30_Node000002_Node000003"><a xlink:title=" ">
<path fill="none" stroke="#63b8ff" d="M616.04,-111C607.78,-111 599.46,-111 591.38,-111"/>
<polygon fill="#63b8ff" stroke="#63b8ff" points="615.84,-114.5 625.84,-111 615.84,-107.5 615.84,-114.5"/>
</a>
</g>
</g>
<!-- Node8 -->
<g id="Node000008" class="node">
<title>Node8</title>
<g id="a_Node000008"><a xlink:href="$classhello__world_1_1devices_1_1imu_1_1_b_m_i088.html#a0672cec3591e037942c7bc03b31dd24a" xlink:title="获取温度数据">
<polygon fill="white" stroke="#666666" points="584.5,-174 463.5,-174 463.5,-144 584.5,-144 584.5,-174"/>
<text text-anchor="start" x="471.5" y="-162" font-family="Helvetica,sans-Serif" font-size="10.00">hello_world::devices</text>
<text text-anchor="middle" x="524" y="-151" font-family="Helvetica,sans-Serif" font-size="10.00">::imu::BMI088::getTemp</text>
</a>
</g>
</g>
<!-- Node2&#45;&gt;Node8 -->
<g id="edge35_Node000002_Node000008" class="edge">
<title>Node2&#45;&gt;Node8</title>
<g id="a_edge35_Node000002_Node000008"><a xlink:title=" ">
<path fill="none" stroke="#63b8ff" d="M631.62,-129.33C614.73,-134.03 596.73,-139.04 580.43,-143.58"/>
<polygon fill="#63b8ff" stroke="#63b8ff" points="632.27,-132.5 640.97,-126.45 630.4,-125.76 632.27,-132.5"/>
</a>
</g>
</g>
<!-- Node4 -->
<g id="Node000004" class="node">
<title>Node4</title>
<g id="a_Node000004"><a xlink:href="$classhello__world_1_1devices_1_1imu_1_1_b_m_i088.html#a7bc81c0ed908d469d3c0bde126a80311" xlink:title="加速度计自检测">
<polygon fill="white" stroke="#666666" points="421,-73 287,-73 287,-43 421,-43 421,-73"/>
<text text-anchor="start" x="295" y="-61" font-family="Helvetica,sans-Serif" font-size="10.00">hello_world::devices</text>
<text text-anchor="middle" x="354" y="-50" font-family="Helvetica,sans-Serif" font-size="10.00">::imu::BMI088::accSelfTest</text>
</a>
</g>
</g>
<!-- Node3&#45;&gt;Node4 -->
<g id="edge31_Node000003_Node000004" class="edge">
<title>Node3&#45;&gt;Node4</title>
<g id="a_edge31_Node000003_Node000004"><a xlink:title=" ">
<path fill="none" stroke="#63b8ff" d="M463.66,-92.28C444.18,-86.13 422.75,-79.37 404.11,-73.49"/>
<polygon fill="#63b8ff" stroke="#63b8ff" points="462.37,-95.86 472.96,-95.53 464.47,-89.18 462.37,-95.86"/>
</a>
</g>
</g>
<!-- Node7 -->
<g id="Node000007" class="node">
<title>Node7</title>
<g id="a_Node000007"><a xlink:href="$classhello__world_1_1devices_1_1imu_1_1_b_m_i088.html#aa4b8ef9d615c0ead67e6b88c34bd84d1" xlink:title="获取传感器数据">
<polygon fill="white" stroke="#666666" points="412.5,-166 295.5,-166 295.5,-136 412.5,-136 412.5,-166"/>
<text text-anchor="start" x="303.5" y="-154" font-family="Helvetica,sans-Serif" font-size="10.00">hello_world::devices</text>
<text text-anchor="middle" x="354" y="-143" font-family="Helvetica,sans-Serif" font-size="10.00">::imu::BMI088::getData</text>
</a>
</g>
</g>
<!-- Node3&#45;&gt;Node7 -->
<g id="edge34_Node000003_Node000007" class="edge">
<title>Node3&#45;&gt;Node7</title>
<g id="a_edge34_Node000003_Node000007"><a xlink:title=" ">
<path fill="none" stroke="#63b8ff" d="M447.48,-128.98C435.88,-131.74 424.07,-134.56 412.93,-137.21"/>
<polygon fill="#63b8ff" stroke="#63b8ff" points="448.13,-132.19 457.05,-126.47 446.51,-125.38 448.13,-132.19"/>
</a>
</g>
</g>
<!-- Node5 -->
<g id="Node000005" class="node">
<title>Node5</title>
<g id="a_Node000005"><a xlink:href="$classhello__world_1_1devices_1_1imu_1_1_b_m_i088.html#af18363d9dd6de94e4961ce1772923483" xlink:title="加速度计配置">
<polygon fill="white" stroke="#666666" points="251,-73 139,-73 139,-43 251,-43 251,-73"/>
<text text-anchor="start" x="147" y="-61" font-family="Helvetica,sans-Serif" font-size="10.00">hello_world::devices</text>
<text text-anchor="middle" x="195" y="-50" font-family="Helvetica,sans-Serif" font-size="10.00">::imu::BMI088::accInit</text>
</a>
</g>
</g>
<!-- Node4&#45;&gt;Node5 -->
<g id="edge32_Node000004_Node000005" class="edge">
<title>Node4&#45;&gt;Node5</title>
<g id="a_edge32_Node000004_Node000005"><a xlink:title=" ">
<path fill="none" stroke="#63b8ff" d="M275.92,-58C267.55,-58 259.17,-58 251.14,-58"/>
<polygon fill="#63b8ff" stroke="#63b8ff" points="275.87,-61.5 285.87,-58 275.87,-54.5 275.87,-61.5"/>
</a>
</g>
</g>
<!-- Node6 -->
<g id="Node000006" class="node">
<title>Node6</title>
<g id="a_Node000006"><a xlink:href="$classhello__world_1_1devices_1_1imu_1_1_b_m_i088.html#a623a7d90db0585ea45bac12fd3d19061" xlink:title="进行 BMI088 芯片配置">
<polygon fill="white" stroke="#666666" points="103,-73 0,-73 0,-43 103,-43 103,-73"/>
<text text-anchor="start" x="8" y="-61" font-family="Helvetica,sans-Serif" font-size="10.00">hello_world::devices</text>
<text text-anchor="middle" x="51.5" y="-50" font-family="Helvetica,sans-Serif" font-size="10.00">::imu::BMI088::init</text>
</a>
</g>
</g>
<!-- Node5&#45;&gt;Node6 -->
<g id="edge33_Node000005_Node000006" class="edge">
<title>Node5&#45;&gt;Node6</title>
<g id="a_edge33_Node000005_Node000006"><a xlink:title=" ">
<path fill="none" stroke="#63b8ff" d="M127.98,-58C119.61,-58 111.15,-58 103.07,-58"/>
<polygon fill="#63b8ff" stroke="#63b8ff" points="127.89,-61.5 137.89,-58 127.89,-54.5 127.89,-61.5"/>
</a>
</g>
</g>
<!-- Node8&#45;&gt;Node7 -->
<g id="edge36_Node000008_Node000007" class="edge">
<title>Node8&#45;&gt;Node7</title>
<g id="a_edge36_Node000008_Node000007"><a xlink:title=" ">
<path fill="none" stroke="#63b8ff" d="M452.36,-155.64C439.18,-155.01 425.56,-154.36 412.82,-153.75"/>
<polygon fill="#63b8ff" stroke="#63b8ff" points="452.14,-159.18 462.3,-156.16 452.47,-152.19 452.14,-159.18"/>
</a>
</g>
</g>
<!-- Node9&#45;&gt;Node4 -->
<g id="edge39_Node000009_Node000004" class="edge">
<title>Node9&#45;&gt;Node4</title>
<g id="a_edge39_Node000009_Node000004"><a xlink:title=" ">
<path fill="none" stroke="#63b8ff" d="M452.17,-33.13C439.91,-36.27 427.27,-39.5 415.32,-42.56"/>
<polygon fill="#63b8ff" stroke="#63b8ff" points="453,-36.27 461.82,-30.4 451.27,-29.49 453,-36.27"/>
</a>
</g>
</g>
<!-- Node9&#45;&gt;Node5 -->
<g id="edge38_Node000009_Node000005" class="edge">
<title>Node9&#45;&gt;Node5</title>
<g id="a_edge38_Node000009_Node000005"><a xlink:title=" ">
<path fill="none" stroke="#63b8ff" d="M452.28,-17.41C405.19,-19.82 342.07,-24.6 287,-34 274.28,-36.17 260.74,-39.29 248.1,-42.56"/>
<polygon fill="#63b8ff" stroke="#63b8ff" points="452.17,-20.87 461.98,-16.89 451.83,-13.88 452.17,-20.87"/>
</a>
</g>
</g>
<!-- Node10&#45;&gt;Node4 -->
<g id="edge42_Node000010_Node000004" class="edge">
<title>Node10&#45;&gt;Node4</title>
<g id="a_edge42_Node000010_Node000004"><a xlink:title=" ">
<path fill="none" stroke="#63b8ff" d="M451.93,-60.88C441.78,-60.58 431.37,-60.27 421.31,-59.97"/>
<polygon fill="#63b8ff" stroke="#63b8ff" points="451.72,-64.41 461.82,-61.21 451.93,-57.41 451.72,-64.41"/>
</a>
</g>
</g>
<!-- Node10&#45;&gt;Node5 -->
<g id="edge41_Node000010_Node000005" class="edge">
<title>Node10&#45;&gt;Node5</title>
<g id="a_edge41_Node000010_Node000005"><a xlink:title=" ">
<path fill="none" stroke="#63b8ff" d="M451.92,-77.97C441.59,-79.64 431.05,-81.07 421,-82 361.7,-87.48 346.06,-89.66 287,-82 273.23,-80.21 258.57,-76.97 245.13,-73.43"/>
<polygon fill="#63b8ff" stroke="#63b8ff" points="452.31,-81.28 461.58,-76.15 451.13,-74.38 452.31,-81.28"/>
</a>
</g>
</g>
</g>
</svg>
