<?xml version="1.0" encoding="UTF-8" standalone="no"?>
<!DOCTYPE svg PUBLIC "-//W3C//DTD SVG 1.1//EN"
 "http://www.w3.org/Graphics/SVG/1.1/DTD/svg11.dtd">
<!-- Generated by graphviz version 8.0.3 (20230416.2022)
 -->
<!-- Title: hello_world::devices::motor::M3508::decode Pages: 1 -->
<svg width="473pt" height="155pt"
 viewBox="0.00 0.00 473.00 155.00" xmlns="http://www.w3.org/2000/svg" xmlns:xlink="http://www.w3.org/1999/xlink">
<g id="graph0" class="graph" transform="scale(1 1) rotate(0) translate(4 151)">
<title>hello_world::devices::motor::M3508::decode</title>
<!-- Node1 -->
<g id="Node000001" class="node">
<title>Node1</title>
<g id="a_Node000001"><a xlink:title="将电调发回的 CAN 报文进行解包">
<polygon fill="#999999" stroke="#666666" points="120,-78 0,-78 0,-48 120,-48 120,-78"/>
<text text-anchor="start" x="8" y="-66" font-family="Helvetica,sans-Serif" font-size="10.00">hello_world::devices</text>
<text text-anchor="middle" x="60" y="-55" font-family="Helvetica,sans-Serif" font-size="10.00">::motor::M3508::decode</text>
</a>
</g>
</g>
<!-- Node2 -->
<g id="Node000002" class="node">
<title>Node2</title>
<g id="a_Node000002"><a xlink:href="$classhello__world_1_1devices_1_1motor_1_1_motor.html#a21092858a98af5688b398d57cd203592" xlink:title="将角度转换到指定范围">
<polygon fill="white" stroke="#666666" points="287,-126 156,-126 156,-96 287,-96 287,-126"/>
<text text-anchor="start" x="164" y="-114" font-family="Helvetica,sans-Serif" font-size="10.00">hello_world::devices</text>
<text text-anchor="middle" x="221.5" y="-103" font-family="Helvetica,sans-Serif" font-size="10.00">::motor::Motor::normAngle</text>
</a>
</g>
</g>
<!-- Node1&#45;&gt;Node2 -->
<g id="edge11_Node000001_Node000002" class="edge">
<title>Node1&#45;&gt;Node2</title>
<g id="a_edge11_Node000001_Node000002"><a xlink:title=" ">
<path fill="none" stroke="#63b8ff" d="M112.34,-78.45C127.14,-82.91 143.44,-87.81 158.8,-92.43"/>
<polygon fill="#63b8ff" stroke="#63b8ff" points="157.67,-96.05 168.25,-95.58 159.68,-89.34 157.67,-96.05"/>
</a>
</g>
</g>
<!-- Node5 -->
<g id="Node000005" class="node">
<title>Node5</title>
<g id="a_Node000005"><a xlink:href="$classhello__world_1_1devices_1_1motor_1_1_motor.html#a1e4467d9f449b9c6c7d6886fffa89667" xlink:title="将原始报文内容转换为转子电流">
<polygon fill="white" stroke="#666666" points="282,-78 161,-78 161,-48 282,-48 282,-78"/>
<text text-anchor="start" x="169" y="-66" font-family="Helvetica,sans-Serif" font-size="10.00">hello_world::devices</text>
<text text-anchor="middle" x="221.5" y="-55" font-family="Helvetica,sans-Serif" font-size="10.00">::motor::Motor::raw2curr</text>
</a>
</g>
</g>
<!-- Node1&#45;&gt;Node5 -->
<g id="edge14_Node000001_Node000005" class="edge">
<title>Node1&#45;&gt;Node5</title>
<g id="a_edge14_Node000001_Node000005"><a xlink:title=" ">
<path fill="none" stroke="#63b8ff" d="M120.39,-63C129.92,-63 139.86,-63 149.62,-63"/>
<polygon fill="#63b8ff" stroke="#63b8ff" points="149.53,-66.5 159.53,-63 149.53,-59.5 149.53,-66.5"/>
</a>
</g>
</g>
<!-- Node6 -->
<g id="Node000006" class="node">
<title>Node6</title>
<g id="a_Node000006"><a xlink:href="$classhello__world_1_1devices_1_1motor_1_1_motor.html#af74a8c4ad7c0067a2d71afd711639366" xlink:title="将原始报文内容转换为输出端力矩">
<polygon fill="white" stroke="#666666" points="282,-30 161,-30 161,0 282,0 282,-30"/>
<text text-anchor="start" x="169" y="-18" font-family="Helvetica,sans-Serif" font-size="10.00">hello_world::devices</text>
<text text-anchor="middle" x="221.5" y="-7" font-family="Helvetica,sans-Serif" font-size="10.00">::motor::Motor::raw2torq</text>
</a>
</g>
</g>
<!-- Node1&#45;&gt;Node6 -->
<g id="edge15_Node000001_Node000006" class="edge">
<title>Node1&#45;&gt;Node6</title>
<g id="a_edge15_Node000001_Node000006"><a xlink:title=" ">
<path fill="none" stroke="#63b8ff" d="M112.34,-47.55C127.14,-43.09 143.44,-38.19 158.8,-33.57"/>
<polygon fill="#63b8ff" stroke="#63b8ff" points="159.68,-36.66 168.25,-30.42 157.67,-29.95 159.68,-36.66"/>
</a>
</g>
</g>
<!-- Node3 -->
<g id="Node000003" class="node">
<title>Node3</title>
<g id="a_Node000003"><a xlink:href="$classhello__world_1_1devices_1_1motor_1_1_motor.html#acad1e1f1792ab8cb6265b1d5195737f6" xlink:title=" ">
<polygon fill="white" stroke="#666666" points="447.5,-147 340.5,-147 340.5,-117 447.5,-117 447.5,-147"/>
<text text-anchor="start" x="348.5" y="-135" font-family="Helvetica,sans-Serif" font-size="10.00">hello_world::devices</text>
<text text-anchor="middle" x="394" y="-124" font-family="Helvetica,sans-Serif" font-size="10.00">::motor::Motor::angle</text>
</a>
</g>
</g>
<!-- Node2&#45;&gt;Node3 -->
<g id="edge12_Node000002_Node000003" class="edge">
<title>Node2&#45;&gt;Node3</title>
<g id="a_edge12_Node000002_Node000003"><a xlink:title=" ">
<path fill="none" stroke="#63b8ff" d="M287.45,-119C301.18,-120.69 315.67,-122.48 329.36,-124.16"/>
<polygon fill="#63b8ff" stroke="#63b8ff" points="328.78,-127.74 339.13,-125.49 329.64,-120.79 328.78,-127.74"/>
</a>
</g>
</g>
<!-- Node4 -->
<g id="Node000004" class="node">
<title>Node4</title>
<g id="a_Node000004"><a xlink:href="$namespacehello__world.html#a71f5ddbc81f1fa181ecefaf0b1f51fa8" xlink:title="将周期性数据归一化到指定周期区间">
<polygon fill="white" stroke="#666666" points="465,-98.5 323,-98.5 323,-79.5 465,-79.5 465,-98.5"/>
<text text-anchor="middle" x="394" y="-86.5" font-family="Helvetica,sans-Serif" font-size="10.00">hello_world::NormPeriodData</text>
</a>
</g>
</g>
<!-- Node2&#45;&gt;Node4 -->
<g id="edge13_Node000002_Node000004" class="edge">
<title>Node2&#45;&gt;Node4</title>
<g id="a_edge13_Node000002_Node000004"><a xlink:title=" ">
<path fill="none" stroke="#63b8ff" d="M287.45,-102.62C295.43,-101.59 303.66,-100.53 311.85,-99.47"/>
<polygon fill="#63b8ff" stroke="#63b8ff" points="312.08,-102.84 321.55,-98.09 311.19,-95.9 312.08,-102.84"/>
</a>
</g>
</g>
</g>
</svg>
