<?xml version="1.0" encoding="UTF-8" standalone="no"?>
<!DOCTYPE svg PUBLIC "-//W3C//DTD SVG 1.1//EN"
 "http://www.w3.org/Graphics/SVG/1.1/DTD/svg11.dtd">
<!-- Generated by graphviz version 8.0.3 (20230416.2022)
 -->
<!-- Title: hello_world::devices::imu::BMI088::accInit Pages: 1 -->
<svg width="793pt" height="194pt"
 viewBox="0.00 0.00 793.00 194.23" xmlns="http://www.w3.org/2000/svg" xmlns:xlink="http://www.w3.org/1999/xlink">
<g id="graph0" class="graph" transform="scale(1 1) rotate(0) translate(4 190.23)">
<title>hello_world::devices::imu::BMI088::accInit</title>
<!-- Node1 -->
<g id="Node000001" class="node">
<title>Node1</title>
<g id="a_Node000001"><a xlink:title="加速度计配置">
<polygon fill="#999999" stroke="#666666" points="112,-73.23 0,-73.23 0,-43.23 112,-43.23 112,-73.23"/>
<text text-anchor="start" x="8" y="-61.23" font-family="Helvetica,sans-Serif" font-size="10.00">hello_world::devices</text>
<text text-anchor="middle" x="56" y="-50.23" font-family="Helvetica,sans-Serif" font-size="10.00">::imu::BMI088::accInit</text>
</a>
</g>
</g>
<!-- Node2 -->
<g id="Node000002" class="node">
<title>Node2</title>
<g id="a_Node000002"><a xlink:href="$classhello__world_1_1devices_1_1imu_1_1_b_m_i088.html#a3d46ca9f969584dbbc7060a0665edd0a" xlink:title="读取加速度计寄存器数据">
<polygon fill="white" stroke="#666666" points="620.5,-186.23 498.5,-186.23 498.5,-156.23 620.5,-156.23 620.5,-186.23"/>
<text text-anchor="start" x="506.5" y="-174.23" font-family="Helvetica,sans-Serif" font-size="10.00">hello_world::devices</text>
<text text-anchor="middle" x="559.5" y="-163.23" font-family="Helvetica,sans-Serif" font-size="10.00">::imu::BMI088::accRead</text>
</a>
</g>
</g>
<!-- Node1&#45;&gt;Node2 -->
<g id="edge31_Node000001_Node000002" class="edge">
<title>Node1&#45;&gt;Node2</title>
<g id="a_edge31_Node000001_Node000002"><a xlink:title=" ">
<path fill="none" stroke="#63b8ff" d="M82.06,-73.72C127.18,-100.55 225.99,-154.51 318,-172.23 374.11,-183.03 438.95,-182 487.16,-178.7"/>
<polygon fill="#63b8ff" stroke="#63b8ff" points="487.39,-182.11 497.11,-177.89 486.88,-175.13 487.39,-182.11"/>
</a>
</g>
</g>
<!-- Node5 -->
<g id="Node000005" class="node">
<title>Node5</title>
<g id="a_Node000005"><a xlink:href="$classhello__world_1_1devices_1_1imu_1_1_b_m_i088.html#a7bc81c0ed908d469d3c0bde126a80311" xlink:title="加速度计自检测">
<polygon fill="white" stroke="#666666" points="282,-95.23 148,-95.23 148,-65.23 282,-65.23 282,-95.23"/>
<text text-anchor="start" x="156" y="-83.23" font-family="Helvetica,sans-Serif" font-size="10.00">hello_world::devices</text>
<text text-anchor="middle" x="215" y="-72.23" font-family="Helvetica,sans-Serif" font-size="10.00">::imu::BMI088::accSelfTest</text>
</a>
</g>
</g>
<!-- Node1&#45;&gt;Node5 -->
<g id="edge34_Node000001_Node000005" class="edge">
<title>Node1&#45;&gt;Node5</title>
<g id="a_edge34_Node000001_Node000005"><a xlink:title=" ">
<path fill="none" stroke="#63b8ff" d="M112.35,-65.98C120.27,-67.09 128.53,-68.25 136.78,-69.4"/>
<polygon fill="#63b8ff" stroke="#63b8ff" points="136.19,-73 146.58,-70.92 137.16,-66.06 136.19,-73"/>
</a>
</g>
</g>
<!-- Node6 -->
<g id="Node000006" class="node">
<title>Node6</title>
<g id="a_Node000006"><a xlink:href="$classhello__world_1_1devices_1_1imu_1_1_b_m_i088.html#a7bbb5b66f79a9d0d40edf7f809743d59" xlink:title="向加速度计寄存器写入数据">
<polygon fill="white" stroke="#666666" points="620.5,-90.23 498.5,-90.23 498.5,-60.23 620.5,-60.23 620.5,-90.23"/>
<text text-anchor="start" x="506.5" y="-78.23" font-family="Helvetica,sans-Serif" font-size="10.00">hello_world::devices</text>
<text text-anchor="middle" x="559.5" y="-67.23" font-family="Helvetica,sans-Serif" font-size="10.00">::imu::BMI088::accWrite</text>
</a>
</g>
</g>
<!-- Node1&#45;&gt;Node6 -->
<g id="edge44_Node000001_Node000006" class="edge">
<title>Node1&#45;&gt;Node6</title>
<g id="a_edge44_Node000001_Node000006"><a xlink:title=" ">
<path fill="none" stroke="#63b8ff" d="M100.76,-42.76C174.47,-19 327.56,20.36 452,-13.23 481.02,-21.06 510.26,-38.96 530.74,-53.53"/>
<polygon fill="#63b8ff" stroke="#63b8ff" points="528.36,-56.86 538.5,-59.94 532.5,-51.21 528.36,-56.86"/>
</a>
</g>
</g>
<!-- Node7 -->
<g id="Node000007" class="node">
<title>Node7</title>
<g id="a_Node000007"><a xlink:href="$namespacehello__world_1_1devices_1_1imu.html#a6fc8717b2ca9de9512855bad4d226769" xlink:title="微秒级延时">
<polygon fill="white" stroke="#666666" points="436.5,-52.23 333.5,-52.23 333.5,-22.23 436.5,-22.23 436.5,-52.23"/>
<text text-anchor="start" x="341.5" y="-40.23" font-family="Helvetica,sans-Serif" font-size="10.00">hello_world::devices</text>
<text text-anchor="middle" x="385" y="-29.23" font-family="Helvetica,sans-Serif" font-size="10.00">::imu::DelayUs</text>
</a>
</g>
</g>
<!-- Node1&#45;&gt;Node7 -->
<g id="edge45_Node000001_Node000007" class="edge">
<title>Node1&#45;&gt;Node7</title>
<g id="a_edge45_Node000001_Node000007"><a xlink:title=" ">
<path fill="none" stroke="#63b8ff" d="M112.47,-54.66C170.62,-50.93 261.78,-45.07 322.2,-41.19"/>
<polygon fill="#63b8ff" stroke="#63b8ff" points="322.35,-44.63 332.11,-40.49 321.9,-37.64 322.35,-44.63"/>
</a>
</g>
</g>
<!-- Node3 -->
<g id="Node000003" class="node">
<title>Node3</title>
<g id="a_Node000003"><a xlink:href="$classhello__world_1_1devices_1_1imu_1_1_b_m_i088.html#abe2be687095fa7b54d31a3a69693b306" xlink:title=" ">
<polygon fill="white" stroke="#666666" points="785,-162.23 667,-162.23 667,-132.23 785,-132.23 785,-162.23"/>
<text text-anchor="start" x="675" y="-150.23" font-family="Helvetica,sans-Serif" font-size="10.00">hello_world::devices</text>
<text text-anchor="middle" x="726" y="-139.23" font-family="Helvetica,sans-Serif" font-size="10.00">::imu::BMI088::accCsH</text>
</a>
</g>
</g>
<!-- Node2&#45;&gt;Node3 -->
<g id="edge32_Node000002_Node000003" class="edge">
<title>Node2&#45;&gt;Node3</title>
<g id="a_edge32_Node000002_Node000003"><a xlink:title=" ">
<path fill="none" stroke="#63b8ff" d="M620.82,-162.42C632.26,-160.76 644.32,-159 656,-157.29"/>
<polygon fill="#63b8ff" stroke="#63b8ff" points="656.22,-160.65 665.61,-155.74 655.21,-153.73 656.22,-160.65"/>
</a>
</g>
</g>
<!-- Node4 -->
<g id="Node000004" class="node">
<title>Node4</title>
<g id="a_Node000004"><a xlink:href="$classhello__world_1_1devices_1_1imu_1_1_b_m_i088.html#ad1ea4fa147f8bb2da18049c229404f65" xlink:title=" ">
<polygon fill="white" stroke="#666666" points="784,-114.23 668,-114.23 668,-84.23 784,-84.23 784,-114.23"/>
<text text-anchor="start" x="676" y="-102.23" font-family="Helvetica,sans-Serif" font-size="10.00">hello_world::devices</text>
<text text-anchor="middle" x="726" y="-91.23" font-family="Helvetica,sans-Serif" font-size="10.00">::imu::BMI088::accCsL</text>
</a>
</g>
</g>
<!-- Node2&#45;&gt;Node4 -->
<g id="edge33_Node000002_Node000004" class="edge">
<title>Node2&#45;&gt;Node4</title>
<g id="a_edge33_Node000002_Node000004"><a xlink:title=" ">
<path fill="none" stroke="#63b8ff" d="M611.22,-155.75C617.98,-153.17 624.74,-150.31 631,-147.23 648.25,-138.72 650.03,-132.28 667,-123.23 669.57,-121.85 672.24,-120.51 674.95,-119.19"/>
<polygon fill="#63b8ff" stroke="#63b8ff" points="676.28,-121.97 683.9,-114.61 673.35,-115.62 676.28,-121.97"/>
</a>
</g>
</g>
<!-- Node5&#45;&gt;Node2 -->
<g id="edge35_Node000005_Node000002" class="edge">
<title>Node5&#45;&gt;Node2</title>
<g id="a_edge35_Node000005_Node000002"><a xlink:title=" ">
<path fill="none" stroke="#63b8ff" d="M233.36,-95.47C252.6,-111.39 285.25,-135.63 318,-147.23 372.7,-166.59 438.48,-172.04 487.41,-172.95"/>
<polygon fill="#63b8ff" stroke="#63b8ff" points="487.17,-176.46 497.21,-173.09 487.26,-169.46 487.17,-176.46"/>
</a>
</g>
</g>
<!-- Node5&#45;&gt;Node6 -->
<g id="edge36_Node000005_Node000006" class="edge">
<title>Node5&#45;&gt;Node6</title>
<g id="a_edge36_Node000005_Node000006"><a xlink:title=" ">
<path fill="none" stroke="#63b8ff" d="M282.44,-79.26C341.32,-78.4 427.06,-77.14 487.32,-76.26"/>
<polygon fill="#63b8ff" stroke="#63b8ff" points="487.32,-79.75 497.26,-76.1 487.21,-72.75 487.32,-79.75"/>
</a>
</g>
</g>
<!-- Node5&#45;&gt;Node7 -->
<g id="edge39_Node000005_Node000007" class="edge">
<title>Node5&#45;&gt;Node7</title>
<g id="a_edge39_Node000005_Node000007"><a xlink:title=" ">
<path fill="none" stroke="#63b8ff" d="M276.18,-64.82C291.32,-60.95 307.6,-56.78 322.79,-52.89"/>
<polygon fill="#63b8ff" stroke="#63b8ff" points="323.3,-56.12 332.12,-50.25 321.56,-49.34 323.3,-56.12"/>
</a>
</g>
</g>
<!-- Node8 -->
<g id="Node000008" class="node">
<title>Node8</title>
<g id="a_Node000008"><a xlink:href="$classhello__world_1_1devices_1_1imu_1_1_b_m_i088.html#ad236f84f69a0ef4e8befa96479bf5618" xlink:title="获取加速度计数据">
<polygon fill="white" stroke="#666666" points="452,-138.23 318,-138.23 318,-108.23 452,-108.23 452,-138.23"/>
<text text-anchor="start" x="326" y="-126.23" font-family="Helvetica,sans-Serif" font-size="10.00">hello_world::devices</text>
<text text-anchor="middle" x="385" y="-115.23" font-family="Helvetica,sans-Serif" font-size="10.00">::imu::BMI088::getAccData</text>
</a>
</g>
</g>
<!-- Node5&#45;&gt;Node8 -->
<g id="edge40_Node000005_Node000008" class="edge">
<title>Node5&#45;&gt;Node8</title>
<g id="a_edge40_Node000005_Node000008"><a xlink:title=" ">
<path fill="none" stroke="#63b8ff" d="M276.18,-95.63C288.12,-98.68 300.76,-101.92 313.03,-105.06"/>
<polygon fill="#63b8ff" stroke="#63b8ff" points="312.12,-108.7 322.68,-107.79 313.86,-101.92 312.12,-108.7"/>
</a>
</g>
</g>
<!-- Node6&#45;&gt;Node3 -->
<g id="edge37_Node000006_Node000003" class="edge">
<title>Node6&#45;&gt;Node3</title>
<g id="a_edge37_Node000006_Node000003"><a xlink:title=" ">
<path fill="none" stroke="#63b8ff" d="M611.22,-90.71C617.98,-93.29 624.74,-96.14 631,-99.23 648.25,-107.73 650.03,-114.17 667,-123.23 669.57,-124.6 672.24,-125.94 674.95,-127.26"/>
<polygon fill="#63b8ff" stroke="#63b8ff" points="673.35,-130.83 683.9,-131.84 676.28,-124.48 673.35,-130.83"/>
</a>
</g>
</g>
<!-- Node6&#45;&gt;Node4 -->
<g id="edge38_Node000006_Node000004" class="edge">
<title>Node6&#45;&gt;Node4</title>
<g id="a_edge38_Node000006_Node000004"><a xlink:title=" ">
<path fill="none" stroke="#63b8ff" d="M620.82,-84.03C632.54,-85.74 644.91,-87.54 656.86,-89.28"/>
<polygon fill="#63b8ff" stroke="#63b8ff" points="656.3,-92.88 666.7,-90.87 657.31,-85.96 656.3,-92.88"/>
</a>
</g>
</g>
<!-- Node9 -->
<g id="Node000009" class="node">
<title>Node9</title>
<g id="a_Node000009"><a xlink:href="$classhello__world_1_1devices_1_1imu_1_1_b_m_i088.html#ad8bdc7c9eee4bb3c35ee8467df9e49ae" xlink:title="加速度计多寄存器数据读取">
<polygon fill="white" stroke="#666666" points="631,-138.23 488,-138.23 488,-108.23 631,-108.23 631,-138.23"/>
<text text-anchor="start" x="496" y="-126.23" font-family="Helvetica,sans-Serif" font-size="10.00">hello_world::devices</text>
<text text-anchor="middle" x="559.5" y="-115.23" font-family="Helvetica,sans-Serif" font-size="10.00">::imu::BMI088::accMultiRead</text>
</a>
</g>
</g>
<!-- Node8&#45;&gt;Node9 -->
<g id="edge41_Node000008_Node000009" class="edge">
<title>Node8&#45;&gt;Node9</title>
<g id="a_edge41_Node000008_Node000009"><a xlink:title=" ">
<path fill="none" stroke="#63b8ff" d="M452.2,-123.23C460.26,-123.23 468.57,-123.23 476.82,-123.23"/>
<polygon fill="#63b8ff" stroke="#63b8ff" points="476.61,-126.73 486.61,-123.23 476.61,-119.73 476.61,-126.73"/>
</a>
</g>
</g>
<!-- Node9&#45;&gt;Node3 -->
<g id="edge42_Node000009_Node000003" class="edge">
<title>Node9&#45;&gt;Node3</title>
<g id="a_edge42_Node000009_Node000003"><a xlink:title=" ">
<path fill="none" stroke="#63b8ff" d="M631.22,-133.54C639.45,-134.74 647.84,-135.97 656.05,-137.17"/>
<polygon fill="#63b8ff" stroke="#63b8ff" points="655.31,-140.74 665.71,-138.72 656.32,-133.81 655.31,-140.74"/>
</a>
</g>
</g>
<!-- Node9&#45;&gt;Node4 -->
<g id="edge43_Node000009_Node000004" class="edge">
<title>Node9&#45;&gt;Node4</title>
<g id="a_edge43_Node000009_Node000004"><a xlink:title=" ">
<path fill="none" stroke="#63b8ff" d="M631.22,-112.91C639.79,-111.66 648.53,-110.38 657.06,-109.14"/>
<polygon fill="#63b8ff" stroke="#63b8ff" points="657.34,-112.49 666.73,-107.58 656.33,-105.56 657.34,-112.49"/>
</a>
</g>
</g>
</g>
</svg>
