<?xml version="1.0" encoding="UTF-8" standalone="no"?>
<!DOCTYPE svg PUBLIC "-//W3C//DTD SVG 1.1//EN"
 "http://www.w3.org/Graphics/SVG/1.1/DTD/svg11.dtd">
<!-- Generated by graphviz version 8.0.3 (20230416.2022)
 -->
<!-- Title: hello_world::algorithms::controller::pid::OutLimit::calc Pages: 1 -->
<svg width="686pt" height="108pt"
 viewBox="0.00 0.00 686.00 108.00" xmlns="http://www.w3.org/2000/svg" xmlns:xlink="http://www.w3.org/1999/xlink">
<g id="graph0" class="graph" transform="scale(1 1) rotate(0) translate(4 104)">
<title>hello_world::algorithms::controller::pid::OutLimit::calc</title>
<!-- Node1 -->
<g id="Node000001" class="node">
<title>Node1</title>
<g id="a_Node000001"><a xlink:title=" ">
<polygon fill="#999999" stroke="#666666" points="678,-65.5 530,-65.5 530,-35.5 678,-35.5 678,-65.5"/>
<text text-anchor="start" x="538" y="-53.5" font-family="Helvetica,sans-Serif" font-size="10.00">hello_world::algorithms</text>
<text text-anchor="middle" x="604" y="-42.5" font-family="Helvetica,sans-Serif" font-size="10.00">::controller::pid::OutLimit::calc</text>
</a>
</g>
</g>
<!-- Node2 -->
<g id="Node000002" class="node">
<title>Node2</title>
<g id="a_Node000002"><a xlink:href="$classhello__world_1_1algorithms_1_1controller_1_1pid_1_1_basic_pid.html#a2b8667e517f1999ec3fecffe9e6bd33d" xlink:title="PID 控制器的计算函数">
<polygon fill="white" stroke="#666666" points="494,-65.5 344,-65.5 344,-35.5 494,-35.5 494,-65.5"/>
<text text-anchor="start" x="352" y="-53.5" font-family="Helvetica,sans-Serif" font-size="10.00">hello_world::algorithms</text>
<text text-anchor="middle" x="419" y="-42.5" font-family="Helvetica,sans-Serif" font-size="10.00">::controller::pid::BasicPid::calc</text>
</a>
</g>
</g>
<!-- Node1&#45;&gt;Node2 -->
<g id="edge15_Node000001_Node000002" class="edge">
<title>Node1&#45;&gt;Node2</title>
<g id="a_edge15_Node000001_Node000002"><a xlink:title=" ">
<path fill="none" stroke="#63b8ff" d="M518.9,-50.5C510.69,-50.5 502.39,-50.5 494.29,-50.5"/>
<polygon fill="#63b8ff" stroke="#63b8ff" points="518.62,-54 528.62,-50.5 518.62,-47 518.62,-54"/>
</a>
</g>
</g>
<!-- Node3 -->
<g id="Node000003" class="node">
<title>Node3</title>
<g id="a_Node000003"><a xlink:href="$classhello__world_1_1algorithms_1_1controller_1_1pid_1_1_multi_nodes_pid.html#accc1fd43233ab6d228f7111eab364c51" xlink:title="计算级联 PID 控制器的输出">
<polygon fill="white" stroke="#666666" points="308,-100 172,-100 172,-59 308,-59 308,-100"/>
<text text-anchor="start" x="180" y="-88" font-family="Helvetica,sans-Serif" font-size="10.00">hello_world::algorithms</text>
<text text-anchor="start" x="180" y="-77" font-family="Helvetica,sans-Serif" font-size="10.00">::controller::pid::MultiNodes</text>
<text text-anchor="middle" x="240" y="-66" font-family="Helvetica,sans-Serif" font-size="10.00">Pid::cascade_calc</text>
</a>
</g>
</g>
<!-- Node1&#45;&gt;Node3 -->
<g id="edge20_Node000001_Node000003" class="edge">
<title>Node1&#45;&gt;Node3</title>
<g id="a_edge20_Node000001_Node000003"><a xlink:title=" ">
<path fill="none" stroke="#63b8ff" d="M532.31,-68.18C519.63,-70.75 506.48,-73.02 494,-74.5 431.4,-81.94 359.48,-82.61 308.37,-81.76"/>
<polygon fill="#63b8ff" stroke="#63b8ff" points="532.76,-71.45 541.82,-65.97 531.32,-64.6 532.76,-71.45"/>
</a>
</g>
</g>
<!-- Node5 -->
<g id="Node000005" class="node">
<title>Node5</title>
<g id="a_Node000005"><a xlink:href="$classhello__world_1_1algorithms_1_1controller_1_1pid_1_1_multi_nodes_pid.html#a180ce707d30cae5f45ec5820d1b2c50c" xlink:title="计算并行 PID 控制器的输出">
<polygon fill="white" stroke="#666666" points="308,-41 172,-41 172,0 308,0 308,-41"/>
<text text-anchor="start" x="180" y="-29" font-family="Helvetica,sans-Serif" font-size="10.00">hello_world::algorithms</text>
<text text-anchor="start" x="180" y="-18" font-family="Helvetica,sans-Serif" font-size="10.00">::controller::pid::MultiNodes</text>
<text text-anchor="middle" x="240" y="-7" font-family="Helvetica,sans-Serif" font-size="10.00">Pid::parallel_calc</text>
</a>
</g>
</g>
<!-- Node1&#45;&gt;Node5 -->
<g id="edge21_Node000001_Node000005" class="edge">
<title>Node1&#45;&gt;Node5</title>
<g id="a_edge21_Node000001_Node000005"><a xlink:title=" ">
<path fill="none" stroke="#63b8ff" d="M532.07,-32.81C519.46,-30.26 506.4,-28 494,-26.5 431.41,-18.94 359.49,-17.97 308.37,-18.58"/>
<polygon fill="#63b8ff" stroke="#63b8ff" points="531.03,-36.38 541.53,-35.01 532.47,-29.53 531.03,-36.38"/>
</a>
</g>
</g>
<!-- Node2&#45;&gt;Node3 -->
<g id="edge16_Node000002_Node000003" class="edge">
<title>Node2&#45;&gt;Node3</title>
<g id="a_edge16_Node000002_Node000003"><a xlink:title=" ">
<path fill="none" stroke="#63b8ff" d="M332.91,-64.44C324.66,-65.79 316.38,-67.15 308.34,-68.47"/>
<polygon fill="#63b8ff" stroke="#63b8ff" points="333.4,-67.74 342.71,-62.67 332.27,-60.84 333.4,-67.74"/>
</a>
</g>
</g>
<!-- Node2&#45;&gt;Node5 -->
<g id="edge18_Node000002_Node000005" class="edge">
<title>Node2&#45;&gt;Node5</title>
<g id="a_edge18_Node000002_Node000005"><a xlink:title=" ">
<path fill="none" stroke="#63b8ff" d="M332.91,-36.08C324.66,-34.68 316.38,-33.28 308.34,-31.91"/>
<polygon fill="#63b8ff" stroke="#63b8ff" points="332.26,-39.69 342.71,-37.91 333.43,-32.79 332.26,-39.69"/>
</a>
</g>
</g>
<!-- Node4 -->
<g id="Node000004" class="node">
<title>Node4</title>
<g id="a_Node000004"><a xlink:href="$classhello__world_1_1algorithms_1_1controller_1_1pid_1_1_multi_nodes_pid.html#ae10478e0d731be3f6e6d0c479964d448" xlink:title="计算 PID 控制器的输出">
<polygon fill="white" stroke="#666666" points="136,-70 0,-70 0,-29 136,-29 136,-70"/>
<text text-anchor="start" x="8" y="-58" font-family="Helvetica,sans-Serif" font-size="10.00">hello_world::algorithms</text>
<text text-anchor="start" x="8" y="-47" font-family="Helvetica,sans-Serif" font-size="10.00">::controller::pid::MultiNodes</text>
<text text-anchor="middle" x="68" y="-36" font-family="Helvetica,sans-Serif" font-size="10.00">Pid::calc</text>
</a>
</g>
</g>
<!-- Node3&#45;&gt;Node4 -->
<g id="edge17_Node000003_Node000004" class="edge">
<title>Node3&#45;&gt;Node4</title>
<g id="a_edge17_Node000003_Node000004"><a xlink:title=" ">
<path fill="none" stroke="#63b8ff" d="M161.02,-65.74C152.75,-64.28 144.39,-62.8 136.26,-61.37"/>
<polygon fill="#63b8ff" stroke="#63b8ff" points="160.36,-69.35 170.81,-67.64 161.57,-62.46 160.36,-69.35"/>
</a>
</g>
</g>
<!-- Node5&#45;&gt;Node4 -->
<g id="edge19_Node000005_Node000004" class="edge">
<title>Node5&#45;&gt;Node4</title>
<g id="a_edge19_Node000005_Node000004"><a xlink:title=" ">
<path fill="none" stroke="#63b8ff" d="M161.02,-33.8C152.75,-35.21 144.39,-36.64 136.26,-38.03"/>
<polygon fill="#63b8ff" stroke="#63b8ff" points="161.54,-37.09 170.81,-31.96 160.37,-30.19 161.54,-37.09"/>
</a>
</g>
</g>
</g>
</svg>
