<?xml version="1.0" encoding="UTF-8" standalone="no"?>
<!DOCTYPE svg PUBLIC "-//W3C//DTD SVG 1.1//EN"
 "http://www.w3.org/Graphics/SVG/1.1/DTD/svg11.dtd">
<!-- Generated by graphviz version 8.0.3 (20230416.2022)
 -->
<!-- Title: hello_world::devices::motor::DM_J4310::decode Pages: 1 -->
<svg width="501pt" height="192pt"
 viewBox="0.00 0.00 501.00 191.71" xmlns="http://www.w3.org/2000/svg" xmlns:xlink="http://www.w3.org/1999/xlink">
<g id="graph0" class="graph" transform="scale(1 1) rotate(0) translate(4 187.71)">
<title>hello_world::devices::motor::DM_J4310::decode</title>
<!-- Node1 -->
<g id="Node000001" class="node">
<title>Node1</title>
<g id="a_Node000001"><a xlink:title="将电调发回的 CAN 报文进行解包">
<polygon fill="#999999" stroke="#666666" points="137,-116 0,-116 0,-86 137,-86 137,-116"/>
<text text-anchor="start" x="8" y="-104" font-family="Helvetica,sans-Serif" font-size="10.00">hello_world::devices</text>
<text text-anchor="middle" x="68.5" y="-93" font-family="Helvetica,sans-Serif" font-size="10.00">::motor::DM_J4310::decode</text>
</a>
</g>
</g>
<!-- Node2 -->
<g id="Node000002" class="node">
<title>Node2</title>
<g id="a_Node000002"><a xlink:href="$namespacehello__world_1_1devices_1_1motor.html#aa4ac89a85a2b03e90b1606d4c9962f7c" xlink:title="根据给定的范围和位数，将 uint 转换为 float">
<polygon fill="white" stroke="#666666" points="473.5,-164 370.5,-164 370.5,-134 473.5,-134 473.5,-164"/>
<text text-anchor="start" x="378.5" y="-152" font-family="Helvetica,sans-Serif" font-size="10.00">hello_world::devices</text>
<text text-anchor="middle" x="422" y="-141" font-family="Helvetica,sans-Serif" font-size="10.00">::motor::_Uint2Float</text>
</a>
</g>
</g>
<!-- Node1&#45;&gt;Node2 -->
<g id="edge19_Node000001_Node000002" class="edge">
<title>Node1&#45;&gt;Node2</title>
<g id="a_edge19_Node000001_Node000002"><a xlink:title=" ">
<path fill="none" stroke="#63b8ff" d="M85.01,-116.46C103.9,-134.1 137.7,-161.93 173,-173 236,-192.76 312.04,-180.42 363.18,-167.24"/>
<polygon fill="#63b8ff" stroke="#63b8ff" points="363.94,-170.39 372.69,-164.43 362.13,-163.63 363.94,-170.39"/>
</a>
</g>
</g>
<!-- Node3 -->
<g id="Node000003" class="node">
<title>Node3</title>
<g id="a_Node000003"><a xlink:href="$classhello__world_1_1devices_1_1motor_1_1_motor.html#acad1e1f1792ab8cb6265b1d5195737f6" xlink:title=" ">
<polygon fill="white" stroke="#666666" points="475.5,-73 368.5,-73 368.5,-43 475.5,-43 475.5,-73"/>
<text text-anchor="start" x="376.5" y="-61" font-family="Helvetica,sans-Serif" font-size="10.00">hello_world::devices</text>
<text text-anchor="middle" x="422" y="-50" font-family="Helvetica,sans-Serif" font-size="10.00">::motor::Motor::angle</text>
</a>
</g>
</g>
<!-- Node1&#45;&gt;Node3 -->
<g id="edge20_Node000001_Node000003" class="edge">
<title>Node1&#45;&gt;Node3</title>
<g id="a_edge20_Node000001_Node000003"><a xlink:title=" ">
<path fill="none" stroke="#63b8ff" d="M129.13,-85.55C143.42,-82.3 158.69,-79.19 173,-77 235.23,-67.46 307.02,-62.62 357.3,-60.23"/>
<polygon fill="#63b8ff" stroke="#63b8ff" points="357.17,-63.69 367,-59.74 356.85,-56.7 357.17,-63.69"/>
</a>
</g>
</g>
<!-- Node4 -->
<g id="Node000004" class="node">
<title>Node4</title>
<g id="a_Node000004"><a xlink:href="$classhello__world_1_1devices_1_1motor_1_1_motor.html#a21092858a98af5688b398d57cd203592" xlink:title="将角度转换到指定范围">
<polygon fill="white" stroke="#666666" points="309.5,-30 178.5,-30 178.5,0 309.5,0 309.5,-30"/>
<text text-anchor="start" x="186.5" y="-18" font-family="Helvetica,sans-Serif" font-size="10.00">hello_world::devices</text>
<text text-anchor="middle" x="244" y="-7" font-family="Helvetica,sans-Serif" font-size="10.00">::motor::Motor::normAngle</text>
</a>
</g>
</g>
<!-- Node1&#45;&gt;Node4 -->
<g id="edge21_Node000001_Node000004" class="edge">
<title>Node1&#45;&gt;Node4</title>
<g id="a_edge21_Node000001_Node000004"><a xlink:title=" ">
<path fill="none" stroke="#63b8ff" d="M95.45,-85.66C116.14,-73.69 146.01,-56.98 173,-44 179.77,-40.75 186.99,-37.5 194.14,-34.43"/>
<polygon fill="#63b8ff" stroke="#63b8ff" points="194.94,-37.47 202.79,-30.35 192.21,-31.02 194.94,-37.47"/>
</a>
</g>
</g>
<!-- Node6 -->
<g id="Node000006" class="node">
<title>Node6</title>
<g id="a_Node000006"><a xlink:href="$classhello__world_1_1devices_1_1motor_1_1_d_m___j4310.html#acb60cb1b9843925d02c8a07c4b39aff4" xlink:title="将原始报文内容转换为转子电流">
<polygon fill="white" stroke="#666666" points="315,-164 173,-164 173,-134 315,-134 315,-164"/>
<text text-anchor="start" x="181" y="-152" font-family="Helvetica,sans-Serif" font-size="10.00">hello_world::devices</text>
<text text-anchor="middle" x="244" y="-141" font-family="Helvetica,sans-Serif" font-size="10.00">::motor::DM_J4310::raw2curr</text>
</a>
</g>
</g>
<!-- Node1&#45;&gt;Node6 -->
<g id="edge24_Node000001_Node000006" class="edge">
<title>Node1&#45;&gt;Node6</title>
<g id="a_edge24_Node000001_Node000006"><a xlink:title=" ">
<path fill="none" stroke="#63b8ff" d="M125.35,-116.45C141.76,-120.99 159.86,-126 176.85,-130.7"/>
<polygon fill="#63b8ff" stroke="#63b8ff" points="175.68,-134.28 186.25,-133.58 177.55,-127.54 175.68,-134.28"/>
</a>
</g>
</g>
<!-- Node7 -->
<g id="Node000007" class="node">
<title>Node7</title>
<g id="a_Node000007"><a xlink:href="$classhello__world_1_1devices_1_1motor_1_1_d_m___j4310.html#aa2784ed2ea68d2c48641004fdbd5ea52" xlink:title="将原始报文内容转换为输出端力矩">
<polygon fill="white" stroke="#666666" points="315,-116 173,-116 173,-86 315,-86 315,-116"/>
<text text-anchor="start" x="181" y="-104" font-family="Helvetica,sans-Serif" font-size="10.00">hello_world::devices</text>
<text text-anchor="middle" x="244" y="-93" font-family="Helvetica,sans-Serif" font-size="10.00">::motor::DM_J4310::raw2torq</text>
</a>
</g>
</g>
<!-- Node1&#45;&gt;Node7 -->
<g id="edge26_Node000001_Node000007" class="edge">
<title>Node1&#45;&gt;Node7</title>
<g id="a_edge26_Node000001_Node000007"><a xlink:title=" ">
<path fill="none" stroke="#63b8ff" d="M137.08,-101C145.21,-101 153.59,-101 161.89,-101"/>
<polygon fill="#63b8ff" stroke="#63b8ff" points="161.75,-104.5 171.75,-101 161.75,-97.5 161.75,-104.5"/>
</a>
</g>
</g>
<!-- Node4&#45;&gt;Node3 -->
<g id="edge22_Node000004_Node000003" class="edge">
<title>Node4&#45;&gt;Node3</title>
<g id="a_edge22_Node000004_Node000003"><a xlink:title=" ">
<path fill="none" stroke="#63b8ff" d="M308.04,-30.4C324.23,-34.36 341.64,-38.61 357.82,-42.57"/>
<polygon fill="#63b8ff" stroke="#63b8ff" points="356.72,-46.14 367.26,-45.11 358.38,-39.34 356.72,-46.14"/>
</a>
</g>
</g>
<!-- Node5 -->
<g id="Node000005" class="node">
<title>Node5</title>
<g id="a_Node000005"><a xlink:href="$namespacehello__world.html#a71f5ddbc81f1fa181ecefaf0b1f51fa8" xlink:title="将周期性数据归一化到指定周期区间">
<polygon fill="white" stroke="#666666" points="493,-24.5 351,-24.5 351,-5.5 493,-5.5 493,-24.5"/>
<text text-anchor="middle" x="422" y="-12.5" font-family="Helvetica,sans-Serif" font-size="10.00">hello_world::NormPeriodData</text>
</a>
</g>
</g>
<!-- Node4&#45;&gt;Node5 -->
<g id="edge23_Node000004_Node000005" class="edge">
<title>Node4&#45;&gt;Node5</title>
<g id="a_edge23_Node000004_Node000005"><a xlink:title=" ">
<path fill="none" stroke="#63b8ff" d="M309.54,-15C319.33,-15 329.55,-15 339.65,-15"/>
<polygon fill="#63b8ff" stroke="#63b8ff" points="339.54,-18.5 349.54,-15 339.54,-11.5 339.54,-18.5"/>
</a>
</g>
</g>
<!-- Node6&#45;&gt;Node2 -->
<g id="edge25_Node000006_Node000002" class="edge">
<title>Node6&#45;&gt;Node2</title>
<g id="a_edge25_Node000006_Node000002"><a xlink:title=" ">
<path fill="none" stroke="#63b8ff" d="M315.32,-149C329.89,-149 345.14,-149 359.37,-149"/>
<polygon fill="#63b8ff" stroke="#63b8ff" points="359.03,-152.5 369.03,-149 359.03,-145.5 359.03,-152.5"/>
</a>
</g>
</g>
<!-- Node7&#45;&gt;Node2 -->
<g id="edge27_Node000007_Node000002" class="edge">
<title>Node7&#45;&gt;Node2</title>
<g id="a_edge27_Node000007_Node000002"><a xlink:title=" ">
<path fill="none" stroke="#63b8ff" d="M301.66,-116.45C320.14,-121.49 340.74,-127.11 359.56,-132.24"/>
<polygon fill="#63b8ff" stroke="#63b8ff" points="358.53,-135.86 369.1,-135.12 360.38,-129.11 358.53,-135.86"/>
</a>
</g>
</g>
</g>
</svg>
