<?xml version="1.0" encoding="UTF-8" standalone="no"?>
<!DOCTYPE svg PUBLIC "-//W3C//DTD SVG 1.1//EN"
 "http://www.w3.org/Graphics/SVG/1.1/DTD/svg11.dtd">
<!-- Generated by graphviz version 8.0.3 (20230416.2022)
 -->
<!-- Title: hello_world::devices::motor::Motor Pages: 1 -->
<svg width="402pt" height="326pt"
 viewBox="0.00 0.00 402.00 326.00" xmlns="http://www.w3.org/2000/svg" xmlns:xlink="http://www.w3.org/1999/xlink">
<g id="graph0" class="graph" transform="scale(1 1) rotate(0) translate(4 322)">
<title>hello_world::devices::motor::Motor</title>
<!-- Node1 -->
<g id="Node000001" class="node">
<title>Node1</title>
<g id="a_Node000001"><a xlink:title=" ">
<polygon fill="#999999" stroke="#666666" points="255,-174 152,-174 152,-144 255,-144 255,-174"/>
<text text-anchor="start" x="160" y="-162" font-family="Helvetica,sans-Serif" font-size="10.00">hello_world::devices</text>
<text text-anchor="middle" x="203.5" y="-151" font-family="Helvetica,sans-Serif" font-size="10.00">::motor::Motor</text>
</a>
</g>
</g>
<!-- Node3 -->
<g id="Node000003" class="node">
<title>Node3</title>
<g id="a_Node000003"><a xlink:href="$classhello__world_1_1devices_1_1motor_1_1_a1.html" xlink:title=" ">
<polygon fill="white" stroke="#666666" points="394,-318 291,-318 291,-288 394,-288 394,-318"/>
<text text-anchor="start" x="299" y="-306" font-family="Helvetica,sans-Serif" font-size="10.00">hello_world::devices</text>
<text text-anchor="middle" x="342.5" y="-295" font-family="Helvetica,sans-Serif" font-size="10.00">::motor::A1</text>
</a>
</g>
</g>
<!-- Node1&#45;&gt;Node3 -->
<g id="edge18_Node000001_Node000003" class="edge">
<title>Node1&#45;&gt;Node3</title>
<g id="a_edge18_Node000001_Node000003"><a xlink:title=" ">
<path fill="none" stroke="#63b8ff" d="M217.4,-183.81C232.18,-210.26 258.61,-252 291,-279 294.8,-282.17 299.09,-285.03 303.53,-287.58"/>
<polygon fill="#63b8ff" stroke="#63b8ff" points="219.99,-182.26 212.14,-175.15 213.84,-185.6 219.99,-182.26"/>
</a>
</g>
</g>
<!-- Node4 -->
<g id="Node000004" class="node">
<title>Node4</title>
<g id="a_Node000004"><a xlink:href="$classhello__world_1_1devices_1_1motor_1_1_d_m___j4310.html" xlink:title=" ">
<polygon fill="white" stroke="#666666" points="394,-270 291,-270 291,-240 394,-240 394,-270"/>
<text text-anchor="start" x="299" y="-258" font-family="Helvetica,sans-Serif" font-size="10.00">hello_world::devices</text>
<text text-anchor="middle" x="342.5" y="-247" font-family="Helvetica,sans-Serif" font-size="10.00">::motor::DM_J4310</text>
</a>
</g>
</g>
<!-- Node1&#45;&gt;Node4 -->
<g id="edge19_Node000001_Node000004" class="edge">
<title>Node1&#45;&gt;Node4</title>
<g id="a_edge19_Node000001_Node000004"><a xlink:title=" ">
<path fill="none" stroke="#63b8ff" d="M228.54,-181.83C245.23,-196.94 268.43,-216.57 291,-231 295.74,-234.03 300.93,-236.92 306.11,-239.58"/>
<polygon fill="#63b8ff" stroke="#63b8ff" points="231.18,-179.58 221.45,-175.39 226.44,-184.73 231.18,-179.58"/>
</a>
</g>
</g>
<!-- Node5 -->
<g id="Node000005" class="node">
<title>Node5</title>
<g id="a_Node000005"><a xlink:href="$classhello__world_1_1devices_1_1motor_1_1_g_m6020.html" xlink:title=" ">
<polygon fill="white" stroke="#666666" points="394,-222 291,-222 291,-192 394,-192 394,-222"/>
<text text-anchor="start" x="299" y="-210" font-family="Helvetica,sans-Serif" font-size="10.00">hello_world::devices</text>
<text text-anchor="middle" x="342.5" y="-199" font-family="Helvetica,sans-Serif" font-size="10.00">::motor::GM6020</text>
</a>
</g>
</g>
<!-- Node1&#45;&gt;Node5 -->
<g id="edge20_Node000001_Node000005" class="edge">
<title>Node1&#45;&gt;Node5</title>
<g id="a_edge20_Node000001_Node000005"><a xlink:title=" ">
<path fill="none" stroke="#63b8ff" d="M258.73,-178C271.58,-182.5 285.14,-187.25 297.48,-191.58"/>
<polygon fill="#63b8ff" stroke="#63b8ff" points="260.2,-174.46 249.6,-174.45 257.88,-181.06 260.2,-174.46"/>
</a>
</g>
</g>
<!-- Node6 -->
<g id="Node000006" class="node">
<title>Node6</title>
<g id="a_Node000006"><a xlink:href="$classhello__world_1_1devices_1_1motor_1_1_m2006.html" xlink:title=" ">
<polygon fill="white" stroke="#666666" points="394,-174 291,-174 291,-144 394,-144 394,-174"/>
<text text-anchor="start" x="299" y="-162" font-family="Helvetica,sans-Serif" font-size="10.00">hello_world::devices</text>
<text text-anchor="middle" x="342.5" y="-151" font-family="Helvetica,sans-Serif" font-size="10.00">::motor::M2006</text>
</a>
</g>
</g>
<!-- Node1&#45;&gt;Node6 -->
<g id="edge21_Node000001_Node000006" class="edge">
<title>Node1&#45;&gt;Node6</title>
<g id="a_edge21_Node000001_Node000006"><a xlink:title=" ">
<path fill="none" stroke="#63b8ff" d="M265.88,-159C274.15,-159 282.56,-159 290.63,-159"/>
<polygon fill="#63b8ff" stroke="#63b8ff" points="266.12,-155.5 256.12,-159 266.12,-162.5 266.12,-155.5"/>
</a>
</g>
</g>
<!-- Node7 -->
<g id="Node000007" class="node">
<title>Node7</title>
<g id="a_Node000007"><a xlink:href="$classhello__world_1_1devices_1_1motor_1_1_m3508.html" xlink:title=" ">
<polygon fill="white" stroke="#666666" points="394,-126 291,-126 291,-96 394,-96 394,-126"/>
<text text-anchor="start" x="299" y="-114" font-family="Helvetica,sans-Serif" font-size="10.00">hello_world::devices</text>
<text text-anchor="middle" x="342.5" y="-103" font-family="Helvetica,sans-Serif" font-size="10.00">::motor::M3508</text>
</a>
</g>
</g>
<!-- Node1&#45;&gt;Node7 -->
<g id="edge22_Node000001_Node000007" class="edge">
<title>Node1&#45;&gt;Node7</title>
<g id="a_edge22_Node000001_Node000007"><a xlink:title=" ">
<path fill="none" stroke="#63b8ff" d="M258.73,-140C271.58,-135.5 285.14,-130.75 297.48,-126.42"/>
<polygon fill="#63b8ff" stroke="#63b8ff" points="257.88,-136.94 249.6,-143.55 260.2,-143.54 257.88,-136.94"/>
</a>
</g>
</g>
<!-- Node8 -->
<g id="Node000008" class="node">
<title>Node8</title>
<g id="a_Node000008"><a xlink:href="$classhello__world_1_1devices_1_1motor_1_1_m8910.html" xlink:title=" ">
<polygon fill="white" stroke="#666666" points="394,-78 291,-78 291,-48 394,-48 394,-78"/>
<text text-anchor="start" x="299" y="-66" font-family="Helvetica,sans-Serif" font-size="10.00">hello_world::devices</text>
<text text-anchor="middle" x="342.5" y="-55" font-family="Helvetica,sans-Serif" font-size="10.00">::motor::M8910</text>
</a>
</g>
</g>
<!-- Node1&#45;&gt;Node8 -->
<g id="edge23_Node000001_Node000008" class="edge">
<title>Node1&#45;&gt;Node8</title>
<g id="a_edge23_Node000001_Node000008"><a xlink:title=" ">
<path fill="none" stroke="#63b8ff" d="M228.54,-136.17C245.23,-121.06 268.43,-101.43 291,-87 295.74,-83.97 300.93,-81.08 306.11,-78.42"/>
<polygon fill="#63b8ff" stroke="#63b8ff" points="226.44,-133.27 221.45,-142.61 231.18,-138.42 226.44,-133.27"/>
</a>
</g>
</g>
<!-- Node9 -->
<g id="Node000009" class="node">
<title>Node9</title>
<g id="a_Node000009"><a xlink:href="$classhello__world_1_1devices_1_1motor_1_1_m_f9025v2.html" xlink:title=" ">
<polygon fill="white" stroke="#666666" points="394,-30 291,-30 291,0 394,0 394,-30"/>
<text text-anchor="start" x="299" y="-18" font-family="Helvetica,sans-Serif" font-size="10.00">hello_world::devices</text>
<text text-anchor="middle" x="342.5" y="-7" font-family="Helvetica,sans-Serif" font-size="10.00">::motor::MF9025v2</text>
</a>
</g>
</g>
<!-- Node1&#45;&gt;Node9 -->
<g id="edge24_Node000001_Node000009" class="edge">
<title>Node1&#45;&gt;Node9</title>
<g id="a_edge24_Node000001_Node000009"><a xlink:title=" ">
<path fill="none" stroke="#63b8ff" d="M217.4,-134.19C232.18,-107.74 258.61,-66 291,-39 294.8,-35.83 299.09,-32.97 303.53,-30.42"/>
<polygon fill="#63b8ff" stroke="#63b8ff" points="213.84,-132.4 212.14,-142.85 219.99,-135.74 213.84,-132.4"/>
</a>
</g>
</g>
<!-- Node2 -->
<g id="Node000002" class="node">
<title>Node2</title>
<g id="a_Node000002"><a xlink:href="$classhello__world_1_1_mem_mang.html" xlink:title=" ">
<polygon fill="white" stroke="#666666" points="116,-168.5 0,-168.5 0,-149.5 116,-149.5 116,-168.5"/>
<text text-anchor="middle" x="58" y="-156.5" font-family="Helvetica,sans-Serif" font-size="10.00">hello_world::MemMang</text>
</a>
</g>
</g>
<!-- Node2&#45;&gt;Node1 -->
<g id="edge17_Node000001_Node000002" class="edge">
<title>Node2&#45;&gt;Node1</title>
<g id="a_edge17_Node000001_Node000002"><a xlink:title=" ">
<path fill="none" stroke="#63b8ff" d="M126.96,-159C135.25,-159 143.62,-159 151.61,-159"/>
<polygon fill="#63b8ff" stroke="#63b8ff" points="127.13,-155.5 117.13,-159 127.13,-162.5 127.13,-155.5"/>
</a>
</g>
</g>
</g>
</svg>
