<?xml version="1.0" encoding="UTF-8" standalone="no"?>
<!DOCTYPE svg PUBLIC "-//W3C//DTD SVG 1.1//EN"
 "http://www.w3.org/Graphics/SVG/1.1/DTD/svg11.dtd">
<!-- Generated by graphviz version 8.0.3 (20230416.2022)
 -->
<!-- Title: hello_world::devices::motor::MF9025v2::MF9025v2 Pages: 1 -->
<svg width="452pt" height="268pt"
 viewBox="0.00 0.00 452.00 268.00" xmlns="http://www.w3.org/2000/svg" xmlns:xlink="http://www.w3.org/1999/xlink">
<g id="graph0" class="graph" transform="scale(1 1) rotate(0) translate(4 264)">
<title>hello_world::devices::motor::MF9025v2::MF9025v2</title>
<!-- Node1 -->
<g id="Node000001" class="node">
<title>Node1</title>
<g id="a_Node000001"><a xlink:title="MF9025v2 初始化">
<polygon fill="#999999" stroke="#666666" points="148,-147 0,-147 0,-117 148,-117 148,-147"/>
<text text-anchor="start" x="8" y="-135" font-family="Helvetica,sans-Serif" font-size="10.00">hello_world::devices</text>
<text text-anchor="middle" x="74" y="-124" font-family="Helvetica,sans-Serif" font-size="10.00">::motor::MF9025v2::MF9025v2</text>
</a>
</g>
</g>
<!-- Node2 -->
<g id="Node000002" class="node">
<title>Node2</title>
<g id="a_Node000002"><a xlink:href="$classhello__world_1_1devices_1_1motor_1_1_motor.html#aebf04ce4e3628c60907a29771f383027" xlink:title="将转子电流转换为原始报文内容">
<polygon fill="white" stroke="#666666" points="305,-260 184,-260 184,-230 305,-230 305,-260"/>
<text text-anchor="start" x="192" y="-248" font-family="Helvetica,sans-Serif" font-size="10.00">hello_world::devices</text>
<text text-anchor="middle" x="244.5" y="-237" font-family="Helvetica,sans-Serif" font-size="10.00">::motor::Motor::curr2raw</text>
</a>
</g>
</g>
<!-- Node1&#45;&gt;Node2 -->
<g id="edge17_Node000001_Node000002" class="edge">
<title>Node1&#45;&gt;Node2</title>
<g id="a_edge17_Node000001_Node000002"><a xlink:title=" ">
<path fill="none" stroke="#63b8ff" d="M90.47,-147.22C110.63,-166.4 147.62,-199.49 184,-221 186.31,-222.36 188.71,-223.68 191.16,-224.96"/>
<polygon fill="#63b8ff" stroke="#63b8ff" points="189.28,-228.42 199.81,-229.61 192.33,-222.12 189.28,-228.42"/>
</a>
</g>
</g>
<!-- Node4 -->
<g id="Node000004" class="node">
<title>Node4</title>
<g id="a_Node000004"><a xlink:href="$classhello__world_1_1devices_1_1motor_1_1_motor.html#ab3e2187f017e86c6d4a83caa55fe9419" xlink:title=" ">
<polygon fill="white" stroke="#666666" points="296,-212 193,-212 193,-182 296,-182 296,-212"/>
<text text-anchor="start" x="201" y="-200" font-family="Helvetica,sans-Serif" font-size="10.00">hello_world::devices</text>
<text text-anchor="middle" x="244.5" y="-189" font-family="Helvetica,sans-Serif" font-size="10.00">::motor::Motor::id</text>
</a>
</g>
</g>
<!-- Node1&#45;&gt;Node4 -->
<g id="edge19_Node000001_Node000004" class="edge">
<title>Node1&#45;&gt;Node4</title>
<g id="a_edge19_Node000001_Node000004"><a xlink:title=" ">
<path fill="none" stroke="#63b8ff" d="M114.93,-147.4C138.45,-156.48 168.42,-168.04 193.5,-177.71"/>
<polygon fill="#63b8ff" stroke="#63b8ff" points="191.97,-181.26 202.56,-181.59 194.49,-174.73 191.97,-181.26"/>
</a>
</g>
</g>
<!-- Node5 -->
<g id="Node000005" class="node">
<title>Node5</title>
<g id="a_Node000005"><a xlink:href="$namespacehello__world.html#a94594f3432536927055026f3f48af251" xlink:title="获取两个变量间的最小值">
<polygon fill="white" stroke="#666666" points="287.5,-163.5 201.5,-163.5 201.5,-144.5 287.5,-144.5 287.5,-163.5"/>
<text text-anchor="middle" x="244.5" y="-151.5" font-family="Helvetica,sans-Serif" font-size="10.00">hello_world::Min</text>
</a>
</g>
</g>
<!-- Node1&#45;&gt;Node5 -->
<g id="edge20_Node000001_Node000005" class="edge">
<title>Node1&#45;&gt;Node5</title>
<g id="a_edge20_Node000001_Node000005"><a xlink:title=" ">
<path fill="none" stroke="#63b8ff" d="M148.42,-141.59C162.55,-143.43 177.1,-145.33 190.43,-147.07"/>
<polygon fill="#63b8ff" stroke="#63b8ff" points="189.94,-150.67 200.31,-148.49 190.85,-143.73 189.94,-150.67"/>
</a>
</g>
</g>
<!-- Node6 -->
<g id="Node000006" class="node">
<title>Node6</title>
<g id="a_Node000006"><a xlink:href="$classhello__world_1_1devices_1_1motor_1_1_motor.html#a1e4467d9f449b9c6c7d6886fffa89667" xlink:title="将原始报文内容转换为转子电流">
<polygon fill="white" stroke="#666666" points="305,-126 184,-126 184,-96 305,-96 305,-126"/>
<text text-anchor="start" x="192" y="-114" font-family="Helvetica,sans-Serif" font-size="10.00">hello_world::devices</text>
<text text-anchor="middle" x="244.5" y="-103" font-family="Helvetica,sans-Serif" font-size="10.00">::motor::Motor::raw2curr</text>
</a>
</g>
</g>
<!-- Node1&#45;&gt;Node6 -->
<g id="edge21_Node000001_Node000006" class="edge">
<title>Node1&#45;&gt;Node6</title>
<g id="a_edge21_Node000001_Node000006"><a xlink:title=" ">
<path fill="none" stroke="#63b8ff" d="M148.42,-122.85C156.53,-121.84 164.77,-120.81 172.85,-119.81"/>
<polygon fill="#63b8ff" stroke="#63b8ff" points="173.23,-123.16 182.72,-118.45 172.36,-116.21 173.23,-123.16"/>
</a>
</g>
</g>
<!-- Node7 -->
<g id="Node000007" class="node">
<title>Node7</title>
<g id="a_Node000007"><a xlink:href="$classhello__world_1_1devices_1_1motor_1_1_motor.html#af74a8c4ad7c0067a2d71afd711639366" xlink:title="将原始报文内容转换为输出端力矩">
<polygon fill="white" stroke="#666666" points="305,-78 184,-78 184,-48 305,-48 305,-78"/>
<text text-anchor="start" x="192" y="-66" font-family="Helvetica,sans-Serif" font-size="10.00">hello_world::devices</text>
<text text-anchor="middle" x="244.5" y="-55" font-family="Helvetica,sans-Serif" font-size="10.00">::motor::Motor::raw2torq</text>
</a>
</g>
</g>
<!-- Node1&#45;&gt;Node7 -->
<g id="edge22_Node000001_Node000007" class="edge">
<title>Node1&#45;&gt;Node7</title>
<g id="a_edge22_Node000001_Node000007"><a xlink:title=" ">
<path fill="none" stroke="#63b8ff" d="M112.3,-116.51C133.34,-107.8 160.12,-96.75 184,-87 187.62,-85.52 191.36,-84 195.12,-82.48"/>
<polygon fill="#63b8ff" stroke="#63b8ff" points="196.12,-85.44 204.07,-78.45 193.49,-78.96 196.12,-85.44"/>
</a>
</g>
</g>
<!-- Node8 -->
<g id="Node000008" class="node">
<title>Node8</title>
<g id="a_Node000008"><a xlink:href="$classhello__world_1_1devices_1_1motor_1_1_motor.html#a319adc3f1b7d43fa12015b52a153ea17" xlink:title="将输出端力矩转换为原始报文内容">
<polygon fill="white" stroke="#666666" points="305,-30 184,-30 184,0 305,0 305,-30"/>
<text text-anchor="start" x="192" y="-18" font-family="Helvetica,sans-Serif" font-size="10.00">hello_world::devices</text>
<text text-anchor="middle" x="244.5" y="-7" font-family="Helvetica,sans-Serif" font-size="10.00">::motor::Motor::torq2raw</text>
</a>
</g>
</g>
<!-- Node1&#45;&gt;Node8 -->
<g id="edge23_Node000001_Node000008" class="edge">
<title>Node1&#45;&gt;Node8</title>
<g id="a_edge23_Node000001_Node000008"><a xlink:title=" ">
<path fill="none" stroke="#63b8ff" d="M89.65,-116.74C109.51,-96.74 146.77,-61.56 184,-39 186.17,-37.68 188.43,-36.41 190.73,-35.19"/>
<polygon fill="#63b8ff" stroke="#63b8ff" points="192,-37.97 199.43,-30.42 188.91,-31.69 192,-37.97"/>
</a>
</g>
</g>
<!-- Node3 -->
<g id="Node000003" class="node">
<title>Node3</title>
<g id="a_Node000003"><a xlink:href="$classhello__world_1_1devices_1_1motor_1_1_motor.html#a7fbec1460a1db6c45b4c57fd0497e5e0" xlink:title=" ">
<polygon fill="white" stroke="#666666" points="444,-260 341,-260 341,-230 444,-230 444,-260"/>
<text text-anchor="start" x="349" y="-248" font-family="Helvetica,sans-Serif" font-size="10.00">hello_world::devices</text>
<text text-anchor="middle" x="392.5" y="-237" font-family="Helvetica,sans-Serif" font-size="10.00">::motor::Motor::curr</text>
</a>
</g>
</g>
<!-- Node2&#45;&gt;Node3 -->
<g id="edge18_Node000002_Node000003" class="edge">
<title>Node2&#45;&gt;Node3</title>
<g id="a_edge18_Node000002_Node000003"><a xlink:title=" ">
<path fill="none" stroke="#63b8ff" d="M305.31,-245C313.43,-245 321.77,-245 329.92,-245"/>
<polygon fill="#63b8ff" stroke="#63b8ff" points="329.88,-248.5 339.88,-245 329.88,-241.5 329.88,-248.5"/>
</a>
</g>
</g>
<!-- Node9 -->
<g id="Node000009" class="node">
<title>Node9</title>
<g id="a_Node000009"><a xlink:href="$classhello__world_1_1devices_1_1motor_1_1_motor.html#a987073404f2d04c10434f830884b9612" xlink:title=" ">
<polygon fill="white" stroke="#666666" points="444,-30 341,-30 341,0 444,0 444,-30"/>
<text text-anchor="start" x="349" y="-18" font-family="Helvetica,sans-Serif" font-size="10.00">hello_world::devices</text>
<text text-anchor="middle" x="392.5" y="-7" font-family="Helvetica,sans-Serif" font-size="10.00">::motor::Motor::torq</text>
</a>
</g>
</g>
<!-- Node8&#45;&gt;Node9 -->
<g id="edge24_Node000008_Node000009" class="edge">
<title>Node8&#45;&gt;Node9</title>
<g id="a_edge24_Node000008_Node000009"><a xlink:title=" ">
<path fill="none" stroke="#63b8ff" d="M305.31,-15C313.43,-15 321.77,-15 329.92,-15"/>
<polygon fill="#63b8ff" stroke="#63b8ff" points="329.88,-18.5 339.88,-15 329.88,-11.5 329.88,-18.5"/>
</a>
</g>
</g>
</g>
</svg>
