<?xml version="1.0" encoding="UTF-8" standalone="no"?>
<!DOCTYPE svg PUBLIC "-//W3C//DTD SVG 1.1//EN"
 "http://www.w3.org/Graphics/SVG/1.1/DTD/svg11.dtd">
<!-- Generated by graphviz version 8.0.3 (20230416.2022)
 -->
<!-- Title: hello_world::algorithms::controller::pid::MultiNodesPid Pages: 1 -->
<svg width="158pt" height="159pt"
 viewBox="0.00 0.00 158.00 159.00" xmlns="http://www.w3.org/2000/svg" xmlns:xlink="http://www.w3.org/1999/xlink">
<g id="graph0" class="graph" transform="scale(1 1) rotate(0) translate(4 155)">
<title>hello_world::algorithms::controller::pid::MultiNodesPid</title>
<!-- Node1 -->
<g id="Node000001" class="node">
<title>Node1</title>
<g id="a_Node000001"><a xlink:title="一个多节点 PID 控制器类，继承自 Controller 类，目前实现类型有串联或并联">
<polygon fill="#999999" stroke="#666666" points="150,-30 0,-30 0,0 150,0 150,-30"/>
<text text-anchor="start" x="8" y="-18" font-family="Helvetica,sans-Serif" font-size="10.00">hello_world::algorithms</text>
<text text-anchor="middle" x="75" y="-7" font-family="Helvetica,sans-Serif" font-size="10.00">::controller::pid::MultiNodesPid</text>
</a>
</g>
</g>
<!-- Node2 -->
<g id="Node000002" class="node">
<title>Node2</title>
<g id="a_Node000002"><a xlink:href="$classhello__world_1_1algorithms_1_1controller_1_1_controller.html" xlink:title=" ">
<polygon fill="white" stroke="#666666" points="133,-96 17,-96 17,-66 133,-66 133,-96"/>
<text text-anchor="start" x="25" y="-84" font-family="Helvetica,sans-Serif" font-size="10.00">hello_world::algorithms</text>
<text text-anchor="middle" x="75" y="-73" font-family="Helvetica,sans-Serif" font-size="10.00">::controller::Controller</text>
</a>
</g>
</g>
<!-- Node2&#45;&gt;Node1 -->
<g id="edge5_Node000001_Node000002" class="edge">
<title>Node2&#45;&gt;Node1</title>
<g id="a_edge5_Node000001_Node000002"><a xlink:title=" ">
<path fill="none" stroke="#63b8ff" d="M75,-54.97C75,-46.55 75,-37.45 75,-30.16"/>
<polygon fill="#63b8ff" stroke="#63b8ff" points="71.5,-54.8 75,-64.8 78.5,-54.8 71.5,-54.8"/>
</a>
</g>
</g>
<!-- Node3 -->
<g id="Node000003" class="node">
<title>Node3</title>
<g id="a_Node000003"><a xlink:href="$classhello__world_1_1_mem_mang.html" xlink:title=" ">
<polygon fill="white" stroke="#666666" points="133,-151 17,-151 17,-132 133,-132 133,-151"/>
<text text-anchor="middle" x="75" y="-139" font-family="Helvetica,sans-Serif" font-size="10.00">hello_world::MemMang</text>
</a>
</g>
</g>
<!-- Node3&#45;&gt;Node2 -->
<g id="edge6_Node000002_Node000003" class="edge">
<title>Node3&#45;&gt;Node2</title>
<g id="a_edge6_Node000002_Node000003"><a xlink:title=" ">
<path fill="none" stroke="#63b8ff" d="M75,-121.08C75,-112.92 75,-103.6 75,-96.11"/>
<polygon fill="#63b8ff" stroke="#63b8ff" points="71.5,-120.87 75,-130.87 78.5,-120.87 71.5,-120.87"/>
</a>
</g>
</g>
</g>
</svg>
