<?xml version="1.0" encoding="UTF-8" standalone="no"?>
<!DOCTYPE svg PUBLIC "-//W3C//DTD SVG 1.1//EN"
 "http://www.w3.org/Graphics/SVG/1.1/DTD/svg11.dtd">
<!-- Generated by graphviz version 8.0.3 (20230416.2022)
 -->
<!-- Title: hello_world::devices::motor::Motor::torq2raw Pages: 1 -->
<svg width="313pt" height="278pt"
 viewBox="0.00 0.00 313.00 278.00" xmlns="http://www.w3.org/2000/svg" xmlns:xlink="http://www.w3.org/1999/xlink">
<g id="graph0" class="graph" transform="scale(1 1) rotate(0) translate(4 274)">
<title>hello_world::devices::motor::Motor::torq2raw</title>
<!-- Node1 -->
<g id="Node000001" class="node">
<title>Node1</title>
<g id="a_Node000001"><a xlink:title="将输出端力矩转换为原始报文内容">
<polygon fill="#999999" stroke="#666666" points="305,-150 184,-150 184,-120 305,-120 305,-150"/>
<text text-anchor="start" x="192" y="-138" font-family="Helvetica,sans-Serif" font-size="10.00">hello_world::devices</text>
<text text-anchor="middle" x="244.5" y="-127" font-family="Helvetica,sans-Serif" font-size="10.00">::motor::Motor::torq2raw</text>
</a>
</g>
</g>
<!-- Node2 -->
<g id="Node000002" class="node">
<title>Node2</title>
<g id="a_Node000002"><a xlink:href="$classhello__world_1_1devices_1_1motor_1_1_a1.html#a1c439b72ce074a0e04d38b06749f499c" xlink:title="A1 初始化">
<polygon fill="white" stroke="#666666" points="125.5,-270 22.5,-270 22.5,-240 125.5,-240 125.5,-270"/>
<text text-anchor="start" x="30.5" y="-258" font-family="Helvetica,sans-Serif" font-size="10.00">hello_world::devices</text>
<text text-anchor="middle" x="74" y="-247" font-family="Helvetica,sans-Serif" font-size="10.00">::motor::A1::A1</text>
</a>
</g>
</g>
<!-- Node1&#45;&gt;Node2 -->
<g id="edge13_Node000001_Node000002" class="edge">
<title>Node1&#45;&gt;Node2</title>
<g id="a_edge13_Node000001_Node000002"><a xlink:title=" ">
<path fill="none" stroke="#63b8ff" d="M225.37,-158.79C207.75,-180.41 179.16,-211.77 148,-231 141.19,-235.2 133.56,-238.75 125.87,-241.73"/>
<polygon fill="#63b8ff" stroke="#63b8ff" points="228.73,-161.19 232.22,-151.19 223.26,-156.83 228.73,-161.19"/>
</a>
</g>
</g>
<!-- Node3 -->
<g id="Node000003" class="node">
<title>Node3</title>
<g id="a_Node000003"><a xlink:href="$classhello__world_1_1devices_1_1motor_1_1_m2006.html#a52ce5e7bbbb2fffe82f86291b8876221" xlink:title="M2006 初始化">
<polygon fill="white" stroke="#666666" points="133,-222 15,-222 15,-192 133,-192 133,-222"/>
<text text-anchor="start" x="23" y="-210" font-family="Helvetica,sans-Serif" font-size="10.00">hello_world::devices</text>
<text text-anchor="middle" x="74" y="-199" font-family="Helvetica,sans-Serif" font-size="10.00">::motor::M2006::M2006</text>
</a>
</g>
</g>
<!-- Node1&#45;&gt;Node3 -->
<g id="edge14_Node000001_Node000003" class="edge">
<title>Node1&#45;&gt;Node3</title>
<g id="a_edge14_Node000001_Node000003"><a xlink:title=" ">
<path fill="none" stroke="#63b8ff" d="M206.34,-155.29C188.91,-164.39 167.68,-174.87 148,-183 140.72,-186 132.93,-188.9 125.23,-191.57"/>
<polygon fill="#63b8ff" stroke="#63b8ff" points="207.39,-158.17 214.6,-150.4 204.12,-151.97 207.39,-158.17"/>
</a>
</g>
</g>
<!-- Node4 -->
<g id="Node000004" class="node">
<title>Node4</title>
<g id="a_Node000004"><a xlink:href="$classhello__world_1_1devices_1_1motor_1_1_m3508.html#a2fbed6fbaa90b42893978a1805ea78e6" xlink:title="M3508 初始化">
<polygon fill="white" stroke="#666666" points="133,-174 15,-174 15,-144 133,-144 133,-174"/>
<text text-anchor="start" x="23" y="-162" font-family="Helvetica,sans-Serif" font-size="10.00">hello_world::devices</text>
<text text-anchor="middle" x="74" y="-151" font-family="Helvetica,sans-Serif" font-size="10.00">::motor::M3508::M3508</text>
</a>
</g>
</g>
<!-- Node1&#45;&gt;Node4 -->
<g id="edge15_Node000001_Node000004" class="edge">
<title>Node1&#45;&gt;Node4</title>
<g id="a_edge15_Node000001_Node000004"><a xlink:title=" ">
<path fill="none" stroke="#63b8ff" d="M173.11,-145.03C159.85,-146.91 146.11,-148.87 133.27,-150.7"/>
<polygon fill="#63b8ff" stroke="#63b8ff" points="173.21,-148.4 182.62,-143.53 172.23,-141.47 173.21,-148.4"/>
</a>
</g>
</g>
<!-- Node5 -->
<g id="Node000005" class="node">
<title>Node5</title>
<g id="a_Node000005"><a xlink:href="$classhello__world_1_1devices_1_1motor_1_1_m8910.html#accd858d8bd3db4aa48532ec8c1f8bd44" xlink:title="M8910 初始化">
<polygon fill="white" stroke="#666666" points="133,-126 15,-126 15,-96 133,-96 133,-126"/>
<text text-anchor="start" x="23" y="-114" font-family="Helvetica,sans-Serif" font-size="10.00">hello_world::devices</text>
<text text-anchor="middle" x="74" y="-103" font-family="Helvetica,sans-Serif" font-size="10.00">::motor::M8910::M8910</text>
</a>
</g>
</g>
<!-- Node1&#45;&gt;Node5 -->
<g id="edge16_Node000001_Node000005" class="edge">
<title>Node1&#45;&gt;Node5</title>
<g id="a_edge16_Node000001_Node000005"><a xlink:title=" ">
<path fill="none" stroke="#63b8ff" d="M173.11,-124.97C159.85,-123.09 146.11,-121.13 133.27,-119.3"/>
<polygon fill="#63b8ff" stroke="#63b8ff" points="172.23,-128.53 182.62,-126.47 173.21,-121.6 172.23,-128.53"/>
</a>
</g>
</g>
<!-- Node6 -->
<g id="Node000006" class="node">
<title>Node6</title>
<g id="a_Node000006"><a xlink:href="$classhello__world_1_1devices_1_1motor_1_1_m_f9025v2.html#a87787e5484356144bc7bce7b229398de" xlink:title="MF9025v2 初始化">
<polygon fill="white" stroke="#666666" points="148,-78 0,-78 0,-48 148,-48 148,-78"/>
<text text-anchor="start" x="8" y="-66" font-family="Helvetica,sans-Serif" font-size="10.00">hello_world::devices</text>
<text text-anchor="middle" x="74" y="-55" font-family="Helvetica,sans-Serif" font-size="10.00">::motor::MF9025v2::MF9025v2</text>
</a>
</g>
</g>
<!-- Node1&#45;&gt;Node6 -->
<g id="edge17_Node000001_Node000006" class="edge">
<title>Node1&#45;&gt;Node6</title>
<g id="a_edge17_Node000001_Node000006"><a xlink:title=" ">
<path fill="none" stroke="#63b8ff" d="M206.34,-114.71C188.91,-105.61 167.68,-95.13 148,-87 140.72,-84 132.93,-81.1 125.23,-78.43"/>
<polygon fill="#63b8ff" stroke="#63b8ff" points="204.12,-118.03 214.6,-119.6 207.39,-111.83 204.12,-118.03"/>
</a>
</g>
</g>
<!-- Node7 -->
<g id="Node000007" class="node">
<title>Node7</title>
<g id="a_Node000007"><a xlink:href="$classhello__world_1_1devices_1_1motor_1_1_motor.html#ad101045a9eef9a699001fc94631e8395" xlink:title="设定发给电调的期望值">
<polygon fill="white" stroke="#666666" points="133.5,-30 14.5,-30 14.5,0 133.5,0 133.5,-30"/>
<text text-anchor="start" x="22.5" y="-18" font-family="Helvetica,sans-Serif" font-size="10.00">hello_world::devices</text>
<text text-anchor="middle" x="74" y="-7" font-family="Helvetica,sans-Serif" font-size="10.00">::motor::Motor::setInput</text>
</a>
</g>
</g>
<!-- Node1&#45;&gt;Node7 -->
<g id="edge18_Node000001_Node000007" class="edge">
<title>Node1&#45;&gt;Node7</title>
<g id="a_edge18_Node000001_Node000007"><a xlink:title=" ">
<path fill="none" stroke="#63b8ff" d="M225.37,-111.21C207.75,-89.59 179.16,-58.23 148,-39 142.78,-35.78 137.07,-32.94 131.23,-30.45"/>
<polygon fill="#63b8ff" stroke="#63b8ff" points="223.26,-113.17 232.22,-118.81 228.73,-108.81 223.26,-113.17"/>
</a>
</g>
</g>
</g>
</svg>
