<?xml version="1.0" encoding="UTF-8" standalone="no"?>
<!DOCTYPE svg PUBLIC "-//W3C//DTD SVG 1.1//EN"
 "http://www.w3.org/Graphics/SVG/1.1/DTD/svg11.dtd">
<!-- Generated by graphviz version 8.0.3 (20230416.2022)
 -->
<!-- Title: hello_world::algorithms::controller::pid::MultiNodesPid::calc Pages: 1 -->
<svg width="1056pt" height="638pt"
 viewBox="0.00 0.00 1056.00 637.50" xmlns="http://www.w3.org/2000/svg" xmlns:xlink="http://www.w3.org/1999/xlink">
<g id="graph0" class="graph" transform="scale(1 1) rotate(0) translate(4 633.5)">
<title>hello_world::algorithms::controller::pid::MultiNodesPid::calc</title>
<!-- Node1 -->
<g id="Node000001" class="node">
<title>Node1</title>
<g id="a_Node000001"><a xlink:title="计算 PID 控制器的输出">
<polygon fill="#999999" stroke="#666666" points="136,-481 0,-481 0,-440 136,-440 136,-481"/>
<text text-anchor="start" x="8" y="-469" font-family="Helvetica,sans-Serif" font-size="10.00">hello_world::algorithms</text>
<text text-anchor="start" x="8" y="-458" font-family="Helvetica,sans-Serif" font-size="10.00">::controller::pid::MultiNodes</text>
<text text-anchor="middle" x="68" y="-447" font-family="Helvetica,sans-Serif" font-size="10.00">Pid::calc</text>
</a>
</g>
</g>
<!-- Node2 -->
<g id="Node000002" class="node">
<title>Node2</title>
<g id="a_Node000002"><a xlink:href="$classhello__world_1_1algorithms_1_1controller_1_1pid_1_1_multi_nodes_pid.html#accc1fd43233ab6d228f7111eab364c51" xlink:title="计算级联 PID 控制器的输出">
<polygon fill="white" stroke="#666666" points="308,-511 172,-511 172,-470 308,-470 308,-511"/>
<text text-anchor="start" x="180" y="-499" font-family="Helvetica,sans-Serif" font-size="10.00">hello_world::algorithms</text>
<text text-anchor="start" x="180" y="-488" font-family="Helvetica,sans-Serif" font-size="10.00">::controller::pid::MultiNodes</text>
<text text-anchor="middle" x="240" y="-477" font-family="Helvetica,sans-Serif" font-size="10.00">Pid::cascade_calc</text>
</a>
</g>
</g>
<!-- Node1&#45;&gt;Node2 -->
<g id="edge65_Node000001_Node000002" class="edge">
<title>Node1&#45;&gt;Node2</title>
<g id="a_edge65_Node000001_Node000002"><a xlink:title=" ">
<path fill="none" stroke="#63b8ff" d="M136.19,-472.36C144.32,-473.79 152.68,-475.27 160.95,-476.73"/>
<polygon fill="#63b8ff" stroke="#63b8ff" points="160.29,-480.34 170.74,-478.63 161.5,-473.45 160.29,-480.34"/>
</a>
</g>
</g>
<!-- Node25 -->
<g id="Node000025" class="node">
<title>Node25</title>
<g id="a_Node000025"><a xlink:href="$classhello__world_1_1algorithms_1_1controller_1_1pid_1_1_multi_nodes_pid.html#a180ce707d30cae5f45ec5820d1b2c50c" xlink:title="计算并行 PID 控制器的输出">
<polygon fill="white" stroke="#666666" points="308,-452 172,-452 172,-411 308,-411 308,-452"/>
<text text-anchor="start" x="180" y="-440" font-family="Helvetica,sans-Serif" font-size="10.00">hello_world::algorithms</text>
<text text-anchor="start" x="180" y="-429" font-family="Helvetica,sans-Serif" font-size="10.00">::controller::pid::MultiNodes</text>
<text text-anchor="middle" x="240" y="-418" font-family="Helvetica,sans-Serif" font-size="10.00">Pid::parallel_calc</text>
</a>
</g>
</g>
<!-- Node1&#45;&gt;Node25 -->
<g id="edge90_Node000001_Node000025" class="edge">
<title>Node1&#45;&gt;Node25</title>
<g id="a_edge90_Node000001_Node000025"><a xlink:title=" ">
<path fill="none" stroke="#63b8ff" d="M136.19,-449.04C144.32,-447.65 152.68,-446.23 160.95,-444.81"/>
<polygon fill="#63b8ff" stroke="#63b8ff" points="161.47,-448.11 170.74,-442.97 160.3,-441.2 161.47,-448.11"/>
</a>
</g>
</g>
<!-- Node3 -->
<g id="Node000003" class="node">
<title>Node3</title>
<g id="a_Node000003"><a xlink:href="$classhello__world_1_1algorithms_1_1controller_1_1pid_1_1_pid_list.html#a3f374c443b6a07e0df4e800c253643c9" xlink:title="获取链表的开始迭代器">
<polygon fill="white" stroke="#666666" points="477.5,-479 360.5,-479 360.5,-438 477.5,-438 477.5,-479"/>
<text text-anchor="start" x="368.5" y="-467" font-family="Helvetica,sans-Serif" font-size="10.00">hello_world::algorithms</text>
<text text-anchor="start" x="368.5" y="-456" font-family="Helvetica,sans-Serif" font-size="10.00">::controller::pid::PidList</text>
<text text-anchor="middle" x="419" y="-445" font-family="Helvetica,sans-Serif" font-size="10.00">::begin</text>
</a>
</g>
</g>
<!-- Node2&#45;&gt;Node3 -->
<g id="edge66_Node000002_Node000003" class="edge">
<title>Node2&#45;&gt;Node3</title>
<g id="a_edge66_Node000002_Node000003"><a xlink:title=" ">
<path fill="none" stroke="#63b8ff" d="M308.42,-478.31C321.83,-475.89 335.93,-473.34 349.39,-470.9"/>
<polygon fill="#63b8ff" stroke="#63b8ff" points="349.79,-474.21 359.01,-468.98 348.55,-467.32 349.79,-474.21"/>
</a>
</g>
</g>
<!-- Node4 -->
<g id="Node000004" class="node">
<title>Node4</title>
<g id="a_Node000004"><a xlink:href="$classhello__world_1_1algorithms_1_1controller_1_1pid_1_1_basic_pid.html#a2b8667e517f1999ec3fecffe9e6bd33d" xlink:title="PID 控制器的计算函数">
<polygon fill="white" stroke="#666666" points="494,-333.5 344,-333.5 344,-303.5 494,-303.5 494,-333.5"/>
<text text-anchor="start" x="352" y="-321.5" font-family="Helvetica,sans-Serif" font-size="10.00">hello_world::algorithms</text>
<text text-anchor="middle" x="419" y="-310.5" font-family="Helvetica,sans-Serif" font-size="10.00">::controller::pid::BasicPid::calc</text>
</a>
</g>
</g>
<!-- Node2&#45;&gt;Node4 -->
<g id="edge67_Node000002_Node000004" class="edge">
<title>Node2&#45;&gt;Node4</title>
<g id="a_edge67_Node000002_Node000004"><a xlink:title=" ">
<path fill="none" stroke="#63b8ff" d="M298.18,-469.52C301.71,-467.11 305.03,-464.44 308,-461.5 335.99,-433.78 320.29,-411.96 344,-380.5 355.61,-365.09 371.74,-351.01 385.98,-340.17"/>
<polygon fill="#63b8ff" stroke="#63b8ff" points="387.57,-342.61 393.54,-333.86 383.42,-336.97 387.57,-342.61"/>
</a>
</g>
</g>
<!-- Node12 -->
<g id="Node000012" class="node">
<title>Node12</title>
<g id="a_Node000012"><a xlink:href="$classhello__world_1_1algorithms_1_1controller_1_1pid_1_1_out_limit.html#a958ca6f80deb49af0d3c4d4bed32db42" xlink:title=" ">
<polygon fill="white" stroke="#666666" points="696.5,-629.5 548.5,-629.5 548.5,-599.5 696.5,-599.5 696.5,-629.5"/>
<text text-anchor="start" x="556.5" y="-617.5" font-family="Helvetica,sans-Serif" font-size="10.00">hello_world::algorithms</text>
<text text-anchor="middle" x="622.5" y="-606.5" font-family="Helvetica,sans-Serif" font-size="10.00">::controller::pid::OutLimit::calc</text>
</a>
</g>
</g>
<!-- Node2&#45;&gt;Node12 -->
<g id="edge86_Node000002_Node000012" class="edge">
<title>Node2&#45;&gt;Node12</title>
<g id="a_edge86_Node000002_Node000012"><a xlink:title=" ">
<path fill="none" stroke="#63b8ff" d="M254.41,-511.5C271.71,-536.52 304.34,-577.23 344,-595.5 404.47,-623.36 480.29,-626.72 537.39,-623.89"/>
<polygon fill="#63b8ff" stroke="#63b8ff" points="537.4,-627.34 547.19,-623.27 537,-620.35 537.4,-627.34"/>
</a>
</g>
</g>
<!-- Node22 -->
<g id="Node000022" class="node">
<title>Node22</title>
<g id="a_Node000022"><a xlink:href="$classhello__world_1_1algorithms_1_1controller_1_1pid_1_1_pid_list.html#a25c937a246eff76147e6f2c0cf5a0d86" xlink:title="获取链表的结束迭代器">
<polygon fill="white" stroke="#666666" points="488.5,-586.5 349.5,-586.5 349.5,-556.5 488.5,-556.5 488.5,-586.5"/>
<text text-anchor="start" x="357.5" y="-574.5" font-family="Helvetica,sans-Serif" font-size="10.00">hello_world::algorithms</text>
<text text-anchor="middle" x="419" y="-563.5" font-family="Helvetica,sans-Serif" font-size="10.00">::controller::pid::PidList::end</text>
</a>
</g>
</g>
<!-- Node2&#45;&gt;Node22 -->
<g id="edge87_Node000002_Node000022" class="edge">
<title>Node2&#45;&gt;Node22</title>
<g id="a_edge87_Node000002_Node000022"><a xlink:title=" ">
<path fill="none" stroke="#63b8ff" d="M274.97,-511.46C294.66,-523.06 320.19,-537.16 344,-547.5 347.86,-549.18 351.88,-550.8 355.96,-552.36"/>
<polygon fill="#63b8ff" stroke="#63b8ff" points="354.58,-555.95 365.17,-556.1 356.99,-549.37 354.58,-555.95"/>
</a>
</g>
</g>
<!-- Node23 -->
<g id="Node000023" class="node">
<title>Node23</title>
<g id="a_Node000023"><a xlink:href="$classhello__world_1_1algorithms_1_1controller_1_1pid_1_1_multi_nodes_pid.html#a9124ff9fabf43c21a73a294148697976" xlink:title="获取 PID 控制器的输出">
<polygon fill="white" stroke="#666666" points="487,-538 351,-538 351,-497 487,-497 487,-538"/>
<text text-anchor="start" x="359" y="-526" font-family="Helvetica,sans-Serif" font-size="10.00">hello_world::algorithms</text>
<text text-anchor="start" x="359" y="-515" font-family="Helvetica,sans-Serif" font-size="10.00">::controller::pid::MultiNodes</text>
<text text-anchor="middle" x="419" y="-504" font-family="Helvetica,sans-Serif" font-size="10.00">Pid::out</text>
</a>
</g>
</g>
<!-- Node2&#45;&gt;Node23 -->
<g id="edge88_Node000002_Node000023" class="edge">
<title>Node2&#45;&gt;Node23</title>
<g id="a_edge88_Node000002_Node000023"><a xlink:title=" ">
<path fill="none" stroke="#63b8ff" d="M308.42,-500.78C318.72,-502.36 329.42,-503.99 339.92,-505.59"/>
<polygon fill="#63b8ff" stroke="#63b8ff" points="339.35,-509.2 349.77,-507.24 340.41,-502.28 339.35,-509.2"/>
</a>
</g>
</g>
<!-- Node24 -->
<g id="Node000024" class="node">
<title>Node24</title>
<g id="a_Node000024"><a xlink:href="$classhello__world_1_1algorithms_1_1controller_1_1pid_1_1_pid_list.html#a11a15045ece7e7259a71143875b2aa32" xlink:title="获取链表的大小">
<polygon fill="white" stroke="#666666" points="489.5,-419.5 348.5,-419.5 348.5,-389.5 489.5,-389.5 489.5,-419.5"/>
<text text-anchor="start" x="356.5" y="-407.5" font-family="Helvetica,sans-Serif" font-size="10.00">hello_world::algorithms</text>
<text text-anchor="middle" x="419" y="-396.5" font-family="Helvetica,sans-Serif" font-size="10.00">::controller::pid::PidList::size</text>
</a>
</g>
</g>
<!-- Node2&#45;&gt;Node24 -->
<g id="edge89_Node000002_Node000024" class="edge">
<title>Node2&#45;&gt;Node24</title>
<g id="a_edge89_Node000002_Node000024"><a xlink:title=" ">
<path fill="none" stroke="#63b8ff" d="M293.77,-469.58C298.69,-467.07 303.51,-464.36 308,-461.5 326.05,-449.99 325.49,-440.25 344,-429.5 347.2,-427.64 350.57,-425.89 354.02,-424.25"/>
<polygon fill="#63b8ff" stroke="#63b8ff" points="355.17,-427.13 362.93,-419.92 352.36,-420.72 355.17,-427.13"/>
</a>
</g>
</g>
<!-- Node5 -->
<g id="Node000005" class="node">
<title>Node5</title>
<g id="a_Node000005"><a xlink:href="$classhello__world_1_1algorithms_1_1controller_1_1pid_1_1_diff_filter.html#a7bb924886f04baa6e1b9db604529f93a" xlink:title="计算差分滤波器的输出值">
<polygon fill="white" stroke="#666666" points="695.5,-581.5 549.5,-581.5 549.5,-551.5 695.5,-551.5 695.5,-581.5"/>
<text text-anchor="start" x="557.5" y="-569.5" font-family="Helvetica,sans-Serif" font-size="10.00">hello_world::algorithms</text>
<text text-anchor="middle" x="622.5" y="-558.5" font-family="Helvetica,sans-Serif" font-size="10.00">::controller::pid::DiffFilter::calc</text>
</a>
</g>
</g>
<!-- Node4&#45;&gt;Node5 -->
<g id="edge68_Node000004_Node000005" class="edge">
<title>Node4&#45;&gt;Node5</title>
<g id="a_edge68_Node000004_Node000005"><a xlink:title=" ">
<path fill="none" stroke="#63b8ff" d="M477.38,-333.85C483.67,-337.48 489.43,-341.97 494,-347.5 550.09,-415.47 470.03,-477.92 530,-542.5 532.93,-545.66 536.23,-548.42 539.78,-550.84"/>
<polygon fill="#63b8ff" stroke="#63b8ff" points="537.65,-554.23 548.07,-556.15 541.13,-548.15 537.65,-554.23"/>
</a>
</g>
</g>
<!-- Node6 -->
<g id="Node000006" class="node">
<title>Node6</title>
<g id="a_Node000006"><a xlink:href="$classhello__world_1_1algorithms_1_1controller_1_1pid_1_1_inte_separation.html#a882d032c53d0a62764140564737524ff" xlink:title="计算积分分离优化后的输出值">
<polygon fill="white" stroke="#666666" points="709,-533.5 536,-533.5 536,-503.5 709,-503.5 709,-533.5"/>
<text text-anchor="start" x="544" y="-521.5" font-family="Helvetica,sans-Serif" font-size="10.00">hello_world::algorithms</text>
<text text-anchor="middle" x="622.5" y="-510.5" font-family="Helvetica,sans-Serif" font-size="10.00">::controller::pid::InteSeparation::calc</text>
</a>
</g>
</g>
<!-- Node4&#45;&gt;Node6 -->
<g id="edge69_Node000004_Node000006" class="edge">
<title>Node4&#45;&gt;Node6</title>
<g id="a_edge69_Node000004_Node000006"><a xlink:title=" ">
<path fill="none" stroke="#63b8ff" d="M476.71,-333.9C483.19,-337.53 489.18,-342 494,-347.5 538.29,-398.13 482.83,-446.55 530,-494.5 530.71,-495.22 531.43,-495.91 532.17,-496.59"/>
<polygon fill="#63b8ff" stroke="#63b8ff" points="529.64,-499.83 539.72,-503.1 533.88,-494.26 529.64,-499.83"/>
</a>
</g>
</g>
<!-- Node7 -->
<g id="Node000007" class="node">
<title>Node7</title>
<g id="a_Node000007"><a xlink:href="$classhello__world_1_1algorithms_1_1controller_1_1pid_1_1_inte_changing_rate.html#a22842000f2832dba50540f0f6954244f" xlink:title="计算比例系数">
<polygon fill="white" stroke="#666666" points="694,-485 551,-485 551,-444 694,-444 694,-485"/>
<text text-anchor="start" x="559" y="-473" font-family="Helvetica,sans-Serif" font-size="10.00">hello_world::algorithms</text>
<text text-anchor="start" x="559" y="-462" font-family="Helvetica,sans-Serif" font-size="10.00">::controller::pid::InteChanging</text>
<text text-anchor="middle" x="622.5" y="-451" font-family="Helvetica,sans-Serif" font-size="10.00">Rate::calc</text>
</a>
</g>
</g>
<!-- Node4&#45;&gt;Node7 -->
<g id="edge70_Node000004_Node000007" class="edge">
<title>Node4&#45;&gt;Node7</title>
<g id="a_edge70_Node000004_Node000007"><a xlink:title=" ">
<path fill="none" stroke="#63b8ff" d="M474.45,-333.84C481.6,-337.5 488.39,-341.99 494,-347.5 523.87,-376.81 499.31,-406.05 530,-434.5 533.38,-437.63 537.09,-440.44 541.02,-442.95"/>
<polygon fill="#63b8ff" stroke="#63b8ff" points="539.12,-446.46 549.56,-448.3 542.55,-440.35 539.12,-446.46"/>
</a>
</g>
</g>
<!-- Node8 -->
<g id="Node000008" class="node">
<title>Node8</title>
<g id="a_Node000008"><a xlink:href="$classhello__world_1_1algorithms_1_1controller_1_1pid_1_1_dead_band.html#adff792034723f0cc61648e5c0696546c" xlink:title="计算死区优化后的误差值">
<polygon fill="white" stroke="#666666" points="700.5,-425.5 544.5,-425.5 544.5,-395.5 700.5,-395.5 700.5,-425.5"/>
<text text-anchor="start" x="552.5" y="-413.5" font-family="Helvetica,sans-Serif" font-size="10.00">hello_world::algorithms</text>
<text text-anchor="middle" x="622.5" y="-402.5" font-family="Helvetica,sans-Serif" font-size="10.00">::controller::pid::DeadBand::calc</text>
</a>
</g>
</g>
<!-- Node4&#45;&gt;Node8 -->
<g id="edge71_Node000004_Node000008" class="edge">
<title>Node4&#45;&gt;Node8</title>
<g id="a_edge71_Node000004_Node000008"><a xlink:title=" ">
<path fill="none" stroke="#63b8ff" d="M468.58,-333.88C477.4,-337.68 486.25,-342.21 494,-347.5 513.48,-360.81 509.78,-374.35 530,-386.5 532.49,-387.99 535.07,-389.4 537.72,-390.71"/>
<polygon fill="#63b8ff" stroke="#63b8ff" points="536,-394.23 546.56,-395.11 538.86,-387.84 536,-394.23"/>
</a>
</g>
</g>
<!-- Node9 -->
<g id="Node000009" class="node">
<title>Node9</title>
<g id="a_Node000009"><a xlink:href="$classhello__world_1_1algorithms_1_1controller_1_1pid_1_1_inte_trapezoidal.html#a8efa8ae3581ad2dcae6cbb86c2848213" xlink:title="计算梯形积分优化后的积分误差值">
<polygon fill="white" stroke="#666666" points="710.5,-377.5 534.5,-377.5 534.5,-347.5 710.5,-347.5 710.5,-377.5"/>
<text text-anchor="start" x="542.5" y="-365.5" font-family="Helvetica,sans-Serif" font-size="10.00">hello_world::algorithms</text>
<text text-anchor="middle" x="622.5" y="-354.5" font-family="Helvetica,sans-Serif" font-size="10.00">::controller::pid::InteTrapezoidal::calc</text>
</a>
</g>
</g>
<!-- Node4&#45;&gt;Node9 -->
<g id="edge72_Node000004_Node000009" class="edge">
<title>Node4&#45;&gt;Node9</title>
<g id="a_edge72_Node000004_Node000009"><a xlink:title=" ">
<path fill="none" stroke="#63b8ff" d="M490.76,-333.95C506.66,-337.42 523.67,-341.14 539.98,-344.7"/>
<polygon fill="#63b8ff" stroke="#63b8ff" points="539.06,-348.3 549.57,-347.01 540.55,-341.46 539.06,-348.3"/>
</a>
</g>
</g>
<!-- Node10 -->
<g id="Node000010" class="node">
<title>Node10</title>
<g id="a_Node000010"><a xlink:href="$classhello__world_1_1algorithms_1_1controller_1_1pid_1_1_inte_anti_windup.html#ae1314426af77e207b2a80bdd060b173f" xlink:title="计算积分抗饱和优化后的输出值">
<polygon fill="white" stroke="#666666" points="711,-329.5 534,-329.5 534,-299.5 711,-299.5 711,-329.5"/>
<text text-anchor="start" x="542" y="-317.5" font-family="Helvetica,sans-Serif" font-size="10.00">hello_world::algorithms</text>
<text text-anchor="middle" x="622.5" y="-306.5" font-family="Helvetica,sans-Serif" font-size="10.00">::controller::pid::InteAntiWindup::calc</text>
</a>
</g>
</g>
<!-- Node4&#45;&gt;Node10 -->
<g id="edge73_Node000004_Node000010" class="edge">
<title>Node4&#45;&gt;Node10</title>
<g id="a_edge73_Node000004_Node000010"><a xlink:title=" ">
<path fill="none" stroke="#63b8ff" d="M494.46,-317.02C503.74,-316.84 513.35,-316.65 522.93,-316.46"/>
<polygon fill="#63b8ff" stroke="#63b8ff" points="522.79,-319.94 532.72,-316.24 522.65,-312.94 522.79,-319.94"/>
</a>
</g>
</g>
<!-- Node11 -->
<g id="Node000011" class="node">
<title>Node11</title>
<g id="a_Node000011"><a xlink:href="$classhello__world_1_1algorithms_1_1controller_1_1pid_1_1_diff_previous.html#ac654422982d9475cf5c6f6c061cd2aeb" xlink:title="计算微分先行优化后的输出值">
<polygon fill="white" stroke="#666666" points="703,-281.5 542,-281.5 542,-251.5 703,-251.5 703,-281.5"/>
<text text-anchor="start" x="550" y="-269.5" font-family="Helvetica,sans-Serif" font-size="10.00">hello_world::algorithms</text>
<text text-anchor="middle" x="622.5" y="-258.5" font-family="Helvetica,sans-Serif" font-size="10.00">::controller::pid::DiffPrevious::calc</text>
</a>
</g>
</g>
<!-- Node4&#45;&gt;Node11 -->
<g id="edge74_Node000004_Node000011" class="edge">
<title>Node4&#45;&gt;Node11</title>
<g id="a_edge74_Node000004_Node000011"><a xlink:title=" ">
<path fill="none" stroke="#63b8ff" d="M479.91,-303.04C502.24,-297.28 527.8,-290.68 551,-284.69"/>
<polygon fill="#63b8ff" stroke="#63b8ff" points="551.66,-287.88 560.47,-281.99 549.91,-281.1 551.66,-287.88"/>
</a>
</g>
</g>
<!-- Node4&#45;&gt;Node12 -->
<g id="edge75_Node000004_Node000012" class="edge">
<title>Node4&#45;&gt;Node12</title>
<g id="a_edge75_Node000004_Node000012"><a xlink:title=" ">
<path fill="none" stroke="#63b8ff" d="M477.93,-333.91C484.04,-337.53 489.62,-341.99 494,-347.5 561.99,-432.93 457.14,-509.19 530,-590.5 532.74,-593.55 535.81,-596.24 539.13,-598.6"/>
<polygon fill="#63b8ff" stroke="#63b8ff" points="537.04,-602.02 547.42,-604.12 540.61,-596.01 537.04,-602.02"/>
</a>
</g>
</g>
<!-- Node13 -->
<g id="Node000013" class="node">
<title>Node13</title>
<g id="a_Node000013"><a xlink:href="$classhello__world_1_1algorithms_1_1controller_1_1pid_1_1_setpoint_ramping.html#a7833313869bfc6845232378f32019e29" xlink:title="计算设定点斜坡优化后的输出值">
<polygon fill="white" stroke="#666666" points="715,-233.5 530,-233.5 530,-203.5 715,-203.5 715,-233.5"/>
<text text-anchor="start" x="538" y="-221.5" font-family="Helvetica,sans-Serif" font-size="10.00">hello_world::algorithms</text>
<text text-anchor="middle" x="622.5" y="-210.5" font-family="Helvetica,sans-Serif" font-size="10.00">::controller::pid::SetpointRamping::calc</text>
</a>
</g>
</g>
<!-- Node4&#45;&gt;Node13 -->
<g id="edge76_Node000004_Node000013" class="edge">
<title>Node4&#45;&gt;Node13</title>
<g id="a_edge76_Node000004_Node000013"><a xlink:title=" ">
<path fill="none" stroke="#63b8ff" d="M437.87,-303.2C458.7,-286.09 494.77,-258.68 530,-242.5 533.84,-240.74 537.82,-239.09 541.89,-237.55"/>
<polygon fill="#63b8ff" stroke="#63b8ff" points="542.88,-240.56 551.15,-233.93 540.55,-233.96 542.88,-240.56"/>
</a>
</g>
</g>
<!-- Node14 -->
<g id="Node000014" class="node">
<title>Node14</title>
<g id="a_Node000014"><a xlink:href="$namespacehello__world_1_1dsp_1_1tick.html#a97910b07255da1979f8ceafd8c6d2ea5" xlink:title=" ">
<polygon fill="white" stroke="#666666" points="676.5,-185.5 568.5,-185.5 568.5,-155.5 676.5,-155.5 676.5,-185.5"/>
<text text-anchor="start" x="576.5" y="-173.5" font-family="Helvetica,sans-Serif" font-size="10.00">hello_world::dsp::tick</text>
<text text-anchor="middle" x="622.5" y="-162.5" font-family="Helvetica,sans-Serif" font-size="10.00">::GetTickMs</text>
</a>
</g>
</g>
<!-- Node4&#45;&gt;Node14 -->
<g id="edge77_Node000004_Node000014" class="edge">
<title>Node4&#45;&gt;Node14</title>
<g id="a_edge77_Node000004_Node000014"><a xlink:title=" ">
<path fill="none" stroke="#63b8ff" d="M429.14,-303.31C445.78,-276.99 483.66,-222.97 530,-194.5 538.43,-189.32 547.95,-185.25 557.59,-182.06"/>
<polygon fill="#63b8ff" stroke="#63b8ff" points="558.48,-185.15 567.05,-178.92 556.47,-178.44 558.48,-185.15"/>
</a>
</g>
</g>
<!-- Node16 -->
<g id="Node000016" class="node">
<title>Node16</title>
<g id="a_Node000016"><a xlink:href="$namespacehello__world_1_1algorithms_1_1controller_1_1pid.html#a54cdae6f66cea881673bd9e6b366324c" xlink:title="处理角度跨越 0 度的情况">
<polygon fill="white" stroke="#666666" points="699,-137.5 546,-137.5 546,-107.5 699,-107.5 699,-137.5"/>
<text text-anchor="start" x="554" y="-125.5" font-family="Helvetica,sans-Serif" font-size="10.00">hello_world::algorithms</text>
<text text-anchor="middle" x="622.5" y="-114.5" font-family="Helvetica,sans-Serif" font-size="10.00">::controller::pid::HandleAcross0</text>
</a>
</g>
</g>
<!-- Node4&#45;&gt;Node16 -->
<g id="edge79_Node000004_Node000016" class="edge">
<title>Node4&#45;&gt;Node16</title>
<g id="a_edge79_Node000004_Node000016"><a xlink:title=" ">
<path fill="none" stroke="#63b8ff" d="M425.35,-303.14C437.96,-269.32 472.83,-188.11 530,-146.5 531.94,-145.09 533.96,-143.76 536.04,-142.5"/>
<polygon fill="#63b8ff" stroke="#63b8ff" points="537.3,-145.27 544.51,-137.5 534.03,-139.08 537.3,-145.27"/>
</a>
</g>
</g>
<!-- Node20 -->
<g id="Node000020" class="node">
<title>Node20</title>
<g id="a_Node000020"><a xlink:href="$classhello__world_1_1algorithms_1_1controller_1_1pid_1_1_basic_pid.html#a0dabd4a10fd3786e05c0fc5fa7bc9441" xlink:title="获取 PID 控制器的输出">
<polygon fill="white" stroke="#666666" points="695.5,-89.5 549.5,-89.5 549.5,-59.5 695.5,-59.5 695.5,-89.5"/>
<text text-anchor="start" x="557.5" y="-77.5" font-family="Helvetica,sans-Serif" font-size="10.00">hello_world::algorithms</text>
<text text-anchor="middle" x="622.5" y="-66.5" font-family="Helvetica,sans-Serif" font-size="10.00">::controller::pid::BasicPid::out</text>
</a>
</g>
</g>
<!-- Node4&#45;&gt;Node20 -->
<g id="edge84_Node000004_Node000020" class="edge">
<title>Node4&#45;&gt;Node20</title>
<g id="a_edge84_Node000004_Node000020"><a xlink:title=" ">
<path fill="none" stroke="#63b8ff" d="M423.07,-303.24C431.95,-263.14 461.53,-154.07 530,-98.5 532.96,-96.1 536.13,-93.94 539.46,-91.99"/>
<polygon fill="#63b8ff" stroke="#63b8ff" points="540.85,-94.7 548.18,-87.04 537.68,-88.46 540.85,-94.7"/>
</a>
</g>
</g>
<!-- Node21 -->
<g id="Node000021" class="node">
<title>Node21</title>
<g id="a_Node000021"><a xlink:href="$classhello__world_1_1algorithms_1_1controller_1_1pid_1_1_basic_pid.html#ad74407cecfa9cfb473f199d142869f0f" xlink:title="重置PID数据">
<polygon fill="white" stroke="#666666" points="685.5,-41 559.5,-41 559.5,0 685.5,0 685.5,-41"/>
<text text-anchor="start" x="567.5" y="-29" font-family="Helvetica,sans-Serif" font-size="10.00">hello_world::algorithms</text>
<text text-anchor="start" x="567.5" y="-18" font-family="Helvetica,sans-Serif" font-size="10.00">::controller::pid::BasicPid</text>
<text text-anchor="middle" x="622.5" y="-7" font-family="Helvetica,sans-Serif" font-size="10.00">::reset</text>
</a>
</g>
</g>
<!-- Node4&#45;&gt;Node21 -->
<g id="edge85_Node000004_Node000021" class="edge">
<title>Node4&#45;&gt;Node21</title>
<g id="a_edge85_Node000004_Node000021"><a xlink:title=" ">
<path fill="none" stroke="#63b8ff" d="M421.8,-303.27C427.95,-257.97 452.28,-122.76 530,-50.5 535.72,-45.18 542.41,-40.8 549.51,-37.2"/>
<polygon fill="#63b8ff" stroke="#63b8ff" points="550.72,-40.04 558.41,-32.75 547.85,-33.66 550.72,-40.04"/>
</a>
</g>
</g>
<!-- Node15 -->
<g id="Node000015" class="node">
<title>Node15</title>
<g id="a_Node000015"><a xlink:href="$namespacehello__world_1_1dsp_1_1tick.html#a0c9c44ee367dc665cc6f1a6d830da9ee" xlink:title=" ">
<polygon fill="white" stroke="#666666" points="867.5,-185.5 759.5,-185.5 759.5,-155.5 867.5,-155.5 867.5,-185.5"/>
<text text-anchor="start" x="767.5" y="-173.5" font-family="Helvetica,sans-Serif" font-size="10.00">hello_world::dsp::tick</text>
<text text-anchor="middle" x="813.5" y="-162.5" font-family="Helvetica,sans-Serif" font-size="10.00">::GetTickUs</text>
</a>
</g>
</g>
<!-- Node14&#45;&gt;Node15 -->
<g id="edge78_Node000014_Node000015" class="edge">
<title>Node14&#45;&gt;Node15</title>
<g id="a_edge78_Node000014_Node000015"><a xlink:title=" ">
<path fill="none" stroke="#63b8ff" d="M676.9,-170.5C699.14,-170.5 725.15,-170.5 748.41,-170.5"/>
<polygon fill="#63b8ff" stroke="#63b8ff" points="748.23,-174 758.23,-170.5 748.23,-167 748.23,-174"/>
</a>
</g>
</g>
<!-- Node17 -->
<g id="Node000017" class="node">
<title>Node17</title>
<g id="a_Node000017"><a xlink:href="$namespacehello__world.html#a7c9ce795c80c4bc674e5470984f99105" xlink:title=" ">
<polygon fill="white" stroke="#666666" points="876,-137.5 751,-137.5 751,-107.5 876,-107.5 876,-137.5"/>
<text text-anchor="start" x="759" y="-125.5" font-family="Helvetica,sans-Serif" font-size="10.00">hello_world::HandleAngle</text>
<text text-anchor="middle" x="813.5" y="-114.5" font-family="Helvetica,sans-Serif" font-size="10.00">Cross0Deg</text>
</a>
</g>
</g>
<!-- Node16&#45;&gt;Node17 -->
<g id="edge80_Node000016_Node000017" class="edge">
<title>Node16&#45;&gt;Node17</title>
<g id="a_edge80_Node000016_Node000017"><a xlink:title=" ">
<path fill="none" stroke="#63b8ff" d="M699.28,-122.5C712.6,-122.5 726.44,-122.5 739.67,-122.5"/>
<polygon fill="#63b8ff" stroke="#63b8ff" points="739.63,-126 749.63,-122.5 739.63,-119 739.63,-126"/>
</a>
</g>
</g>
<!-- Node19 -->
<g id="Node000019" class="node">
<title>Node19</title>
<g id="a_Node000019"><a xlink:href="$namespacehello__world.html#a7640febc082ad62910c63a8feac1c002" xlink:title=" ">
<polygon fill="white" stroke="#666666" points="876,-89.5 751,-89.5 751,-59.5 876,-59.5 876,-89.5"/>
<text text-anchor="start" x="759" y="-77.5" font-family="Helvetica,sans-Serif" font-size="10.00">hello_world::HandleAngle</text>
<text text-anchor="middle" x="813.5" y="-66.5" font-family="Helvetica,sans-Serif" font-size="10.00">Cross0Rad</text>
</a>
</g>
</g>
<!-- Node16&#45;&gt;Node19 -->
<g id="edge82_Node000016_Node000019" class="edge">
<title>Node16&#45;&gt;Node19</title>
<g id="a_edge82_Node000016_Node000019"><a xlink:title=" ">
<path fill="none" stroke="#63b8ff" d="M684.34,-107.05C702.47,-102.44 722.49,-97.36 741.22,-92.6"/>
<polygon fill="#63b8ff" stroke="#63b8ff" points="741.94,-95.78 750.77,-89.92 740.22,-88.99 741.94,-95.78"/>
</a>
</g>
</g>
<!-- Node18 -->
<g id="Node000018" class="node">
<title>Node18</title>
<g id="a_Node000018"><a xlink:href="$namespacehello__world.html#ab46e2d75fde6b8f67bd6d21c61508e47" xlink:title="处理角度越过0值的情况，以半周期为基准">
<polygon fill="white" stroke="#666666" points="1048,-108 912,-108 912,-89 1048,-89 1048,-108"/>
<text text-anchor="middle" x="980" y="-96" font-family="Helvetica,sans-Serif" font-size="10.00">hello_world::PeriodDataSub</text>
</a>
</g>
</g>
<!-- Node17&#45;&gt;Node18 -->
<g id="edge81_Node000017_Node000018" class="edge">
<title>Node17&#45;&gt;Node18</title>
<g id="a_edge81_Node000017_Node000018"><a xlink:title=" ">
<path fill="none" stroke="#63b8ff" d="M876.22,-113.5C884.27,-112.32 892.6,-111.11 900.88,-109.9"/>
<polygon fill="#63b8ff" stroke="#63b8ff" points="901.31,-113.23 910.7,-108.32 900.3,-106.3 901.31,-113.23"/>
</a>
</g>
</g>
<!-- Node19&#45;&gt;Node18 -->
<g id="edge83_Node000019_Node000018" class="edge">
<title>Node19&#45;&gt;Node18</title>
<g id="a_edge83_Node000019_Node000018"><a xlink:title=" ">
<path fill="none" stroke="#63b8ff" d="M876.22,-83.5C884.27,-84.68 892.6,-85.89 900.88,-87.1"/>
<polygon fill="#63b8ff" stroke="#63b8ff" points="900.3,-90.7 910.7,-88.68 901.31,-83.77 900.3,-90.7"/>
</a>
</g>
</g>
<!-- Node25&#45;&gt;Node3 -->
<g id="edge91_Node000025_Node000003" class="edge">
<title>Node25&#45;&gt;Node3</title>
<g id="a_edge91_Node000025_Node000003"><a xlink:title=" ">
<path fill="none" stroke="#63b8ff" d="M308.42,-441.78C321.83,-443.83 335.93,-445.98 349.39,-448.03"/>
<polygon fill="#63b8ff" stroke="#63b8ff" points="348.6,-451.61 359.01,-449.65 349.65,-444.69 348.6,-451.61"/>
</a>
</g>
</g>
<!-- Node25&#45;&gt;Node4 -->
<g id="edge92_Node000025_Node000004" class="edge">
<title>Node25&#45;&gt;Node4</title>
<g id="a_edge92_Node000025_Node000004"><a xlink:title=" ">
<path fill="none" stroke="#63b8ff" d="M262.41,-410.66C282.28,-392.18 313.32,-365.43 344,-347.5 349.71,-344.16 355.87,-341.06 362.12,-338.22"/>
<polygon fill="#63b8ff" stroke="#63b8ff" points="363.16,-341.15 370.95,-333.98 360.38,-334.73 363.16,-341.15"/>
</a>
</g>
</g>
<!-- Node25&#45;&gt;Node12 -->
<g id="edge93_Node000025_Node000012" class="edge">
<title>Node25&#45;&gt;Node12</title>
<g id="a_edge93_Node000025_Node000012"><a xlink:title=" ">
<path fill="none" stroke="#63b8ff" d="M272.27,-410.61C324.47,-378.6 429.94,-326.49 494,-380.5 566.4,-441.54 466.01,-520.7 530,-590.5 532.63,-593.37 535.56,-595.92 538.71,-598.17"/>
<polygon fill="#63b8ff" stroke="#63b8ff" points="536.73,-601.66 547.11,-603.79 540.32,-595.65 536.73,-601.66"/>
</a>
</g>
</g>
<!-- Node25&#45;&gt;Node22 -->
<g id="edge94_Node000025_Node000022" class="edge">
<title>Node25&#45;&gt;Node22</title>
<g id="a_edge94_Node000025_Node000022"><a xlink:title=" ">
<path fill="none" stroke="#63b8ff" d="M296.98,-452.39C300.97,-455.1 304.71,-458.12 308,-461.5 336.94,-491.16 313.51,-519.44 344,-547.5 345.01,-548.43 346.05,-549.32 347.12,-550.17"/>
<polygon fill="#63b8ff" stroke="#63b8ff" points="344.65,-553.4 354.9,-556.09 348.56,-547.6 344.65,-553.4"/>
</a>
</g>
</g>
<!-- Node25&#45;&gt;Node23 -->
<g id="edge95_Node000025_Node000023" class="edge">
<title>Node25&#45;&gt;Node23</title>
<g id="a_edge95_Node000025_Node000023"><a xlink:title=" ">
<path fill="none" stroke="#63b8ff" d="M291.02,-452.41C296.84,-455.28 302.62,-458.33 308,-461.5 325.23,-471.65 326.53,-478.76 344,-488.5 346.06,-489.65 348.17,-490.77 350.32,-491.86"/>
<polygon fill="#63b8ff" stroke="#63b8ff" points="348.41,-495.31 358.93,-496.5 351.45,-489.01 348.41,-495.31"/>
</a>
</g>
</g>
<!-- Node25&#45;&gt;Node24 -->
<g id="edge96_Node000025_Node000024" class="edge">
<title>Node25&#45;&gt;Node24</title>
<g id="a_edge96_Node000025_Node000024"><a xlink:title=" ">
<path fill="none" stroke="#63b8ff" d="M308.42,-421.22C317.86,-419.78 327.64,-418.28 337.3,-416.81"/>
<polygon fill="#63b8ff" stroke="#63b8ff" points="337.76,-420.13 347.12,-415.16 336.71,-413.21 337.76,-420.13"/>
</a>
</g>
</g>
</g>
</svg>
