<?xml version="1.0" encoding="UTF-8" standalone="no"?>
<!DOCTYPE svg PUBLIC "-//W3C//DTD SVG 1.1//EN"
 "http://www.w3.org/Graphics/SVG/1.1/DTD/svg11.dtd">
<!-- Generated by graphviz version 8.0.3 (20230416.2022)
 -->
<!-- Title: hello_world::devices::imu::BMI088::gyroCsH Pages: 1 -->
<svg width="777pt" height="188pt"
 viewBox="0.00 0.00 777.00 187.97" xmlns="http://www.w3.org/2000/svg" xmlns:xlink="http://www.w3.org/1999/xlink">
<g id="graph0" class="graph" transform="scale(1 1) rotate(0) translate(4 183.97)">
<title>hello_world::devices::imu::BMI088::gyroCsH</title>
<!-- Node1 -->
<g id="Node000001" class="node">
<title>Node1</title>
<g id="a_Node000001"><a xlink:title=" ">
<polygon fill="#999999" stroke="#666666" points="769,-107.97 648,-107.97 648,-77.97 769,-77.97 769,-107.97"/>
<text text-anchor="start" x="656" y="-95.97" font-family="Helvetica,sans-Serif" font-size="10.00">hello_world::devices</text>
<text text-anchor="middle" x="708.5" y="-84.97" font-family="Helvetica,sans-Serif" font-size="10.00">::imu::BMI088::gyroCsH</text>
</a>
</g>
</g>
<!-- Node2 -->
<g id="Node000002" class="node">
<title>Node2</title>
<g id="a_Node000002"><a xlink:href="$classhello__world_1_1devices_1_1imu_1_1_b_m_i088.html#a00b280798b0068e72d0235cd42d9356e" xlink:title="BMI088 初始化">
<polygon fill="white" stroke="#666666" points="597,-179.97 481,-179.97 481,-149.97 597,-149.97 597,-179.97"/>
<text text-anchor="start" x="489" y="-167.97" font-family="Helvetica,sans-Serif" font-size="10.00">hello_world::devices</text>
<text text-anchor="middle" x="539" y="-156.97" font-family="Helvetica,sans-Serif" font-size="10.00">::imu::BMI088::BMI088</text>
</a>
</g>
</g>
<!-- Node1&#45;&gt;Node2 -->
<g id="edge25_Node000001_Node000002" class="edge">
<title>Node1&#45;&gt;Node2</title>
<g id="a_edge25_Node000001_Node000002"><a xlink:title=" ">
<path fill="none" stroke="#63b8ff" d="M670.32,-113.22C652.89,-122.31 631.66,-132.8 612,-140.97 604.82,-143.95 597.13,-146.83 589.54,-149.5"/>
<polygon fill="#63b8ff" stroke="#63b8ff" points="671.37,-116.1 678.58,-108.34 668.1,-109.91 671.37,-116.1"/>
</a>
</g>
</g>
<!-- Node3 -->
<g id="Node000003" class="node">
<title>Node3</title>
<g id="a_Node000003"><a xlink:href="$classhello__world_1_1devices_1_1imu_1_1_b_m_i088.html#a443cf9b8f3e44acea8ac21258b4d7363" xlink:title="陀螺仪多寄存器数据读取">
<polygon fill="white" stroke="#666666" points="612,-131.97 466,-131.97 466,-101.97 612,-101.97 612,-131.97"/>
<text text-anchor="start" x="474" y="-119.97" font-family="Helvetica,sans-Serif" font-size="10.00">hello_world::devices</text>
<text text-anchor="middle" x="539" y="-108.97" font-family="Helvetica,sans-Serif" font-size="10.00">::imu::BMI088::gyroMultiRead</text>
</a>
</g>
</g>
<!-- Node1&#45;&gt;Node3 -->
<g id="edge26_Node000001_Node000003" class="edge">
<title>Node1&#45;&gt;Node3</title>
<g id="a_edge26_Node000001_Node000003"><a xlink:title=" ">
<path fill="none" stroke="#63b8ff" d="M636.7,-103.11C628.68,-104.26 620.49,-105.44 612.45,-106.59"/>
<polygon fill="#63b8ff" stroke="#63b8ff" points="637.1,-106.45 646.5,-101.57 636.11,-99.52 637.1,-106.45"/>
</a>
</g>
</g>
<!-- Node6 -->
<g id="Node000006" class="node">
<title>Node6</title>
<g id="a_Node000006"><a xlink:href="$classhello__world_1_1devices_1_1imu_1_1_b_m_i088.html#a16b8a6609a3b902bc05c4e2857801cd2" xlink:title="读取陀螺仪寄存器数据">
<polygon fill="white" stroke="#666666" points="601.5,-83.97 476.5,-83.97 476.5,-53.97 601.5,-53.97 601.5,-83.97"/>
<text text-anchor="start" x="484.5" y="-71.97" font-family="Helvetica,sans-Serif" font-size="10.00">hello_world::devices</text>
<text text-anchor="middle" x="539" y="-60.97" font-family="Helvetica,sans-Serif" font-size="10.00">::imu::BMI088::gyroRead</text>
</a>
</g>
</g>
<!-- Node1&#45;&gt;Node6 -->
<g id="edge29_Node000001_Node000006" class="edge">
<title>Node1&#45;&gt;Node6</title>
<g id="a_edge29_Node000001_Node000006"><a xlink:title=" ">
<path fill="none" stroke="#63b8ff" d="M636.92,-82.86C625.26,-81.19 613.26,-79.47 601.84,-77.83"/>
<polygon fill="#63b8ff" stroke="#63b8ff" points="636.11,-86.42 646.5,-84.37 637.1,-79.49 636.11,-86.42"/>
</a>
</g>
</g>
<!-- Node10 -->
<g id="Node000010" class="node">
<title>Node10</title>
<g id="a_Node000010"><a xlink:href="$classhello__world_1_1devices_1_1imu_1_1_b_m_i088.html#adf2ebc011e80e2ad115716307c773c6f" xlink:title="向陀螺仪寄存器写入数据">
<polygon fill="white" stroke="#666666" points="601.5,-35.97 476.5,-35.97 476.5,-5.97 601.5,-5.97 601.5,-35.97"/>
<text text-anchor="start" x="484.5" y="-23.97" font-family="Helvetica,sans-Serif" font-size="10.00">hello_world::devices</text>
<text text-anchor="middle" x="539" y="-12.97" font-family="Helvetica,sans-Serif" font-size="10.00">::imu::BMI088::gyroWrite</text>
</a>
</g>
</g>
<!-- Node1&#45;&gt;Node10 -->
<g id="edge34_Node000001_Node000010" class="edge">
<title>Node1&#45;&gt;Node10</title>
<g id="a_edge34_Node000001_Node000010"><a xlink:title=" ">
<path fill="none" stroke="#63b8ff" d="M670.32,-72.72C652.89,-63.63 631.66,-53.14 612,-44.97 604.82,-41.99 597.13,-39.1 589.54,-36.43"/>
<polygon fill="#63b8ff" stroke="#63b8ff" points="668.1,-76.03 678.58,-77.6 671.37,-69.84 668.1,-76.03"/>
</a>
</g>
</g>
<!-- Node4 -->
<g id="Node000004" class="node">
<title>Node4</title>
<g id="a_Node000004"><a xlink:href="$classhello__world_1_1devices_1_1imu_1_1_b_m_i088.html#a00755ad04aebc2df220b39f1a83bf811" xlink:title="获取陀螺仪数据">
<polygon fill="white" stroke="#666666" points="430,-131.97 292,-131.97 292,-101.97 430,-101.97 430,-131.97"/>
<text text-anchor="start" x="300" y="-119.97" font-family="Helvetica,sans-Serif" font-size="10.00">hello_world::devices</text>
<text text-anchor="middle" x="361" y="-108.97" font-family="Helvetica,sans-Serif" font-size="10.00">::imu::BMI088::getGyroData</text>
</a>
</g>
</g>
<!-- Node3&#45;&gt;Node4 -->
<g id="edge27_Node000003_Node000004" class="edge">
<title>Node3&#45;&gt;Node4</title>
<g id="a_edge27_Node000003_Node000004"><a xlink:title=" ">
<path fill="none" stroke="#63b8ff" d="M454.91,-116.97C446.7,-116.97 438.43,-116.97 430.39,-116.97"/>
<polygon fill="#63b8ff" stroke="#63b8ff" points="454.65,-120.47 464.65,-116.97 454.65,-113.47 454.65,-120.47"/>
</a>
</g>
</g>
<!-- Node5 -->
<g id="Node000005" class="node">
<title>Node5</title>
<g id="a_Node000005"><a xlink:href="$classhello__world_1_1devices_1_1imu_1_1_b_m_i088.html#aa4b8ef9d615c0ead67e6b88c34bd84d1" xlink:title="获取传感器数据">
<polygon fill="white" stroke="#666666" points="256,-131.97 139,-131.97 139,-101.97 256,-101.97 256,-131.97"/>
<text text-anchor="start" x="147" y="-119.97" font-family="Helvetica,sans-Serif" font-size="10.00">hello_world::devices</text>
<text text-anchor="middle" x="197.5" y="-108.97" font-family="Helvetica,sans-Serif" font-size="10.00">::imu::BMI088::getData</text>
</a>
</g>
</g>
<!-- Node4&#45;&gt;Node5 -->
<g id="edge28_Node000004_Node000005" class="edge">
<title>Node4&#45;&gt;Node5</title>
<g id="a_edge28_Node000004_Node000005"><a xlink:title=" ">
<path fill="none" stroke="#63b8ff" d="M280.75,-116.97C272.54,-116.97 264.31,-116.97 256.39,-116.97"/>
<polygon fill="#63b8ff" stroke="#63b8ff" points="280.51,-120.47 290.51,-116.97 280.51,-113.47 280.51,-120.47"/>
</a>
</g>
</g>
<!-- Node7 -->
<g id="Node000007" class="node">
<title>Node7</title>
<g id="a_Node000007"><a xlink:href="$classhello__world_1_1devices_1_1imu_1_1_b_m_i088.html#a88754aa2ebac6fcdfde4c5ce4de33dd6" xlink:title="陀螺仪配置">
<polygon fill="white" stroke="#666666" points="255,-43.97 140,-43.97 140,-13.97 255,-13.97 255,-43.97"/>
<text text-anchor="start" x="148" y="-31.97" font-family="Helvetica,sans-Serif" font-size="10.00">hello_world::devices</text>
<text text-anchor="middle" x="197.5" y="-20.97" font-family="Helvetica,sans-Serif" font-size="10.00">::imu::BMI088::gyroInit</text>
</a>
</g>
</g>
<!-- Node6&#45;&gt;Node7 -->
<g id="edge30_Node000006_Node000007" class="edge">
<title>Node6&#45;&gt;Node7</title>
<g id="a_edge30_Node000006_Node000007"><a xlink:title=" ">
<path fill="none" stroke="#63b8ff" d="M465.37,-67.79C416.18,-66.13 349.86,-62.19 292,-52.97 278.76,-50.86 264.66,-47.72 251.54,-44.41"/>
<polygon fill="#63b8ff" stroke="#63b8ff" points="465.13,-71.32 475.23,-68.13 465.34,-64.32 465.13,-71.32"/>
</a>
</g>
</g>
<!-- Node9 -->
<g id="Node000009" class="node">
<title>Node9</title>
<g id="a_Node000009"><a xlink:href="$classhello__world_1_1devices_1_1imu_1_1_b_m_i088.html#ac8c0c2e64b56c3feb6888446b4830be3" xlink:title="陀螺仪自检测">
<polygon fill="white" stroke="#666666" points="429.5,-43.97 292.5,-43.97 292.5,-13.97 429.5,-13.97 429.5,-43.97"/>
<text text-anchor="start" x="300.5" y="-31.97" font-family="Helvetica,sans-Serif" font-size="10.00">hello_world::devices</text>
<text text-anchor="middle" x="361" y="-20.97" font-family="Helvetica,sans-Serif" font-size="10.00">::imu::BMI088::gyroSelfTest</text>
</a>
</g>
</g>
<!-- Node6&#45;&gt;Node9 -->
<g id="edge32_Node000006_Node000009" class="edge">
<title>Node6&#45;&gt;Node9</title>
<g id="a_edge32_Node000006_Node000009"><a xlink:title=" ">
<path fill="none" stroke="#63b8ff" d="M466.05,-52.62C454.08,-49.9 441.69,-47.08 429.83,-44.38"/>
<polygon fill="#63b8ff" stroke="#63b8ff" points="464.92,-56.18 475.44,-54.98 466.47,-49.35 464.92,-56.18"/>
</a>
</g>
</g>
<!-- Node8 -->
<g id="Node000008" class="node">
<title>Node8</title>
<g id="a_Node000008"><a xlink:href="$classhello__world_1_1devices_1_1imu_1_1_b_m_i088.html#a623a7d90db0585ea45bac12fd3d19061" xlink:title="进行 BMI088 芯片配置">
<polygon fill="white" stroke="#666666" points="103,-43.97 0,-43.97 0,-13.97 103,-13.97 103,-43.97"/>
<text text-anchor="start" x="8" y="-31.97" font-family="Helvetica,sans-Serif" font-size="10.00">hello_world::devices</text>
<text text-anchor="middle" x="51.5" y="-20.97" font-family="Helvetica,sans-Serif" font-size="10.00">::imu::BMI088::init</text>
</a>
</g>
</g>
<!-- Node7&#45;&gt;Node8 -->
<g id="edge31_Node000007_Node000008" class="edge">
<title>Node7&#45;&gt;Node8</title>
<g id="a_edge31_Node000007_Node000008"><a xlink:title=" ">
<path fill="none" stroke="#63b8ff" d="M128.83,-28.97C120.27,-28.97 111.63,-28.97 103.4,-28.97"/>
<polygon fill="#63b8ff" stroke="#63b8ff" points="128.59,-32.47 138.59,-28.97 128.59,-25.47 128.59,-32.47"/>
</a>
</g>
</g>
<!-- Node9&#45;&gt;Node7 -->
<g id="edge33_Node000009_Node000007" class="edge">
<title>Node9&#45;&gt;Node7</title>
<g id="a_edge33_Node000009_Node000007"><a xlink:title=" ">
<path fill="none" stroke="#63b8ff" d="M281.65,-28.97C272.76,-28.97 263.83,-28.97 255.29,-28.97"/>
<polygon fill="#63b8ff" stroke="#63b8ff" points="281.45,-32.47 291.45,-28.97 281.45,-25.47 281.45,-32.47"/>
</a>
</g>
</g>
<!-- Node10&#45;&gt;Node7 -->
<g id="edge35_Node000010_Node000007" class="edge">
<title>Node10&#45;&gt;Node7</title>
<g id="a_edge35_Node000010_Node000007"><a xlink:title=" ">
<path fill="none" stroke="#63b8ff" d="M465.47,-8.73C453.65,-7.17 441.51,-5.82 430,-4.97 368.83,-0.46 352.85,2.72 292,-4.97 277.87,-6.75 262.81,-10 249,-13.54"/>
<polygon fill="#63b8ff" stroke="#63b8ff" points="464.82,-12.31 475.21,-10.22 465.78,-5.38 464.82,-12.31"/>
</a>
</g>
</g>
<!-- Node10&#45;&gt;Node9 -->
<g id="edge36_Node000010_Node000009" class="edge">
<title>Node10&#45;&gt;Node9</title>
<g id="a_edge36_Node000010_Node000009"><a xlink:title=" ">
<path fill="none" stroke="#63b8ff" d="M465.69,-24.26C453.83,-24.8 441.57,-25.35 429.83,-25.89"/>
<polygon fill="#63b8ff" stroke="#63b8ff" points="465.61,-27.72 475.44,-23.77 465.3,-20.72 465.61,-27.72"/>
</a>
</g>
</g>
</g>
</svg>
