<?xml version="1.0" encoding="UTF-8" standalone="no"?>
<!DOCTYPE svg PUBLIC "-//W3C//DTD SVG 1.1//EN"
 "http://www.w3.org/Graphics/SVG/1.1/DTD/svg11.dtd">
<!-- Generated by graphviz version 8.0.3 (20230416.2022)
 -->
<!-- Title: hello_world::algorithms::controller::Controller Pages: 1 -->
<svg width="462pt" height="86pt"
 viewBox="0.00 0.00 462.00 86.00" xmlns="http://www.w3.org/2000/svg" xmlns:xlink="http://www.w3.org/1999/xlink">
<g id="graph0" class="graph" transform="scale(1 1) rotate(0) translate(4 82)">
<title>hello_world::algorithms::controller::Controller</title>
<!-- Node1 -->
<g id="Node000001" class="node">
<title>Node1</title>
<g id="a_Node000001"><a xlink:title=" ">
<polygon fill="#999999" stroke="#666666" points="268,-54 152,-54 152,-24 268,-24 268,-54"/>
<text text-anchor="start" x="160" y="-42" font-family="Helvetica,sans-Serif" font-size="10.00">hello_world::algorithms</text>
<text text-anchor="middle" x="210" y="-31" font-family="Helvetica,sans-Serif" font-size="10.00">::controller::Controller</text>
</a>
</g>
</g>
<!-- Node3 -->
<g id="Node000003" class="node">
<title>Node3</title>
<g id="a_Node000003"><a xlink:href="$classhello__world_1_1algorithms_1_1controller_1_1pid_1_1_basic_pid.html" xlink:title="基础 PID 控制器类，继承自Controller类">
<polygon fill="white" stroke="#666666" points="442,-78 316,-78 316,-48 442,-48 442,-78"/>
<text text-anchor="start" x="324" y="-66" font-family="Helvetica,sans-Serif" font-size="10.00">hello_world::algorithms</text>
<text text-anchor="middle" x="379" y="-55" font-family="Helvetica,sans-Serif" font-size="10.00">::controller::pid::BasicPid</text>
</a>
</g>
</g>
<!-- Node1&#45;&gt;Node3 -->
<g id="edge8_Node000001_Node000003" class="edge">
<title>Node1&#45;&gt;Node3</title>
<g id="a_edge8_Node000001_Node000003"><a xlink:title=" ">
<path fill="none" stroke="#63b8ff" d="M279.33,-48.82C291.32,-50.54 303.75,-52.33 315.57,-54.03"/>
<polygon fill="#63b8ff" stroke="#63b8ff" points="279.87,-45.22 269.47,-47.26 278.87,-52.15 279.87,-45.22"/>
</a>
</g>
</g>
<!-- Node4 -->
<g id="Node000004" class="node">
<title>Node4</title>
<g id="a_Node000004"><a xlink:href="$classhello__world_1_1algorithms_1_1controller_1_1pid_1_1_multi_nodes_pid.html" xlink:title="一个多节点 PID 控制器类，继承自 Controller 类，目前实现类型有串联或并联">
<polygon fill="white" stroke="#666666" points="454,-30 304,-30 304,0 454,0 454,-30"/>
<text text-anchor="start" x="312" y="-18" font-family="Helvetica,sans-Serif" font-size="10.00">hello_world::algorithms</text>
<text text-anchor="middle" x="379" y="-7" font-family="Helvetica,sans-Serif" font-size="10.00">::controller::pid::MultiNodesPid</text>
</a>
</g>
</g>
<!-- Node1&#45;&gt;Node4 -->
<g id="edge9_Node000001_Node000004" class="edge">
<title>Node1&#45;&gt;Node4</title>
<g id="a_edge9_Node000001_Node000004"><a xlink:title=" ">
<path fill="none" stroke="#63b8ff" d="M279.26,-29.19C287.29,-28.04 295.51,-26.86 303.61,-25.69"/>
<polygon fill="#63b8ff" stroke="#63b8ff" points="278.87,-25.85 269.47,-30.74 279.87,-32.78 278.87,-25.85"/>
</a>
</g>
</g>
<!-- Node2 -->
<g id="Node000002" class="node">
<title>Node2</title>
<g id="a_Node000002"><a xlink:href="$classhello__world_1_1_mem_mang.html" xlink:title=" ">
<polygon fill="white" stroke="#666666" points="116,-48.5 0,-48.5 0,-29.5 116,-29.5 116,-48.5"/>
<text text-anchor="middle" x="58" y="-36.5" font-family="Helvetica,sans-Serif" font-size="10.00">hello_world::MemMang</text>
</a>
</g>
</g>
<!-- Node2&#45;&gt;Node1 -->
<g id="edge7_Node000001_Node000002" class="edge">
<title>Node2&#45;&gt;Node1</title>
<g id="a_edge7_Node000001_Node000002"><a xlink:title=" ">
<path fill="none" stroke="#63b8ff" d="M126.87,-39C135.1,-39 143.46,-39 151.53,-39"/>
<polygon fill="#63b8ff" stroke="#63b8ff" points="127.14,-35.5 117.14,-39 127.14,-42.5 127.14,-35.5"/>
</a>
</g>
</g>
</g>
</svg>
