<?xml version="1.0" encoding="UTF-8" standalone="no"?>
<!DOCTYPE svg PUBLIC "-//W3C//DTD SVG 1.1//EN"
 "http://www.w3.org/Graphics/SVG/1.1/DTD/svg11.dtd">
<!-- Generated by graphviz version 8.0.3 (20230416.2022)
 -->
<!-- Title: hello_world::algorithms::controller::pid::MultiNodesPid::reset Pages: 1 -->
<svg width="321pt" height="206pt"
 viewBox="0.00 0.00 321.00 205.50" xmlns="http://www.w3.org/2000/svg" xmlns:xlink="http://www.w3.org/1999/xlink">
<g id="graph0" class="graph" transform="scale(1 1) rotate(0) translate(4 201.5)">
<title>hello_world::algorithms::controller::pid::MultiNodesPid::reset</title>
<!-- Node1 -->
<g id="Node000001" class="node">
<title>Node1</title>
<g id="a_Node000001"><a xlink:title="重置 PID 控制器">
<polygon fill="#999999" stroke="#666666" points="136,-116.5 0,-116.5 0,-75.5 136,-75.5 136,-116.5"/>
<text text-anchor="start" x="8" y="-104.5" font-family="Helvetica,sans-Serif" font-size="10.00">hello_world::algorithms</text>
<text text-anchor="start" x="8" y="-93.5" font-family="Helvetica,sans-Serif" font-size="10.00">::controller::pid::MultiNodes</text>
<text text-anchor="middle" x="68" y="-82.5" font-family="Helvetica,sans-Serif" font-size="10.00">Pid::reset</text>
</a>
</g>
</g>
<!-- Node2 -->
<g id="Node000002" class="node">
<title>Node2</title>
<g id="a_Node000002"><a xlink:href="$classhello__world_1_1algorithms_1_1controller_1_1pid_1_1_pid_list.html#a3f374c443b6a07e0df4e800c253643c9" xlink:title="获取链表的开始迭代器">
<polygon fill="white" stroke="#666666" points="301,-197.5 184,-197.5 184,-156.5 301,-156.5 301,-197.5"/>
<text text-anchor="start" x="192" y="-185.5" font-family="Helvetica,sans-Serif" font-size="10.00">hello_world::algorithms</text>
<text text-anchor="start" x="192" y="-174.5" font-family="Helvetica,sans-Serif" font-size="10.00">::controller::pid::PidList</text>
<text text-anchor="middle" x="242.5" y="-163.5" font-family="Helvetica,sans-Serif" font-size="10.00">::begin</text>
</a>
</g>
</g>
<!-- Node1&#45;&gt;Node2 -->
<g id="edge9_Node000001_Node000002" class="edge">
<title>Node1&#45;&gt;Node2</title>
<g id="a_edge9_Node000001_Node000002"><a xlink:title=" ">
<path fill="none" stroke="#63b8ff" d="M109.86,-116.84C128.67,-126.28 151.36,-137.44 172,-147 175.32,-148.54 178.74,-150.1 182.2,-151.65"/>
<polygon fill="#63b8ff" stroke="#63b8ff" points="180.44,-155.14 191,-156.01 183.29,-148.75 180.44,-155.14"/>
</a>
</g>
</g>
<!-- Node3 -->
<g id="Node000003" class="node">
<title>Node3</title>
<g id="a_Node000003"><a xlink:href="$classhello__world_1_1algorithms_1_1controller_1_1pid_1_1_pid_list.html#a25c937a246eff76147e6f2c0cf5a0d86" xlink:title="获取链表的结束迭代器">
<polygon fill="white" stroke="#666666" points="312,-138 173,-138 173,-108 312,-108 312,-138"/>
<text text-anchor="start" x="181" y="-126" font-family="Helvetica,sans-Serif" font-size="10.00">hello_world::algorithms</text>
<text text-anchor="middle" x="242.5" y="-115" font-family="Helvetica,sans-Serif" font-size="10.00">::controller::pid::PidList::end</text>
</a>
</g>
</g>
<!-- Node1&#45;&gt;Node3 -->
<g id="edge10_Node000001_Node000003" class="edge">
<title>Node1&#45;&gt;Node3</title>
<g id="a_edge10_Node000001_Node000003"><a xlink:title=" ">
<path fill="none" stroke="#63b8ff" d="M136.19,-106.52C144.57,-107.83 153.2,-109.18 161.75,-110.52"/>
<polygon fill="#63b8ff" stroke="#63b8ff" points="161.09,-114.11 171.51,-112.2 162.17,-107.2 161.09,-114.11"/>
</a>
</g>
</g>
<!-- Node4 -->
<g id="Node000004" class="node">
<title>Node4</title>
<g id="a_Node000004"><a xlink:href="$classhello__world_1_1algorithms_1_1controller_1_1pid_1_1_basic_pid.html#ad74407cecfa9cfb473f199d142869f0f" xlink:title="重置PID数据">
<polygon fill="white" stroke="#666666" points="305.5,-89.5 179.5,-89.5 179.5,-48.5 305.5,-48.5 305.5,-89.5"/>
<text text-anchor="start" x="187.5" y="-77.5" font-family="Helvetica,sans-Serif" font-size="10.00">hello_world::algorithms</text>
<text text-anchor="start" x="187.5" y="-66.5" font-family="Helvetica,sans-Serif" font-size="10.00">::controller::pid::BasicPid</text>
<text text-anchor="middle" x="242.5" y="-55.5" font-family="Helvetica,sans-Serif" font-size="10.00">::reset</text>
</a>
</g>
</g>
<!-- Node1&#45;&gt;Node4 -->
<g id="edge11_Node000001_Node000004" class="edge">
<title>Node1&#45;&gt;Node4</title>
<g id="a_edge11_Node000001_Node000004"><a xlink:title=" ">
<path fill="none" stroke="#63b8ff" d="M136.19,-85.48C146.76,-83.83 157.73,-82.11 168.43,-80.44"/>
<polygon fill="#63b8ff" stroke="#63b8ff" points="168.67,-83.79 178.01,-78.78 167.59,-76.87 168.67,-83.79"/>
</a>
</g>
</g>
<!-- Node5 -->
<g id="Node000005" class="node">
<title>Node5</title>
<g id="a_Node000005"><a xlink:href="$classhello__world_1_1algorithms_1_1controller_1_1pid_1_1_pid_list.html#a11a15045ece7e7259a71143875b2aa32" xlink:title="获取链表的大小">
<polygon fill="white" stroke="#666666" points="313,-30 172,-30 172,0 313,0 313,-30"/>
<text text-anchor="start" x="180" y="-18" font-family="Helvetica,sans-Serif" font-size="10.00">hello_world::algorithms</text>
<text text-anchor="middle" x="242.5" y="-7" font-family="Helvetica,sans-Serif" font-size="10.00">::controller::pid::PidList::size</text>
</a>
</g>
</g>
<!-- Node1&#45;&gt;Node5 -->
<g id="edge12_Node000001_Node000005" class="edge">
<title>Node1&#45;&gt;Node5</title>
<g id="a_edge12_Node000001_Node000005"><a xlink:title=" ">
<path fill="none" stroke="#63b8ff" d="M104.07,-75.2C123.68,-64.01 148.79,-50.41 172,-40 176.33,-38.06 180.86,-36.16 185.44,-34.32"/>
<polygon fill="#63b8ff" stroke="#63b8ff" points="186.43,-37.3 194.5,-30.43 183.91,-30.77 186.43,-37.3"/>
</a>
</g>
</g>
</g>
</svg>
