<?xml version="1.0" encoding="UTF-8" standalone="no"?>
<!DOCTYPE svg PUBLIC "-//W3C//DTD SVG 1.1//EN"
 "http://www.w3.org/Graphics/SVG/1.1/DTD/svg11.dtd">
<!-- Generated by graphviz version 8.0.3 (20230416.2022)
 -->
<!-- Title: hello_world::devices::imu::BMI088::gyroCsL Pages: 1 -->
<svg width="775pt" height="140pt"
 viewBox="0.00 0.00 775.00 139.97" xmlns="http://www.w3.org/2000/svg" xmlns:xlink="http://www.w3.org/1999/xlink">
<g id="graph0" class="graph" transform="scale(1 1) rotate(0) translate(4 135.97)">
<title>hello_world::devices::imu::BMI088::gyroCsL</title>
<!-- Node1 -->
<g id="Node000001" class="node">
<title>Node1</title>
<g id="a_Node000001"><a xlink:title=" ">
<polygon fill="#999999" stroke="#666666" points="767,-83.97 648,-83.97 648,-53.97 767,-53.97 767,-83.97"/>
<text text-anchor="start" x="656" y="-71.97" font-family="Helvetica,sans-Serif" font-size="10.00">hello_world::devices</text>
<text text-anchor="middle" x="707.5" y="-60.97" font-family="Helvetica,sans-Serif" font-size="10.00">::imu::BMI088::gyroCsL</text>
</a>
</g>
</g>
<!-- Node2 -->
<g id="Node000002" class="node">
<title>Node2</title>
<g id="a_Node000002"><a xlink:href="$classhello__world_1_1devices_1_1imu_1_1_b_m_i088.html#a443cf9b8f3e44acea8ac21258b4d7363" xlink:title="陀螺仪多寄存器数据读取">
<polygon fill="white" stroke="#666666" points="612,-131.97 466,-131.97 466,-101.97 612,-101.97 612,-131.97"/>
<text text-anchor="start" x="474" y="-119.97" font-family="Helvetica,sans-Serif" font-size="10.00">hello_world::devices</text>
<text text-anchor="middle" x="539" y="-108.97" font-family="Helvetica,sans-Serif" font-size="10.00">::imu::BMI088::gyroMultiRead</text>
</a>
</g>
</g>
<!-- Node1&#45;&gt;Node2 -->
<g id="edge23_Node000001_Node000002" class="edge">
<title>Node1&#45;&gt;Node2</title>
<g id="a_edge23_Node000001_Node000002"><a xlink:title=" ">
<path fill="none" stroke="#63b8ff" d="M642.45,-87.43C626.28,-92.1 609.09,-97.05 593.5,-101.55"/>
<polygon fill="#63b8ff" stroke="#63b8ff" points="643.26,-90.55 651.9,-84.42 641.32,-83.83 643.26,-90.55"/>
</a>
</g>
</g>
<!-- Node5 -->
<g id="Node000005" class="node">
<title>Node5</title>
<g id="a_Node000005"><a xlink:href="$classhello__world_1_1devices_1_1imu_1_1_b_m_i088.html#a16b8a6609a3b902bc05c4e2857801cd2" xlink:title="读取陀螺仪寄存器数据">
<polygon fill="white" stroke="#666666" points="601.5,-83.97 476.5,-83.97 476.5,-53.97 601.5,-53.97 601.5,-83.97"/>
<text text-anchor="start" x="484.5" y="-71.97" font-family="Helvetica,sans-Serif" font-size="10.00">hello_world::devices</text>
<text text-anchor="middle" x="539" y="-60.97" font-family="Helvetica,sans-Serif" font-size="10.00">::imu::BMI088::gyroRead</text>
</a>
</g>
</g>
<!-- Node1&#45;&gt;Node5 -->
<g id="edge26_Node000001_Node000005" class="edge">
<title>Node1&#45;&gt;Node5</title>
<g id="a_edge26_Node000001_Node000005"><a xlink:title=" ">
<path fill="none" stroke="#63b8ff" d="M636.81,-68.97C625.2,-68.97 613.23,-68.97 601.84,-68.97"/>
<polygon fill="#63b8ff" stroke="#63b8ff" points="636.8,-72.47 646.8,-68.97 636.8,-65.47 636.8,-72.47"/>
</a>
</g>
</g>
<!-- Node9 -->
<g id="Node000009" class="node">
<title>Node9</title>
<g id="a_Node000009"><a xlink:href="$classhello__world_1_1devices_1_1imu_1_1_b_m_i088.html#adf2ebc011e80e2ad115716307c773c6f" xlink:title="向陀螺仪寄存器写入数据">
<polygon fill="white" stroke="#666666" points="601.5,-35.97 476.5,-35.97 476.5,-5.97 601.5,-5.97 601.5,-35.97"/>
<text text-anchor="start" x="484.5" y="-23.97" font-family="Helvetica,sans-Serif" font-size="10.00">hello_world::devices</text>
<text text-anchor="middle" x="539" y="-12.97" font-family="Helvetica,sans-Serif" font-size="10.00">::imu::BMI088::gyroWrite</text>
</a>
</g>
</g>
<!-- Node1&#45;&gt;Node9 -->
<g id="edge31_Node000001_Node000009" class="edge">
<title>Node1&#45;&gt;Node9</title>
<g id="a_edge31_Node000001_Node000009"><a xlink:title=" ">
<path fill="none" stroke="#63b8ff" d="M642.45,-50.5C626.28,-45.84 609.09,-40.89 593.5,-36.39"/>
<polygon fill="#63b8ff" stroke="#63b8ff" points="641.32,-54.11 651.9,-53.52 643.26,-47.38 641.32,-54.11"/>
</a>
</g>
</g>
<!-- Node3 -->
<g id="Node000003" class="node">
<title>Node3</title>
<g id="a_Node000003"><a xlink:href="$classhello__world_1_1devices_1_1imu_1_1_b_m_i088.html#a00755ad04aebc2df220b39f1a83bf811" xlink:title="获取陀螺仪数据">
<polygon fill="white" stroke="#666666" points="430,-131.97 292,-131.97 292,-101.97 430,-101.97 430,-131.97"/>
<text text-anchor="start" x="300" y="-119.97" font-family="Helvetica,sans-Serif" font-size="10.00">hello_world::devices</text>
<text text-anchor="middle" x="361" y="-108.97" font-family="Helvetica,sans-Serif" font-size="10.00">::imu::BMI088::getGyroData</text>
</a>
</g>
</g>
<!-- Node2&#45;&gt;Node3 -->
<g id="edge24_Node000002_Node000003" class="edge">
<title>Node2&#45;&gt;Node3</title>
<g id="a_edge24_Node000002_Node000003"><a xlink:title=" ">
<path fill="none" stroke="#63b8ff" d="M454.91,-116.97C446.7,-116.97 438.43,-116.97 430.39,-116.97"/>
<polygon fill="#63b8ff" stroke="#63b8ff" points="454.65,-120.47 464.65,-116.97 454.65,-113.47 454.65,-120.47"/>
</a>
</g>
</g>
<!-- Node4 -->
<g id="Node000004" class="node">
<title>Node4</title>
<g id="a_Node000004"><a xlink:href="$classhello__world_1_1devices_1_1imu_1_1_b_m_i088.html#aa4b8ef9d615c0ead67e6b88c34bd84d1" xlink:title="获取传感器数据">
<polygon fill="white" stroke="#666666" points="256,-131.97 139,-131.97 139,-101.97 256,-101.97 256,-131.97"/>
<text text-anchor="start" x="147" y="-119.97" font-family="Helvetica,sans-Serif" font-size="10.00">hello_world::devices</text>
<text text-anchor="middle" x="197.5" y="-108.97" font-family="Helvetica,sans-Serif" font-size="10.00">::imu::BMI088::getData</text>
</a>
</g>
</g>
<!-- Node3&#45;&gt;Node4 -->
<g id="edge25_Node000003_Node000004" class="edge">
<title>Node3&#45;&gt;Node4</title>
<g id="a_edge25_Node000003_Node000004"><a xlink:title=" ">
<path fill="none" stroke="#63b8ff" d="M280.75,-116.97C272.54,-116.97 264.31,-116.97 256.39,-116.97"/>
<polygon fill="#63b8ff" stroke="#63b8ff" points="280.51,-120.47 290.51,-116.97 280.51,-113.47 280.51,-120.47"/>
</a>
</g>
</g>
<!-- Node6 -->
<g id="Node000006" class="node">
<title>Node6</title>
<g id="a_Node000006"><a xlink:href="$classhello__world_1_1devices_1_1imu_1_1_b_m_i088.html#a88754aa2ebac6fcdfde4c5ce4de33dd6" xlink:title="陀螺仪配置">
<polygon fill="white" stroke="#666666" points="255,-43.97 140,-43.97 140,-13.97 255,-13.97 255,-43.97"/>
<text text-anchor="start" x="148" y="-31.97" font-family="Helvetica,sans-Serif" font-size="10.00">hello_world::devices</text>
<text text-anchor="middle" x="197.5" y="-20.97" font-family="Helvetica,sans-Serif" font-size="10.00">::imu::BMI088::gyroInit</text>
</a>
</g>
</g>
<!-- Node5&#45;&gt;Node6 -->
<g id="edge27_Node000005_Node000006" class="edge">
<title>Node5&#45;&gt;Node6</title>
<g id="a_edge27_Node000005_Node000006"><a xlink:title=" ">
<path fill="none" stroke="#63b8ff" d="M465.37,-67.79C416.18,-66.13 349.86,-62.19 292,-52.97 278.76,-50.86 264.66,-47.72 251.54,-44.41"/>
<polygon fill="#63b8ff" stroke="#63b8ff" points="465.13,-71.32 475.23,-68.13 465.34,-64.32 465.13,-71.32"/>
</a>
</g>
</g>
<!-- Node8 -->
<g id="Node000008" class="node">
<title>Node8</title>
<g id="a_Node000008"><a xlink:href="$classhello__world_1_1devices_1_1imu_1_1_b_m_i088.html#ac8c0c2e64b56c3feb6888446b4830be3" xlink:title="陀螺仪自检测">
<polygon fill="white" stroke="#666666" points="429.5,-43.97 292.5,-43.97 292.5,-13.97 429.5,-13.97 429.5,-43.97"/>
<text text-anchor="start" x="300.5" y="-31.97" font-family="Helvetica,sans-Serif" font-size="10.00">hello_world::devices</text>
<text text-anchor="middle" x="361" y="-20.97" font-family="Helvetica,sans-Serif" font-size="10.00">::imu::BMI088::gyroSelfTest</text>
</a>
</g>
</g>
<!-- Node5&#45;&gt;Node8 -->
<g id="edge29_Node000005_Node000008" class="edge">
<title>Node5&#45;&gt;Node8</title>
<g id="a_edge29_Node000005_Node000008"><a xlink:title=" ">
<path fill="none" stroke="#63b8ff" d="M466.05,-52.62C454.08,-49.9 441.69,-47.08 429.83,-44.38"/>
<polygon fill="#63b8ff" stroke="#63b8ff" points="464.92,-56.18 475.44,-54.98 466.47,-49.35 464.92,-56.18"/>
</a>
</g>
</g>
<!-- Node7 -->
<g id="Node000007" class="node">
<title>Node7</title>
<g id="a_Node000007"><a xlink:href="$classhello__world_1_1devices_1_1imu_1_1_b_m_i088.html#a623a7d90db0585ea45bac12fd3d19061" xlink:title="进行 BMI088 芯片配置">
<polygon fill="white" stroke="#666666" points="103,-43.97 0,-43.97 0,-13.97 103,-13.97 103,-43.97"/>
<text text-anchor="start" x="8" y="-31.97" font-family="Helvetica,sans-Serif" font-size="10.00">hello_world::devices</text>
<text text-anchor="middle" x="51.5" y="-20.97" font-family="Helvetica,sans-Serif" font-size="10.00">::imu::BMI088::init</text>
</a>
</g>
</g>
<!-- Node6&#45;&gt;Node7 -->
<g id="edge28_Node000006_Node000007" class="edge">
<title>Node6&#45;&gt;Node7</title>
<g id="a_edge28_Node000006_Node000007"><a xlink:title=" ">
<path fill="none" stroke="#63b8ff" d="M128.83,-28.97C120.27,-28.97 111.63,-28.97 103.4,-28.97"/>
<polygon fill="#63b8ff" stroke="#63b8ff" points="128.59,-32.47 138.59,-28.97 128.59,-25.47 128.59,-32.47"/>
</a>
</g>
</g>
<!-- Node8&#45;&gt;Node6 -->
<g id="edge30_Node000008_Node000006" class="edge">
<title>Node8&#45;&gt;Node6</title>
<g id="a_edge30_Node000008_Node000006"><a xlink:title=" ">
<path fill="none" stroke="#63b8ff" d="M281.65,-28.97C272.76,-28.97 263.83,-28.97 255.29,-28.97"/>
<polygon fill="#63b8ff" stroke="#63b8ff" points="281.45,-32.47 291.45,-28.97 281.45,-25.47 281.45,-32.47"/>
</a>
</g>
</g>
<!-- Node9&#45;&gt;Node6 -->
<g id="edge32_Node000009_Node000006" class="edge">
<title>Node9&#45;&gt;Node6</title>
<g id="a_edge32_Node000009_Node000006"><a xlink:title=" ">
<path fill="none" stroke="#63b8ff" d="M465.47,-8.73C453.65,-7.17 441.51,-5.82 430,-4.97 368.83,-0.46 352.85,2.72 292,-4.97 277.87,-6.75 262.81,-10 249,-13.54"/>
<polygon fill="#63b8ff" stroke="#63b8ff" points="464.82,-12.31 475.21,-10.22 465.78,-5.38 464.82,-12.31"/>
</a>
</g>
</g>
<!-- Node9&#45;&gt;Node8 -->
<g id="edge33_Node000009_Node000008" class="edge">
<title>Node9&#45;&gt;Node8</title>
<g id="a_edge33_Node000009_Node000008"><a xlink:title=" ">
<path fill="none" stroke="#63b8ff" d="M465.69,-24.26C453.83,-24.8 441.57,-25.35 429.83,-25.89"/>
<polygon fill="#63b8ff" stroke="#63b8ff" points="465.61,-27.72 475.44,-23.77 465.3,-20.72 465.61,-27.72"/>
</a>
</g>
</g>
</g>
</svg>
