<?xml version="1.0" encoding="UTF-8" standalone="no"?>
<!DOCTYPE svg PUBLIC "-//W3C//DTD SVG 1.1//EN"
 "http://www.w3.org/Graphics/SVG/1.1/DTD/svg11.dtd">
<!-- Generated by graphviz version 8.0.3 (20230416.2022)
 -->
<!-- Title: HW&#45;Components/devices/laser Pages: 1 -->
<svg width="142pt" height="180pt"
 viewBox="0.00 0.00 142.00 180.00" xmlns="http://www.w3.org/2000/svg" xmlns:xlink="http://www.w3.org/1999/xlink">
<g id="graph0" class="graph" transform="scale(1 1) rotate(0) translate(4 176)">
<title>HW&#45;Components/devices/laser</title>
<g id="clust1" class="cluster">
<title>clusterdir_49decd52c970b6c26b1892145b8c54b6</title>
<g id="a_clust1"><a xlink:href="dir_49decd52c970b6c26b1892145b8c54b6.html" xlink:title="devices">
<polygon fill="#edf0f7" stroke="#7f7f7f" stroke-dasharray="5,2" points="8,-39 8,-164 126,-164 126,-39 8,-39"/>
<text text-anchor="middle" x="67" y="-152" font-family="Helvetica,sans-Serif" font-size="10.00">devices</text>
</a>
</g>
</g>
<g id="clust2" class="cluster">
<title>clusterdir_ff73d26a6cf1671bb96d43a8fce53ce5</title>
<g id="a_clust2"><a xlink:href="dir_ff73d26a6cf1671bb96d43a8fce53ce5.html">
<polygon fill="#edf0f7" stroke="#404040" stroke-width="2" points="16,-47 16,-137 118,-137 118,-47 16,-47"/>
</a>
</g>
</g>
<!-- dir_ff73d26a6cf1671bb96d43a8fce53ce5 -->
<g id="node1" class="node">
<title>dir_ff73d26a6cf1671bb96d43a8fce53ce5</title>
<text text-anchor="middle" x="91" y="-117" font-family="Helvetica,sans-Serif" font-size="10.00">laser</text>
</g>
<!-- dir_e8bd1a84f8538ffc5de3dbd278499ab3 -->
<g id="node2" class="node">
<title>dir_e8bd1a84f8538ffc5de3dbd278499ab3</title>
<g id="a_node2"><a xlink:href="dir_e8bd1a84f8538ffc5de3dbd278499ab3.html" xlink:title="inc">
<polygon fill="#a2b4d6" stroke="#404040" points="53.5,-74 24.5,-74 24.5,-55 53.5,-55 53.5,-74"/>
<text text-anchor="middle" x="39" y="-62" font-family="Helvetica,sans-Serif" font-size="10.00">inc</text>
</a>
</g>
</g>
<!-- dir_41354485d893139e386cb38ed5404f14 -->
<g id="node4" class="node">
<title>dir_41354485d893139e386cb38ed5404f14</title>
<g id="a_node4"><a xlink:href="dir_41354485d893139e386cb38ed5404f14.html" xlink:title="tools">
<polygon fill="#edf0f7" stroke="red" stroke-dasharray="5,2" points="79,-19 41,-19 41,0 79,0 79,-19"/>
<text text-anchor="middle" x="60" y="-7" font-family="Helvetica,sans-Serif" font-size="10.00">tools</text>
</a>
</g>
</g>
<!-- dir_e8bd1a84f8538ffc5de3dbd278499ab3&#45;&gt;dir_41354485d893139e386cb38ed5404f14 -->
<g id="edge1" class="edge">
<title>dir_e8bd1a84f8538ffc5de3dbd278499ab3&#45;&gt;dir_41354485d893139e386cb38ed5404f14</title>
<g id="a_edge1"><a xlink:href="dir_000012_000036.html">
<path fill="none" stroke="#63b8ff" d="M42.47,-54.75C45.19,-47.88 49.07,-38.08 52.49,-29.45"/>
<polygon fill="#63b8ff" stroke="#63b8ff" points="56.03,-31.03 56.46,-20.44 49.52,-28.45 56.03,-31.03"/>
</a>
</g>
<g id="a_edge1&#45;headlabel"><a xlink:href="dir_000012_000036.html" xlink:title="1">
<text text-anchor="middle" x="57.34" y="-31.92" font-family="Helvetica,sans-Serif" font-size="10.00" fill="#63b8ff">1</text>
</a>
</g>
</g>
<!-- dir_79fc1cd7611e3036bf0c752c128e2b6e -->
<g id="node3" class="node">
<title>dir_79fc1cd7611e3036bf0c752c128e2b6e</title>
<g id="a_node3"><a xlink:href="dir_79fc1cd7611e3036bf0c752c128e2b6e.html" xlink:title="src">
<polygon fill="#a2b4d6" stroke="#404040" points="54,-129 24,-129 24,-110 54,-110 54,-129"/>
<text text-anchor="middle" x="39" y="-117" font-family="Helvetica,sans-Serif" font-size="10.00">src</text>
</a>
</g>
</g>
<!-- dir_79fc1cd7611e3036bf0c752c128e2b6e&#45;&gt;dir_e8bd1a84f8538ffc5de3dbd278499ab3 -->
<g id="edge3" class="edge">
<title>dir_79fc1cd7611e3036bf0c752c128e2b6e&#45;&gt;dir_e8bd1a84f8538ffc5de3dbd278499ab3</title>
<g id="a_edge3"><a xlink:href="dir_000029_000012.html">
<path fill="none" stroke="#63b8ff" d="M39,-109.75C39,-103.11 39,-93.73 39,-85.31"/>
<polygon fill="#63b8ff" stroke="#63b8ff" points="42.5,-85.44 39,-75.44 35.5,-85.44 42.5,-85.44"/>
</a>
</g>
<g id="a_edge3&#45;headlabel"><a xlink:href="dir_000029_000012.html" xlink:title="1">
<text text-anchor="middle" x="45.34" y="-85.54" font-family="Helvetica,sans-Serif" font-size="10.00" fill="#63b8ff">1</text>
</a>
</g>
</g>
<!-- dir_79fc1cd7611e3036bf0c752c128e2b6e&#45;&gt;dir_41354485d893139e386cb38ed5404f14 -->
<g id="edge2" class="edge">
<title>dir_79fc1cd7611e3036bf0c752c128e2b6e&#45;&gt;dir_41354485d893139e386cb38ed5404f14</title>
<g id="a_edge2"><a xlink:href="dir_000029_000036.html">
<path fill="none" stroke="#63b8ff" d="M45.59,-109.51C51.47,-100.9 59.65,-87.28 63,-74 66.64,-59.57 65.62,-42.71 63.83,-30"/>
<polygon fill="#63b8ff" stroke="#63b8ff" points="67.13,-29.56 62.01,-20.29 60.23,-30.73 67.13,-29.56"/>
</a>
</g>
<g id="a_edge2&#45;headlabel"><a xlink:href="dir_000029_000036.html" xlink:title="2">
<text text-anchor="middle" x="70.53" y="-29.13" font-family="Helvetica,sans-Serif" font-size="10.00" fill="#63b8ff">2</text>
</a>
</g>
</g>
</g>
</svg>
