<?xml version="1.0" encoding="UTF-8" standalone="no"?>
<!DOCTYPE svg PUBLIC "-//W3C//DTD SVG 1.1//EN"
 "http://www.w3.org/Graphics/SVG/1.1/DTD/svg11.dtd">
<!-- Generated by graphviz version 8.0.3 (20230416.2022)
 -->
<!-- Title: HW&#45;Components/devices/imu Pages: 1 -->
<svg width="136pt" height="180pt"
 viewBox="0.00 0.00 136.00 180.00" xmlns="http://www.w3.org/2000/svg" xmlns:xlink="http://www.w3.org/1999/xlink">
<g id="graph0" class="graph" transform="scale(1 1) rotate(0) translate(4 176)">
<title>HW&#45;Components/devices/imu</title>
<g id="clust1" class="cluster">
<title>clusterdir_49decd52c970b6c26b1892145b8c54b6</title>
<g id="a_clust1"><a xlink:href="dir_49decd52c970b6c26b1892145b8c54b6.html" xlink:title="devices">
<polygon fill="#edf0f7" stroke="#7f7f7f" stroke-dasharray="5,2" points="8,-39 8,-164 120,-164 120,-39 8,-39"/>
<text text-anchor="middle" x="64" y="-152" font-family="Helvetica,sans-Serif" font-size="10.00">devices</text>
</a>
</g>
</g>
<g id="clust2" class="cluster">
<title>clusterdir_0d36f70e890197f66be298058bd32981</title>
<g id="a_clust2"><a xlink:href="dir_0d36f70e890197f66be298058bd32981.html">
<polygon fill="#edf0f7" stroke="#404040" stroke-width="2" points="16,-47 16,-137 112,-137 112,-47 16,-47"/>
</a>
</g>
</g>
<!-- dir_0d36f70e890197f66be298058bd32981 -->
<g id="node1" class="node">
<title>dir_0d36f70e890197f66be298058bd32981</title>
<text text-anchor="middle" x="88" y="-117" font-family="Helvetica,sans-Serif" font-size="10.00">imu</text>
</g>
<!-- dir_ac947090296fc38a62bc2ce3e3a311c1 -->
<g id="node2" class="node">
<title>dir_ac947090296fc38a62bc2ce3e3a311c1</title>
<g id="a_node2"><a xlink:href="dir_ac947090296fc38a62bc2ce3e3a311c1.html" xlink:title="inc">
<polygon fill="#a2b4d6" stroke="#404040" points="53.5,-74 24.5,-74 24.5,-55 53.5,-55 53.5,-74"/>
<text text-anchor="middle" x="39" y="-62" font-family="Helvetica,sans-Serif" font-size="10.00">inc</text>
</a>
</g>
</g>
<!-- dir_41354485d893139e386cb38ed5404f14 -->
<g id="node5" class="node">
<title>dir_41354485d893139e386cb38ed5404f14</title>
<g id="a_node5"><a xlink:href="dir_41354485d893139e386cb38ed5404f14.html" xlink:title="tools">
<polygon fill="#edf0f7" stroke="red" stroke-dasharray="5,2" points="103,-19 65,-19 65,0 103,0 103,-19"/>
<text text-anchor="middle" x="84" y="-7" font-family="Helvetica,sans-Serif" font-size="10.00">tools</text>
</a>
</g>
</g>
<!-- dir_ac947090296fc38a62bc2ce3e3a311c1&#45;&gt;dir_41354485d893139e386cb38ed5404f14 -->
<g id="edge1" class="edge">
<title>dir_ac947090296fc38a62bc2ce3e3a311c1&#45;&gt;dir_41354485d893139e386cb38ed5404f14</title>
<g id="a_edge1"><a xlink:href="dir_000011_000036.html">
<path fill="none" stroke="#63b8ff" d="M46.43,-54.75C52.65,-47.43 61.7,-36.76 69.37,-27.74"/>
<polygon fill="#63b8ff" stroke="#63b8ff" points="72.6,-30.33 76.41,-20.44 67.27,-25.8 72.6,-30.33"/>
</a>
</g>
<g id="a_edge1&#45;headlabel"><a xlink:href="dir_000011_000036.html" xlink:title="1">
<text text-anchor="middle" x="72.44" y="-31.41" font-family="Helvetica,sans-Serif" font-size="10.00" fill="#63b8ff">1</text>
</a>
</g>
</g>
<!-- dir_2acc9de0220485f4c2d2aa7708c80c45 -->
<g id="node3" class="node">
<title>dir_2acc9de0220485f4c2d2aa7708c80c45</title>
<g id="a_node3"><a xlink:href="dir_2acc9de0220485f4c2d2aa7708c80c45.html" xlink:title="prv">
<polygon fill="#a2b4d6" stroke="#404040" points="100.5,-74 71.5,-74 71.5,-55 100.5,-55 100.5,-74"/>
<text text-anchor="middle" x="86" y="-62" font-family="Helvetica,sans-Serif" font-size="10.00">prv</text>
</a>
</g>
</g>
<!-- dir_f6791751f84cd3da4a25a2f8c8474c38 -->
<g id="node4" class="node">
<title>dir_f6791751f84cd3da4a25a2f8c8474c38</title>
<g id="a_node4"><a xlink:href="dir_f6791751f84cd3da4a25a2f8c8474c38.html" xlink:title="src">
<polygon fill="#a2b4d6" stroke="#404040" points="54,-129 24,-129 24,-110 54,-110 54,-129"/>
<text text-anchor="middle" x="39" y="-117" font-family="Helvetica,sans-Serif" font-size="10.00">src</text>
</a>
</g>
</g>
<!-- dir_f6791751f84cd3da4a25a2f8c8474c38&#45;&gt;dir_ac947090296fc38a62bc2ce3e3a311c1 -->
<g id="edge4" class="edge">
<title>dir_f6791751f84cd3da4a25a2f8c8474c38&#45;&gt;dir_ac947090296fc38a62bc2ce3e3a311c1</title>
<g id="a_edge4"><a xlink:href="dir_000028_000011.html">
<path fill="none" stroke="#63b8ff" d="M39,-109.75C39,-103.11 39,-93.73 39,-85.31"/>
<polygon fill="#63b8ff" stroke="#63b8ff" points="42.5,-85.44 39,-75.44 35.5,-85.44 42.5,-85.44"/>
</a>
</g>
<g id="a_edge4&#45;headlabel"><a xlink:href="dir_000028_000011.html" xlink:title="1">
<text text-anchor="middle" x="45.34" y="-85.54" font-family="Helvetica,sans-Serif" font-size="10.00" fill="#63b8ff">1</text>
</a>
</g>
</g>
<!-- dir_f6791751f84cd3da4a25a2f8c8474c38&#45;&gt;dir_2acc9de0220485f4c2d2aa7708c80c45 -->
<g id="edge2" class="edge">
<title>dir_f6791751f84cd3da4a25a2f8c8474c38&#45;&gt;dir_2acc9de0220485f4c2d2aa7708c80c45</title>
<g id="a_edge2"><a xlink:href="dir_000028_000020.html">
<path fill="none" stroke="#63b8ff" d="M46.76,-109.75C53.32,-102.35 62.91,-91.54 70.96,-82.45"/>
<polygon fill="#63b8ff" stroke="#63b8ff" points="73.05,-85.25 77.07,-75.44 67.82,-80.6 73.05,-85.25"/>
</a>
</g>
<g id="a_edge2&#45;headlabel"><a xlink:href="dir_000028_000020.html" xlink:title="1">
<text text-anchor="middle" x="73.79" y="-86.32" font-family="Helvetica,sans-Serif" font-size="10.00" fill="#63b8ff">1</text>
</a>
</g>
</g>
<!-- dir_f6791751f84cd3da4a25a2f8c8474c38&#45;&gt;dir_41354485d893139e386cb38ed5404f14 -->
<g id="edge3" class="edge">
<title>dir_f6791751f84cd3da4a25a2f8c8474c38&#45;&gt;dir_41354485d893139e386cb38ed5404f14</title>
<g id="a_edge3"><a xlink:href="dir_000028_000036.html">
<path fill="none" stroke="#63b8ff" d="M54.3,-111.14C73.27,-101.65 103.87,-85.07 110,-74 117.53,-60.39 115.62,-53.5 110,-39 108.39,-34.83 105.85,-30.9 102.97,-27.37"/>
<polygon fill="#63b8ff" stroke="#63b8ff" points="105.91,-25.33 96.49,-20.49 100.84,-30.15 105.91,-25.33"/>
</a>
</g>
<g id="a_edge3&#45;headlabel"><a xlink:href="dir_000028_000036.html" xlink:title="2">
<text text-anchor="middle" x="109.45" y="-22.48" font-family="Helvetica,sans-Serif" font-size="10.00" fill="#63b8ff">2</text>
</a>
</g>
</g>
</g>
</svg>
