<?xml version="1.0" encoding="UTF-8" standalone="no"?>
<!DOCTYPE svg PUBLIC "-//W3C//DTD SVG 1.1//EN"
 "http://www.w3.org/Graphics/SVG/1.1/DTD/svg11.dtd">
<!-- Generated by graphviz version 8.0.3 (20230416.2022)
 -->
<!-- Title: HW&#45;Components/devices/motor/src/motor_DM_J4310.cpp Pages: 1 -->
<svg width="323pt" height="258pt"
 viewBox="0.00 0.00 323.00 258.00" xmlns="http://www.w3.org/2000/svg" xmlns:xlink="http://www.w3.org/1999/xlink">
<g id="graph0" class="graph" transform="scale(1 1) rotate(0) translate(4 254)">
<title>HW&#45;Components/devices/motor/src/motor_DM_J4310.cpp</title>
<!-- Node1 -->
<g id="Node000001" class="node">
<title>Node1</title>
<g id="a_Node000001"><a xlink:title=": @history : Version Date Author Note V0.9.0 2023&#45;11&#45;25 Caikunzhen 1.">
<polygon fill="#999999" stroke="#666666" points="315,-250 157,-250 157,-220 315,-220 315,-250"/>
<text text-anchor="start" x="165" y="-238" font-family="Helvetica,sans-Serif" font-size="10.00">HW&#45;Components/devices</text>
<text text-anchor="middle" x="236" y="-227" font-family="Helvetica,sans-Serif" font-size="10.00">/motor/src/motor_DM_J4310.cpp</text>
</a>
</g>
</g>
<!-- Node2 -->
<g id="Node000002" class="node">
<title>Node2</title>
<g id="a_Node000002"><a xlink:href="$motor___d_m___j4310_8hpp.html" xlink:title=": @history : Version Date Author Note V0.9.0 2023&#45;11&#45;25 Caikunzhen 1.">
<polygon fill="white" stroke="#666666" points="190.5,-184 79.5,-184 79.5,-165 190.5,-165 190.5,-184"/>
<text text-anchor="middle" x="135" y="-172" font-family="Helvetica,sans-Serif" font-size="10.00">motor_DM_J4310.hpp</text>
</a>
</g>
</g>
<!-- Node1&#45;&gt;Node2 -->
<g id="edge23_Node000001_Node000002" class="edge">
<title>Node1&#45;&gt;Node2</title>
<g id="a_edge23_Node000001_Node000002"><a xlink:title=" ">
<path fill="none" stroke="#63b8ff" d="M211.03,-219.54C195.41,-210.49 175.37,-198.88 159.78,-189.85"/>
<polygon fill="#63b8ff" stroke="#63b8ff" points="161.68,-186.33 151.27,-184.35 158.17,-192.39 161.68,-186.33"/>
</a>
</g>
</g>
<!-- Node8 -->
<g id="Node000008" class="node">
<title>Node8</title>
<g id="a_Node000008"><a xlink:href="$assert_8hpp.html" xlink:title=": @history : Version Date Author Note V0.9.0 yyyy&#45;mm&#45;dd &lt;author&gt; 1.">
<polygon fill="white" stroke="#666666" points="275,-19 213,-19 213,0 275,0 275,-19"/>
<text text-anchor="middle" x="244" y="-7" font-family="Helvetica,sans-Serif" font-size="10.00">assert.hpp</text>
</a>
</g>
</g>
<!-- Node1&#45;&gt;Node8 -->
<g id="edge33_Node000001_Node000008" class="edge">
<title>Node1&#45;&gt;Node8</title>
<g id="a_edge33_Node000001_Node000008"><a xlink:title=" ">
<path fill="none" stroke="#63b8ff" d="M236.51,-219.68C237.9,-181.01 241.71,-74.44 243.3,-30.18"/>
<polygon fill="#63b8ff" stroke="#63b8ff" points="246.83,-30.35 243.69,-20.23 239.83,-30.1 246.83,-30.35"/>
</a>
</g>
</g>
<!-- Node11 -->
<g id="Node000011" class="node">
<title>Node11</title>
<g id="a_Node000011"><a xlink:title=" ">
<polygon fill="#e0e0e0" stroke="#999999" points="313.5,-184 264.5,-184 264.5,-165 313.5,-165 313.5,-184"/>
<text text-anchor="middle" x="289" y="-172" font-family="Helvetica,sans-Serif" font-size="10.00">string.h</text>
</a>
</g>
</g>
<!-- Node1&#45;&gt;Node11 -->
<g id="edge32_Node000001_Node000011" class="edge">
<title>Node1&#45;&gt;Node11</title>
<g id="a_edge32_Node000001_Node000011"><a xlink:title=" ">
<path fill="none" stroke="#63b8ff" d="M249.1,-219.54C256.64,-211.22 266.15,-200.72 273.99,-192.07"/>
<polygon fill="#63b8ff" stroke="#63b8ff" points="276.02,-194.94 280.14,-185.18 270.83,-190.24 276.02,-194.94"/>
</a>
</g>
</g>
<!-- Node3 -->
<g id="Node000003" class="node">
<title>Node3</title>
<g id="a_Node000003"><a xlink:href="$motor__base_8hpp.html" xlink:title=": @history : Version Date Author Note V0.9.0 2023&#45;11&#45;25 Caikunzhen 1.">
<polygon fill="white" stroke="#666666" points="144,-129 58,-129 58,-110 144,-110 144,-129"/>
<text text-anchor="middle" x="101" y="-117" font-family="Helvetica,sans-Serif" font-size="10.00">motor_base.hpp</text>
</a>
</g>
</g>
<!-- Node2&#45;&gt;Node3 -->
<g id="edge24_Node000002_Node000003" class="edge">
<title>Node2&#45;&gt;Node3</title>
<g id="a_edge24_Node000002_Node000003"><a xlink:title=" ">
<path fill="none" stroke="#63b8ff" d="M129.39,-164.75C124.84,-157.66 118.27,-147.42 112.6,-138.59"/>
<polygon fill="#63b8ff" stroke="#63b8ff" points="115.08,-136.97 106.74,-130.44 109.19,-140.75 115.08,-136.97"/>
</a>
</g>
</g>
<!-- Node4 -->
<g id="Node000004" class="node">
<title>Node4</title>
<g id="a_Node000004"><a xlink:title=" ">
<polygon fill="#e0e0e0" stroke="#999999" points="40,-74 0,-74 0,-55 40,-55 40,-74"/>
<text text-anchor="middle" x="20" y="-62" font-family="Helvetica,sans-Serif" font-size="10.00">limits</text>
</a>
</g>
</g>
<!-- Node3&#45;&gt;Node4 -->
<g id="edge25_Node000003_Node000004" class="edge">
<title>Node3&#45;&gt;Node4</title>
<g id="a_edge25_Node000003_Node000004"><a xlink:title=" ">
<path fill="none" stroke="#63b8ff" d="M87.26,-109.51C74.97,-101.47 56.72,-89.53 42.33,-80.11"/>
<polygon fill="#63b8ff" stroke="#63b8ff" points="44.82,-76.9 34.54,-74.36 40.99,-82.76 44.82,-76.9"/>
</a>
</g>
</g>
<!-- Node5 -->
<g id="Node000005" class="node">
<title>Node5</title>
<g id="a_Node000005"><a xlink:href="$base_8hpp.html" xlink:title=": @history : Version Date Author Note V0.9.0 yyyy&#45;mm&#45;dd &lt;author&gt; 1.">
<polygon fill="white" stroke="#666666" points="200,-74 144,-74 144,-55 200,-55 200,-74"/>
<text text-anchor="middle" x="172" y="-62" font-family="Helvetica,sans-Serif" font-size="10.00">base.hpp</text>
</a>
</g>
</g>
<!-- Node3&#45;&gt;Node5 -->
<g id="edge26_Node000003_Node000005" class="edge">
<title>Node3&#45;&gt;Node5</title>
<g id="a_edge26_Node000003_Node000005"><a xlink:title=" ">
<path fill="none" stroke="#63b8ff" d="M113.04,-109.51C123.51,-101.7 138.9,-90.21 151.33,-80.93"/>
<polygon fill="#63b8ff" stroke="#63b8ff" points="153.21,-83.14 159.13,-74.36 149.03,-77.54 153.21,-83.14"/>
</a>
</g>
</g>
<!-- Node9 -->
<g id="Node000009" class="node">
<title>Node9</title>
<g id="a_Node000009"><a xlink:href="$system_8hpp.html" xlink:title=" ">
<polygon fill="white" stroke="#666666" points="126,-74 58,-74 58,-55 126,-55 126,-74"/>
<text text-anchor="middle" x="92" y="-62" font-family="Helvetica,sans-Serif" font-size="10.00">system.hpp</text>
</a>
</g>
</g>
<!-- Node3&#45;&gt;Node9 -->
<g id="edge30_Node000003_Node000009" class="edge">
<title>Node3&#45;&gt;Node9</title>
<g id="a_edge30_Node000003_Node000009"><a xlink:title=" ">
<path fill="none" stroke="#63b8ff" d="M99.51,-109.75C98.37,-103.04 96.76,-93.52 95.32,-85.02"/>
<polygon fill="#63b8ff" stroke="#63b8ff" points="98.64,-84.71 93.52,-75.44 91.74,-85.89 98.64,-84.71"/>
</a>
</g>
</g>
<!-- Node6 -->
<g id="Node000006" class="node">
<title>Node6</title>
<g id="a_Node000006"><a xlink:title=" ">
<polygon fill="#e0e0e0" stroke="#999999" points="131,-19 87,-19 87,0 131,0 131,-19"/>
<text text-anchor="middle" x="109" y="-7" font-family="Helvetica,sans-Serif" font-size="10.00">cmath</text>
</a>
</g>
</g>
<!-- Node5&#45;&gt;Node6 -->
<g id="edge27_Node000005_Node000006" class="edge">
<title>Node5&#45;&gt;Node6</title>
<g id="a_edge27_Node000005_Node000006"><a xlink:title=" ">
<path fill="none" stroke="#63b8ff" d="M161.31,-54.51C152.12,-46.77 138.64,-35.43 127.66,-26.2"/>
<polygon fill="#63b8ff" stroke="#63b8ff" points="130.43,-23.12 120.53,-19.36 125.93,-28.47 130.43,-23.12"/>
</a>
</g>
</g>
<!-- Node7 -->
<g id="Node000007" class="node">
<title>Node7</title>
<g id="a_Node000007"><a xlink:title=" ">
<polygon fill="#e0e0e0" stroke="#999999" points="195,-19 149,-19 149,0 195,0 195,-19"/>
<text text-anchor="middle" x="172" y="-7" font-family="Helvetica,sans-Serif" font-size="10.00">cstdint</text>
</a>
</g>
</g>
<!-- Node5&#45;&gt;Node7 -->
<g id="edge28_Node000005_Node000007" class="edge">
<title>Node5&#45;&gt;Node7</title>
<g id="a_edge28_Node000005_Node000007"><a xlink:title=" ">
<path fill="none" stroke="#63b8ff" d="M172,-54.75C172,-48.11 172,-38.73 172,-30.31"/>
<polygon fill="#63b8ff" stroke="#63b8ff" points="175.5,-30.44 172,-20.44 168.5,-30.44 175.5,-30.44"/>
</a>
</g>
</g>
<!-- Node5&#45;&gt;Node8 -->
<g id="edge29_Node000005_Node000008" class="edge">
<title>Node5&#45;&gt;Node8</title>
<g id="a_edge29_Node000005_Node000008"><a xlink:title=" ">
<path fill="none" stroke="#63b8ff" d="M184.21,-54.51C194.93,-46.62 210.74,-34.98 223.41,-25.65"/>
<polygon fill="#63b8ff" stroke="#63b8ff" points="224.99,-28.1 230.97,-19.36 220.84,-22.47 224.99,-28.1"/>
</a>
</g>
</g>
<!-- Node10 -->
<g id="Node000010" class="node">
<title>Node10</title>
<g id="a_Node000010"><a xlink:title=" ">
<polygon fill="#e0e0e0" stroke="#999999" points="68.5,-19 23.5,-19 23.5,0 68.5,0 68.5,-19"/>
<text text-anchor="middle" x="46" y="-7" font-family="Helvetica,sans-Serif" font-size="10.00">cstdlib</text>
</a>
</g>
</g>
<!-- Node9&#45;&gt;Node10 -->
<g id="edge31_Node000009_Node000010" class="edge">
<title>Node9&#45;&gt;Node10</title>
<g id="a_edge31_Node000009_Node000010"><a xlink:title=" ">
<path fill="none" stroke="#63b8ff" d="M84.4,-54.75C78.05,-47.43 68.79,-36.76 60.96,-27.74"/>
<polygon fill="#63b8ff" stroke="#63b8ff" points="62.96,-25.7 53.76,-20.44 57.67,-30.29 62.96,-25.7"/>
</a>
</g>
</g>
</g>
</svg>
