<?xml version="1.0" encoding="UTF-8" standalone="no"?>
<!DOCTYPE svg PUBLIC "-//W3C//DTD SVG 1.1//EN"
 "http://www.w3.org/Graphics/SVG/1.1/DTD/svg11.dtd">
<!-- Generated by graphviz version 8.0.3 (20230416.2022)
 -->
<!-- Title: HW&#45;Components/devices/motor/src/motor_MF9025v2.cpp Pages: 1 -->
<svg width="283pt" height="258pt"
 viewBox="0.00 0.00 283.00 258.00" xmlns="http://www.w3.org/2000/svg" xmlns:xlink="http://www.w3.org/1999/xlink">
<g id="graph0" class="graph" transform="scale(1 1) rotate(0) translate(4 254)">
<title>HW&#45;Components/devices/motor/src/motor_MF9025v2.cpp</title>
<!-- Node1 -->
<g id="Node000001" class="node">
<title>Node1</title>
<g id="a_Node000001"><a xlink:title=": @history : Version Date Author Note V0.9.0 2023&#45;11&#45;25 Caikunzhen 1.">
<polygon fill="#999999" stroke="#666666" points="255.5,-250 98.5,-250 98.5,-220 255.5,-220 255.5,-250"/>
<text text-anchor="start" x="106.5" y="-238" font-family="Helvetica,sans-Serif" font-size="10.00">HW&#45;Components/devices</text>
<text text-anchor="middle" x="177" y="-227" font-family="Helvetica,sans-Serif" font-size="10.00">/motor/src/motor_MF9025v2.cpp</text>
</a>
</g>
</g>
<!-- Node2 -->
<g id="Node000002" class="node">
<title>Node2</title>
<g id="a_Node000002"><a xlink:href="$motor___m_f9025v2_8hpp.html" xlink:title=": @history : Version Date Author Note V0.9.0 2023&#45;11&#45;25 Caikunzhen 1.">
<polygon fill="white" stroke="#666666" points="191,-184 81,-184 81,-165 191,-165 191,-184"/>
<text text-anchor="middle" x="136" y="-172" font-family="Helvetica,sans-Serif" font-size="10.00">motor_MF9025v2.hpp</text>
</a>
</g>
</g>
<!-- Node1&#45;&gt;Node2 -->
<g id="edge21_Node000001_Node000002" class="edge">
<title>Node1&#45;&gt;Node2</title>
<g id="a_edge21_Node000001_Node000002"><a xlink:title=" ">
<path fill="none" stroke="#63b8ff" d="M166.87,-219.54C161.27,-211.56 154.29,-201.59 148.38,-193.16"/>
<polygon fill="#63b8ff" stroke="#63b8ff" points="150.69,-191.36 142.08,-185.18 144.95,-195.37 150.69,-191.36"/>
</a>
</g>
</g>
<!-- Node8 -->
<g id="Node000008" class="node">
<title>Node8</title>
<g id="a_Node000008"><a xlink:href="$assert_8hpp.html" xlink:title=": @history : Version Date Author Note V0.9.0 yyyy&#45;mm&#45;dd &lt;author&gt; 1.">
<polygon fill="white" stroke="#666666" points="275,-19 213,-19 213,0 275,0 275,-19"/>
<text text-anchor="middle" x="244" y="-7" font-family="Helvetica,sans-Serif" font-size="10.00">assert.hpp</text>
</a>
</g>
</g>
<!-- Node1&#45;&gt;Node8 -->
<g id="edge30_Node000001_Node000008" class="edge">
<title>Node1&#45;&gt;Node8</title>
<g id="a_edge30_Node000001_Node000008"><a xlink:title=" ">
<path fill="none" stroke="#63b8ff" d="M184.35,-219.85C189.27,-209.99 195.61,-196.43 200,-184 219.28,-129.44 233.79,-62.46 240.27,-29.99"/>
<polygon fill="#63b8ff" stroke="#63b8ff" points="243.87,-30.82 242.36,-20.33 237,-29.48 243.87,-30.82"/>
</a>
</g>
</g>
<!-- Node3 -->
<g id="Node000003" class="node">
<title>Node3</title>
<g id="a_Node000003"><a xlink:href="$motor__base_8hpp.html" xlink:title=": @history : Version Date Author Note V0.9.0 2023&#45;11&#45;25 Caikunzhen 1.">
<polygon fill="white" stroke="#666666" points="145,-129 59,-129 59,-110 145,-110 145,-129"/>
<text text-anchor="middle" x="102" y="-117" font-family="Helvetica,sans-Serif" font-size="10.00">motor_base.hpp</text>
</a>
</g>
</g>
<!-- Node2&#45;&gt;Node3 -->
<g id="edge22_Node000002_Node000003" class="edge">
<title>Node2&#45;&gt;Node3</title>
<g id="a_edge22_Node000002_Node000003"><a xlink:title=" ">
<path fill="none" stroke="#63b8ff" d="M130.39,-164.75C125.84,-157.66 119.27,-147.42 113.6,-138.59"/>
<polygon fill="#63b8ff" stroke="#63b8ff" points="116.08,-136.97 107.74,-130.44 110.19,-140.75 116.08,-136.97"/>
</a>
</g>
</g>
<!-- Node4 -->
<g id="Node000004" class="node">
<title>Node4</title>
<g id="a_Node000004"><a xlink:title=" ">
<polygon fill="#e0e0e0" stroke="#999999" points="40,-74 0,-74 0,-55 40,-55 40,-74"/>
<text text-anchor="middle" x="20" y="-62" font-family="Helvetica,sans-Serif" font-size="10.00">limits</text>
</a>
</g>
</g>
<!-- Node3&#45;&gt;Node4 -->
<g id="edge23_Node000003_Node000004" class="edge">
<title>Node3&#45;&gt;Node4</title>
<g id="a_edge23_Node000003_Node000004"><a xlink:title=" ">
<path fill="none" stroke="#63b8ff" d="M88.09,-109.51C75.65,-101.47 57.17,-89.53 42.61,-80.11"/>
<polygon fill="#63b8ff" stroke="#63b8ff" points="45,-76.85 34.7,-74.36 41.2,-82.73 45,-76.85"/>
</a>
</g>
</g>
<!-- Node5 -->
<g id="Node000005" class="node">
<title>Node5</title>
<g id="a_Node000005"><a xlink:href="$base_8hpp.html" xlink:title=": @history : Version Date Author Note V0.9.0 yyyy&#45;mm&#45;dd &lt;author&gt; 1.">
<polygon fill="white" stroke="#666666" points="200,-74 144,-74 144,-55 200,-55 200,-74"/>
<text text-anchor="middle" x="172" y="-62" font-family="Helvetica,sans-Serif" font-size="10.00">base.hpp</text>
</a>
</g>
</g>
<!-- Node3&#45;&gt;Node5 -->
<g id="edge24_Node000003_Node000005" class="edge">
<title>Node3&#45;&gt;Node5</title>
<g id="a_edge24_Node000003_Node000005"><a xlink:title=" ">
<path fill="none" stroke="#63b8ff" d="M113.87,-109.51C124.19,-101.7 139.37,-90.21 151.63,-80.93"/>
<polygon fill="#63b8ff" stroke="#63b8ff" points="153.44,-83.18 159.3,-74.36 149.22,-77.6 153.44,-83.18"/>
</a>
</g>
</g>
<!-- Node9 -->
<g id="Node000009" class="node">
<title>Node9</title>
<g id="a_Node000009"><a xlink:href="$system_8hpp.html" xlink:title=" ">
<polygon fill="white" stroke="#666666" points="126,-74 58,-74 58,-55 126,-55 126,-74"/>
<text text-anchor="middle" x="92" y="-62" font-family="Helvetica,sans-Serif" font-size="10.00">system.hpp</text>
</a>
</g>
</g>
<!-- Node3&#45;&gt;Node9 -->
<g id="edge28_Node000003_Node000009" class="edge">
<title>Node3&#45;&gt;Node9</title>
<g id="a_edge28_Node000003_Node000009"><a xlink:title=" ">
<path fill="none" stroke="#63b8ff" d="M100.35,-109.75C99.08,-103.04 97.29,-93.52 95.68,-85.02"/>
<polygon fill="#63b8ff" stroke="#63b8ff" points="98.98,-84.62 93.69,-75.44 92.1,-85.92 98.98,-84.62"/>
</a>
</g>
</g>
<!-- Node6 -->
<g id="Node000006" class="node">
<title>Node6</title>
<g id="a_Node000006"><a xlink:title=" ">
<polygon fill="#e0e0e0" stroke="#999999" points="131,-19 87,-19 87,0 131,0 131,-19"/>
<text text-anchor="middle" x="109" y="-7" font-family="Helvetica,sans-Serif" font-size="10.00">cmath</text>
</a>
</g>
</g>
<!-- Node5&#45;&gt;Node6 -->
<g id="edge25_Node000005_Node000006" class="edge">
<title>Node5&#45;&gt;Node6</title>
<g id="a_edge25_Node000005_Node000006"><a xlink:title=" ">
<path fill="none" stroke="#63b8ff" d="M161.31,-54.51C152.12,-46.77 138.64,-35.43 127.66,-26.2"/>
<polygon fill="#63b8ff" stroke="#63b8ff" points="130.43,-23.12 120.53,-19.36 125.93,-28.47 130.43,-23.12"/>
</a>
</g>
</g>
<!-- Node7 -->
<g id="Node000007" class="node">
<title>Node7</title>
<g id="a_Node000007"><a xlink:title=" ">
<polygon fill="#e0e0e0" stroke="#999999" points="195,-19 149,-19 149,0 195,0 195,-19"/>
<text text-anchor="middle" x="172" y="-7" font-family="Helvetica,sans-Serif" font-size="10.00">cstdint</text>
</a>
</g>
</g>
<!-- Node5&#45;&gt;Node7 -->
<g id="edge26_Node000005_Node000007" class="edge">
<title>Node5&#45;&gt;Node7</title>
<g id="a_edge26_Node000005_Node000007"><a xlink:title=" ">
<path fill="none" stroke="#63b8ff" d="M172,-54.75C172,-48.11 172,-38.73 172,-30.31"/>
<polygon fill="#63b8ff" stroke="#63b8ff" points="175.5,-30.44 172,-20.44 168.5,-30.44 175.5,-30.44"/>
</a>
</g>
</g>
<!-- Node5&#45;&gt;Node8 -->
<g id="edge27_Node000005_Node000008" class="edge">
<title>Node5&#45;&gt;Node8</title>
<g id="a_edge27_Node000005_Node000008"><a xlink:title=" ">
<path fill="none" stroke="#63b8ff" d="M184.21,-54.51C194.93,-46.62 210.74,-34.98 223.41,-25.65"/>
<polygon fill="#63b8ff" stroke="#63b8ff" points="224.99,-28.1 230.97,-19.36 220.84,-22.47 224.99,-28.1"/>
</a>
</g>
</g>
<!-- Node10 -->
<g id="Node000010" class="node">
<title>Node10</title>
<g id="a_Node000010"><a xlink:title=" ">
<polygon fill="#e0e0e0" stroke="#999999" points="68.5,-19 23.5,-19 23.5,0 68.5,0 68.5,-19"/>
<text text-anchor="middle" x="46" y="-7" font-family="Helvetica,sans-Serif" font-size="10.00">cstdlib</text>
</a>
</g>
</g>
<!-- Node9&#45;&gt;Node10 -->
<g id="edge29_Node000009_Node000010" class="edge">
<title>Node9&#45;&gt;Node10</title>
<g id="a_edge29_Node000009_Node000010"><a xlink:title=" ">
<path fill="none" stroke="#63b8ff" d="M84.4,-54.75C78.05,-47.43 68.79,-36.76 60.96,-27.74"/>
<polygon fill="#63b8ff" stroke="#63b8ff" points="62.96,-25.7 53.76,-20.44 57.67,-30.29 62.96,-25.7"/>
</a>
</g>
</g>
</g>
</svg>
