<?xml version="1.0" encoding="UTF-8" standalone="no"?>
<!DOCTYPE svg PUBLIC "-//W3C//DTD SVG 1.1//EN"
 "http://www.w3.org/Graphics/SVG/1.1/DTD/svg11.dtd">
<!-- Generated by graphviz version 8.0.3 (20230416.2022)
 -->
<!-- Title: HW&#45;Components/devices/motor/inc/motor_base.hpp Pages: 1 -->
<svg width="1373pt" height="236pt"
 viewBox="0.00 0.00 1373.00 236.00" xmlns="http://www.w3.org/2000/svg" xmlns:xlink="http://www.w3.org/1999/xlink">
<g id="graph0" class="graph" transform="scale(1 1) rotate(0) translate(4 232)">
<title>HW&#45;Components/devices/motor/inc/motor_base.hpp</title>
<!-- Node1 -->
<g id="Node000001" class="node">
<title>Node1</title>
<g id="a_Node000001"><a xlink:title=": @history : Version Date Author Note V0.9.0 2023&#45;11&#45;25 Caikunzhen 1.">
<polygon fill="#999999" stroke="#666666" points="716.5,-228 583.5,-228 583.5,-198 716.5,-198 716.5,-228"/>
<text text-anchor="start" x="591.5" y="-216" font-family="Helvetica,sans-Serif" font-size="10.00">HW&#45;Components/devices</text>
<text text-anchor="middle" x="650" y="-205" font-family="Helvetica,sans-Serif" font-size="10.00">/motor/inc/motor_base.hpp</text>
</a>
</g>
</g>
<!-- Node2 -->
<g id="Node000002" class="node">
<title>Node2</title>
<g id="a_Node000002"><a xlink:href="$motor_8hpp.html" xlink:title=": @history : Version Date Author Note V0.9.0 2023&#45;11&#45;25 Caikunzhen 1.">
<polygon fill="white" stroke="#666666" points="614,-96 488,-96 488,-66 614,-66 614,-96"/>
<text text-anchor="start" x="496" y="-84" font-family="Helvetica,sans-Serif" font-size="10.00">HW&#45;Components/devices</text>
<text text-anchor="middle" x="551" y="-73" font-family="Helvetica,sans-Serif" font-size="10.00">/motor/inc/motor.hpp</text>
</a>
</g>
</g>
<!-- Node1&#45;&gt;Node2 -->
<g id="edge49_Node000001_Node000002" class="edge">
<title>Node1&#45;&gt;Node2</title>
<g id="a_edge49_Node000001_Node000002"><a xlink:title=" ">
<path fill="none" stroke="#63b8ff" d="M605.29,-192.33C592.19,-184.6 578.99,-174.53 570,-162 555.85,-142.29 552.11,-113.48 551.2,-96.34"/>
<polygon fill="#63b8ff" stroke="#63b8ff" points="603.29,-195.78 613.74,-197.55 606.68,-189.66 603.29,-195.78"/>
</a>
</g>
</g>
<!-- Node4 -->
<g id="Node000004" class="node">
<title>Node4</title>
<g id="a_Node000004"><a xlink:href="$motor___a1_8hpp.html" xlink:title=": @history : Version Date Author Note V0.9.0 2023&#45;11&#45;25 Caikunzhen 1.">
<polygon fill="white" stroke="#666666" points="179,-162 53,-162 53,-132 179,-132 179,-162"/>
<text text-anchor="start" x="61" y="-150" font-family="Helvetica,sans-Serif" font-size="10.00">HW&#45;Components/devices</text>
<text text-anchor="middle" x="116" y="-139" font-family="Helvetica,sans-Serif" font-size="10.00">/motor/inc/motor_A1.hpp</text>
</a>
</g>
</g>
<!-- Node1&#45;&gt;Node4 -->
<g id="edge51_Node000001_Node000004" class="edge">
<title>Node1&#45;&gt;Node4</title>
<g id="a_edge51_Node000001_Node000004"><a xlink:title=" ">
<path fill="none" stroke="#63b8ff" d="M572.32,-205.61C480.31,-197.57 322.53,-182.32 188,-162 185.1,-161.56 182.15,-161.09 179.16,-160.59"/>
<polygon fill="#63b8ff" stroke="#63b8ff" points="571.95,-209.17 582.21,-206.55 572.55,-202.2 571.95,-209.17"/>
</a>
</g>
</g>
<!-- Node6 -->
<g id="Node000006" class="node">
<title>Node6</title>
<g id="a_Node000006"><a xlink:href="$motor___d_m___j4310_8hpp.html" xlink:title=": @history : Version Date Author Note V0.9.0 2023&#45;11&#45;25 Caikunzhen 1.">
<polygon fill="white" stroke="#666666" points="355,-162 197,-162 197,-132 355,-132 355,-162"/>
<text text-anchor="start" x="205" y="-150" font-family="Helvetica,sans-Serif" font-size="10.00">HW&#45;Components/devices</text>
<text text-anchor="middle" x="276" y="-139" font-family="Helvetica,sans-Serif" font-size="10.00">/motor/inc/motor_DM_J4310.hpp</text>
</a>
</g>
</g>
<!-- Node1&#45;&gt;Node6 -->
<g id="edge54_Node000001_Node000006" class="edge">
<title>Node1&#45;&gt;Node6</title>
<g id="a_edge54_Node000001_Node000006"><a xlink:title=" ">
<path fill="none" stroke="#63b8ff" d="M572.38,-198.72C508.82,-187.84 419.26,-172.51 355.26,-161.56"/>
<polygon fill="#63b8ff" stroke="#63b8ff" points="571.69,-202.32 582.14,-200.56 572.87,-195.42 571.69,-202.32"/>
</a>
</g>
</g>
<!-- Node8 -->
<g id="Node000008" class="node">
<title>Node8</title>
<g id="a_Node000008"><a xlink:href="$motor___g_m6020_8hpp.html" xlink:title=": @history : Version Date Author Note V0.9.0 2023&#45;11&#45;25 Caikunzhen 1.">
<polygon fill="white" stroke="#666666" points="522.5,-162 373.5,-162 373.5,-132 522.5,-132 522.5,-162"/>
<text text-anchor="start" x="381.5" y="-150" font-family="Helvetica,sans-Serif" font-size="10.00">HW&#45;Components/devices</text>
<text text-anchor="middle" x="448" y="-139" font-family="Helvetica,sans-Serif" font-size="10.00">/motor/inc/motor_GM6020.hpp</text>
</a>
</g>
</g>
<!-- Node1&#45;&gt;Node8 -->
<g id="edge57_Node000001_Node000008" class="edge">
<title>Node1&#45;&gt;Node8</title>
<g id="a_edge57_Node000001_Node000008"><a xlink:title=" ">
<path fill="none" stroke="#63b8ff" d="M593.98,-194.25C562.29,-184.21 523.18,-171.82 493.42,-162.39"/>
<polygon fill="#63b8ff" stroke="#63b8ff" points="592.83,-197.87 603.42,-197.56 594.94,-191.2 592.83,-197.87"/>
</a>
</g>
</g>
<!-- Node10 -->
<g id="Node000010" class="node">
<title>Node10</title>
<g id="a_Node000010"><a xlink:href="$motor___m2006_8hpp.html" xlink:title=": @history : Version Date Author Note V0.9.0 2023&#45;11&#45;25 Caikunzhen 1.">
<polygon fill="white" stroke="#666666" points="720.5,-162 579.5,-162 579.5,-132 720.5,-132 720.5,-162"/>
<text text-anchor="start" x="587.5" y="-150" font-family="Helvetica,sans-Serif" font-size="10.00">HW&#45;Components/devices</text>
<text text-anchor="middle" x="650" y="-139" font-family="Helvetica,sans-Serif" font-size="10.00">/motor/inc/motor_M2006.hpp</text>
</a>
</g>
</g>
<!-- Node1&#45;&gt;Node10 -->
<g id="edge60_Node000001_Node000010" class="edge">
<title>Node1&#45;&gt;Node10</title>
<g id="a_edge60_Node000001_Node000010"><a xlink:title=" ">
<path fill="none" stroke="#63b8ff" d="M650,-186.97C650,-178.55 650,-169.45 650,-162.16"/>
<polygon fill="#63b8ff" stroke="#63b8ff" points="646.5,-186.8 650,-196.8 653.5,-186.8 646.5,-186.8"/>
</a>
</g>
</g>
<!-- Node12 -->
<g id="Node000012" class="node">
<title>Node12</title>
<g id="a_Node000012"><a xlink:href="$motor___m3508_8hpp.html" xlink:title=": @history : Version Date Author Note V0.9.0 2023&#45;11&#45;25 Caikunzhen 1.">
<polygon fill="white" stroke="#666666" points="879.5,-162 738.5,-162 738.5,-132 879.5,-132 879.5,-162"/>
<text text-anchor="start" x="746.5" y="-150" font-family="Helvetica,sans-Serif" font-size="10.00">HW&#45;Components/devices</text>
<text text-anchor="middle" x="809" y="-139" font-family="Helvetica,sans-Serif" font-size="10.00">/motor/inc/motor_M3508.hpp</text>
</a>
</g>
</g>
<!-- Node1&#45;&gt;Node12 -->
<g id="edge63_Node000001_Node000012" class="edge">
<title>Node1&#45;&gt;Node12</title>
<g id="a_edge63_Node000001_Node000012"><a xlink:title=" ">
<path fill="none" stroke="#63b8ff" d="M695.86,-193.54C720.45,-183.64 750.3,-171.63 773.16,-162.43"/>
<polygon fill="#63b8ff" stroke="#63b8ff" points="694.65,-190.66 686.68,-197.64 697.27,-197.15 694.65,-190.66"/>
</a>
</g>
</g>
<!-- Node14 -->
<g id="Node000014" class="node">
<title>Node14</title>
<g id="a_Node000014"><a xlink:href="$motor___m8910_8hpp.html" xlink:title=": @history : Version Date Author Note V0.9.0 2023&#45;11&#45;25 Caikunzhen 1.">
<polygon fill="white" stroke="#666666" points="1038.5,-162 897.5,-162 897.5,-132 1038.5,-132 1038.5,-162"/>
<text text-anchor="start" x="905.5" y="-150" font-family="Helvetica,sans-Serif" font-size="10.00">HW&#45;Components/devices</text>
<text text-anchor="middle" x="968" y="-139" font-family="Helvetica,sans-Serif" font-size="10.00">/motor/inc/motor_M8910.hpp</text>
</a>
</g>
</g>
<!-- Node1&#45;&gt;Node14 -->
<g id="edge66_Node000001_Node000014" class="edge">
<title>Node1&#45;&gt;Node14</title>
<g id="a_edge66_Node000001_Node000014"><a xlink:title=" ">
<path fill="none" stroke="#63b8ff" d="M727.12,-196.48C778.89,-186.06 846.57,-172.44 897.01,-162.29"/>
<polygon fill="#63b8ff" stroke="#63b8ff" points="726.78,-193.18 717.66,-198.58 728.16,-200.04 726.78,-193.18"/>
</a>
</g>
</g>
<!-- Node16 -->
<g id="Node000016" class="node">
<title>Node16</title>
<g id="a_Node000016"><a xlink:href="$motor___m_f9025v2_8hpp.html" xlink:title=": @history : Version Date Author Note V0.9.0 2023&#45;11&#45;25 Caikunzhen 1.">
<polygon fill="white" stroke="#666666" points="1213,-162 1057,-162 1057,-132 1213,-132 1213,-162"/>
<text text-anchor="start" x="1065" y="-150" font-family="Helvetica,sans-Serif" font-size="10.00">HW&#45;Components/devices</text>
<text text-anchor="middle" x="1135" y="-139" font-family="Helvetica,sans-Serif" font-size="10.00">/motor/inc/motor_MF9025v2.hpp</text>
</a>
</g>
</g>
<!-- Node1&#45;&gt;Node16 -->
<g id="edge69_Node000001_Node000016" class="edge">
<title>Node1&#45;&gt;Node16</title>
<g id="a_edge69_Node000001_Node000016"><a xlink:title=" ">
<path fill="none" stroke="#63b8ff" d="M727.51,-203.07C807.79,-193.63 936.83,-177.92 1048,-162 1050.88,-161.59 1053.81,-161.16 1056.76,-160.72"/>
<polygon fill="#63b8ff" stroke="#63b8ff" points="727.52,-199.66 717.99,-204.3 728.33,-206.61 727.52,-199.66"/>
</a>
</g>
</g>
<!-- Node18 -->
<g id="Node000018" class="node">
<title>Node18</title>
<g id="a_Node000018"><a xlink:href="$motor__base_8cpp.html" xlink:title=": @history : Version Date Author Note V0.9.0 2023&#45;11&#45;25 Caikunzhen 1.">
<polygon fill="white" stroke="#666666" points="1365,-162 1231,-162 1231,-132 1365,-132 1365,-162"/>
<text text-anchor="start" x="1239" y="-150" font-family="Helvetica,sans-Serif" font-size="10.00">HW&#45;Components/devices</text>
<text text-anchor="middle" x="1298" y="-139" font-family="Helvetica,sans-Serif" font-size="10.00">/motor/src/motor_base.cpp</text>
</a>
</g>
</g>
<!-- Node1&#45;&gt;Node18 -->
<g id="edge72_Node000001_Node000018" class="edge">
<title>Node1&#45;&gt;Node18</title>
<g id="a_edge72_Node000001_Node000018"><a xlink:title=" ">
<path fill="none" stroke="#63b8ff" d="M727.4,-207.57C837.58,-200.74 1045.86,-185.87 1222,-162 1224.79,-161.62 1227.64,-161.21 1230.51,-160.78"/>
<polygon fill="#63b8ff" stroke="#63b8ff" points="727.49,-204.12 717.72,-208.23 727.92,-211.11 727.49,-204.12"/>
</a>
</g>
</g>
<!-- Node3 -->
<g id="Node000003" class="node">
<title>Node3</title>
<g id="a_Node000003"><a xlink:href="$motor_8cpp.html" xlink:title=": @history : Version Date Author Note V0.9.0 yyyy&#45;mm&#45;dd &lt;author&gt; 1.">
<polygon fill="white" stroke="#666666" points="614,-30 488,-30 488,0 614,0 614,-30"/>
<text text-anchor="start" x="496" y="-18" font-family="Helvetica,sans-Serif" font-size="10.00">HW&#45;Components/devices</text>
<text text-anchor="middle" x="551" y="-7" font-family="Helvetica,sans-Serif" font-size="10.00">/motor/src/motor.cpp</text>
</a>
</g>
</g>
<!-- Node2&#45;&gt;Node3 -->
<g id="edge50_Node000002_Node000003" class="edge">
<title>Node2&#45;&gt;Node3</title>
<g id="a_edge50_Node000002_Node000003"><a xlink:title=" ">
<path fill="none" stroke="#63b8ff" d="M551,-54.97C551,-46.55 551,-37.45 551,-30.16"/>
<polygon fill="#63b8ff" stroke="#63b8ff" points="547.5,-54.8 551,-64.8 554.5,-54.8 547.5,-54.8"/>
</a>
</g>
</g>
<!-- Node4&#45;&gt;Node2 -->
<g id="edge52_Node000004_Node000002" class="edge">
<title>Node4&#45;&gt;Node2</title>
<g id="a_edge52_Node000004_Node000002"><a xlink:title=" ">
<path fill="none" stroke="#63b8ff" d="M189.8,-131.79C318.09,-111.82 353.09,-115.71 478,-96 481.19,-95.5 484.45,-94.96 487.74,-94.4"/>
<polygon fill="#63b8ff" stroke="#63b8ff" points="189.51,-128.45 180.17,-133.46 190.6,-135.36 189.51,-128.45"/>
</a>
</g>
</g>
<!-- Node5 -->
<g id="Node000005" class="node">
<title>Node5</title>
<g id="a_Node000005"><a xlink:href="$motor___a1_8cpp.html" xlink:title=": @history : Version Date Author Note V0.9.0 2023&#45;11&#45;25 Caikunzhen 1.">
<polygon fill="white" stroke="#666666" points="126,-96 0,-96 0,-66 126,-66 126,-96"/>
<text text-anchor="start" x="8" y="-84" font-family="Helvetica,sans-Serif" font-size="10.00">HW&#45;Components/devices</text>
<text text-anchor="middle" x="63" y="-73" font-family="Helvetica,sans-Serif" font-size="10.00">/motor/src/motor_A1.cpp</text>
</a>
</g>
</g>
<!-- Node4&#45;&gt;Node5 -->
<g id="edge53_Node000004_Node000005" class="edge">
<title>Node4&#45;&gt;Node5</title>
<g id="a_edge53_Node000004_Node000005"><a xlink:title=" ">
<path fill="none" stroke="#63b8ff" d="M97.39,-123.53C89.85,-114.43 81.38,-104.19 74.73,-96.16"/>
<polygon fill="#63b8ff" stroke="#63b8ff" points="95.16,-125.33 104.24,-130.8 100.56,-120.86 95.16,-125.33"/>
</a>
</g>
</g>
<!-- Node6&#45;&gt;Node2 -->
<g id="edge55_Node000006_Node000002" class="edge">
<title>Node6&#45;&gt;Node2</title>
<g id="a_edge55_Node000006_Node000002"><a xlink:title=" ">
<path fill="none" stroke="#63b8ff" d="M348.63,-129.1C392.39,-118.91 447.51,-106.09 489.17,-96.39"/>
<polygon fill="#63b8ff" stroke="#63b8ff" points="348,-125.88 339.06,-131.56 349.59,-132.7 348,-125.88"/>
</a>
</g>
</g>
<!-- Node7 -->
<g id="Node000007" class="node">
<title>Node7</title>
<g id="a_Node000007"><a xlink:href="$motor___d_m___j4310_8cpp.html" xlink:title=": @history : Version Date Author Note V0.9.0 2023&#45;11&#45;25 Caikunzhen 1.">
<polygon fill="white" stroke="#666666" points="302,-96 144,-96 144,-66 302,-66 302,-96"/>
<text text-anchor="start" x="152" y="-84" font-family="Helvetica,sans-Serif" font-size="10.00">HW&#45;Components/devices</text>
<text text-anchor="middle" x="223" y="-73" font-family="Helvetica,sans-Serif" font-size="10.00">/motor/src/motor_DM_J4310.cpp</text>
</a>
</g>
</g>
<!-- Node6&#45;&gt;Node7 -->
<g id="edge56_Node000006_Node000007" class="edge">
<title>Node6&#45;&gt;Node7</title>
<g id="a_edge56_Node000006_Node000007"><a xlink:title=" ">
<path fill="none" stroke="#63b8ff" d="M257.39,-123.53C249.85,-114.43 241.38,-104.19 234.73,-96.16"/>
<polygon fill="#63b8ff" stroke="#63b8ff" points="255.16,-125.33 264.24,-130.8 260.56,-120.86 255.16,-125.33"/>
</a>
</g>
</g>
<!-- Node8&#45;&gt;Node2 -->
<g id="edge58_Node000008_Node000002" class="edge">
<title>Node8&#45;&gt;Node2</title>
<g id="a_edge58_Node000008_Node000002"><a xlink:title=" ">
<path fill="none" stroke="#63b8ff" d="M480.33,-125.91C495.79,-116.31 513.93,-105.03 527.96,-96.31"/>
<polygon fill="#63b8ff" stroke="#63b8ff" points="478.76,-123.39 472.12,-131.64 482.46,-129.33 478.76,-123.39"/>
</a>
</g>
</g>
<!-- Node9 -->
<g id="Node000009" class="node">
<title>Node9</title>
<g id="a_Node000009"><a xlink:href="$motor___g_m6020_8cpp.html" xlink:title=" ">
<polygon fill="white" stroke="#666666" points="469.5,-96 320.5,-96 320.5,-66 469.5,-66 469.5,-96"/>
<text text-anchor="start" x="328.5" y="-84" font-family="Helvetica,sans-Serif" font-size="10.00">HW&#45;Components/devices</text>
<text text-anchor="middle" x="395" y="-73" font-family="Helvetica,sans-Serif" font-size="10.00">/motor/src/motor_GM6020.cpp</text>
</a>
</g>
</g>
<!-- Node8&#45;&gt;Node9 -->
<g id="edge59_Node000008_Node000009" class="edge">
<title>Node8&#45;&gt;Node9</title>
<g id="a_edge59_Node000008_Node000009"><a xlink:title=" ">
<path fill="none" stroke="#63b8ff" d="M429.39,-123.53C421.85,-114.43 413.38,-104.19 406.73,-96.16"/>
<polygon fill="#63b8ff" stroke="#63b8ff" points="427.16,-125.33 436.24,-130.8 432.56,-120.86 427.16,-125.33"/>
</a>
</g>
</g>
<!-- Node10&#45;&gt;Node2 -->
<g id="edge61_Node000010_Node000002" class="edge">
<title>Node10&#45;&gt;Node2</title>
<g id="a_edge61_Node000010_Node000002"><a xlink:title=" ">
<path fill="none" stroke="#63b8ff" d="M619.17,-126.07C604.3,-116.46 586.8,-105.14 573.25,-96.39"/>
<polygon fill="#63b8ff" stroke="#63b8ff" points="616.73,-129.31 627.03,-131.8 620.53,-123.43 616.73,-129.31"/>
</a>
</g>
</g>
<!-- Node11 -->
<g id="Node000011" class="node">
<title>Node11</title>
<g id="a_Node000011"><a xlink:href="$motor___m2006_8cpp.html" xlink:title=": @history : Version Date Author Note V0.9.0 2023&#45;11&#45;25 Caikunzhen 1.">
<polygon fill="white" stroke="#666666" points="774,-96 632,-96 632,-66 774,-66 774,-96"/>
<text text-anchor="start" x="640" y="-84" font-family="Helvetica,sans-Serif" font-size="10.00">HW&#45;Components/devices</text>
<text text-anchor="middle" x="703" y="-73" font-family="Helvetica,sans-Serif" font-size="10.00">/motor/src/motor_M2006.cpp</text>
</a>
</g>
</g>
<!-- Node10&#45;&gt;Node11 -->
<g id="edge62_Node000010_Node000011" class="edge">
<title>Node10&#45;&gt;Node11</title>
<g id="a_edge62_Node000010_Node000011"><a xlink:title=" ">
<path fill="none" stroke="#63b8ff" d="M668.61,-123.53C676.15,-114.43 684.62,-104.19 691.27,-96.16"/>
<polygon fill="#63b8ff" stroke="#63b8ff" points="665.44,-120.86 661.76,-130.8 670.84,-125.33 665.44,-120.86"/>
</a>
</g>
</g>
<!-- Node12&#45;&gt;Node2 -->
<g id="edge64_Node000012_Node000002" class="edge">
<title>Node12&#45;&gt;Node2</title>
<g id="a_edge64_Node000012_Node000002"><a xlink:title=" ">
<path fill="none" stroke="#63b8ff" d="M740.33,-128.97C699.37,-118.81 647.93,-106.04 609.01,-96.39"/>
<polygon fill="#63b8ff" stroke="#63b8ff" points="739.23,-132.55 749.78,-131.56 740.91,-125.75 739.23,-132.55"/>
</a>
</g>
</g>
<!-- Node13 -->
<g id="Node000013" class="node">
<title>Node13</title>
<g id="a_Node000013"><a xlink:href="$motor___m3508_8cpp.html" xlink:title=": @history : Version Date Author Note V0.9.0 2023&#45;11&#45;25 Caikunzhen 1.">
<polygon fill="white" stroke="#666666" points="934,-96 792,-96 792,-66 934,-66 934,-96"/>
<text text-anchor="start" x="800" y="-84" font-family="Helvetica,sans-Serif" font-size="10.00">HW&#45;Components/devices</text>
<text text-anchor="middle" x="863" y="-73" font-family="Helvetica,sans-Serif" font-size="10.00">/motor/src/motor_M3508.cpp</text>
</a>
</g>
</g>
<!-- Node12&#45;&gt;Node13 -->
<g id="edge65_Node000012_Node000013" class="edge">
<title>Node12&#45;&gt;Node13</title>
<g id="a_edge65_Node000012_Node000013"><a xlink:title=" ">
<path fill="none" stroke="#63b8ff" d="M827.96,-123.53C835.64,-114.43 844.27,-104.19 851.05,-96.16"/>
<polygon fill="#63b8ff" stroke="#63b8ff" points="824.76,-120.9 820.98,-130.8 830.11,-125.41 824.76,-120.9"/>
</a>
</g>
</g>
<!-- Node14&#45;&gt;Node2 -->
<g id="edge67_Node000014_Node000002" class="edge">
<title>Node14&#45;&gt;Node2</title>
<g id="a_edge67_Node000014_Node000002"><a xlink:title=" ">
<path fill="none" stroke="#63b8ff" d="M886.53,-131.66C769.27,-113.68 737.26,-114.83 623,-96 620.11,-95.52 617.16,-95.02 614.18,-94.5"/>
<polygon fill="#63b8ff" stroke="#63b8ff" points="885.97,-135.27 896.39,-133.34 887.04,-128.35 885.97,-135.27"/>
</a>
</g>
</g>
<!-- Node15 -->
<g id="Node000015" class="node">
<title>Node15</title>
<g id="a_Node000015"><a xlink:href="$motor___m8910_8cpp.html" xlink:title=": @history : Version Date Author Note V0.9.0 2023&#45;11&#45;25 Caikunzhen 1.">
<polygon fill="white" stroke="#666666" points="1094,-96 952,-96 952,-66 1094,-66 1094,-96"/>
<text text-anchor="start" x="960" y="-84" font-family="Helvetica,sans-Serif" font-size="10.00">HW&#45;Components/devices</text>
<text text-anchor="middle" x="1023" y="-73" font-family="Helvetica,sans-Serif" font-size="10.00">/motor/src/motor_M8910.cpp</text>
</a>
</g>
</g>
<!-- Node14&#45;&gt;Node15 -->
<g id="edge68_Node000014_Node000015" class="edge">
<title>Node14&#45;&gt;Node15</title>
<g id="a_edge68_Node000014_Node000015"><a xlink:title=" ">
<path fill="none" stroke="#63b8ff" d="M987.31,-123.53C995.13,-114.43 1003.93,-104.19 1010.83,-96.16"/>
<polygon fill="#63b8ff" stroke="#63b8ff" points="984.07,-120.93 980.21,-130.8 989.38,-125.49 984.07,-120.93"/>
</a>
</g>
</g>
<!-- Node16&#45;&gt;Node2 -->
<g id="edge70_Node000016_Node000002" class="edge">
<title>Node16&#45;&gt;Node2</title>
<g id="a_edge70_Node000016_Node000002"><a xlink:title=" ">
<path fill="none" stroke="#63b8ff" d="M1045.97,-131.82C857.97,-109.4 807.27,-121.64 623,-96 620.1,-95.6 617.14,-95.15 614.15,-94.68"/>
<polygon fill="#63b8ff" stroke="#63b8ff" points="1045.44,-135.4 1055.78,-133.13 1046.28,-128.45 1045.44,-135.4"/>
</a>
</g>
</g>
<!-- Node17 -->
<g id="Node000017" class="node">
<title>Node17</title>
<g id="a_Node000017"><a xlink:href="$motor___m_f9025v2_8cpp.html" xlink:title=": @history : Version Date Author Note V0.9.0 2023&#45;11&#45;25 Caikunzhen 1.">
<polygon fill="white" stroke="#666666" points="1269.5,-96 1112.5,-96 1112.5,-66 1269.5,-66 1269.5,-96"/>
<text text-anchor="start" x="1120.5" y="-84" font-family="Helvetica,sans-Serif" font-size="10.00">HW&#45;Components/devices</text>
<text text-anchor="middle" x="1191" y="-73" font-family="Helvetica,sans-Serif" font-size="10.00">/motor/src/motor_MF9025v2.cpp</text>
</a>
</g>
</g>
<!-- Node16&#45;&gt;Node17 -->
<g id="edge71_Node000016_Node000017" class="edge">
<title>Node16&#45;&gt;Node17</title>
<g id="a_edge71_Node000016_Node000017"><a xlink:title=" ">
<path fill="none" stroke="#63b8ff" d="M1154.66,-123.53C1162.63,-114.43 1171.58,-104.19 1178.61,-96.16"/>
<polygon fill="#63b8ff" stroke="#63b8ff" points="1151.38,-120.97 1147.43,-130.8 1156.65,-125.58 1151.38,-120.97"/>
</a>
</g>
</g>
</g>
</svg>
