<?xml version="1.0" encoding="UTF-8" standalone="no"?>
<!DOCTYPE svg PUBLIC "-//W3C//DTD SVG 1.1//EN"
 "http://www.w3.org/Graphics/SVG/1.1/DTD/svg11.dtd">
<!-- Generated by graphviz version 8.0.3 (20230416.2022)
 -->
<!-- Title: hello_world::Bound Pages: 1 -->
<svg width="455pt" height="638pt"
 viewBox="0.00 0.00 455.00 638.00" xmlns="http://www.w3.org/2000/svg" xmlns:xlink="http://www.w3.org/1999/xlink">
<g id="graph0" class="graph" transform="scale(1 1) rotate(0) translate(4 634)">
<title>hello_world::Bound</title>
<!-- Node1 -->
<g id="Node000001" class="node">
<title>Node1</title>
<g id="a_Node000001"><a xlink:title="将输入值限制在一个范围内">
<polygon fill="#999999" stroke="#666666" points="447,-312.5 349,-312.5 349,-293.5 447,-293.5 447,-312.5"/>
<text text-anchor="middle" x="398" y="-300.5" font-family="Helvetica,sans-Serif" font-size="10.00">hello_world::Bound</text>
</a>
</g>
</g>
<!-- Node2 -->
<g id="Node000002" class="node">
<title>Node2</title>
<g id="a_Node000002"><a xlink:href="$classhello__world_1_1devices_1_1servo_1_1_servo.html#af678b6d9c70e3be611755ac1ae233aa5" xlink:title="舵机角度转定时器PWM比较值">
<polygon fill="white" stroke="#666666" points="306.5,-606 176.5,-606 176.5,-576 306.5,-576 306.5,-606"/>
<text text-anchor="start" x="184.5" y="-594" font-family="Helvetica,sans-Serif" font-size="10.00">hello_world::devices</text>
<text text-anchor="middle" x="241.5" y="-583" font-family="Helvetica,sans-Serif" font-size="10.00">::servo::Servo::angle2Cmp</text>
</a>
</g>
</g>
<!-- Node1&#45;&gt;Node2 -->
<g id="edge35_Node000001_Node000002" class="edge">
<title>Node1&#45;&gt;Node2</title>
<g id="a_edge35_Node000001_Node000002"><a xlink:title=" ">
<path fill="none" stroke="#63b8ff" d="M396.45,-323.77C394.04,-372.92 381.13,-497.49 313,-567 309.74,-570.32 306.01,-573.19 301.99,-575.66"/>
<polygon fill="#63b8ff" stroke="#63b8ff" points="399.98,-324.1 396.87,-313.97 392.99,-323.83 399.98,-324.1"/>
</a>
</g>
</g>
<!-- Node5 -->
<g id="Node000005" class="node">
<title>Node5</title>
<g id="a_Node000005"><a xlink:href="$classhello__world_1_1devices_1_1motor_1_1_a1.html#a2033dda3651a1a97182e23fb8ccceae3" xlink:title="将要发给电调的期望输值编码为对应的 CAN 报文">
<polygon fill="white" stroke="#666666" points="293,-558 190,-558 190,-528 293,-528 293,-558"/>
<text text-anchor="start" x="198" y="-546" font-family="Helvetica,sans-Serif" font-size="10.00">hello_world::devices</text>
<text text-anchor="middle" x="241.5" y="-535" font-family="Helvetica,sans-Serif" font-size="10.00">::motor::A1::encode</text>
</a>
</g>
</g>
<!-- Node1&#45;&gt;Node5 -->
<g id="edge38_Node000001_Node000005" class="edge">
<title>Node1&#45;&gt;Node5</title>
<g id="a_edge38_Node000001_Node000005"><a xlink:title=" ">
<path fill="none" stroke="#63b8ff" d="M394.76,-323.66C389.05,-366.22 370.12,-464.28 313,-519 307.4,-524.37 300.55,-528.54 293.35,-531.78"/>
<polygon fill="#63b8ff" stroke="#63b8ff" points="398.35,-324.12 396.08,-313.77 391.4,-323.27 398.35,-324.12"/>
</a>
</g>
</g>
<!-- Node6 -->
<g id="Node000006" class="node">
<title>Node6</title>
<g id="a_Node000006"><a xlink:href="$classhello__world_1_1devices_1_1motor_1_1_d_m___j4310.html#ac97392867193cf052740d0cfc3db7ebc" xlink:title="将要发给电调的期望输值编码为对应的 CAN 报文">
<polygon fill="white" stroke="#666666" points="310,-510 173,-510 173,-480 310,-480 310,-510"/>
<text text-anchor="start" x="181" y="-498" font-family="Helvetica,sans-Serif" font-size="10.00">hello_world::devices</text>
<text text-anchor="middle" x="241.5" y="-487" font-family="Helvetica,sans-Serif" font-size="10.00">::motor::DM_J4310::encode</text>
</a>
</g>
</g>
<!-- Node1&#45;&gt;Node6 -->
<g id="edge39_Node000001_Node000006" class="edge">
<title>Node1&#45;&gt;Node6</title>
<g id="a_edge39_Node000001_Node000006"><a xlink:title=" ">
<path fill="none" stroke="#63b8ff" d="M392.24,-323.35C383.01,-358.47 359.35,-430.54 313,-471 309.2,-474.32 304.92,-477.18 300.4,-479.65"/>
<polygon fill="#63b8ff" stroke="#63b8ff" points="395.81,-324.51 394.84,-313.96 389.02,-322.82 395.81,-324.51"/>
</a>
</g>
</g>
<!-- Node7 -->
<g id="Node000007" class="node">
<title>Node7</title>
<g id="a_Node000007"><a xlink:href="$classhello__world_1_1devices_1_1motor_1_1_g_m6020.html#a5ad5ba687605e93d6723b3e6fa317435" xlink:title="将要发给电调的期望输值编码为对应的 CAN 报文">
<polygon fill="white" stroke="#666666" points="305.5,-462 177.5,-462 177.5,-432 305.5,-432 305.5,-462"/>
<text text-anchor="start" x="185.5" y="-450" font-family="Helvetica,sans-Serif" font-size="10.00">hello_world::devices</text>
<text text-anchor="middle" x="241.5" y="-439" font-family="Helvetica,sans-Serif" font-size="10.00">::motor::GM6020::encode</text>
</a>
</g>
</g>
<!-- Node1&#45;&gt;Node7 -->
<g id="edge40_Node000001_Node000007" class="edge">
<title>Node1&#45;&gt;Node7</title>
<g id="a_edge40_Node000001_Node000007"><a xlink:title=" ">
<path fill="none" stroke="#63b8ff" d="M388.15,-322.66C375.27,-349.13 348.92,-396.02 313,-423 308.66,-426.26 303.84,-429.1 298.83,-431.56"/>
<polygon fill="#63b8ff" stroke="#63b8ff" points="391.61,-324.53 392.69,-313.99 385.27,-321.55 391.61,-324.53"/>
</a>
</g>
</g>
<!-- Node8 -->
<g id="Node000008" class="node">
<title>Node8</title>
<g id="a_Node000008"><a xlink:href="$classhello__world_1_1devices_1_1motor_1_1_m2006.html#aa75d742e86d207339818b124b11af230" xlink:title="将要发给电调的期望输值编码为对应的 CAN 报文">
<polygon fill="white" stroke="#666666" points="301.5,-414 181.5,-414 181.5,-384 301.5,-384 301.5,-414"/>
<text text-anchor="start" x="189.5" y="-402" font-family="Helvetica,sans-Serif" font-size="10.00">hello_world::devices</text>
<text text-anchor="middle" x="241.5" y="-391" font-family="Helvetica,sans-Serif" font-size="10.00">::motor::M2006::encode</text>
</a>
</g>
</g>
<!-- Node1&#45;&gt;Node8 -->
<g id="edge41_Node000001_Node000008" class="edge">
<title>Node1&#45;&gt;Node8</title>
<g id="a_edge41_Node000001_Node000008"><a xlink:title=" ">
<path fill="none" stroke="#63b8ff" d="M380.43,-320.63C364.47,-336.71 339,-360.17 313,-375 307.38,-378.2 301.27,-381.07 295.07,-383.61"/>
<polygon fill="#63b8ff" stroke="#63b8ff" points="382.4,-323.59 386.85,-313.98 377.38,-318.72 382.4,-323.59"/>
</a>
</g>
</g>
<!-- Node9 -->
<g id="Node000009" class="node">
<title>Node9</title>
<g id="a_Node000009"><a xlink:href="$classhello__world_1_1devices_1_1motor_1_1_m3508.html#a6c8af995a05110932f1be95056c65e91" xlink:title="将要发给电调的期望输值编码为对应的 CAN 报文">
<polygon fill="white" stroke="#666666" points="301.5,-366 181.5,-366 181.5,-336 301.5,-336 301.5,-366"/>
<text text-anchor="start" x="189.5" y="-354" font-family="Helvetica,sans-Serif" font-size="10.00">hello_world::devices</text>
<text text-anchor="middle" x="241.5" y="-343" font-family="Helvetica,sans-Serif" font-size="10.00">::motor::M3508::encode</text>
</a>
</g>
</g>
<!-- Node1&#45;&gt;Node9 -->
<g id="edge42_Node000001_Node000009" class="edge">
<title>Node1&#45;&gt;Node9</title>
<g id="a_edge42_Node000001_Node000009"><a xlink:title=" ">
<path fill="none" stroke="#63b8ff" d="M354.66,-316.15C335.32,-322.16 312.27,-329.32 292.12,-335.58"/>
<polygon fill="#63b8ff" stroke="#63b8ff" points="355.48,-319.26 363.99,-312.95 353.4,-312.57 355.48,-319.26"/>
</a>
</g>
</g>
<!-- Node10 -->
<g id="Node000010" class="node">
<title>Node10</title>
<g id="a_Node000010"><a xlink:href="$classhello__world_1_1devices_1_1motor_1_1_m8910.html#a985dd218b3ef8aa045f21dc0cff4a462" xlink:title="将要发给电调的期望输值编码为对应的 CAN 报文">
<polygon fill="white" stroke="#666666" points="301.5,-318 181.5,-318 181.5,-288 301.5,-288 301.5,-318"/>
<text text-anchor="start" x="189.5" y="-306" font-family="Helvetica,sans-Serif" font-size="10.00">hello_world::devices</text>
<text text-anchor="middle" x="241.5" y="-295" font-family="Helvetica,sans-Serif" font-size="10.00">::motor::M8910::encode</text>
</a>
</g>
</g>
<!-- Node1&#45;&gt;Node10 -->
<g id="edge43_Node000001_Node000010" class="edge">
<title>Node1&#45;&gt;Node10</title>
<g id="a_edge43_Node000001_Node000010"><a xlink:title=" ">
<path fill="none" stroke="#63b8ff" d="M337.55,-303C325.87,-303 313.61,-303 301.92,-303"/>
<polygon fill="#63b8ff" stroke="#63b8ff" points="337.54,-306.5 347.54,-303 337.54,-299.5 337.54,-306.5"/>
</a>
</g>
</g>
<!-- Node11 -->
<g id="Node000011" class="node">
<title>Node11</title>
<g id="a_Node000011"><a xlink:href="$classhello__world_1_1devices_1_1motor_1_1_m_f9025v2.html#a809e9f046cde5db0883ab22fa61fa79e" xlink:title="将要发给电调的期望输值编码为对应的 CAN 报文">
<polygon fill="white" stroke="#666666" points="309,-270 174,-270 174,-240 309,-240 309,-270"/>
<text text-anchor="start" x="182" y="-258" font-family="Helvetica,sans-Serif" font-size="10.00">hello_world::devices</text>
<text text-anchor="middle" x="241.5" y="-247" font-family="Helvetica,sans-Serif" font-size="10.00">::motor::MF9025v2::encode</text>
</a>
</g>
</g>
<!-- Node1&#45;&gt;Node11 -->
<g id="edge44_Node000001_Node000011" class="edge">
<title>Node1&#45;&gt;Node11</title>
<g id="a_edge44_Node000001_Node000011"><a xlink:title=" ">
<path fill="none" stroke="#63b8ff" d="M354.66,-289.85C335.32,-283.84 312.27,-276.68 292.12,-270.42"/>
<polygon fill="#63b8ff" stroke="#63b8ff" points="353.4,-293.43 363.99,-293.05 355.48,-286.74 353.4,-293.43"/>
</a>
</g>
</g>
<!-- Node12 -->
<g id="Node000012" class="node">
<title>Node12</title>
<g id="a_Node000012"><a xlink:href="$classhello__world_1_1devices_1_1laser_1_1_laser.html#a71727ea81371581d369751653e0fc5ca" xlink:title="百分比亮度转定时器PWM比较值">
<polygon fill="white" stroke="#666666" points="313,-222 170,-222 170,-192 313,-192 313,-222"/>
<text text-anchor="start" x="178" y="-210" font-family="Helvetica,sans-Serif" font-size="10.00">hello_world::devices</text>
<text text-anchor="middle" x="241.5" y="-199" font-family="Helvetica,sans-Serif" font-size="10.00">::laser::Laser::luminPct2Cmp</text>
</a>
</g>
</g>
<!-- Node1&#45;&gt;Node12 -->
<g id="edge45_Node000001_Node000012" class="edge">
<title>Node1&#45;&gt;Node12</title>
<g id="a_edge45_Node000001_Node000012"><a xlink:title=" ">
<path fill="none" stroke="#63b8ff" d="M380.43,-285.37C364.47,-269.29 339,-245.83 313,-231 307.38,-227.8 301.27,-224.93 295.07,-222.39"/>
<polygon fill="#63b8ff" stroke="#63b8ff" points="377.38,-287.28 386.85,-292.02 382.4,-282.41 377.38,-287.28"/>
</a>
</g>
</g>
<!-- Node15 -->
<g id="Node000015" class="node">
<title>Node15</title>
<g id="a_Node000015"><a xlink:href="$classhello__world_1_1devices_1_1buzzer_1_1_buzzer.html#ab4a10c92796395a9b6c229f0bfec9cdb" xlink:title="播放乐曲">
<polygon fill="white" stroke="#666666" points="298,-174 185,-174 185,-144 298,-144 298,-174"/>
<text text-anchor="start" x="193" y="-162" font-family="Helvetica,sans-Serif" font-size="10.00">hello_world::devices</text>
<text text-anchor="middle" x="241.5" y="-151" font-family="Helvetica,sans-Serif" font-size="10.00">::buzzer::Buzzer::play</text>
</a>
</g>
</g>
<!-- Node1&#45;&gt;Node15 -->
<g id="edge48_Node000001_Node000015" class="edge">
<title>Node1&#45;&gt;Node15</title>
<g id="a_edge48_Node000001_Node000015"><a xlink:title=" ">
<path fill="none" stroke="#63b8ff" d="M388.15,-283.34C375.27,-256.87 348.92,-209.98 313,-183 308.55,-179.66 303.61,-176.77 298.47,-174.26"/>
<polygon fill="#63b8ff" stroke="#63b8ff" points="385.27,-284.45 392.69,-292.01 391.61,-281.47 385.27,-284.45"/>
</a>
</g>
</g>
<!-- Node16 -->
<g id="Node000016" class="node">
<title>Node16</title>
<g id="a_Node000016"><a xlink:href="$classhello__world_1_1devices_1_1motor_1_1_motor.html#ad101045a9eef9a699001fc94631e8395" xlink:title="设定发给电调的期望值">
<polygon fill="white" stroke="#666666" points="301,-126 182,-126 182,-96 301,-96 301,-126"/>
<text text-anchor="start" x="190" y="-114" font-family="Helvetica,sans-Serif" font-size="10.00">hello_world::devices</text>
<text text-anchor="middle" x="241.5" y="-103" font-family="Helvetica,sans-Serif" font-size="10.00">::motor::Motor::setInput</text>
</a>
</g>
</g>
<!-- Node1&#45;&gt;Node16 -->
<g id="edge49_Node000001_Node000016" class="edge">
<title>Node1&#45;&gt;Node16</title>
<g id="a_edge49_Node000001_Node000016"><a xlink:title=" ">
<path fill="none" stroke="#63b8ff" d="M392.24,-282.65C383.01,-247.53 359.35,-175.46 313,-135 309.2,-131.68 304.92,-128.82 300.4,-126.35"/>
<polygon fill="#63b8ff" stroke="#63b8ff" points="389.02,-283.18 394.84,-292.04 395.81,-281.49 389.02,-283.18"/>
</a>
</g>
</g>
<!-- Node17 -->
<g id="Node000017" class="node">
<title>Node17</title>
<g id="a_Node000017"><a xlink:href="$classhello__world_1_1devices_1_1motor_1_1_d_m___j4310.html#ae15373ce02962c1a287d7e813413869b" xlink:title="设定发给电调的期望值">
<polygon fill="white" stroke="#666666" points="311.5,-78 171.5,-78 171.5,-48 311.5,-48 311.5,-78"/>
<text text-anchor="start" x="179.5" y="-66" font-family="Helvetica,sans-Serif" font-size="10.00">hello_world::devices</text>
<text text-anchor="middle" x="241.5" y="-55" font-family="Helvetica,sans-Serif" font-size="10.00">::motor::DM_J4310::setInput</text>
</a>
</g>
</g>
<!-- Node1&#45;&gt;Node17 -->
<g id="edge50_Node000001_Node000017" class="edge">
<title>Node1&#45;&gt;Node17</title>
<g id="a_edge50_Node000001_Node000017"><a xlink:title=" ">
<path fill="none" stroke="#63b8ff" d="M394.76,-282.34C389.05,-239.78 370.12,-141.72 313,-87 309.55,-83.69 305.62,-80.84 301.42,-78.37"/>
<polygon fill="#63b8ff" stroke="#63b8ff" points="391.4,-282.73 396.08,-292.23 398.35,-281.88 391.4,-282.73"/>
</a>
</g>
</g>
<!-- Node18 -->
<g id="Node000018" class="node">
<title>Node18</title>
<g id="a_Node000018"><a xlink:href="$classhello__world_1_1devices_1_1motor_1_1_g_m6020.html#aa3824723dba2a9cd0d833fc02a7f49ff" xlink:title="设定发给电调的期望报文原始值">
<polygon fill="white" stroke="#666666" points="307,-30 176,-30 176,0 307,0 307,-30"/>
<text text-anchor="start" x="184" y="-18" font-family="Helvetica,sans-Serif" font-size="10.00">hello_world::devices</text>
<text text-anchor="middle" x="241.5" y="-7" font-family="Helvetica,sans-Serif" font-size="10.00">::motor::GM6020::setInput</text>
</a>
</g>
</g>
<!-- Node1&#45;&gt;Node18 -->
<g id="edge51_Node000001_Node000018" class="edge">
<title>Node1&#45;&gt;Node18</title>
<g id="a_edge51_Node000001_Node000018"><a xlink:title=" ">
<path fill="none" stroke="#63b8ff" d="M396.45,-282.23C394.04,-233.08 381.13,-108.51 313,-39 309.74,-35.68 306.01,-32.81 301.99,-30.34"/>
<polygon fill="#63b8ff" stroke="#63b8ff" points="392.99,-282.17 396.87,-292.03 399.98,-281.9 392.99,-282.17"/>
</a>
</g>
</g>
<!-- Node3 -->
<g id="Node000003" class="node">
<title>Node3</title>
<g id="a_Node000003"><a xlink:href="$classhello__world_1_1devices_1_1servo_1_1_servo.html#a538666221be8aebbd757061a57203e56" xlink:title="舵机初始化">
<polygon fill="white" stroke="#666666" points="119.5,-630 14.5,-630 14.5,-600 119.5,-600 119.5,-630"/>
<text text-anchor="start" x="22.5" y="-618" font-family="Helvetica,sans-Serif" font-size="10.00">hello_world::devices</text>
<text text-anchor="middle" x="67" y="-607" font-family="Helvetica,sans-Serif" font-size="10.00">::servo::Servo::Servo</text>
</a>
</g>
</g>
<!-- Node2&#45;&gt;Node3 -->
<g id="edge36_Node000002_Node000003" class="edge">
<title>Node2&#45;&gt;Node3</title>
<g id="a_edge36_Node000002_Node000003"><a xlink:title=" ">
<path fill="none" stroke="#63b8ff" d="M165.69,-601.41C150.25,-603.56 134.32,-605.77 119.91,-607.78"/>
<polygon fill="#63b8ff" stroke="#63b8ff" points="165.85,-604.78 175.27,-599.94 164.88,-597.85 165.85,-604.78"/>
</a>
</g>
</g>
<!-- Node4 -->
<g id="Node000004" class="node">
<title>Node4</title>
<g id="a_Node000004"><a xlink:href="$classhello__world_1_1devices_1_1servo_1_1_servo.html#a22fff12088bc63dc21cace008a5e1b35" xlink:title="设定舵机角度">
<polygon fill="white" stroke="#666666" points="126.5,-582 7.5,-582 7.5,-552 126.5,-552 126.5,-582"/>
<text text-anchor="start" x="15.5" y="-570" font-family="Helvetica,sans-Serif" font-size="10.00">hello_world::devices</text>
<text text-anchor="middle" x="67" y="-559" font-family="Helvetica,sans-Serif" font-size="10.00">::servo::Servo::setAngle</text>
</a>
</g>
</g>
<!-- Node2&#45;&gt;Node4 -->
<g id="edge37_Node000002_Node000004" class="edge">
<title>Node2&#45;&gt;Node4</title>
<g id="a_edge37_Node000002_Node000004"><a xlink:title=" ">
<path fill="none" stroke="#63b8ff" d="M165.51,-580.57C152.58,-578.77 139.3,-576.92 126.87,-575.19"/>
<polygon fill="#63b8ff" stroke="#63b8ff" points="164.88,-584.15 175.27,-582.06 165.85,-577.22 164.88,-584.15"/>
</a>
</g>
</g>
<!-- Node13 -->
<g id="Node000013" class="node">
<title>Node13</title>
<g id="a_Node000013"><a xlink:href="$classhello__world_1_1devices_1_1laser_1_1_laser.html#ade6858f65e516d3f2d99e140e27eeb21" xlink:title="红点激光器初始化">
<polygon fill="white" stroke="#666666" points="119,-246 15,-246 15,-216 119,-216 119,-246"/>
<text text-anchor="start" x="23" y="-234" font-family="Helvetica,sans-Serif" font-size="10.00">hello_world::devices</text>
<text text-anchor="middle" x="67" y="-223" font-family="Helvetica,sans-Serif" font-size="10.00">::laser::Laser::Laser</text>
</a>
</g>
</g>
<!-- Node12&#45;&gt;Node13 -->
<g id="edge46_Node000012_Node000013" class="edge">
<title>Node12&#45;&gt;Node13</title>
<g id="a_edge46_Node000012_Node000013"><a xlink:title=" ">
<path fill="none" stroke="#63b8ff" d="M159.04,-218.33C145.5,-220.22 131.8,-222.12 119.28,-223.87"/>
<polygon fill="#63b8ff" stroke="#63b8ff" points="159.42,-221.68 168.84,-216.83 158.45,-214.74 159.42,-221.68"/>
</a>
</g>
</g>
<!-- Node14 -->
<g id="Node000014" class="node">
<title>Node14</title>
<g id="a_Node000014"><a xlink:href="$classhello__world_1_1devices_1_1laser_1_1_laser.html#ae18c0d286f4c46619adf603ef47ecdb5" xlink:title="设置红点激光器百分比亮度">
<polygon fill="white" stroke="#666666" points="134,-198 0,-198 0,-168 134,-168 134,-198"/>
<text text-anchor="start" x="8" y="-186" font-family="Helvetica,sans-Serif" font-size="10.00">hello_world::devices</text>
<text text-anchor="middle" x="67" y="-175" font-family="Helvetica,sans-Serif" font-size="10.00">::laser::Laser::setLuminPct</text>
</a>
</g>
</g>
<!-- Node12&#45;&gt;Node14 -->
<g id="edge47_Node000012_Node000014" class="edge">
<title>Node12&#45;&gt;Node14</title>
<g id="a_edge47_Node000012_Node000014"><a xlink:title=" ">
<path fill="none" stroke="#63b8ff" d="M159.04,-195.67C150.78,-194.52 142.46,-193.36 134.38,-192.24"/>
<polygon fill="#63b8ff" stroke="#63b8ff" points="158.45,-199.26 168.84,-197.17 159.42,-192.32 158.45,-199.26"/>
</a>
</g>
</g>
</g>
</svg>
