<?xml version="1.0" encoding="UTF-8" standalone="no"?>
<!DOCTYPE svg PUBLIC "-//W3C//DTD SVG 1.1//EN"
 "http://www.w3.org/Graphics/SVG/1.1/DTD/svg11.dtd">
<!-- Generated by graphviz version 8.0.3 (20230416.2022)
 -->
<!-- Title: hello_world::PeriodDataSub Pages: 1 -->
<svg width="1024pt" height="108pt"
 viewBox="0.00 0.00 1024.00 108.00" xmlns="http://www.w3.org/2000/svg" xmlns:xlink="http://www.w3.org/1999/xlink">
<g id="graph0" class="graph" transform="scale(1 1) rotate(0) translate(4 104)">
<title>hello_world::PeriodDataSub</title>
<!-- Node1 -->
<g id="Node000001" class="node">
<title>Node1</title>
<g id="a_Node000001"><a xlink:title="处理角度越过0值的情况，以半周期为基准">
<polygon fill="#999999" stroke="#666666" points="1016,-59 880,-59 880,-40 1016,-40 1016,-59"/>
<text text-anchor="middle" x="948" y="-47" font-family="Helvetica,sans-Serif" font-size="10.00">hello_world::PeriodDataSub</text>
</a>
</g>
</g>
<!-- Node2 -->
<g id="Node000002" class="node">
<title>Node2</title>
<g id="a_Node000002"><a xlink:href="$namespacehello__world.html#a7c9ce795c80c4bc674e5470984f99105" xlink:title=" ">
<polygon fill="white" stroke="#666666" points="844,-88.5 719,-88.5 719,-58.5 844,-58.5 844,-88.5"/>
<text text-anchor="start" x="727" y="-76.5" font-family="Helvetica,sans-Serif" font-size="10.00">hello_world::HandleAngle</text>
<text text-anchor="middle" x="781.5" y="-65.5" font-family="Helvetica,sans-Serif" font-size="10.00">Cross0Deg</text>
</a>
</g>
</g>
<!-- Node1&#45;&gt;Node2 -->
<g id="edge19_Node000001_Node000002" class="edge">
<title>Node1&#45;&gt;Node2</title>
<g id="a_edge19_Node000001_Node000002"><a xlink:title=" ">
<path fill="none" stroke="#63b8ff" d="M868.91,-60.89C860.71,-62.09 852.46,-63.29 844.49,-64.46"/>
<polygon fill="#63b8ff" stroke="#63b8ff" points="869.23,-64.24 878.62,-59.33 868.22,-57.31 869.23,-64.24"/>
</a>
</g>
</g>
<!-- Node8 -->
<g id="Node000008" class="node">
<title>Node8</title>
<g id="a_Node000008"><a xlink:href="$namespacehello__world.html#a7640febc082ad62910c63a8feac1c002" xlink:title=" ">
<polygon fill="white" stroke="#666666" points="844,-40.5 719,-40.5 719,-10.5 844,-10.5 844,-40.5"/>
<text text-anchor="start" x="727" y="-28.5" font-family="Helvetica,sans-Serif" font-size="10.00">hello_world::HandleAngle</text>
<text text-anchor="middle" x="781.5" y="-17.5" font-family="Helvetica,sans-Serif" font-size="10.00">Cross0Rad</text>
</a>
</g>
</g>
<!-- Node1&#45;&gt;Node8 -->
<g id="edge26_Node000001_Node000008" class="edge">
<title>Node1&#45;&gt;Node8</title>
<g id="a_edge26_Node000001_Node000008"><a xlink:title=" ">
<path fill="none" stroke="#63b8ff" d="M868.91,-38.11C860.71,-36.91 852.46,-35.71 844.49,-34.54"/>
<polygon fill="#63b8ff" stroke="#63b8ff" points="868.22,-41.69 878.62,-39.67 869.23,-34.76 868.22,-41.69"/>
</a>
</g>
</g>
<!-- Node3 -->
<g id="Node000003" class="node">
<title>Node3</title>
<g id="a_Node000003"><a xlink:href="$namespacehello__world_1_1algorithms_1_1controller_1_1pid.html#a54cdae6f66cea881673bd9e6b366324c" xlink:title="处理角度跨越 0 度的情况">
<polygon fill="white" stroke="#666666" points="683,-64.5 530,-64.5 530,-34.5 683,-34.5 683,-64.5"/>
<text text-anchor="start" x="538" y="-52.5" font-family="Helvetica,sans-Serif" font-size="10.00">hello_world::algorithms</text>
<text text-anchor="middle" x="606.5" y="-41.5" font-family="Helvetica,sans-Serif" font-size="10.00">::controller::pid::HandleAcross0</text>
</a>
</g>
</g>
<!-- Node2&#45;&gt;Node3 -->
<g id="edge20_Node000002_Node000003" class="edge">
<title>Node2&#45;&gt;Node3</title>
<g id="a_edge20_Node000002_Node000003"><a xlink:title=" ">
<path fill="none" stroke="#63b8ff" d="M707.65,-63.39C699.58,-62.27 691.34,-61.13 683.23,-60.01"/>
<polygon fill="#63b8ff" stroke="#63b8ff" points="707.15,-67 717.53,-64.9 708.11,-60.06 707.15,-67"/>
</a>
</g>
</g>
<!-- Node4 -->
<g id="Node000004" class="node">
<title>Node4</title>
<g id="a_Node000004"><a xlink:href="$classhello__world_1_1algorithms_1_1controller_1_1pid_1_1_basic_pid.html#a2b8667e517f1999ec3fecffe9e6bd33d" xlink:title="PID 控制器的计算函数">
<polygon fill="white" stroke="#666666" points="494,-64.5 344,-64.5 344,-34.5 494,-34.5 494,-64.5"/>
<text text-anchor="start" x="352" y="-52.5" font-family="Helvetica,sans-Serif" font-size="10.00">hello_world::algorithms</text>
<text text-anchor="middle" x="419" y="-41.5" font-family="Helvetica,sans-Serif" font-size="10.00">::controller::pid::BasicPid::calc</text>
</a>
</g>
</g>
<!-- Node3&#45;&gt;Node4 -->
<g id="edge21_Node000003_Node000004" class="edge">
<title>Node3&#45;&gt;Node4</title>
<g id="a_edge21_Node000003_Node000004"><a xlink:title=" ">
<path fill="none" stroke="#63b8ff" d="M518.55,-49.5C510.47,-49.5 502.32,-49.5 494.37,-49.5"/>
<polygon fill="#63b8ff" stroke="#63b8ff" points="518.51,-53 528.51,-49.5 518.51,-46 518.51,-53"/>
</a>
</g>
</g>
<!-- Node5 -->
<g id="Node000005" class="node">
<title>Node5</title>
<g id="a_Node000005"><a xlink:href="$classhello__world_1_1algorithms_1_1controller_1_1pid_1_1_multi_nodes_pid.html#accc1fd43233ab6d228f7111eab364c51" xlink:title="计算级联 PID 控制器的输出">
<polygon fill="white" stroke="#666666" points="308,-100 172,-100 172,-59 308,-59 308,-100"/>
<text text-anchor="start" x="180" y="-88" font-family="Helvetica,sans-Serif" font-size="10.00">hello_world::algorithms</text>
<text text-anchor="start" x="180" y="-77" font-family="Helvetica,sans-Serif" font-size="10.00">::controller::pid::MultiNodes</text>
<text text-anchor="middle" x="240" y="-66" font-family="Helvetica,sans-Serif" font-size="10.00">Pid::cascade_calc</text>
</a>
</g>
</g>
<!-- Node4&#45;&gt;Node5 -->
<g id="edge22_Node000004_Node000005" class="edge">
<title>Node4&#45;&gt;Node5</title>
<g id="a_edge22_Node000004_Node000005"><a xlink:title=" ">
<path fill="none" stroke="#63b8ff" d="M332.91,-63.92C324.66,-65.32 316.38,-66.72 308.34,-68.09"/>
<polygon fill="#63b8ff" stroke="#63b8ff" points="333.43,-67.21 342.71,-62.09 332.26,-60.31 333.43,-67.21"/>
</a>
</g>
</g>
<!-- Node7 -->
<g id="Node000007" class="node">
<title>Node7</title>
<g id="a_Node000007"><a xlink:href="$classhello__world_1_1algorithms_1_1controller_1_1pid_1_1_multi_nodes_pid.html#a180ce707d30cae5f45ec5820d1b2c50c" xlink:title="计算并行 PID 控制器的输出">
<polygon fill="white" stroke="#666666" points="308,-41 172,-41 172,0 308,0 308,-41"/>
<text text-anchor="start" x="180" y="-29" font-family="Helvetica,sans-Serif" font-size="10.00">hello_world::algorithms</text>
<text text-anchor="start" x="180" y="-18" font-family="Helvetica,sans-Serif" font-size="10.00">::controller::pid::MultiNodes</text>
<text text-anchor="middle" x="240" y="-7" font-family="Helvetica,sans-Serif" font-size="10.00">Pid::parallel_calc</text>
</a>
</g>
</g>
<!-- Node4&#45;&gt;Node7 -->
<g id="edge24_Node000004_Node000007" class="edge">
<title>Node4&#45;&gt;Node7</title>
<g id="a_edge24_Node000004_Node000007"><a xlink:title=" ">
<path fill="none" stroke="#63b8ff" d="M332.91,-35.56C324.66,-34.21 316.38,-32.85 308.34,-31.53"/>
<polygon fill="#63b8ff" stroke="#63b8ff" points="332.27,-39.16 342.71,-37.33 333.4,-32.26 332.27,-39.16"/>
</a>
</g>
</g>
<!-- Node6 -->
<g id="Node000006" class="node">
<title>Node6</title>
<g id="a_Node000006"><a xlink:href="$classhello__world_1_1algorithms_1_1controller_1_1pid_1_1_multi_nodes_pid.html#ae10478e0d731be3f6e6d0c479964d448" xlink:title="计算 PID 控制器的输出">
<polygon fill="white" stroke="#666666" points="136,-70 0,-70 0,-29 136,-29 136,-70"/>
<text text-anchor="start" x="8" y="-58" font-family="Helvetica,sans-Serif" font-size="10.00">hello_world::algorithms</text>
<text text-anchor="start" x="8" y="-47" font-family="Helvetica,sans-Serif" font-size="10.00">::controller::pid::MultiNodes</text>
<text text-anchor="middle" x="68" y="-36" font-family="Helvetica,sans-Serif" font-size="10.00">Pid::calc</text>
</a>
</g>
</g>
<!-- Node5&#45;&gt;Node6 -->
<g id="edge23_Node000005_Node000006" class="edge">
<title>Node5&#45;&gt;Node6</title>
<g id="a_edge23_Node000005_Node000006"><a xlink:title=" ">
<path fill="none" stroke="#63b8ff" d="M161.02,-65.74C152.75,-64.28 144.39,-62.8 136.26,-61.37"/>
<polygon fill="#63b8ff" stroke="#63b8ff" points="160.36,-69.35 170.81,-67.64 161.57,-62.46 160.36,-69.35"/>
</a>
</g>
</g>
<!-- Node7&#45;&gt;Node6 -->
<g id="edge25_Node000007_Node000006" class="edge">
<title>Node7&#45;&gt;Node6</title>
<g id="a_edge25_Node000007_Node000006"><a xlink:title=" ">
<path fill="none" stroke="#63b8ff" d="M161.02,-33.8C152.75,-35.21 144.39,-36.64 136.26,-38.03"/>
<polygon fill="#63b8ff" stroke="#63b8ff" points="161.54,-37.09 170.81,-31.96 160.37,-30.19 161.54,-37.09"/>
</a>
</g>
</g>
<!-- Node8&#45;&gt;Node3 -->
<g id="edge27_Node000008_Node000003" class="edge">
<title>Node8&#45;&gt;Node3</title>
<g id="a_edge27_Node000008_Node000003"><a xlink:title=" ">
<path fill="none" stroke="#63b8ff" d="M707.65,-35.61C699.58,-36.73 691.34,-37.87 683.23,-38.99"/>
<polygon fill="#63b8ff" stroke="#63b8ff" points="708.11,-38.94 717.53,-34.1 707.15,-32 708.11,-38.94"/>
</a>
</g>
</g>
</g>
</svg>
