<?xml version="1.0" encoding="UTF-8" standalone="no"?>
<!DOCTYPE svg PUBLIC "-//W3C//DTD SVG 1.1//EN"
 "http://www.w3.org/Graphics/SVG/1.1/DTD/svg11.dtd">
<!-- Generated by graphviz version 8.0.3 (20230416.2022)
 -->
<!-- Title: hello_world::dsp::tick::GetTickUs Pages: 1 -->
<svg width="790pt" height="289pt"
 viewBox="0.00 0.00 790.00 288.50" xmlns="http://www.w3.org/2000/svg" xmlns:xlink="http://www.w3.org/1999/xlink">
<g id="graph0" class="graph" transform="scale(1 1) rotate(0) translate(4 284.5)">
<title>hello_world::dsp::tick::GetTickUs</title>
<!-- Node1 -->
<g id="Node000001" class="node">
<title>Node1</title>
<g id="a_Node000001"><a xlink:title=" ">
<polygon fill="#999999" stroke="#666666" points="782,-138 674,-138 674,-108 782,-108 782,-138"/>
<text text-anchor="start" x="682" y="-126" font-family="Helvetica,sans-Serif" font-size="10.00">hello_world::dsp::tick</text>
<text text-anchor="middle" x="728" y="-115" font-family="Helvetica,sans-Serif" font-size="10.00">::GetTickUs</text>
</a>
</g>
</g>
<!-- Node2 -->
<g id="Node000002" class="node">
<title>Node2</title>
<g id="a_Node000002"><a xlink:href="$namespacehello__world_1_1dsp_1_1tick.html#a97910b07255da1979f8ceafd8c6d2ea5" xlink:title=" ">
<polygon fill="white" stroke="#666666" points="638,-138 530,-138 530,-108 638,-108 638,-138"/>
<text text-anchor="start" x="538" y="-126" font-family="Helvetica,sans-Serif" font-size="10.00">hello_world::dsp::tick</text>
<text text-anchor="middle" x="584" y="-115" font-family="Helvetica,sans-Serif" font-size="10.00">::GetTickMs</text>
</a>
</g>
</g>
<!-- Node1&#45;&gt;Node2 -->
<g id="edge21_Node000001_Node000002" class="edge">
<title>Node1&#45;&gt;Node2</title>
<g id="a_edge21_Node000001_Node000002"><a xlink:title=" ">
<path fill="none" stroke="#63b8ff" d="M662.92,-123C654.63,-123 646.2,-123 638.11,-123"/>
<polygon fill="#63b8ff" stroke="#63b8ff" points="662.72,-126.5 672.72,-123 662.72,-119.5 662.72,-126.5"/>
</a>
</g>
</g>
<!-- Node3 -->
<g id="Node000003" class="node">
<title>Node3</title>
<g id="a_Node000003"><a xlink:href="$classhello__world_1_1algorithms_1_1controller_1_1pid_1_1_basic_pid.html#a2b8667e517f1999ec3fecffe9e6bd33d" xlink:title="PID 控制器的计算函数">
<polygon fill="white" stroke="#666666" points="494,-246 344,-246 344,-216 494,-216 494,-246"/>
<text text-anchor="start" x="352" y="-234" font-family="Helvetica,sans-Serif" font-size="10.00">hello_world::algorithms</text>
<text text-anchor="middle" x="419" y="-223" font-family="Helvetica,sans-Serif" font-size="10.00">::controller::pid::BasicPid::calc</text>
</a>
</g>
</g>
<!-- Node2&#45;&gt;Node3 -->
<g id="edge22_Node000002_Node000003" class="edge">
<title>Node2&#45;&gt;Node3</title>
<g id="a_edge22_Node000002_Node000003"><a xlink:title=" ">
<path fill="none" stroke="#63b8ff" d="M563.05,-146.44C546.27,-164.87 520.78,-190.01 494,-206 487.95,-209.61 481.3,-212.79 474.55,-215.56"/>
<polygon fill="#63b8ff" stroke="#63b8ff" points="565.3,-149.05 569.34,-139.25 560.08,-144.39 565.3,-149.05"/>
</a>
</g>
</g>
<!-- Node7 -->
<g id="Node000007" class="node">
<title>Node7</title>
<g id="a_Node000007"><a xlink:href="$classhello__world_1_1devices_1_1referee_1_1_rx_package.html#a69171902885fbe16d886685130c0b9fb" xlink:title=" ">
<polygon fill="white" stroke="#666666" points="473,-197.5 365,-197.5 365,-156.5 473,-156.5 473,-197.5"/>
<text text-anchor="start" x="373" y="-185.5" font-family="Helvetica,sans-Serif" font-size="10.00">hello_world::devices</text>
<text text-anchor="start" x="373" y="-174.5" font-family="Helvetica,sans-Serif" font-size="10.00">::referee::RxPackage</text>
<text text-anchor="middle" x="419" y="-163.5" font-family="Helvetica,sans-Serif" font-size="10.00">::decode</text>
</a>
</g>
</g>
<!-- Node2&#45;&gt;Node7 -->
<g id="edge27_Node000002_Node000007" class="edge">
<title>Node2&#45;&gt;Node7</title>
<g id="a_edge27_Node000002_Node000007"><a xlink:title=" ">
<path fill="none" stroke="#63b8ff" d="M525.89,-141.92C508.81,-147.58 490.15,-153.76 473.32,-159.34"/>
<polygon fill="#63b8ff" stroke="#63b8ff" points="526.9,-144.94 535.29,-138.47 524.7,-138.3 526.9,-144.94"/>
</a>
</g>
</g>
<!-- Node8 -->
<g id="Node000008" class="node">
<title>Node8</title>
<g id="a_Node000008"><a xlink:href="$namespacehello__world_1_1dsp_1_1tick.html#a3bb6f5ee2096e411df77150fbac949a5" xlink:title=" ">
<polygon fill="white" stroke="#666666" points="473,-138 365,-138 365,-108 473,-108 473,-138"/>
<text text-anchor="start" x="373" y="-126" font-family="Helvetica,sans-Serif" font-size="10.00">hello_world::dsp::tick</text>
<text text-anchor="middle" x="419" y="-115" font-family="Helvetica,sans-Serif" font-size="10.00">::GetTickS</text>
</a>
</g>
</g>
<!-- Node2&#45;&gt;Node8 -->
<g id="edge28_Node000002_Node000008" class="edge">
<title>Node2&#45;&gt;Node8</title>
<g id="a_edge28_Node000002_Node000008"><a xlink:title=" ">
<path fill="none" stroke="#63b8ff" d="M518.87,-123C503.84,-123 487.99,-123 473.49,-123"/>
<polygon fill="#63b8ff" stroke="#63b8ff" points="518.63,-126.5 528.63,-123 518.63,-119.5 518.63,-126.5"/>
</a>
</g>
</g>
<!-- Node9 -->
<g id="Node000009" class="node">
<title>Node9</title>
<g id="a_Node000009"><a xlink:href="$classhello__world_1_1devices_1_1referee_1_1_rx_package_info.html#a4d47f980c5f11bbe7bc5bf5d3cd448a4" xlink:title=" ">
<polygon fill="white" stroke="#666666" points="480.5,-89.5 357.5,-89.5 357.5,-48.5 480.5,-48.5 480.5,-89.5"/>
<text text-anchor="start" x="365.5" y="-77.5" font-family="Helvetica,sans-Serif" font-size="10.00">hello_world::devices</text>
<text text-anchor="start" x="365.5" y="-66.5" font-family="Helvetica,sans-Serif" font-size="10.00">::referee::RxPackageInfo</text>
<text text-anchor="middle" x="419" y="-55.5" font-family="Helvetica,sans-Serif" font-size="10.00">::isUpdated</text>
</a>
</g>
</g>
<!-- Node2&#45;&gt;Node9 -->
<g id="edge29_Node000002_Node000009" class="edge">
<title>Node2&#45;&gt;Node9</title>
<g id="a_edge29_Node000002_Node000009"><a xlink:title=" ">
<path fill="none" stroke="#63b8ff" d="M525.88,-104.08C511.27,-99.24 495.5,-94.01 480.72,-89.11"/>
<polygon fill="#63b8ff" stroke="#63b8ff" points="524.7,-107.7 535.29,-107.53 526.9,-101.06 524.7,-107.7"/>
</a>
</g>
</g>
<!-- Node10 -->
<g id="Node000010" class="node">
<title>Node10</title>
<g id="a_Node000010"><a xlink:href="$classhello__world_1_1devices_1_1buzzer_1_1_buzzer.html#ab4a10c92796395a9b6c229f0bfec9cdb" xlink:title="播放乐曲">
<polygon fill="white" stroke="#666666" points="475.5,-30 362.5,-30 362.5,0 475.5,0 475.5,-30"/>
<text text-anchor="start" x="370.5" y="-18" font-family="Helvetica,sans-Serif" font-size="10.00">hello_world::devices</text>
<text text-anchor="middle" x="419" y="-7" font-family="Helvetica,sans-Serif" font-size="10.00">::buzzer::Buzzer::play</text>
</a>
</g>
</g>
<!-- Node2&#45;&gt;Node10 -->
<g id="edge30_Node000002_Node000010" class="edge">
<title>Node2&#45;&gt;Node10</title>
<g id="a_edge30_Node000002_Node000010"><a xlink:title=" ">
<path fill="none" stroke="#63b8ff" d="M563.68,-99.76C546.97,-81 521.26,-55.16 494,-39 488.31,-35.63 482.08,-32.66 475.74,-30.08"/>
<polygon fill="#63b8ff" stroke="#63b8ff" points="561.49,-101.58 570.7,-106.82 566.77,-96.98 561.49,-101.58"/>
</a>
</g>
</g>
<!-- Node4 -->
<g id="Node000004" class="node">
<title>Node4</title>
<g id="a_Node000004"><a xlink:href="$classhello__world_1_1algorithms_1_1controller_1_1pid_1_1_multi_nodes_pid.html#accc1fd43233ab6d228f7111eab364c51" xlink:title="计算级联 PID 控制器的输出">
<polygon fill="white" stroke="#666666" points="308,-280.5 172,-280.5 172,-239.5 308,-239.5 308,-280.5"/>
<text text-anchor="start" x="180" y="-268.5" font-family="Helvetica,sans-Serif" font-size="10.00">hello_world::algorithms</text>
<text text-anchor="start" x="180" y="-257.5" font-family="Helvetica,sans-Serif" font-size="10.00">::controller::pid::MultiNodes</text>
<text text-anchor="middle" x="240" y="-246.5" font-family="Helvetica,sans-Serif" font-size="10.00">Pid::cascade_calc</text>
</a>
</g>
</g>
<!-- Node3&#45;&gt;Node4 -->
<g id="edge23_Node000003_Node000004" class="edge">
<title>Node3&#45;&gt;Node4</title>
<g id="a_edge23_Node000003_Node000004"><a xlink:title=" ">
<path fill="none" stroke="#63b8ff" d="M332.91,-244.94C324.66,-246.29 316.38,-247.65 308.34,-248.97"/>
<polygon fill="#63b8ff" stroke="#63b8ff" points="333.4,-248.24 342.71,-243.17 332.27,-241.34 333.4,-248.24"/>
</a>
</g>
</g>
<!-- Node6 -->
<g id="Node000006" class="node">
<title>Node6</title>
<g id="a_Node000006"><a xlink:href="$classhello__world_1_1algorithms_1_1controller_1_1pid_1_1_multi_nodes_pid.html#a180ce707d30cae5f45ec5820d1b2c50c" xlink:title="计算并行 PID 控制器的输出">
<polygon fill="white" stroke="#666666" points="308,-221.5 172,-221.5 172,-180.5 308,-180.5 308,-221.5"/>
<text text-anchor="start" x="180" y="-209.5" font-family="Helvetica,sans-Serif" font-size="10.00">hello_world::algorithms</text>
<text text-anchor="start" x="180" y="-198.5" font-family="Helvetica,sans-Serif" font-size="10.00">::controller::pid::MultiNodes</text>
<text text-anchor="middle" x="240" y="-187.5" font-family="Helvetica,sans-Serif" font-size="10.00">Pid::parallel_calc</text>
</a>
</g>
</g>
<!-- Node3&#45;&gt;Node6 -->
<g id="edge25_Node000003_Node000006" class="edge">
<title>Node3&#45;&gt;Node6</title>
<g id="a_edge25_Node000003_Node000006"><a xlink:title=" ">
<path fill="none" stroke="#63b8ff" d="M332.91,-216.58C324.66,-215.18 316.38,-213.78 308.34,-212.41"/>
<polygon fill="#63b8ff" stroke="#63b8ff" points="332.26,-220.19 342.71,-218.41 333.43,-213.29 332.26,-220.19"/>
</a>
</g>
</g>
<!-- Node5 -->
<g id="Node000005" class="node">
<title>Node5</title>
<g id="a_Node000005"><a xlink:href="$classhello__world_1_1algorithms_1_1controller_1_1pid_1_1_multi_nodes_pid.html#ae10478e0d731be3f6e6d0c479964d448" xlink:title="计算 PID 控制器的输出">
<polygon fill="white" stroke="#666666" points="136,-250.5 0,-250.5 0,-209.5 136,-209.5 136,-250.5"/>
<text text-anchor="start" x="8" y="-238.5" font-family="Helvetica,sans-Serif" font-size="10.00">hello_world::algorithms</text>
<text text-anchor="start" x="8" y="-227.5" font-family="Helvetica,sans-Serif" font-size="10.00">::controller::pid::MultiNodes</text>
<text text-anchor="middle" x="68" y="-216.5" font-family="Helvetica,sans-Serif" font-size="10.00">Pid::calc</text>
</a>
</g>
</g>
<!-- Node4&#45;&gt;Node5 -->
<g id="edge24_Node000004_Node000005" class="edge">
<title>Node4&#45;&gt;Node5</title>
<g id="a_edge24_Node000004_Node000005"><a xlink:title=" ">
<path fill="none" stroke="#63b8ff" d="M161.02,-246.24C152.75,-244.78 144.39,-243.3 136.26,-241.87"/>
<polygon fill="#63b8ff" stroke="#63b8ff" points="160.36,-249.85 170.81,-248.14 161.57,-242.96 160.36,-249.85"/>
</a>
</g>
</g>
<!-- Node6&#45;&gt;Node5 -->
<g id="edge26_Node000006_Node000005" class="edge">
<title>Node6&#45;&gt;Node5</title>
<g id="a_edge26_Node000006_Node000005"><a xlink:title=" ">
<path fill="none" stroke="#63b8ff" d="M161.02,-214.3C152.75,-215.71 144.39,-217.14 136.26,-218.53"/>
<polygon fill="#63b8ff" stroke="#63b8ff" points="161.54,-217.59 170.81,-212.46 160.37,-210.69 161.54,-217.59"/>
</a>
</g>
</g>
</g>
</svg>
