<?xml version="1.0" encoding="UTF-8" standalone="no"?>
<!DOCTYPE svg PUBLIC "-//W3C//DTD SVG 1.1//EN"
 "http://www.w3.org/Graphics/SVG/1.1/DTD/svg11.dtd">
<!-- Generated by graphviz version 8.0.3 (20230416.2022)
 -->
<!-- Title: hello_world::NormPeriodData Pages: 1 -->
<svg width="495pt" height="326pt"
 viewBox="0.00 0.00 495.00 326.00" xmlns="http://www.w3.org/2000/svg" xmlns:xlink="http://www.w3.org/1999/xlink">
<g id="graph0" class="graph" transform="scale(1 1) rotate(0) translate(4 322)">
<title>hello_world::NormPeriodData</title>
<!-- Node1 -->
<g id="Node000001" class="node">
<title>Node1</title>
<g id="a_Node000001"><a xlink:title="将周期性数据归一化到指定周期区间">
<polygon fill="#999999" stroke="#666666" points="487,-211.5 345,-211.5 345,-192.5 487,-192.5 487,-211.5"/>
<text text-anchor="middle" x="416" y="-199.5" font-family="Helvetica,sans-Serif" font-size="10.00">hello_world::NormPeriodData</text>
</a>
</g>
</g>
<!-- Node2 -->
<g id="Node000002" class="node">
<title>Node2</title>
<g id="a_Node000002"><a xlink:href="$namespacehello__world.html#aa44c70128980881ac6260af9f928309a" xlink:title="将角度归一化到[&#45;180°, 180°)">
<polygon fill="white" stroke="#666666" points="309,-248.5 173,-248.5 173,-229.5 309,-229.5 309,-248.5"/>
<text text-anchor="middle" x="241" y="-236.5" font-family="Helvetica,sans-Serif" font-size="10.00">hello_world::AngleNormDeg</text>
</a>
</g>
</g>
<!-- Node1&#45;&gt;Node2 -->
<g id="edge21_Node000001_Node000002" class="edge">
<title>Node1&#45;&gt;Node2</title>
<g id="a_edge21_Node000001_Node000002"><a xlink:title=" ">
<path fill="none" stroke="#63b8ff" d="M358.17,-214.15C335.59,-218.98 309.93,-224.47 288.49,-229.06"/>
<polygon fill="#63b8ff" stroke="#63b8ff" points="358.59,-217.43 367.64,-211.92 357.13,-210.58 358.59,-217.43"/>
</a>
</g>
</g>
<!-- Node3 -->
<g id="Node000003" class="node">
<title>Node3</title>
<g id="a_Node000003"><a xlink:href="$namespacehello__world.html#a2b175ee3711275a8279ab6553620bca7" xlink:title="将角度归一化到[&#45;π, π)">
<polygon fill="white" stroke="#666666" points="309,-211.5 173,-211.5 173,-192.5 309,-192.5 309,-211.5"/>
<text text-anchor="middle" x="241" y="-199.5" font-family="Helvetica,sans-Serif" font-size="10.00">hello_world::AngleNormRad</text>
</a>
</g>
</g>
<!-- Node1&#45;&gt;Node3 -->
<g id="edge22_Node000001_Node000003" class="edge">
<title>Node1&#45;&gt;Node3</title>
<g id="a_edge22_Node000001_Node000003"><a xlink:title=" ">
<path fill="none" stroke="#63b8ff" d="M333.86,-202C325.61,-202 317.3,-202 309.23,-202"/>
<polygon fill="#63b8ff" stroke="#63b8ff" points="333.63,-205.5 343.63,-202 333.63,-198.5 333.63,-205.5"/>
</a>
</g>
</g>
<!-- Node4 -->
<g id="Node000004" class="node">
<title>Node4</title>
<g id="a_Node000004"><a xlink:href="$classhello__world_1_1devices_1_1motor_1_1_motor.html#a21092858a98af5688b398d57cd203592" xlink:title="将角度转换到指定范围">
<polygon fill="white" stroke="#666666" points="306.5,-174 175.5,-174 175.5,-144 306.5,-144 306.5,-174"/>
<text text-anchor="start" x="183.5" y="-162" font-family="Helvetica,sans-Serif" font-size="10.00">hello_world::devices</text>
<text text-anchor="middle" x="241" y="-151" font-family="Helvetica,sans-Serif" font-size="10.00">::motor::Motor::normAngle</text>
</a>
</g>
</g>
<!-- Node1&#45;&gt;Node4 -->
<g id="edge23_Node000001_Node000004" class="edge">
<title>Node1&#45;&gt;Node4</title>
<g id="a_edge23_Node000001_Node000004"><a xlink:title=" ">
<path fill="none" stroke="#63b8ff" d="M364.44,-189.43C345.61,-184.75 324.03,-179.39 304.27,-174.48"/>
<polygon fill="#63b8ff" stroke="#63b8ff" points="363.33,-193.01 373.88,-192.03 365.02,-186.22 363.33,-193.01"/>
</a>
</g>
</g>
<!-- Node5 -->
<g id="Node000005" class="node">
<title>Node5</title>
<g id="a_Node000005"><a xlink:href="$classhello__world_1_1devices_1_1motor_1_1_a1.html#a1dc9df605f9df5fff3b2bc8ed4a63ff8" xlink:title="将电调发回的 CAN 报文进行解包">
<polygon fill="white" stroke="#666666" points="120,-318 17,-318 17,-288 120,-288 120,-318"/>
<text text-anchor="start" x="25" y="-306" font-family="Helvetica,sans-Serif" font-size="10.00">hello_world::devices</text>
<text text-anchor="middle" x="68.5" y="-295" font-family="Helvetica,sans-Serif" font-size="10.00">::motor::A1::decode</text>
</a>
</g>
</g>
<!-- Node4&#45;&gt;Node5 -->
<g id="edge24_Node000004_Node000005" class="edge">
<title>Node4&#45;&gt;Node5</title>
<g id="a_edge24_Node000004_Node000005"><a xlink:title=" ">
<path fill="none" stroke="#63b8ff" d="M176.63,-180.71C175.37,-181.75 174.16,-182.85 173,-184 140.99,-215.85 169.25,-247.4 137,-279 132.2,-283.7 126.43,-287.48 120.3,-290.53"/>
<polygon fill="#63b8ff" stroke="#63b8ff" points="178.35,-183.07 184.57,-174.49 174.36,-177.33 178.35,-183.07"/>
</a>
</g>
</g>
<!-- Node6 -->
<g id="Node000006" class="node">
<title>Node6</title>
<g id="a_Node000006"><a xlink:href="$classhello__world_1_1devices_1_1motor_1_1_d_m___j4310.html#a84ecfac4c74e3f0f7b85fba6c69f2aa1" xlink:title="将电调发回的 CAN 报文进行解包">
<polygon fill="white" stroke="#666666" points="137,-270 0,-270 0,-240 137,-240 137,-270"/>
<text text-anchor="start" x="8" y="-258" font-family="Helvetica,sans-Serif" font-size="10.00">hello_world::devices</text>
<text text-anchor="middle" x="68.5" y="-247" font-family="Helvetica,sans-Serif" font-size="10.00">::motor::DM_J4310::decode</text>
</a>
</g>
</g>
<!-- Node4&#45;&gt;Node6 -->
<g id="edge25_Node000004_Node000006" class="edge">
<title>Node4&#45;&gt;Node6</title>
<g id="a_edge25_Node000004_Node000006"><a xlink:title=" ">
<path fill="none" stroke="#63b8ff" d="M179.86,-179.43C177.48,-180.86 175.18,-182.38 173,-184 151.85,-199.65 158.27,-215.51 137,-231 132.58,-234.22 127.68,-237.04 122.6,-239.51"/>
<polygon fill="#63b8ff" stroke="#63b8ff" points="181.2,-182.15 188.36,-174.34 177.89,-175.98 181.2,-182.15"/>
</a>
</g>
</g>
<!-- Node7 -->
<g id="Node000007" class="node">
<title>Node7</title>
<g id="a_Node000007"><a xlink:href="$classhello__world_1_1devices_1_1motor_1_1_g_m6020.html#a732687f3fc5d5d302135f950ac260e3f" xlink:title="将电调发回的 CAN 报文进行解包">
<polygon fill="white" stroke="#666666" points="132.5,-222 4.5,-222 4.5,-192 132.5,-192 132.5,-222"/>
<text text-anchor="start" x="12.5" y="-210" font-family="Helvetica,sans-Serif" font-size="10.00">hello_world::devices</text>
<text text-anchor="middle" x="68.5" y="-199" font-family="Helvetica,sans-Serif" font-size="10.00">::motor::GM6020::decode</text>
</a>
</g>
</g>
<!-- Node4&#45;&gt;Node7 -->
<g id="edge26_Node000004_Node000007" class="edge">
<title>Node4&#45;&gt;Node7</title>
<g id="a_edge26_Node000004_Node000007"><a xlink:title=" ">
<path fill="none" stroke="#63b8ff" d="M174.88,-177.33C158.19,-182.03 140.4,-187.04 124.28,-191.58"/>
<polygon fill="#63b8ff" stroke="#63b8ff" points="175.44,-180.53 184.11,-174.45 173.54,-173.79 175.44,-180.53"/>
</a>
</g>
</g>
<!-- Node8 -->
<g id="Node000008" class="node">
<title>Node8</title>
<g id="a_Node000008"><a xlink:href="$classhello__world_1_1devices_1_1motor_1_1_m2006.html#a4f74b1c55fc5c0f9e7c28d329ff0c9cd" xlink:title="将电调发回的 CAN 报文进行解包">
<polygon fill="white" stroke="#666666" points="128.5,-174 8.5,-174 8.5,-144 128.5,-144 128.5,-174"/>
<text text-anchor="start" x="16.5" y="-162" font-family="Helvetica,sans-Serif" font-size="10.00">hello_world::devices</text>
<text text-anchor="middle" x="68.5" y="-151" font-family="Helvetica,sans-Serif" font-size="10.00">::motor::M2006::decode</text>
</a>
</g>
</g>
<!-- Node4&#45;&gt;Node8 -->
<g id="edge27_Node000004_Node000008" class="edge">
<title>Node4&#45;&gt;Node8</title>
<g id="a_edge27_Node000004_Node000008"><a xlink:title=" ">
<path fill="none" stroke="#63b8ff" d="M164.28,-159C152.44,-159 140.35,-159 128.94,-159"/>
<polygon fill="#63b8ff" stroke="#63b8ff" points="164.05,-162.5 174.05,-159 164.05,-155.5 164.05,-162.5"/>
</a>
</g>
</g>
<!-- Node9 -->
<g id="Node000009" class="node">
<title>Node9</title>
<g id="a_Node000009"><a xlink:href="$classhello__world_1_1devices_1_1motor_1_1_m3508.html#aec43855db5fbc6a2fb7b3b550b601f8e" xlink:title="将电调发回的 CAN 报文进行解包">
<polygon fill="white" stroke="#666666" points="128.5,-126 8.5,-126 8.5,-96 128.5,-96 128.5,-126"/>
<text text-anchor="start" x="16.5" y="-114" font-family="Helvetica,sans-Serif" font-size="10.00">hello_world::devices</text>
<text text-anchor="middle" x="68.5" y="-103" font-family="Helvetica,sans-Serif" font-size="10.00">::motor::M3508::decode</text>
</a>
</g>
</g>
<!-- Node4&#45;&gt;Node9 -->
<g id="edge28_Node000004_Node000009" class="edge">
<title>Node4&#45;&gt;Node9</title>
<g id="a_edge28_Node000004_Node000009"><a xlink:title=" ">
<path fill="none" stroke="#63b8ff" d="M174.88,-140.67C158.19,-135.97 140.4,-130.96 124.28,-126.42"/>
<polygon fill="#63b8ff" stroke="#63b8ff" points="173.54,-144.21 184.11,-143.55 175.44,-137.47 173.54,-144.21"/>
</a>
</g>
</g>
<!-- Node10 -->
<g id="Node000010" class="node">
<title>Node10</title>
<g id="a_Node000010"><a xlink:href="$classhello__world_1_1devices_1_1motor_1_1_m8910.html#ae5b934cb41237293299dce618befba6d" xlink:title="将电调发回的 CAN 报文进行解包">
<polygon fill="white" stroke="#666666" points="128.5,-78 8.5,-78 8.5,-48 128.5,-48 128.5,-78"/>
<text text-anchor="start" x="16.5" y="-66" font-family="Helvetica,sans-Serif" font-size="10.00">hello_world::devices</text>
<text text-anchor="middle" x="68.5" y="-55" font-family="Helvetica,sans-Serif" font-size="10.00">::motor::M8910::decode</text>
</a>
</g>
</g>
<!-- Node4&#45;&gt;Node10 -->
<g id="edge29_Node000004_Node000010" class="edge">
<title>Node4&#45;&gt;Node10</title>
<g id="a_edge29_Node000004_Node000010"><a xlink:title=" ">
<path fill="none" stroke="#63b8ff" d="M212.65,-136.83C192.61,-121.35 164.25,-101.04 137,-87 130.92,-83.87 124.34,-80.97 117.75,-78.36"/>
<polygon fill="#63b8ff" stroke="#63b8ff" points="210.21,-140.15 220.24,-143.56 214.53,-134.63 210.21,-140.15"/>
</a>
</g>
</g>
<!-- Node11 -->
<g id="Node000011" class="node">
<title>Node11</title>
<g id="a_Node000011"><a xlink:href="$classhello__world_1_1devices_1_1motor_1_1_m_f9025v2.html#ab446cad174a3d963931102233a88c7e8" xlink:title="将电调发回的 CAN 报文进行解包">
<polygon fill="white" stroke="#666666" points="136,-30 1,-30 1,0 136,0 136,-30"/>
<text text-anchor="start" x="9" y="-18" font-family="Helvetica,sans-Serif" font-size="10.00">hello_world::devices</text>
<text text-anchor="middle" x="68.5" y="-7" font-family="Helvetica,sans-Serif" font-size="10.00">::motor::MF9025v2::decode</text>
</a>
</g>
</g>
<!-- Node4&#45;&gt;Node11 -->
<g id="edge30_Node000004_Node000011" class="edge">
<title>Node4&#45;&gt;Node11</title>
<g id="a_edge30_Node000004_Node000011"><a xlink:title=" ">
<path fill="none" stroke="#63b8ff" d="M224.87,-134.76C206.94,-107.87 174.7,-64.88 137,-39 132.28,-35.76 127.08,-32.91 121.72,-30.42"/>
<polygon fill="#63b8ff" stroke="#63b8ff" points="222.42,-136.41 230.81,-142.88 228.28,-132.59 222.42,-136.41"/>
</a>
</g>
</g>
</g>
</svg>
