<?xml version="1.0" encoding="UTF-8" standalone="no"?>
<!DOCTYPE svg PUBLIC "-//W3C//DTD SVG 1.1//EN"
 "http://www.w3.org/Graphics/SVG/1.1/DTD/svg11.dtd">
<!-- Generated by graphviz version 8.0.3 (20230416.2022)
 -->
<!-- Title: hello_world::devices::referee::GetCrc8CheckSum Pages: 1 -->
<svg width="730pt" height="86pt"
 viewBox="0.00 0.00 730.00 86.00" xmlns="http://www.w3.org/2000/svg" xmlns:xlink="http://www.w3.org/1999/xlink">
<g id="graph0" class="graph" transform="scale(1 1) rotate(0) translate(4 82)">
<title>hello_world::devices::referee::GetCrc8CheckSum</title>
<!-- Node1 -->
<g id="Node000001" class="node">
<title>Node1</title>
<g id="a_Node000001"><a xlink:title="Calculate and return the CRC8 checksum of a message.">
<polygon fill="#999999" stroke="#666666" points="722,-54 580,-54 580,-24 722,-24 722,-54"/>
<text text-anchor="start" x="588" y="-42" font-family="Helvetica,sans-Serif" font-size="10.00">hello_world::devices</text>
<text text-anchor="middle" x="651" y="-31" font-family="Helvetica,sans-Serif" font-size="10.00">::referee::GetCrc8CheckSum</text>
</a>
</g>
</g>
<!-- Node2 -->
<g id="Node000002" class="node">
<title>Node2</title>
<g id="a_Node000002"><a xlink:href="$namespacehello__world_1_1devices_1_1referee.html#a1010051b064aba848f58d85e35720c8e" xlink:title="Set the last byte of a message to a CRC8 checksum.">
<polygon fill="white" stroke="#666666" points="544,-78 386,-78 386,-48 544,-48 544,-78"/>
<text text-anchor="start" x="394" y="-66" font-family="Helvetica,sans-Serif" font-size="10.00">hello_world::devices</text>
<text text-anchor="middle" x="465" y="-55" font-family="Helvetica,sans-Serif" font-size="10.00">::referee::SetEndCrc8CheckSum</text>
</a>
</g>
</g>
<!-- Node1&#45;&gt;Node2 -->
<g id="edge13_Node000001_Node000002" class="edge">
<title>Node1&#45;&gt;Node2</title>
<g id="a_edge13_Node000001_Node000002"><a xlink:title=" ">
<path fill="none" stroke="#63b8ff" d="M568.97,-49.57C560.77,-50.64 552.46,-51.72 544.29,-52.79"/>
<polygon fill="#63b8ff" stroke="#63b8ff" points="569.19,-52.94 578.65,-48.18 568.28,-46 569.19,-52.94"/>
</a>
</g>
</g>
<!-- Node5 -->
<g id="Node000005" class="node">
<title>Node5</title>
<g id="a_Node000005"><a xlink:href="$namespacehello__world_1_1devices_1_1referee.html#a5ac9b8968addb626ab283eaf7b80bd6c" xlink:title="Verifies the CRC8 checksum of a message.">
<polygon fill="white" stroke="#666666" points="540.5,-30 389.5,-30 389.5,0 540.5,0 540.5,-30"/>
<text text-anchor="start" x="397.5" y="-18" font-family="Helvetica,sans-Serif" font-size="10.00">hello_world::devices</text>
<text text-anchor="middle" x="465" y="-7" font-family="Helvetica,sans-Serif" font-size="10.00">::referee::VerifyCrc8CheckSum</text>
</a>
</g>
</g>
<!-- Node1&#45;&gt;Node5 -->
<g id="edge16_Node000001_Node000005" class="edge">
<title>Node1&#45;&gt;Node5</title>
<g id="a_edge16_Node000001_Node000005"><a xlink:title=" ">
<path fill="none" stroke="#63b8ff" d="M568.83,-28.41C559.54,-27.2 550.1,-25.97 540.9,-24.77"/>
<polygon fill="#63b8ff" stroke="#63b8ff" points="568.28,-32 578.65,-29.82 569.19,-25.06 568.28,-32"/>
</a>
</g>
</g>
<!-- Node3 -->
<g id="Node000003" class="node">
<title>Node3</title>
<g id="a_Node000003"><a xlink:href="$classhello__world_1_1devices_1_1referee_1_1_referee.html#aabc8ab368e15253c1f375e15f625e640" xlink:title=" ">
<polygon fill="white" stroke="#666666" points="350,-78 192,-78 192,-48 350,-48 350,-78"/>
<text text-anchor="start" x="200" y="-66" font-family="Helvetica,sans-Serif" font-size="10.00">hello_world::devices</text>
<text text-anchor="middle" x="271" y="-55" font-family="Helvetica,sans-Serif" font-size="10.00">::referee::Referee::encodeSetCrc</text>
</a>
</g>
</g>
<!-- Node2&#45;&gt;Node3 -->
<g id="edge14_Node000002_Node000003" class="edge">
<title>Node2&#45;&gt;Node3</title>
<g id="a_edge14_Node000002_Node000003"><a xlink:title=" ">
<path fill="none" stroke="#63b8ff" d="M374.66,-63C366.57,-63 358.42,-63 350.43,-63"/>
<polygon fill="#63b8ff" stroke="#63b8ff" points="374.63,-66.5 384.63,-63 374.63,-59.5 374.63,-66.5"/>
</a>
</g>
</g>
<!-- Node4 -->
<g id="Node000004" class="node">
<title>Node4</title>
<g id="a_Node000004"><a xlink:href="$classhello__world_1_1devices_1_1referee_1_1_referee.html#a5ce1901e90b5565bf0de6c9ce2d48c91" xlink:title=" ">
<polygon fill="white" stroke="#666666" points="156,-78 0,-78 0,-48 156,-48 156,-78"/>
<text text-anchor="start" x="8" y="-66" font-family="Helvetica,sans-Serif" font-size="10.00">hello_world::devices</text>
<text text-anchor="middle" x="78" y="-55" font-family="Helvetica,sans-Serif" font-size="10.00">::referee::Referee::encodeFrame</text>
</a>
</g>
</g>
<!-- Node3&#45;&gt;Node4 -->
<g id="edge15_Node000003_Node000004" class="edge">
<title>Node3&#45;&gt;Node4</title>
<g id="a_edge15_Node000003_Node000004"><a xlink:title=" ">
<path fill="none" stroke="#63b8ff" d="M180.77,-63C172.66,-63 164.49,-63 156.5,-63"/>
<polygon fill="#63b8ff" stroke="#63b8ff" points="180.76,-66.5 190.76,-63 180.76,-59.5 180.76,-66.5"/>
</a>
</g>
</g>
<!-- Node6 -->
<g id="Node000006" class="node">
<title>Node6</title>
<g id="a_Node000006"><a xlink:href="$classhello__world_1_1devices_1_1referee_1_1_referee.html#a823f73d223421b7d025005e99ff08291" xlink:title=" ">
<polygon fill="white" stroke="#666666" points="347,-30 195,-30 195,0 347,0 347,-30"/>
<text text-anchor="start" x="203" y="-18" font-family="Helvetica,sans-Serif" font-size="10.00">hello_world::devices</text>
<text text-anchor="middle" x="271" y="-7" font-family="Helvetica,sans-Serif" font-size="10.00">::referee::Referee::processByte</text>
</a>
</g>
</g>
<!-- Node5&#45;&gt;Node6 -->
<g id="edge17_Node000005_Node000006" class="edge">
<title>Node5&#45;&gt;Node6</title>
<g id="a_edge17_Node000005_Node000006"><a xlink:title=" ">
<path fill="none" stroke="#63b8ff" d="M378.45,-15C368.04,-15 357.46,-15 347.21,-15"/>
<polygon fill="#63b8ff" stroke="#63b8ff" points="378.22,-18.5 388.22,-15 378.22,-11.5 378.22,-18.5"/>
</a>
</g>
</g>
<!-- Node7 -->
<g id="Node000007" class="node">
<title>Node7</title>
<g id="a_Node000007"><a xlink:href="$classhello__world_1_1devices_1_1referee_1_1_referee.html#aaa5ff496d5c254b8fd821c351bb75325" xlink:title=" ">
<polygon fill="white" stroke="#666666" points="156,-30 0,-30 0,0 156,0 156,-30"/>
<text text-anchor="start" x="8" y="-18" font-family="Helvetica,sans-Serif" font-size="10.00">hello_world::devices</text>
<text text-anchor="middle" x="78" y="-7" font-family="Helvetica,sans-Serif" font-size="10.00">::referee::Referee::decodeFrame</text>
</a>
</g>
</g>
<!-- Node6&#45;&gt;Node7 -->
<g id="edge18_Node000006_Node000007" class="edge">
<title>Node6&#45;&gt;Node7</title>
<g id="a_edge18_Node000006_Node000007"><a xlink:title=" ">
<path fill="none" stroke="#63b8ff" d="M183.56,-15C174.52,-15 165.38,-15 156.45,-15"/>
<polygon fill="#63b8ff" stroke="#63b8ff" points="183.51,-18.5 193.51,-15 183.51,-11.5 183.51,-18.5"/>
</a>
</g>
</g>
</g>
</svg>
