<?xml version="1.0" encoding="UTF-8" standalone="no"?>
<!DOCTYPE svg PUBLIC "-//W3C//DTD SVG 1.1//EN"
 "http://www.w3.org/Graphics/SVG/1.1/DTD/svg11.dtd">
<!-- Generated by graphviz version 8.0.3 (20230416.2022)
 -->
<!-- Title: hello_world::devices::referee::VerifyCrc8CheckSum Pages: 1 -->
<svg width="539pt" height="38pt"
 viewBox="0.00 0.00 539.00 38.00" xmlns="http://www.w3.org/2000/svg" xmlns:xlink="http://www.w3.org/1999/xlink">
<g id="graph0" class="graph" transform="scale(1 1) rotate(0) translate(4 34)">
<title>hello_world::devices::referee::VerifyCrc8CheckSum</title>
<!-- Node1 -->
<g id="Node000001" class="node">
<title>Node1</title>
<g id="a_Node000001"><a xlink:title="Verifies the CRC8 checksum of a message.">
<polygon fill="#999999" stroke="#666666" points="531,-30 380,-30 380,0 531,0 531,-30"/>
<text text-anchor="start" x="388" y="-18" font-family="Helvetica,sans-Serif" font-size="10.00">hello_world::devices</text>
<text text-anchor="middle" x="455.5" y="-7" font-family="Helvetica,sans-Serif" font-size="10.00">::referee::VerifyCrc8CheckSum</text>
</a>
</g>
</g>
<!-- Node2 -->
<g id="Node000002" class="node">
<title>Node2</title>
<g id="a_Node000002"><a xlink:href="$classhello__world_1_1devices_1_1referee_1_1_referee.html#a823f73d223421b7d025005e99ff08291" xlink:title=" ">
<polygon fill="white" stroke="#666666" points="344,-30 192,-30 192,0 344,0 344,-30"/>
<text text-anchor="start" x="200" y="-18" font-family="Helvetica,sans-Serif" font-size="10.00">hello_world::devices</text>
<text text-anchor="middle" x="268" y="-7" font-family="Helvetica,sans-Serif" font-size="10.00">::referee::Referee::processByte</text>
</a>
</g>
</g>
<!-- Node1&#45;&gt;Node2 -->
<g id="edge5_Node000001_Node000002" class="edge">
<title>Node1&#45;&gt;Node2</title>
<g id="a_edge5_Node000001_Node000002"><a xlink:title=" ">
<path fill="none" stroke="#63b8ff" d="M368.65,-15C360.59,-15 352.46,-15 344.5,-15"/>
<polygon fill="#63b8ff" stroke="#63b8ff" points="368.58,-18.5 378.58,-15 368.58,-11.5 368.58,-18.5"/>
</a>
</g>
</g>
<!-- Node3 -->
<g id="Node000003" class="node">
<title>Node3</title>
<g id="a_Node000003"><a xlink:href="$classhello__world_1_1devices_1_1referee_1_1_referee.html#aaa5ff496d5c254b8fd821c351bb75325" xlink:title=" ">
<polygon fill="white" stroke="#666666" points="156,-30 0,-30 0,0 156,0 156,-30"/>
<text text-anchor="start" x="8" y="-18" font-family="Helvetica,sans-Serif" font-size="10.00">hello_world::devices</text>
<text text-anchor="middle" x="78" y="-7" font-family="Helvetica,sans-Serif" font-size="10.00">::referee::Referee::decodeFrame</text>
</a>
</g>
</g>
<!-- Node2&#45;&gt;Node3 -->
<g id="edge6_Node000002_Node000003" class="edge">
<title>Node2&#45;&gt;Node3</title>
<g id="a_edge6_Node000002_Node000003"><a xlink:title=" ">
<path fill="none" stroke="#63b8ff" d="M180.88,-15C172.67,-15 164.37,-15 156.24,-15"/>
<polygon fill="#63b8ff" stroke="#63b8ff" points="180.62,-18.5 190.62,-15 180.62,-11.5 180.62,-18.5"/>
</a>
</g>
</g>
</g>
</svg>
