<?xml version="1.0" encoding="UTF-8" standalone="no"?>
<!DOCTYPE svg PUBLIC "-//W3C//DTD SVG 1.1//EN"
 "http://www.w3.org/Graphics/SVG/1.1/DTD/svg11.dtd">
<!-- Generated by graphviz version 8.0.3 (20230416.2022)
 -->
<!-- Title: hello_world::devices::motor::_Float2Uint Pages: 1 -->
<svg width="465pt" height="86pt"
 viewBox="0.00 0.00 465.00 86.00" xmlns="http://www.w3.org/2000/svg" xmlns:xlink="http://www.w3.org/1999/xlink">
<g id="graph0" class="graph" transform="scale(1 1) rotate(0) translate(4 82)">
<title>hello_world::devices::motor::_Float2Uint</title>
<!-- Node1 -->
<g id="Node000001" class="node">
<title>Node1</title>
<g id="a_Node000001"><a xlink:title="根据给定的范围和位数，将 float 转换为 uint">
<polygon fill="#999999" stroke="#666666" points="457,-54 354,-54 354,-24 457,-24 457,-54"/>
<text text-anchor="start" x="362" y="-42" font-family="Helvetica,sans-Serif" font-size="10.00">hello_world::devices</text>
<text text-anchor="middle" x="405.5" y="-31" font-family="Helvetica,sans-Serif" font-size="10.00">::motor::_Float2Uint</text>
</a>
</g>
</g>
<!-- Node2 -->
<g id="Node000002" class="node">
<title>Node2</title>
<g id="a_Node000002"><a xlink:href="$classhello__world_1_1devices_1_1motor_1_1_d_m___j4310.html#a358bd9981d81d72077e27f42d775e431" xlink:title="将转子电流转换为原始报文内容">
<polygon fill="white" stroke="#666666" points="318,-78 176,-78 176,-48 318,-48 318,-78"/>
<text text-anchor="start" x="184" y="-66" font-family="Helvetica,sans-Serif" font-size="10.00">hello_world::devices</text>
<text text-anchor="middle" x="247" y="-55" font-family="Helvetica,sans-Serif" font-size="10.00">::motor::DM_J4310::curr2raw</text>
</a>
</g>
</g>
<!-- Node1&#45;&gt;Node2 -->
<g id="edge9_Node000001_Node000002" class="edge">
<title>Node1&#45;&gt;Node2</title>
<g id="a_edge9_Node000001_Node000002"><a xlink:title=" ">
<path fill="none" stroke="#63b8ff" d="M342.93,-48.44C334.9,-49.67 326.62,-50.94 318.46,-52.19"/>
<polygon fill="#63b8ff" stroke="#63b8ff" points="343.34,-51.77 352.69,-46.79 342.27,-44.85 343.34,-51.77"/>
</a>
</g>
</g>
<!-- Node4 -->
<g id="Node000004" class="node">
<title>Node4</title>
<g id="a_Node000004"><a xlink:href="$classhello__world_1_1devices_1_1motor_1_1_d_m___j4310.html#ace039722135c1bf08b429a4ad41ccc81" xlink:title="将输出端力矩转换为原始报文内容">
<polygon fill="white" stroke="#666666" points="318,-30 176,-30 176,0 318,0 318,-30"/>
<text text-anchor="start" x="184" y="-18" font-family="Helvetica,sans-Serif" font-size="10.00">hello_world::devices</text>
<text text-anchor="middle" x="247" y="-7" font-family="Helvetica,sans-Serif" font-size="10.00">::motor::DM_J4310::torq2raw</text>
</a>
</g>
</g>
<!-- Node1&#45;&gt;Node4 -->
<g id="edge11_Node000001_Node000004" class="edge">
<title>Node1&#45;&gt;Node4</title>
<g id="a_edge11_Node000001_Node000004"><a xlink:title=" ">
<path fill="none" stroke="#63b8ff" d="M342.93,-29.56C334.9,-28.33 326.62,-27.06 318.46,-25.81"/>
<polygon fill="#63b8ff" stroke="#63b8ff" points="342.27,-33.15 352.69,-31.21 343.34,-26.23 342.27,-33.15"/>
</a>
</g>
</g>
<!-- Node3 -->
<g id="Node000003" class="node">
<title>Node3</title>
<g id="a_Node000003"><a xlink:href="$classhello__world_1_1devices_1_1motor_1_1_d_m___j4310.html#ae15373ce02962c1a287d7e813413869b" xlink:title="设定发给电调的期望值">
<polygon fill="white" stroke="#666666" points="140,-54 0,-54 0,-24 140,-24 140,-54"/>
<text text-anchor="start" x="8" y="-42" font-family="Helvetica,sans-Serif" font-size="10.00">hello_world::devices</text>
<text text-anchor="middle" x="70" y="-31" font-family="Helvetica,sans-Serif" font-size="10.00">::motor::DM_J4310::setInput</text>
</a>
</g>
</g>
<!-- Node2&#45;&gt;Node3 -->
<g id="edge10_Node000002_Node000003" class="edge">
<title>Node2&#45;&gt;Node3</title>
<g id="a_edge10_Node000002_Node000003"><a xlink:title=" ">
<path fill="none" stroke="#63b8ff" d="M164.89,-51.88C156.72,-50.76 148.46,-49.62 140.42,-48.52"/>
<polygon fill="#63b8ff" stroke="#63b8ff" points="164.19,-55.45 174.58,-53.34 165.15,-48.52 164.19,-55.45"/>
</a>
</g>
</g>
<!-- Node4&#45;&gt;Node3 -->
<g id="edge12_Node000004_Node000003" class="edge">
<title>Node4&#45;&gt;Node3</title>
<g id="a_edge12_Node000004_Node000003"><a xlink:title=" ">
<path fill="none" stroke="#63b8ff" d="M164.89,-26.12C156.72,-27.24 148.46,-28.38 140.42,-29.48"/>
<polygon fill="#63b8ff" stroke="#63b8ff" points="165.15,-29.48 174.58,-24.66 164.19,-22.55 165.15,-29.48"/>
</a>
</g>
</g>
</g>
</svg>
