<?xml version="1.0" encoding="UTF-8" standalone="no"?>
<!DOCTYPE svg PUBLIC "-//W3C//DTD SVG 1.1//EN"
 "http://www.w3.org/Graphics/SVG/1.1/DTD/svg11.dtd">
<!-- Generated by graphviz version 8.0.3 (20230416.2022)
 -->
<!-- Title: HW&#45;Components/algorithms/controller/inc/pid_opt.hpp Pages: 1 -->
<svg width="147pt" height="170pt"
 viewBox="0.00 0.00 147.00 170.00" xmlns="http://www.w3.org/2000/svg" xmlns:xlink="http://www.w3.org/1999/xlink">
<g id="graph0" class="graph" transform="scale(1 1) rotate(0) translate(4 166)">
<title>HW&#45;Components/algorithms/controller/inc/pid_opt.hpp</title>
<!-- Node1 -->
<g id="Node000001" class="node">
<title>Node1</title>
<g id="a_Node000001"><a xlink:title=" ">
<polygon fill="#999999" stroke="#666666" points="139,-162 0,-162 0,-132 139,-132 139,-162"/>
<text text-anchor="start" x="8" y="-150" font-family="Helvetica,sans-Serif" font-size="10.00">HW&#45;Components/algorithms</text>
<text text-anchor="middle" x="69.5" y="-139" font-family="Helvetica,sans-Serif" font-size="10.00">/controller/inc/pid_opt.hpp</text>
</a>
</g>
</g>
<!-- Node2 -->
<g id="Node000002" class="node">
<title>Node2</title>
<g id="a_Node000002"><a xlink:href="$pid_8hpp.html" xlink:title=" ">
<polygon fill="white" stroke="#666666" points="139,-96 0,-96 0,-66 139,-66 139,-96"/>
<text text-anchor="start" x="8" y="-84" font-family="Helvetica,sans-Serif" font-size="10.00">HW&#45;Components/algorithms</text>
<text text-anchor="middle" x="69.5" y="-73" font-family="Helvetica,sans-Serif" font-size="10.00">/controller/inc/pid.hpp</text>
</a>
</g>
</g>
<!-- Node1&#45;&gt;Node2 -->
<g id="edge5_Node000001_Node000002" class="edge">
<title>Node1&#45;&gt;Node2</title>
<g id="a_edge5_Node000001_Node000002"><a xlink:title=" ">
<path fill="none" stroke="#63b8ff" d="M69.5,-120.97C69.5,-112.55 69.5,-103.45 69.5,-96.16"/>
<polygon fill="#63b8ff" stroke="#63b8ff" points="66,-120.8 69.5,-130.8 73,-120.8 66,-120.8"/>
</a>
</g>
</g>
<!-- Node3 -->
<g id="Node000003" class="node">
<title>Node3</title>
<g id="a_Node000003"><a xlink:href="$pid_8cpp.html" xlink:title=" ">
<polygon fill="white" stroke="#666666" points="139,-30 0,-30 0,0 139,0 139,-30"/>
<text text-anchor="start" x="8" y="-18" font-family="Helvetica,sans-Serif" font-size="10.00">HW&#45;Components/algorithms</text>
<text text-anchor="middle" x="69.5" y="-7" font-family="Helvetica,sans-Serif" font-size="10.00">/controller/src/pid.cpp</text>
</a>
</g>
</g>
<!-- Node2&#45;&gt;Node3 -->
<g id="edge6_Node000002_Node000003" class="edge">
<title>Node2&#45;&gt;Node3</title>
<g id="a_edge6_Node000002_Node000003"><a xlink:title=" ">
<path fill="none" stroke="#63b8ff" d="M69.5,-54.97C69.5,-46.55 69.5,-37.45 69.5,-30.16"/>
<polygon fill="#63b8ff" stroke="#63b8ff" points="66,-54.8 69.5,-64.8 73,-54.8 66,-54.8"/>
</a>
</g>
</g>
</g>
</svg>
