<?xml version="1.0" encoding="UTF-8" standalone="no"?>
<!DOCTYPE svg PUBLIC "-//W3C//DTD SVG 1.1//EN"
 "http://www.w3.org/Graphics/SVG/1.1/DTD/svg11.dtd">
<!-- Generated by graphviz version 8.0.3 (20230416.2022)
 -->
<!-- Title: HW&#45;Components/algorithms/controller/src/pid.cpp Pages: 1 -->
<svg width="436pt" height="313pt"
 viewBox="0.00 0.00 436.17 313.00" xmlns="http://www.w3.org/2000/svg" xmlns:xlink="http://www.w3.org/1999/xlink">
<g id="graph0" class="graph" transform="scale(1 1) rotate(0) translate(4 309)">
<title>HW&#45;Components/algorithms/controller/src/pid.cpp</title>
<!-- Node1 -->
<g id="Node000001" class="node">
<title>Node1</title>
<g id="a_Node000001"><a xlink:title=" ">
<polygon fill="#999999" stroke="#666666" points="295.17,-305 156.17,-305 156.17,-275 295.17,-275 295.17,-305"/>
<text text-anchor="start" x="164.17" y="-293" font-family="Helvetica,sans-Serif" font-size="10.00">HW&#45;Components/algorithms</text>
<text text-anchor="middle" x="225.67" y="-282" font-family="Helvetica,sans-Serif" font-size="10.00">/controller/src/pid.cpp</text>
</a>
</g>
</g>
<!-- Node2 -->
<g id="Node000002" class="node">
<title>Node2</title>
<g id="a_Node000002"><a xlink:href="$pid_8hpp.html" xlink:title=" ">
<polygon fill="white" stroke="#666666" points="139.67,-239 91.67,-239 91.67,-220 139.67,-220 139.67,-239"/>
<text text-anchor="middle" x="115.67" y="-227" font-family="Helvetica,sans-Serif" font-size="10.00">pid.hpp</text>
</a>
</g>
</g>
<!-- Node1&#45;&gt;Node2 -->
<g id="edge35_Node000001_Node000002" class="edge">
<title>Node1&#45;&gt;Node2</title>
<g id="a_edge35_Node000001_Node000002"><a xlink:title=" ">
<path fill="none" stroke="#63b8ff" d="M198.48,-274.54C181.14,-265.32 158.8,-253.44 141.69,-244.34"/>
<polygon fill="#63b8ff" stroke="#63b8ff" points="143.77,-240.95 133.3,-239.35 140.49,-247.13 143.77,-240.95"/>
</a>
</g>
</g>
<!-- Node3 -->
<g id="Node000003" class="node">
<title>Node3</title>
<g id="a_Node000003"><a xlink:title=" ">
<polygon fill="#e0e0e0" stroke="#999999" points="218.67,-184 172.67,-184 172.67,-165 218.67,-165 218.67,-184"/>
<text text-anchor="middle" x="195.67" y="-172" font-family="Helvetica,sans-Serif" font-size="10.00">cstdint</text>
</a>
</g>
</g>
<!-- Node1&#45;&gt;Node3 -->
<g id="edge45_Node000001_Node000003" class="edge">
<title>Node1&#45;&gt;Node3</title>
<g id="a_edge45_Node000001_Node000003"><a xlink:title=" ">
<path fill="none" stroke="#63b8ff" d="M221.87,-274.63C216.5,-254.31 206.68,-217.15 200.7,-194.55"/>
<polygon fill="#63b8ff" stroke="#63b8ff" points="203.91,-194 197.98,-185.23 197.15,-195.79 203.91,-194"/>
</a>
</g>
</g>
<!-- Node9 -->
<g id="Node000009" class="node">
<title>Node9</title>
<g id="a_Node000009"><a xlink:href="$base_8hpp.html" xlink:title=": @history : Version Date Author Note V0.9.0 yyyy&#45;mm&#45;dd &lt;author&gt; 1.">
<polygon fill="white" stroke="#666666" points="284.67,-239 228.67,-239 228.67,-220 284.67,-220 284.67,-239"/>
<text text-anchor="middle" x="256.67" y="-227" font-family="Helvetica,sans-Serif" font-size="10.00">base.hpp</text>
</a>
</g>
</g>
<!-- Node1&#45;&gt;Node9 -->
<g id="edge46_Node000001_Node000009" class="edge">
<title>Node1&#45;&gt;Node9</title>
<g id="a_edge46_Node000001_Node000009"><a xlink:title=" ">
<path fill="none" stroke="#63b8ff" d="M233.33,-274.54C237.47,-266.74 242.61,-257.03 247.02,-248.71"/>
<polygon fill="#63b8ff" stroke="#63b8ff" points="250.48,-250.65 252.07,-240.18 244.3,-247.37 250.48,-250.65"/>
</a>
</g>
</g>
<!-- Node12 -->
<g id="Node000012" class="node">
<title>Node12</title>
<g id="a_Node000012"><a xlink:href="$tick_8hpp.html" xlink:title=" ">
<polygon fill="white" stroke="#666666" points="392.17,-239 341.17,-239 341.17,-220 392.17,-220 392.17,-239"/>
<text text-anchor="middle" x="366.67" y="-227" font-family="Helvetica,sans-Serif" font-size="10.00">tick.hpp</text>
</a>
</g>
</g>
<!-- Node1&#45;&gt;Node12 -->
<g id="edge50_Node000001_Node000012" class="edge">
<title>Node1&#45;&gt;Node12</title>
<g id="a_edge50_Node000001_Node000012"><a xlink:title=" ">
<path fill="none" stroke="#63b8ff" d="M260.52,-274.54C283.47,-265.02 313.26,-252.66 335.44,-243.46"/>
<polygon fill="#63b8ff" stroke="#63b8ff" points="336.45,-246.41 344.35,-239.35 333.77,-239.95 336.45,-246.41"/>
</a>
</g>
</g>
<!-- Node2&#45;&gt;Node3 -->
<g id="edge36_Node000002_Node000003" class="edge">
<title>Node2&#45;&gt;Node3</title>
<g id="a_edge36_Node000002_Node000003"><a xlink:title=" ">
<path fill="none" stroke="#63b8ff" d="M129.24,-219.51C141.26,-211.54 159.06,-199.75 173.2,-190.38"/>
<polygon fill="#63b8ff" stroke="#63b8ff" points="174.89,-192.8 181.3,-184.36 171.03,-186.96 174.89,-192.8"/>
</a>
</g>
</g>
<!-- Node4 -->
<g id="Node000004" class="node">
<title>Node4</title>
<g id="a_Node000004"><a xlink:title=" ">
<polygon fill="#e0e0e0" stroke="#999999" points="69.17,-19 24.17,-19 24.17,0 69.17,0 69.17,-19"/>
<text text-anchor="middle" x="46.67" y="-7" font-family="Helvetica,sans-Serif" font-size="10.00">cstdlib</text>
</a>
</g>
</g>
<!-- Node2&#45;&gt;Node4 -->
<g id="edge37_Node000002_Node000004" class="edge">
<title>Node2&#45;&gt;Node4</title>
<g id="a_edge37_Node000002_Node000004"><a xlink:title=" ">
<path fill="none" stroke="#63b8ff" d="M91.44,-219.99C73.45,-212.7 49.26,-200.71 32.67,-184 13.2,-164.39 10.31,-155.82 3.67,-129 -4.34,-96.66 2.34,-85.54 15.67,-55 19.85,-45.43 26.22,-35.8 32.11,-27.96"/>
<polygon fill="#63b8ff" stroke="#63b8ff" points="35.41,-30.42 38.86,-20.4 29.92,-26.08 35.41,-30.42"/>
</a>
</g>
</g>
<!-- Node5 -->
<g id="Node000005" class="node">
<title>Node5</title>
<g id="a_Node000005"><a xlink:href="$controller__base_8hpp.html" xlink:title=": @history : Version Date Author Note V0.9.0 2023&#45;11&#45;25 Caikunzhen 1.">
<polygon fill="white" stroke="#666666" points="114.17,-129 13.17,-129 13.17,-110 114.17,-110 114.17,-129"/>
<text text-anchor="middle" x="63.67" y="-117" font-family="Helvetica,sans-Serif" font-size="10.00">controller_base.hpp</text>
</a>
</g>
</g>
<!-- Node2&#45;&gt;Node5 -->
<g id="edge38_Node000002_Node000005" class="edge">
<title>Node2&#45;&gt;Node5</title>
<g id="a_edge38_Node000002_Node000005"><a xlink:title=" ">
<path fill="none" stroke="#63b8ff" d="M91.41,-221.5C73.61,-214.96 50.69,-203.23 39.67,-184 31.18,-169.19 39.98,-150.81 49.22,-137.64"/>
<polygon fill="#63b8ff" stroke="#63b8ff" points="52.47,-140.16 55.79,-130.1 46.92,-135.9 52.47,-140.16"/>
</a>
</g>
</g>
<!-- Node7 -->
<g id="Node000007" class="node">
<title>Node7</title>
<g id="a_Node000007"><a xlink:href="$system_8hpp.html" xlink:title=" ">
<polygon fill="white" stroke="#666666" points="158.67,-74 90.67,-74 90.67,-55 158.67,-55 158.67,-74"/>
<text text-anchor="middle" x="124.67" y="-62" font-family="Helvetica,sans-Serif" font-size="10.00">system.hpp</text>
</a>
</g>
</g>
<!-- Node2&#45;&gt;Node7 -->
<g id="edge44_Node000002_Node000007" class="edge">
<title>Node2&#45;&gt;Node7</title>
<g id="a_edge44_Node000002_Node000007"><a xlink:title=" ">
<path fill="none" stroke="#63b8ff" d="M117.99,-219.71C120.21,-210.79 123.41,-196.55 124.67,-184 128.13,-149.47 127.03,-108.99 125.87,-85.4"/>
<polygon fill="#63b8ff" stroke="#63b8ff" points="129.32,-85.24 125.27,-75.45 122.33,-85.63 129.32,-85.24"/>
</a>
</g>
</g>
<!-- Node8 -->
<g id="Node000008" class="node">
<title>Node8</title>
<g id="a_Node000008"><a xlink:href="$pid__opt_8hpp.html" xlink:title=" ">
<polygon fill="white" stroke="#666666" points="116.17,-184 49.17,-184 49.17,-165 116.17,-165 116.17,-184"/>
<text text-anchor="middle" x="82.67" y="-172" font-family="Helvetica,sans-Serif" font-size="10.00">pid_opt.hpp</text>
</a>
</g>
</g>
<!-- Node2&#45;&gt;Node8 -->
<g id="edge42_Node000002_Node000008" class="edge">
<title>Node2&#45;&gt;Node8</title>
<g id="a_edge42_Node000002_Node000008"><a xlink:title=" ">
<path fill="none" stroke="#63b8ff" d="M110.22,-219.75C105.8,-212.66 99.43,-202.42 93.93,-193.59"/>
<polygon fill="#63b8ff" stroke="#63b8ff" points="96.49,-192.08 88.24,-185.44 90.55,-195.78 96.49,-192.08"/>
</a>
</g>
</g>
<!-- Node6 -->
<g id="Node000006" class="node">
<title>Node6</title>
<g id="a_Node000006"><a xlink:title=" ">
<polygon fill="#e0e0e0" stroke="#999999" points="72.67,-74 24.67,-74 24.67,-55 72.67,-55 72.67,-74"/>
<text text-anchor="middle" x="48.67" y="-62" font-family="Helvetica,sans-Serif" font-size="10.00">cstddef</text>
</a>
</g>
</g>
<!-- Node5&#45;&gt;Node6 -->
<g id="edge39_Node000005_Node000006" class="edge">
<title>Node5&#45;&gt;Node6</title>
<g id="a_edge39_Node000005_Node000006"><a xlink:title=" ">
<path fill="none" stroke="#63b8ff" d="M61.19,-109.75C59.29,-103.04 56.6,-93.52 54.19,-85.02"/>
<polygon fill="#63b8ff" stroke="#63b8ff" points="57.29,-84.11 51.2,-75.44 50.55,-86.02 57.29,-84.11"/>
</a>
</g>
</g>
<!-- Node5&#45;&gt;Node7 -->
<g id="edge40_Node000005_Node000007" class="edge">
<title>Node5&#45;&gt;Node7</title>
<g id="a_edge40_Node000005_Node000007"><a xlink:title=" ">
<path fill="none" stroke="#63b8ff" d="M74.02,-109.51C82.83,-101.85 95.72,-90.66 106.28,-81.47"/>
<polygon fill="#63b8ff" stroke="#63b8ff" points="108.22,-83.56 113.47,-74.36 103.63,-78.27 108.22,-83.56"/>
</a>
</g>
</g>
<!-- Node7&#45;&gt;Node4 -->
<g id="edge41_Node000007_Node000004" class="edge">
<title>Node7&#45;&gt;Node4</title>
<g id="a_edge41_Node000007_Node000004"><a xlink:title=" ">
<path fill="none" stroke="#63b8ff" d="M111.44,-54.51C99.71,-46.54 82.36,-34.75 68.57,-25.38"/>
<polygon fill="#63b8ff" stroke="#63b8ff" points="70.94,-22.08 60.7,-19.36 67.01,-27.87 70.94,-22.08"/>
</a>
</g>
</g>
<!-- Node8&#45;&gt;Node5 -->
<g id="edge43_Node000008_Node000005" class="edge">
<title>Node8&#45;&gt;Node5</title>
<g id="a_edge43_Node000008_Node000005"><a xlink:title=" ">
<path fill="none" stroke="#63b8ff" d="M79.53,-164.75C77.1,-157.96 73.63,-148.3 70.56,-139.73"/>
<polygon fill="#63b8ff" stroke="#63b8ff" points="73.54,-138.67 66.87,-130.44 66.95,-141.04 73.54,-138.67"/>
</a>
</g>
</g>
<!-- Node9&#45;&gt;Node3 -->
<g id="edge48_Node000009_Node000003" class="edge">
<title>Node9&#45;&gt;Node3</title>
<g id="a_edge48_Node000009_Node000003"><a xlink:title=" ">
<path fill="none" stroke="#63b8ff" d="M246.32,-219.51C237.5,-211.85 224.62,-200.66 214.05,-191.47"/>
<polygon fill="#63b8ff" stroke="#63b8ff" points="216.71,-188.27 206.86,-184.36 212.12,-193.56 216.71,-188.27"/>
</a>
</g>
</g>
<!-- Node10 -->
<g id="Node000010" class="node">
<title>Node10</title>
<g id="a_Node000010"><a xlink:title=" ">
<polygon fill="#e0e0e0" stroke="#999999" points="280.67,-184 236.67,-184 236.67,-165 280.67,-165 280.67,-184"/>
<text text-anchor="middle" x="258.67" y="-172" font-family="Helvetica,sans-Serif" font-size="10.00">cmath</text>
</a>
</g>
</g>
<!-- Node9&#45;&gt;Node10 -->
<g id="edge47_Node000009_Node000010" class="edge">
<title>Node9&#45;&gt;Node10</title>
<g id="a_edge47_Node000009_Node000010"><a xlink:title=" ">
<path fill="none" stroke="#63b8ff" d="M257,-219.75C257.25,-213.11 257.6,-203.73 257.92,-195.31"/>
<polygon fill="#63b8ff" stroke="#63b8ff" points="261.45,-195.57 258.33,-185.44 254.46,-195.3 261.45,-195.57"/>
</a>
</g>
</g>
<!-- Node11 -->
<g id="Node000011" class="node">
<title>Node11</title>
<g id="a_Node000011"><a xlink:href="$assert_8hpp.html" xlink:title=": @history : Version Date Author Note V0.9.0 yyyy&#45;mm&#45;dd &lt;author&gt; 1.">
<polygon fill="white" stroke="#666666" points="360.67,-184 298.67,-184 298.67,-165 360.67,-165 360.67,-184"/>
<text text-anchor="middle" x="329.67" y="-172" font-family="Helvetica,sans-Serif" font-size="10.00">assert.hpp</text>
</a>
</g>
</g>
<!-- Node9&#45;&gt;Node11 -->
<g id="edge49_Node000009_Node000011" class="edge">
<title>Node9&#45;&gt;Node11</title>
<g id="a_edge49_Node000009_Node000011"><a xlink:title=" ">
<path fill="none" stroke="#63b8ff" d="M269.05,-219.51C279.92,-211.62 295.95,-199.98 308.8,-190.65"/>
<polygon fill="#63b8ff" stroke="#63b8ff" points="310.43,-193.07 316.47,-184.36 306.32,-187.4 310.43,-193.07"/>
</a>
</g>
</g>
<!-- Node13 -->
<g id="Node000013" class="node">
<title>Node13</title>
<g id="a_Node000013"><a xlink:title=" ">
<polygon fill="#e0e0e0" stroke="#999999" points="428.17,-184 379.17,-184 379.17,-165 428.17,-165 428.17,-184"/>
<text text-anchor="middle" x="403.67" y="-172" font-family="Helvetica,sans-Serif" font-size="10.00">stdint.h</text>
</a>
</g>
</g>
<!-- Node12&#45;&gt;Node13 -->
<g id="edge51_Node000012_Node000013" class="edge">
<title>Node12&#45;&gt;Node13</title>
<g id="a_edge51_Node000012_Node000013"><a xlink:title=" ">
<path fill="none" stroke="#63b8ff" d="M372.78,-219.75C377.78,-212.58 385.03,-202.2 391.24,-193.3"/>
<polygon fill="#63b8ff" stroke="#63b8ff" points="394.57,-195.65 397.43,-185.44 388.83,-191.64 394.57,-195.65"/>
</a>
</g>
</g>
</g>
</svg>
