<?xml version="1.0" encoding="UTF-8" standalone="no"?>
<!DOCTYPE svg PUBLIC "-//W3C//DTD SVG 1.1//EN"
 "http://www.w3.org/Graphics/SVG/1.1/DTD/svg11.dtd">
<!-- Generated by graphviz version 8.0.3 (20230416.2022)
 -->
<!-- Title: HW&#45;Components/algorithms/controller/inc/pid.hpp Pages: 1 -->
<svg width="258pt" height="258pt"
 viewBox="0.00 0.00 258.00 258.00" xmlns="http://www.w3.org/2000/svg" xmlns:xlink="http://www.w3.org/1999/xlink">
<g id="graph0" class="graph" transform="scale(1 1) rotate(0) translate(4 254)">
<title>HW&#45;Components/algorithms/controller/inc/pid.hpp</title>
<!-- Node1 -->
<g id="Node000001" class="node">
<title>Node1</title>
<g id="a_Node000001"><a xlink:title=" ">
<polygon fill="#999999" stroke="#666666" points="181.5,-250 42.5,-250 42.5,-220 181.5,-220 181.5,-250"/>
<text text-anchor="start" x="50.5" y="-238" font-family="Helvetica,sans-Serif" font-size="10.00">HW&#45;Components/algorithms</text>
<text text-anchor="middle" x="112" y="-227" font-family="Helvetica,sans-Serif" font-size="10.00">/controller/inc/pid.hpp</text>
</a>
</g>
</g>
<!-- Node2 -->
<g id="Node000002" class="node">
<title>Node2</title>
<g id="a_Node000002"><a xlink:title=" ">
<polygon fill="#e0e0e0" stroke="#999999" points="46,-184 0,-184 0,-165 46,-165 46,-184"/>
<text text-anchor="middle" x="23" y="-172" font-family="Helvetica,sans-Serif" font-size="10.00">cstdint</text>
</a>
</g>
</g>
<!-- Node1&#45;&gt;Node2 -->
<g id="edge19_Node000001_Node000002" class="edge">
<title>Node1&#45;&gt;Node2</title>
<g id="a_edge19_Node000001_Node000002"><a xlink:title=" ">
<path fill="none" stroke="#63b8ff" d="M90,-219.54C76.5,-210.66 59.24,-199.32 45.63,-190.37"/>
<polygon fill="#63b8ff" stroke="#63b8ff" points="47.74,-186.91 37.46,-184.35 43.89,-192.76 47.74,-186.91"/>
</a>
</g>
</g>
<!-- Node3 -->
<g id="Node000003" class="node">
<title>Node3</title>
<g id="a_Node000003"><a xlink:title=" ">
<polygon fill="#e0e0e0" stroke="#999999" points="160.5,-19 115.5,-19 115.5,0 160.5,0 160.5,-19"/>
<text text-anchor="middle" x="138" y="-7" font-family="Helvetica,sans-Serif" font-size="10.00">cstdlib</text>
</a>
</g>
</g>
<!-- Node1&#45;&gt;Node3 -->
<g id="edge20_Node000001_Node000003" class="edge">
<title>Node1&#45;&gt;Node3</title>
<g id="a_edge20_Node000001_Node000003"><a xlink:title=" ">
<path fill="none" stroke="#63b8ff" d="M107.71,-219.52C101.37,-196.42 90.71,-149.75 95,-110 97.68,-85.12 96.99,-77.93 107,-55 111.18,-45.43 117.55,-35.8 123.44,-27.96"/>
<polygon fill="#63b8ff" stroke="#63b8ff" points="126.74,-30.42 130.2,-20.4 121.25,-26.08 126.74,-30.42"/>
</a>
</g>
</g>
<!-- Node4 -->
<g id="Node000004" class="node">
<title>Node4</title>
<g id="a_Node000004"><a xlink:href="$controller__base_8hpp.html" xlink:title=": @history : Version Date Author Note V0.9.0 2023&#45;11&#45;25 Caikunzhen 1.">
<polygon fill="white" stroke="#666666" points="205.5,-129 104.5,-129 104.5,-110 205.5,-110 205.5,-129"/>
<text text-anchor="middle" x="155" y="-117" font-family="Helvetica,sans-Serif" font-size="10.00">controller_base.hpp</text>
</a>
</g>
</g>
<!-- Node1&#45;&gt;Node4 -->
<g id="edge21_Node000001_Node000004" class="edge">
<title>Node1&#45;&gt;Node4</title>
<g id="a_edge21_Node000001_Node000004"><a xlink:title=" ">
<path fill="none" stroke="#63b8ff" d="M115.27,-219.72C118.72,-205.58 124.65,-183.42 132,-165 135.5,-156.23 140.17,-146.89 144.39,-139.04"/>
<polygon fill="#63b8ff" stroke="#63b8ff" points="147.91,-140.9 149.71,-130.46 141.79,-137.5 147.91,-140.9"/>
</a>
</g>
</g>
<!-- Node6 -->
<g id="Node000006" class="node">
<title>Node6</title>
<g id="a_Node000006"><a xlink:href="$system_8hpp.html" xlink:title=" ">
<polygon fill="white" stroke="#666666" points="250,-74 182,-74 182,-55 250,-55 250,-74"/>
<text text-anchor="middle" x="216" y="-62" font-family="Helvetica,sans-Serif" font-size="10.00">system.hpp</text>
</a>
</g>
</g>
<!-- Node1&#45;&gt;Node6 -->
<g id="edge27_Node000001_Node000006" class="edge">
<title>Node1&#45;&gt;Node6</title>
<g id="a_edge27_Node000001_Node000006"><a xlink:title=" ">
<path fill="none" stroke="#63b8ff" d="M170.27,-219.61C188.39,-212.09 206.38,-200.82 217,-184 236.15,-153.66 228.75,-109.67 222.08,-84.7"/>
<polygon fill="#63b8ff" stroke="#63b8ff" points="225.24,-84.02 219.08,-75.4 218.52,-85.98 225.24,-84.02"/>
</a>
</g>
</g>
<!-- Node7 -->
<g id="Node000007" class="node">
<title>Node7</title>
<g id="a_Node000007"><a xlink:href="$pid__opt_8hpp.html" xlink:title=" ">
<polygon fill="white" stroke="#666666" points="207.5,-184 140.5,-184 140.5,-165 207.5,-165 207.5,-184"/>
<text text-anchor="middle" x="174" y="-172" font-family="Helvetica,sans-Serif" font-size="10.00">pid_opt.hpp</text>
</a>
</g>
</g>
<!-- Node1&#45;&gt;Node7 -->
<g id="edge25_Node000001_Node000007" class="edge">
<title>Node1&#45;&gt;Node7</title>
<g id="a_edge25_Node000001_Node000007"><a xlink:title=" ">
<path fill="none" stroke="#63b8ff" d="M127.33,-219.54C136.33,-211.04 147.73,-200.29 157.01,-191.53"/>
<polygon fill="#63b8ff" stroke="#63b8ff" points="158.93,-194.58 163.81,-185.18 154.13,-189.49 158.93,-194.58"/>
</a>
</g>
</g>
<!-- Node5 -->
<g id="Node000005" class="node">
<title>Node5</title>
<g id="a_Node000005"><a xlink:title=" ">
<polygon fill="#e0e0e0" stroke="#999999" points="164,-74 116,-74 116,-55 164,-55 164,-74"/>
<text text-anchor="middle" x="140" y="-62" font-family="Helvetica,sans-Serif" font-size="10.00">cstddef</text>
</a>
</g>
</g>
<!-- Node4&#45;&gt;Node5 -->
<g id="edge22_Node000004_Node000005" class="edge">
<title>Node4&#45;&gt;Node5</title>
<g id="a_edge22_Node000004_Node000005"><a xlink:title=" ">
<path fill="none" stroke="#63b8ff" d="M152.52,-109.75C150.62,-103.04 147.93,-93.52 145.53,-85.02"/>
<polygon fill="#63b8ff" stroke="#63b8ff" points="148.62,-84.11 142.53,-75.44 141.89,-86.02 148.62,-84.11"/>
</a>
</g>
</g>
<!-- Node4&#45;&gt;Node6 -->
<g id="edge23_Node000004_Node000006" class="edge">
<title>Node4&#45;&gt;Node6</title>
<g id="a_edge23_Node000004_Node000006"><a xlink:title=" ">
<path fill="none" stroke="#63b8ff" d="M165.35,-109.51C174.16,-101.85 187.05,-90.66 197.61,-81.47"/>
<polygon fill="#63b8ff" stroke="#63b8ff" points="199.55,-83.56 204.81,-74.36 194.96,-78.27 199.55,-83.56"/>
</a>
</g>
</g>
<!-- Node6&#45;&gt;Node3 -->
<g id="edge24_Node000006_Node000003" class="edge">
<title>Node6&#45;&gt;Node3</title>
<g id="a_edge24_Node000006_Node000003"><a xlink:title=" ">
<path fill="none" stroke="#63b8ff" d="M202.77,-54.51C191.04,-46.54 173.7,-34.75 159.9,-25.38"/>
<polygon fill="#63b8ff" stroke="#63b8ff" points="162.27,-22.08 152.04,-19.36 158.34,-27.87 162.27,-22.08"/>
</a>
</g>
</g>
<!-- Node7&#45;&gt;Node4 -->
<g id="edge26_Node000007_Node000004" class="edge">
<title>Node7&#45;&gt;Node4</title>
<g id="a_edge26_Node000007_Node000004"><a xlink:title=" ">
<path fill="none" stroke="#63b8ff" d="M170.86,-164.75C168.43,-157.96 164.97,-148.3 161.9,-139.73"/>
<polygon fill="#63b8ff" stroke="#63b8ff" points="164.87,-138.67 158.21,-130.44 158.29,-141.04 164.87,-138.67"/>
</a>
</g>
</g>
</g>
</svg>
