<?xml version="1.0" encoding="UTF-8" standalone="no"?>
<!DOCTYPE svg PUBLIC "-//W3C//DTD SVG 1.1//EN"
 "http://www.w3.org/Graphics/SVG/1.1/DTD/svg11.dtd">
<!-- Generated by graphviz version 8.0.3 (20230416.2022)
 -->
<!-- Title: HW&#45;Components/devices/referee/inc/referee_rx_template.hpp Pages: 1 -->
<svg width="258pt" height="159pt"
 viewBox="0.00 0.00 257.86 159.00" xmlns="http://www.w3.org/2000/svg" xmlns:xlink="http://www.w3.org/1999/xlink">
<g id="graph0" class="graph" transform="scale(1 1) rotate(0) translate(4 155)">
<title>HW&#45;Components/devices/referee/inc/referee_rx_template.hpp</title>
<!-- Node1 -->
<g id="Node000001" class="node">
<title>Node1</title>
<g id="a_Node000001"><a xlink:title=" ">
<polygon fill="#999999" stroke="#666666" points="144.36,-151 18.36,-151 18.36,-110 144.36,-110 144.36,-151"/>
<text text-anchor="start" x="26.36" y="-139" font-family="Helvetica,sans-Serif" font-size="10.00">HW&#45;Components/devices</text>
<text text-anchor="start" x="26.36" y="-128" font-family="Helvetica,sans-Serif" font-size="10.00">/referee/inc/referee</text>
<text text-anchor="middle" x="81.36" y="-117" font-family="Helvetica,sans-Serif" font-size="10.00">_rx_template.hpp</text>
</a>
</g>
</g>
<!-- Node2 -->
<g id="Node000002" class="node">
<title>Node2</title>
<g id="a_Node000002"><a xlink:title=" ">
<polygon fill="#e0e0e0" stroke="#999999" points="47.36,-19 1.36,-19 1.36,0 47.36,0 47.36,-19"/>
<text text-anchor="middle" x="24.36" y="-7" font-family="Helvetica,sans-Serif" font-size="10.00">cstdint</text>
</a>
</g>
</g>
<!-- Node1&#45;&gt;Node2 -->
<g id="edge15_Node000001_Node000002" class="edge">
<title>Node1&#45;&gt;Node2</title>
<g id="a_edge15_Node000001_Node000002"><a xlink:title=" ">
<path fill="none" stroke="#63b8ff" d="M38.67,-109.51C24.82,-100.7 11.06,-88.92 3.36,-74 -4.19,-59.36 3.07,-41.45 11.05,-28.39"/>
<polygon fill="#63b8ff" stroke="#63b8ff" points="14.37,-30.72 17.06,-20.48 8.57,-26.81 14.37,-30.72"/>
</a>
</g>
</g>
<!-- Node3 -->
<g id="Node000003" class="node">
<title>Node3</title>
<g id="a_Node000003"><a xlink:title=" ">
<polygon fill="#e0e0e0" stroke="#999999" points="58.36,-74 12.36,-74 12.36,-55 58.36,-55 58.36,-74"/>
<text text-anchor="middle" x="35.36" y="-62" font-family="Helvetica,sans-Serif" font-size="10.00">cstring</text>
</a>
</g>
</g>
<!-- Node1&#45;&gt;Node3 -->
<g id="edge16_Node000001_Node000003" class="edge">
<title>Node1&#45;&gt;Node3</title>
<g id="a_edge16_Node000001_Node000003"><a xlink:title=" ">
<path fill="none" stroke="#63b8ff" d="M67.06,-109.6C60.92,-101.06 53.8,-91.16 47.88,-82.91"/>
<polygon fill="#63b8ff" stroke="#63b8ff" points="50.27,-81.24 41.59,-75.16 44.58,-85.33 50.27,-81.24"/>
</a>
</g>
</g>
<!-- Node4 -->
<g id="Node000004" class="node">
<title>Node4</title>
<g id="a_Node000004"><a xlink:href="$referee__protocol_8hpp.html" xlink:title=" ">
<polygon fill="white" stroke="#666666" points="180.36,-74 76.36,-74 76.36,-55 180.36,-55 180.36,-74"/>
<text text-anchor="middle" x="128.36" y="-62" font-family="Helvetica,sans-Serif" font-size="10.00">referee_protocol.hpp</text>
</a>
</g>
</g>
<!-- Node1&#45;&gt;Node4 -->
<g id="edge17_Node000001_Node000004" class="edge">
<title>Node1&#45;&gt;Node4</title>
<g id="a_edge17_Node000001_Node000004"><a xlink:title=" ">
<path fill="none" stroke="#63b8ff" d="M95.97,-109.6C102.25,-101.06 109.52,-91.16 115.57,-82.91"/>
<polygon fill="#63b8ff" stroke="#63b8ff" points="118.9,-85.29 122,-75.16 113.26,-81.15 118.9,-85.29"/>
</a>
</g>
</g>
<!-- Node6 -->
<g id="Node000006" class="node">
<title>Node6</title>
<g id="a_Node000006"><a xlink:href="$tick_8hpp.html" xlink:title=" ">
<polygon fill="white" stroke="#666666" points="249.86,-74 198.86,-74 198.86,-55 249.86,-55 249.86,-74"/>
<text text-anchor="middle" x="224.36" y="-62" font-family="Helvetica,sans-Serif" font-size="10.00">tick.hpp</text>
</a>
</g>
</g>
<!-- Node1&#45;&gt;Node6 -->
<g id="edge20_Node000001_Node000006" class="edge">
<title>Node1&#45;&gt;Node6</title>
<g id="a_edge20_Node000001_Node000006"><a xlink:title=" ">
<path fill="none" stroke="#63b8ff" d="M125.82,-109.6C148.2,-99.59 174.72,-87.72 194.61,-78.81"/>
<polygon fill="#63b8ff" stroke="#63b8ff" points="195.93,-81.61 203.63,-74.33 193.07,-75.22 195.93,-81.61"/>
</a>
</g>
</g>
<!-- Node4&#45;&gt;Node2 -->
<g id="edge19_Node000004_Node000002" class="edge">
<title>Node4&#45;&gt;Node2</title>
<g id="a_edge19_Node000004_Node000002"><a xlink:title=" ">
<path fill="none" stroke="#63b8ff" d="M110.72,-54.51C94.49,-46.24 70.16,-33.84 51.47,-24.31"/>
<polygon fill="#63b8ff" stroke="#63b8ff" points="53.24,-20.78 42.74,-19.36 50.06,-27.02 53.24,-20.78"/>
</a>
</g>
</g>
<!-- Node5 -->
<g id="Node000005" class="node">
<title>Node5</title>
<g id="a_Node000005"><a xlink:title=" ">
<polygon fill="#e0e0e0" stroke="#999999" points="152.36,-19 104.36,-19 104.36,0 152.36,0 152.36,-19"/>
<text text-anchor="middle" x="128.36" y="-7" font-family="Helvetica,sans-Serif" font-size="10.00">cstddef</text>
</a>
</g>
</g>
<!-- Node4&#45;&gt;Node5 -->
<g id="edge18_Node000004_Node000005" class="edge">
<title>Node4&#45;&gt;Node5</title>
<g id="a_edge18_Node000004_Node000005"><a xlink:title=" ">
<path fill="none" stroke="#63b8ff" d="M128.36,-54.75C128.36,-48.11 128.36,-38.73 128.36,-30.31"/>
<polygon fill="#63b8ff" stroke="#63b8ff" points="131.86,-30.44 128.36,-20.44 124.86,-30.44 131.86,-30.44"/>
</a>
</g>
</g>
<!-- Node7 -->
<g id="Node000007" class="node">
<title>Node7</title>
<g id="a_Node000007"><a xlink:title=" ">
<polygon fill="#e0e0e0" stroke="#999999" points="248.86,-19 199.86,-19 199.86,0 248.86,0 248.86,-19"/>
<text text-anchor="middle" x="224.36" y="-7" font-family="Helvetica,sans-Serif" font-size="10.00">stdint.h</text>
</a>
</g>
</g>
<!-- Node6&#45;&gt;Node7 -->
<g id="edge21_Node000006_Node000007" class="edge">
<title>Node6&#45;&gt;Node7</title>
<g id="a_edge21_Node000006_Node000007"><a xlink:title=" ">
<path fill="none" stroke="#63b8ff" d="M224.36,-54.75C224.36,-48.11 224.36,-38.73 224.36,-30.31"/>
<polygon fill="#63b8ff" stroke="#63b8ff" points="227.86,-30.44 224.36,-20.44 220.86,-30.44 227.86,-30.44"/>
</a>
</g>
</g>
</g>
</svg>
