<?xml version="1.0" encoding="UTF-8" standalone="no"?>
<!DOCTYPE svg PUBLIC "-//W3C//DTD SVG 1.1//EN"
 "http://www.w3.org/Graphics/SVG/1.1/DTD/svg11.dtd">
<!-- Generated by graphviz version 8.0.3 (20230416.2022)
 -->
<!-- Title: HW&#45;Components/devices/referee/inc/referee_custom_define.hpp Pages: 1 -->
<svg width="278pt" height="192pt"
 viewBox="0.00 0.00 278.00 192.00" xmlns="http://www.w3.org/2000/svg" xmlns:xlink="http://www.w3.org/1999/xlink">
<g id="graph0" class="graph" transform="scale(1 1) rotate(0) translate(4 188)">
<title>HW&#45;Components/devices/referee/inc/referee_custom_define.hpp</title>
<!-- Node1 -->
<g id="Node000001" class="node">
<title>Node1</title>
<g id="a_Node000001"><a xlink:title=" ">
<polygon fill="#999999" stroke="#666666" points="198,-184 72,-184 72,-143 198,-143 198,-184"/>
<text text-anchor="start" x="80" y="-172" font-family="Helvetica,sans-Serif" font-size="10.00">HW&#45;Components/devices</text>
<text text-anchor="start" x="80" y="-161" font-family="Helvetica,sans-Serif" font-size="10.00">/referee/inc/referee</text>
<text text-anchor="middle" x="135" y="-150" font-family="Helvetica,sans-Serif" font-size="10.00">_custom_define.hpp</text>
</a>
</g>
</g>
<!-- Node2 -->
<g id="Node000002" class="node">
<title>Node2</title>
<g id="a_Node000002"><a xlink:href="$referee_8hpp.html" xlink:title=" ">
<polygon fill="white" stroke="#666666" points="126,-101.5 0,-101.5 0,-71.5 126,-71.5 126,-101.5"/>
<text text-anchor="start" x="8" y="-89.5" font-family="Helvetica,sans-Serif" font-size="10.00">HW&#45;Components/devices</text>
<text text-anchor="middle" x="63" y="-78.5" font-family="Helvetica,sans-Serif" font-size="10.00">/referee/inc/referee.hpp</text>
</a>
</g>
</g>
<!-- Node1&#45;&gt;Node2 -->
<g id="edge9_Node000001_Node000002" class="edge">
<title>Node1&#45;&gt;Node2</title>
<g id="a_edge9_Node000001_Node000002"><a xlink:title=" ">
<path fill="none" stroke="#63b8ff" d="M108.52,-134.92C97.75,-123.7 85.76,-111.21 76.79,-101.86"/>
<polygon fill="#63b8ff" stroke="#63b8ff" points="105.63,-137 115.08,-141.79 110.68,-132.16 105.63,-137"/>
</a>
</g>
</g>
<!-- Node4 -->
<g id="Node000004" class="node">
<title>Node4</title>
<g id="a_Node000004"><a xlink:href="$referee__size__check_8hpp.html" xlink:title=" ">
<polygon fill="white" stroke="#666666" points="270,-107 144,-107 144,-66 270,-66 270,-107"/>
<text text-anchor="start" x="152" y="-95" font-family="Helvetica,sans-Serif" font-size="10.00">HW&#45;Components/devices</text>
<text text-anchor="start" x="152" y="-84" font-family="Helvetica,sans-Serif" font-size="10.00">/referee/prv/referee</text>
<text text-anchor="middle" x="207" y="-73" font-family="Helvetica,sans-Serif" font-size="10.00">_size_check.hpp</text>
</a>
</g>
</g>
<!-- Node1&#45;&gt;Node4 -->
<g id="edge11_Node000001_Node000004" class="edge">
<title>Node1&#45;&gt;Node4</title>
<g id="a_edge11_Node000001_Node000004"><a xlink:title=" ">
<path fill="none" stroke="#63b8ff" d="M161.38,-135.02C170.19,-125.84 179.82,-115.81 187.96,-107.33"/>
<polygon fill="#63b8ff" stroke="#63b8ff" points="159.32,-132.16 154.92,-141.79 164.37,-137 159.32,-132.16"/>
</a>
</g>
</g>
<!-- Node3 -->
<g id="Node000003" class="node">
<title>Node3</title>
<g id="a_Node000003"><a xlink:href="$referee_8cpp.html" xlink:title=" ">
<polygon fill="white" stroke="#666666" points="198,-30 72,-30 72,0 198,0 198,-30"/>
<text text-anchor="start" x="80" y="-18" font-family="Helvetica,sans-Serif" font-size="10.00">HW&#45;Components/devices</text>
<text text-anchor="middle" x="135" y="-7" font-family="Helvetica,sans-Serif" font-size="10.00">/referee/src/referee.cpp</text>
</a>
</g>
</g>
<!-- Node2&#45;&gt;Node3 -->
<g id="edge10_Node000002_Node000003" class="edge">
<title>Node2&#45;&gt;Node3</title>
<g id="a_edge10_Node000002_Node000003"><a xlink:title=" ">
<path fill="none" stroke="#63b8ff" d="M85.67,-63.62C96.91,-52.77 110.16,-39.98 120.1,-30.38"/>
<polygon fill="#63b8ff" stroke="#63b8ff" points="83.68,-60.64 78.92,-70.1 88.54,-65.67 83.68,-60.64"/>
</a>
</g>
</g>
<!-- Node4&#45;&gt;Node3 -->
<g id="edge12_Node000004_Node000003" class="edge">
<title>Node4&#45;&gt;Node3</title>
<g id="a_edge12_Node000004_Node000003"><a xlink:title=" ">
<path fill="none" stroke="#63b8ff" d="M178.9,-58.37C169.04,-48.86 158.36,-38.54 149.99,-30.47"/>
<polygon fill="#63b8ff" stroke="#63b8ff" points="175.93,-60.34 185.56,-64.77 180.8,-55.31 175.93,-60.34"/>
</a>
</g>
</g>
</g>
</svg>
