<?xml version="1.0" encoding="UTF-8" standalone="no"?>
<!DOCTYPE svg PUBLIC "-//W3C//DTD SVG 1.1//EN"
 "http://www.w3.org/Graphics/SVG/1.1/DTD/svg11.dtd">
<!-- Generated by graphviz version 8.0.3 (20230416.2022)
 -->
<!-- Title: HW&#45;Components/devices/referee/inc/referee_custom_define.hpp Pages: 1 -->
<svg width="284pt" height="214pt"
 viewBox="0.00 0.00 283.50 214.00" xmlns="http://www.w3.org/2000/svg" xmlns:xlink="http://www.w3.org/1999/xlink">
<g id="graph0" class="graph" transform="scale(1 1) rotate(0) translate(4 210)">
<title>HW&#45;Components/devices/referee/inc/referee_custom_define.hpp</title>
<!-- Node1 -->
<g id="Node000001" class="node">
<title>Node1</title>
<g id="a_Node000001"><a xlink:title=" ">
<polygon fill="#999999" stroke="#666666" points="159,-206 33,-206 33,-165 159,-165 159,-206"/>
<text text-anchor="start" x="41" y="-194" font-family="Helvetica,sans-Serif" font-size="10.00">HW&#45;Components/devices</text>
<text text-anchor="start" x="41" y="-183" font-family="Helvetica,sans-Serif" font-size="10.00">/referee/inc/referee</text>
<text text-anchor="middle" x="96" y="-172" font-family="Helvetica,sans-Serif" font-size="10.00">_custom_define.hpp</text>
</a>
</g>
</g>
<!-- Node2 -->
<g id="Node000002" class="node">
<title>Node2</title>
<g id="a_Node000002"><a xlink:href="$referee__protocol_8hpp.html" xlink:title=" ">
<polygon fill="white" stroke="#666666" points="104,-74 0,-74 0,-55 104,-55 104,-74"/>
<text text-anchor="middle" x="52" y="-62" font-family="Helvetica,sans-Serif" font-size="10.00">referee_protocol.hpp</text>
</a>
</g>
</g>
<!-- Node1&#45;&gt;Node2 -->
<g id="edge19_Node000001_Node000002" class="edge">
<title>Node1&#45;&gt;Node2</title>
<g id="a_edge19_Node000001_Node000002"><a xlink:title=" ">
<path fill="none" stroke="#63b8ff" d="M86.32,-164.73C81.39,-154.25 75.51,-141.08 71,-129 65.52,-114.31 60.49,-97.26 56.98,-84.53"/>
<polygon fill="#63b8ff" stroke="#63b8ff" points="60.2,-84 54.22,-75.25 53.44,-85.81 60.2,-84"/>
</a>
</g>
</g>
<!-- Node5 -->
<g id="Node000005" class="node">
<title>Node5</title>
<g id="a_Node000005"><a xlink:href="$referee__rx__template_8hpp.html" xlink:title=" ">
<polygon fill="white" stroke="#666666" points="201.5,-129 80.5,-129 80.5,-110 201.5,-110 201.5,-129"/>
<text text-anchor="middle" x="141" y="-117" font-family="Helvetica,sans-Serif" font-size="10.00">referee_rx_template.hpp</text>
</a>
</g>
</g>
<!-- Node1&#45;&gt;Node5 -->
<g id="edge22_Node000001_Node000005" class="edge">
<title>Node1&#45;&gt;Node5</title>
<g id="a_edge22_Node000001_Node000005"><a xlink:title=" ">
<path fill="none" stroke="#63b8ff" d="M109.99,-164.6C116,-156.06 122.96,-146.16 128.76,-137.91"/>
<polygon fill="#63b8ff" stroke="#63b8ff" points="132.02,-140.36 134.91,-130.16 126.29,-136.33 132.02,-140.36"/>
</a>
</g>
</g>
<!-- Node3 -->
<g id="Node000003" class="node">
<title>Node3</title>
<g id="a_Node000003"><a xlink:title=" ">
<polygon fill="#e0e0e0" stroke="#999999" points="76,-19 28,-19 28,0 76,0 76,-19"/>
<text text-anchor="middle" x="52" y="-7" font-family="Helvetica,sans-Serif" font-size="10.00">cstddef</text>
</a>
</g>
</g>
<!-- Node2&#45;&gt;Node3 -->
<g id="edge20_Node000002_Node000003" class="edge">
<title>Node2&#45;&gt;Node3</title>
<g id="a_edge20_Node000002_Node000003"><a xlink:title=" ">
<path fill="none" stroke="#63b8ff" d="M52,-54.75C52,-48.11 52,-38.73 52,-30.31"/>
<polygon fill="#63b8ff" stroke="#63b8ff" points="55.5,-30.44 52,-20.44 48.5,-30.44 55.5,-30.44"/>
</a>
</g>
</g>
<!-- Node4 -->
<g id="Node000004" class="node">
<title>Node4</title>
<g id="a_Node000004"><a xlink:title=" ">
<polygon fill="#e0e0e0" stroke="#999999" points="148,-19 102,-19 102,0 148,0 148,-19"/>
<text text-anchor="middle" x="125" y="-7" font-family="Helvetica,sans-Serif" font-size="10.00">cstdint</text>
</a>
</g>
</g>
<!-- Node2&#45;&gt;Node4 -->
<g id="edge21_Node000002_Node000004" class="edge">
<title>Node2&#45;&gt;Node4</title>
<g id="a_edge21_Node000002_Node000004"><a xlink:title=" ">
<path fill="none" stroke="#63b8ff" d="M64.38,-54.51C75.25,-46.62 91.28,-34.98 104.13,-25.65"/>
<polygon fill="#63b8ff" stroke="#63b8ff" points="105.76,-28.07 111.8,-19.36 101.65,-22.4 105.76,-28.07"/>
</a>
</g>
</g>
<!-- Node5&#45;&gt;Node2 -->
<g id="edge25_Node000005_Node000002" class="edge">
<title>Node5&#45;&gt;Node2</title>
<g id="a_edge25_Node000005_Node000002"><a xlink:title=" ">
<path fill="none" stroke="#63b8ff" d="M125.9,-109.51C112.27,-101.39 91.97,-89.3 76.09,-79.85"/>
<polygon fill="#63b8ff" stroke="#63b8ff" points="78.26,-76.47 67.87,-74.36 74.68,-82.48 78.26,-76.47"/>
</a>
</g>
</g>
<!-- Node5&#45;&gt;Node4 -->
<g id="edge23_Node000005_Node000004" class="edge">
<title>Node5&#45;&gt;Node4</title>
<g id="a_edge23_Node000005_Node000004"><a xlink:title=" ">
<path fill="none" stroke="#63b8ff" d="M139.69,-109.66C137.14,-92.42 131.43,-53.9 127.93,-30.27"/>
<polygon fill="#63b8ff" stroke="#63b8ff" points="131.26,-29.84 126.33,-20.46 124.33,-30.87 131.26,-29.84"/>
</a>
</g>
</g>
<!-- Node6 -->
<g id="Node000006" class="node">
<title>Node6</title>
<g id="a_Node000006"><a xlink:title=" ">
<polygon fill="#e0e0e0" stroke="#999999" points="206,-74 160,-74 160,-55 206,-55 206,-74"/>
<text text-anchor="middle" x="183" y="-62" font-family="Helvetica,sans-Serif" font-size="10.00">cstring</text>
</a>
</g>
</g>
<!-- Node5&#45;&gt;Node6 -->
<g id="edge24_Node000005_Node000006" class="edge">
<title>Node5&#45;&gt;Node6</title>
<g id="a_edge24_Node000005_Node000006"><a xlink:title=" ">
<path fill="none" stroke="#63b8ff" d="M147.94,-109.75C153.68,-102.5 162.01,-91.98 169.12,-83.02"/>
<polygon fill="#63b8ff" stroke="#63b8ff" points="172.45,-85.45 175.91,-75.44 166.96,-81.11 172.45,-85.45"/>
</a>
</g>
</g>
<!-- Node7 -->
<g id="Node000007" class="node">
<title>Node7</title>
<g id="a_Node000007"><a xlink:href="$tick_8hpp.html" xlink:title=" ">
<polygon fill="white" stroke="#666666" points="275.5,-74 224.5,-74 224.5,-55 275.5,-55 275.5,-74"/>
<text text-anchor="middle" x="250" y="-62" font-family="Helvetica,sans-Serif" font-size="10.00">tick.hpp</text>
</a>
</g>
</g>
<!-- Node5&#45;&gt;Node7 -->
<g id="edge26_Node000005_Node000007" class="edge">
<title>Node5&#45;&gt;Node7</title>
<g id="a_edge26_Node000005_Node000007"><a xlink:title=" ">
<path fill="none" stroke="#63b8ff" d="M159.49,-109.51C176.66,-101.16 202.47,-88.61 222.14,-79.05"/>
<polygon fill="#63b8ff" stroke="#63b8ff" points="223.32,-81.88 230.78,-74.36 220.26,-75.58 223.32,-81.88"/>
</a>
</g>
</g>
<!-- Node8 -->
<g id="Node000008" class="node">
<title>Node8</title>
<g id="a_Node000008"><a xlink:title=" ">
<polygon fill="#e0e0e0" stroke="#999999" points="274.5,-19 225.5,-19 225.5,0 274.5,0 274.5,-19"/>
<text text-anchor="middle" x="250" y="-7" font-family="Helvetica,sans-Serif" font-size="10.00">stdint.h</text>
</a>
</g>
</g>
<!-- Node7&#45;&gt;Node8 -->
<g id="edge27_Node000007_Node000008" class="edge">
<title>Node7&#45;&gt;Node8</title>
<g id="a_edge27_Node000007_Node000008"><a xlink:title=" ">
<path fill="none" stroke="#63b8ff" d="M250,-54.75C250,-48.11 250,-38.73 250,-30.31"/>
<polygon fill="#63b8ff" stroke="#63b8ff" points="253.5,-30.44 250,-20.44 246.5,-30.44 253.5,-30.44"/>
</a>
</g>
</g>
</g>
</svg>
