<?xml version="1.0" encoding="UTF-8" standalone="no"?>
<!DOCTYPE svg PUBLIC "-//W3C//DTD SVG 1.1//EN"
 "http://www.w3.org/Graphics/SVG/1.1/DTD/svg11.dtd">
<!-- Generated by graphviz version 8.0.3 (20230416.2022)
 -->
<!-- Title: HW&#45;Components/devices/referee/inc/referee.hpp Pages: 1 -->
<svg width="295pt" height="258pt"
 viewBox="0.00 0.00 295.00 258.00" xmlns="http://www.w3.org/2000/svg" xmlns:xlink="http://www.w3.org/1999/xlink">
<g id="graph0" class="graph" transform="scale(1 1) rotate(0) translate(4 254)">
<title>HW&#45;Components/devices/referee/inc/referee.hpp</title>
<!-- Node1 -->
<g id="Node000001" class="node">
<title>Node1</title>
<g id="a_Node000001"><a xlink:title=" ">
<polygon fill="#999999" stroke="#666666" points="131,-250 5,-250 5,-220 131,-220 131,-250"/>
<text text-anchor="start" x="13" y="-238" font-family="Helvetica,sans-Serif" font-size="10.00">HW&#45;Components/devices</text>
<text text-anchor="middle" x="68" y="-227" font-family="Helvetica,sans-Serif" font-size="10.00">/referee/inc/referee.hpp</text>
</a>
</g>
</g>
<!-- Node2 -->
<g id="Node000002" class="node">
<title>Node2</title>
<g id="a_Node000002"><a xlink:title=" ">
<polygon fill="#e0e0e0" stroke="#999999" points="49,-19 1,-19 1,0 49,0 49,-19"/>
<text text-anchor="middle" x="25" y="-7" font-family="Helvetica,sans-Serif" font-size="10.00">cstddef</text>
</a>
</g>
</g>
<!-- Node1&#45;&gt;Node2 -->
<g id="edge27_Node000001_Node000002" class="edge">
<title>Node1&#45;&gt;Node2</title>
<g id="a_edge27_Node000001_Node000002"><a xlink:title=" ">
<path fill="none" stroke="#63b8ff" d="M56.6,-219.85C49.29,-210.22 40.08,-196.92 34,-184 12.3,-137.94 9.18,-124.41 2,-74 0.8,-65.64 0,-63.21 2,-55 4.25,-45.72 8.81,-36.21 13.27,-28.37"/>
<polygon fill="#63b8ff" stroke="#63b8ff" points="16.65,-30.56 18.89,-20.2 10.68,-26.9 16.65,-30.56"/>
</a>
</g>
</g>
<!-- Node3 -->
<g id="Node000003" class="node">
<title>Node3</title>
<g id="a_Node000003"><a xlink:href="$referee__custom__define_8hpp.html" xlink:title=" ">
<polygon fill="white" stroke="#666666" points="182.5,-184 49.5,-184 49.5,-165 182.5,-165 182.5,-184"/>
<text text-anchor="middle" x="116" y="-172" font-family="Helvetica,sans-Serif" font-size="10.00">referee_custom_define.hpp</text>
</a>
</g>
</g>
<!-- Node1&#45;&gt;Node3 -->
<g id="edge28_Node000001_Node000003" class="edge">
<title>Node1&#45;&gt;Node3</title>
<g id="a_edge28_Node000001_Node000003"><a xlink:title=" ">
<path fill="none" stroke="#63b8ff" d="M79.86,-219.54C86.55,-211.39 94.94,-201.16 101.95,-192.61"/>
<polygon fill="#63b8ff" stroke="#63b8ff" points="105.24,-195.13 108.88,-185.18 99.83,-190.69 105.24,-195.13"/>
</a>
</g>
</g>
<!-- Node4 -->
<g id="Node000004" class="node">
<title>Node4</title>
<g id="a_Node000004"><a xlink:href="$referee__protocol_8hpp.html" xlink:title=" ">
<polygon fill="white" stroke="#666666" points="115,-74 11,-74 11,-55 115,-55 115,-74"/>
<text text-anchor="middle" x="63" y="-62" font-family="Helvetica,sans-Serif" font-size="10.00">referee_protocol.hpp</text>
</a>
</g>
</g>
<!-- Node1&#45;&gt;Node4 -->
<g id="edge38_Node000001_Node000004" class="edge">
<title>Node1&#45;&gt;Node4</title>
<g id="a_edge38_Node000001_Node000004"><a xlink:title=" ">
<path fill="none" stroke="#63b8ff" d="M57.93,-219.92C51.7,-210.31 44.28,-197.01 41,-184 32.18,-149.13 45.12,-107.67 54.57,-84.18"/>
<polygon fill="#63b8ff" stroke="#63b8ff" points="58.13,-85.78 58.83,-75.21 51.69,-83.03 58.13,-85.78"/>
</a>
</g>
</g>
<!-- Node6 -->
<g id="Node000006" class="node">
<title>Node6</title>
<g id="a_Node000006"><a xlink:href="$referee__rx__template_8hpp.html" xlink:title=" ">
<polygon fill="white" stroke="#666666" points="245.5,-129 124.5,-129 124.5,-110 245.5,-110 245.5,-129"/>
<text text-anchor="middle" x="185" y="-117" font-family="Helvetica,sans-Serif" font-size="10.00">referee_rx_template.hpp</text>
</a>
</g>
</g>
<!-- Node1&#45;&gt;Node6 -->
<g id="edge39_Node000001_Node000006" class="edge">
<title>Node1&#45;&gt;Node6</title>
<g id="a_edge39_Node000001_Node000006"><a xlink:title=" ">
<path fill="none" stroke="#63b8ff" d="M131.32,-223.72C154.38,-216.58 178.16,-204.49 192,-184 200.82,-170.93 197.68,-152.79 193.15,-139.24"/>
<polygon fill="#63b8ff" stroke="#63b8ff" points="196.12,-138.22 189.24,-130.16 189.59,-140.75 196.12,-138.22"/>
</a>
</g>
</g>
<!-- Node3&#45;&gt;Node4 -->
<g id="edge29_Node000003_Node000004" class="edge">
<title>Node3&#45;&gt;Node4</title>
<g id="a_edge29_Node000003_Node000004"><a xlink:title=" ">
<path fill="none" stroke="#63b8ff" d="M111.66,-164.66C103.08,-147.18 83.77,-107.84 72.22,-84.3"/>
<polygon fill="#63b8ff" stroke="#63b8ff" points="74.94,-82.9 67.39,-75.46 68.66,-85.98 74.94,-82.9"/>
</a>
</g>
</g>
<!-- Node3&#45;&gt;Node6 -->
<g id="edge32_Node000003_Node000006" class="edge">
<title>Node3&#45;&gt;Node6</title>
<g id="a_edge32_Node000003_Node000006"><a xlink:title=" ">
<path fill="none" stroke="#63b8ff" d="M127.7,-164.51C137.87,-156.7 152.83,-145.21 164.91,-135.93"/>
<polygon fill="#63b8ff" stroke="#63b8ff" points="166.66,-138.23 172.46,-129.36 162.4,-132.67 166.66,-138.23"/>
</a>
</g>
</g>
<!-- Node4&#45;&gt;Node2 -->
<g id="edge30_Node000004_Node000002" class="edge">
<title>Node4&#45;&gt;Node2</title>
<g id="a_edge30_Node000004_Node000002"><a xlink:title=" ">
<path fill="none" stroke="#63b8ff" d="M56.72,-54.75C51.58,-47.58 44.14,-37.2 37.76,-28.3"/>
<polygon fill="#63b8ff" stroke="#63b8ff" points="40.08,-26.53 31.41,-20.44 34.39,-30.61 40.08,-26.53"/>
</a>
</g>
</g>
<!-- Node5 -->
<g id="Node000005" class="node">
<title>Node5</title>
<g id="a_Node000005"><a xlink:title=" ">
<polygon fill="#e0e0e0" stroke="#999999" points="120,-19 74,-19 74,0 120,0 120,-19"/>
<text text-anchor="middle" x="97" y="-7" font-family="Helvetica,sans-Serif" font-size="10.00">cstdint</text>
</a>
</g>
</g>
<!-- Node4&#45;&gt;Node5 -->
<g id="edge31_Node000004_Node000005" class="edge">
<title>Node4&#45;&gt;Node5</title>
<g id="a_edge31_Node000004_Node000005"><a xlink:title=" ">
<path fill="none" stroke="#63b8ff" d="M68.61,-54.75C73.16,-47.66 79.72,-37.42 85.39,-28.59"/>
<polygon fill="#63b8ff" stroke="#63b8ff" points="88.81,-30.75 91.26,-20.44 82.91,-26.97 88.81,-30.75"/>
</a>
</g>
</g>
<!-- Node6&#45;&gt;Node4 -->
<g id="edge35_Node000006_Node000004" class="edge">
<title>Node6&#45;&gt;Node4</title>
<g id="a_edge35_Node000006_Node000004"><a xlink:title=" ">
<path fill="none" stroke="#63b8ff" d="M164.3,-109.51C144.82,-101.04 115.4,-88.27 93.28,-78.66"/>
<polygon fill="#63b8ff" stroke="#63b8ff" points="94.95,-75.13 84.39,-74.36 92.16,-81.55 94.95,-75.13"/>
</a>
</g>
</g>
<!-- Node6&#45;&gt;Node5 -->
<g id="edge33_Node000006_Node000005" class="edge">
<title>Node6&#45;&gt;Node5</title>
<g id="a_edge33_Node000006_Node000005"><a xlink:title=" ">
<path fill="none" stroke="#63b8ff" d="M177.79,-109.66C163.23,-91.78 130.03,-51.05 111.03,-27.73"/>
<polygon fill="#63b8ff" stroke="#63b8ff" points="113.33,-26 104.3,-20.46 107.9,-30.42 113.33,-26"/>
</a>
</g>
</g>
<!-- Node7 -->
<g id="Node000007" class="node">
<title>Node7</title>
<g id="a_Node000007"><a xlink:title=" ">
<polygon fill="#e0e0e0" stroke="#999999" points="287,-74 241,-74 241,-55 287,-55 287,-74"/>
<text text-anchor="middle" x="264" y="-62" font-family="Helvetica,sans-Serif" font-size="10.00">cstring</text>
</a>
</g>
</g>
<!-- Node6&#45;&gt;Node7 -->
<g id="edge34_Node000006_Node000007" class="edge">
<title>Node6&#45;&gt;Node7</title>
<g id="a_edge34_Node000006_Node000007"><a xlink:title=" ">
<path fill="none" stroke="#63b8ff" d="M198.4,-109.51C210.27,-101.54 227.84,-89.75 241.81,-80.38"/>
<polygon fill="#63b8ff" stroke="#63b8ff" points="243.44,-82.84 249.79,-74.36 239.54,-77.02 243.44,-82.84"/>
</a>
</g>
</g>
<!-- Node8 -->
<g id="Node000008" class="node">
<title>Node8</title>
<g id="a_Node000008"><a xlink:href="$tick_8hpp.html" xlink:title=" ">
<polygon fill="white" stroke="#666666" points="222.5,-74 171.5,-74 171.5,-55 222.5,-55 222.5,-74"/>
<text text-anchor="middle" x="197" y="-62" font-family="Helvetica,sans-Serif" font-size="10.00">tick.hpp</text>
</a>
</g>
</g>
<!-- Node6&#45;&gt;Node8 -->
<g id="edge36_Node000006_Node000008" class="edge">
<title>Node6&#45;&gt;Node8</title>
<g id="a_edge36_Node000006_Node000008"><a xlink:title=" ">
<path fill="none" stroke="#63b8ff" d="M186.98,-109.75C188.5,-103.04 190.65,-93.52 192.57,-85.02"/>
<polygon fill="#63b8ff" stroke="#63b8ff" points="196.18,-85.97 194.97,-75.44 189.35,-84.42 196.18,-85.97"/>
</a>
</g>
</g>
<!-- Node9 -->
<g id="Node000009" class="node">
<title>Node9</title>
<g id="a_Node000009"><a xlink:title=" ">
<polygon fill="#e0e0e0" stroke="#999999" points="221.5,-19 172.5,-19 172.5,0 221.5,0 221.5,-19"/>
<text text-anchor="middle" x="197" y="-7" font-family="Helvetica,sans-Serif" font-size="10.00">stdint.h</text>
</a>
</g>
</g>
<!-- Node8&#45;&gt;Node9 -->
<g id="edge37_Node000008_Node000009" class="edge">
<title>Node8&#45;&gt;Node9</title>
<g id="a_edge37_Node000008_Node000009"><a xlink:title=" ">
<path fill="none" stroke="#63b8ff" d="M197,-54.75C197,-48.11 197,-38.73 197,-30.31"/>
<polygon fill="#63b8ff" stroke="#63b8ff" points="200.5,-30.44 197,-20.44 193.5,-30.44 200.5,-30.44"/>
</a>
</g>
</g>
</g>
</svg>
