<?xml version="1.0" encoding="UTF-8" standalone="no"?>
<!DOCTYPE svg PUBLIC "-//W3C//DTD SVG 1.1//EN"
 "http://www.w3.org/Graphics/SVG/1.1/DTD/svg11.dtd">
<!-- Generated by graphviz version 8.0.3 (20230416.2022)
 -->
<!-- Title: HW&#45;Components/devices/referee/inc/referee_protocol.hpp Pages: 1 -->
<svg width="407pt" height="346pt"
 viewBox="0.00 0.00 407.00 346.00" xmlns="http://www.w3.org/2000/svg" xmlns:xlink="http://www.w3.org/1999/xlink">
<g id="graph0" class="graph" transform="scale(1 1) rotate(0) translate(4 342)">
<title>HW&#45;Components/devices/referee/inc/referee_protocol.hpp</title>
<!-- Node1 -->
<g id="Node000001" class="node">
<title>Node1</title>
<g id="a_Node000001"><a xlink:title=" ">
<polygon fill="#999999" stroke="#666666" points="270,-338 144,-338 144,-297 270,-297 270,-338"/>
<text text-anchor="start" x="152" y="-326" font-family="Helvetica,sans-Serif" font-size="10.00">HW&#45;Components/devices</text>
<text text-anchor="start" x="152" y="-315" font-family="Helvetica,sans-Serif" font-size="10.00">/referee/inc/referee</text>
<text text-anchor="middle" x="207" y="-304" font-family="Helvetica,sans-Serif" font-size="10.00">_protocol.hpp</text>
</a>
</g>
</g>
<!-- Node2 -->
<g id="Node000002" class="node">
<title>Node2</title>
<g id="a_Node000002"><a xlink:href="$referee_8hpp.html" xlink:title=" ">
<polygon fill="white" stroke="#666666" points="126,-101.5 0,-101.5 0,-71.5 126,-71.5 126,-101.5"/>
<text text-anchor="start" x="8" y="-89.5" font-family="Helvetica,sans-Serif" font-size="10.00">HW&#45;Components/devices</text>
<text text-anchor="middle" x="63" y="-78.5" font-family="Helvetica,sans-Serif" font-size="10.00">/referee/inc/referee.hpp</text>
</a>
</g>
</g>
<!-- Node1&#45;&gt;Node2 -->
<g id="edge23_Node000001_Node000002" class="edge">
<title>Node1&#45;&gt;Node2</title>
<g id="a_edge23_Node000001_Node000002"><a xlink:title=" ">
<path fill="none" stroke="#63b8ff" d="M133.28,-310.39C100.34,-303.55 64.41,-289.51 44,-261 8.72,-211.72 40.16,-133.55 55.61,-101.7"/>
<polygon fill="#63b8ff" stroke="#63b8ff" points="132.38,-313.97 142.85,-312.37 133.66,-307.09 132.38,-313.97"/>
</a>
</g>
</g>
<!-- Node4 -->
<g id="Node000004" class="node">
<title>Node4</title>
<g id="a_Node000004"><a xlink:href="$referee__custom__define_8hpp.html" xlink:title=" ">
<polygon fill="white" stroke="#666666" points="217,-184 91,-184 91,-143 217,-143 217,-184"/>
<text text-anchor="start" x="99" y="-172" font-family="Helvetica,sans-Serif" font-size="10.00">HW&#45;Components/devices</text>
<text text-anchor="start" x="99" y="-161" font-family="Helvetica,sans-Serif" font-size="10.00">/referee/inc/referee</text>
<text text-anchor="middle" x="154" y="-150" font-family="Helvetica,sans-Serif" font-size="10.00">_custom_define.hpp</text>
</a>
</g>
</g>
<!-- Node1&#45;&gt;Node4 -->
<g id="edge25_Node000001_Node000004" class="edge">
<title>Node1&#45;&gt;Node4</title>
<g id="a_edge25_Node000001_Node000004"><a xlink:title=" ">
<path fill="none" stroke="#63b8ff" d="M203.82,-286.05C201.12,-266.66 196.3,-241.28 188,-220 183.11,-207.47 175.42,-194.6 168.59,-184.41"/>
<polygon fill="#63b8ff" stroke="#63b8ff" points="200.44,-286.23 205.18,-295.7 207.38,-285.34 200.44,-286.23"/>
</a>
</g>
</g>
<!-- Node5 -->
<g id="Node000005" class="node">
<title>Node5</title>
<g id="a_Node000005"><a xlink:href="$referee__size__check_8hpp.html" xlink:title=" ">
<polygon fill="white" stroke="#666666" points="270,-107 144,-107 144,-66 270,-66 270,-107"/>
<text text-anchor="start" x="152" y="-95" font-family="Helvetica,sans-Serif" font-size="10.00">HW&#45;Components/devices</text>
<text text-anchor="start" x="152" y="-84" font-family="Helvetica,sans-Serif" font-size="10.00">/referee/prv/referee</text>
<text text-anchor="middle" x="207" y="-73" font-family="Helvetica,sans-Serif" font-size="10.00">_size_check.hpp</text>
</a>
</g>
</g>
<!-- Node1&#45;&gt;Node5 -->
<g id="edge33_Node000001_Node000005" class="edge">
<title>Node1&#45;&gt;Node5</title>
<g id="a_edge33_Node000001_Node000005"><a xlink:title=" ">
<path fill="none" stroke="#63b8ff" d="M215.31,-286.23C223.7,-251.49 234.3,-192.9 226,-143 223.98,-130.84 219.62,-117.78 215.59,-107.38"/>
<polygon fill="#63b8ff" stroke="#63b8ff" points="211.74,-285.07 212.7,-295.63 218.53,-286.78 211.74,-285.07"/>
</a>
</g>
</g>
<!-- Node6 -->
<g id="Node000006" class="node">
<title>Node6</title>
<g id="a_Node000006"><a xlink:href="$referee__rx__template_8hpp.html" xlink:title=" ">
<polygon fill="white" stroke="#666666" points="179,-261 53,-261 53,-220 179,-220 179,-261"/>
<text text-anchor="start" x="61" y="-249" font-family="Helvetica,sans-Serif" font-size="10.00">HW&#45;Components/devices</text>
<text text-anchor="start" x="61" y="-238" font-family="Helvetica,sans-Serif" font-size="10.00">/referee/inc/referee</text>
<text text-anchor="middle" x="116" y="-227" font-family="Helvetica,sans-Serif" font-size="10.00">_rx_template.hpp</text>
</a>
</g>
</g>
<!-- Node1&#45;&gt;Node6 -->
<g id="edge29_Node000001_Node000006" class="edge">
<title>Node1&#45;&gt;Node6</title>
<g id="a_edge29_Node000001_Node000006"><a xlink:title=" ">
<path fill="none" stroke="#63b8ff" d="M174.66,-289.85C163.26,-280.45 150.66,-270.07 140.07,-261.33"/>
<polygon fill="#63b8ff" stroke="#63b8ff" points="172.15,-293.14 182.09,-296.79 176.6,-287.73 172.15,-293.14"/>
</a>
</g>
</g>
<!-- Node7 -->
<g id="Node000007" class="node">
<title>Node7</title>
<g id="a_Node000007"><a xlink:href="$referee__ui_8hpp.html" xlink:title=" ">
<polygon fill="white" stroke="#666666" points="399,-261 273,-261 273,-220 399,-220 399,-261"/>
<text text-anchor="start" x="281" y="-249" font-family="Helvetica,sans-Serif" font-size="10.00">HW&#45;Components/devices</text>
<text text-anchor="start" x="281" y="-238" font-family="Helvetica,sans-Serif" font-size="10.00">/referee/inc/referee</text>
<text text-anchor="middle" x="336" y="-227" font-family="Helvetica,sans-Serif" font-size="10.00">_ui.hpp</text>
</a>
</g>
</g>
<!-- Node1&#45;&gt;Node7 -->
<g id="edge32_Node000001_Node000007" class="edge">
<title>Node1&#45;&gt;Node7</title>
<g id="a_edge32_Node000001_Node000007"><a xlink:title=" ">
<path fill="none" stroke="#63b8ff" d="M250.73,-291.08C267.33,-281.42 285.99,-270.58 301.61,-261.49"/>
<polygon fill="#63b8ff" stroke="#63b8ff" points="249.12,-288.55 242.23,-296.6 252.64,-294.6 249.12,-288.55"/>
</a>
</g>
</g>
<!-- Node3 -->
<g id="Node000003" class="node">
<title>Node3</title>
<g id="a_Node000003"><a xlink:href="$referee_8cpp.html" xlink:title=" ">
<polygon fill="white" stroke="#666666" points="198,-30 72,-30 72,0 198,0 198,-30"/>
<text text-anchor="start" x="80" y="-18" font-family="Helvetica,sans-Serif" font-size="10.00">HW&#45;Components/devices</text>
<text text-anchor="middle" x="135" y="-7" font-family="Helvetica,sans-Serif" font-size="10.00">/referee/src/referee.cpp</text>
</a>
</g>
</g>
<!-- Node2&#45;&gt;Node3 -->
<g id="edge24_Node000002_Node000003" class="edge">
<title>Node2&#45;&gt;Node3</title>
<g id="a_edge24_Node000002_Node000003"><a xlink:title=" ">
<path fill="none" stroke="#63b8ff" d="M85.67,-63.62C96.91,-52.77 110.16,-39.98 120.1,-30.38"/>
<polygon fill="#63b8ff" stroke="#63b8ff" points="83.68,-60.64 78.92,-70.1 88.54,-65.67 83.68,-60.64"/>
</a>
</g>
</g>
<!-- Node4&#45;&gt;Node2 -->
<g id="edge26_Node000004_Node000002" class="edge">
<title>Node4&#45;&gt;Node2</title>
<g id="a_edge26_Node000004_Node000002"><a xlink:title=" ">
<path fill="none" stroke="#63b8ff" d="M121.72,-135.89C107.81,-124.43 92.09,-111.48 80.42,-101.86"/>
<polygon fill="#63b8ff" stroke="#63b8ff" points="119.15,-139.14 129.09,-142.79 123.6,-133.73 119.15,-139.14"/>
</a>
</g>
</g>
<!-- Node4&#45;&gt;Node5 -->
<g id="edge27_Node000004_Node000005" class="edge">
<title>Node4&#45;&gt;Node5</title>
<g id="a_edge27_Node000004_Node000005"><a xlink:title=" ">
<path fill="none" stroke="#63b8ff" d="M174.21,-133.9C180.47,-125.04 187.24,-115.47 192.98,-107.33"/>
<polygon fill="#63b8ff" stroke="#63b8ff" points="170.84,-131.61 167.93,-141.79 176.55,-135.65 170.84,-131.61"/>
</a>
</g>
</g>
<!-- Node5&#45;&gt;Node3 -->
<g id="edge28_Node000005_Node000003" class="edge">
<title>Node5&#45;&gt;Node3</title>
<g id="a_edge28_Node000005_Node000003"><a xlink:title=" ">
<path fill="none" stroke="#63b8ff" d="M178.9,-58.37C169.04,-48.86 158.36,-38.54 149.99,-30.47"/>
<polygon fill="#63b8ff" stroke="#63b8ff" points="175.93,-60.34 185.56,-64.77 180.8,-55.31 175.93,-60.34"/>
</a>
</g>
</g>
<!-- Node6&#45;&gt;Node2 -->
<g id="edge30_Node000006_Node000002" class="edge">
<title>Node6&#45;&gt;Node2</title>
<g id="a_edge30_Node000006_Node000002"><a xlink:title=" ">
<path fill="none" stroke="#63b8ff" d="M95.52,-210.42C90.47,-202.19 85.51,-193 82,-184 71.08,-156 66.19,-120.89 64.21,-101.68"/>
<polygon fill="#63b8ff" stroke="#63b8ff" points="93.06,-212.07 101.41,-218.59 98.95,-208.29 93.06,-212.07"/>
</a>
</g>
</g>
<!-- Node6&#45;&gt;Node4 -->
<g id="edge31_Node000006_Node000004" class="edge">
<title>Node6&#45;&gt;Node4</title>
<g id="a_edge31_Node000006_Node000004"><a xlink:title=" ">
<path fill="none" stroke="#63b8ff" d="M130.92,-210.06C135.29,-201.43 139.96,-192.21 143.95,-184.33"/>
<polygon fill="#63b8ff" stroke="#63b8ff" points="127.38,-208.29 125.98,-218.79 133.63,-211.46 127.38,-208.29"/>
</a>
</g>
</g>
</g>
</svg>
