<?xml version="1.0" encoding="UTF-8" standalone="no"?>
<!DOCTYPE svg PUBLIC "-//W3C//DTD SVG 1.1//EN"
 "http://www.w3.org/Graphics/SVG/1.1/DTD/svg11.dtd">
<!-- Generated by graphviz version 8.0.3 (20230416.2022)
 -->
<!-- Title: HW&#45;Components/tools/inc/system.hpp Pages: 1 -->
<svg width="2746pt" height="324pt"
 viewBox="0.00 0.00 2745.50 324.00" xmlns="http://www.w3.org/2000/svg" xmlns:xlink="http://www.w3.org/1999/xlink">
<g id="graph0" class="graph" transform="scale(1 1) rotate(0) translate(4 320)">
<title>HW&#45;Components/tools/inc/system.hpp</title>
<!-- Node1 -->
<g id="Node000001" class="node">
<title>Node1</title>
<g id="a_Node000001"><a xlink:title=" ">
<polygon fill="#999999" stroke="#666666" points="849,-316 734,-316 734,-286 849,-286 849,-316"/>
<text text-anchor="start" x="742" y="-304" font-family="Helvetica,sans-Serif" font-size="10.00">HW&#45;Components/tools</text>
<text text-anchor="middle" x="791.5" y="-293" font-family="Helvetica,sans-Serif" font-size="10.00">/inc/system.hpp</text>
</a>
</g>
</g>
<!-- Node2 -->
<g id="Node000002" class="node">
<title>Node2</title>
<g id="a_Node000002"><a xlink:href="$controller__base_8hpp.html" xlink:title=": @history : Version Date Author Note V0.9.0 2023&#45;11&#45;25 Caikunzhen 1.">
<polygon fill="white" stroke="#666666" points="315,-250 176,-250 176,-209 315,-209 315,-250"/>
<text text-anchor="start" x="184" y="-238" font-family="Helvetica,sans-Serif" font-size="10.00">HW&#45;Components/algorithms</text>
<text text-anchor="start" x="184" y="-227" font-family="Helvetica,sans-Serif" font-size="10.00">/controller/inc/controller</text>
<text text-anchor="middle" x="245.5" y="-216" font-family="Helvetica,sans-Serif" font-size="10.00">_base.hpp</text>
</a>
</g>
</g>
<!-- Node1&#45;&gt;Node2 -->
<g id="edge91_Node000001_Node000002" class="edge">
<title>Node1&#45;&gt;Node2</title>
<g id="a_edge91_Node000001_Node000002"><a xlink:title=" ">
<path fill="none" stroke="#63b8ff" d="M722.8,-293.85C635.54,-285.67 480.42,-269.9 348.5,-250 337.79,-248.38 326.5,-246.47 315.47,-244.47"/>
<polygon fill="#63b8ff" stroke="#63b8ff" points="722.34,-297.42 732.62,-294.86 722.99,-290.45 722.34,-297.42"/>
</a>
</g>
</g>
<!-- Node4 -->
<g id="Node000004" class="node">
<title>Node4</title>
<g id="a_Node000004"><a xlink:href="$pid_8hpp.html" xlink:title=" ">
<polygon fill="white" stroke="#666666" points="394,-96 255,-96 255,-66 394,-66 394,-96"/>
<text text-anchor="start" x="263" y="-84" font-family="Helvetica,sans-Serif" font-size="10.00">HW&#45;Components/algorithms</text>
<text text-anchor="middle" x="324.5" y="-73" font-family="Helvetica,sans-Serif" font-size="10.00">/controller/inc/pid.hpp</text>
</a>
</g>
</g>
<!-- Node1&#45;&gt;Node4 -->
<g id="edge97_Node000001_Node000004" class="edge">
<title>Node1&#45;&gt;Node4</title>
<g id="a_edge97_Node000001_Node000004"><a xlink:title=" ">
<path fill="none" stroke="#63b8ff" d="M722.64,-300.21C619.72,-299.14 432.37,-291.35 381.5,-250 333.22,-210.76 325.64,-128.84 324.59,-96.03"/>
<polygon fill="#63b8ff" stroke="#63b8ff" points="722.52,-303.72 732.55,-300.31 722.58,-296.72 722.52,-303.72"/>
</a>
</g>
</g>
<!-- Node7 -->
<g id="Node000007" class="node">
<title>Node7</title>
<g id="a_Node000007"><a xlink:href="$chassis__iksolver_8hpp.html" xlink:title=" ">
<polygon fill="white" stroke="#666666" points="530,-250 391,-250 391,-209 530,-209 530,-250"/>
<text text-anchor="start" x="399" y="-238" font-family="Helvetica,sans-Serif" font-size="10.00">HW&#45;Components/algorithms</text>
<text text-anchor="start" x="399" y="-227" font-family="Helvetica,sans-Serif" font-size="10.00">/ik_solver/inc/chassis</text>
<text text-anchor="middle" x="460.5" y="-216" font-family="Helvetica,sans-Serif" font-size="10.00">_iksolver.hpp</text>
</a>
</g>
</g>
<!-- Node1&#45;&gt;Node7 -->
<g id="edge98_Node000001_Node000007" class="edge">
<title>Node1&#45;&gt;Node7</title>
<g id="a_edge98_Node000001_Node000007"><a xlink:title=" ">
<path fill="none" stroke="#63b8ff" d="M723.02,-287.3C672.24,-277.66 601.38,-263.77 539.5,-250 536.47,-249.32 533.37,-248.62 530.25,-247.9"/>
<polygon fill="#63b8ff" stroke="#63b8ff" points="722.06,-290.87 732.54,-289.29 723.36,-283.99 722.06,-290.87"/>
</a>
</g>
</g>
<!-- Node9 -->
<g id="Node000009" class="node">
<title>Node9</title>
<g id="a_Node000009"><a xlink:href="$buzzer_8hpp.html" xlink:title=": @history : Version Date Author Note V0.9.0 2023&#45;11&#45;28 Caikunzhen 1.">
<polygon fill="white" stroke="#666666" points="674.5,-244.5 548.5,-244.5 548.5,-214.5 674.5,-214.5 674.5,-244.5"/>
<text text-anchor="start" x="556.5" y="-232.5" font-family="Helvetica,sans-Serif" font-size="10.00">HW&#45;Components/devices</text>
<text text-anchor="middle" x="611.5" y="-221.5" font-family="Helvetica,sans-Serif" font-size="10.00">/buzzer/inc/buzzer.hpp</text>
</a>
</g>
</g>
<!-- Node1&#45;&gt;Node9 -->
<g id="edge100_Node000001_Node000009" class="edge">
<title>Node1&#45;&gt;Node9</title>
<g id="a_edge100_Node000001_Node000009"><a xlink:title=" ">
<path fill="none" stroke="#63b8ff" d="M744.03,-281.67C714.24,-270.17 676.37,-255.55 648.75,-244.88"/>
<polygon fill="#63b8ff" stroke="#63b8ff" points="742.61,-285.26 753.2,-285.6 745.14,-278.73 742.61,-285.26"/>
</a>
</g>
</g>
<!-- Node11 -->
<g id="Node000011" class="node">
<title>Node11</title>
<g id="a_Node000011"><a xlink:href="$_b_m_i088_8hpp.html" xlink:title=": @history : Version Date Author Note V1.0.0 2023&#45;12&#45;08 Caikunzhen 1.">
<polygon fill="white" stroke="#666666" points="854.5,-244.5 728.5,-244.5 728.5,-214.5 854.5,-214.5 854.5,-244.5"/>
<text text-anchor="start" x="736.5" y="-232.5" font-family="Helvetica,sans-Serif" font-size="10.00">HW&#45;Components/devices</text>
<text text-anchor="middle" x="791.5" y="-221.5" font-family="Helvetica,sans-Serif" font-size="10.00">/imu/inc/BMI088.hpp</text>
</a>
</g>
</g>
<!-- Node1&#45;&gt;Node11 -->
<g id="edge102_Node000001_Node000011" class="edge">
<title>Node1&#45;&gt;Node11</title>
<g id="a_edge102_Node000001_Node000011"><a xlink:title=" ">
<path fill="none" stroke="#63b8ff" d="M791.5,-274.91C791.5,-264.82 791.5,-253.54 791.5,-244.88"/>
<polygon fill="#63b8ff" stroke="#63b8ff" points="788,-274.6 791.5,-284.6 795,-274.6 788,-274.6"/>
</a>
</g>
</g>
<!-- Node14 -->
<g id="Node000014" class="node">
<title>Node14</title>
<g id="a_Node000014"><a xlink:href="$laser_8hpp.html" xlink:title=": @history : Version Date Author Note V0.9.0 2023&#45;11&#45;27 Caikunzhen 1.">
<polygon fill="white" stroke="#666666" points="1034.5,-244.5 908.5,-244.5 908.5,-214.5 1034.5,-214.5 1034.5,-244.5"/>
<text text-anchor="start" x="916.5" y="-232.5" font-family="Helvetica,sans-Serif" font-size="10.00">HW&#45;Components/devices</text>
<text text-anchor="middle" x="971.5" y="-221.5" font-family="Helvetica,sans-Serif" font-size="10.00">/laser/inc/laser.hpp</text>
</a>
</g>
</g>
<!-- Node1&#45;&gt;Node14 -->
<g id="edge105_Node000001_Node000014" class="edge">
<title>Node1&#45;&gt;Node14</title>
<g id="a_edge105_Node000001_Node000014"><a xlink:title=" ">
<path fill="none" stroke="#63b8ff" d="M838.97,-281.67C868.76,-270.17 906.63,-255.55 934.25,-244.88"/>
<polygon fill="#63b8ff" stroke="#63b8ff" points="837.86,-278.73 829.8,-285.6 840.39,-285.26 837.86,-278.73"/>
</a>
</g>
</g>
<!-- Node16 -->
<g id="Node000016" class="node">
<title>Node16</title>
<g id="a_Node000016"><a xlink:href="$motor__base_8hpp.html" xlink:title=": @history : Version Date Author Note V0.9.0 2023&#45;11&#45;25 Caikunzhen 1.">
<polygon fill="white" stroke="#666666" points="1793,-244.5 1660,-244.5 1660,-214.5 1793,-214.5 1793,-244.5"/>
<text text-anchor="start" x="1668" y="-232.5" font-family="Helvetica,sans-Serif" font-size="10.00">HW&#45;Components/devices</text>
<text text-anchor="middle" x="1726.5" y="-221.5" font-family="Helvetica,sans-Serif" font-size="10.00">/motor/inc/motor_base.hpp</text>
</a>
</g>
</g>
<!-- Node1&#45;&gt;Node16 -->
<g id="edge107_Node000001_Node000016" class="edge">
<title>Node1&#45;&gt;Node16</title>
<g id="a_edge107_Node000001_Node000016"><a xlink:title=" ">
<path fill="none" stroke="#63b8ff" d="M860.05,-294.9C1033.44,-282.02 1487.9,-248.24 1659.55,-235.48"/>
<polygon fill="#63b8ff" stroke="#63b8ff" points="860,-291.47 850.28,-295.7 860.51,-298.45 860,-291.47"/>
</a>
</g>
</g>
<!-- Node34 -->
<g id="Node000034" class="node">
<title>Node34</title>
<g id="a_Node000034"><a xlink:href="$_d_t7_8hpp.html" xlink:title=": @history : Version Date Author Note V1.0.0 2023&#45;12&#45;05 Caikunzhen 1.">
<polygon fill="white" stroke="#666666" points="2298,-244.5 2159,-244.5 2159,-214.5 2298,-214.5 2298,-244.5"/>
<text text-anchor="start" x="2167" y="-232.5" font-family="Helvetica,sans-Serif" font-size="10.00">HW&#45;Components/devices</text>
<text text-anchor="middle" x="2228.5" y="-221.5" font-family="Helvetica,sans-Serif" font-size="10.00">/remote_control/inc/DT7.hpp</text>
</a>
</g>
</g>
<!-- Node1&#45;&gt;Node34 -->
<g id="edge132_Node000001_Node000034" class="edge">
<title>Node1&#45;&gt;Node34</title>
<g id="a_edge132_Node000001_Node000034"><a xlink:title=" ">
<path fill="none" stroke="#63b8ff" d="M859.91,-296.69C1101.78,-284.99 1915.14,-245.66 2158.89,-233.87"/>
<polygon fill="#63b8ff" stroke="#63b8ff" points="859.98,-293.23 850.16,-297.21 860.32,-300.22 859.98,-293.23"/>
</a>
</g>
</g>
<!-- Node36 -->
<g id="Node000036" class="node">
<title>Node36</title>
<g id="a_Node000036"><a xlink:href="$servo_8hpp.html" xlink:title=": @history : Version Date Author Note V0.9.0 2023&#45;11&#45;27 Caikunzhen 1.">
<polygon fill="white" stroke="#666666" points="2616.5,-244.5 2490.5,-244.5 2490.5,-214.5 2616.5,-214.5 2616.5,-244.5"/>
<text text-anchor="start" x="2498.5" y="-232.5" font-family="Helvetica,sans-Serif" font-size="10.00">HW&#45;Components/devices</text>
<text text-anchor="middle" x="2553.5" y="-221.5" font-family="Helvetica,sans-Serif" font-size="10.00">/servo/inc/servo.hpp</text>
</a>
</g>
</g>
<!-- Node1&#45;&gt;Node36 -->
<g id="edge134_Node000001_Node000036" class="edge">
<title>Node1&#45;&gt;Node36</title>
<g id="a_edge134_Node000001_Node000036"><a xlink:title=" ">
<path fill="none" stroke="#63b8ff" d="M860.08,-298.86C1074.08,-295.04 1748.65,-281.21 2306.5,-250 2368.99,-246.5 2440.24,-240.68 2490.1,-236.31"/>
<polygon fill="#63b8ff" stroke="#63b8ff" points="860.27,-295.37 850.34,-299.04 860.4,-302.37 860.27,-295.37"/>
</a>
</g>
</g>
<!-- Node3 -->
<g id="Node000003" class="node">
<title>Node3</title>
<g id="a_Node000003"><a xlink:href="$controller_8hpp.html" xlink:title=": @history : Version Date Author Note V0.9.0 yyyy&#45;mm&#45;dd &lt;author&gt; 1.">
<polygon fill="white" stroke="#666666" points="296,-167.5 157,-167.5 157,-137.5 296,-137.5 296,-167.5"/>
<text text-anchor="start" x="165" y="-155.5" font-family="Helvetica,sans-Serif" font-size="10.00">HW&#45;Components/algorithms</text>
<text text-anchor="middle" x="226.5" y="-144.5" font-family="Helvetica,sans-Serif" font-size="10.00">/controller/inc/controller.hpp</text>
</a>
</g>
</g>
<!-- Node2&#45;&gt;Node3 -->
<g id="edge92_Node000002_Node000003" class="edge">
<title>Node2&#45;&gt;Node3</title>
<g id="a_edge92_Node000002_Node000003"><a xlink:title=" ">
<path fill="none" stroke="#63b8ff" d="M237.84,-198.28C235.18,-187.78 232.32,-176.48 230.14,-167.86"/>
<polygon fill="#63b8ff" stroke="#63b8ff" points="234.66,-198.96 240.51,-207.79 241.44,-197.24 234.66,-198.96"/>
</a>
</g>
</g>
<!-- Node2&#45;&gt;Node4 -->
<g id="edge93_Node000002_Node000004" class="edge">
<title>Node2&#45;&gt;Node4</title>
<g id="a_edge93_Node000002_Node000004"><a xlink:title=" ">
<path fill="none" stroke="#63b8ff" d="M281.18,-201.43C289.96,-193.18 298.55,-183.49 304.5,-173 318.39,-148.52 322.64,-115.28 323.93,-96.49"/>
<polygon fill="#63b8ff" stroke="#63b8ff" points="279.28,-198.32 274.12,-207.58 283.93,-203.55 279.28,-198.32"/>
</a>
</g>
</g>
<!-- Node6 -->
<g id="Node000006" class="node">
<title>Node6</title>
<g id="a_Node000006"><a xlink:href="$pid__opt_8hpp.html" xlink:title=" ">
<polygon fill="white" stroke="#666666" points="139,-167.5 0,-167.5 0,-137.5 139,-137.5 139,-167.5"/>
<text text-anchor="start" x="8" y="-155.5" font-family="Helvetica,sans-Serif" font-size="10.00">HW&#45;Components/algorithms</text>
<text text-anchor="middle" x="69.5" y="-144.5" font-family="Helvetica,sans-Serif" font-size="10.00">/controller/inc/pid_opt.hpp</text>
</a>
</g>
</g>
<!-- Node2&#45;&gt;Node6 -->
<g id="edge95_Node000002_Node000006" class="edge">
<title>Node2&#45;&gt;Node6</title>
<g id="a_edge95_Node000002_Node000006"><a xlink:title=" ">
<path fill="none" stroke="#63b8ff" d="M189.04,-204.44C160.79,-192.4 127.55,-178.24 103.3,-167.9"/>
<polygon fill="#63b8ff" stroke="#63b8ff" points="187.23,-207.9 197.8,-208.6 189.97,-201.46 187.23,-207.9"/>
</a>
</g>
</g>
<!-- Node5 -->
<g id="Node000005" class="node">
<title>Node5</title>
<g id="a_Node000005"><a xlink:href="$pid_8cpp.html" xlink:title=" ">
<polygon fill="white" stroke="#666666" points="394,-30 255,-30 255,0 394,0 394,-30"/>
<text text-anchor="start" x="263" y="-18" font-family="Helvetica,sans-Serif" font-size="10.00">HW&#45;Components/algorithms</text>
<text text-anchor="middle" x="324.5" y="-7" font-family="Helvetica,sans-Serif" font-size="10.00">/controller/src/pid.cpp</text>
</a>
</g>
</g>
<!-- Node4&#45;&gt;Node5 -->
<g id="edge94_Node000004_Node000005" class="edge">
<title>Node4&#45;&gt;Node5</title>
<g id="a_edge94_Node000004_Node000005"><a xlink:title=" ">
<path fill="none" stroke="#63b8ff" d="M324.5,-54.97C324.5,-46.55 324.5,-37.45 324.5,-30.16"/>
<polygon fill="#63b8ff" stroke="#63b8ff" points="321,-54.8 324.5,-64.8 328,-54.8 321,-54.8"/>
</a>
</g>
</g>
<!-- Node6&#45;&gt;Node4 -->
<g id="edge96_Node000006_Node000004" class="edge">
<title>Node6&#45;&gt;Node4</title>
<g id="a_edge96_Node000006_Node000004"><a xlink:title=" ">
<path fill="none" stroke="#63b8ff" d="M133.18,-134.14C175.79,-122.53 231.21,-107.43 271.42,-96.47"/>
<polygon fill="#63b8ff" stroke="#63b8ff" points="132.37,-131.01 123.65,-137.02 134.21,-137.76 132.37,-131.01"/>
</a>
</g>
</g>
<!-- Node8 -->
<g id="Node000008" class="node">
<title>Node8</title>
<g id="a_Node000008"><a xlink:href="$chassis__iksolver_8cpp.html" xlink:title=" ">
<polygon fill="white" stroke="#666666" points="530,-173 391,-173 391,-132 530,-132 530,-173"/>
<text text-anchor="start" x="399" y="-161" font-family="Helvetica,sans-Serif" font-size="10.00">HW&#45;Components/algorithms</text>
<text text-anchor="start" x="399" y="-150" font-family="Helvetica,sans-Serif" font-size="10.00">/ik_solver/src/chassis</text>
<text text-anchor="middle" x="460.5" y="-139" font-family="Helvetica,sans-Serif" font-size="10.00">_iksolver.cpp</text>
</a>
</g>
</g>
<!-- Node7&#45;&gt;Node8 -->
<g id="edge99_Node000007_Node000008" class="edge">
<title>Node7&#45;&gt;Node8</title>
<g id="a_edge99_Node000007_Node000008"><a xlink:title=" ">
<path fill="none" stroke="#63b8ff" d="M460.5,-197.93C460.5,-189.63 460.5,-180.87 460.5,-173.33"/>
<polygon fill="#63b8ff" stroke="#63b8ff" points="457,-197.79 460.5,-207.79 464,-197.79 457,-197.79"/>
</a>
</g>
</g>
<!-- Node10 -->
<g id="Node000010" class="node">
<title>Node10</title>
<g id="a_Node000010"><a xlink:href="$buzzer_8cpp.html" xlink:title=": @history : Version Date Author Note V0.9.0 2023&#45;11&#45;28 Caikunzhen 1.">
<polygon fill="white" stroke="#666666" points="674.5,-167.5 548.5,-167.5 548.5,-137.5 674.5,-137.5 674.5,-167.5"/>
<text text-anchor="start" x="556.5" y="-155.5" font-family="Helvetica,sans-Serif" font-size="10.00">HW&#45;Components/devices</text>
<text text-anchor="middle" x="611.5" y="-144.5" font-family="Helvetica,sans-Serif" font-size="10.00">/buzzer/src/buzzer.cpp</text>
</a>
</g>
</g>
<!-- Node9&#45;&gt;Node10 -->
<g id="edge101_Node000009_Node000010" class="edge">
<title>Node9&#45;&gt;Node10</title>
<g id="a_edge101_Node000009_Node000010"><a xlink:title=" ">
<path fill="none" stroke="#63b8ff" d="M611.5,-203.1C611.5,-191.37 611.5,-177.87 611.5,-167.92"/>
<polygon fill="#63b8ff" stroke="#63b8ff" points="608,-203.04 611.5,-213.04 615,-203.04 608,-203.04"/>
</a>
</g>
</g>
<!-- Node12 -->
<g id="Node000012" class="node">
<title>Node12</title>
<g id="a_Node000012"><a xlink:href="$imu_8hpp.html" xlink:title=": @history : Version Date Author Note V0.9.0 yyyy&#45;mm&#45;dd &lt;author&gt; 1.">
<polygon fill="white" stroke="#666666" points="818.5,-167.5 692.5,-167.5 692.5,-137.5 818.5,-137.5 818.5,-167.5"/>
<text text-anchor="start" x="700.5" y="-155.5" font-family="Helvetica,sans-Serif" font-size="10.00">HW&#45;Components/devices</text>
<text text-anchor="middle" x="755.5" y="-144.5" font-family="Helvetica,sans-Serif" font-size="10.00">/imu/inc/imu.hpp</text>
</a>
</g>
</g>
<!-- Node11&#45;&gt;Node12 -->
<g id="edge103_Node000011_Node000012" class="edge">
<title>Node11&#45;&gt;Node12</title>
<g id="a_edge103_Node000011_Node000012"><a xlink:title=" ">
<path fill="none" stroke="#63b8ff" d="M779.83,-204.19C774.08,-192.21 767.35,-178.18 762.42,-167.92"/>
<polygon fill="#63b8ff" stroke="#63b8ff" points="777.08,-205.54 784.56,-213.04 783.39,-202.51 777.08,-205.54"/>
</a>
</g>
</g>
<!-- Node13 -->
<g id="Node000013" class="node">
<title>Node13</title>
<g id="a_Node000013"><a xlink:href="$_b_m_i088_8cpp.html" xlink:title=": @history : Version Date Author Note V0.9.0 yyyy&#45;mm&#45;dd &lt;author&gt; 1.">
<polygon fill="white" stroke="#666666" points="962.5,-167.5 836.5,-167.5 836.5,-137.5 962.5,-137.5 962.5,-167.5"/>
<text text-anchor="start" x="844.5" y="-155.5" font-family="Helvetica,sans-Serif" font-size="10.00">HW&#45;Components/devices</text>
<text text-anchor="middle" x="899.5" y="-144.5" font-family="Helvetica,sans-Serif" font-size="10.00">/imu/src/BMI088.cpp</text>
</a>
</g>
</g>
<!-- Node11&#45;&gt;Node13 -->
<g id="edge104_Node000011_Node000013" class="edge">
<title>Node11&#45;&gt;Node13</title>
<g id="a_edge104_Node000011_Node000013"><a xlink:title=" ">
<path fill="none" stroke="#63b8ff" d="M821.13,-207.92C839.41,-195.23 862.4,-179.27 878.74,-167.92"/>
<polygon fill="#63b8ff" stroke="#63b8ff" points="819.54,-205.46 813.32,-214.04 823.53,-211.21 819.54,-205.46"/>
</a>
</g>
</g>
<!-- Node15 -->
<g id="Node000015" class="node">
<title>Node15</title>
<g id="a_Node000015"><a xlink:href="$laser_8cpp.html" xlink:title=": @history : Version Date Author Note V0.9.0 2023&#45;11&#45;27 Caikunzhen 1.">
<polygon fill="white" stroke="#666666" points="1106.5,-167.5 980.5,-167.5 980.5,-137.5 1106.5,-137.5 1106.5,-167.5"/>
<text text-anchor="start" x="988.5" y="-155.5" font-family="Helvetica,sans-Serif" font-size="10.00">HW&#45;Components/devices</text>
<text text-anchor="middle" x="1043.5" y="-144.5" font-family="Helvetica,sans-Serif" font-size="10.00">/laser/src/laser.cpp</text>
</a>
</g>
</g>
<!-- Node14&#45;&gt;Node15 -->
<g id="edge106_Node000014_Node000015" class="edge">
<title>Node14&#45;&gt;Node15</title>
<g id="a_edge106_Node000014_Node000015"><a xlink:title=" ">
<path fill="none" stroke="#63b8ff" d="M992.77,-206.34C1004.69,-193.93 1019.21,-178.8 1029.66,-167.92"/>
<polygon fill="#63b8ff" stroke="#63b8ff" points="990.78,-203.4 986.38,-213.04 995.83,-208.25 990.78,-203.4"/>
</a>
</g>
</g>
<!-- Node17 -->
<g id="Node000017" class="node">
<title>Node17</title>
<g id="a_Node000017"><a xlink:href="$motor_8hpp.html" xlink:title=": @history : Version Date Author Note V0.9.0 2023&#45;11&#45;25 Caikunzhen 1.">
<polygon fill="white" stroke="#666666" points="1790.5,-96 1664.5,-96 1664.5,-66 1790.5,-66 1790.5,-96"/>
<text text-anchor="start" x="1672.5" y="-84" font-family="Helvetica,sans-Serif" font-size="10.00">HW&#45;Components/devices</text>
<text text-anchor="middle" x="1727.5" y="-73" font-family="Helvetica,sans-Serif" font-size="10.00">/motor/inc/motor.hpp</text>
</a>
</g>
</g>
<!-- Node16&#45;&gt;Node17 -->
<g id="edge108_Node000016_Node000017" class="edge">
<title>Node16&#45;&gt;Node17</title>
<g id="a_edge108_Node000016_Node000017"><a xlink:title=" ">
<path fill="none" stroke="#63b8ff" d="M1745.2,-205.34C1751.69,-195.89 1758.18,-184.49 1761.5,-173 1766.56,-155.49 1766.86,-149.42 1761.5,-132 1757.36,-118.56 1748.24,-105.49 1740.49,-96.08"/>
<polygon fill="#63b8ff" stroke="#63b8ff" points="1741.89,-202.94 1738.82,-213.08 1747.54,-207.07 1741.89,-202.94"/>
</a>
</g>
</g>
<!-- Node19 -->
<g id="Node000019" class="node">
<title>Node19</title>
<g id="a_Node000019"><a xlink:href="$motor___a1_8hpp.html" xlink:title=": @history : Version Date Author Note V0.9.0 2023&#45;11&#45;25 Caikunzhen 1.">
<polygon fill="white" stroke="#666666" points="1424.5,-167.5 1298.5,-167.5 1298.5,-137.5 1424.5,-137.5 1424.5,-167.5"/>
<text text-anchor="start" x="1306.5" y="-155.5" font-family="Helvetica,sans-Serif" font-size="10.00">HW&#45;Components/devices</text>
<text text-anchor="middle" x="1361.5" y="-144.5" font-family="Helvetica,sans-Serif" font-size="10.00">/motor/inc/motor_A1.hpp</text>
</a>
</g>
</g>
<!-- Node16&#45;&gt;Node19 -->
<g id="edge110_Node000016_Node000019" class="edge">
<title>Node16&#45;&gt;Node19</title>
<g id="a_edge110_Node000016_Node000019"><a xlink:title=" ">
<path fill="none" stroke="#63b8ff" d="M1648.8,-215.47C1589.55,-205.13 1506.06,-189.67 1433.5,-173 1426.81,-171.46 1419.81,-169.73 1412.9,-167.94"/>
<polygon fill="#63b8ff" stroke="#63b8ff" points="1648.12,-219.08 1658.57,-217.34 1649.32,-212.18 1648.12,-219.08"/>
</a>
</g>
</g>
<!-- Node21 -->
<g id="Node000021" class="node">
<title>Node21</title>
<g id="a_Node000021"><a xlink:href="$motor___d_m___j4310_8hpp.html" xlink:title=": @history : Version Date Author Note V0.9.0 2023&#45;11&#45;25 Caikunzhen 1.">
<polygon fill="white" stroke="#666666" points="1752.5,-167.5 1594.5,-167.5 1594.5,-137.5 1752.5,-137.5 1752.5,-167.5"/>
<text text-anchor="start" x="1602.5" y="-155.5" font-family="Helvetica,sans-Serif" font-size="10.00">HW&#45;Components/devices</text>
<text text-anchor="middle" x="1673.5" y="-144.5" font-family="Helvetica,sans-Serif" font-size="10.00">/motor/inc/motor_DM_J4310.hpp</text>
</a>
</g>
</g>
<!-- Node16&#45;&gt;Node21 -->
<g id="edge113_Node000016_Node000021" class="edge">
<title>Node16&#45;&gt;Node21</title>
<g id="a_edge113_Node000016_Node000021"><a xlink:title=" ">
<path fill="none" stroke="#63b8ff" d="M1710.09,-205.27C1701.46,-193.07 1691.16,-178.49 1683.69,-167.92"/>
<polygon fill="#63b8ff" stroke="#63b8ff" points="1707.65,-206.89 1716.28,-213.04 1713.37,-202.85 1707.65,-206.89"/>
</a>
</g>
</g>
<!-- Node23 -->
<g id="Node000023" class="node">
<title>Node23</title>
<g id="a_Node000023"><a xlink:href="$motor___g_m6020_8hpp.html" xlink:title=": @history : Version Date Author Note V0.9.0 2023&#45;11&#45;25 Caikunzhen 1.">
<polygon fill="white" stroke="#666666" points="1958,-167.5 1809,-167.5 1809,-137.5 1958,-137.5 1958,-167.5"/>
<text text-anchor="start" x="1817" y="-155.5" font-family="Helvetica,sans-Serif" font-size="10.00">HW&#45;Components/devices</text>
<text text-anchor="middle" x="1883.5" y="-144.5" font-family="Helvetica,sans-Serif" font-size="10.00">/motor/inc/motor_GM6020.hpp</text>
</a>
</g>
</g>
<!-- Node16&#45;&gt;Node23 -->
<g id="edge116_Node000016_Node000023" class="edge">
<title>Node16&#45;&gt;Node23</title>
<g id="a_edge116_Node000016_Node000023"><a xlink:title=" ">
<path fill="none" stroke="#63b8ff" d="M1766.69,-209.3C1793.69,-196.4 1828.7,-179.68 1853.32,-167.92"/>
<polygon fill="#63b8ff" stroke="#63b8ff" points="1765.29,-206.57 1757.77,-214.04 1768.3,-212.89 1765.29,-206.57"/>
</a>
</g>
</g>
<!-- Node25 -->
<g id="Node000025" class="node">
<title>Node25</title>
<g id="a_Node000025"><a xlink:href="$motor___m2006_8hpp.html" xlink:title=": @history : Version Date Author Note V0.9.0 2023&#45;11&#45;25 Caikunzhen 1.">
<polygon fill="white" stroke="#666666" points="2117,-167.5 1976,-167.5 1976,-137.5 2117,-137.5 2117,-167.5"/>
<text text-anchor="start" x="1984" y="-155.5" font-family="Helvetica,sans-Serif" font-size="10.00">HW&#45;Components/devices</text>
<text text-anchor="middle" x="2046.5" y="-144.5" font-family="Helvetica,sans-Serif" font-size="10.00">/motor/inc/motor_M2006.hpp</text>
</a>
</g>
</g>
<!-- Node16&#45;&gt;Node25 -->
<g id="edge119_Node000016_Node000025" class="edge">
<title>Node16&#45;&gt;Node25</title>
<g id="a_edge119_Node000016_Node000025"><a xlink:title=" ">
<path fill="none" stroke="#63b8ff" d="M1800.46,-211.63C1847.94,-200.75 1910.89,-186.21 1966.5,-173 1973.32,-171.38 1980.45,-169.67 1987.54,-167.96"/>
<polygon fill="#63b8ff" stroke="#63b8ff" points="1799.93,-208.39 1790.96,-214.04 1801.49,-215.22 1799.93,-208.39"/>
</a>
</g>
</g>
<!-- Node27 -->
<g id="Node000027" class="node">
<title>Node27</title>
<g id="a_Node000027"><a xlink:href="$motor___m3508_8hpp.html" xlink:title=": @history : Version Date Author Note V0.9.0 2023&#45;11&#45;25 Caikunzhen 1.">
<polygon fill="white" stroke="#666666" points="2276,-167.5 2135,-167.5 2135,-137.5 2276,-137.5 2276,-167.5"/>
<text text-anchor="start" x="2143" y="-155.5" font-family="Helvetica,sans-Serif" font-size="10.00">HW&#45;Components/devices</text>
<text text-anchor="middle" x="2205.5" y="-144.5" font-family="Helvetica,sans-Serif" font-size="10.00">/motor/inc/motor_M3508.hpp</text>
</a>
</g>
</g>
<!-- Node16&#45;&gt;Node27 -->
<g id="edge122_Node000016_Node000027" class="edge">
<title>Node16&#45;&gt;Node27</title>
<g id="a_edge122_Node000016_Node000027"><a xlink:title=" ">
<path fill="none" stroke="#63b8ff" d="M1803.76,-220.1C1884.41,-210.77 2014.39,-194.21 2125.5,-173 2133.22,-171.53 2141.32,-169.78 2149.27,-167.96"/>
<polygon fill="#63b8ff" stroke="#63b8ff" points="1803.73,-216.69 1794.2,-221.31 1804.53,-223.64 1803.73,-216.69"/>
</a>
</g>
</g>
<!-- Node29 -->
<g id="Node000029" class="node">
<title>Node29</title>
<g id="a_Node000029"><a xlink:href="$motor___m8910_8hpp.html" xlink:title=": @history : Version Date Author Note V0.9.0 2023&#45;11&#45;25 Caikunzhen 1.">
<polygon fill="white" stroke="#666666" points="2435,-167.5 2294,-167.5 2294,-137.5 2435,-137.5 2435,-167.5"/>
<text text-anchor="start" x="2302" y="-155.5" font-family="Helvetica,sans-Serif" font-size="10.00">HW&#45;Components/devices</text>
<text text-anchor="middle" x="2364.5" y="-144.5" font-family="Helvetica,sans-Serif" font-size="10.00">/motor/inc/motor_M8910.hpp</text>
</a>
</g>
</g>
<!-- Node16&#45;&gt;Node29 -->
<g id="edge125_Node000016_Node000029" class="edge">
<title>Node16&#45;&gt;Node29</title>
<g id="a_edge125_Node000016_Node000029"><a xlink:title=" ">
<path fill="none" stroke="#63b8ff" d="M1804.29,-224.21C1912.54,-217.46 2114.48,-202.03 2284.5,-173 2292.67,-171.6 2301.25,-169.84 2309.63,-167.95"/>
<polygon fill="#63b8ff" stroke="#63b8ff" points="1804.24,-220.77 1794.47,-224.88 1804.67,-227.76 1804.24,-220.77"/>
</a>
</g>
</g>
<!-- Node31 -->
<g id="Node000031" class="node">
<title>Node31</title>
<g id="a_Node000031"><a xlink:href="$motor___m_f9025v2_8hpp.html" xlink:title=": @history : Version Date Author Note V0.9.0 2023&#45;11&#45;25 Caikunzhen 1.">
<polygon fill="white" stroke="#666666" points="1280.5,-167.5 1124.5,-167.5 1124.5,-137.5 1280.5,-137.5 1280.5,-167.5"/>
<text text-anchor="start" x="1132.5" y="-155.5" font-family="Helvetica,sans-Serif" font-size="10.00">HW&#45;Components/devices</text>
<text text-anchor="middle" x="1202.5" y="-144.5" font-family="Helvetica,sans-Serif" font-size="10.00">/motor/inc/motor_MF9025v2.hpp</text>
</a>
</g>
</g>
<!-- Node16&#45;&gt;Node31 -->
<g id="edge128_Node000016_Node000031" class="edge">
<title>Node16&#45;&gt;Node31</title>
<g id="a_edge128_Node000016_Node000031"><a xlink:title=" ">
<path fill="none" stroke="#63b8ff" d="M1648.66,-220.85C1561,-211.72 1414.48,-194.89 1289.5,-173 1281.11,-171.53 1272.32,-169.79 1263.67,-167.97"/>
<polygon fill="#63b8ff" stroke="#63b8ff" points="1648.27,-224.43 1658.57,-221.98 1648.99,-217.47 1648.27,-224.43"/>
</a>
</g>
</g>
<!-- Node33 -->
<g id="Node000033" class="node">
<title>Node33</title>
<g id="a_Node000033"><a xlink:href="$motor__base_8cpp.html" xlink:title=": @history : Version Date Author Note V0.9.0 2023&#45;11&#45;25 Caikunzhen 1.">
<polygon fill="white" stroke="#666666" points="1576.5,-167.5 1442.5,-167.5 1442.5,-137.5 1576.5,-137.5 1576.5,-167.5"/>
<text text-anchor="start" x="1450.5" y="-155.5" font-family="Helvetica,sans-Serif" font-size="10.00">HW&#45;Components/devices</text>
<text text-anchor="middle" x="1509.5" y="-144.5" font-family="Helvetica,sans-Serif" font-size="10.00">/motor/src/motor_base.cpp</text>
</a>
</g>
</g>
<!-- Node16&#45;&gt;Node33 -->
<g id="edge131_Node000016_Node000033" class="edge">
<title>Node16&#45;&gt;Node33</title>
<g id="a_edge131_Node000016_Node000033"><a xlink:title=" ">
<path fill="none" stroke="#63b8ff" d="M1674.37,-210.48C1636.63,-197.44 1586.3,-180.04 1551.21,-167.92"/>
<polygon fill="#63b8ff" stroke="#63b8ff" points="1673.07,-214.08 1683.66,-214.04 1675.35,-207.46 1673.07,-214.08"/>
</a>
</g>
</g>
<!-- Node18 -->
<g id="Node000018" class="node">
<title>Node18</title>
<g id="a_Node000018"><a xlink:href="$motor_8cpp.html" xlink:title=": @history : Version Date Author Note V0.9.0 yyyy&#45;mm&#45;dd &lt;author&gt; 1.">
<polygon fill="white" stroke="#666666" points="1790.5,-30 1664.5,-30 1664.5,0 1790.5,0 1790.5,-30"/>
<text text-anchor="start" x="1672.5" y="-18" font-family="Helvetica,sans-Serif" font-size="10.00">HW&#45;Components/devices</text>
<text text-anchor="middle" x="1727.5" y="-7" font-family="Helvetica,sans-Serif" font-size="10.00">/motor/src/motor.cpp</text>
</a>
</g>
</g>
<!-- Node17&#45;&gt;Node18 -->
<g id="edge109_Node000017_Node000018" class="edge">
<title>Node17&#45;&gt;Node18</title>
<g id="a_edge109_Node000017_Node000018"><a xlink:title=" ">
<path fill="none" stroke="#63b8ff" d="M1727.5,-54.97C1727.5,-46.55 1727.5,-37.45 1727.5,-30.16"/>
<polygon fill="#63b8ff" stroke="#63b8ff" points="1724,-54.8 1727.5,-64.8 1731,-54.8 1724,-54.8"/>
</a>
</g>
</g>
<!-- Node19&#45;&gt;Node17 -->
<g id="edge111_Node000019_Node000017" class="edge">
<title>Node19&#45;&gt;Node17</title>
<g id="a_edge111_Node000019_Node000017"><a xlink:title=" ">
<path fill="none" stroke="#63b8ff" d="M1422.53,-134.5C1426.23,-133.62 1429.91,-132.78 1433.5,-132 1531.2,-110.91 1557.1,-113.54 1655.5,-96 1658.38,-95.49 1661.33,-94.95 1664.3,-94.4"/>
<polygon fill="#63b8ff" stroke="#63b8ff" points="1421.95,-131.29 1413.08,-137.09 1423.63,-138.08 1421.95,-131.29"/>
</a>
</g>
</g>
<!-- Node20 -->
<g id="Node000020" class="node">
<title>Node20</title>
<g id="a_Node000020"><a xlink:href="$motor___a1_8cpp.html" xlink:title=": @history : Version Date Author Note V0.9.0 2023&#45;11&#45;25 Caikunzhen 1.">
<polygon fill="white" stroke="#666666" points="1424.5,-96 1298.5,-96 1298.5,-66 1424.5,-66 1424.5,-96"/>
<text text-anchor="start" x="1306.5" y="-84" font-family="Helvetica,sans-Serif" font-size="10.00">HW&#45;Components/devices</text>
<text text-anchor="middle" x="1361.5" y="-73" font-family="Helvetica,sans-Serif" font-size="10.00">/motor/src/motor_A1.cpp</text>
</a>
</g>
</g>
<!-- Node19&#45;&gt;Node20 -->
<g id="edge112_Node000019_Node000020" class="edge">
<title>Node19&#45;&gt;Node20</title>
<g id="a_edge112_Node000019_Node000020"><a xlink:title=" ">
<path fill="none" stroke="#63b8ff" d="M1361.5,-126.41C1361.5,-116.32 1361.5,-105.04 1361.5,-96.38"/>
<polygon fill="#63b8ff" stroke="#63b8ff" points="1358,-126.1 1361.5,-136.1 1365,-126.1 1358,-126.1"/>
</a>
</g>
</g>
<!-- Node21&#45;&gt;Node17 -->
<g id="edge114_Node000021_Node000017" class="edge">
<title>Node21&#45;&gt;Node17</title>
<g id="a_edge114_Node000021_Node000017"><a xlink:title=" ">
<path fill="none" stroke="#63b8ff" d="M1691.24,-128.67C1699.51,-118.03 1709.09,-105.7 1716.33,-96.38"/>
<polygon fill="#63b8ff" stroke="#63b8ff" points="1688.06,-126.06 1684.69,-136.1 1693.59,-130.35 1688.06,-126.06"/>
</a>
</g>
</g>
<!-- Node22 -->
<g id="Node000022" class="node">
<title>Node22</title>
<g id="a_Node000022"><a xlink:href="$motor___d_m___j4310_8cpp.html" xlink:title=": @history : Version Date Author Note V0.9.0 2023&#45;11&#45;25 Caikunzhen 1.">
<polygon fill="white" stroke="#666666" points="1646.5,-96 1488.5,-96 1488.5,-66 1646.5,-66 1646.5,-96"/>
<text text-anchor="start" x="1496.5" y="-84" font-family="Helvetica,sans-Serif" font-size="10.00">HW&#45;Components/devices</text>
<text text-anchor="middle" x="1567.5" y="-73" font-family="Helvetica,sans-Serif" font-size="10.00">/motor/src/motor_DM_J4310.cpp</text>
</a>
</g>
</g>
<!-- Node21&#45;&gt;Node22 -->
<g id="edge115_Node000021_Node000022" class="edge">
<title>Node21&#45;&gt;Node22</title>
<g id="a_edge115_Node000021_Node000022"><a xlink:title=" ">
<path fill="none" stroke="#63b8ff" d="M1642.51,-131.18C1625.49,-120.02 1604.78,-106.44 1589.44,-96.38"/>
<polygon fill="#63b8ff" stroke="#63b8ff" points="1640.25,-134.54 1650.54,-137.1 1644.09,-128.69 1640.25,-134.54"/>
</a>
</g>
</g>
<!-- Node23&#45;&gt;Node17 -->
<g id="edge117_Node000023_Node000017" class="edge">
<title>Node23&#45;&gt;Node17</title>
<g id="a_edge117_Node000023_Node000017"><a xlink:title=" ">
<path fill="none" stroke="#63b8ff" d="M1841.34,-132.72C1815.68,-121.29 1783.41,-106.91 1759.78,-96.38"/>
<polygon fill="#63b8ff" stroke="#63b8ff" points="1839.62,-136.23 1850.18,-137.1 1842.47,-129.83 1839.62,-136.23"/>
</a>
</g>
</g>
<!-- Node24 -->
<g id="Node000024" class="node">
<title>Node24</title>
<g id="a_Node000024"><a xlink:href="$motor___g_m6020_8cpp.html" xlink:title=" ">
<polygon fill="white" stroke="#666666" points="1958,-96 1809,-96 1809,-66 1958,-66 1958,-96"/>
<text text-anchor="start" x="1817" y="-84" font-family="Helvetica,sans-Serif" font-size="10.00">HW&#45;Components/devices</text>
<text text-anchor="middle" x="1883.5" y="-73" font-family="Helvetica,sans-Serif" font-size="10.00">/motor/src/motor_GM6020.cpp</text>
</a>
</g>
</g>
<!-- Node23&#45;&gt;Node24 -->
<g id="edge118_Node000023_Node000024" class="edge">
<title>Node23&#45;&gt;Node24</title>
<g id="a_edge118_Node000023_Node000024"><a xlink:title=" ">
<path fill="none" stroke="#63b8ff" d="M1883.5,-126.41C1883.5,-116.32 1883.5,-105.04 1883.5,-96.38"/>
<polygon fill="#63b8ff" stroke="#63b8ff" points="1880,-126.1 1883.5,-136.1 1887,-126.1 1880,-126.1"/>
</a>
</g>
</g>
<!-- Node25&#45;&gt;Node17 -->
<g id="edge120_Node000025_Node000017" class="edge">
<title>Node25&#45;&gt;Node17</title>
<g id="a_edge120_Node000025_Node000017"><a xlink:title=" ">
<path fill="none" stroke="#63b8ff" d="M1977.49,-134.53C1973.78,-133.66 1970.09,-132.81 1966.5,-132 1907.07,-118.54 1839.02,-104.43 1790.77,-94.65"/>
<polygon fill="#63b8ff" stroke="#63b8ff" points="1976.47,-138.12 1987.01,-137.01 1978.08,-131.31 1976.47,-138.12"/>
</a>
</g>
</g>
<!-- Node26 -->
<g id="Node000026" class="node">
<title>Node26</title>
<g id="a_Node000026"><a xlink:href="$motor___m2006_8cpp.html" xlink:title=": @history : Version Date Author Note V0.9.0 2023&#45;11&#45;25 Caikunzhen 1.">
<polygon fill="white" stroke="#666666" points="2118.5,-96 1976.5,-96 1976.5,-66 2118.5,-66 2118.5,-96"/>
<text text-anchor="start" x="1984.5" y="-84" font-family="Helvetica,sans-Serif" font-size="10.00">HW&#45;Components/devices</text>
<text text-anchor="middle" x="2047.5" y="-73" font-family="Helvetica,sans-Serif" font-size="10.00">/motor/src/motor_M2006.cpp</text>
</a>
</g>
</g>
<!-- Node25&#45;&gt;Node26 -->
<g id="edge121_Node000025_Node000026" class="edge">
<title>Node25&#45;&gt;Node26</title>
<g id="a_edge121_Node000025_Node000026"><a xlink:title=" ">
<path fill="none" stroke="#63b8ff" d="M2046.86,-126.41C2047.01,-116.32 2047.17,-105.04 2047.29,-96.38"/>
<polygon fill="#63b8ff" stroke="#63b8ff" points="2043.35,-126.05 2046.71,-136.1 2050.35,-126.15 2043.35,-126.05"/>
</a>
</g>
</g>
<!-- Node27&#45;&gt;Node17 -->
<g id="edge123_Node000027_Node000017" class="edge">
<title>Node27&#45;&gt;Node17</title>
<g id="a_edge123_Node000027_Node000017"><a xlink:title=" ">
<path fill="none" stroke="#63b8ff" d="M2139.7,-134.75C2134.91,-133.75 2130.14,-132.82 2125.5,-132 1981.94,-106.69 1943.61,-117.93 1799.5,-96 1796.6,-95.56 1793.65,-95.08 1790.67,-94.59"/>
<polygon fill="#63b8ff" stroke="#63b8ff" points="2138.66,-138.32 2149.18,-137.03 2140.15,-131.48 2138.66,-138.32"/>
</a>
</g>
</g>
<!-- Node28 -->
<g id="Node000028" class="node">
<title>Node28</title>
<g id="a_Node000028"><a xlink:href="$motor___m3508_8cpp.html" xlink:title=": @history : Version Date Author Note V0.9.0 2023&#45;11&#45;25 Caikunzhen 1.">
<polygon fill="white" stroke="#666666" points="2278.5,-96 2136.5,-96 2136.5,-66 2278.5,-66 2278.5,-96"/>
<text text-anchor="start" x="2144.5" y="-84" font-family="Helvetica,sans-Serif" font-size="10.00">HW&#45;Components/devices</text>
<text text-anchor="middle" x="2207.5" y="-73" font-family="Helvetica,sans-Serif" font-size="10.00">/motor/src/motor_M3508.cpp</text>
</a>
</g>
</g>
<!-- Node27&#45;&gt;Node28 -->
<g id="edge124_Node000027_Node000028" class="edge">
<title>Node27&#45;&gt;Node28</title>
<g id="a_edge124_Node000027_Node000028"><a xlink:title=" ">
<path fill="none" stroke="#63b8ff" d="M2206.22,-126.41C2206.51,-116.32 2206.84,-105.04 2207.09,-96.38"/>
<polygon fill="#63b8ff" stroke="#63b8ff" points="2202.7,-126 2205.91,-136.1 2209.7,-126.2 2202.7,-126"/>
</a>
</g>
</g>
<!-- Node29&#45;&gt;Node17 -->
<g id="edge126_Node000029_Node000017" class="edge">
<title>Node29&#45;&gt;Node17</title>
<g id="a_edge126_Node000029_Node000017"><a xlink:title=" ">
<path fill="none" stroke="#63b8ff" d="M2299.9,-134.79C2294.71,-133.75 2289.53,-132.79 2284.5,-132 2071,-98.29 2013.74,-124.68 1799.5,-96 1796.6,-95.61 1793.63,-95.18 1790.65,-94.72"/>
<polygon fill="#63b8ff" stroke="#63b8ff" points="2299.01,-138.4 2309.52,-137.06 2300.48,-131.55 2299.01,-138.4"/>
</a>
</g>
</g>
<!-- Node30 -->
<g id="Node000030" class="node">
<title>Node30</title>
<g id="a_Node000030"><a xlink:href="$motor___m8910_8cpp.html" xlink:title=": @history : Version Date Author Note V0.9.0 2023&#45;11&#45;25 Caikunzhen 1.">
<polygon fill="white" stroke="#666666" points="2438.5,-96 2296.5,-96 2296.5,-66 2438.5,-66 2438.5,-96"/>
<text text-anchor="start" x="2304.5" y="-84" font-family="Helvetica,sans-Serif" font-size="10.00">HW&#45;Components/devices</text>
<text text-anchor="middle" x="2367.5" y="-73" font-family="Helvetica,sans-Serif" font-size="10.00">/motor/src/motor_M8910.cpp</text>
</a>
</g>
</g>
<!-- Node29&#45;&gt;Node30 -->
<g id="edge127_Node000029_Node000030" class="edge">
<title>Node29&#45;&gt;Node30</title>
<g id="a_edge127_Node000029_Node000030"><a xlink:title=" ">
<path fill="none" stroke="#63b8ff" d="M2365.58,-126.41C2366.02,-116.32 2366.51,-105.04 2366.88,-96.38"/>
<polygon fill="#63b8ff" stroke="#63b8ff" points="2362.06,-125.96 2365.12,-136.1 2369.05,-126.26 2362.06,-125.96"/>
</a>
</g>
</g>
<!-- Node31&#45;&gt;Node17 -->
<g id="edge129_Node000031_Node000017" class="edge">
<title>Node31&#45;&gt;Node17</title>
<g id="a_edge129_Node000031_Node000017"><a xlink:title=" ">
<path fill="none" stroke="#63b8ff" d="M1273.23,-134.89C1278.72,-133.83 1284.19,-132.85 1289.5,-132 1450.88,-106.08 1493.76,-119.63 1655.5,-96 1658.4,-95.58 1661.36,-95.12 1664.34,-94.63"/>
<polygon fill="#63b8ff" stroke="#63b8ff" points="1272.81,-131.61 1263.69,-137.01 1274.18,-138.47 1272.81,-131.61"/>
</a>
</g>
</g>
<!-- Node32 -->
<g id="Node000032" class="node">
<title>Node32</title>
<g id="a_Node000032"><a xlink:href="$motor___m_f9025v2_8cpp.html" xlink:title=": @history : Version Date Author Note V0.9.0 2023&#45;11&#45;25 Caikunzhen 1.">
<polygon fill="white" stroke="#666666" points="1280,-96 1123,-96 1123,-66 1280,-66 1280,-96"/>
<text text-anchor="start" x="1131" y="-84" font-family="Helvetica,sans-Serif" font-size="10.00">HW&#45;Components/devices</text>
<text text-anchor="middle" x="1201.5" y="-73" font-family="Helvetica,sans-Serif" font-size="10.00">/motor/src/motor_MF9025v2.cpp</text>
</a>
</g>
</g>
<!-- Node31&#45;&gt;Node32 -->
<g id="edge130_Node000031_Node000032" class="edge">
<title>Node31&#45;&gt;Node32</title>
<g id="a_edge130_Node000031_Node000032"><a xlink:title=" ">
<path fill="none" stroke="#63b8ff" d="M1202.14,-126.41C1201.99,-116.32 1201.83,-105.04 1201.71,-96.38"/>
<polygon fill="#63b8ff" stroke="#63b8ff" points="1198.65,-126.15 1202.29,-136.1 1205.65,-126.05 1198.65,-126.15"/>
</a>
</g>
</g>
<!-- Node35 -->
<g id="Node000035" class="node">
<title>Node35</title>
<g id="a_Node000035"><a xlink:href="$_d_t7_8cpp.html" xlink:title=": @history : Version Date Author Note V1.0.0 2023&#45;12&#45;05 Caikunzhen 1.">
<polygon fill="white" stroke="#666666" points="2593.5,-167.5 2453.5,-167.5 2453.5,-137.5 2593.5,-137.5 2593.5,-167.5"/>
<text text-anchor="start" x="2461.5" y="-155.5" font-family="Helvetica,sans-Serif" font-size="10.00">HW&#45;Components/devices</text>
<text text-anchor="middle" x="2523.5" y="-144.5" font-family="Helvetica,sans-Serif" font-size="10.00">/remote_control/src/DT7.cpp</text>
</a>
</g>
</g>
<!-- Node34&#45;&gt;Node35 -->
<g id="edge133_Node000034_Node000035" class="edge">
<title>Node34&#45;&gt;Node35</title>
<g id="a_edge133_Node000034_Node000035"><a xlink:title=" ">
<path fill="none" stroke="#63b8ff" d="M2295.76,-211.4C2347.33,-198.29 2417.73,-180.39 2466.54,-167.98"/>
<polygon fill="#63b8ff" stroke="#63b8ff" points="2295.21,-208.18 2286.38,-214.04 2296.93,-214.97 2295.21,-208.18"/>
</a>
</g>
</g>
<!-- Node37 -->
<g id="Node000037" class="node">
<title>Node37</title>
<g id="a_Node000037"><a xlink:href="$servo_8cpp.html" xlink:title=": @history : Version Date Author Note V0.9.0 2023&#45;11&#45;27 Caikunzhen 1.">
<polygon fill="white" stroke="#666666" points="2737.5,-167.5 2611.5,-167.5 2611.5,-137.5 2737.5,-137.5 2737.5,-167.5"/>
<text text-anchor="start" x="2619.5" y="-155.5" font-family="Helvetica,sans-Serif" font-size="10.00">HW&#45;Components/devices</text>
<text text-anchor="middle" x="2674.5" y="-144.5" font-family="Helvetica,sans-Serif" font-size="10.00">/servo/src/servo.cpp</text>
</a>
</g>
</g>
<!-- Node36&#45;&gt;Node37 -->
<g id="edge135_Node000036_Node000037" class="edge">
<title>Node36&#45;&gt;Node37</title>
<g id="a_edge135_Node000036_Node000037"><a xlink:title=" ">
<path fill="none" stroke="#63b8ff" d="M2586.14,-208.27C2606.7,-195.52 2632.76,-179.37 2651.24,-167.92"/>
<polygon fill="#63b8ff" stroke="#63b8ff" points="2584.49,-205.8 2577.83,-214.04 2588.17,-211.75 2584.49,-205.8"/>
</a>
</g>
</g>
</g>
</svg>
