<?xml version="1.0" encoding="UTF-8" standalone="no"?>
<!DOCTYPE svg PUBLIC "-//W3C//DTD SVG 1.1//EN"
 "http://www.w3.org/Graphics/SVG/1.1/DTD/svg11.dtd">
<!-- Generated by graphviz version 8.0.3 (20230416.2022)
 -->
<!-- Title: HW&#45;Components/dsp/tick/tick.hpp Pages: 1 -->
<svg width="582pt" height="335pt"
 viewBox="0.00 0.00 581.50 335.00" xmlns="http://www.w3.org/2000/svg" xmlns:xlink="http://www.w3.org/1999/xlink">
<g id="graph0" class="graph" transform="scale(1 1) rotate(0) translate(4 331)">
<title>HW&#45;Components/dsp/tick/tick.hpp</title>
<!-- Node1 -->
<g id="Node000001" class="node">
<title>Node1</title>
<g id="a_Node000001"><a xlink:title=" ">
<polygon fill="#999999" stroke="#666666" points="356.5,-327 228.5,-327 228.5,-297 356.5,-297 356.5,-327"/>
<text text-anchor="start" x="236.5" y="-315" font-family="Helvetica,sans-Serif" font-size="10.00">HW&#45;Components/dsp/tick</text>
<text text-anchor="middle" x="292.5" y="-304" font-family="Helvetica,sans-Serif" font-size="10.00">/tick.hpp</text>
</a>
</g>
</g>
<!-- Node2 -->
<g id="Node000002" class="node">
<title>Node2</title>
<g id="a_Node000002"><a xlink:href="$pid_8cpp.html" xlink:title=" ">
<polygon fill="white" stroke="#666666" points="139,-255.5 0,-255.5 0,-225.5 139,-225.5 139,-255.5"/>
<text text-anchor="start" x="8" y="-243.5" font-family="Helvetica,sans-Serif" font-size="10.00">HW&#45;Components/algorithms</text>
<text text-anchor="middle" x="69.5" y="-232.5" font-family="Helvetica,sans-Serif" font-size="10.00">/controller/src/pid.cpp</text>
</a>
</g>
</g>
<!-- Node1&#45;&gt;Node2 -->
<g id="edge21_Node000001_Node000002" class="edge">
<title>Node1&#45;&gt;Node2</title>
<g id="a_edge21_Node000001_Node000002"><a xlink:title=" ">
<path fill="none" stroke="#63b8ff" d="M235.86,-293.35C198.73,-281.77 150.79,-266.83 115.92,-255.97"/>
<polygon fill="#63b8ff" stroke="#63b8ff" points="234.43,-296.88 245.02,-296.52 236.52,-290.2 234.43,-296.88"/>
</a>
</g>
</g>
<!-- Node3 -->
<g id="Node000003" class="node">
<title>Node3</title>
<g id="a_Node000003"><a xlink:href="$buzzer_8cpp.html" xlink:title=": @history : Version Date Author Note V0.9.0 2023&#45;11&#45;28 Caikunzhen 1.">
<polygon fill="white" stroke="#666666" points="283.5,-255.5 157.5,-255.5 157.5,-225.5 283.5,-225.5 283.5,-255.5"/>
<text text-anchor="start" x="165.5" y="-243.5" font-family="Helvetica,sans-Serif" font-size="10.00">HW&#45;Components/devices</text>
<text text-anchor="middle" x="220.5" y="-232.5" font-family="Helvetica,sans-Serif" font-size="10.00">/buzzer/src/buzzer.cpp</text>
</a>
</g>
</g>
<!-- Node1&#45;&gt;Node3 -->
<g id="edge22_Node000001_Node000003" class="edge">
<title>Node1&#45;&gt;Node3</title>
<g id="a_edge22_Node000001_Node000003"><a xlink:title=" ">
<path fill="none" stroke="#63b8ff" d="M269.83,-289.12C258.59,-278.27 245.34,-265.48 235.4,-255.88"/>
<polygon fill="#63b8ff" stroke="#63b8ff" points="266.96,-291.17 276.58,-295.6 271.82,-286.14 266.96,-291.17"/>
</a>
</g>
</g>
<!-- Node4 -->
<g id="Node000004" class="node">
<title>Node4</title>
<g id="a_Node000004"><a xlink:href="$referee__rx__template_8hpp.html" xlink:title=" ">
<polygon fill="white" stroke="#666666" points="427.5,-261 301.5,-261 301.5,-220 427.5,-220 427.5,-261"/>
<text text-anchor="start" x="309.5" y="-249" font-family="Helvetica,sans-Serif" font-size="10.00">HW&#45;Components/devices</text>
<text text-anchor="start" x="309.5" y="-238" font-family="Helvetica,sans-Serif" font-size="10.00">/referee/inc/referee</text>
<text text-anchor="middle" x="364.5" y="-227" font-family="Helvetica,sans-Serif" font-size="10.00">_rx_template.hpp</text>
</a>
</g>
</g>
<!-- Node1&#45;&gt;Node4 -->
<g id="edge23_Node000001_Node000004" class="edge">
<title>Node1&#45;&gt;Node4</title>
<g id="a_edge23_Node000001_Node000004"><a xlink:title=" ">
<path fill="none" stroke="#63b8ff" d="M315.09,-289.2C324.29,-280.31 334.87,-270.1 343.87,-261.42"/>
<polygon fill="#63b8ff" stroke="#63b8ff" points="313.18,-286.14 308.42,-295.6 318.04,-291.17 313.18,-286.14"/>
</a>
</g>
</g>
<!-- Node9 -->
<g id="Node000009" class="node">
<title>Node9</title>
<g id="a_Node000009"><a xlink:href="$tick_8cpp.html" xlink:title=" ">
<polygon fill="white" stroke="#666666" points="573.5,-255.5 445.5,-255.5 445.5,-225.5 573.5,-225.5 573.5,-255.5"/>
<text text-anchor="start" x="453.5" y="-243.5" font-family="Helvetica,sans-Serif" font-size="10.00">HW&#45;Components/dsp/tick</text>
<text text-anchor="middle" x="509.5" y="-232.5" font-family="Helvetica,sans-Serif" font-size="10.00">/tick.cpp</text>
</a>
</g>
</g>
<!-- Node1&#45;&gt;Node9 -->
<g id="edge30_Node000001_Node000009" class="edge">
<title>Node1&#45;&gt;Node9</title>
<g id="a_edge30_Node000001_Node000009"><a xlink:title=" ">
<path fill="none" stroke="#63b8ff" d="M348.08,-293.2C384.15,-281.65 430.54,-266.79 464.33,-255.97"/>
<polygon fill="#63b8ff" stroke="#63b8ff" points="347.18,-290.13 338.73,-296.52 349.32,-296.8 347.18,-290.13"/>
</a>
</g>
</g>
<!-- Node5 -->
<g id="Node000005" class="node">
<title>Node5</title>
<g id="a_Node000005"><a xlink:href="$referee_8hpp.html" xlink:title=" ">
<polygon fill="white" stroke="#666666" points="381.5,-101.5 255.5,-101.5 255.5,-71.5 381.5,-71.5 381.5,-101.5"/>
<text text-anchor="start" x="263.5" y="-89.5" font-family="Helvetica,sans-Serif" font-size="10.00">HW&#45;Components/devices</text>
<text text-anchor="middle" x="318.5" y="-78.5" font-family="Helvetica,sans-Serif" font-size="10.00">/referee/inc/referee.hpp</text>
</a>
</g>
</g>
<!-- Node4&#45;&gt;Node5 -->
<g id="edge24_Node000004_Node000005" class="edge">
<title>Node4&#45;&gt;Node5</title>
<g id="a_edge24_Node000004_Node000005"><a xlink:title=" ">
<path fill="none" stroke="#63b8ff" d="M348.47,-210.15C344.44,-201.87 340.43,-192.74 337.5,-184 328,-155.67 322.61,-120.98 320.15,-101.86"/>
<polygon fill="#63b8ff" stroke="#63b8ff" points="345.69,-211.39 353.33,-218.73 351.93,-208.23 345.69,-211.39"/>
</a>
</g>
</g>
<!-- Node7 -->
<g id="Node000007" class="node">
<title>Node7</title>
<g id="a_Node000007"><a xlink:href="$referee__custom__define_8hpp.html" xlink:title=" ">
<polygon fill="white" stroke="#666666" points="472.5,-184 346.5,-184 346.5,-143 472.5,-143 472.5,-184"/>
<text text-anchor="start" x="354.5" y="-172" font-family="Helvetica,sans-Serif" font-size="10.00">HW&#45;Components/devices</text>
<text text-anchor="start" x="354.5" y="-161" font-family="Helvetica,sans-Serif" font-size="10.00">/referee/inc/referee</text>
<text text-anchor="middle" x="409.5" y="-150" font-family="Helvetica,sans-Serif" font-size="10.00">_custom_define.hpp</text>
</a>
</g>
</g>
<!-- Node4&#45;&gt;Node7 -->
<g id="edge26_Node000004_Node000007" class="edge">
<title>Node4&#45;&gt;Node7</title>
<g id="a_edge26_Node000004_Node000007"><a xlink:title=" ">
<path fill="none" stroke="#63b8ff" d="M381.83,-210.62C387.1,-201.83 392.77,-192.38 397.6,-184.33"/>
<polygon fill="#63b8ff" stroke="#63b8ff" points="378.47,-208.42 376.32,-218.79 384.47,-212.02 378.47,-208.42"/>
</a>
</g>
</g>
<!-- Node6 -->
<g id="Node000006" class="node">
<title>Node6</title>
<g id="a_Node000006"><a xlink:href="$referee_8cpp.html" xlink:title=" ">
<polygon fill="white" stroke="#666666" points="453.5,-30 327.5,-30 327.5,0 453.5,0 453.5,-30"/>
<text text-anchor="start" x="335.5" y="-18" font-family="Helvetica,sans-Serif" font-size="10.00">HW&#45;Components/devices</text>
<text text-anchor="middle" x="390.5" y="-7" font-family="Helvetica,sans-Serif" font-size="10.00">/referee/src/referee.cpp</text>
</a>
</g>
</g>
<!-- Node5&#45;&gt;Node6 -->
<g id="edge25_Node000005_Node000006" class="edge">
<title>Node5&#45;&gt;Node6</title>
<g id="a_edge25_Node000005_Node000006"><a xlink:title=" ">
<path fill="none" stroke="#63b8ff" d="M341.17,-63.62C352.41,-52.77 365.66,-39.98 375.6,-30.38"/>
<polygon fill="#63b8ff" stroke="#63b8ff" points="339.18,-60.64 334.42,-70.1 344.04,-65.67 339.18,-60.64"/>
</a>
</g>
</g>
<!-- Node7&#45;&gt;Node5 -->
<g id="edge27_Node000007_Node000005" class="edge">
<title>Node7&#45;&gt;Node5</title>
<g id="a_edge27_Node000007_Node000005"><a xlink:title=" ">
<path fill="none" stroke="#63b8ff" d="M377.22,-135.89C363.31,-124.43 347.59,-111.48 335.92,-101.86"/>
<polygon fill="#63b8ff" stroke="#63b8ff" points="374.65,-139.14 384.59,-142.79 379.1,-133.73 374.65,-139.14"/>
</a>
</g>
</g>
<!-- Node8 -->
<g id="Node000008" class="node">
<title>Node8</title>
<g id="a_Node000008"><a xlink:href="$referee__size__check_8hpp.html" xlink:title=" ">
<polygon fill="white" stroke="#666666" points="525.5,-107 399.5,-107 399.5,-66 525.5,-66 525.5,-107"/>
<text text-anchor="start" x="407.5" y="-95" font-family="Helvetica,sans-Serif" font-size="10.00">HW&#45;Components/devices</text>
<text text-anchor="start" x="407.5" y="-84" font-family="Helvetica,sans-Serif" font-size="10.00">/referee/prv/referee</text>
<text text-anchor="middle" x="462.5" y="-73" font-family="Helvetica,sans-Serif" font-size="10.00">_size_check.hpp</text>
</a>
</g>
</g>
<!-- Node7&#45;&gt;Node8 -->
<g id="edge28_Node000007_Node000008" class="edge">
<title>Node7&#45;&gt;Node8</title>
<g id="a_edge28_Node000007_Node000008"><a xlink:title=" ">
<path fill="none" stroke="#63b8ff" d="M429.71,-133.9C435.97,-125.04 442.74,-115.47 448.48,-107.33"/>
<polygon fill="#63b8ff" stroke="#63b8ff" points="426.34,-131.61 423.43,-141.79 432.05,-135.65 426.34,-131.61"/>
</a>
</g>
</g>
<!-- Node8&#45;&gt;Node6 -->
<g id="edge29_Node000008_Node000006" class="edge">
<title>Node8&#45;&gt;Node6</title>
<g id="a_edge29_Node000008_Node000006"><a xlink:title=" ">
<path fill="none" stroke="#63b8ff" d="M434.4,-58.37C424.54,-48.86 413.86,-38.54 405.49,-30.47"/>
<polygon fill="#63b8ff" stroke="#63b8ff" points="431.43,-60.34 441.06,-64.77 436.3,-55.31 431.43,-60.34"/>
</a>
</g>
</g>
</g>
</svg>
