<?xml version="1.0" encoding="UTF-8" standalone="no"?>
<!DOCTYPE svg PUBLIC "-//W3C//DTD SVG 1.1//EN"
 "http://www.w3.org/Graphics/SVG/1.1/DTD/svg11.dtd">
<!-- Generated by graphviz version 8.0.3 (20230416.2022)
 -->
<!-- Title: HW&#45;Components/tools/inc/assert.hpp Pages: 1 -->
<svg width="1974pt" height="390pt"
 viewBox="0.00 0.00 1974.00 390.00" xmlns="http://www.w3.org/2000/svg" xmlns:xlink="http://www.w3.org/1999/xlink">
<g id="graph0" class="graph" transform="scale(1 1) rotate(0) translate(4 386)">
<title>HW&#45;Components/tools/inc/assert.hpp</title>
<!-- Node1 -->
<g id="Node000001" class="node">
<title>Node1</title>
<g id="a_Node000001"><a xlink:title=": @history : Version Date Author Note V0.9.0 yyyy&#45;mm&#45;dd &lt;author&gt; 1.">
<polygon fill="#999999" stroke="#666666" points="1354.5,-382 1239.5,-382 1239.5,-352 1354.5,-352 1354.5,-382"/>
<text text-anchor="start" x="1247.5" y="-370" font-family="Helvetica,sans-Serif" font-size="10.00">HW&#45;Components/tools</text>
<text text-anchor="middle" x="1297" y="-359" font-family="Helvetica,sans-Serif" font-size="10.00">/inc/assert.hpp</text>
</a>
</g>
</g>
<!-- Node2 -->
<g id="Node000002" class="node">
<title>Node2</title>
<g id="a_Node000002"><a xlink:href="buzzer_8cpp.html" target="_top" xlink:title=": @history : Version Date Author Note V0.9.0 2023&#45;11&#45;28 Caikunzhen 1.">
<polygon fill="white" stroke="#666666" points="722,-244.5 596,-244.5 596,-214.5 722,-214.5 722,-244.5"/>
<text text-anchor="start" x="604" y="-232.5" font-family="Helvetica,sans-Serif" font-size="10.00">HW&#45;Components/devices</text>
<text text-anchor="middle" x="659" y="-221.5" font-family="Helvetica,sans-Serif" font-size="10.00">/buzzer/src/buzzer.cpp</text>
</a>
</g>
</g>
<!-- Node1&#45;&gt;Node2 -->
<g id="edge1_Node000001_Node000002" class="edge">
<title>Node1&#45;&gt;Node2</title>
<g id="a_edge1_Node000001_Node000002"><a xlink:title=" ">
<path fill="none" stroke="#63b8ff" d="M1228.55,-357.66C1162.9,-349.12 1061.15,-334.51 974,-316 877.69,-295.54 767.01,-263.47 705.83,-244.97"/>
<polygon fill="#63b8ff" stroke="#63b8ff" points="1227.81,-361.22 1238.18,-359.03 1228.71,-354.28 1227.81,-361.22"/>
</a>
</g>
</g>
<!-- Node3 -->
<g id="Node000003" class="node">
<title>Node3</title>
<g id="a_Node000003"><a xlink:href="_b_m_i088_8cpp.html" target="_top" xlink:title=": @history : Version Date Author Note V0.9.0 yyyy&#45;mm&#45;dd &lt;author&gt; 1.">
<polygon fill="white" stroke="#666666" points="866,-244.5 740,-244.5 740,-214.5 866,-214.5 866,-244.5"/>
<text text-anchor="start" x="748" y="-232.5" font-family="Helvetica,sans-Serif" font-size="10.00">HW&#45;Components/devices</text>
<text text-anchor="middle" x="803" y="-221.5" font-family="Helvetica,sans-Serif" font-size="10.00">/imu/src/BMI088.cpp</text>
</a>
</g>
</g>
<!-- Node1&#45;&gt;Node3 -->
<g id="edge2_Node000001_Node000003" class="edge">
<title>Node1&#45;&gt;Node3</title>
<g id="a_edge2_Node000001_Node000003"><a xlink:title=" ">
<path fill="none" stroke="#63b8ff" d="M1228.9,-352.08C1185.03,-342.75 1126.88,-329.7 1076,-316 993.51,-293.79 898.63,-262.83 845.25,-244.9"/>
<polygon fill="#63b8ff" stroke="#63b8ff" points="1227.94,-355.67 1238.45,-354.32 1229.39,-348.82 1227.94,-355.67"/>
</a>
</g>
</g>
<!-- Node4 -->
<g id="Node000004" class="node">
<title>Node4</title>
<g id="a_Node000004"><a xlink:href="laser_8cpp.html" target="_top" xlink:title=": @history : Version Date Author Note V0.9.0 2023&#45;11&#45;27 Caikunzhen 1.">
<polygon fill="white" stroke="#666666" points="1476,-244.5 1350,-244.5 1350,-214.5 1476,-214.5 1476,-244.5"/>
<text text-anchor="start" x="1358" y="-232.5" font-family="Helvetica,sans-Serif" font-size="10.00">HW&#45;Components/devices</text>
<text text-anchor="middle" x="1413" y="-221.5" font-family="Helvetica,sans-Serif" font-size="10.00">/laser/src/laser.cpp</text>
</a>
</g>
</g>
<!-- Node1&#45;&gt;Node4 -->
<g id="edge3_Node000001_Node000004" class="edge">
<title>Node1&#45;&gt;Node4</title>
<g id="a_edge3_Node000001_Node000004"><a xlink:title=" ">
<path fill="none" stroke="#63b8ff" d="M1316.05,-343.74C1339.98,-315.79 1380.36,-268.63 1400.62,-244.96"/>
<polygon fill="#63b8ff" stroke="#63b8ff" points="1313.04,-340.88 1309.19,-350.76 1318.36,-345.43 1313.04,-340.88"/>
</a>
</g>
</g>
<!-- Node5 -->
<g id="Node000005" class="node">
<title>Node5</title>
<g id="a_Node000005"><a xlink:href="motor_8cpp.html" target="_top" xlink:title=": @history : Version Date Author Note V0.9.0 yyyy&#45;mm&#45;dd &lt;author&gt; 1.">
<polygon fill="white" stroke="#666666" points="1472,-30 1346,-30 1346,0 1472,0 1472,-30"/>
<text text-anchor="start" x="1354" y="-18" font-family="Helvetica,sans-Serif" font-size="10.00">HW&#45;Components/devices</text>
<text text-anchor="middle" x="1409" y="-7" font-family="Helvetica,sans-Serif" font-size="10.00">/motor/src/motor.cpp</text>
</a>
</g>
</g>
<!-- Node1&#45;&gt;Node5 -->
<g id="edge4_Node000001_Node000005" class="edge">
<title>Node1&#45;&gt;Node5</title>
<g id="a_edge4_Node000001_Node000005"><a xlink:title=" ">
<path fill="none" stroke="#63b8ff" d="M1365.75,-364.64C1520.7,-361.02 1887.24,-349.01 1932,-316 1964.91,-291.73 1966,-271.39 1966,-230.5 1966,-230.5 1966,-230.5 1966,-151.5 1966,-50.86 1618.34,-24.66 1472.35,-18.1"/>
<polygon fill="#63b8ff" stroke="#63b8ff" points="1365.88,-361.16 1355.96,-364.89 1366.04,-368.16 1365.88,-361.16"/>
</a>
</g>
</g>
<!-- Node6 -->
<g id="Node000006" class="node">
<title>Node6</title>
<g id="a_Node000006"><a xlink:href="motor___a1_8cpp.html" target="_top" xlink:title=": @history : Version Date Author Note V0.9.0 2023&#45;11&#45;25 Caikunzhen 1.">
<polygon fill="white" stroke="#666666" points="126,-96 0,-96 0,-66 126,-66 126,-96"/>
<text text-anchor="start" x="8" y="-84" font-family="Helvetica,sans-Serif" font-size="10.00">HW&#45;Components/devices</text>
<text text-anchor="middle" x="63" y="-73" font-family="Helvetica,sans-Serif" font-size="10.00">/motor/src/motor_A1.cpp</text>
</a>
</g>
</g>
<!-- Node1&#45;&gt;Node6 -->
<g id="edge5_Node000001_Node000006" class="edge">
<title>Node1&#45;&gt;Node6</title>
<g id="a_edge5_Node000001_Node000006"><a xlink:title=" ">
<path fill="none" stroke="#63b8ff" d="M1228.09,-365.52C1004.08,-363.58 305.51,-354.5 212,-316 117.14,-276.94 76.98,-140.89 66.17,-96.28"/>
<polygon fill="#63b8ff" stroke="#63b8ff" points="1227.99,-369.03 1238.02,-365.61 1228.05,-362.03 1227.99,-369.03"/>
</a>
</g>
</g>
<!-- Node7 -->
<g id="Node000007" class="node">
<title>Node7</title>
<g id="a_Node000007"><a xlink:href="motor___d_m___j4310_8cpp.html" target="_top" xlink:title=": @history : Version Date Author Note V0.9.0 2023&#45;11&#45;25 Caikunzhen 1.">
<polygon fill="white" stroke="#666666" points="377,-96 219,-96 219,-66 377,-66 377,-96"/>
<text text-anchor="start" x="227" y="-84" font-family="Helvetica,sans-Serif" font-size="10.00">HW&#45;Components/devices</text>
<text text-anchor="middle" x="298" y="-73" font-family="Helvetica,sans-Serif" font-size="10.00">/motor/src/motor_DM_J4310.cpp</text>
</a>
</g>
</g>
<!-- Node1&#45;&gt;Node7 -->
<g id="edge6_Node000001_Node000007" class="edge">
<title>Node1&#45;&gt;Node7</title>
<g id="a_edge6_Node000001_Node000007"><a xlink:title=" ">
<path fill="none" stroke="#63b8ff" d="M1228.36,-364.64C1014.76,-360.11 370.72,-344.26 281,-316 186.7,-286.3 98.87,-212.69 156,-132 170.65,-111.31 194.59,-99.12 218.67,-91.96"/>
<polygon fill="#63b8ff" stroke="#63b8ff" points="1228.04,-368.15 1238.11,-364.86 1228.19,-361.15 1228.04,-368.15"/>
</a>
</g>
</g>
<!-- Node8 -->
<g id="Node000008" class="node">
<title>Node8</title>
<g id="a_Node000008"><a xlink:href="motor___g_m6020_8cpp.html" target="_top" xlink:title=" ">
<polygon fill="white" stroke="#666666" points="582.5,-96 433.5,-96 433.5,-66 582.5,-66 582.5,-96"/>
<text text-anchor="start" x="441.5" y="-84" font-family="Helvetica,sans-Serif" font-size="10.00">HW&#45;Components/devices</text>
<text text-anchor="middle" x="508" y="-73" font-family="Helvetica,sans-Serif" font-size="10.00">/motor/src/motor_GM6020.cpp</text>
</a>
</g>
</g>
<!-- Node1&#45;&gt;Node8 -->
<g id="edge7_Node000001_Node000008" class="edge">
<title>Node1&#45;&gt;Node8</title>
<g id="a_edge7_Node000001_Node000008"><a xlink:title=" ">
<path fill="none" stroke="#63b8ff" d="M1228.06,-364.27C1050.85,-359.46 582.65,-344.38 430,-316 335.48,-298.43 300.39,-308.37 224,-250 178.74,-215.42 136.83,-175.15 174,-132 182.42,-122.23 337.13,-102.26 433,-90.73"/>
<polygon fill="#63b8ff" stroke="#63b8ff" points="1227.97,-367.79 1238.06,-364.56 1228.15,-360.8 1227.97,-367.79"/>
</a>
</g>
</g>
<!-- Node9 -->
<g id="Node000009" class="node">
<title>Node9</title>
<g id="a_Node000009"><a xlink:href="motor___m2006_8cpp.html" target="_top" xlink:title=": @history : Version Date Author Note V0.9.0 2023&#45;11&#45;25 Caikunzhen 1.">
<polygon fill="white" stroke="#666666" points="762,-96 620,-96 620,-66 762,-66 762,-96"/>
<text text-anchor="start" x="628" y="-84" font-family="Helvetica,sans-Serif" font-size="10.00">HW&#45;Components/devices</text>
<text text-anchor="middle" x="691" y="-73" font-family="Helvetica,sans-Serif" font-size="10.00">/motor/src/motor_M2006.cpp</text>
</a>
</g>
</g>
<!-- Node1&#45;&gt;Node9 -->
<g id="edge8_Node000001_Node000009" class="edge">
<title>Node1&#45;&gt;Node9</title>
<g id="a_edge8_Node000001_Node000009"><a xlink:title=" ">
<path fill="none" stroke="#63b8ff" d="M1228.52,-365.3C1007.18,-361.42 317.72,-336.21 186,-173 174.56,-158.82 173.7,-145.44 186,-132 216.5,-98.67 546.12,-101.13 591,-96 600.32,-94.93 610.11,-93.7 619.77,-92.42"/>
<polygon fill="#63b8ff" stroke="#63b8ff" points="1228.27,-368.81 1238.33,-365.48 1228.39,-361.81 1228.27,-368.81"/>
</a>
</g>
</g>
<!-- Node10 -->
<g id="Node000010" class="node">
<title>Node10</title>
<g id="a_Node000010"><a xlink:href="motor___m3508_8cpp.html" target="_top" xlink:title=": @history : Version Date Author Note V0.9.0 2023&#45;11&#45;25 Caikunzhen 1.">
<polygon fill="white" stroke="#666666" points="1232,-96 1090,-96 1090,-66 1232,-66 1232,-96"/>
<text text-anchor="start" x="1098" y="-84" font-family="Helvetica,sans-Serif" font-size="10.00">HW&#45;Components/devices</text>
<text text-anchor="middle" x="1161" y="-73" font-family="Helvetica,sans-Serif" font-size="10.00">/motor/src/motor_M3508.cpp</text>
</a>
</g>
</g>
<!-- Node1&#45;&gt;Node10 -->
<g id="edge9_Node000001_Node000010" class="edge">
<title>Node1&#45;&gt;Node10</title>
<g id="a_edge9_Node000001_Node000010"><a xlink:title=" ">
<path fill="none" stroke="#63b8ff" d="M1365.29,-352.06C1499.45,-321.84 1775.88,-243.88 1674,-132 1645.15,-100.32 1332.64,-100.31 1290,-96 1271.29,-94.11 1251.05,-91.96 1232.29,-89.93"/>
<polygon fill="#63b8ff" stroke="#63b8ff" points="1364.72,-348.82 1355.71,-354.41 1366.23,-355.66 1364.72,-348.82"/>
</a>
</g>
</g>
<!-- Node11 -->
<g id="Node000011" class="node">
<title>Node11</title>
<g id="a_Node000011"><a xlink:href="motor___m8910_8cpp.html" target="_top" xlink:title=": @history : Version Date Author Note V0.9.0 2023&#45;11&#45;25 Caikunzhen 1.">
<polygon fill="white" stroke="#666666" points="1441,-96 1299,-96 1299,-66 1441,-66 1441,-96"/>
<text text-anchor="start" x="1307" y="-84" font-family="Helvetica,sans-Serif" font-size="10.00">HW&#45;Components/devices</text>
<text text-anchor="middle" x="1370" y="-73" font-family="Helvetica,sans-Serif" font-size="10.00">/motor/src/motor_M8910.cpp</text>
</a>
</g>
</g>
<!-- Node1&#45;&gt;Node11 -->
<g id="edge10_Node000001_Node000011" class="edge">
<title>Node1&#45;&gt;Node11</title>
<g id="a_edge10_Node000001_Node000011"><a xlink:title=" ">
<path fill="none" stroke="#63b8ff" d="M1365.58,-362.55C1476.64,-356.24 1685.72,-341.16 1708,-316 1762.22,-254.78 1761.43,-193.91 1708,-132 1690.83,-112.1 1535.4,-95.79 1441.4,-87.63"/>
<polygon fill="#63b8ff" stroke="#63b8ff" points="1365.61,-359.09 1355.83,-363.15 1366.01,-366.08 1365.61,-359.09"/>
</a>
</g>
</g>
<!-- Node12 -->
<g id="Node000012" class="node">
<title>Node12</title>
<g id="a_Node000012"><a xlink:href="motor___m_f9025v2_8cpp.html" target="_top" xlink:title=": @history : Version Date Author Note V0.9.0 2023&#45;11&#45;25 Caikunzhen 1.">
<polygon fill="white" stroke="#666666" points="1723.5,-96 1566.5,-96 1566.5,-66 1723.5,-66 1723.5,-96"/>
<text text-anchor="start" x="1574.5" y="-84" font-family="Helvetica,sans-Serif" font-size="10.00">HW&#45;Components/devices</text>
<text text-anchor="middle" x="1645" y="-73" font-family="Helvetica,sans-Serif" font-size="10.00">/motor/src/motor_MF9025v2.cpp</text>
</a>
</g>
</g>
<!-- Node1&#45;&gt;Node12 -->
<g id="edge11_Node000001_Node000012" class="edge">
<title>Node1&#45;&gt;Node12</title>
<g id="a_edge11_Node000001_Node000012"><a xlink:title=" ">
<path fill="none" stroke="#63b8ff" d="M1365.58,-365.51C1517.68,-363.71 1872.78,-355.3 1909,-316 1993.05,-224.8 1778.94,-131.47 1685.78,-96.44"/>
<polygon fill="#63b8ff" stroke="#63b8ff" points="1365.94,-362.02 1355.98,-365.63 1366.02,-369.02 1365.94,-362.02"/>
</a>
</g>
</g>
<!-- Node13 -->
<g id="Node000013" class="node">
<title>Node13</title>
<g id="a_Node000013"><a xlink:href="_d_t7_8cpp.html" target="_top" xlink:title=": @history : Version Date Author Note V1.0.0 2023&#45;12&#45;05 Caikunzhen 1.">
<polygon fill="white" stroke="#666666" points="1900,-316 1760,-316 1760,-286 1900,-286 1900,-316"/>
<text text-anchor="start" x="1768" y="-304" font-family="Helvetica,sans-Serif" font-size="10.00">HW&#45;Components/devices</text>
<text text-anchor="middle" x="1830" y="-293" font-family="Helvetica,sans-Serif" font-size="10.00">/remote_control/src/DT7.cpp</text>
</a>
</g>
</g>
<!-- Node1&#45;&gt;Node13 -->
<g id="edge12_Node000001_Node000013" class="edge">
<title>Node1&#45;&gt;Node13</title>
<g id="a_edge12_Node000001_Node000013"><a xlink:title=" ">
<path fill="none" stroke="#63b8ff" d="M1365.82,-359.51C1454.06,-350.91 1611.71,-334.65 1746,-316 1750.54,-315.37 1755.21,-314.69 1759.92,-313.97"/>
<polygon fill="#63b8ff" stroke="#63b8ff" points="1365.51,-356.12 1355.89,-360.57 1366.18,-363.09 1365.51,-356.12"/>
</a>
</g>
</g>
<!-- Node14 -->
<g id="Node000014" class="node">
<title>Node14</title>
<g id="a_Node000014"><a xlink:href="servo_8cpp.html" target="_top" xlink:title=": @history : Version Date Author Note V0.9.0 2023&#45;11&#45;27 Caikunzhen 1.">
<polygon fill="white" stroke="#666666" points="1620,-244.5 1494,-244.5 1494,-214.5 1620,-214.5 1620,-244.5"/>
<text text-anchor="start" x="1502" y="-232.5" font-family="Helvetica,sans-Serif" font-size="10.00">HW&#45;Components/devices</text>
<text text-anchor="middle" x="1557" y="-221.5" font-family="Helvetica,sans-Serif" font-size="10.00">/servo/src/servo.cpp</text>
</a>
</g>
</g>
<!-- Node1&#45;&gt;Node14 -->
<g id="edge13_Node000001_Node000014" class="edge">
<title>Node1&#45;&gt;Node14</title>
<g id="a_edge13_Node000001_Node000014"><a xlink:title=" ">
<path fill="none" stroke="#63b8ff" d="M1333.96,-346.74C1386.65,-319.28 1482.17,-269.5 1529.25,-244.96"/>
<polygon fill="#63b8ff" stroke="#63b8ff" points="1332.58,-344.03 1325.33,-351.76 1335.82,-350.24 1332.58,-344.03"/>
</a>
</g>
</g>
<!-- Node15 -->
<g id="Node000015" class="node">
<title>Node15</title>
<g id="a_Node000015"><a xlink:href="base_8hpp.html" target="_top" xlink:title=": @history : Version Date Author Note V0.9.0 yyyy&#45;mm&#45;dd &lt;author&gt; 1.">
<polygon fill="white" stroke="#666666" points="1200.5,-316 1085.5,-316 1085.5,-286 1200.5,-286 1200.5,-316"/>
<text text-anchor="start" x="1093.5" y="-304" font-family="Helvetica,sans-Serif" font-size="10.00">HW&#45;Components/tools</text>
<text text-anchor="middle" x="1143" y="-293" font-family="Helvetica,sans-Serif" font-size="10.00">/inc/base.hpp</text>
</a>
</g>
</g>
<!-- Node1&#45;&gt;Node15 -->
<g id="edge14_Node000001_Node000015" class="edge">
<title>Node1&#45;&gt;Node15</title>
<g id="a_edge14_Node000001_Node000015"><a xlink:title=" ">
<path fill="none" stroke="#63b8ff" d="M1252.58,-347.54C1228.77,-337.64 1199.86,-325.63 1177.71,-316.43"/>
<polygon fill="#63b8ff" stroke="#63b8ff" points="1250.86,-351.03 1261.44,-351.64 1253.55,-344.57 1250.86,-351.03"/>
</a>
</g>
</g>
<!-- Node15&#45;&gt;Node2 -->
<g id="edge18_Node000015_Node000002" class="edge">
<title>Node15&#45;&gt;Node2</title>
<g id="a_edge18_Node000015_Node000002"><a xlink:title=" ">
<path fill="none" stroke="#63b8ff" d="M1074.33,-294.71C992.16,-287.67 850.67,-273.34 731,-250 723.75,-248.59 716.17,-246.84 708.75,-244.97"/>
<polygon fill="#63b8ff" stroke="#63b8ff" points="1074.01,-298.28 1084.27,-295.63 1074.6,-291.3 1074.01,-298.28"/>
</a>
</g>
</g>
<!-- Node15&#45;&gt;Node3 -->
<g id="edge19_Node000015_Node000003" class="edge">
<title>Node15&#45;&gt;Node3</title>
<g id="a_edge19_Node000015_Node000003"><a xlink:title=" ">
<path fill="none" stroke="#63b8ff" d="M1074.67,-288.81C1020.33,-279.53 942.48,-265.41 875,-250 868.31,-248.47 861.3,-246.74 854.4,-244.96"/>
<polygon fill="#63b8ff" stroke="#63b8ff" points="1073.77,-292.37 1084.22,-290.6 1074.95,-285.47 1073.77,-292.37"/>
</a>
</g>
</g>
<!-- Node15&#45;&gt;Node4 -->
<g id="edge20_Node000015_Node000004" class="edge">
<title>Node15&#45;&gt;Node4</title>
<g id="a_edge20_Node000015_Node000004"><a xlink:title=" ">
<path fill="none" stroke="#63b8ff" d="M1211.23,-282.91C1249.17,-273.34 1297.24,-261.14 1340,-250 1346.22,-248.38 1352.73,-246.67 1359.2,-244.95"/>
<polygon fill="#63b8ff" stroke="#63b8ff" points="1210.65,-279.69 1201.8,-285.53 1212.36,-286.48 1210.65,-279.69"/>
</a>
</g>
</g>
<!-- Node15&#45;&gt;Node14 -->
<g id="edge46_Node000015_Node000014" class="edge">
<title>Node15&#45;&gt;Node14</title>
<g id="a_edge46_Node000015_Node000014"><a xlink:title=" ">
<path fill="none" stroke="#63b8ff" d="M1211.63,-292.41C1280.98,-284.17 1391.03,-269.52 1485,-250 1492.1,-248.52 1499.54,-246.76 1506.83,-244.91"/>
<polygon fill="#63b8ff" stroke="#63b8ff" points="1211.38,-289.03 1201.85,-293.68 1212.19,-295.98 1211.38,-289.03"/>
</a>
</g>
</g>
<!-- Node16 -->
<g id="Node000016" class="node">
<title>Node16</title>
<g id="a_Node000016"><a xlink:href="pid_8cpp.html" target="_top" xlink:title=" ">
<polygon fill="white" stroke="#666666" points="1174.5,-244.5 1035.5,-244.5 1035.5,-214.5 1174.5,-214.5 1174.5,-244.5"/>
<text text-anchor="start" x="1043.5" y="-232.5" font-family="Helvetica,sans-Serif" font-size="10.00">HW&#45;Components/algorithms</text>
<text text-anchor="middle" x="1105" y="-221.5" font-family="Helvetica,sans-Serif" font-size="10.00">/controller/src/pid.cpp</text>
</a>
</g>
</g>
<!-- Node15&#45;&gt;Node16 -->
<g id="edge15_Node000015_Node000016" class="edge">
<title>Node15&#45;&gt;Node16</title>
<g id="a_edge15_Node000015_Node000016"><a xlink:title=" ">
<path fill="none" stroke="#63b8ff" d="M1129.99,-276.2C1124.3,-265.79 1117.8,-253.92 1112.86,-244.88"/>
<polygon fill="#63b8ff" stroke="#63b8ff" points="1127.26,-277.5 1135.13,-284.6 1133.4,-274.15 1127.26,-277.5"/>
</a>
</g>
</g>
<!-- Node17 -->
<g id="Node000017" class="node">
<title>Node17</title>
<g id="a_Node000017"><a xlink:href="chassis__iksolver_8hpp.html" target="_top" xlink:title=" ">
<polygon fill="white" stroke="#666666" points="1331.5,-250 1192.5,-250 1192.5,-209 1331.5,-209 1331.5,-250"/>
<text text-anchor="start" x="1200.5" y="-238" font-family="Helvetica,sans-Serif" font-size="10.00">HW&#45;Components/algorithms</text>
<text text-anchor="start" x="1200.5" y="-227" font-family="Helvetica,sans-Serif" font-size="10.00">/ik_solver/inc/chassis</text>
<text text-anchor="middle" x="1262" y="-216" font-family="Helvetica,sans-Serif" font-size="10.00">_iksolver.hpp</text>
</a>
</g>
</g>
<!-- Node15&#45;&gt;Node17 -->
<g id="edge16_Node000015_Node000017" class="edge">
<title>Node15&#45;&gt;Node17</title>
<g id="a_edge16_Node000015_Node000017"><a xlink:title=" ">
<path fill="none" stroke="#63b8ff" d="M1177.14,-280.06C1193.06,-270.76 1211.98,-259.72 1227.9,-250.42"/>
<polygon fill="#63b8ff" stroke="#63b8ff" points="1175.53,-277.53 1168.66,-285.6 1179.06,-283.58 1175.53,-277.53"/>
</a>
</g>
</g>
<!-- Node19 -->
<g id="Node000019" class="node">
<title>Node19</title>
<g id="a_Node000019"><a xlink:href="motor__base_8hpp.html" target="_top" xlink:title=": @history : Version Date Author Note V0.9.0 2023&#45;11&#45;25 Caikunzhen 1.">
<polygon fill="white" stroke="#666666" points="1017.5,-244.5 884.5,-244.5 884.5,-214.5 1017.5,-214.5 1017.5,-244.5"/>
<text text-anchor="start" x="892.5" y="-232.5" font-family="Helvetica,sans-Serif" font-size="10.00">HW&#45;Components/devices</text>
<text text-anchor="middle" x="951" y="-221.5" font-family="Helvetica,sans-Serif" font-size="10.00">/motor/inc/motor_base.hpp</text>
</a>
</g>
</g>
<!-- Node15&#45;&gt;Node19 -->
<g id="edge21_Node000015_Node000019" class="edge">
<title>Node15&#45;&gt;Node19</title>
<g id="a_edge21_Node000015_Node000019"><a xlink:title=" ">
<path fill="none" stroke="#63b8ff" d="M1093.2,-281.97C1061.29,-270.42 1020.45,-255.64 990.73,-244.88"/>
<polygon fill="#63b8ff" stroke="#63b8ff" points="1091.62,-285.49 1102.22,-285.6 1094.01,-278.9 1091.62,-285.49"/>
</a>
</g>
</g>
<!-- Node18 -->
<g id="Node000018" class="node">
<title>Node18</title>
<g id="a_Node000018"><a xlink:href="chassis__iksolver_8cpp.html" target="_top" xlink:title=" ">
<polygon fill="white" stroke="#666666" points="1665.5,-173 1526.5,-173 1526.5,-132 1665.5,-132 1665.5,-173"/>
<text text-anchor="start" x="1534.5" y="-161" font-family="Helvetica,sans-Serif" font-size="10.00">HW&#45;Components/algorithms</text>
<text text-anchor="start" x="1534.5" y="-150" font-family="Helvetica,sans-Serif" font-size="10.00">/ik_solver/src/chassis</text>
<text text-anchor="middle" x="1596" y="-139" font-family="Helvetica,sans-Serif" font-size="10.00">_iksolver.cpp</text>
</a>
</g>
</g>
<!-- Node17&#45;&gt;Node18 -->
<g id="edge17_Node000017_Node000018" class="edge">
<title>Node17&#45;&gt;Node18</title>
<g id="a_edge17_Node000017_Node000018"><a xlink:title=" ">
<path fill="none" stroke="#63b8ff" d="M1342.14,-208.79C1420.64,-191.33 1442.31,-189.85 1517,-173 1520.03,-172.32 1523.13,-171.61 1526.25,-170.88"/>
<polygon fill="#63b8ff" stroke="#63b8ff" points="1341.74,-205.52 1332.75,-211.12 1343.27,-212.35 1341.74,-205.52"/>
</a>
</g>
</g>
<!-- Node20 -->
<g id="Node000020" class="node">
<title>Node20</title>
<g id="a_Node000020"><a xlink:href="motor_8hpp.html" target="_top" xlink:title=": @history : Version Date Author Note V0.9.0 2023&#45;11&#45;25 Caikunzhen 1.">
<polygon fill="white" stroke="#666666" points="915,-96 789,-96 789,-66 915,-66 915,-96"/>
<text text-anchor="start" x="797" y="-84" font-family="Helvetica,sans-Serif" font-size="10.00">HW&#45;Components/devices</text>
<text text-anchor="middle" x="852" y="-73" font-family="Helvetica,sans-Serif" font-size="10.00">/motor/inc/motor.hpp</text>
</a>
</g>
</g>
<!-- Node19&#45;&gt;Node20 -->
<g id="edge22_Node000019_Node000020" class="edge">
<title>Node19&#45;&gt;Node20</title>
<g id="a_edge22_Node000019_Node000020"><a xlink:title=" ">
<path fill="none" stroke="#63b8ff" d="M910.22,-208.58C895.78,-199.61 880.73,-187.68 871,-173 855.4,-149.45 852.25,-115.58 851.82,-96.49"/>
<polygon fill="#63b8ff" stroke="#63b8ff" points="908.17,-212.02 918.56,-214.06 911.71,-205.98 908.17,-212.02"/>
</a>
</g>
</g>
<!-- Node21 -->
<g id="Node000021" class="node">
<title>Node21</title>
<g id="a_Node000021"><a xlink:href="motor___a1_8hpp.html" target="_top" xlink:title=": @history : Version Date Author Note V0.9.0 2023&#45;11&#45;25 Caikunzhen 1.">
<polygon fill="white" stroke="#666666" points="321,-167.5 195,-167.5 195,-137.5 321,-137.5 321,-167.5"/>
<text text-anchor="start" x="203" y="-155.5" font-family="Helvetica,sans-Serif" font-size="10.00">HW&#45;Components/devices</text>
<text text-anchor="middle" x="258" y="-144.5" font-family="Helvetica,sans-Serif" font-size="10.00">/motor/inc/motor_A1.hpp</text>
</a>
</g>
</g>
<!-- Node19&#45;&gt;Node21 -->
<g id="edge24_Node000019_Node000021" class="edge">
<title>Node19&#45;&gt;Node21</title>
<g id="a_edge24_Node000019_Node000021"><a xlink:title=" ">
<path fill="none" stroke="#63b8ff" d="M889.51,-211.7C884.62,-210.68 879.74,-209.76 875,-209 635.3,-170.67 569.44,-212.93 330,-173 322.21,-171.7 314.04,-169.91 306.12,-167.94"/>
<polygon fill="#63b8ff" stroke="#63b8ff" points="888.65,-215.32 899.17,-214.08 890.17,-208.48 888.65,-215.32"/>
</a>
</g>
</g>
<!-- Node22 -->
<g id="Node000022" class="node">
<title>Node22</title>
<g id="a_Node000022"><a xlink:href="motor___d_m___j4310_8hpp.html" target="_top" xlink:title=": @history : Version Date Author Note V0.9.0 2023&#45;11&#45;25 Caikunzhen 1.">
<polygon fill="white" stroke="#666666" points="497,-167.5 339,-167.5 339,-137.5 497,-137.5 497,-167.5"/>
<text text-anchor="start" x="347" y="-155.5" font-family="Helvetica,sans-Serif" font-size="10.00">HW&#45;Components/devices</text>
<text text-anchor="middle" x="418" y="-144.5" font-family="Helvetica,sans-Serif" font-size="10.00">/motor/inc/motor_DM_J4310.hpp</text>
</a>
</g>
</g>
<!-- Node19&#45;&gt;Node22 -->
<g id="edge27_Node000019_Node000022" class="edge">
<title>Node19&#45;&gt;Node22</title>
<g id="a_edge27_Node000019_Node000022"><a xlink:title=" ">
<path fill="none" stroke="#63b8ff" d="M888.39,-211.63C883.87,-210.66 879.38,-209.77 875,-209 712.72,-180.44 668.73,-198.87 506,-173 497.19,-171.6 487.94,-169.86 478.89,-167.99"/>
<polygon fill="#63b8ff" stroke="#63b8ff" points="887.37,-215.21 897.9,-214.01 888.92,-208.39 887.37,-215.21"/>
</a>
</g>
</g>
<!-- Node23 -->
<g id="Node000023" class="node">
<title>Node23</title>
<g id="a_Node000023"><a xlink:href="motor___g_m6020_8hpp.html" target="_top" xlink:title=": @history : Version Date Author Note V0.9.0 2023&#45;11&#45;25 Caikunzhen 1.">
<polygon fill="white" stroke="#666666" points="664.5,-167.5 515.5,-167.5 515.5,-137.5 664.5,-137.5 664.5,-167.5"/>
<text text-anchor="start" x="523.5" y="-155.5" font-family="Helvetica,sans-Serif" font-size="10.00">HW&#45;Components/devices</text>
<text text-anchor="middle" x="590" y="-144.5" font-family="Helvetica,sans-Serif" font-size="10.00">/motor/inc/motor_GM6020.hpp</text>
</a>
</g>
</g>
<!-- Node19&#45;&gt;Node23 -->
<g id="edge30_Node000019_Node000023" class="edge">
<title>Node19&#45;&gt;Node23</title>
<g id="a_edge30_Node000019_Node000023"><a xlink:title=" ">
<path fill="none" stroke="#63b8ff" d="M886.12,-211.51C882.37,-210.63 878.64,-209.79 875,-209 785.88,-189.65 762.31,-191.44 673,-173 665.46,-171.44 657.56,-169.72 649.76,-167.95"/>
<polygon fill="#63b8ff" stroke="#63b8ff" points="885.19,-215.13 895.73,-214.05 886.82,-208.32 885.19,-215.13"/>
</a>
</g>
</g>
<!-- Node24 -->
<g id="Node000024" class="node">
<title>Node24</title>
<g id="a_Node000024"><a xlink:href="motor___m2006_8hpp.html" target="_top" xlink:title=": @history : Version Date Author Note V0.9.0 2023&#45;11&#45;25 Caikunzhen 1.">
<polygon fill="white" stroke="#666666" points="823.5,-167.5 682.5,-167.5 682.5,-137.5 823.5,-137.5 823.5,-167.5"/>
<text text-anchor="start" x="690.5" y="-155.5" font-family="Helvetica,sans-Serif" font-size="10.00">HW&#45;Components/devices</text>
<text text-anchor="middle" x="753" y="-144.5" font-family="Helvetica,sans-Serif" font-size="10.00">/motor/inc/motor_M2006.hpp</text>
</a>
</g>
</g>
<!-- Node19&#45;&gt;Node24 -->
<g id="edge33_Node000019_Node000024" class="edge">
<title>Node19&#45;&gt;Node24</title>
<g id="a_edge33_Node000019_Node000024"><a xlink:title=" ">
<path fill="none" stroke="#63b8ff" d="M902.55,-210.15C868.22,-197.14 822.8,-179.94 791.06,-167.92"/>
<polygon fill="#63b8ff" stroke="#63b8ff" points="901.23,-213.77 911.82,-214.04 903.71,-207.22 901.23,-213.77"/>
</a>
</g>
</g>
<!-- Node25 -->
<g id="Node000025" class="node">
<title>Node25</title>
<g id="a_Node000025"><a xlink:href="motor___m3508_8hpp.html" target="_top" xlink:title=": @history : Version Date Author Note V0.9.0 2023&#45;11&#45;25 Caikunzhen 1.">
<polygon fill="white" stroke="#666666" points="1021.5,-167.5 880.5,-167.5 880.5,-137.5 1021.5,-137.5 1021.5,-167.5"/>
<text text-anchor="start" x="888.5" y="-155.5" font-family="Helvetica,sans-Serif" font-size="10.00">HW&#45;Components/devices</text>
<text text-anchor="middle" x="951" y="-144.5" font-family="Helvetica,sans-Serif" font-size="10.00">/motor/inc/motor_M3508.hpp</text>
</a>
</g>
</g>
<!-- Node19&#45;&gt;Node25 -->
<g id="edge36_Node000019_Node000025" class="edge">
<title>Node19&#45;&gt;Node25</title>
<g id="a_edge36_Node000019_Node000025"><a xlink:title=" ">
<path fill="none" stroke="#63b8ff" d="M951,-203.1C951,-191.37 951,-177.87 951,-167.92"/>
<polygon fill="#63b8ff" stroke="#63b8ff" points="947.5,-203.04 951,-213.04 954.5,-203.04 947.5,-203.04"/>
</a>
</g>
</g>
<!-- Node26 -->
<g id="Node000026" class="node">
<title>Node26</title>
<g id="a_Node000026"><a xlink:href="motor___m8910_8hpp.html" target="_top" xlink:title=": @history : Version Date Author Note V0.9.0 2023&#45;11&#45;25 Caikunzhen 1.">
<polygon fill="white" stroke="#666666" points="1333.5,-167.5 1192.5,-167.5 1192.5,-137.5 1333.5,-137.5 1333.5,-167.5"/>
<text text-anchor="start" x="1200.5" y="-155.5" font-family="Helvetica,sans-Serif" font-size="10.00">HW&#45;Components/devices</text>
<text text-anchor="middle" x="1263" y="-144.5" font-family="Helvetica,sans-Serif" font-size="10.00">/motor/inc/motor_M8910.hpp</text>
</a>
</g>
</g>
<!-- Node19&#45;&gt;Node26 -->
<g id="edge39_Node000019_Node000026" class="edge">
<title>Node19&#45;&gt;Node26</title>
<g id="a_edge39_Node000019_Node000026"><a xlink:title=" ">
<path fill="none" stroke="#63b8ff" d="M1016.33,-211.39C1019.6,-210.58 1022.83,-209.77 1026,-209 1095.54,-191.99 1113.33,-189.48 1183,-173 1189.82,-171.39 1196.95,-169.68 1204.04,-167.97"/>
<polygon fill="#63b8ff" stroke="#63b8ff" points="1015.68,-208.2 1006.84,-214.05 1017.39,-214.99 1015.68,-208.2"/>
</a>
</g>
</g>
<!-- Node27 -->
<g id="Node000027" class="node">
<title>Node27</title>
<g id="a_Node000027"><a xlink:href="motor___m_f9025v2_8hpp.html" target="_top" xlink:title=": @history : Version Date Author Note V0.9.0 2023&#45;11&#45;25 Caikunzhen 1.">
<polygon fill="white" stroke="#666666" points="1508,-167.5 1352,-167.5 1352,-137.5 1508,-137.5 1508,-167.5"/>
<text text-anchor="start" x="1360" y="-155.5" font-family="Helvetica,sans-Serif" font-size="10.00">HW&#45;Components/devices</text>
<text text-anchor="middle" x="1430" y="-144.5" font-family="Helvetica,sans-Serif" font-size="10.00">/motor/inc/motor_MF9025v2.hpp</text>
</a>
</g>
</g>
<!-- Node19&#45;&gt;Node27 -->
<g id="edge42_Node000019_Node000027" class="edge">
<title>Node19&#45;&gt;Node27</title>
<g id="a_edge42_Node000019_Node000027"><a xlink:title=" ">
<path fill="none" stroke="#63b8ff" d="M1013.39,-211.57C1017.65,-210.64 1021.88,-209.77 1026,-209 1164.97,-183.15 1202.58,-196.32 1342,-173 1350.64,-171.55 1359.72,-169.81 1368.62,-167.96"/>
<polygon fill="#63b8ff" stroke="#63b8ff" points="1012.79,-208.35 1003.83,-214.01 1014.37,-215.17 1012.79,-208.35"/>
</a>
</g>
</g>
<!-- Node28 -->
<g id="Node000028" class="node">
<title>Node28</title>
<g id="a_Node000028"><a xlink:href="motor__base_8cpp.html" target="_top" xlink:title=": @history : Version Date Author Note V0.9.0 2023&#45;11&#45;25 Caikunzhen 1.">
<polygon fill="white" stroke="#666666" points="1174,-167.5 1040,-167.5 1040,-137.5 1174,-137.5 1174,-167.5"/>
<text text-anchor="start" x="1048" y="-155.5" font-family="Helvetica,sans-Serif" font-size="10.00">HW&#45;Components/devices</text>
<text text-anchor="middle" x="1107" y="-144.5" font-family="Helvetica,sans-Serif" font-size="10.00">/motor/src/motor_base.cpp</text>
</a>
</g>
</g>
<!-- Node19&#45;&gt;Node28 -->
<g id="edge45_Node000019_Node000028" class="edge">
<title>Node19&#45;&gt;Node28</title>
<g id="a_edge45_Node000019_Node000028"><a xlink:title=" ">
<path fill="none" stroke="#63b8ff" d="M990.93,-209.3C1017.76,-196.4 1052.55,-179.68 1077.01,-167.92"/>
<polygon fill="#63b8ff" stroke="#63b8ff" points="989.57,-206.55 982.08,-214.04 992.61,-212.86 989.57,-206.55"/>
</a>
</g>
</g>
<!-- Node20&#45;&gt;Node5 -->
<g id="edge23_Node000020_Node000005" class="edge">
<title>Node20&#45;&gt;Node5</title>
<g id="a_edge23_Node000020_Node000005"><a xlink:title=" ">
<path fill="none" stroke="#63b8ff" d="M926.05,-71.49C1036.37,-58.82 1241.99,-35.19 1345.71,-23.27"/>
<polygon fill="#63b8ff" stroke="#63b8ff" points="925.89,-68.1 916.35,-72.72 926.69,-75.06 925.89,-68.1"/>
</a>
</g>
</g>
<!-- Node21&#45;&gt;Node6 -->
<g id="edge26_Node000021_Node000006" class="edge">
<title>Node21&#45;&gt;Node6</title>
<g id="a_edge26_Node000021_Node000006"><a xlink:title=" ">
<path fill="none" stroke="#63b8ff" d="M207.42,-133.47C175.02,-121.92 133.54,-107.14 103.35,-96.38"/>
<polygon fill="#63b8ff" stroke="#63b8ff" points="206,-137.04 216.6,-137.1 208.35,-130.45 206,-137.04"/>
</a>
</g>
</g>
<!-- Node21&#45;&gt;Node20 -->
<g id="edge25_Node000021_Node000020" class="edge">
<title>Node21&#45;&gt;Node20</title>
<g id="a_edge25_Node000021_Node000020"><a xlink:title=" ">
<path fill="none" stroke="#63b8ff" d="M317.21,-134.55C321.52,-133.6 325.81,-132.73 330,-132 523.72,-98.15 575.91,-120.77 771,-96 776.8,-95.26 782.83,-94.4 788.85,-93.48"/>
<polygon fill="#63b8ff" stroke="#63b8ff" points="316.46,-131.36 307.53,-137.06 318.06,-138.18 316.46,-131.36"/>
</a>
</g>
</g>
<!-- Node22&#45;&gt;Node7 -->
<g id="edge29_Node000022_Node000007" class="edge">
<title>Node22&#45;&gt;Node7</title>
<g id="a_edge29_Node000022_Node000007"><a xlink:title=" ">
<path fill="none" stroke="#63b8ff" d="M383.72,-131.65C364.3,-120.4 340.44,-106.58 322.83,-96.38"/>
<polygon fill="#63b8ff" stroke="#63b8ff" points="381.73,-135.12 392.14,-137.1 385.24,-129.06 381.73,-135.12"/>
</a>
</g>
</g>
<!-- Node22&#45;&gt;Node20 -->
<g id="edge28_Node000022_Node000020" class="edge">
<title>Node22&#45;&gt;Node20</title>
<g id="a_edge28_Node000022_Node000020"><a xlink:title=" ">
<path fill="none" stroke="#63b8ff" d="M490.87,-134.86C495.98,-133.85 501.06,-132.88 506,-132 623.01,-111.12 653.53,-114.12 771,-96 776.78,-95.11 782.79,-94.14 788.8,-93.15"/>
<polygon fill="#63b8ff" stroke="#63b8ff" points="490.46,-131.58 481.37,-137.01 491.87,-138.44 490.46,-131.58"/>
</a>
</g>
</g>
<!-- Node23&#45;&gt;Node8 -->
<g id="edge32_Node000023_Node000008" class="edge">
<title>Node23&#45;&gt;Node8</title>
<g id="a_edge32_Node000023_Node000008"><a xlink:title=" ">
<path fill="none" stroke="#63b8ff" d="M564.93,-130.25C551.97,-119.27 536.51,-106.16 524.97,-96.38"/>
<polygon fill="#63b8ff" stroke="#63b8ff" points="562.12,-133.3 572.01,-137.1 566.64,-127.96 562.12,-133.3"/>
</a>
</g>
</g>
<!-- Node23&#45;&gt;Node20 -->
<g id="edge31_Node000023_Node000020" class="edge">
<title>Node23&#45;&gt;Node20</title>
<g id="a_edge31_Node000023_Node000020"><a xlink:title=" ">
<path fill="none" stroke="#63b8ff" d="M655.16,-134.22C698.97,-122.59 756.06,-107.45 797.47,-96.47"/>
<polygon fill="#63b8ff" stroke="#63b8ff" points="654.37,-131.07 645.6,-137.02 656.17,-137.83 654.37,-131.07"/>
</a>
</g>
</g>
<!-- Node24&#45;&gt;Node9 -->
<g id="edge35_Node000024_Node000009" class="edge">
<title>Node24&#45;&gt;Node9</title>
<g id="a_edge35_Node000024_Node000009"><a xlink:title=" ">
<path fill="none" stroke="#63b8ff" d="M732.91,-128.98C723.36,-118.28 712.22,-105.79 703.83,-96.38"/>
<polygon fill="#63b8ff" stroke="#63b8ff" points="729.88,-130.97 739.15,-136.1 735.11,-126.31 729.88,-130.97"/>
</a>
</g>
</g>
<!-- Node24&#45;&gt;Node20 -->
<g id="edge34_Node000024_Node000020" class="edge">
<title>Node24&#45;&gt;Node20</title>
<g id="a_edge34_Node000024_Node000020"><a xlink:title=" ">
<path fill="none" stroke="#63b8ff" d="M782.38,-130.87C798.2,-119.77 817.32,-106.35 831.51,-96.38"/>
<polygon fill="#63b8ff" stroke="#63b8ff" points="780.69,-128.49 774.51,-137.1 784.71,-134.22 780.69,-128.49"/>
</a>
</g>
</g>
<!-- Node25&#45;&gt;Node10 -->
<g id="edge38_Node000025_Node000010" class="edge">
<title>Node25&#45;&gt;Node10</title>
<g id="a_edge38_Node000025_Node000010"><a xlink:title=" ">
<path fill="none" stroke="#63b8ff" d="M1004.79,-133.7C1039.69,-122.15 1084.59,-107.29 1117.29,-96.47"/>
<polygon fill="#63b8ff" stroke="#63b8ff" points="1004.16,-130.55 995.77,-137.02 1006.36,-137.2 1004.16,-130.55"/>
</a>
</g>
</g>
<!-- Node25&#45;&gt;Node20 -->
<g id="edge37_Node000025_Node000020" class="edge">
<title>Node25&#45;&gt;Node20</title>
<g id="a_edge37_Node000025_Node000020"><a xlink:title=" ">
<path fill="none" stroke="#63b8ff" d="M921.62,-130.87C905.8,-119.77 886.68,-106.35 872.49,-96.38"/>
<polygon fill="#63b8ff" stroke="#63b8ff" points="919.29,-134.22 929.49,-137.1 923.31,-128.49 919.29,-134.22"/>
</a>
</g>
</g>
<!-- Node26&#45;&gt;Node11 -->
<g id="edge41_Node000026_Node000011" class="edge">
<title>Node26&#45;&gt;Node11</title>
<g id="a_edge41_Node000026_Node000011"><a xlink:title=" ">
<path fill="none" stroke="#63b8ff" d="M1294.28,-131.18C1311.46,-120.02 1332.37,-106.44 1347.86,-96.38"/>
<polygon fill="#63b8ff" stroke="#63b8ff" points="1292.65,-128.72 1286.17,-137.1 1296.46,-134.59 1292.65,-128.72"/>
</a>
</g>
</g>
<!-- Node26&#45;&gt;Node20 -->
<g id="edge40_Node000026_Node000020" class="edge">
<title>Node26&#45;&gt;Node20</title>
<g id="a_edge40_Node000026_Node000020"><a xlink:title=" ">
<path fill="none" stroke="#63b8ff" d="M1195.67,-134.63C1191.39,-133.7 1187.14,-132.82 1183,-132 1090.48,-113.77 982.28,-98.57 915.44,-89.87"/>
<polygon fill="#63b8ff" stroke="#63b8ff" points="1194.8,-138.25 1205.32,-137.02 1196.33,-131.42 1194.8,-138.25"/>
</a>
</g>
</g>
<!-- Node27&#45;&gt;Node12 -->
<g id="edge44_Node000027_Node000012" class="edge">
<title>Node27&#45;&gt;Node12</title>
<g id="a_edge44_Node000027_Node000012"><a xlink:title=" ">
<path fill="none" stroke="#63b8ff" d="M1485.07,-133.7C1520.8,-122.15 1566.77,-107.29 1600.25,-96.47"/>
<polygon fill="#63b8ff" stroke="#63b8ff" points="1484.25,-130.61 1475.81,-137.02 1486.4,-137.27 1484.25,-130.61"/>
</a>
</g>
</g>
<!-- Node27&#45;&gt;Node20 -->
<g id="edge43_Node000027_Node000020" class="edge">
<title>Node27&#45;&gt;Node20</title>
<g id="a_edge43_Node000027_Node000020"><a xlink:title=" ">
<path fill="none" stroke="#63b8ff" d="M1358.45,-134.92C1352.9,-133.85 1347.37,-132.87 1342,-132 1189.83,-107.46 1009.03,-92.69 915.35,-86.1"/>
<polygon fill="#63b8ff" stroke="#63b8ff" points="1357.62,-138.52 1368.11,-137.04 1358.99,-131.66 1357.62,-138.52"/>
</a>
</g>
</g>
</g>
</svg>
