<?xml version="1.0" encoding="UTF-8" standalone="no"?>
<!DOCTYPE svg PUBLIC "-//W3C//DTD SVG 1.1//EN"
 "http://www.w3.org/Graphics/SVG/1.1/DTD/svg11.dtd">
<!-- Generated by graphviz version 8.0.3 (20230416.2022)
 -->
<!-- Title: HW&#45;Components/algorithms/ik_solver/src/chassis_iksolver.cpp Pages: 1 -->
<svg width="260pt" height="214pt"
 viewBox="0.00 0.00 259.50 214.00" xmlns="http://www.w3.org/2000/svg" xmlns:xlink="http://www.w3.org/1999/xlink">
<g id="graph0" class="graph" transform="scale(1 1) rotate(0) translate(4 210)">
<title>HW&#45;Components/algorithms/ik_solver/src/chassis_iksolver.cpp</title>
<!-- Node1 -->
<g id="Node000001" class="node">
<title>Node1</title>
<g id="a_Node000001"><a xlink:title=" ">
<polygon fill="#999999" stroke="#666666" points="154.5,-206 15.5,-206 15.5,-165 154.5,-165 154.5,-206"/>
<text text-anchor="start" x="23.5" y="-194" font-family="Helvetica,sans-Serif" font-size="10.00">HW&#45;Components/algorithms</text>
<text text-anchor="start" x="23.5" y="-183" font-family="Helvetica,sans-Serif" font-size="10.00">/ik_solver/src/chassis</text>
<text text-anchor="middle" x="85" y="-172" font-family="Helvetica,sans-Serif" font-size="10.00">_iksolver.cpp</text>
</a>
</g>
</g>
<!-- Node2 -->
<g id="Node000002" class="node">
<title>Node2</title>
<g id="a_Node000002"><a xlink:href="chassis__iksolver_8hpp.html" target="_top" xlink:title=" ">
<polygon fill="white" stroke="#666666" points="138.5,-129 31.5,-129 31.5,-110 138.5,-110 138.5,-129"/>
<text text-anchor="middle" x="85" y="-117" font-family="Helvetica,sans-Serif" font-size="10.00">chassis_iksolver.hpp</text>
</a>
</g>
</g>
<!-- Node1&#45;&gt;Node2 -->
<g id="edge1_Node000001_Node000002" class="edge">
<title>Node1&#45;&gt;Node2</title>
<g id="a_edge1_Node000001_Node000002"><a xlink:title=" ">
<path fill="none" stroke="#63b8ff" d="M85,-164.6C85,-156.8 85,-147.87 85,-140.1"/>
<polygon fill="#63b8ff" stroke="#63b8ff" points="88.5,-140.16 85,-130.16 81.5,-140.16 88.5,-140.16"/>
</a>
</g>
</g>
<!-- Node3 -->
<g id="Node000003" class="node">
<title>Node3</title>
<g id="a_Node000003"><a xlink:title=" ">
<polygon fill="#e0e0e0" stroke="#999999" points="44,-19 0,-19 0,0 44,0 44,-19"/>
<text text-anchor="middle" x="22" y="-7" font-family="Helvetica,sans-Serif" font-size="10.00">cmath</text>
</a>
</g>
</g>
<!-- Node2&#45;&gt;Node3 -->
<g id="edge2_Node000002_Node000003" class="edge">
<title>Node2&#45;&gt;Node3</title>
<g id="a_edge2_Node000002_Node000003"><a xlink:title=" ">
<path fill="none" stroke="#63b8ff" d="M76.17,-109.58C68.05,-101.02 56.07,-87.43 48,-74 39.46,-59.78 32.52,-42.25 27.96,-29.21"/>
<polygon fill="#63b8ff" stroke="#63b8ff" points="31.08,-28.49 24.59,-20.11 24.44,-30.7 31.08,-28.49"/>
</a>
</g>
</g>
<!-- Node4 -->
<g id="Node000004" class="node">
<title>Node4</title>
<g id="a_Node000004"><a xlink:href="base_8hpp.html" target="_top" xlink:title=": @history : Version Date Author Note V0.9.0 yyyy&#45;mm&#45;dd &lt;author&gt; 1.">
<polygon fill="white" stroke="#666666" points="113,-74 57,-74 57,-55 113,-55 113,-74"/>
<text text-anchor="middle" x="85" y="-62" font-family="Helvetica,sans-Serif" font-size="10.00">base.hpp</text>
</a>
</g>
</g>
<!-- Node2&#45;&gt;Node4 -->
<g id="edge3_Node000002_Node000004" class="edge">
<title>Node2&#45;&gt;Node4</title>
<g id="a_edge3_Node000002_Node000004"><a xlink:title=" ">
<path fill="none" stroke="#63b8ff" d="M85,-109.75C85,-103.11 85,-93.73 85,-85.31"/>
<polygon fill="#63b8ff" stroke="#63b8ff" points="88.5,-85.44 85,-75.44 81.5,-85.44 88.5,-85.44"/>
</a>
</g>
</g>
<!-- Node7 -->
<g id="Node000007" class="node">
<title>Node7</title>
<g id="a_Node000007"><a xlink:href="system_8hpp.html" target="_top" xlink:title=" ">
<polygon fill="white" stroke="#666666" points="231,-74 163,-74 163,-55 231,-55 231,-74"/>
<text text-anchor="middle" x="197" y="-62" font-family="Helvetica,sans-Serif" font-size="10.00">system.hpp</text>
</a>
</g>
</g>
<!-- Node2&#45;&gt;Node7 -->
<g id="edge7_Node000002_Node000007" class="edge">
<title>Node2&#45;&gt;Node7</title>
<g id="a_edge7_Node000002_Node000007"><a xlink:title=" ">
<path fill="none" stroke="#63b8ff" d="M104,-109.51C121.64,-101.16 148.16,-88.61 168.37,-79.05"/>
<polygon fill="#63b8ff" stroke="#63b8ff" points="169.74,-81.8 177.28,-74.36 166.75,-75.47 169.74,-81.8"/>
</a>
</g>
</g>
<!-- Node4&#45;&gt;Node3 -->
<g id="edge4_Node000004_Node000003" class="edge">
<title>Node4&#45;&gt;Node3</title>
<g id="a_edge4_Node000004_Node000003"><a xlink:title=" ">
<path fill="none" stroke="#63b8ff" d="M74.31,-54.51C65.12,-46.77 51.64,-35.43 40.66,-26.2"/>
<polygon fill="#63b8ff" stroke="#63b8ff" points="43.43,-23.12 33.53,-19.36 38.93,-28.47 43.43,-23.12"/>
</a>
</g>
</g>
<!-- Node5 -->
<g id="Node000005" class="node">
<title>Node5</title>
<g id="a_Node000005"><a xlink:title=" ">
<polygon fill="#e0e0e0" stroke="#999999" points="108,-19 62,-19 62,0 108,0 108,-19"/>
<text text-anchor="middle" x="85" y="-7" font-family="Helvetica,sans-Serif" font-size="10.00">cstdint</text>
</a>
</g>
</g>
<!-- Node4&#45;&gt;Node5 -->
<g id="edge5_Node000004_Node000005" class="edge">
<title>Node4&#45;&gt;Node5</title>
<g id="a_edge5_Node000004_Node000005"><a xlink:title=" ">
<path fill="none" stroke="#63b8ff" d="M85,-54.75C85,-48.11 85,-38.73 85,-30.31"/>
<polygon fill="#63b8ff" stroke="#63b8ff" points="88.5,-30.44 85,-20.44 81.5,-30.44 88.5,-30.44"/>
</a>
</g>
</g>
<!-- Node6 -->
<g id="Node000006" class="node">
<title>Node6</title>
<g id="a_Node000006"><a xlink:href="assert_8hpp.html" target="_top" xlink:title=": @history : Version Date Author Note V0.9.0 yyyy&#45;mm&#45;dd &lt;author&gt; 1.">
<polygon fill="white" stroke="#666666" points="188,-19 126,-19 126,0 188,0 188,-19"/>
<text text-anchor="middle" x="157" y="-7" font-family="Helvetica,sans-Serif" font-size="10.00">assert.hpp</text>
</a>
</g>
</g>
<!-- Node4&#45;&gt;Node6 -->
<g id="edge6_Node000004_Node000006" class="edge">
<title>Node4&#45;&gt;Node6</title>
<g id="a_edge6_Node000004_Node000006"><a xlink:title=" ">
<path fill="none" stroke="#63b8ff" d="M97.21,-54.51C107.93,-46.62 123.74,-34.98 136.41,-25.65"/>
<polygon fill="#63b8ff" stroke="#63b8ff" points="137.99,-28.1 143.97,-19.36 133.84,-22.47 137.99,-28.1"/>
</a>
</g>
</g>
<!-- Node8 -->
<g id="Node000008" class="node">
<title>Node8</title>
<g id="a_Node000008"><a xlink:title=" ">
<polygon fill="#e0e0e0" stroke="#999999" points="251.5,-19 206.5,-19 206.5,0 251.5,0 251.5,-19"/>
<text text-anchor="middle" x="229" y="-7" font-family="Helvetica,sans-Serif" font-size="10.00">cstdlib</text>
</a>
</g>
</g>
<!-- Node7&#45;&gt;Node8 -->
<g id="edge8_Node000007_Node000008" class="edge">
<title>Node7&#45;&gt;Node8</title>
<g id="a_edge8_Node000007_Node000008"><a xlink:title=" ">
<path fill="none" stroke="#63b8ff" d="M202.28,-54.75C206.57,-47.66 212.74,-37.42 218.08,-28.59"/>
<polygon fill="#63b8ff" stroke="#63b8ff" points="221.43,-30.81 223.6,-20.44 215.44,-27.19 221.43,-30.81"/>
</a>
</g>
</g>
</g>
</svg>
