<?xml version="1.0" encoding="UTF-8" standalone="no"?>
<!DOCTYPE svg PUBLIC "-//W3C//DTD SVG 1.1//EN"
 "http://www.w3.org/Graphics/SVG/1.1/DTD/svg11.dtd">
<!-- Generated by graphviz version 8.0.3 (20230416.2022)
 -->
<!-- Title: hello_world::algorithms::controller::pid::BasicPid Pages: 1 -->
<svg width="656pt" height="460pt"
 viewBox="0.00 0.00 656.00 459.50" xmlns="http://www.w3.org/2000/svg" xmlns:xlink="http://www.w3.org/1999/xlink">
<g id="graph0" class="graph" transform="scale(1 1) rotate(0) translate(4 455.5)">
<title>hello_world::algorithms::controller::pid::BasicPid</title>
<!-- Node1 -->
<g id="Node000001" class="node">
<title>Node1</title>
<g id="a_Node000001"><a xlink:title="基础 PID 控制器类，继承自Controller类">
<polygon fill="#999999" stroke="#666666" points="648,-246 522,-246 522,-216 648,-216 648,-246"/>
<text text-anchor="start" x="530" y="-234" font-family="Helvetica,sans-Serif" font-size="10.00">hello_world::algorithms</text>
<text text-anchor="middle" x="585" y="-223" font-family="Helvetica,sans-Serif" font-size="10.00">::controller::pid::BasicPid</text>
</a>
</g>
</g>
<!-- Node2 -->
<g id="Node000002" class="node">
<title>Node2</title>
<g id="a_Node000002"><a xlink:href="classhello__world_1_1algorithms_1_1controller_1_1_controller.html" target="_top" xlink:title=" ">
<polygon fill="white" stroke="#666666" points="423,-387 307,-387 307,-357 423,-357 423,-387"/>
<text text-anchor="start" x="315" y="-375" font-family="Helvetica,sans-Serif" font-size="10.00">hello_world::algorithms</text>
<text text-anchor="middle" x="365" y="-364" font-family="Helvetica,sans-Serif" font-size="10.00">::controller::Controller</text>
</a>
</g>
</g>
<!-- Node2&#45;&gt;Node1 -->
<g id="edge1_Node000001_Node000002" class="edge">
<title>Node2&#45;&gt;Node1</title>
<g id="a_edge1_Node000001_Node000002"><a xlink:title=" ">
<path fill="none" stroke="#63b8ff" d="M398.94,-350.69C443.32,-321.99 521.24,-271.59 560.28,-246.34"/>
<polygon fill="#63b8ff" stroke="#63b8ff" points="397.24,-348.27 390.74,-356.64 401.04,-354.15 397.24,-348.27"/>
</a>
</g>
</g>
<!-- Node3 -->
<g id="Node000003" class="node">
<title>Node3</title>
<g id="a_Node000003"><a xlink:href="classhello__world_1_1_mem_mang.html" target="_top" xlink:title=" ">
<polygon fill="white" stroke="#666666" points="140,-451.5 24,-451.5 24,-432.5 140,-432.5 140,-451.5"/>
<text text-anchor="middle" x="82" y="-439.5" font-family="Helvetica,sans-Serif" font-size="10.00">hello_world::MemMang</text>
</a>
</g>
</g>
<!-- Node3&#45;&gt;Node2 -->
<g id="edge2_Node000002_Node000003" class="edge">
<title>Node3&#45;&gt;Node2</title>
<g id="a_edge2_Node000002_Node000003"><a xlink:title=" ">
<path fill="none" stroke="#63b8ff" d="M150.81,-435.91C185.95,-431.69 229.29,-424.84 267,-414 290.28,-407.31 315.34,-396.35 334.16,-387.31"/>
<polygon fill="#63b8ff" stroke="#63b8ff" points="150.72,-432.51 141.18,-437.13 151.52,-439.46 150.72,-432.51"/>
</a>
</g>
</g>
<!-- Node4 -->
<g id="Node000004" class="node">
<title>Node4</title>
<g id="a_Node000004"><a xlink:href="structhello__world_1_1algorithms_1_1controller_1_1pid_1_1_basic_pid_params.html" target="_top" xlink:title="定义了基础 PID 的参数">
<polygon fill="white" stroke="#666666" points="445,-246 285,-246 285,-216 445,-216 445,-246"/>
<text text-anchor="start" x="293" y="-234" font-family="Helvetica,sans-Serif" font-size="10.00">hello_world::algorithms</text>
<text text-anchor="middle" x="365" y="-223" font-family="Helvetica,sans-Serif" font-size="10.00">::controller::pid::BasicPidParams</text>
</a>
</g>
</g>
<!-- Node4&#45;&gt;Node1 -->
<g id="edge3_Node000001_Node000004" class="edge">
<title>Node4&#45;&gt;Node1</title>
<g id="a_edge3_Node000001_Node000004"><a xlink:title=" ">
<path fill="none" stroke="#9a32cd" stroke-dasharray="5,2" d="M456.07,-231C478.18,-231 501.36,-231 521.82,-231"/>
<polygon fill="#9a32cd" stroke="#9a32cd" points="456.32,-227.5 446.32,-231 456.32,-234.5 456.32,-227.5"/>
</a>
</g>
<text text-anchor="middle" x="483.5" y="-234" font-family="Helvetica,sans-Serif" font-size="10.00" fill="grey"> params_</text>
</g>
<!-- Node5 -->
<g id="Node000005" class="node">
<title>Node5</title>
<g id="a_Node000005"><a xlink:href="classhello__world_1_1algorithms_1_1controller_1_1pid_1_1_out_limit.html" target="_top" xlink:title=" ">
<polygon fill="white" stroke="#666666" points="144,-414 20,-414 20,-384 144,-384 144,-414"/>
<text text-anchor="start" x="28" y="-402" font-family="Helvetica,sans-Serif" font-size="10.00">hello_world::algorithms</text>
<text text-anchor="middle" x="82" y="-391" font-family="Helvetica,sans-Serif" font-size="10.00">::controller::pid::OutLimit</text>
</a>
</g>
</g>
<!-- Node5&#45;&gt;Node4 -->
<g id="edge4_Node000004_Node000005" class="edge">
<title>Node5&#45;&gt;Node4</title>
<g id="a_edge4_Node000004_Node000005"><a xlink:title=" ">
<path fill="none" stroke="#9a32cd" stroke-dasharray="5,2" d="M154.64,-383.88C190.46,-374.07 233.24,-358.77 267,-336 304.24,-310.88 337.31,-268.79 353.49,-246.29"/>
<polygon fill="#9a32cd" stroke="#9a32cd" points="154.03,-380.69 145.26,-386.63 155.82,-387.46 154.03,-380.69"/>
</a>
</g>
<text text-anchor="middle" x="224.5" y="-377" font-family="Helvetica,sans-Serif" font-size="10.00" fill="grey"> out_limit</text>
</g>
<!-- Node6 -->
<g id="Node000006" class="node">
<title>Node6</title>
<g id="a_Node000006"><a xlink:href="classhello__world_1_1algorithms_1_1controller_1_1pid_1_1_inte_trapezoidal.html" target="_top" xlink:title="梯形积分优化类">
<polygon fill="white" stroke="#666666" points="158,-366 6,-366 6,-336 158,-336 158,-366"/>
<text text-anchor="start" x="14" y="-354" font-family="Helvetica,sans-Serif" font-size="10.00">hello_world::algorithms</text>
<text text-anchor="middle" x="82" y="-343" font-family="Helvetica,sans-Serif" font-size="10.00">::controller::pid::InteTrapezoidal</text>
</a>
</g>
</g>
<!-- Node6&#45;&gt;Node4 -->
<g id="edge5_Node000004_Node000006" class="edge">
<title>Node6&#45;&gt;Node4</title>
<g id="a_edge5_Node000004_Node000006"><a xlink:title=" ">
<path fill="none" stroke="#9a32cd" stroke-dasharray="5,2" d="M145.99,-332.48C152.08,-330.65 158.16,-328.8 164,-327 209.94,-312.84 223.57,-314.61 267,-294 295.12,-280.66 324.75,-260.38 343.75,-246.45"/>
<polygon fill="#9a32cd" stroke="#9a32cd" points="145.35,-329.32 136.77,-335.55 147.36,-336.03 145.35,-329.32"/>
</a>
</g>
<text text-anchor="middle" x="224.5" y="-324" font-family="Helvetica,sans-Serif" font-size="10.00" fill="grey"> inte_trapezoidal</text>
</g>
<!-- Node7 -->
<g id="Node000007" class="node">
<title>Node7</title>
<g id="a_Node000007"><a xlink:href="classhello__world_1_1algorithms_1_1controller_1_1pid_1_1_inte_anti_windup.html" target="_top" xlink:title="积分抗饱和优化类">
<polygon fill="white" stroke="#666666" points="158.5,-318 5.5,-318 5.5,-288 158.5,-288 158.5,-318"/>
<text text-anchor="start" x="13.5" y="-306" font-family="Helvetica,sans-Serif" font-size="10.00">hello_world::algorithms</text>
<text text-anchor="middle" x="82" y="-295" font-family="Helvetica,sans-Serif" font-size="10.00">::controller::pid::InteAntiWindup</text>
</a>
</g>
</g>
<!-- Node7&#45;&gt;Node4 -->
<g id="edge6_Node000004_Node000007" class="edge">
<title>Node7&#45;&gt;Node4</title>
<g id="a_edge6_Node000004_Node000007"><a xlink:title=" ">
<path fill="none" stroke="#9a32cd" stroke-dasharray="5,2" d="M164.27,-285.13C196.38,-277.78 233.53,-268.9 267,-260 282.46,-255.89 299.18,-251.03 314.32,-246.49"/>
<polygon fill="#9a32cd" stroke="#9a32cd" points="163.56,-281.93 154.59,-287.56 165.11,-288.76 163.56,-281.93"/>
</a>
</g>
<text text-anchor="middle" x="224.5" y="-282" font-family="Helvetica,sans-Serif" font-size="10.00" fill="grey"> inte_anti_windup</text>
</g>
<!-- Node8 -->
<g id="Node000008" class="node">
<title>Node8</title>
<g id="a_Node000008"><a xlink:href="classhello__world_1_1algorithms_1_1controller_1_1pid_1_1_inte_changing_rate.html" target="_top" xlink:title="控制器参数类">
<polygon fill="white" stroke="#666666" points="164,-270 0,-270 0,-240 164,-240 164,-270"/>
<text text-anchor="start" x="8" y="-258" font-family="Helvetica,sans-Serif" font-size="10.00">hello_world::algorithms</text>
<text text-anchor="middle" x="82" y="-247" font-family="Helvetica,sans-Serif" font-size="10.00">::controller::pid::InteChangingRate</text>
</a>
</g>
</g>
<!-- Node8&#45;&gt;Node4 -->
<g id="edge7_Node000004_Node000008" class="edge">
<title>Node8&#45;&gt;Node4</title>
<g id="a_edge7_Node000004_Node000008"><a xlink:title=" ">
<path fill="none" stroke="#9a32cd" stroke-dasharray="5,2" d="M175.12,-247.13C210.57,-244.1 250.71,-240.68 284.84,-237.76"/>
<polygon fill="#9a32cd" stroke="#9a32cd" points="174.94,-243.72 165.28,-248.06 175.54,-250.69 174.94,-243.72"/>
</a>
</g>
<text text-anchor="middle" x="224.5" y="-248" font-family="Helvetica,sans-Serif" font-size="10.00" fill="grey"> inte_changing_rate</text>
</g>
<!-- Node9 -->
<g id="Node000009" class="node">
<title>Node9</title>
<g id="a_Node000009"><a xlink:href="classhello__world_1_1algorithms_1_1controller_1_1pid_1_1_inte_separation.html" target="_top" xlink:title="积分分离优化类">
<polygon fill="white" stroke="#666666" points="156.5,-222 7.5,-222 7.5,-192 156.5,-192 156.5,-222"/>
<text text-anchor="start" x="15.5" y="-210" font-family="Helvetica,sans-Serif" font-size="10.00">hello_world::algorithms</text>
<text text-anchor="middle" x="82" y="-199" font-family="Helvetica,sans-Serif" font-size="10.00">::controller::pid::InteSeparation</text>
</a>
</g>
</g>
<!-- Node9&#45;&gt;Node4 -->
<g id="edge8_Node000004_Node000009" class="edge">
<title>Node9&#45;&gt;Node4</title>
<g id="a_edge8_Node000004_Node000009"><a xlink:title=" ">
<path fill="none" stroke="#9a32cd" stroke-dasharray="5,2" d="M167.64,-214.23C204.82,-217.4 248.22,-221.11 284.76,-224.23"/>
<polygon fill="#9a32cd" stroke="#9a32cd" points="168.09,-210.67 157.83,-213.31 167.5,-217.64 168.09,-210.67"/>
</a>
</g>
<text text-anchor="middle" x="224.5" y="-225" font-family="Helvetica,sans-Serif" font-size="10.00" fill="grey"> inte_separation</text>
</g>
<!-- Node10 -->
<g id="Node000010" class="node">
<title>Node10</title>
<g id="a_Node000010"><a xlink:href="classhello__world_1_1algorithms_1_1controller_1_1pid_1_1_diff_filter.html" target="_top" xlink:title="用于实现差分滤波器功能">
<polygon fill="white" stroke="#666666" points="143,-174 21,-174 21,-144 143,-144 143,-174"/>
<text text-anchor="start" x="29" y="-162" font-family="Helvetica,sans-Serif" font-size="10.00">hello_world::algorithms</text>
<text text-anchor="middle" x="82" y="-151" font-family="Helvetica,sans-Serif" font-size="10.00">::controller::pid::DiffFilter</text>
</a>
</g>
</g>
<!-- Node10&#45;&gt;Node4 -->
<g id="edge9_Node000004_Node000010" class="edge">
<title>Node10&#45;&gt;Node4</title>
<g id="a_edge9_Node000004_Node000010"><a xlink:title=" ">
<path fill="none" stroke="#9a32cd" stroke-dasharray="5,2" d="M153.86,-173.49C188.22,-180.94 229.97,-190.63 267,-201 275.12,-203.27 276.96,-204.44 285,-207 293.88,-209.83 303.34,-212.77 312.52,-215.58"/>
<polygon fill="#9a32cd" stroke="#9a32cd" points="154.96,-169.93 144.45,-171.25 153.49,-176.77 154.96,-169.93"/>
</a>
</g>
<text text-anchor="middle" x="224.5" y="-204" font-family="Helvetica,sans-Serif" font-size="10.00" fill="grey"> diff_filter</text>
</g>
<!-- Node11 -->
<g id="Node000011" class="node">
<title>Node11</title>
<g id="a_Node000011"><a xlink:href="classhello__world_1_1algorithms_1_1controller_1_1pid_1_1_diff_previous.html" target="_top" xlink:title="微分先行优化类">
<polygon fill="white" stroke="#666666" points="150.5,-126 13.5,-126 13.5,-96 150.5,-96 150.5,-126"/>
<text text-anchor="start" x="21.5" y="-114" font-family="Helvetica,sans-Serif" font-size="10.00">hello_world::algorithms</text>
<text text-anchor="middle" x="82" y="-103" font-family="Helvetica,sans-Serif" font-size="10.00">::controller::pid::DiffPrevious</text>
</a>
</g>
</g>
<!-- Node11&#45;&gt;Node4 -->
<g id="edge10_Node000004_Node000011" class="edge">
<title>Node11&#45;&gt;Node4</title>
<g id="a_edge10_Node000004_Node000011"><a xlink:title=" ">
<path fill="none" stroke="#9a32cd" stroke-dasharray="5,2" d="M161.04,-119.17C196.88,-126.44 237.81,-140.15 267,-166 281.9,-179.19 270.12,-193.79 285,-207 288.75,-210.33 292.95,-213.2 297.41,-215.67"/>
<polygon fill="#9a32cd" stroke="#9a32cd" points="162.07,-115.62 151.59,-117.2 160.77,-122.49 162.07,-115.62"/>
</a>
</g>
<text text-anchor="middle" x="224.5" y="-169" font-family="Helvetica,sans-Serif" font-size="10.00" fill="grey"> diff_previous</text>
</g>
<!-- Node12 -->
<g id="Node000012" class="node">
<title>Node12</title>
<g id="a_Node000012"><a xlink:href="classhello__world_1_1algorithms_1_1controller_1_1pid_1_1_dead_band.html" target="_top" xlink:title="死区优化类">
<polygon fill="white" stroke="#666666" points="148,-78 16,-78 16,-48 148,-48 148,-78"/>
<text text-anchor="start" x="24" y="-66" font-family="Helvetica,sans-Serif" font-size="10.00">hello_world::algorithms</text>
<text text-anchor="middle" x="82" y="-55" font-family="Helvetica,sans-Serif" font-size="10.00">::controller::pid::DeadBand</text>
</a>
</g>
</g>
<!-- Node12&#45;&gt;Node4 -->
<g id="edge11_Node000004_Node000012" class="edge">
<title>Node12&#45;&gt;Node4</title>
<g id="a_edge11_Node000004_Node000012"><a xlink:title=" ">
<path fill="none" stroke="#9a32cd" stroke-dasharray="5,2" d="M159.33,-64.06C196.79,-68.67 239.63,-80.75 267,-110 296.96,-142.02 255.77,-174.32 285,-207 287.96,-210.31 291.37,-213.17 295.06,-215.65"/>
<polygon fill="#9a32cd" stroke="#9a32cd" points="159.73,-60.48 149.42,-62.91 158.99,-67.44 159.73,-60.48"/>
</a>
</g>
<text text-anchor="middle" x="224.5" y="-113" font-family="Helvetica,sans-Serif" font-size="10.00" fill="grey"> dead_band</text>
</g>
<!-- Node13 -->
<g id="Node000013" class="node">
<title>Node13</title>
<g id="a_Node000013"><a xlink:href="classhello__world_1_1algorithms_1_1controller_1_1pid_1_1_setpoint_ramping.html" target="_top" xlink:title="设定点斜坡优化类">
<polygon fill="white" stroke="#666666" points="162.5,-30 1.5,-30 1.5,0 162.5,0 162.5,-30"/>
<text text-anchor="start" x="9.5" y="-18" font-family="Helvetica,sans-Serif" font-size="10.00">hello_world::algorithms</text>
<text text-anchor="middle" x="82" y="-7" font-family="Helvetica,sans-Serif" font-size="10.00">::controller::pid::SetpointRamping</text>
</a>
</g>
</g>
<!-- Node13&#45;&gt;Node4 -->
<g id="edge12_Node000004_Node000013" class="edge">
<title>Node13&#45;&gt;Node4</title>
<g id="a_edge12_Node000004_Node000013"><a xlink:title=" ">
<path fill="none" stroke="#9a32cd" stroke-dasharray="5,2" d="M173.54,-12.49C207.46,-16.42 243.44,-27.28 267,-53 313.55,-103.81 240.81,-154.12 285,-207 287.76,-210.3 290.95,-213.16 294.45,-215.63"/>
<polygon fill="#9a32cd" stroke="#9a32cd" points="173.91,-8.91 163.62,-11.45 173.25,-15.88 173.91,-8.91"/>
</a>
</g>
<text text-anchor="middle" x="224.5" y="-56" font-family="Helvetica,sans-Serif" font-size="10.00" fill="grey"> setpointe_ramping</text>
</g>
<!-- Node14 -->
<g id="Node000014" class="node">
<title>Node14</title>
<g id="a_Node000014"><a xlink:href="structhello__world_1_1algorithms_1_1controller_1_1pid_1_1_basic_pid_datas.html" target="_top" xlink:title="基础 PID 的数据结构体">
<polygon fill="white" stroke="#666666" points="441,-198 289,-198 289,-168 441,-168 441,-198"/>
<text text-anchor="start" x="297" y="-186" font-family="Helvetica,sans-Serif" font-size="10.00">hello_world::algorithms</text>
<text text-anchor="middle" x="365" y="-175" font-family="Helvetica,sans-Serif" font-size="10.00">::controller::pid::BasicPidDatas</text>
</a>
</g>
</g>
<!-- Node14&#45;&gt;Node1 -->
<g id="edge13_Node000001_Node000014" class="edge">
<title>Node14&#45;&gt;Node1</title>
<g id="a_edge13_Node000001_Node000014"><a xlink:title=" ">
<path fill="none" stroke="#9a32cd" stroke-dasharray="5,2" d="M446.65,-200.76C471.44,-206.22 498.32,-212.14 521.68,-217.28"/>
<polygon fill="#9a32cd" stroke="#9a32cd" points="447.7,-197.18 437.18,-198.45 446.19,-204.02 447.7,-197.18"/>
</a>
</g>
<text text-anchor="middle" x="483.5" y="-215" font-family="Helvetica,sans-Serif" font-size="10.00" fill="grey"> datas_</text>
</g>
</g>
</svg>
