<?xml version="1.0" encoding="UTF-8" standalone="no"?>
<!DOCTYPE svg PUBLIC "-//W3C//DTD SVG 1.1//EN"
 "http://www.w3.org/Graphics/SVG/1.1/DTD/svg11.dtd">
<!-- Generated by graphviz version 8.0.3 (20230416.2022)
 -->
<!-- Title: hello_world::devices::laser::Laser::Laser Pages: 1 -->
<svg width="425pt" height="38pt"
 viewBox="0.00 0.00 425.00 38.00" xmlns="http://www.w3.org/2000/svg" xmlns:xlink="http://www.w3.org/1999/xlink">
<g id="graph0" class="graph" transform="scale(1 1) rotate(0) translate(4 34)">
<title>hello_world::devices::laser::Laser::Laser</title>
<!-- Node1 -->
<g id="Node000001" class="node">
<title>Node1</title>
<g id="a_Node000001"><a xlink:title="红点激光器初始化">
<polygon fill="#999999" stroke="#666666" points="104,-30 0,-30 0,0 104,0 104,-30"/>
<text text-anchor="start" x="8" y="-18" font-family="Helvetica,sans-Serif" font-size="10.00">hello_world::devices</text>
<text text-anchor="middle" x="52" y="-7" font-family="Helvetica,sans-Serif" font-size="10.00">::laser::Laser::Laser</text>
</a>
</g>
</g>
<!-- Node2 -->
<g id="Node000002" class="node">
<title>Node2</title>
<g id="a_Node000002"><a xlink:href="classhello__world_1_1devices_1_1laser_1_1_laser.html#a71727ea81371581d369751653e0fc5ca" target="_top" xlink:title="百分比亮度转定时器PWM比较值">
<polygon fill="white" stroke="#666666" points="283,-30 140,-30 140,0 283,0 283,-30"/>
<text text-anchor="start" x="148" y="-18" font-family="Helvetica,sans-Serif" font-size="10.00">hello_world::devices</text>
<text text-anchor="middle" x="211.5" y="-7" font-family="Helvetica,sans-Serif" font-size="10.00">::laser::Laser::luminPct2Cmp</text>
</a>
</g>
</g>
<!-- Node1&#45;&gt;Node2 -->
<g id="edge1_Node000001_Node000002" class="edge">
<title>Node1&#45;&gt;Node2</title>
<g id="a_edge1_Node000001_Node000002"><a xlink:title=" ">
<path fill="none" stroke="#63b8ff" d="M104.14,-15C112.01,-15 120.3,-15 128.63,-15"/>
<polygon fill="#63b8ff" stroke="#63b8ff" points="128.59,-18.5 138.59,-15 128.59,-11.5 128.59,-18.5"/>
</a>
</g>
</g>
<!-- Node3 -->
<g id="Node000003" class="node">
<title>Node3</title>
<g id="a_Node000003"><a xlink:href="namespacehello__world.html#a34cb06299a34f746d556d23dc16904aa" target="_top" xlink:title="将输入值限制在一个范围内">
<polygon fill="white" stroke="#666666" points="417,-24.5 319,-24.5 319,-5.5 417,-5.5 417,-24.5"/>
<text text-anchor="middle" x="368" y="-12.5" font-family="Helvetica,sans-Serif" font-size="10.00">hello_world::Bound</text>
</a>
</g>
</g>
<!-- Node2&#45;&gt;Node3 -->
<g id="edge2_Node000002_Node000003" class="edge">
<title>Node2&#45;&gt;Node3</title>
<g id="a_edge2_Node000002_Node000003"><a xlink:title=" ">
<path fill="none" stroke="#63b8ff" d="M283.42,-15C291.51,-15 299.69,-15 307.6,-15"/>
<polygon fill="#63b8ff" stroke="#63b8ff" points="307.58,-18.5 317.58,-15 307.58,-11.5 307.58,-18.5"/>
</a>
</g>
</g>
</g>
</svg>
