<?xml version="1.0" encoding="UTF-8" standalone="no"?>
<!DOCTYPE svg PUBLIC "-//W3C//DTD SVG 1.1//EN"
 "http://www.w3.org/Graphics/SVG/1.1/DTD/svg11.dtd">
<!-- Generated by graphviz version 8.0.3 (20230416.2022)
 -->
<!-- Title: hello_world::devices::motor::A1::A1 Pages: 1 -->
<svg width="407pt" height="268pt"
 viewBox="0.00 0.00 407.00 268.00" xmlns="http://www.w3.org/2000/svg" xmlns:xlink="http://www.w3.org/1999/xlink">
<g id="graph0" class="graph" transform="scale(1 1) rotate(0) translate(4 264)">
<title>hello_world::devices::motor::A1::A1</title>
<!-- Node1 -->
<g id="Node000001" class="node">
<title>Node1</title>
<g id="a_Node000001"><a xlink:title="A1 初始化">
<polygon fill="#999999" stroke="#666666" points="103,-147 0,-147 0,-117 103,-117 103,-147"/>
<text text-anchor="start" x="8" y="-135" font-family="Helvetica,sans-Serif" font-size="10.00">hello_world::devices</text>
<text text-anchor="middle" x="51.5" y="-124" font-family="Helvetica,sans-Serif" font-size="10.00">::motor::A1::A1</text>
</a>
</g>
</g>
<!-- Node2 -->
<g id="Node000002" class="node">
<title>Node2</title>
<g id="a_Node000002"><a xlink:href="classhello__world_1_1devices_1_1motor_1_1_motor.html#aebf04ce4e3628c60907a29771f383027" target="_top" xlink:title="将转子电流转换为原始报文内容">
<polygon fill="white" stroke="#666666" points="260,-260 139,-260 139,-230 260,-230 260,-260"/>
<text text-anchor="start" x="147" y="-248" font-family="Helvetica,sans-Serif" font-size="10.00">hello_world::devices</text>
<text text-anchor="middle" x="199.5" y="-237" font-family="Helvetica,sans-Serif" font-size="10.00">::motor::Motor::curr2raw</text>
</a>
</g>
</g>
<!-- Node1&#45;&gt;Node2 -->
<g id="edge1_Node000001_Node000002" class="edge">
<title>Node1&#45;&gt;Node2</title>
<g id="a_edge1_Node000001_Node000002"><a xlink:title=" ">
<path fill="none" stroke="#63b8ff" d="M64.12,-147.45C79.43,-166.88 108.06,-200.21 139,-221 140.92,-222.29 142.91,-223.52 144.96,-224.71"/>
<polygon fill="#63b8ff" stroke="#63b8ff" points="142.73,-228.02 153.21,-229.57 145.99,-221.82 142.73,-228.02"/>
</a>
</g>
</g>
<!-- Node4 -->
<g id="Node000004" class="node">
<title>Node4</title>
<g id="a_Node000004"><a xlink:href="classhello__world_1_1devices_1_1motor_1_1_motor.html#ab3e2187f017e86c6d4a83caa55fe9419" target="_top" xlink:title=" ">
<polygon fill="white" stroke="#666666" points="251,-212 148,-212 148,-182 251,-182 251,-212"/>
<text text-anchor="start" x="156" y="-200" font-family="Helvetica,sans-Serif" font-size="10.00">hello_world::devices</text>
<text text-anchor="middle" x="199.5" y="-189" font-family="Helvetica,sans-Serif" font-size="10.00">::motor::Motor::id</text>
</a>
</g>
</g>
<!-- Node1&#45;&gt;Node4 -->
<g id="edge3_Node000001_Node000004" class="edge">
<title>Node1&#45;&gt;Node4</title>
<g id="a_edge3_Node000001_Node000004"><a xlink:title=" ">
<path fill="none" stroke="#63b8ff" d="M83.93,-147.45C100.25,-155.33 120.58,-164.93 139,-173 142.37,-174.48 145.85,-175.97 149.38,-177.45"/>
<polygon fill="#63b8ff" stroke="#63b8ff" points="147.74,-180.98 158.32,-181.58 150.42,-174.51 147.74,-180.98"/>
</a>
</g>
</g>
<!-- Node5 -->
<g id="Node000005" class="node">
<title>Node5</title>
<g id="a_Node000005"><a xlink:href="namespacehello__world.html#a94594f3432536927055026f3f48af251" target="_top" xlink:title="获取两个变量间的最小值">
<polygon fill="white" stroke="#666666" points="242.5,-163.5 156.5,-163.5 156.5,-144.5 242.5,-144.5 242.5,-163.5"/>
<text text-anchor="middle" x="199.5" y="-151.5" font-family="Helvetica,sans-Serif" font-size="10.00">hello_world::Min</text>
</a>
</g>
</g>
<!-- Node1&#45;&gt;Node5 -->
<g id="edge4_Node000001_Node000005" class="edge">
<title>Node1&#45;&gt;Node5</title>
<g id="a_edge4_Node000001_Node000005"><a xlink:title=" ">
<path fill="none" stroke="#63b8ff" d="M103.15,-139.63C116.8,-141.69 131.6,-143.92 145.38,-146"/>
<polygon fill="#63b8ff" stroke="#63b8ff" points="144.76,-149.59 155.17,-147.62 145.8,-142.67 144.76,-149.59"/>
</a>
</g>
</g>
<!-- Node6 -->
<g id="Node000006" class="node">
<title>Node6</title>
<g id="a_Node000006"><a xlink:href="classhello__world_1_1devices_1_1motor_1_1_motor.html#a1e4467d9f449b9c6c7d6886fffa89667" target="_top" xlink:title="将原始报文内容转换为转子电流">
<polygon fill="white" stroke="#666666" points="260,-126 139,-126 139,-96 260,-96 260,-126"/>
<text text-anchor="start" x="147" y="-114" font-family="Helvetica,sans-Serif" font-size="10.00">hello_world::devices</text>
<text text-anchor="middle" x="199.5" y="-103" font-family="Helvetica,sans-Serif" font-size="10.00">::motor::Motor::raw2curr</text>
</a>
</g>
</g>
<!-- Node1&#45;&gt;Node6 -->
<g id="edge5_Node000001_Node000006" class="edge">
<title>Node1&#45;&gt;Node6</title>
<g id="a_edge5_Node000001_Node000006"><a xlink:title=" ">
<path fill="none" stroke="#63b8ff" d="M103.15,-124.71C111.11,-123.57 119.47,-122.37 127.78,-121.17"/>
<polygon fill="#63b8ff" stroke="#63b8ff" points="128.25,-124.5 137.65,-119.61 127.25,-117.57 128.25,-124.5"/>
</a>
</g>
</g>
<!-- Node7 -->
<g id="Node000007" class="node">
<title>Node7</title>
<g id="a_Node000007"><a xlink:href="classhello__world_1_1devices_1_1motor_1_1_motor.html#af74a8c4ad7c0067a2d71afd711639366" target="_top" xlink:title="将原始报文内容转换为输出端力矩">
<polygon fill="white" stroke="#666666" points="260,-78 139,-78 139,-48 260,-48 260,-78"/>
<text text-anchor="start" x="147" y="-66" font-family="Helvetica,sans-Serif" font-size="10.00">hello_world::devices</text>
<text text-anchor="middle" x="199.5" y="-55" font-family="Helvetica,sans-Serif" font-size="10.00">::motor::Motor::raw2torq</text>
</a>
</g>
</g>
<!-- Node1&#45;&gt;Node7 -->
<g id="edge6_Node000001_Node000007" class="edge">
<title>Node1&#45;&gt;Node7</title>
<g id="a_edge6_Node000001_Node000007"><a xlink:title=" ">
<path fill="none" stroke="#63b8ff" d="M80.6,-116.51C97.36,-107.49 119.16,-96.13 139,-87 142.14,-85.56 145.39,-84.11 148.67,-82.68"/>
<polygon fill="#63b8ff" stroke="#63b8ff" points="149.74,-85.61 157.59,-78.48 147.01,-79.16 149.74,-85.61"/>
</a>
</g>
</g>
<!-- Node8 -->
<g id="Node000008" class="node">
<title>Node8</title>
<g id="a_Node000008"><a xlink:href="classhello__world_1_1devices_1_1motor_1_1_motor.html#a319adc3f1b7d43fa12015b52a153ea17" target="_top" xlink:title="将输出端力矩转换为原始报文内容">
<polygon fill="white" stroke="#666666" points="260,-30 139,-30 139,0 260,0 260,-30"/>
<text text-anchor="start" x="147" y="-18" font-family="Helvetica,sans-Serif" font-size="10.00">hello_world::devices</text>
<text text-anchor="middle" x="199.5" y="-7" font-family="Helvetica,sans-Serif" font-size="10.00">::motor::Motor::torq2raw</text>
</a>
</g>
</g>
<!-- Node1&#45;&gt;Node8 -->
<g id="edge7_Node000001_Node000008" class="edge">
<title>Node1&#45;&gt;Node8</title>
<g id="a_edge7_Node000001_Node000008"><a xlink:title=" ">
<path fill="none" stroke="#63b8ff" d="M63.45,-116.53C78.46,-96.3 107.21,-60.87 139,-39 140.72,-37.82 142.51,-36.68 144.34,-35.58"/>
<polygon fill="#63b8ff" stroke="#63b8ff" points="145.69,-38.3 152.84,-30.48 142.37,-32.13 145.69,-38.3"/>
</a>
</g>
</g>
<!-- Node3 -->
<g id="Node000003" class="node">
<title>Node3</title>
<g id="a_Node000003"><a xlink:href="classhello__world_1_1devices_1_1motor_1_1_motor.html#a7fbec1460a1db6c45b4c57fd0497e5e0" target="_top" xlink:title=" ">
<polygon fill="white" stroke="#666666" points="399,-260 296,-260 296,-230 399,-230 399,-260"/>
<text text-anchor="start" x="304" y="-248" font-family="Helvetica,sans-Serif" font-size="10.00">hello_world::devices</text>
<text text-anchor="middle" x="347.5" y="-237" font-family="Helvetica,sans-Serif" font-size="10.00">::motor::Motor::curr</text>
</a>
</g>
</g>
<!-- Node2&#45;&gt;Node3 -->
<g id="edge2_Node000002_Node000003" class="edge">
<title>Node2&#45;&gt;Node3</title>
<g id="a_edge2_Node000002_Node000003"><a xlink:title=" ">
<path fill="none" stroke="#63b8ff" d="M260.31,-245C268.43,-245 276.77,-245 284.92,-245"/>
<polygon fill="#63b8ff" stroke="#63b8ff" points="284.88,-248.5 294.88,-245 284.88,-241.5 284.88,-248.5"/>
</a>
</g>
</g>
<!-- Node9 -->
<g id="Node000009" class="node">
<title>Node9</title>
<g id="a_Node000009"><a xlink:href="classhello__world_1_1devices_1_1motor_1_1_motor.html#a987073404f2d04c10434f830884b9612" target="_top" xlink:title=" ">
<polygon fill="white" stroke="#666666" points="399,-30 296,-30 296,0 399,0 399,-30"/>
<text text-anchor="start" x="304" y="-18" font-family="Helvetica,sans-Serif" font-size="10.00">hello_world::devices</text>
<text text-anchor="middle" x="347.5" y="-7" font-family="Helvetica,sans-Serif" font-size="10.00">::motor::Motor::torq</text>
</a>
</g>
</g>
<!-- Node8&#45;&gt;Node9 -->
<g id="edge8_Node000008_Node000009" class="edge">
<title>Node8&#45;&gt;Node9</title>
<g id="a_edge8_Node000008_Node000009"><a xlink:title=" ">
<path fill="none" stroke="#63b8ff" d="M260.31,-15C268.43,-15 276.77,-15 284.92,-15"/>
<polygon fill="#63b8ff" stroke="#63b8ff" points="284.88,-18.5 294.88,-15 284.88,-11.5 284.88,-18.5"/>
</a>
</g>
</g>
</g>
</svg>
