<?xml version="1.0" encoding="UTF-8" standalone="no"?>
<!DOCTYPE svg PUBLIC "-//W3C//DTD SVG 1.1//EN"
 "http://www.w3.org/Graphics/SVG/1.1/DTD/svg11.dtd">
<!-- Generated by graphviz version 8.0.3 (20230416.2022)
 -->
<!-- Title: hello_world::algorithms::controller::pid::PidList::end Pages: 1 -->
<svg width="491pt" height="226pt"
 viewBox="0.00 0.00 491.00 226.00" xmlns="http://www.w3.org/2000/svg" xmlns:xlink="http://www.w3.org/1999/xlink">
<g id="graph0" class="graph" transform="scale(1 1) rotate(0) translate(4 222)">
<title>hello_world::algorithms::controller::pid::PidList::end</title>
<!-- Node1 -->
<g id="Node000001" class="node">
<title>Node1</title>
<g id="a_Node000001"><a xlink:title="获取链表的结束迭代器">
<polygon fill="#999999" stroke="#666666" points="483,-123.5 344,-123.5 344,-93.5 483,-93.5 483,-123.5"/>
<text text-anchor="start" x="352" y="-111.5" font-family="Helvetica,sans-Serif" font-size="10.00">hello_world::algorithms</text>
<text text-anchor="middle" x="413.5" y="-100.5" font-family="Helvetica,sans-Serif" font-size="10.00">::controller::pid::PidList::end</text>
</a>
</g>
</g>
<!-- Node2 -->
<g id="Node000002" class="node">
<title>Node2</title>
<g id="a_Node000002"><a xlink:href="classhello__world_1_1algorithms_1_1controller_1_1pid_1_1_multi_nodes_pid.html#accc1fd43233ab6d228f7111eab364c51" target="_top" xlink:title="计算级联 PID 控制器的输出">
<polygon fill="white" stroke="#666666" points="308,-218 172,-218 172,-177 308,-177 308,-218"/>
<text text-anchor="start" x="180" y="-206" font-family="Helvetica,sans-Serif" font-size="10.00">hello_world::algorithms</text>
<text text-anchor="start" x="180" y="-195" font-family="Helvetica,sans-Serif" font-size="10.00">::controller::pid::MultiNodes</text>
<text text-anchor="middle" x="240" y="-184" font-family="Helvetica,sans-Serif" font-size="10.00">Pid::cascade_calc</text>
</a>
</g>
</g>
<!-- Node1&#45;&gt;Node2 -->
<g id="edge1_Node000001_Node000002" class="edge">
<title>Node1&#45;&gt;Node2</title>
<g id="a_edge1_Node000001_Node000002"><a xlink:title=" ">
<path fill="none" stroke="#63b8ff" d="M378.22,-129.48C358.08,-141.48 331.95,-156.49 308,-168.5 302.56,-171.23 296.81,-173.95 291.05,-176.58"/>
<polygon fill="#63b8ff" stroke="#63b8ff" points="379.82,-132.01 386.6,-123.86 376.22,-126 379.82,-132.01"/>
</a>
</g>
</g>
<!-- Node4 -->
<g id="Node000004" class="node">
<title>Node4</title>
<g id="a_Node000004"><a xlink:href="classhello__world_1_1algorithms_1_1controller_1_1pid_1_1_multi_nodes_pid.html#a180ce707d30cae5f45ec5820d1b2c50c" target="_top" xlink:title="计算并行 PID 控制器的输出">
<polygon fill="white" stroke="#666666" points="308,-159 172,-159 172,-118 308,-118 308,-159"/>
<text text-anchor="start" x="180" y="-147" font-family="Helvetica,sans-Serif" font-size="10.00">hello_world::algorithms</text>
<text text-anchor="start" x="180" y="-136" font-family="Helvetica,sans-Serif" font-size="10.00">::controller::pid::MultiNodes</text>
<text text-anchor="middle" x="240" y="-125" font-family="Helvetica,sans-Serif" font-size="10.00">Pid::parallel_calc</text>
</a>
</g>
</g>
<!-- Node1&#45;&gt;Node4 -->
<g id="edge3_Node000001_Node000004" class="edge">
<title>Node1&#45;&gt;Node4</title>
<g id="a_edge3_Node000001_Node000004"><a xlink:title=" ">
<path fill="none" stroke="#63b8ff" d="M332.99,-122.41C324.76,-123.85 316.46,-125.3 308.39,-126.71"/>
<polygon fill="#63b8ff" stroke="#63b8ff" points="333.49,-125.7 342.73,-120.53 332.28,-118.8 333.49,-125.7"/>
</a>
</g>
</g>
<!-- Node5 -->
<g id="Node000005" class="node">
<title>Node5</title>
<g id="a_Node000005"><a xlink:href="classhello__world_1_1algorithms_1_1controller_1_1pid_1_1_multi_nodes_pid.html#a5798e287814521e3627db78943c840c4" target="_top" xlink:title="获取指定索引处 PID 控制器的参数">
<polygon fill="white" stroke="#666666" points="308,-100 172,-100 172,-59 308,-59 308,-100"/>
<text text-anchor="start" x="180" y="-88" font-family="Helvetica,sans-Serif" font-size="10.00">hello_world::algorithms</text>
<text text-anchor="start" x="180" y="-77" font-family="Helvetica,sans-Serif" font-size="10.00">::controller::pid::MultiNodes</text>
<text text-anchor="middle" x="240" y="-66" font-family="Helvetica,sans-Serif" font-size="10.00">Pid::paramsAt</text>
</a>
</g>
</g>
<!-- Node1&#45;&gt;Node5 -->
<g id="edge5_Node000001_Node000005" class="edge">
<title>Node1&#45;&gt;Node5</title>
<g id="a_edge5_Node000001_Node000005"><a xlink:title=" ">
<path fill="none" stroke="#63b8ff" d="M332.99,-95.06C324.76,-93.66 316.46,-92.26 308.39,-90.89"/>
<polygon fill="#63b8ff" stroke="#63b8ff" points="332.29,-98.66 342.73,-96.87 333.46,-91.75 332.29,-98.66"/>
</a>
</g>
</g>
<!-- Node6 -->
<g id="Node000006" class="node">
<title>Node6</title>
<g id="a_Node000006"><a xlink:href="classhello__world_1_1algorithms_1_1controller_1_1pid_1_1_multi_nodes_pid.html#a5edb64efe535b8e5b8b1e30a91f28fe0" target="_top" xlink:title="重置 PID 控制器">
<polygon fill="white" stroke="#666666" points="308,-41 172,-41 172,0 308,0 308,-41"/>
<text text-anchor="start" x="180" y="-29" font-family="Helvetica,sans-Serif" font-size="10.00">hello_world::algorithms</text>
<text text-anchor="start" x="180" y="-18" font-family="Helvetica,sans-Serif" font-size="10.00">::controller::pid::MultiNodes</text>
<text text-anchor="middle" x="240" y="-7" font-family="Helvetica,sans-Serif" font-size="10.00">Pid::reset</text>
</a>
</g>
</g>
<!-- Node1&#45;&gt;Node6 -->
<g id="edge6_Node000001_Node000006" class="edge">
<title>Node1&#45;&gt;Node6</title>
<g id="a_edge6_Node000001_Node000006"><a xlink:title=" ">
<path fill="none" stroke="#63b8ff" d="M376.86,-87.72C356.85,-76.31 331.28,-62.15 308,-50.5 301.96,-47.48 295.55,-44.42 289.18,-41.47"/>
<polygon fill="#63b8ff" stroke="#63b8ff" points="374.79,-91.15 385.21,-93.08 378.27,-85.07 374.79,-91.15"/>
</a>
</g>
</g>
<!-- Node3 -->
<g id="Node000003" class="node">
<title>Node3</title>
<g id="a_Node000003"><a xlink:href="classhello__world_1_1algorithms_1_1controller_1_1pid_1_1_multi_nodes_pid.html#ae10478e0d731be3f6e6d0c479964d448" target="_top" xlink:title="计算 PID 控制器的输出">
<polygon fill="white" stroke="#666666" points="136,-188 0,-188 0,-147 136,-147 136,-188"/>
<text text-anchor="start" x="8" y="-176" font-family="Helvetica,sans-Serif" font-size="10.00">hello_world::algorithms</text>
<text text-anchor="start" x="8" y="-165" font-family="Helvetica,sans-Serif" font-size="10.00">::controller::pid::MultiNodes</text>
<text text-anchor="middle" x="68" y="-154" font-family="Helvetica,sans-Serif" font-size="10.00">Pid::calc</text>
</a>
</g>
</g>
<!-- Node2&#45;&gt;Node3 -->
<g id="edge2_Node000002_Node000003" class="edge">
<title>Node2&#45;&gt;Node3</title>
<g id="a_edge2_Node000002_Node000003"><a xlink:title=" ">
<path fill="none" stroke="#63b8ff" d="M161.02,-183.74C152.75,-182.28 144.39,-180.8 136.26,-179.37"/>
<polygon fill="#63b8ff" stroke="#63b8ff" points="160.36,-187.35 170.81,-185.64 161.57,-180.46 160.36,-187.35"/>
</a>
</g>
</g>
<!-- Node4&#45;&gt;Node3 -->
<g id="edge4_Node000004_Node000003" class="edge">
<title>Node4&#45;&gt;Node3</title>
<g id="a_edge4_Node000004_Node000003"><a xlink:title=" ">
<path fill="none" stroke="#63b8ff" d="M161.02,-151.8C152.75,-153.21 144.39,-154.64 136.26,-156.03"/>
<polygon fill="#63b8ff" stroke="#63b8ff" points="161.54,-155.09 170.81,-149.96 160.37,-148.19 161.54,-155.09"/>
</a>
</g>
</g>
</g>
</svg>
