<?xml version="1.0" encoding="UTF-8" standalone="no"?>
<!DOCTYPE svg PUBLIC "-//W3C//DTD SVG 1.1//EN"
 "http://www.w3.org/Graphics/SVG/1.1/DTD/svg11.dtd">
<!-- Generated by graphviz version 8.0.3 (20230416.2022)
 -->
<!-- Title: hello_world::algorithms::controller::pid::PidList::clear Pages: 1 -->
<svg width="431pt" height="73pt"
 viewBox="0.00 0.00 431.00 73.00" xmlns="http://www.w3.org/2000/svg" xmlns:xlink="http://www.w3.org/1999/xlink">
<g id="graph0" class="graph" transform="scale(1 1) rotate(0) translate(4 69)">
<title>hello_world::algorithms::controller::pid::PidList::clear</title>
<!-- Node1 -->
<g id="Node000001" class="node">
<title>Node1</title>
<g id="a_Node000001"><a xlink:title="清空链表">
<polygon fill="#999999" stroke="#666666" points="117,-65 0,-65 0,-24 117,-24 117,-65"/>
<text text-anchor="start" x="8" y="-53" font-family="Helvetica,sans-Serif" font-size="10.00">hello_world::algorithms</text>
<text text-anchor="start" x="8" y="-42" font-family="Helvetica,sans-Serif" font-size="10.00">::controller::pid::PidList</text>
<text text-anchor="middle" x="58.5" y="-31" font-family="Helvetica,sans-Serif" font-size="10.00">::clear</text>
</a>
</g>
</g>
<!-- Node2 -->
<g id="Node000002" class="node">
<title>Node2</title>
<g id="a_Node000002"><a xlink:href="classhello__world_1_1algorithms_1_1controller_1_1pid_1_1_pid_list.html#a2d94d2bc545bc8d673f4de9592d647c1" target="_top" xlink:title="检查链表是否为空">
<polygon fill="white" stroke="#666666" points="423,-65 306,-65 306,-24 423,-24 423,-65"/>
<text text-anchor="start" x="314" y="-53" font-family="Helvetica,sans-Serif" font-size="10.00">hello_world::algorithms</text>
<text text-anchor="start" x="314" y="-42" font-family="Helvetica,sans-Serif" font-size="10.00">::controller::pid::PidList</text>
<text text-anchor="middle" x="364.5" y="-31" font-family="Helvetica,sans-Serif" font-size="10.00">::empty</text>
</a>
</g>
</g>
<!-- Node1&#45;&gt;Node2 -->
<g id="edge1_Node000001_Node000002" class="edge">
<title>Node1&#45;&gt;Node2</title>
<g id="a_edge1_Node000001_Node000002"><a xlink:title=" ">
<path fill="none" stroke="#63b8ff" d="M117.33,-48.79C129.12,-49.5 141.46,-50.13 153,-50.5 204.97,-52.17 218.03,-52.17 270,-50.5 278.03,-50.24 286.43,-49.86 294.78,-49.41"/>
<polygon fill="#63b8ff" stroke="#63b8ff" points="294.89,-52.86 304.67,-48.79 294.49,-45.87 294.89,-52.86"/>
</a>
</g>
</g>
<!-- Node3 -->
<g id="Node000003" class="node">
<title>Node3</title>
<g id="a_Node000003"><a xlink:href="classhello__world_1_1algorithms_1_1controller_1_1pid_1_1_pid_list.html#a5ea468d831da1cfd880ad38897d227d2" target="_top" xlink:title="移除链表尾部的 PidNode">
<polygon fill="white" stroke="#666666" points="270,-41 153,-41 153,0 270,0 270,-41"/>
<text text-anchor="start" x="161" y="-29" font-family="Helvetica,sans-Serif" font-size="10.00">hello_world::algorithms</text>
<text text-anchor="start" x="161" y="-18" font-family="Helvetica,sans-Serif" font-size="10.00">::controller::pid::PidList</text>
<text text-anchor="middle" x="211.5" y="-7" font-family="Helvetica,sans-Serif" font-size="10.00">::removeTail</text>
</a>
</g>
</g>
<!-- Node1&#45;&gt;Node3 -->
<g id="edge2_Node000001_Node000003" class="edge">
<title>Node1&#45;&gt;Node3</title>
<g id="a_edge2_Node000001_Node000003"><a xlink:title=" ">
<path fill="none" stroke="#63b8ff" d="M117.45,-35.29C125.54,-34 133.93,-32.67 142.19,-31.36"/>
<polygon fill="#63b8ff" stroke="#63b8ff" points="142.63,-34.67 151.96,-29.65 141.53,-27.76 142.63,-34.67"/>
</a>
</g>
</g>
<!-- Node3&#45;&gt;Node2 -->
<g id="edge3_Node000003_Node000002" class="edge">
<title>Node3&#45;&gt;Node2</title>
<g id="a_edge3_Node000003_Node000002"><a xlink:title=" ">
<path fill="none" stroke="#63b8ff" d="M270.45,-29.71C278.54,-31 286.93,-32.33 295.19,-33.64"/>
<polygon fill="#63b8ff" stroke="#63b8ff" points="294.53,-37.24 304.96,-35.35 295.63,-30.33 294.53,-37.24"/>
</a>
</g>
</g>
</g>
</svg>
