<?xml version="1.0" encoding="UTF-8" standalone="no"?>
<!DOCTYPE svg PUBLIC "-//W3C//DTD SVG 1.1//EN"
 "http://www.w3.org/Graphics/SVG/1.1/DTD/svg11.dtd">
<!-- Generated by graphviz version 8.0.3 (20230416.2022)
 -->
<!-- Title: hello_world::devices::imu::BMI088::accSelfTest Pages: 1 -->
<svg width="645pt" height="177pt"
 viewBox="0.00 0.00 645.00 177.00" xmlns="http://www.w3.org/2000/svg" xmlns:xlink="http://www.w3.org/1999/xlink">
<g id="graph0" class="graph" transform="scale(1 1) rotate(0) translate(4 173)">
<title>hello_world::devices::imu::BMI088::accSelfTest</title>
<!-- Node1 -->
<g id="Node000001" class="node">
<title>Node1</title>
<g id="a_Node000001"><a xlink:title="加速度计自检测">
<polygon fill="#999999" stroke="#666666" points="134,-99 0,-99 0,-69 134,-69 134,-99"/>
<text text-anchor="start" x="8" y="-87" font-family="Helvetica,sans-Serif" font-size="10.00">hello_world::devices</text>
<text text-anchor="middle" x="67" y="-76" font-family="Helvetica,sans-Serif" font-size="10.00">::imu::BMI088::accSelfTest</text>
</a>
</g>
</g>
<!-- Node2 -->
<g id="Node000002" class="node">
<title>Node2</title>
<g id="a_Node000002"><a xlink:href="classhello__world_1_1devices_1_1imu_1_1_b_m_i088.html#a3d46ca9f969584dbbc7060a0665edd0a" target="_top" xlink:title="读取加速度计寄存器数据">
<polygon fill="white" stroke="#666666" points="472.5,-169 350.5,-169 350.5,-139 472.5,-139 472.5,-169"/>
<text text-anchor="start" x="358.5" y="-157" font-family="Helvetica,sans-Serif" font-size="10.00">hello_world::devices</text>
<text text-anchor="middle" x="411.5" y="-146" font-family="Helvetica,sans-Serif" font-size="10.00">::imu::BMI088::accRead</text>
</a>
</g>
</g>
<!-- Node1&#45;&gt;Node2 -->
<g id="edge1_Node000001_Node000002" class="edge">
<title>Node1&#45;&gt;Node2</title>
<g id="a_edge1_Node000001_Node000002"><a xlink:title=" ">
<path fill="none" stroke="#63b8ff" d="M128.82,-99.49C142.34,-102.77 156.63,-106.11 170,-109 226.74,-121.25 291.44,-133.25 339.43,-141.77"/>
<polygon fill="#63b8ff" stroke="#63b8ff" points="338.57,-145.35 349.02,-143.64 339.79,-138.45 338.57,-145.35"/>
</a>
</g>
</g>
<!-- Node5 -->
<g id="Node000005" class="node">
<title>Node5</title>
<g id="a_Node000005"><a xlink:href="classhello__world_1_1devices_1_1imu_1_1_b_m_i088.html#a7bbb5b66f79a9d0d40edf7f809743d59" target="_top" xlink:title="向加速度计寄存器写入数据">
<polygon fill="white" stroke="#666666" points="472.5,-121 350.5,-121 350.5,-91 472.5,-91 472.5,-121"/>
<text text-anchor="start" x="358.5" y="-109" font-family="Helvetica,sans-Serif" font-size="10.00">hello_world::devices</text>
<text text-anchor="middle" x="411.5" y="-98" font-family="Helvetica,sans-Serif" font-size="10.00">::imu::BMI088::accWrite</text>
</a>
</g>
</g>
<!-- Node1&#45;&gt;Node5 -->
<g id="edge4_Node000001_Node000005" class="edge">
<title>Node1&#45;&gt;Node5</title>
<g id="a_edge4_Node000001_Node000005"><a xlink:title=" ">
<path fill="none" stroke="#63b8ff" d="M134.44,-88.27C193.32,-92.05 279.06,-97.56 339.32,-101.43"/>
<polygon fill="#63b8ff" stroke="#63b8ff" points="339.06,-104.98 349.26,-102.13 339.51,-98 339.06,-104.98"/>
</a>
</g>
</g>
<!-- Node6 -->
<g id="Node000006" class="node">
<title>Node6</title>
<g id="a_Node000006"><a xlink:href="namespacehello__world_1_1devices_1_1imu.html#a6fc8717b2ca9de9512855bad4d226769" target="_top" xlink:title="微秒级延时">
<polygon fill="white" stroke="#666666" points="288.5,-30 185.5,-30 185.5,0 288.5,0 288.5,-30"/>
<text text-anchor="start" x="193.5" y="-18" font-family="Helvetica,sans-Serif" font-size="10.00">hello_world::devices</text>
<text text-anchor="middle" x="237" y="-7" font-family="Helvetica,sans-Serif" font-size="10.00">::imu::DelayUs</text>
</a>
</g>
</g>
<!-- Node1&#45;&gt;Node6 -->
<g id="edge7_Node000001_Node000006" class="edge">
<title>Node1&#45;&gt;Node6</title>
<g id="a_edge7_Node000001_Node000006"><a xlink:title=" ">
<path fill="none" stroke="#63b8ff" d="M101.3,-68.64C121.11,-59.66 146.83,-48.31 170,-39 173.9,-37.43 177.94,-35.85 182.02,-34.29"/>
<polygon fill="#63b8ff" stroke="#63b8ff" points="183.05,-37.27 191.18,-30.47 180.58,-30.72 183.05,-37.27"/>
</a>
</g>
</g>
<!-- Node7 -->
<g id="Node000007" class="node">
<title>Node7</title>
<g id="a_Node000007"><a xlink:href="classhello__world_1_1devices_1_1imu_1_1_b_m_i088.html#ad236f84f69a0ef4e8befa96479bf5618" target="_top" xlink:title="获取加速度计数据">
<polygon fill="white" stroke="#666666" points="304,-78 170,-78 170,-48 304,-48 304,-78"/>
<text text-anchor="start" x="178" y="-66" font-family="Helvetica,sans-Serif" font-size="10.00">hello_world::devices</text>
<text text-anchor="middle" x="237" y="-55" font-family="Helvetica,sans-Serif" font-size="10.00">::imu::BMI088::getAccData</text>
</a>
</g>
</g>
<!-- Node1&#45;&gt;Node7 -->
<g id="edge8_Node000001_Node000007" class="edge">
<title>Node1&#45;&gt;Node7</title>
<g id="a_edge8_Node000001_Node000007"><a xlink:title=" ">
<path fill="none" stroke="#63b8ff" d="M134.4,-75.7C142.43,-74.7 150.69,-73.66 158.87,-72.64"/>
<polygon fill="#63b8ff" stroke="#63b8ff" points="159.05,-76.02 168.53,-71.31 158.18,-69.08 159.05,-76.02"/>
</a>
</g>
</g>
<!-- Node3 -->
<g id="Node000003" class="node">
<title>Node3</title>
<g id="a_Node000003"><a xlink:href="classhello__world_1_1devices_1_1imu_1_1_b_m_i088.html#abe2be687095fa7b54d31a3a69693b306" target="_top" xlink:title=" ">
<polygon fill="white" stroke="#666666" points="637,-145 519,-145 519,-115 637,-115 637,-145"/>
<text text-anchor="start" x="527" y="-133" font-family="Helvetica,sans-Serif" font-size="10.00">hello_world::devices</text>
<text text-anchor="middle" x="578" y="-122" font-family="Helvetica,sans-Serif" font-size="10.00">::imu::BMI088::accCsH</text>
</a>
</g>
</g>
<!-- Node2&#45;&gt;Node3 -->
<g id="edge2_Node000002_Node000003" class="edge">
<title>Node2&#45;&gt;Node3</title>
<g id="a_edge2_Node000002_Node000003"><a xlink:title=" ">
<path fill="none" stroke="#63b8ff" d="M472.82,-145.2C484.26,-143.53 496.32,-141.77 508,-140.07"/>
<polygon fill="#63b8ff" stroke="#63b8ff" points="508.22,-143.43 517.61,-138.52 507.21,-136.5 508.22,-143.43"/>
</a>
</g>
</g>
<!-- Node4 -->
<g id="Node000004" class="node">
<title>Node4</title>
<g id="a_Node000004"><a xlink:href="classhello__world_1_1devices_1_1imu_1_1_b_m_i088.html#ad1ea4fa147f8bb2da18049c229404f65" target="_top" xlink:title=" ">
<polygon fill="white" stroke="#666666" points="636,-97 520,-97 520,-67 636,-67 636,-97"/>
<text text-anchor="start" x="528" y="-85" font-family="Helvetica,sans-Serif" font-size="10.00">hello_world::devices</text>
<text text-anchor="middle" x="578" y="-74" font-family="Helvetica,sans-Serif" font-size="10.00">::imu::BMI088::accCsL</text>
</a>
</g>
</g>
<!-- Node2&#45;&gt;Node4 -->
<g id="edge3_Node000002_Node000004" class="edge">
<title>Node2&#45;&gt;Node4</title>
<g id="a_edge3_Node000002_Node000004"><a xlink:title=" ">
<path fill="none" stroke="#63b8ff" d="M463.22,-138.52C469.98,-135.94 476.74,-133.09 483,-130 500.25,-121.5 502.03,-115.05 519,-106 521.57,-104.63 524.24,-103.28 526.95,-101.97"/>
<polygon fill="#63b8ff" stroke="#63b8ff" points="528.28,-104.75 535.9,-97.39 525.35,-98.39 528.28,-104.75"/>
</a>
</g>
</g>
<!-- Node5&#45;&gt;Node3 -->
<g id="edge5_Node000005_Node000003" class="edge">
<title>Node5&#45;&gt;Node3</title>
<g id="a_edge5_Node000005_Node000003"><a xlink:title=" ">
<path fill="none" stroke="#63b8ff" d="M472.82,-114.8C484.26,-116.47 496.32,-118.23 508,-119.93"/>
<polygon fill="#63b8ff" stroke="#63b8ff" points="507.21,-123.5 517.61,-121.48 508.22,-116.57 507.21,-123.5"/>
</a>
</g>
</g>
<!-- Node5&#45;&gt;Node4 -->
<g id="edge6_Node000005_Node000004" class="edge">
<title>Node5&#45;&gt;Node4</title>
<g id="a_edge6_Node000005_Node000004"><a xlink:title=" ">
<path fill="none" stroke="#63b8ff" d="M472.82,-97.2C484.54,-95.49 496.91,-93.68 508.86,-91.94"/>
<polygon fill="#63b8ff" stroke="#63b8ff" points="509.31,-95.27 518.7,-90.36 508.3,-88.34 509.31,-95.27"/>
</a>
</g>
</g>
<!-- Node8 -->
<g id="Node000008" class="node">
<title>Node8</title>
<g id="a_Node000008"><a xlink:href="classhello__world_1_1devices_1_1imu_1_1_b_m_i088.html#ad8bdc7c9eee4bb3c35ee8467df9e49ae" target="_top" xlink:title="加速度计多寄存器数据读取">
<polygon fill="white" stroke="#666666" points="483,-73 340,-73 340,-43 483,-43 483,-73"/>
<text text-anchor="start" x="348" y="-61" font-family="Helvetica,sans-Serif" font-size="10.00">hello_world::devices</text>
<text text-anchor="middle" x="411.5" y="-50" font-family="Helvetica,sans-Serif" font-size="10.00">::imu::BMI088::accMultiRead</text>
</a>
</g>
</g>
<!-- Node7&#45;&gt;Node8 -->
<g id="edge9_Node000007_Node000008" class="edge">
<title>Node7&#45;&gt;Node8</title>
<g id="a_edge9_Node000007_Node000008"><a xlink:title=" ">
<path fill="none" stroke="#63b8ff" d="M304.2,-61.08C312.26,-60.85 320.57,-60.61 328.82,-60.37"/>
<polygon fill="#63b8ff" stroke="#63b8ff" points="328.71,-63.84 338.61,-60.05 328.51,-56.85 328.71,-63.84"/>
</a>
</g>
</g>
<!-- Node8&#45;&gt;Node3 -->
<g id="edge10_Node000008_Node000003" class="edge">
<title>Node8&#45;&gt;Node3</title>
<g id="a_edge10_Node000008_Node000003"><a xlink:title=" ">
<path fill="none" stroke="#63b8ff" d="M463.22,-73.48C469.98,-76.06 476.74,-78.91 483,-82 500.25,-90.5 502.03,-96.95 519,-106 521.57,-107.37 524.24,-108.72 526.95,-110.03"/>
<polygon fill="#63b8ff" stroke="#63b8ff" points="525.35,-113.61 535.9,-114.61 528.28,-107.25 525.35,-113.61"/>
</a>
</g>
</g>
<!-- Node8&#45;&gt;Node4 -->
<g id="edge11_Node000008_Node000004" class="edge">
<title>Node8&#45;&gt;Node4</title>
<g id="a_edge11_Node000008_Node000004"><a xlink:title=" ">
<path fill="none" stroke="#63b8ff" d="M483.22,-68.32C491.79,-69.57 500.53,-70.84 509.06,-72.09"/>
<polygon fill="#63b8ff" stroke="#63b8ff" points="508.33,-75.66 518.73,-73.64 509.34,-68.74 508.33,-75.66"/>
</a>
</g>
</g>
</g>
</svg>
