<?xml version="1.0" encoding="UTF-8" standalone="no"?>
<!DOCTYPE svg PUBLIC "-//W3C//DTD SVG 1.1//EN"
 "http://www.w3.org/Graphics/SVG/1.1/DTD/svg11.dtd">
<!-- Generated by graphviz version 8.0.3 (20230416.2022)
 -->
<!-- Title: hello_world::devices::motor::A1::decode Pages: 1 -->
<svg width="456pt" height="155pt"
 viewBox="0.00 0.00 456.00 155.00" xmlns="http://www.w3.org/2000/svg" xmlns:xlink="http://www.w3.org/1999/xlink">
<g id="graph0" class="graph" transform="scale(1 1) rotate(0) translate(4 151)">
<title>hello_world::devices::motor::A1::decode</title>
<!-- Node1 -->
<g id="Node000001" class="node">
<title>Node1</title>
<g id="a_Node000001"><a xlink:title="将电调发回的 CAN 报文进行解包">
<polygon fill="#999999" stroke="#666666" points="103,-78 0,-78 0,-48 103,-48 103,-78"/>
<text text-anchor="start" x="8" y="-66" font-family="Helvetica,sans-Serif" font-size="10.00">hello_world::devices</text>
<text text-anchor="middle" x="51.5" y="-55" font-family="Helvetica,sans-Serif" font-size="10.00">::motor::A1::decode</text>
</a>
</g>
</g>
<!-- Node2 -->
<g id="Node000002" class="node">
<title>Node2</title>
<g id="a_Node000002"><a xlink:href="classhello__world_1_1devices_1_1motor_1_1_motor.html#a21092858a98af5688b398d57cd203592" target="_top" xlink:title="将角度转换到指定范围">
<polygon fill="white" stroke="#666666" points="270,-126 139,-126 139,-96 270,-96 270,-126"/>
<text text-anchor="start" x="147" y="-114" font-family="Helvetica,sans-Serif" font-size="10.00">hello_world::devices</text>
<text text-anchor="middle" x="204.5" y="-103" font-family="Helvetica,sans-Serif" font-size="10.00">::motor::Motor::normAngle</text>
</a>
</g>
</g>
<!-- Node1&#45;&gt;Node2 -->
<g id="edge1_Node000001_Node000002" class="edge">
<title>Node1&#45;&gt;Node2</title>
<g id="a_edge1_Node000001_Node000002"><a xlink:title=" ">
<path fill="none" stroke="#63b8ff" d="M101.11,-78.45C114.98,-82.86 130.25,-87.72 144.67,-92.3"/>
<polygon fill="#63b8ff" stroke="#63b8ff" points="143.39,-95.88 153.98,-95.58 145.51,-89.21 143.39,-95.88"/>
</a>
</g>
</g>
<!-- Node5 -->
<g id="Node000005" class="node">
<title>Node5</title>
<g id="a_Node000005"><a xlink:href="classhello__world_1_1devices_1_1motor_1_1_motor.html#a1e4467d9f449b9c6c7d6886fffa89667" target="_top" xlink:title="将原始报文内容转换为转子电流">
<polygon fill="white" stroke="#666666" points="265,-78 144,-78 144,-48 265,-48 265,-78"/>
<text text-anchor="start" x="152" y="-66" font-family="Helvetica,sans-Serif" font-size="10.00">hello_world::devices</text>
<text text-anchor="middle" x="204.5" y="-55" font-family="Helvetica,sans-Serif" font-size="10.00">::motor::Motor::raw2curr</text>
</a>
</g>
</g>
<!-- Node1&#45;&gt;Node5 -->
<g id="edge4_Node000001_Node000005" class="edge">
<title>Node1&#45;&gt;Node5</title>
<g id="a_edge4_Node000001_Node000005"><a xlink:title=" ">
<path fill="none" stroke="#63b8ff" d="M103.2,-63C112.7,-63 122.79,-63 132.77,-63"/>
<polygon fill="#63b8ff" stroke="#63b8ff" points="132.52,-66.5 142.52,-63 132.52,-59.5 132.52,-66.5"/>
</a>
</g>
</g>
<!-- Node6 -->
<g id="Node000006" class="node">
<title>Node6</title>
<g id="a_Node000006"><a xlink:href="classhello__world_1_1devices_1_1motor_1_1_motor.html#af74a8c4ad7c0067a2d71afd711639366" target="_top" xlink:title="将原始报文内容转换为输出端力矩">
<polygon fill="white" stroke="#666666" points="265,-30 144,-30 144,0 265,0 265,-30"/>
<text text-anchor="start" x="152" y="-18" font-family="Helvetica,sans-Serif" font-size="10.00">hello_world::devices</text>
<text text-anchor="middle" x="204.5" y="-7" font-family="Helvetica,sans-Serif" font-size="10.00">::motor::Motor::raw2torq</text>
</a>
</g>
</g>
<!-- Node1&#45;&gt;Node6 -->
<g id="edge5_Node000001_Node000006" class="edge">
<title>Node1&#45;&gt;Node6</title>
<g id="a_edge5_Node000001_Node000006"><a xlink:title=" ">
<path fill="none" stroke="#63b8ff" d="M101.11,-47.55C114.98,-43.14 130.25,-38.28 144.67,-33.7"/>
<polygon fill="#63b8ff" stroke="#63b8ff" points="145.51,-36.79 153.98,-30.42 143.39,-30.12 145.51,-36.79"/>
</a>
</g>
</g>
<!-- Node3 -->
<g id="Node000003" class="node">
<title>Node3</title>
<g id="a_Node000003"><a xlink:href="classhello__world_1_1devices_1_1motor_1_1_motor.html#acad1e1f1792ab8cb6265b1d5195737f6" target="_top" xlink:title=" ">
<polygon fill="white" stroke="#666666" points="430.5,-147 323.5,-147 323.5,-117 430.5,-117 430.5,-147"/>
<text text-anchor="start" x="331.5" y="-135" font-family="Helvetica,sans-Serif" font-size="10.00">hello_world::devices</text>
<text text-anchor="middle" x="377" y="-124" font-family="Helvetica,sans-Serif" font-size="10.00">::motor::Motor::angle</text>
</a>
</g>
</g>
<!-- Node2&#45;&gt;Node3 -->
<g id="edge2_Node000002_Node000003" class="edge">
<title>Node2&#45;&gt;Node3</title>
<g id="a_edge2_Node000002_Node000003"><a xlink:title=" ">
<path fill="none" stroke="#63b8ff" d="M270.45,-119C284.18,-120.69 298.67,-122.48 312.36,-124.16"/>
<polygon fill="#63b8ff" stroke="#63b8ff" points="311.78,-127.74 322.13,-125.49 312.64,-120.79 311.78,-127.74"/>
</a>
</g>
</g>
<!-- Node4 -->
<g id="Node000004" class="node">
<title>Node4</title>
<g id="a_Node000004"><a xlink:href="namespacehello__world.html#a71f5ddbc81f1fa181ecefaf0b1f51fa8" target="_top" xlink:title="将周期性数据归一化到指定周期区间">
<polygon fill="white" stroke="#666666" points="448,-98.5 306,-98.5 306,-79.5 448,-79.5 448,-98.5"/>
<text text-anchor="middle" x="377" y="-86.5" font-family="Helvetica,sans-Serif" font-size="10.00">hello_world::NormPeriodData</text>
</a>
</g>
</g>
<!-- Node2&#45;&gt;Node4 -->
<g id="edge3_Node000002_Node000004" class="edge">
<title>Node2&#45;&gt;Node4</title>
<g id="a_edge3_Node000002_Node000004"><a xlink:title=" ">
<path fill="none" stroke="#63b8ff" d="M270.45,-102.62C278.43,-101.59 286.66,-100.53 294.85,-99.47"/>
<polygon fill="#63b8ff" stroke="#63b8ff" points="295.08,-102.84 304.55,-98.09 294.19,-95.9 295.08,-102.84"/>
</a>
</g>
</g>
</g>
</svg>
