<?xml version="1.0" encoding="UTF-8" standalone="no"?>
<!DOCTYPE svg PUBLIC "-//W3C//DTD SVG 1.1//EN"
 "http://www.w3.org/Graphics/SVG/1.1/DTD/svg11.dtd">
<!-- Generated by graphviz version 8.0.3 (20230416.2022)
 -->
<!-- Title: hello_world::devices::imu::BMI088::gyroWrite Pages: 1 -->
<svg width="290pt" height="86pt"
 viewBox="0.00 0.00 290.00 86.00" xmlns="http://www.w3.org/2000/svg" xmlns:xlink="http://www.w3.org/1999/xlink">
<g id="graph0" class="graph" transform="scale(1 1) rotate(0) translate(4 82)">
<title>hello_world::devices::imu::BMI088::gyroWrite</title>
<!-- Node1 -->
<g id="Node000001" class="node">
<title>Node1</title>
<g id="a_Node000001"><a xlink:title="向陀螺仪寄存器写入数据">
<polygon fill="#999999" stroke="#666666" points="125,-54 0,-54 0,-24 125,-24 125,-54"/>
<text text-anchor="start" x="8" y="-42" font-family="Helvetica,sans-Serif" font-size="10.00">hello_world::devices</text>
<text text-anchor="middle" x="62.5" y="-31" font-family="Helvetica,sans-Serif" font-size="10.00">::imu::BMI088::gyroWrite</text>
</a>
</g>
</g>
<!-- Node2 -->
<g id="Node000002" class="node">
<title>Node2</title>
<g id="a_Node000002"><a xlink:href="classhello__world_1_1devices_1_1imu_1_1_b_m_i088.html#a54cd103bad13c06059088197dabd6acc" target="_top" xlink:title=" ">
<polygon fill="white" stroke="#666666" points="282,-78 161,-78 161,-48 282,-48 282,-78"/>
<text text-anchor="start" x="169" y="-66" font-family="Helvetica,sans-Serif" font-size="10.00">hello_world::devices</text>
<text text-anchor="middle" x="221.5" y="-55" font-family="Helvetica,sans-Serif" font-size="10.00">::imu::BMI088::gyroCsH</text>
</a>
</g>
</g>
<!-- Node1&#45;&gt;Node2 -->
<g id="edge1_Node000001_Node000002" class="edge">
<title>Node1&#45;&gt;Node2</title>
<g id="a_edge1_Node000001_Node000002"><a xlink:title=" ">
<path fill="none" stroke="#63b8ff" d="M125.1,-48.42C133.22,-49.66 141.6,-50.94 149.86,-52.2"/>
<polygon fill="#63b8ff" stroke="#63b8ff" points="149.21,-55.8 159.62,-53.85 150.26,-48.88 149.21,-55.8"/>
</a>
</g>
</g>
<!-- Node3 -->
<g id="Node000003" class="node">
<title>Node3</title>
<g id="a_Node000003"><a xlink:href="classhello__world_1_1devices_1_1imu_1_1_b_m_i088.html#ac7e428dbf85a72f9b9689a78e7e73f02" target="_top" xlink:title=" ">
<polygon fill="white" stroke="#666666" points="281,-30 162,-30 162,0 281,0 281,-30"/>
<text text-anchor="start" x="170" y="-18" font-family="Helvetica,sans-Serif" font-size="10.00">hello_world::devices</text>
<text text-anchor="middle" x="221.5" y="-7" font-family="Helvetica,sans-Serif" font-size="10.00">::imu::BMI088::gyroCsL</text>
</a>
</g>
</g>
<!-- Node1&#45;&gt;Node3 -->
<g id="edge2_Node000001_Node000003" class="edge">
<title>Node1&#45;&gt;Node3</title>
<g id="a_edge2_Node000001_Node000003"><a xlink:title=" ">
<path fill="none" stroke="#63b8ff" d="M125.1,-29.58C133.56,-28.29 142.29,-26.96 150.88,-25.64"/>
<polygon fill="#63b8ff" stroke="#63b8ff" points="151.29,-28.97 160.64,-24 150.23,-22.05 151.29,-28.97"/>
</a>
</g>
</g>
</g>
</svg>
