<?xml version="1.0" encoding="UTF-8" standalone="no"?>
<!DOCTYPE svg PUBLIC "-//W3C//DTD SVG 1.1//EN"
 "http://www.w3.org/Graphics/SVG/1.1/DTD/svg11.dtd">
<!-- Generated by graphviz version 8.0.3 (20230416.2022)
 -->
<!-- Title: hello_world::devices::motor::M2006 Pages: 1 -->
<svg width="252pt" height="249pt"
 viewBox="0.00 0.00 252.00 249.00" xmlns="http://www.w3.org/2000/svg" xmlns:xlink="http://www.w3.org/1999/xlink">
<g id="graph0" class="graph" transform="scale(1 1) rotate(0) translate(4 245)">
<title>hello_world::devices::motor::M2006</title>
<!-- Node1 -->
<g id="Node000001" class="node">
<title>Node1</title>
<g id="a_Node000001"><a xlink:title=" ">
<polygon fill="#999999" stroke="#666666" points="125.5,-30 22.5,-30 22.5,0 125.5,0 125.5,-30"/>
<text text-anchor="start" x="30.5" y="-18" font-family="Helvetica,sans-Serif" font-size="10.00">hello_world::devices</text>
<text text-anchor="middle" x="74" y="-7" font-family="Helvetica,sans-Serif" font-size="10.00">::motor::M2006</text>
</a>
</g>
</g>
<!-- Node2 -->
<g id="Node000002" class="node">
<title>Node2</title>
<g id="a_Node000002"><a xlink:href="classhello__world_1_1devices_1_1motor_1_1_motor.html" target="_top" xlink:title=" ">
<polygon fill="white" stroke="#666666" points="125.5,-97 22.5,-97 22.5,-67 125.5,-67 125.5,-97"/>
<text text-anchor="start" x="30.5" y="-85" font-family="Helvetica,sans-Serif" font-size="10.00">hello_world::devices</text>
<text text-anchor="middle" x="74" y="-74" font-family="Helvetica,sans-Serif" font-size="10.00">::motor::Motor</text>
</a>
</g>
</g>
<!-- Node2&#45;&gt;Node1 -->
<g id="edge1_Node000001_Node000002" class="edge">
<title>Node2&#45;&gt;Node1</title>
<g id="a_edge1_Node000001_Node000002"><a xlink:title=" ">
<path fill="none" stroke="#63b8ff" d="M74,-55.58C74,-47.02 74,-37.78 74,-30.39"/>
<polygon fill="#63b8ff" stroke="#63b8ff" points="70.5,-55.57 74,-65.57 77.5,-55.57 70.5,-55.57"/>
</a>
</g>
</g>
<!-- Node3 -->
<g id="Node000003" class="node">
<title>Node3</title>
<g id="a_Node000003"><a xlink:href="classhello__world_1_1_mem_mang.html" target="_top" xlink:title=" ">
<polygon fill="white" stroke="#666666" points="116,-168.5 0,-168.5 0,-149.5 116,-149.5 116,-168.5"/>
<text text-anchor="middle" x="58" y="-156.5" font-family="Helvetica,sans-Serif" font-size="10.00">hello_world::MemMang</text>
</a>
</g>
</g>
<!-- Node3&#45;&gt;Node2 -->
<g id="edge2_Node000002_Node000003" class="edge">
<title>Node3&#45;&gt;Node2</title>
<g id="a_edge2_Node000002_Node000003"><a xlink:title=" ">
<path fill="none" stroke="#63b8ff" d="M62.15,-138.54C64.91,-125.63 68.46,-108.96 70.96,-97.27"/>
<polygon fill="#63b8ff" stroke="#63b8ff" points="58.56,-137.59 59.9,-148.1 65.41,-139.05 58.56,-137.59"/>
</a>
</g>
</g>
<!-- Node4 -->
<g id="Node000004" class="node">
<title>Node4</title>
<g id="a_Node000004"><a xlink:href="structhello__world_1_1devices_1_1motor_1_1_motor_info.html" target="_top" xlink:title=" ">
<polygon fill="white" stroke="#666666" points="237.5,-174 134.5,-174 134.5,-144 237.5,-144 237.5,-174"/>
<text text-anchor="start" x="142.5" y="-162" font-family="Helvetica,sans-Serif" font-size="10.00">hello_world::devices</text>
<text text-anchor="middle" x="186" y="-151" font-family="Helvetica,sans-Serif" font-size="10.00">::motor::MotorInfo</text>
</a>
</g>
</g>
<!-- Node4&#45;&gt;Node2 -->
<g id="edge3_Node000002_Node000004" class="edge">
<title>Node4&#45;&gt;Node2</title>
<g id="a_edge3_Node000002_Node000004"><a xlink:title=" ">
<path fill="none" stroke="#9a32cd" stroke-dasharray="5,2" d="M155.27,-137.42C136.32,-124.73 112.48,-108.77 95.53,-97.42"/>
<polygon fill="#9a32cd" stroke="#9a32cd" points="153.15,-140.88 163.41,-143.54 157.04,-135.07 153.15,-140.88"/>
</a>
</g>
<text text-anchor="middle" x="163" y="-118" font-family="Helvetica,sans-Serif" font-size="10.00" fill="grey"> motor_info_</text>
</g>
<!-- Node5 -->
<g id="Node000005" class="node">
<title>Node5</title>
<g id="a_Node000005"><a xlink:href="structhello__world_1_1devices_1_1motor_1_1_motor_base_info.html" target="_top" xlink:title=" ">
<polygon fill="white" stroke="#666666" points="244,-241 128,-241 128,-211 244,-211 244,-241"/>
<text text-anchor="start" x="136" y="-229" font-family="Helvetica,sans-Serif" font-size="10.00">hello_world::devices</text>
<text text-anchor="middle" x="186" y="-218" font-family="Helvetica,sans-Serif" font-size="10.00">::motor::MotorBaseInfo</text>
</a>
</g>
</g>
<!-- Node5&#45;&gt;Node4 -->
<g id="edge4_Node000004_Node000005" class="edge">
<title>Node5&#45;&gt;Node4</title>
<g id="a_edge4_Node000004_Node000005"><a xlink:title=" ">
<path fill="none" stroke="#63b8ff" d="M186,-199.58C186,-191.02 186,-181.78 186,-174.39"/>
<polygon fill="#63b8ff" stroke="#63b8ff" points="182.5,-199.57 186,-209.57 189.5,-199.57 182.5,-199.57"/>
</a>
</g>
</g>
</g>
</svg>
