<?xml version="1.0" encoding="UTF-8" standalone="no"?>
<!DOCTYPE svg PUBLIC "-//W3C//DTD SVG 1.1//EN"
 "http://www.w3.org/Graphics/SVG/1.1/DTD/svg11.dtd">
<!-- Generated by graphviz version 8.0.3 (20230416.2022)
 -->
<!-- Title: hello_world::devices::imu::BMI088::BMI088 Pages: 1 -->
<svg width="281pt" height="86pt"
 viewBox="0.00 0.00 281.00 86.00" xmlns="http://www.w3.org/2000/svg" xmlns:xlink="http://www.w3.org/1999/xlink">
<g id="graph0" class="graph" transform="scale(1 1) rotate(0) translate(4 82)">
<title>hello_world::devices::imu::BMI088::BMI088</title>
<!-- Node1 -->
<g id="Node000001" class="node">
<title>Node1</title>
<g id="a_Node000001"><a xlink:title="BMI088 初始化">
<polygon fill="#999999" stroke="#666666" points="116,-54 0,-54 0,-24 116,-24 116,-54"/>
<text text-anchor="start" x="8" y="-42" font-family="Helvetica,sans-Serif" font-size="10.00">hello_world::devices</text>
<text text-anchor="middle" x="58" y="-31" font-family="Helvetica,sans-Serif" font-size="10.00">::imu::BMI088::BMI088</text>
</a>
</g>
</g>
<!-- Node2 -->
<g id="Node000002" class="node">
<title>Node2</title>
<g id="a_Node000002"><a xlink:href="classhello__world_1_1devices_1_1imu_1_1_b_m_i088.html#abe2be687095fa7b54d31a3a69693b306" target="_top" xlink:title=" ">
<polygon fill="white" stroke="#666666" points="271.5,-78 153.5,-78 153.5,-48 271.5,-48 271.5,-78"/>
<text text-anchor="start" x="161.5" y="-66" font-family="Helvetica,sans-Serif" font-size="10.00">hello_world::devices</text>
<text text-anchor="middle" x="212.5" y="-55" font-family="Helvetica,sans-Serif" font-size="10.00">::imu::BMI088::accCsH</text>
</a>
</g>
</g>
<!-- Node1&#45;&gt;Node2 -->
<g id="edge1_Node000001_Node000002" class="edge">
<title>Node1&#45;&gt;Node2</title>
<g id="a_edge1_Node000001_Node000002"><a xlink:title=" ">
<path fill="none" stroke="#63b8ff" d="M116.22,-48C124.81,-49.36 133.75,-50.76 142.55,-52.15"/>
<polygon fill="#63b8ff" stroke="#63b8ff" points="141.78,-55.73 152.2,-53.82 142.86,-48.81 141.78,-55.73"/>
</a>
</g>
</g>
<!-- Node3 -->
<g id="Node000003" class="node">
<title>Node3</title>
<g id="a_Node000003"><a xlink:href="classhello__world_1_1devices_1_1imu_1_1_b_m_i088.html#a54cd103bad13c06059088197dabd6acc" target="_top" xlink:title=" ">
<polygon fill="white" stroke="#666666" points="273,-30 152,-30 152,0 273,0 273,-30"/>
<text text-anchor="start" x="160" y="-18" font-family="Helvetica,sans-Serif" font-size="10.00">hello_world::devices</text>
<text text-anchor="middle" x="212.5" y="-7" font-family="Helvetica,sans-Serif" font-size="10.00">::imu::BMI088::gyroCsH</text>
</a>
</g>
</g>
<!-- Node1&#45;&gt;Node3 -->
<g id="edge2_Node000001_Node000003" class="edge">
<title>Node1&#45;&gt;Node3</title>
<g id="a_edge2_Node000001_Node000003"><a xlink:title=" ">
<path fill="none" stroke="#63b8ff" d="M116.22,-30C124.27,-28.73 132.62,-27.41 140.89,-26.11"/>
<polygon fill="#63b8ff" stroke="#63b8ff" points="141.33,-29.43 150.67,-24.42 140.25,-22.51 141.33,-29.43"/>
</a>
</g>
</g>
</g>
</svg>
