<?xml version="1.0" encoding="UTF-8" standalone="no"?>
<!DOCTYPE svg PUBLIC "-//W3C//DTD SVG 1.1//EN"
 "http://www.w3.org/Graphics/SVG/1.1/DTD/svg11.dtd">
<!-- Generated by graphviz version 8.0.3 (20230416.2022)
 -->
<!-- Title: hello_world::devices::referee::RxPackageInterRadarWarning Pages: 1 -->
<svg width="545pt" height="134pt"
 viewBox="0.00 0.00 545.00 134.19" xmlns="http://www.w3.org/2000/svg" xmlns:xlink="http://www.w3.org/1999/xlink">
<g id="graph0" class="graph" transform="scale(1 1) rotate(0) translate(4 130.19)">
<title>hello_world::devices::referee::RxPackageInterRadarWarning</title>
<!-- Node1 -->
<g id="Node000001" class="node">
<title>Node1</title>
<g id="a_Node000001"><a xlink:title=" ">
<polygon fill="#999999" stroke="#666666" points="537,-110.69 385,-110.69 385,-69.69 537,-69.69 537,-110.69"/>
<text text-anchor="start" x="393" y="-98.69" font-family="Helvetica,sans-Serif" font-size="10.00">hello_world::devices</text>
<text text-anchor="start" x="393" y="-87.69" font-family="Helvetica,sans-Serif" font-size="10.00">::referee::RxPackageInterRadar</text>
<text text-anchor="middle" x="461" y="-76.69" font-family="Helvetica,sans-Serif" font-size="10.00">Warning</text>
</a>
</g>
</g>
<!-- Node2 -->
<g id="Node000002" class="node">
<title>Node2</title>
<g id="a_Node000002"><a xlink:href="classhello__world_1_1devices_1_1referee_1_1_rx_package.html" target="_top" xlink:title=" ">
<polygon fill="white" stroke="#666666" points="332.5,-110.69 217.5,-110.69 217.5,-69.69 332.5,-69.69 332.5,-110.69"/>
<text text-anchor="start" x="225.5" y="-98.69" font-family="Helvetica,sans-Serif" font-size="10.00">hello_world::devices</text>
<text text-anchor="start" x="225.5" y="-87.69" font-family="Helvetica,sans-Serif" font-size="10.00">::referee::RxPackage</text>
<text text-anchor="middle" x="275" y="-76.69" font-family="Helvetica,sans-Serif" font-size="10.00">&lt; InterRadarWarning &gt;</text>
</a>
</g>
</g>
<!-- Node2&#45;&gt;Node1 -->
<g id="edge1_Node000001_Node000002" class="edge">
<title>Node2&#45;&gt;Node1</title>
<g id="a_edge1_Node000001_Node000002"><a xlink:title=" ">
<path fill="none" stroke="#63b8ff" d="M343.92,-90.19C357.2,-90.19 371.2,-90.19 384.7,-90.19"/>
<polygon fill="#63b8ff" stroke="#63b8ff" points="343.96,-86.69 333.96,-90.19 343.96,-93.69 343.96,-86.69"/>
</a>
</g>
</g>
<!-- Node3 -->
<g id="Node000003" class="node">
<title>Node3</title>
<g id="a_Node000003"><a xlink:href="classhello__world_1_1devices_1_1referee_1_1_rx_package_info.html" target="_top" xlink:title=" ">
<polygon fill="white" stroke="#666666" points="123,-126.19 0,-126.19 0,-96.19 123,-96.19 123,-126.19"/>
<text text-anchor="start" x="8" y="-114.19" font-family="Helvetica,sans-Serif" font-size="10.00">hello_world::devices</text>
<text text-anchor="middle" x="61.5" y="-103.19" font-family="Helvetica,sans-Serif" font-size="10.00">::referee::RxPackageInfo</text>
</a>
</g>
</g>
<!-- Node3&#45;&gt;Node2 -->
<g id="edge2_Node000002_Node000003" class="edge">
<title>Node3&#45;&gt;Node2</title>
<g id="a_edge2_Node000002_Node000003"><a xlink:title=" ">
<path fill="none" stroke="#63b8ff" d="M133.99,-104.09C161.1,-101.4 191.58,-98.37 217.16,-95.83"/>
<polygon fill="#63b8ff" stroke="#63b8ff" points="134,-100.67 124.39,-105.14 134.69,-107.64 134,-100.67"/>
</a>
</g>
</g>
<!-- Node4 -->
<g id="Node000004" class="node">
<title>Node4</title>
<g id="a_Node000004"><a xlink:href="structhello__world_1_1devices_1_1referee_1_1_____r_e_f_e_r_e_e___p_a_c_k_e_d.html" target="_top" xlink:title=" ">
<polygon fill="white" stroke="#666666" points="119,-48.69 4,-48.69 4,-7.69 119,-7.69 119,-48.69"/>
<text text-anchor="start" x="12" y="-36.69" font-family="Helvetica,sans-Serif" font-size="10.00">hello_world::devices</text>
<text text-anchor="start" x="12" y="-25.69" font-family="Helvetica,sans-Serif" font-size="10.00">::referee::__REFEREE</text>
<text text-anchor="middle" x="61.5" y="-14.69" font-family="Helvetica,sans-Serif" font-size="10.00">_PACKED</text>
</a>
</g>
</g>
<!-- Node4&#45;&gt;Node2 -->
<g id="edge3_Node000002_Node000004" class="edge">
<title>Node4&#45;&gt;Node2</title>
<g id="a_edge3_Node000002_Node000004"><a xlink:title=" ">
<path fill="none" stroke="#9a32cd" stroke-dasharray="5,2" d="M129.64,-47.87C157.86,-56.14 190.32,-65.66 217.31,-73.57"/>
<polygon fill="#9a32cd" stroke="#9a32cd" points="131.04,-44.34 120.46,-44.89 129.07,-51.06 131.04,-44.34"/>
</a>
</g>
<text text-anchor="middle" x="162.5" y="-65.19" font-family="Helvetica,sans-Serif" font-size="10.00" fill="grey"> data_</text>
</g>
<!-- Node4&#45;&gt;Node4 -->
<g id="edge4_Node000004_Node000004" class="edge">
<title>Node4&#45;&gt;Node4</title>
<g id="a_edge4_Node000004_Node000004"><a xlink:title=" ">
<path fill="none" stroke="#9a32cd" stroke-dasharray="5,2" d="M44.88,-59.87C47.75,-63.98 53.29,-66.69 61.5,-66.69 75.7,-66.69 81.92,-58.57 80.14,-49.18"/>
<polygon fill="#9a32cd" stroke="#9a32cd" points="48.15,-59.36 42.86,-50.18 41.27,-60.66 48.15,-59.36"/>
</a>
</g>
<text text-anchor="middle" x="61.5" y="-69.69" font-family="Helvetica,sans-Serif" font-size="10.00" fill="grey"> interaction_graphic</text>
</g>
<!-- Node5 -->
<g id="Node000005" class="node">
<title>Node5</title>
<g id="a_Node000005"><a xlink:href="unionhello__world_1_1devices_1_1referee_1_1_main_ctrller_keyboard.html" target="_top" xlink:title=" ">
<polygon fill="white" stroke="#666666" points="348,-39.19 202,-39.19 202,-9.19 348,-9.19 348,-39.19"/>
<text text-anchor="start" x="210" y="-27.19" font-family="Helvetica,sans-Serif" font-size="10.00">hello_world::devices</text>
<text text-anchor="middle" x="275" y="-16.19" font-family="Helvetica,sans-Serif" font-size="10.00">::referee::MainCtrllerKeyboard</text>
</a>
</g>
</g>
<!-- Node4&#45;&gt;Node5 -->
<g id="edge6_Node000005_Node000004" class="edge">
<title>Node4&#45;&gt;Node5</title>
<g id="a_edge6_Node000005_Node000004"><a xlink:title=" ">
<path fill="none" stroke="#9a32cd" stroke-dasharray="5,2" d="M130.4,-26.91C153.19,-26.48 178.67,-25.99 201.78,-25.56"/>
<polygon fill="#9a32cd" stroke="#9a32cd" points="130.39,-23.42 120.46,-27.11 130.52,-30.42 130.39,-23.42"/>
</a>
</g>
<text text-anchor="middle" x="162.5" y="-30.19" font-family="Helvetica,sans-Serif" font-size="10.00" fill="grey"> key</text>
</g>
<!-- Node5&#45;&gt;Node4 -->
<g id="edge5_Node000004_Node000005" class="edge">
<title>Node5&#45;&gt;Node4</title>
<g id="a_edge5_Node000004_Node000005"><a xlink:title=" ">
<path fill="none" stroke="#9a32cd" stroke-dasharray="5,2" d="M215.9,-6.35C192.62,-1.35 165.54,1.77 141,-2.19 133.63,-3.38 126.01,-5.16 118.56,-7.24"/>
<polygon fill="#9a32cd" stroke="#9a32cd" points="214.78,-9.91 225.31,-8.76 216.36,-3.09 214.78,-9.91"/>
</a>
</g>
<text text-anchor="middle" x="162.5" y="-5.19" font-family="Helvetica,sans-Serif" font-size="10.00" fill="grey"> keyboard</text>
</g>
</g>
</svg>
