<?xml version="1.0" encoding="UTF-8" standalone="no"?>
<!DOCTYPE svg PUBLIC "-//W3C//DTD SVG 1.1//EN"
 "http://www.w3.org/Graphics/SVG/1.1/DTD/svg11.dtd">
<!-- Generated by graphviz version 8.0.3 (20230416.2022)
 -->
<!-- Title: hello_world::devices::motor::Motor::normAngle Pages: 1 -->
<svg width="317pt" height="76pt"
 viewBox="0.00 0.00 317.00 75.50" xmlns="http://www.w3.org/2000/svg" xmlns:xlink="http://www.w3.org/1999/xlink">
<g id="graph0" class="graph" transform="scale(1 1) rotate(0) translate(4 71.5)">
<title>hello_world::devices::motor::Motor::normAngle</title>
<!-- Node1 -->
<g id="Node000001" class="node">
<title>Node1</title>
<g id="a_Node000001"><a xlink:title="将角度转换到指定范围">
<polygon fill="#999999" stroke="#666666" points="131,-45.5 0,-45.5 0,-15.5 131,-15.5 131,-45.5"/>
<text text-anchor="start" x="8" y="-33.5" font-family="Helvetica,sans-Serif" font-size="10.00">hello_world::devices</text>
<text text-anchor="middle" x="65.5" y="-22.5" font-family="Helvetica,sans-Serif" font-size="10.00">::motor::Motor::normAngle</text>
</a>
</g>
</g>
<!-- Node2 -->
<g id="Node000002" class="node">
<title>Node2</title>
<g id="a_Node000002"><a xlink:href="classhello__world_1_1devices_1_1motor_1_1_motor.html#acad1e1f1792ab8cb6265b1d5195737f6" target="_top" xlink:title=" ">
<polygon fill="white" stroke="#666666" points="291.5,-67.5 184.5,-67.5 184.5,-37.5 291.5,-37.5 291.5,-67.5"/>
<text text-anchor="start" x="192.5" y="-55.5" font-family="Helvetica,sans-Serif" font-size="10.00">hello_world::devices</text>
<text text-anchor="middle" x="238" y="-44.5" font-family="Helvetica,sans-Serif" font-size="10.00">::motor::Motor::angle</text>
</a>
</g>
</g>
<!-- Node1&#45;&gt;Node2 -->
<g id="edge1_Node000001_Node000002" class="edge">
<title>Node1&#45;&gt;Node2</title>
<g id="a_edge1_Node000001_Node000002"><a xlink:title=" ">
<path fill="none" stroke="#63b8ff" d="M131.45,-38.88C145.18,-40.65 159.67,-42.52 173.36,-44.29"/>
<polygon fill="#63b8ff" stroke="#63b8ff" points="172.77,-47.87 183.13,-45.68 173.66,-40.93 172.77,-47.87"/>
</a>
</g>
</g>
<!-- Node3 -->
<g id="Node000003" class="node">
<title>Node3</title>
<g id="a_Node000003"><a xlink:href="namespacehello__world.html#a71f5ddbc81f1fa181ecefaf0b1f51fa8" target="_top" xlink:title="将周期性数据归一化到指定周期区间">
<polygon fill="white" stroke="#666666" points="309,-19 167,-19 167,0 309,0 309,-19"/>
<text text-anchor="middle" x="238" y="-7" font-family="Helvetica,sans-Serif" font-size="10.00">hello_world::NormPeriodData</text>
</a>
</g>
</g>
<!-- Node1&#45;&gt;Node3 -->
<g id="edge2_Node000001_Node000003" class="edge">
<title>Node1&#45;&gt;Node3</title>
<g id="a_edge2_Node000001_Node000003"><a xlink:title=" ">
<path fill="none" stroke="#63b8ff" d="M131.45,-22.5C139.43,-21.52 147.66,-20.5 155.85,-19.5"/>
<polygon fill="#63b8ff" stroke="#63b8ff" points="156.06,-22.87 165.55,-18.18 155.2,-15.93 156.06,-22.87"/>
</a>
</g>
</g>
</g>
</svg>
