<?xml version="1.0" encoding="UTF-8" standalone="no"?>
<!DOCTYPE svg PUBLIC "-//W3C//DTD SVG 1.1//EN"
 "http://www.w3.org/Graphics/SVG/1.1/DTD/svg11.dtd">
<!-- Generated by graphviz version 8.0.3 (20230416.2022)
 -->
<!-- Title: hello_world::algorithms::controller::pid::MultiNodesPid::MultiNodesPid Pages: 1 -->
<svg width="486pt" height="104pt"
 viewBox="0.00 0.00 486.00 104.00" xmlns="http://www.w3.org/2000/svg" xmlns:xlink="http://www.w3.org/1999/xlink">
<g id="graph0" class="graph" transform="scale(1 1) rotate(0) translate(4 100)">
<title>hello_world::algorithms::controller::pid::MultiNodesPid::MultiNodesPid</title>
<!-- Node1 -->
<g id="Node000001" class="node">
<title>Node1</title>
<g id="a_Node000001"><a xlink:title="构造函数，初始化 MultiNodesPid 对象，至少会存在一个 PID 控制器节点">
<polygon fill="#999999" stroke="#666666" points="136,-59.5 0,-59.5 0,-18.5 136,-18.5 136,-59.5"/>
<text text-anchor="start" x="8" y="-47.5" font-family="Helvetica,sans-Serif" font-size="10.00">hello_world::algorithms</text>
<text text-anchor="start" x="8" y="-36.5" font-family="Helvetica,sans-Serif" font-size="10.00">::controller::pid::MultiNodes</text>
<text text-anchor="middle" x="68" y="-25.5" font-family="Helvetica,sans-Serif" font-size="10.00">Pid::MultiNodesPid</text>
</a>
</g>
</g>
<!-- Node2 -->
<g id="Node000002" class="node">
<title>Node2</title>
<g id="a_Node000002"><a xlink:href="classhello__world_1_1algorithms_1_1controller_1_1pid_1_1_pid_list.html#a3b9df804e3d0bd9402c289727b00a25e" target="_top" xlink:title="向链表尾部添加一个新的 PidNode">
<polygon fill="white" stroke="#666666" points="316,-78 172,-78 172,-48 316,-48 316,-78"/>
<text text-anchor="start" x="180" y="-66" font-family="Helvetica,sans-Serif" font-size="10.00">hello_world::algorithms</text>
<text text-anchor="middle" x="244" y="-55" font-family="Helvetica,sans-Serif" font-size="10.00">::controller::pid::PidList::push</text>
</a>
</g>
</g>
<!-- Node1&#45;&gt;Node2 -->
<g id="edge1_Node000001_Node000002" class="edge">
<title>Node1&#45;&gt;Node2</title>
<g id="a_edge1_Node000001_Node000002"><a xlink:title=" ">
<path fill="none" stroke="#63b8ff" d="M136.27,-48.28C144.32,-49.39 152.6,-50.53 160.83,-51.67"/>
<polygon fill="#63b8ff" stroke="#63b8ff" points="160.2,-55.25 170.58,-53.15 161.16,-48.32 160.2,-55.25"/>
</a>
</g>
</g>
<!-- Node4 -->
<g id="Node000004" class="node">
<title>Node4</title>
<g id="a_Node000004"><a xlink:href="classhello__world_1_1algorithms_1_1controller_1_1pid_1_1_pid_list.html#a11a15045ece7e7259a71143875b2aa32" target="_top" xlink:title="获取链表的大小">
<polygon fill="white" stroke="#666666" points="314.5,-30 173.5,-30 173.5,0 314.5,0 314.5,-30"/>
<text text-anchor="start" x="181.5" y="-18" font-family="Helvetica,sans-Serif" font-size="10.00">hello_world::algorithms</text>
<text text-anchor="middle" x="244" y="-7" font-family="Helvetica,sans-Serif" font-size="10.00">::controller::pid::PidList::size</text>
</a>
</g>
</g>
<!-- Node1&#45;&gt;Node4 -->
<g id="edge4_Node000001_Node000004" class="edge">
<title>Node1&#45;&gt;Node4</title>
<g id="a_edge4_Node000001_Node000004"><a xlink:title=" ">
<path fill="none" stroke="#63b8ff" d="M136.27,-29.72C144.75,-28.55 153.48,-27.35 162.14,-26.15"/>
<polygon fill="#63b8ff" stroke="#63b8ff" points="162.6,-29.48 172.03,-24.65 161.64,-22.55 162.6,-29.48"/>
</a>
</g>
</g>
<!-- Node2&#45;&gt;Node2 -->
<g id="edge3_Node000002_Node000002" class="edge">
<title>Node2&#45;&gt;Node2</title>
<g id="a_edge3_Node000002_Node000002"><a xlink:title=" ">
<path fill="none" stroke="#63b8ff" d="M213.94,-78.28C207.26,-87.41 217.28,-96 244,-96 259.45,-96 269.31,-93.13 273.6,-88.94"/>
<polygon fill="#63b8ff" stroke="#63b8ff" points="277.12,-89.42 274.06,-79.28 270.13,-89.11 277.12,-89.42"/>
</a>
</g>
</g>
<!-- Node3 -->
<g id="Node000003" class="node">
<title>Node3</title>
<g id="a_Node000003"><a xlink:href="classhello__world_1_1algorithms_1_1controller_1_1pid_1_1_basic_pid.html#a7de4709eb73b91ffef6b5896dd45d8ed" target="_top" xlink:title="获取 PID 参数的常量引用">
<polygon fill="white" stroke="#666666" points="478,-83.5 352,-83.5 352,-42.5 478,-42.5 478,-83.5"/>
<text text-anchor="start" x="360" y="-71.5" font-family="Helvetica,sans-Serif" font-size="10.00">hello_world::algorithms</text>
<text text-anchor="start" x="360" y="-60.5" font-family="Helvetica,sans-Serif" font-size="10.00">::controller::pid::BasicPid</text>
<text text-anchor="middle" x="415" y="-49.5" font-family="Helvetica,sans-Serif" font-size="10.00">::params</text>
</a>
</g>
</g>
<!-- Node2&#45;&gt;Node3 -->
<g id="edge2_Node000002_Node000003" class="edge">
<title>Node2&#45;&gt;Node3</title>
<g id="a_edge2_Node000002_Node000003"><a xlink:title=" ">
<path fill="none" stroke="#63b8ff" d="M316.18,-63C324.31,-63 332.6,-63 340.75,-63"/>
<polygon fill="#63b8ff" stroke="#63b8ff" points="340.75,-66.5 350.75,-63 340.75,-59.5 340.75,-66.5"/>
</a>
</g>
</g>
</g>
</svg>
