<?xml version="1.0" encoding="UTF-8" standalone="no"?>
<!DOCTYPE svg PUBLIC "-//W3C//DTD SVG 1.1//EN"
 "http://www.w3.org/Graphics/SVG/1.1/DTD/svg11.dtd">
<!-- Generated by graphviz version 8.0.3 (20230416.2022)
 -->
<!-- Title: hello_world::algorithms::controller::pid::MultiNodesPid::parallel_calc Pages: 1 -->
<svg width="884pt" height="638pt"
 viewBox="0.00 0.00 884.00 638.00" xmlns="http://www.w3.org/2000/svg" xmlns:xlink="http://www.w3.org/1999/xlink">
<g id="graph0" class="graph" transform="scale(1 1) rotate(0) translate(4 634)">
<title>hello_world::algorithms::controller::pid::MultiNodesPid::parallel_calc</title>
<!-- Node1 -->
<g id="Node000001" class="node">
<title>Node1</title>
<g id="a_Node000001"><a xlink:title="计算并行 PID 控制器的输出">
<polygon fill="#999999" stroke="#666666" points="136,-246.5 0,-246.5 0,-205.5 136,-205.5 136,-246.5"/>
<text text-anchor="start" x="8" y="-234.5" font-family="Helvetica,sans-Serif" font-size="10.00">hello_world::algorithms</text>
<text text-anchor="start" x="8" y="-223.5" font-family="Helvetica,sans-Serif" font-size="10.00">::controller::pid::MultiNodes</text>
<text text-anchor="middle" x="68" y="-212.5" font-family="Helvetica,sans-Serif" font-size="10.00">Pid::parallel_calc</text>
</a>
</g>
</g>
<!-- Node2 -->
<g id="Node000002" class="node">
<title>Node2</title>
<g id="a_Node000002"><a xlink:href="classhello__world_1_1algorithms_1_1controller_1_1pid_1_1_pid_list.html#a3f374c443b6a07e0df4e800c253643c9" target="_top" xlink:title="获取链表的开始迭代器">
<polygon fill="white" stroke="#666666" points="305.5,-365.5 188.5,-365.5 188.5,-324.5 305.5,-324.5 305.5,-365.5"/>
<text text-anchor="start" x="196.5" y="-353.5" font-family="Helvetica,sans-Serif" font-size="10.00">hello_world::algorithms</text>
<text text-anchor="start" x="196.5" y="-342.5" font-family="Helvetica,sans-Serif" font-size="10.00">::controller::pid::PidList</text>
<text text-anchor="middle" x="247" y="-331.5" font-family="Helvetica,sans-Serif" font-size="10.00">::begin</text>
</a>
</g>
</g>
<!-- Node1&#45;&gt;Node2 -->
<g id="edge1_Node000001_Node000002" class="edge">
<title>Node1&#45;&gt;Node2</title>
<g id="a_edge1_Node000001_Node000002"><a xlink:title=" ">
<path fill="none" stroke="#63b8ff" d="M89.1,-246.95C108.78,-266.55 140.35,-295.64 172,-315 174.33,-316.42 176.74,-317.81 179.2,-319.15"/>
<polygon fill="#63b8ff" stroke="#63b8ff" points="177.4,-322.67 187.9,-324.09 180.58,-316.43 177.4,-322.67"/>
</a>
</g>
</g>
<!-- Node3 -->
<g id="Node000003" class="node">
<title>Node3</title>
<g id="a_Node000003"><a xlink:href="classhello__world_1_1algorithms_1_1controller_1_1pid_1_1_basic_pid.html#a2b8667e517f1999ec3fecffe9e6bd33d" target="_top" xlink:title="PID 控制器的计算函数">
<polygon fill="white" stroke="#666666" points="322,-306 172,-306 172,-276 322,-276 322,-306"/>
<text text-anchor="start" x="180" y="-294" font-family="Helvetica,sans-Serif" font-size="10.00">hello_world::algorithms</text>
<text text-anchor="middle" x="247" y="-283" font-family="Helvetica,sans-Serif" font-size="10.00">::controller::pid::BasicPid::calc</text>
</a>
</g>
</g>
<!-- Node1&#45;&gt;Node3 -->
<g id="edge2_Node000001_Node000003" class="edge">
<title>Node1&#45;&gt;Node3</title>
<g id="a_edge2_Node000001_Node000003"><a xlink:title=" ">
<path fill="none" stroke="#63b8ff" d="M125.98,-246.92C147.78,-254.93 172.51,-264.01 193.84,-271.84"/>
<polygon fill="#63b8ff" stroke="#63b8ff" points="192.41,-275.42 203.01,-275.58 194.83,-268.85 192.41,-275.42"/>
</a>
</g>
</g>
<!-- Node11 -->
<g id="Node000011" class="node">
<title>Node11</title>
<g id="a_Node000011"><a xlink:href="classhello__world_1_1algorithms_1_1controller_1_1pid_1_1_out_limit.html#a958ca6f80deb49af0d3c4d4bed32db42" target="_top" xlink:title=" ">
<polygon fill="white" stroke="#666666" points="524.5,-30 376.5,-30 376.5,0 524.5,0 524.5,-30"/>
<text text-anchor="start" x="384.5" y="-18" font-family="Helvetica,sans-Serif" font-size="10.00">hello_world::algorithms</text>
<text text-anchor="middle" x="450.5" y="-7" font-family="Helvetica,sans-Serif" font-size="10.00">::controller::pid::OutLimit::calc</text>
</a>
</g>
</g>
<!-- Node1&#45;&gt;Node11 -->
<g id="edge21_Node000001_Node000011" class="edge">
<title>Node1&#45;&gt;Node11</title>
<g id="a_edge21_Node000001_Node000011"><a xlink:title=" ">
<path fill="none" stroke="#63b8ff" d="M130.23,-246.95C186.56,-262 269.14,-272.78 322,-229 388.19,-174.17 299.37,-101.84 358,-39 360.66,-36.15 363.61,-33.63 366.77,-31.39"/>
<polygon fill="#63b8ff" stroke="#63b8ff" points="368.38,-33.91 375.21,-25.8 364.82,-27.89 368.38,-33.91"/>
</a>
</g>
</g>
<!-- Node21 -->
<g id="Node000021" class="node">
<title>Node21</title>
<g id="a_Node000021"><a xlink:href="classhello__world_1_1algorithms_1_1controller_1_1pid_1_1_pid_list.html#a25c937a246eff76147e6f2c0cf5a0d86" target="_top" xlink:title="获取链表的结束迭代器">
<polygon fill="white" stroke="#666666" points="316.5,-220 177.5,-220 177.5,-190 316.5,-190 316.5,-220"/>
<text text-anchor="start" x="185.5" y="-208" font-family="Helvetica,sans-Serif" font-size="10.00">hello_world::algorithms</text>
<text text-anchor="middle" x="247" y="-197" font-family="Helvetica,sans-Serif" font-size="10.00">::controller::pid::PidList::end</text>
</a>
</g>
</g>
<!-- Node1&#45;&gt;Node21 -->
<g id="edge22_Node000001_Node000021" class="edge">
<title>Node1&#45;&gt;Node21</title>
<g id="a_edge22_Node000001_Node000021"><a xlink:title=" ">
<path fill="none" stroke="#63b8ff" d="M136.42,-218C146.18,-216.84 156.3,-215.64 166.27,-214.46"/>
<polygon fill="#63b8ff" stroke="#63b8ff" points="166.49,-217.84 176,-213.19 165.66,-210.89 166.49,-217.84"/>
</a>
</g>
</g>
<!-- Node22 -->
<g id="Node000022" class="node">
<title>Node22</title>
<g id="a_Node000022"><a xlink:href="classhello__world_1_1algorithms_1_1controller_1_1pid_1_1_multi_nodes_pid.html#a9124ff9fabf43c21a73a294148697976" target="_top" xlink:title="获取 PID 控制器的输出">
<polygon fill="white" stroke="#666666" points="315,-171.5 179,-171.5 179,-130.5 315,-130.5 315,-171.5"/>
<text text-anchor="start" x="187" y="-159.5" font-family="Helvetica,sans-Serif" font-size="10.00">hello_world::algorithms</text>
<text text-anchor="start" x="187" y="-148.5" font-family="Helvetica,sans-Serif" font-size="10.00">::controller::pid::MultiNodes</text>
<text text-anchor="middle" x="247" y="-137.5" font-family="Helvetica,sans-Serif" font-size="10.00">Pid::out</text>
</a>
</g>
</g>
<!-- Node1&#45;&gt;Node22 -->
<g id="edge23_Node000001_Node000022" class="edge">
<title>Node1&#45;&gt;Node22</title>
<g id="a_edge23_Node000001_Node000022"><a xlink:title=" ">
<path fill="none" stroke="#63b8ff" d="M116.32,-205.01C133.77,-197.35 153.75,-188.69 172,-181 175.84,-179.38 179.8,-177.73 183.8,-176.07"/>
<polygon fill="#63b8ff" stroke="#63b8ff" points="184.86,-179.01 192.78,-171.97 182.2,-172.54 184.86,-179.01"/>
</a>
</g>
</g>
<!-- Node23 -->
<g id="Node000023" class="node">
<title>Node23</title>
<g id="a_Node000023"><a xlink:href="classhello__world_1_1algorithms_1_1controller_1_1pid_1_1_pid_list.html#a11a15045ece7e7259a71143875b2aa32" target="_top" xlink:title="获取链表的大小">
<polygon fill="white" stroke="#666666" points="317.5,-112 176.5,-112 176.5,-82 317.5,-82 317.5,-112"/>
<text text-anchor="start" x="184.5" y="-100" font-family="Helvetica,sans-Serif" font-size="10.00">hello_world::algorithms</text>
<text text-anchor="middle" x="247" y="-89" font-family="Helvetica,sans-Serif" font-size="10.00">::controller::pid::PidList::size</text>
</a>
</g>
</g>
<!-- Node1&#45;&gt;Node23 -->
<g id="edge24_Node000001_Node000023" class="edge">
<title>Node1&#45;&gt;Node23</title>
<g id="a_edge24_Node000001_Node000023"><a xlink:title=" ">
<path fill="none" stroke="#63b8ff" d="M84.64,-205.18C103.14,-181.88 136,-144.47 172,-122 174.93,-120.17 178.02,-118.45 181.19,-116.85"/>
<polygon fill="#63b8ff" stroke="#63b8ff" points="182.3,-119.73 189.93,-112.37 179.38,-113.37 182.3,-119.73"/>
</a>
</g>
</g>
<!-- Node4 -->
<g id="Node000004" class="node">
<title>Node4</title>
<g id="a_Node000004"><a xlink:href="classhello__world_1_1algorithms_1_1controller_1_1pid_1_1_diff_filter.html#a7bb924886f04baa6e1b9db604529f93a" target="_top" xlink:title="计算差分滤波器的输出值">
<polygon fill="white" stroke="#666666" points="523.5,-630 377.5,-630 377.5,-600 523.5,-600 523.5,-630"/>
<text text-anchor="start" x="385.5" y="-618" font-family="Helvetica,sans-Serif" font-size="10.00">hello_world::algorithms</text>
<text text-anchor="middle" x="450.5" y="-607" font-family="Helvetica,sans-Serif" font-size="10.00">::controller::pid::DiffFilter::calc</text>
</a>
</g>
</g>
<!-- Node3&#45;&gt;Node4 -->
<g id="edge3_Node000003_Node000004" class="edge">
<title>Node3&#45;&gt;Node4</title>
<g id="a_edge3_Node000003_Node000004"><a xlink:title=" ">
<path fill="none" stroke="#63b8ff" d="M311.16,-306.3C315.21,-309.02 318.9,-312.23 322,-316 400.23,-411.26 276.51,-498.51 358,-591 360.91,-594.3 364.21,-597.18 367.79,-599.67"/>
<polygon fill="#63b8ff" stroke="#63b8ff" points="365.8,-603.15 376.21,-605.14 369.32,-597.09 365.8,-603.15"/>
</a>
</g>
</g>
<!-- Node5 -->
<g id="Node000005" class="node">
<title>Node5</title>
<g id="a_Node000005"><a xlink:href="classhello__world_1_1algorithms_1_1controller_1_1pid_1_1_inte_separation.html#a882d032c53d0a62764140564737524ff" target="_top" xlink:title="计算积分分离优化后的输出值">
<polygon fill="white" stroke="#666666" points="537,-582 364,-582 364,-552 537,-552 537,-582"/>
<text text-anchor="start" x="372" y="-570" font-family="Helvetica,sans-Serif" font-size="10.00">hello_world::algorithms</text>
<text text-anchor="middle" x="450.5" y="-559" font-family="Helvetica,sans-Serif" font-size="10.00">::controller::pid::InteSeparation::calc</text>
</a>
</g>
</g>
<!-- Node3&#45;&gt;Node5 -->
<g id="edge4_Node000003_Node000005" class="edge">
<title>Node3&#45;&gt;Node5</title>
<g id="a_edge4_Node000003_Node000005"><a xlink:title=" ">
<path fill="none" stroke="#63b8ff" d="M311.04,-306.39C315.12,-309.09 318.85,-312.27 322,-316 387.9,-394.05 289.44,-467.28 358,-543 358.56,-543.62 359.13,-544.22 359.71,-544.8"/>
<polygon fill="#63b8ff" stroke="#63b8ff" points="357.04,-547.96 366.98,-551.64 361.5,-542.57 357.04,-547.96"/>
</a>
</g>
</g>
<!-- Node6 -->
<g id="Node000006" class="node">
<title>Node6</title>
<g id="a_Node000006"><a xlink:href="classhello__world_1_1algorithms_1_1controller_1_1pid_1_1_inte_changing_rate.html#a22842000f2832dba50540f0f6954244f" target="_top" xlink:title="计算比例系数">
<polygon fill="white" stroke="#666666" points="522,-533.5 379,-533.5 379,-492.5 522,-492.5 522,-533.5"/>
<text text-anchor="start" x="387" y="-521.5" font-family="Helvetica,sans-Serif" font-size="10.00">hello_world::algorithms</text>
<text text-anchor="start" x="387" y="-510.5" font-family="Helvetica,sans-Serif" font-size="10.00">::controller::pid::InteChanging</text>
<text text-anchor="middle" x="450.5" y="-499.5" font-family="Helvetica,sans-Serif" font-size="10.00">Rate::calc</text>
</a>
</g>
</g>
<!-- Node3&#45;&gt;Node6 -->
<g id="edge5_Node000003_Node000006" class="edge">
<title>Node3&#45;&gt;Node6</title>
<g id="a_edge5_Node000003_Node000006"><a xlink:title=" ">
<path fill="none" stroke="#63b8ff" d="M310.47,-306.37C314.74,-309.07 318.66,-312.26 322,-316 372.56,-372.65 307.19,-426.58 358,-483 361.45,-486.84 365.41,-490.18 369.69,-493.1"/>
<polygon fill="#63b8ff" stroke="#63b8ff" points="367.48,-496.46 377.87,-498.52 371.04,-490.42 367.48,-496.46"/>
</a>
</g>
</g>
<!-- Node7 -->
<g id="Node000007" class="node">
<title>Node7</title>
<g id="a_Node000007"><a xlink:href="classhello__world_1_1algorithms_1_1controller_1_1pid_1_1_dead_band.html#adff792034723f0cc61648e5c0696546c" target="_top" xlink:title="计算死区优化后的误差值">
<polygon fill="white" stroke="#666666" points="528.5,-474 372.5,-474 372.5,-444 528.5,-444 528.5,-474"/>
<text text-anchor="start" x="380.5" y="-462" font-family="Helvetica,sans-Serif" font-size="10.00">hello_world::algorithms</text>
<text text-anchor="middle" x="450.5" y="-451" font-family="Helvetica,sans-Serif" font-size="10.00">::controller::pid::DeadBand::calc</text>
</a>
</g>
</g>
<!-- Node3&#45;&gt;Node7 -->
<g id="edge6_Node000003_Node000007" class="edge">
<title>Node3&#45;&gt;Node7</title>
<g id="a_edge6_Node000003_Node000007"><a xlink:title=" ">
<path fill="none" stroke="#63b8ff" d="M309.79,-306.46C314.26,-309.14 318.42,-312.3 322,-316 360.44,-355.69 318.21,-396.66 358,-435 359.73,-436.67 361.56,-438.22 363.47,-439.67"/>
<polygon fill="#63b8ff" stroke="#63b8ff" points="361.05,-442.91 371.35,-445.38 364.83,-437.03 361.05,-442.91"/>
</a>
</g>
</g>
<!-- Node8 -->
<g id="Node000008" class="node">
<title>Node8</title>
<g id="a_Node000008"><a xlink:href="classhello__world_1_1algorithms_1_1controller_1_1pid_1_1_inte_trapezoidal.html#a8efa8ae3581ad2dcae6cbb86c2848213" target="_top" xlink:title="计算梯形积分优化后的积分误差值">
<polygon fill="white" stroke="#666666" points="538.5,-426 362.5,-426 362.5,-396 538.5,-396 538.5,-426"/>
<text text-anchor="start" x="370.5" y="-414" font-family="Helvetica,sans-Serif" font-size="10.00">hello_world::algorithms</text>
<text text-anchor="middle" x="450.5" y="-403" font-family="Helvetica,sans-Serif" font-size="10.00">::controller::pid::InteTrapezoidal::calc</text>
</a>
</g>
</g>
<!-- Node3&#45;&gt;Node8 -->
<g id="edge7_Node000003_Node000008" class="edge">
<title>Node3&#45;&gt;Node8</title>
<g id="a_edge7_Node000003_Node000008"><a xlink:title=" ">
<path fill="none" stroke="#63b8ff" d="M307.65,-306.39C312.81,-309.09 317.69,-312.27 322,-316 348.75,-339.16 330.47,-364.78 358,-387 359.28,-388.03 360.6,-389.02 361.95,-389.96"/>
<polygon fill="#63b8ff" stroke="#63b8ff" points="359.95,-393.45 370.32,-395.61 363.56,-387.45 359.95,-393.45"/>
</a>
</g>
</g>
<!-- Node9 -->
<g id="Node000009" class="node">
<title>Node9</title>
<g id="a_Node000009"><a xlink:href="classhello__world_1_1algorithms_1_1controller_1_1pid_1_1_inte_anti_windup.html#ae1314426af77e207b2a80bdd060b173f" target="_top" xlink:title="计算积分抗饱和优化后的输出值">
<polygon fill="white" stroke="#666666" points="539,-378 362,-378 362,-348 539,-348 539,-378"/>
<text text-anchor="start" x="370" y="-366" font-family="Helvetica,sans-Serif" font-size="10.00">hello_world::algorithms</text>
<text text-anchor="middle" x="450.5" y="-355" font-family="Helvetica,sans-Serif" font-size="10.00">::controller::pid::InteAntiWindup::calc</text>
</a>
</g>
</g>
<!-- Node3&#45;&gt;Node9 -->
<g id="edge8_Node000003_Node000009" class="edge">
<title>Node3&#45;&gt;Node9</title>
<g id="a_edge8_Node000003_Node000009"><a xlink:title=" ">
<path fill="none" stroke="#63b8ff" d="M299.2,-306.48C306.97,-309.35 314.79,-312.54 322,-316 339.12,-324.21 340.61,-331.39 358,-339 362.15,-340.81 366.46,-342.52 370.86,-344.11"/>
<polygon fill="#63b8ff" stroke="#63b8ff" points="369.64,-347.73 380.23,-347.63 371.89,-341.1 369.64,-347.73"/>
</a>
</g>
</g>
<!-- Node10 -->
<g id="Node000010" class="node">
<title>Node10</title>
<g id="a_Node000010"><a xlink:href="classhello__world_1_1algorithms_1_1controller_1_1pid_1_1_diff_previous.html#ac654422982d9475cf5c6f6c061cd2aeb" target="_top" xlink:title="计算微分先行优化后的输出值">
<polygon fill="white" stroke="#666666" points="531,-330 370,-330 370,-300 531,-300 531,-330"/>
<text text-anchor="start" x="378" y="-318" font-family="Helvetica,sans-Serif" font-size="10.00">hello_world::algorithms</text>
<text text-anchor="middle" x="450.5" y="-307" font-family="Helvetica,sans-Serif" font-size="10.00">::controller::pid::DiffPrevious::calc</text>
</a>
</g>
</g>
<!-- Node3&#45;&gt;Node10 -->
<g id="edge9_Node000003_Node000010" class="edge">
<title>Node3&#45;&gt;Node10</title>
<g id="a_edge9_Node000003_Node000010"><a xlink:title=" ">
<path fill="none" stroke="#63b8ff" d="M322.46,-299.87C334.34,-301.28 346.74,-302.76 358.94,-304.21"/>
<polygon fill="#63b8ff" stroke="#63b8ff" points="358.25,-307.78 368.6,-305.48 359.08,-300.82 358.25,-307.78"/>
</a>
</g>
</g>
<!-- Node3&#45;&gt;Node11 -->
<g id="edge10_Node000003_Node000011" class="edge">
<title>Node3&#45;&gt;Node11</title>
<g id="a_edge10_Node000003_Node000011"><a xlink:title=" ">
<path fill="none" stroke="#63b8ff" d="M305.86,-275.53C311.99,-271.92 317.58,-267.48 322,-262 385.02,-183.85 290.52,-113.33 358,-39 360.62,-36.12 363.54,-33.56 366.68,-31.3"/>
<polygon fill="#63b8ff" stroke="#63b8ff" points="368.28,-33.81 375.05,-25.66 364.68,-27.81 368.28,-33.81"/>
</a>
</g>
</g>
<!-- Node12 -->
<g id="Node000012" class="node">
<title>Node12</title>
<g id="a_Node000012"><a xlink:href="classhello__world_1_1algorithms_1_1controller_1_1pid_1_1_setpoint_ramping.html#a7833313869bfc6845232378f32019e29" target="_top" xlink:title="计算设定点斜坡优化后的输出值">
<polygon fill="white" stroke="#666666" points="543,-282 358,-282 358,-252 543,-252 543,-282"/>
<text text-anchor="start" x="366" y="-270" font-family="Helvetica,sans-Serif" font-size="10.00">hello_world::algorithms</text>
<text text-anchor="middle" x="450.5" y="-259" font-family="Helvetica,sans-Serif" font-size="10.00">::controller::pid::SetpointRamping::calc</text>
</a>
</g>
</g>
<!-- Node3&#45;&gt;Node12 -->
<g id="edge11_Node000003_Node000012" class="edge">
<title>Node3&#45;&gt;Node12</title>
<g id="a_edge11_Node000003_Node000012"><a xlink:title=" ">
<path fill="none" stroke="#63b8ff" d="M322.46,-282.13C330.41,-281.18 338.6,-280.21 346.8,-279.23"/>
<polygon fill="#63b8ff" stroke="#63b8ff" points="347.06,-282.61 356.57,-277.95 346.23,-275.66 347.06,-282.61"/>
</a>
</g>
</g>
<!-- Node13 -->
<g id="Node000013" class="node">
<title>Node13</title>
<g id="a_Node000013"><a xlink:href="namespacehello__world_1_1dsp_1_1tick.html#a97910b07255da1979f8ceafd8c6d2ea5" target="_top" xlink:title=" ">
<polygon fill="white" stroke="#666666" points="504.5,-234 396.5,-234 396.5,-204 504.5,-204 504.5,-234"/>
<text text-anchor="start" x="404.5" y="-222" font-family="Helvetica,sans-Serif" font-size="10.00">hello_world::dsp::tick</text>
<text text-anchor="middle" x="450.5" y="-211" font-family="Helvetica,sans-Serif" font-size="10.00">::GetTickMs</text>
</a>
</g>
</g>
<!-- Node3&#45;&gt;Node13 -->
<g id="edge12_Node000003_Node000013" class="edge">
<title>Node3&#45;&gt;Node13</title>
<g id="a_edge12_Node000003_Node000013"><a xlink:title=" ">
<path fill="none" stroke="#63b8ff" d="M289.83,-275.55C300.42,-271.38 311.71,-266.71 322,-262 338.45,-254.47 341.14,-249.56 358,-243 366.78,-239.58 376.23,-236.49 385.6,-233.75"/>
<polygon fill="#63b8ff" stroke="#63b8ff" points="386.42,-236.88 395.1,-230.81 384.53,-230.13 386.42,-236.88"/>
</a>
</g>
</g>
<!-- Node15 -->
<g id="Node000015" class="node">
<title>Node15</title>
<g id="a_Node000015"><a xlink:href="namespacehello__world_1_1algorithms_1_1controller_1_1pid.html#a54cdae6f66cea881673bd9e6b366324c" target="_top" xlink:title="处理角度跨越 0 度的情况">
<polygon fill="white" stroke="#666666" points="527,-186 374,-186 374,-156 527,-156 527,-186"/>
<text text-anchor="start" x="382" y="-174" font-family="Helvetica,sans-Serif" font-size="10.00">hello_world::algorithms</text>
<text text-anchor="middle" x="450.5" y="-163" font-family="Helvetica,sans-Serif" font-size="10.00">::controller::pid::HandleAcross0</text>
</a>
</g>
</g>
<!-- Node3&#45;&gt;Node15 -->
<g id="edge14_Node000003_Node000015" class="edge">
<title>Node3&#45;&gt;Node15</title>
<g id="a_edge14_Node000003_Node000015"><a xlink:title=" ">
<path fill="none" stroke="#63b8ff" d="M301.2,-275.51C308.7,-271.86 315.91,-267.4 322,-262 347.29,-239.57 331.44,-215.92 358,-195 359.94,-193.47 361.97,-192.04 364.06,-190.7"/>
<polygon fill="#63b8ff" stroke="#63b8ff" points="365.61,-193.29 372.66,-185.39 362.22,-187.17 365.61,-193.29"/>
</a>
</g>
</g>
<!-- Node19 -->
<g id="Node000019" class="node">
<title>Node19</title>
<g id="a_Node000019"><a xlink:href="classhello__world_1_1algorithms_1_1controller_1_1pid_1_1_basic_pid.html#a0dabd4a10fd3786e05c0fc5fa7bc9441" target="_top" xlink:title="获取 PID 控制器的输出">
<polygon fill="white" stroke="#666666" points="523.5,-138 377.5,-138 377.5,-108 523.5,-108 523.5,-138"/>
<text text-anchor="start" x="385.5" y="-126" font-family="Helvetica,sans-Serif" font-size="10.00">hello_world::algorithms</text>
<text text-anchor="middle" x="450.5" y="-115" font-family="Helvetica,sans-Serif" font-size="10.00">::controller::pid::BasicPid::out</text>
</a>
</g>
</g>
<!-- Node3&#45;&gt;Node19 -->
<g id="edge19_Node000003_Node000019" class="edge">
<title>Node3&#45;&gt;Node19</title>
<g id="a_edge19_Node000003_Node000019"><a xlink:title=" ">
<path fill="none" stroke="#63b8ff" d="M304.02,-275.51C310.69,-271.89 316.92,-267.45 322,-262 358.52,-222.83 319.25,-183.97 358,-147 360.97,-144.17 364.23,-141.66 367.69,-139.44"/>
<polygon fill="#63b8ff" stroke="#63b8ff" points="369.18,-142.07 376.29,-134.22 365.83,-135.93 369.18,-142.07"/>
</a>
</g>
</g>
<!-- Node20 -->
<g id="Node000020" class="node">
<title>Node20</title>
<g id="a_Node000020"><a xlink:href="classhello__world_1_1algorithms_1_1controller_1_1pid_1_1_basic_pid.html#ad74407cecfa9cfb473f199d142869f0f" target="_top" xlink:title="重置PID数据">
<polygon fill="white" stroke="#666666" points="513.5,-89.5 387.5,-89.5 387.5,-48.5 513.5,-48.5 513.5,-89.5"/>
<text text-anchor="start" x="395.5" y="-77.5" font-family="Helvetica,sans-Serif" font-size="10.00">hello_world::algorithms</text>
<text text-anchor="start" x="395.5" y="-66.5" font-family="Helvetica,sans-Serif" font-size="10.00">::controller::pid::BasicPid</text>
<text text-anchor="middle" x="450.5" y="-55.5" font-family="Helvetica,sans-Serif" font-size="10.00">::reset</text>
</a>
</g>
</g>
<!-- Node3&#45;&gt;Node20 -->
<g id="edge20_Node000003_Node000020" class="edge">
<title>Node3&#45;&gt;Node20</title>
<g id="a_edge20_Node000003_Node000020"><a xlink:title=" ">
<path fill="none" stroke="#63b8ff" d="M304.83,-275.7C311.29,-272.06 317.25,-267.56 322,-262 370.21,-205.61 308.21,-154 358,-99 363.52,-92.9 370.3,-88.04 377.65,-84.16"/>
<polygon fill="#63b8ff" stroke="#63b8ff" points="378.6,-87.12 386.22,-79.76 375.67,-80.76 378.6,-87.12"/>
</a>
</g>
</g>
<!-- Node14 -->
<g id="Node000014" class="node">
<title>Node14</title>
<g id="a_Node000014"><a xlink:href="namespacehello__world_1_1dsp_1_1tick.html#a0c9c44ee367dc665cc6f1a6d830da9ee" target="_top" xlink:title=" ">
<polygon fill="white" stroke="#666666" points="695.5,-234 587.5,-234 587.5,-204 695.5,-204 695.5,-234"/>
<text text-anchor="start" x="595.5" y="-222" font-family="Helvetica,sans-Serif" font-size="10.00">hello_world::dsp::tick</text>
<text text-anchor="middle" x="641.5" y="-211" font-family="Helvetica,sans-Serif" font-size="10.00">::GetTickUs</text>
</a>
</g>
</g>
<!-- Node13&#45;&gt;Node14 -->
<g id="edge13_Node000013_Node000014" class="edge">
<title>Node13&#45;&gt;Node14</title>
<g id="a_edge13_Node000013_Node000014"><a xlink:title=" ">
<path fill="none" stroke="#63b8ff" d="M504.9,-219C527.14,-219 553.15,-219 576.41,-219"/>
<polygon fill="#63b8ff" stroke="#63b8ff" points="576.23,-222.5 586.23,-219 576.23,-215.5 576.23,-222.5"/>
</a>
</g>
</g>
<!-- Node16 -->
<g id="Node000016" class="node">
<title>Node16</title>
<g id="a_Node000016"><a xlink:href="namespacehello__world.html#a7c9ce795c80c4bc674e5470984f99105" target="_top" xlink:title=" ">
<polygon fill="white" stroke="#666666" points="704,-186 579,-186 579,-156 704,-156 704,-186"/>
<text text-anchor="start" x="587" y="-174" font-family="Helvetica,sans-Serif" font-size="10.00">hello_world::HandleAngle</text>
<text text-anchor="middle" x="641.5" y="-163" font-family="Helvetica,sans-Serif" font-size="10.00">Cross0Deg</text>
</a>
</g>
</g>
<!-- Node15&#45;&gt;Node16 -->
<g id="edge15_Node000015_Node000016" class="edge">
<title>Node15&#45;&gt;Node16</title>
<g id="a_edge15_Node000015_Node000016"><a xlink:title=" ">
<path fill="none" stroke="#63b8ff" d="M527.28,-171C540.6,-171 554.44,-171 567.67,-171"/>
<polygon fill="#63b8ff" stroke="#63b8ff" points="567.63,-174.5 577.63,-171 567.63,-167.5 567.63,-174.5"/>
</a>
</g>
</g>
<!-- Node18 -->
<g id="Node000018" class="node">
<title>Node18</title>
<g id="a_Node000018"><a xlink:href="namespacehello__world.html#a7640febc082ad62910c63a8feac1c002" target="_top" xlink:title=" ">
<polygon fill="white" stroke="#666666" points="704,-138 579,-138 579,-108 704,-108 704,-138"/>
<text text-anchor="start" x="587" y="-126" font-family="Helvetica,sans-Serif" font-size="10.00">hello_world::HandleAngle</text>
<text text-anchor="middle" x="641.5" y="-115" font-family="Helvetica,sans-Serif" font-size="10.00">Cross0Rad</text>
</a>
</g>
</g>
<!-- Node15&#45;&gt;Node18 -->
<g id="edge17_Node000015_Node000018" class="edge">
<title>Node15&#45;&gt;Node18</title>
<g id="a_edge17_Node000015_Node000018"><a xlink:title=" ">
<path fill="none" stroke="#63b8ff" d="M512.34,-155.55C530.47,-150.94 550.49,-145.86 569.22,-141.1"/>
<polygon fill="#63b8ff" stroke="#63b8ff" points="569.94,-144.28 578.77,-138.42 568.22,-137.49 569.94,-144.28"/>
</a>
</g>
</g>
<!-- Node17 -->
<g id="Node000017" class="node">
<title>Node17</title>
<g id="a_Node000017"><a xlink:href="namespacehello__world.html#ab46e2d75fde6b8f67bd6d21c61508e47" target="_top" xlink:title="处理角度越过0值的情况，以半周期为基准">
<polygon fill="white" stroke="#666666" points="876,-156.5 740,-156.5 740,-137.5 876,-137.5 876,-156.5"/>
<text text-anchor="middle" x="808" y="-144.5" font-family="Helvetica,sans-Serif" font-size="10.00">hello_world::PeriodDataSub</text>
</a>
</g>
</g>
<!-- Node16&#45;&gt;Node17 -->
<g id="edge16_Node000016_Node000017" class="edge">
<title>Node16&#45;&gt;Node17</title>
<g id="a_edge16_Node000016_Node000017"><a xlink:title=" ">
<path fill="none" stroke="#63b8ff" d="M704.22,-162C712.27,-160.82 720.6,-159.61 728.88,-158.4"/>
<polygon fill="#63b8ff" stroke="#63b8ff" points="729.31,-161.73 738.7,-156.82 728.3,-154.8 729.31,-161.73"/>
</a>
</g>
</g>
<!-- Node18&#45;&gt;Node17 -->
<g id="edge18_Node000018_Node000017" class="edge">
<title>Node18&#45;&gt;Node17</title>
<g id="a_edge18_Node000018_Node000017"><a xlink:title=" ">
<path fill="none" stroke="#63b8ff" d="M704.22,-132C712.27,-133.18 720.6,-134.39 728.88,-135.6"/>
<polygon fill="#63b8ff" stroke="#63b8ff" points="728.3,-139.2 738.7,-137.18 729.31,-132.27 728.3,-139.2"/>
</a>
</g>
</g>
</g>
</svg>
