<?xml version="1.0" encoding="UTF-8" standalone="no"?>
<!DOCTYPE svg PUBLIC "-//W3C//DTD SVG 1.1//EN"
 "http://www.w3.org/Graphics/SVG/1.1/DTD/svg11.dtd">
<!-- Generated by graphviz version 8.0.3 (20230416.2022)
 -->
<!-- Title: hello_world::algorithms::controller::pid::MultiNodesPid Pages: 1 -->
<svg width="1287pt" height="486pt"
 viewBox="0.00 0.00 1287.00 486.00" xmlns="http://www.w3.org/2000/svg" xmlns:xlink="http://www.w3.org/1999/xlink">
<g id="graph0" class="graph" transform="scale(1 1) rotate(0) translate(4 482)">
<title>hello_world::algorithms::controller::pid::MultiNodesPid</title>
<!-- Node1 -->
<g id="Node000001" class="node">
<title>Node1</title>
<g id="a_Node000001"><a xlink:title="一个多节点 PID 控制器类，继承自 Controller 类，目前实现类型有串联或并联">
<polygon fill="#999999" stroke="#666666" points="1279,-378 1129,-378 1129,-348 1279,-348 1279,-378"/>
<text text-anchor="start" x="1137" y="-366" font-family="Helvetica,sans-Serif" font-size="10.00">hello_world::algorithms</text>
<text text-anchor="middle" x="1204" y="-355" font-family="Helvetica,sans-Serif" font-size="10.00">::controller::pid::MultiNodesPid</text>
</a>
</g>
</g>
<!-- Node2 -->
<g id="Node000002" class="node">
<title>Node2</title>
<g id="a_Node000002"><a xlink:href="classhello__world_1_1algorithms_1_1controller_1_1_controller.html" target="_top" xlink:title=" ">
<polygon fill="white" stroke="#666666" points="423,-378 307,-378 307,-348 423,-348 423,-378"/>
<text text-anchor="start" x="315" y="-366" font-family="Helvetica,sans-Serif" font-size="10.00">hello_world::algorithms</text>
<text text-anchor="middle" x="365" y="-355" font-family="Helvetica,sans-Serif" font-size="10.00">::controller::Controller</text>
</a>
</g>
</g>
<!-- Node2&#45;&gt;Node1 -->
<g id="edge1_Node000001_Node000002" class="edge">
<title>Node2&#45;&gt;Node1</title>
<g id="a_edge1_Node000001_Node000002"><a xlink:title=" ">
<path fill="none" stroke="#63b8ff" d="M434.27,-363C477.24,-363 533.86,-363 584,-363 584,-363 584,-363 995.5,-363 1039.63,-363 1089.04,-363 1128.57,-363"/>
<polygon fill="#63b8ff" stroke="#63b8ff" points="434.37,-359.5 424.37,-363 434.37,-366.5 434.37,-359.5"/>
</a>
</g>
</g>
<!-- Node6 -->
<g id="Node000006" class="node">
<title>Node6</title>
<g id="a_Node000006"><a xlink:href="classhello__world_1_1algorithms_1_1controller_1_1pid_1_1_basic_pid.html" target="_top" xlink:title="基础 PID 控制器类，继承自Controller类">
<polygon fill="white" stroke="#666666" points="648,-331 522,-331 522,-301 648,-301 648,-331"/>
<text text-anchor="start" x="530" y="-319" font-family="Helvetica,sans-Serif" font-size="10.00">hello_world::algorithms</text>
<text text-anchor="middle" x="585" y="-308" font-family="Helvetica,sans-Serif" font-size="10.00">::controller::pid::BasicPid</text>
</a>
</g>
</g>
<!-- Node2&#45;&gt;Node6 -->
<g id="edge8_Node000006_Node000002" class="edge">
<title>Node2&#45;&gt;Node6</title>
<g id="a_edge8_Node000006_Node000002"><a xlink:title=" ">
<path fill="none" stroke="#63b8ff" d="M433.81,-348.38C461.9,-342.32 494.27,-335.35 521.75,-329.42"/>
<polygon fill="#63b8ff" stroke="#63b8ff" points="433.31,-345.12 424.28,-350.65 434.79,-351.97 433.31,-345.12"/>
</a>
</g>
</g>
<!-- Node3 -->
<g id="Node000003" class="node">
<title>Node3</title>
<g id="a_Node000003"><a xlink:href="classhello__world_1_1_mem_mang.html" target="_top" xlink:title=" ">
<polygon fill="white" stroke="#666666" points="140,-452.5 24,-452.5 24,-433.5 140,-433.5 140,-452.5"/>
<text text-anchor="middle" x="82" y="-440.5" font-family="Helvetica,sans-Serif" font-size="10.00">hello_world::MemMang</text>
</a>
</g>
</g>
<!-- Node3&#45;&gt;Node2 -->
<g id="edge2_Node000002_Node000003" class="edge">
<title>Node3&#45;&gt;Node2</title>
<g id="a_edge2_Node000002_Node000003"><a xlink:title=" ">
<path fill="none" stroke="#63b8ff" d="M147.05,-430.83C182.7,-423.44 227.7,-413.11 267,-401 287.74,-394.61 310.35,-385.86 328.52,-378.37"/>
<polygon fill="#63b8ff" stroke="#63b8ff" points="146.39,-427.59 137.3,-433.02 147.79,-434.45 146.39,-427.59"/>
</a>
</g>
</g>
<!-- Node4 -->
<g id="Node000004" class="node">
<title>Node4</title>
<g id="a_Node000004"><a xlink:href="classhello__world_1_1algorithms_1_1controller_1_1pid_1_1_pid_list.html" target="_top" xlink:title="一个用于存储 PidNode 的链表类，用于 Ozone 监视">
<polygon fill="white" stroke="#666666" points="1053,-421 936,-421 936,-391 1053,-391 1053,-421"/>
<text text-anchor="start" x="944" y="-409" font-family="Helvetica,sans-Serif" font-size="10.00">hello_world::algorithms</text>
<text text-anchor="middle" x="994.5" y="-398" font-family="Helvetica,sans-Serif" font-size="10.00">::controller::pid::PidList</text>
</a>
</g>
</g>
<!-- Node3&#45;&gt;Node4 -->
<g id="edge4_Node000004_Node000003" class="edge">
<title>Node3&#45;&gt;Node4</title>
<g id="a_edge4_Node000004_Node000003"><a xlink:title=" ">
<path fill="none" stroke="#63b8ff" d="M143.34,-454.91C200.06,-465.05 287.45,-478 364,-478 364,-478 364,-478 793,-478 859.39,-478 931.25,-442.6 968.27,-421.45"/>
<polygon fill="#63b8ff" stroke="#63b8ff" points="144.23,-451.33 133.77,-452.98 142.98,-458.22 144.23,-451.33"/>
</a>
</g>
</g>
<!-- Node5 -->
<g id="Node000005" class="node">
<title>Node5</title>
<g id="a_Node000005"><a xlink:href="classhello__world_1_1algorithms_1_1controller_1_1pid_1_1_pid_node.html" target="_top" xlink:title="PID节点类，用于实现PID链表">
<polygon fill="white" stroke="#666666" points="854,-421 730,-421 730,-391 854,-391 854,-421"/>
<text text-anchor="start" x="738" y="-409" font-family="Helvetica,sans-Serif" font-size="10.00">hello_world::algorithms</text>
<text text-anchor="middle" x="792" y="-398" font-family="Helvetica,sans-Serif" font-size="10.00">::controller::pid::PidNode</text>
</a>
</g>
</g>
<!-- Node3&#45;&gt;Node5 -->
<g id="edge6_Node000005_Node000003" class="edge">
<title>Node3&#45;&gt;Node5</title>
<g id="a_edge6_Node000005_Node000003"><a xlink:title=" ">
<path fill="none" stroke="#63b8ff" d="M151.13,-439.44C288.73,-432.25 597.84,-416.09 729.61,-409.21"/>
<polygon fill="#63b8ff" stroke="#63b8ff" points="151.14,-435.99 141.34,-440 151.51,-442.98 151.14,-435.99"/>
</a>
</g>
</g>
<!-- Node4&#45;&gt;Node1 -->
<g id="edge3_Node000001_Node000004" class="edge">
<title>Node4&#45;&gt;Node1</title>
<g id="a_edge3_Node000001_Node000004"><a xlink:title=" ">
<path fill="none" stroke="#9a32cd" stroke-dasharray="5,2" d="M1063.95,-391.82C1084.73,-387.51 1107.66,-382.76 1128.8,-378.38"/>
<polygon fill="#9a32cd" stroke="#9a32cd" points="1063.38,-388.57 1054.3,-394.02 1064.8,-395.42 1063.38,-388.57"/>
</a>
</g>
<text text-anchor="middle" x="1091" y="-392" font-family="Helvetica,sans-Serif" font-size="10.00" fill="grey"> pid_list_</text>
</g>
<!-- Node5&#45;&gt;Node4 -->
<g id="edge5_Node000004_Node000005" class="edge">
<title>Node5&#45;&gt;Node4</title>
<g id="a_edge5_Node000004_Node000005"><a xlink:title=" ">
<path fill="none" stroke="#9a32cd" stroke-dasharray="5,2" d="M865.08,-406C888.28,-406 913.68,-406 935.71,-406"/>
<polygon fill="#9a32cd" stroke="#9a32cd" points="865.25,-402.5 855.25,-406 865.25,-409.5 865.25,-402.5"/>
</a>
</g>
<text text-anchor="middle" x="895" y="-420" font-family="Helvetica,sans-Serif" font-size="10.00" fill="grey"> head_ptr_</text>
<text text-anchor="middle" x="895" y="-409" font-family="Helvetica,sans-Serif" font-size="10.00" fill="grey">tail_ptr_</text>
</g>
<!-- Node5&#45;&gt;Node5 -->
<g id="edge20_Node000005_Node000005" class="edge">
<title>Node5&#45;&gt;Node5</title>
<g id="a_edge20_Node000005_Node000005"><a xlink:title=" ">
<path fill="none" stroke="#9a32cd" stroke-dasharray="5,2" d="M774.17,-431.94C776.75,-436.13 782.7,-439 792,-439 808.09,-439 814.13,-430.41 810.11,-421.28"/>
<polygon fill="#9a32cd" stroke="#9a32cd" points="777.65,-432.18 773.89,-422.28 770.66,-432.36 777.65,-432.18"/>
</a>
</g>
<text text-anchor="middle" x="792" y="-442" font-family="Helvetica,sans-Serif" font-size="10.00" fill="grey"> next_ptr_</text>
</g>
<!-- Node6&#45;&gt;Node5 -->
<g id="edge7_Node000005_Node000006" class="edge">
<title>Node6&#45;&gt;Node5</title>
<g id="a_edge7_Node000005_Node000006"><a xlink:title=" ">
<path fill="none" stroke="#9a32cd" stroke-dasharray="5,2" d="M630.92,-335.72C668.5,-352.22 721.34,-375.42 755.88,-390.58"/>
<polygon fill="#9a32cd" stroke="#9a32cd" points="632.8,-332.29 622.24,-331.47 629.99,-338.7 632.8,-332.29"/>
</a>
</g>
<text text-anchor="middle" x="689" y="-372" font-family="Helvetica,sans-Serif" font-size="10.00" fill="grey"> obj_</text>
</g>
<!-- Node7 -->
<g id="Node000007" class="node">
<title>Node7</title>
<g id="a_Node000007"><a xlink:href="structhello__world_1_1algorithms_1_1controller_1_1pid_1_1_basic_pid_params.html" target="_top" xlink:title="定义了基础 PID 的参数">
<polygon fill="white" stroke="#666666" points="445,-240 285,-240 285,-210 445,-210 445,-240"/>
<text text-anchor="start" x="293" y="-228" font-family="Helvetica,sans-Serif" font-size="10.00">hello_world::algorithms</text>
<text text-anchor="middle" x="365" y="-217" font-family="Helvetica,sans-Serif" font-size="10.00">::controller::pid::BasicPidParams</text>
</a>
</g>
</g>
<!-- Node7&#45;&gt;Node6 -->
<g id="edge9_Node000006_Node000007" class="edge">
<title>Node7&#45;&gt;Node6</title>
<g id="a_edge9_Node000006_Node000007"><a xlink:title=" ">
<path fill="none" stroke="#9a32cd" stroke-dasharray="5,2" d="M413.07,-244.65C453.27,-261.43 510.28,-285.23 547.2,-300.64"/>
<polygon fill="#9a32cd" stroke="#9a32cd" points="414.56,-241.06 403.98,-240.44 411.86,-247.52 414.56,-241.06"/>
</a>
</g>
<text text-anchor="middle" x="483.5" y="-285" font-family="Helvetica,sans-Serif" font-size="10.00" fill="grey"> params_</text>
</g>
<!-- Node8 -->
<g id="Node000008" class="node">
<title>Node8</title>
<g id="a_Node000008"><a xlink:href="classhello__world_1_1algorithms_1_1controller_1_1pid_1_1_out_limit.html" target="_top" xlink:title=" ">
<polygon fill="white" stroke="#666666" points="144,-30 20,-30 20,0 144,0 144,-30"/>
<text text-anchor="start" x="28" y="-18" font-family="Helvetica,sans-Serif" font-size="10.00">hello_world::algorithms</text>
<text text-anchor="middle" x="82" y="-7" font-family="Helvetica,sans-Serif" font-size="10.00">::controller::pid::OutLimit</text>
</a>
</g>
</g>
<!-- Node8&#45;&gt;Node1 -->
<g id="edge21_Node000001_Node000008" class="edge">
<title>Node8&#45;&gt;Node1</title>
<g id="a_edge21_Node000001_Node000008"><a xlink:title=" ">
<path fill="none" stroke="#9a32cd" stroke-dasharray="5,2" d="M155.06,-14.21C211.82,-13.65 292.96,-13 364,-13 364,-13 364,-13 995.5,-13 1153.38,-13 1193.75,-279.77 1201.45,-347.51"/>
<polygon fill="#9a32cd" stroke="#9a32cd" points="155.36,-10.71 145.39,-14.31 155.43,-17.71 155.36,-10.71"/>
</a>
</g>
<text text-anchor="middle" x="689" y="-16" font-family="Helvetica,sans-Serif" font-size="10.00" fill="grey"> out_limit_</text>
</g>
<!-- Node8&#45;&gt;Node7 -->
<g id="edge10_Node000007_Node000008" class="edge">
<title>Node8&#45;&gt;Node7</title>
<g id="a_edge10_Node000007_Node000008"><a xlink:title=" ">
<path fill="none" stroke="#9a32cd" stroke-dasharray="5,2" d="M154.93,-26.4C191.39,-35 234.68,-49.81 267,-75 314.69,-112.18 346.01,-179.75 358.23,-209.84"/>
<polygon fill="#9a32cd" stroke="#9a32cd" points="155.87,-22.8 145.34,-24.03 154.34,-29.63 155.87,-22.8"/>
</a>
</g>
<text text-anchor="middle" x="224.5" y="-78" font-family="Helvetica,sans-Serif" font-size="10.00" fill="grey"> out_limit</text>
</g>
<!-- Node9 -->
<g id="Node000009" class="node">
<title>Node9</title>
<g id="a_Node000009"><a xlink:href="classhello__world_1_1algorithms_1_1controller_1_1pid_1_1_inte_trapezoidal.html" target="_top" xlink:title="梯形积分优化类">
<polygon fill="white" stroke="#666666" points="158,-175 6,-175 6,-145 158,-145 158,-175"/>
<text text-anchor="start" x="14" y="-163" font-family="Helvetica,sans-Serif" font-size="10.00">hello_world::algorithms</text>
<text text-anchor="middle" x="82" y="-152" font-family="Helvetica,sans-Serif" font-size="10.00">::controller::pid::InteTrapezoidal</text>
</a>
</g>
</g>
<!-- Node9&#45;&gt;Node7 -->
<g id="edge11_Node000007_Node000009" class="edge">
<title>Node9&#45;&gt;Node7</title>
<g id="a_edge11_Node000007_Node000009"><a xlink:title=" ">
<path fill="none" stroke="#9a32cd" stroke-dasharray="5,2" d="M167.45,-177.65C198.78,-184.39 234.57,-192.3 267,-200 279.44,-202.95 292.73,-206.27 305.36,-209.5"/>
<polygon fill="#9a32cd" stroke="#9a32cd" points="168.52,-174.09 158.01,-175.42 167.05,-180.93 168.52,-174.09"/>
</a>
</g>
<text text-anchor="middle" x="224.5" y="-203" font-family="Helvetica,sans-Serif" font-size="10.00" fill="grey"> inte_trapezoidal</text>
</g>
<!-- Node10 -->
<g id="Node000010" class="node">
<title>Node10</title>
<g id="a_Node000010"><a xlink:href="classhello__world_1_1algorithms_1_1controller_1_1pid_1_1_inte_anti_windup.html" target="_top" xlink:title="积分抗饱和优化类">
<polygon fill="white" stroke="#666666" points="158.5,-127 5.5,-127 5.5,-97 158.5,-97 158.5,-127"/>
<text text-anchor="start" x="13.5" y="-115" font-family="Helvetica,sans-Serif" font-size="10.00">hello_world::algorithms</text>
<text text-anchor="middle" x="82" y="-104" font-family="Helvetica,sans-Serif" font-size="10.00">::controller::pid::InteAntiWindup</text>
</a>
</g>
</g>
<!-- Node10&#45;&gt;Node7 -->
<g id="edge12_Node000007_Node000010" class="edge">
<title>Node10&#45;&gt;Node7</title>
<g id="a_edge12_Node000007_Node000010"><a xlink:title=" ">
<path fill="none" stroke="#9a32cd" stroke-dasharray="5,2" d="M145.68,-130.54C151.87,-132.38 158.06,-134.23 164,-136 209.81,-149.68 223.26,-147.7 267,-167 293.93,-178.88 322.6,-196.75 341.73,-209.52"/>
<polygon fill="#9a32cd" stroke="#9a32cd" points="146.88,-126.95 136.3,-127.46 144.89,-133.66 146.88,-126.95"/>
</a>
</g>
<text text-anchor="middle" x="224.5" y="-170" font-family="Helvetica,sans-Serif" font-size="10.00" fill="grey"> inte_anti_windup</text>
</g>
<!-- Node11 -->
<g id="Node000011" class="node">
<title>Node11</title>
<g id="a_Node000011"><a xlink:href="classhello__world_1_1algorithms_1_1controller_1_1pid_1_1_inte_changing_rate.html" target="_top" xlink:title="控制器参数类">
<polygon fill="white" stroke="#666666" points="164,-79 0,-79 0,-49 164,-49 164,-79"/>
<text text-anchor="start" x="8" y="-67" font-family="Helvetica,sans-Serif" font-size="10.00">hello_world::algorithms</text>
<text text-anchor="middle" x="82" y="-56" font-family="Helvetica,sans-Serif" font-size="10.00">::controller::pid::InteChangingRate</text>
</a>
</g>
</g>
<!-- Node11&#45;&gt;Node7 -->
<g id="edge13_Node000007_Node000011" class="edge">
<title>Node11&#45;&gt;Node7</title>
<g id="a_edge13_Node000007_Node000011"><a xlink:title=" ">
<path fill="none" stroke="#9a32cd" stroke-dasharray="5,2" d="M163.79,-82.32C197.43,-92.26 235.83,-106.74 267,-127 302.73,-150.22 335.67,-188.53 352.42,-209.72"/>
<polygon fill="#9a32cd" stroke="#9a32cd" points="165.09,-78.77 154.52,-79.39 163.17,-85.5 165.09,-78.77"/>
</a>
</g>
<text text-anchor="middle" x="224.5" y="-130" font-family="Helvetica,sans-Serif" font-size="10.00" fill="grey"> inte_changing_rate</text>
</g>
<!-- Node12 -->
<g id="Node000012" class="node">
<title>Node12</title>
<g id="a_Node000012"><a xlink:href="classhello__world_1_1algorithms_1_1controller_1_1pid_1_1_inte_separation.html" target="_top" xlink:title="积分分离优化类">
<polygon fill="white" stroke="#666666" points="156.5,-415 7.5,-415 7.5,-385 156.5,-385 156.5,-415"/>
<text text-anchor="start" x="15.5" y="-403" font-family="Helvetica,sans-Serif" font-size="10.00">hello_world::algorithms</text>
<text text-anchor="middle" x="82" y="-392" font-family="Helvetica,sans-Serif" font-size="10.00">::controller::pid::InteSeparation</text>
</a>
</g>
</g>
<!-- Node12&#45;&gt;Node7 -->
<g id="edge14_Node000007_Node000012" class="edge">
<title>Node12&#45;&gt;Node7</title>
<g id="a_edge14_Node000007_Node000012"><a xlink:title=" ">
<path fill="none" stroke="#9a32cd" stroke-dasharray="5,2" d="M167.4,-388.01C202.21,-379.14 240.52,-363.75 267,-337 283.32,-320.51 271.43,-306.82 285,-288 299.16,-268.37 321.01,-251.59 338.15,-240.3"/>
<polygon fill="#9a32cd" stroke="#9a32cd" points="166.64,-384.83 157.73,-390.55 168.27,-391.64 166.64,-384.83"/>
</a>
</g>
<text text-anchor="middle" x="224.5" y="-385" font-family="Helvetica,sans-Serif" font-size="10.00" fill="grey"> inte_separation</text>
</g>
<!-- Node13 -->
<g id="Node000013" class="node">
<title>Node13</title>
<g id="a_Node000013"><a xlink:href="classhello__world_1_1algorithms_1_1controller_1_1pid_1_1_diff_filter.html" target="_top" xlink:title="用于实现差分滤波器功能">
<polygon fill="white" stroke="#666666" points="143,-367 21,-367 21,-337 143,-337 143,-367"/>
<text text-anchor="start" x="29" y="-355" font-family="Helvetica,sans-Serif" font-size="10.00">hello_world::algorithms</text>
<text text-anchor="middle" x="82" y="-344" font-family="Helvetica,sans-Serif" font-size="10.00">::controller::pid::DiffFilter</text>
</a>
</g>
</g>
<!-- Node13&#45;&gt;Node7 -->
<g id="edge15_Node000007_Node000013" class="edge">
<title>Node13&#45;&gt;Node7</title>
<g id="a_edge15_Node000007_Node000013"><a xlink:title=" ">
<path fill="none" stroke="#9a32cd" stroke-dasharray="5,2" d="M145.68,-333.46C151.87,-331.62 158.06,-329.77 164,-328 209.81,-314.32 224.28,-318.46 267,-297 297.74,-281.56 328.9,-256.36 347.33,-240.23"/>
<polygon fill="#9a32cd" stroke="#9a32cd" points="144.89,-330.34 136.3,-336.54 146.88,-337.05 144.89,-330.34"/>
</a>
</g>
<text text-anchor="middle" x="224.5" y="-325" font-family="Helvetica,sans-Serif" font-size="10.00" fill="grey"> diff_filter</text>
</g>
<!-- Node14 -->
<g id="Node000014" class="node">
<title>Node14</title>
<g id="a_Node000014"><a xlink:href="classhello__world_1_1algorithms_1_1controller_1_1pid_1_1_diff_previous.html" target="_top" xlink:title="微分先行优化类">
<polygon fill="white" stroke="#666666" points="150.5,-319 13.5,-319 13.5,-289 150.5,-289 150.5,-319"/>
<text text-anchor="start" x="21.5" y="-307" font-family="Helvetica,sans-Serif" font-size="10.00">hello_world::algorithms</text>
<text text-anchor="middle" x="82" y="-296" font-family="Helvetica,sans-Serif" font-size="10.00">::controller::pid::DiffPrevious</text>
</a>
</g>
</g>
<!-- Node14&#45;&gt;Node7 -->
<g id="edge16_Node000007_Node000014" class="edge">
<title>Node14&#45;&gt;Node7</title>
<g id="a_edge16_Node000007_Node000014"><a xlink:title=" ">
<path fill="none" stroke="#9a32cd" stroke-dasharray="5,2" d="M161.24,-287.32C194.12,-279.79 232.64,-270.27 267,-260 286.04,-254.31 306.8,-246.97 324.22,-240.49"/>
<polygon fill="#9a32cd" stroke="#9a32cd" points="160.75,-284.07 151.77,-289.69 162.3,-290.89 160.75,-284.07"/>
</a>
</g>
<text text-anchor="middle" x="224.5" y="-285" font-family="Helvetica,sans-Serif" font-size="10.00" fill="grey"> diff_previous</text>
</g>
<!-- Node15 -->
<g id="Node000015" class="node">
<title>Node15</title>
<g id="a_Node000015"><a xlink:href="classhello__world_1_1algorithms_1_1controller_1_1pid_1_1_dead_band.html" target="_top" xlink:title="死区优化类">
<polygon fill="white" stroke="#666666" points="148,-271 16,-271 16,-241 148,-241 148,-271"/>
<text text-anchor="start" x="24" y="-259" font-family="Helvetica,sans-Serif" font-size="10.00">hello_world::algorithms</text>
<text text-anchor="middle" x="82" y="-248" font-family="Helvetica,sans-Serif" font-size="10.00">::controller::pid::DeadBand</text>
</a>
</g>
</g>
<!-- Node15&#45;&gt;Node7 -->
<g id="edge17_Node000007_Node000015" class="edge">
<title>Node15&#45;&gt;Node7</title>
<g id="a_edge17_Node000007_Node000015"><a xlink:title=" ">
<path fill="none" stroke="#9a32cd" stroke-dasharray="5,2" d="M158.92,-247.62C197.85,-243.33 245.24,-238.1 284.65,-233.75"/>
<polygon fill="#9a32cd" stroke="#9a32cd" points="158.73,-244.23 149.17,-248.81 159.5,-251.19 158.73,-244.23"/>
</a>
</g>
<text text-anchor="middle" x="224.5" y="-248" font-family="Helvetica,sans-Serif" font-size="10.00" fill="grey"> dead_band</text>
</g>
<!-- Node16 -->
<g id="Node000016" class="node">
<title>Node16</title>
<g id="a_Node000016"><a xlink:href="classhello__world_1_1algorithms_1_1controller_1_1pid_1_1_setpoint_ramping.html" target="_top" xlink:title="设定点斜坡优化类">
<polygon fill="white" stroke="#666666" points="162.5,-223 1.5,-223 1.5,-193 162.5,-193 162.5,-223"/>
<text text-anchor="start" x="9.5" y="-211" font-family="Helvetica,sans-Serif" font-size="10.00">hello_world::algorithms</text>
<text text-anchor="middle" x="82" y="-200" font-family="Helvetica,sans-Serif" font-size="10.00">::controller::pid::SetpointRamping</text>
</a>
</g>
</g>
<!-- Node16&#45;&gt;Node7 -->
<g id="edge18_Node000007_Node000016" class="edge">
<title>Node16&#45;&gt;Node7</title>
<g id="a_edge18_Node000007_Node000016"><a xlink:title=" ">
<path fill="none" stroke="#9a32cd" stroke-dasharray="5,2" d="M173.68,-213.49C209.37,-215.65 249.99,-218.1 284.52,-220.19"/>
<polygon fill="#9a32cd" stroke="#9a32cd" points="173.96,-209.94 163.77,-212.83 173.54,-216.92 173.96,-209.94"/>
</a>
</g>
<text text-anchor="middle" x="224.5" y="-223" font-family="Helvetica,sans-Serif" font-size="10.00" fill="grey"> setpointe_ramping</text>
</g>
<!-- Node17 -->
<g id="Node000017" class="node">
<title>Node17</title>
<g id="a_Node000017"><a xlink:href="structhello__world_1_1algorithms_1_1controller_1_1pid_1_1_basic_pid_datas.html" target="_top" xlink:title="基础 PID 的数据结构体">
<polygon fill="white" stroke="#666666" points="441,-327 289,-327 289,-297 441,-297 441,-327"/>
<text text-anchor="start" x="297" y="-315" font-family="Helvetica,sans-Serif" font-size="10.00">hello_world::algorithms</text>
<text text-anchor="middle" x="365" y="-304" font-family="Helvetica,sans-Serif" font-size="10.00">::controller::pid::BasicPidDatas</text>
</a>
</g>
</g>
<!-- Node17&#45;&gt;Node6 -->
<g id="edge19_Node000006_Node000017" class="edge">
<title>Node17&#45;&gt;Node6</title>
<g id="a_edge19_Node000006_Node000017"><a xlink:title=" ">
<path fill="none" stroke="#9a32cd" stroke-dasharray="5,2" d="M451.85,-312.22C469.12,-312.38 487.14,-312.62 504,-313 509.7,-313.13 515.62,-313.29 521.55,-313.48"/>
<polygon fill="#9a32cd" stroke="#9a32cd" points="452.24,-308.71 442.21,-312.13 452.18,-315.71 452.24,-308.71"/>
</a>
</g>
<text text-anchor="middle" x="483.5" y="-316" font-family="Helvetica,sans-Serif" font-size="10.00" fill="grey"> datas_</text>
</g>
</g>
</svg>
