<?xml version="1.0" encoding="UTF-8" standalone="no"?>
<!DOCTYPE svg PUBLIC "-//W3C//DTD SVG 1.1//EN"
 "http://www.w3.org/Graphics/SVG/1.1/DTD/svg11.dtd">
<!-- Generated by graphviz version 8.0.3 (20230416.2022)
 -->
<!-- Title: hello_world::algorithms::controller::pid::BasicPid::calc Pages: 1 -->
<svg width="712pt" height="638pt"
 viewBox="0.00 0.00 712.00 637.50" xmlns="http://www.w3.org/2000/svg" xmlns:xlink="http://www.w3.org/1999/xlink">
<g id="graph0" class="graph" transform="scale(1 1) rotate(0) translate(4 633.5)">
<title>hello_world::algorithms::controller::pid::BasicPid::calc</title>
<!-- Node1 -->
<g id="Node000001" class="node">
<title>Node1</title>
<g id="a_Node000001"><a xlink:title="PID 控制器的计算函数">
<polygon fill="#999999" stroke="#666666" points="150,-329.5 0,-329.5 0,-299.5 150,-299.5 150,-329.5"/>
<text text-anchor="start" x="8" y="-317.5" font-family="Helvetica,sans-Serif" font-size="10.00">hello_world::algorithms</text>
<text text-anchor="middle" x="75" y="-306.5" font-family="Helvetica,sans-Serif" font-size="10.00">::controller::pid::BasicPid::calc</text>
</a>
</g>
</g>
<!-- Node2 -->
<g id="Node000002" class="node">
<title>Node2</title>
<g id="a_Node000002"><a xlink:href="classhello__world_1_1algorithms_1_1controller_1_1pid_1_1_diff_filter.html#a7bb924886f04baa6e1b9db604529f93a" target="_top" xlink:title="计算差分滤波器的输出值">
<polygon fill="white" stroke="#666666" points="351.5,-629.5 205.5,-629.5 205.5,-599.5 351.5,-599.5 351.5,-629.5"/>
<text text-anchor="start" x="213.5" y="-617.5" font-family="Helvetica,sans-Serif" font-size="10.00">hello_world::algorithms</text>
<text text-anchor="middle" x="278.5" y="-606.5" font-family="Helvetica,sans-Serif" font-size="10.00">::controller::pid::DiffFilter::calc</text>
</a>
</g>
</g>
<!-- Node1&#45;&gt;Node2 -->
<g id="edge1_Node000001_Node000002" class="edge">
<title>Node1&#45;&gt;Node2</title>
<g id="a_edge1_Node000001_Node000002"><a xlink:title=" ">
<path fill="none" stroke="#63b8ff" d="M77.37,-329.74C82.4,-376.32 104.08,-518.06 186,-590.5 189.01,-593.16 192.27,-595.53 195.72,-597.64"/>
<polygon fill="#63b8ff" stroke="#63b8ff" points="193.75,-601.08 204.23,-602.65 197.01,-594.89 193.75,-601.08"/>
</a>
</g>
</g>
<!-- Node3 -->
<g id="Node000003" class="node">
<title>Node3</title>
<g id="a_Node000003"><a xlink:href="classhello__world_1_1algorithms_1_1controller_1_1pid_1_1_inte_separation.html#a882d032c53d0a62764140564737524ff" target="_top" xlink:title="计算积分分离优化后的输出值">
<polygon fill="white" stroke="#666666" points="365,-581.5 192,-581.5 192,-551.5 365,-551.5 365,-581.5"/>
<text text-anchor="start" x="200" y="-569.5" font-family="Helvetica,sans-Serif" font-size="10.00">hello_world::algorithms</text>
<text text-anchor="middle" x="278.5" y="-558.5" font-family="Helvetica,sans-Serif" font-size="10.00">::controller::pid::InteSeparation::calc</text>
</a>
</g>
</g>
<!-- Node1&#45;&gt;Node3 -->
<g id="edge2_Node000001_Node000003" class="edge">
<title>Node1&#45;&gt;Node3</title>
<g id="a_edge2_Node000001_Node000003"><a xlink:title=" ">
<path fill="none" stroke="#63b8ff" d="M78.77,-329.71C87.06,-370.74 115.6,-484.53 186,-542.5 187.27,-543.54 188.58,-544.54 189.92,-545.5"/>
<polygon fill="#63b8ff" stroke="#63b8ff" points="187.89,-548.97 198.25,-551.2 191.54,-543 187.89,-548.97"/>
</a>
</g>
</g>
<!-- Node4 -->
<g id="Node000004" class="node">
<title>Node4</title>
<g id="a_Node000004"><a xlink:href="classhello__world_1_1algorithms_1_1controller_1_1pid_1_1_inte_changing_rate.html#a22842000f2832dba50540f0f6954244f" target="_top" xlink:title="计算比例系数">
<polygon fill="white" stroke="#666666" points="350,-533 207,-533 207,-492 350,-492 350,-533"/>
<text text-anchor="start" x="215" y="-521" font-family="Helvetica,sans-Serif" font-size="10.00">hello_world::algorithms</text>
<text text-anchor="start" x="215" y="-510" font-family="Helvetica,sans-Serif" font-size="10.00">::controller::pid::InteChanging</text>
<text text-anchor="middle" x="278.5" y="-499" font-family="Helvetica,sans-Serif" font-size="10.00">Rate::calc</text>
</a>
</g>
</g>
<!-- Node1&#45;&gt;Node4 -->
<g id="edge3_Node000001_Node000004" class="edge">
<title>Node1&#45;&gt;Node4</title>
<g id="a_edge3_Node000001_Node000004"><a xlink:title=" ">
<path fill="none" stroke="#63b8ff" d="M81.94,-330C95.37,-362.97 131.21,-440.51 186,-482.5 189.41,-485.11 193.06,-487.51 196.86,-489.69"/>
<polygon fill="#63b8ff" stroke="#63b8ff" points="195.1,-493.24 205.59,-494.72 198.31,-487.02 195.1,-493.24"/>
</a>
</g>
</g>
<!-- Node5 -->
<g id="Node000005" class="node">
<title>Node5</title>
<g id="a_Node000005"><a xlink:href="classhello__world_1_1algorithms_1_1controller_1_1pid_1_1_dead_band.html#adff792034723f0cc61648e5c0696546c" target="_top" xlink:title="计算死区优化后的误差值">
<polygon fill="white" stroke="#666666" points="356.5,-473.5 200.5,-473.5 200.5,-443.5 356.5,-443.5 356.5,-473.5"/>
<text text-anchor="start" x="208.5" y="-461.5" font-family="Helvetica,sans-Serif" font-size="10.00">hello_world::algorithms</text>
<text text-anchor="middle" x="278.5" y="-450.5" font-family="Helvetica,sans-Serif" font-size="10.00">::controller::pid::DeadBand::calc</text>
</a>
</g>
</g>
<!-- Node1&#45;&gt;Node5 -->
<g id="edge4_Node000001_Node000005" class="edge">
<title>Node1&#45;&gt;Node5</title>
<g id="a_edge4_Node000001_Node000005"><a xlink:title=" ">
<path fill="none" stroke="#63b8ff" d="M85.53,-329.59C102.51,-355.21 140.5,-407.06 186,-434.5 188.49,-436 191.06,-437.41 193.71,-438.72"/>
<polygon fill="#63b8ff" stroke="#63b8ff" points="191.99,-442.24 202.55,-443.13 194.85,-435.85 191.99,-442.24"/>
</a>
</g>
</g>
<!-- Node6 -->
<g id="Node000006" class="node">
<title>Node6</title>
<g id="a_Node000006"><a xlink:href="classhello__world_1_1algorithms_1_1controller_1_1pid_1_1_inte_trapezoidal.html#a8efa8ae3581ad2dcae6cbb86c2848213" target="_top" xlink:title="计算梯形积分优化后的积分误差值">
<polygon fill="white" stroke="#666666" points="366.5,-425.5 190.5,-425.5 190.5,-395.5 366.5,-395.5 366.5,-425.5"/>
<text text-anchor="start" x="198.5" y="-413.5" font-family="Helvetica,sans-Serif" font-size="10.00">hello_world::algorithms</text>
<text text-anchor="middle" x="278.5" y="-402.5" font-family="Helvetica,sans-Serif" font-size="10.00">::controller::pid::InteTrapezoidal::calc</text>
</a>
</g>
</g>
<!-- Node1&#45;&gt;Node6 -->
<g id="edge5_Node000001_Node000006" class="edge">
<title>Node1&#45;&gt;Node6</title>
<g id="a_edge5_Node000001_Node000006"><a xlink:title=" ">
<path fill="none" stroke="#63b8ff" d="M95.15,-329.83C116.27,-346.03 151.79,-371.3 186,-386.5 190.05,-388.3 194.27,-389.99 198.57,-391.57"/>
<polygon fill="#63b8ff" stroke="#63b8ff" points="197.12,-395.11 207.71,-395.05 199.39,-388.49 197.12,-395.11"/>
</a>
</g>
</g>
<!-- Node7 -->
<g id="Node000007" class="node">
<title>Node7</title>
<g id="a_Node000007"><a xlink:href="classhello__world_1_1algorithms_1_1controller_1_1pid_1_1_inte_anti_windup.html#ae1314426af77e207b2a80bdd060b173f" target="_top" xlink:title="计算积分抗饱和优化后的输出值">
<polygon fill="white" stroke="#666666" points="367,-377.5 190,-377.5 190,-347.5 367,-347.5 367,-377.5"/>
<text text-anchor="start" x="198" y="-365.5" font-family="Helvetica,sans-Serif" font-size="10.00">hello_world::algorithms</text>
<text text-anchor="middle" x="278.5" y="-354.5" font-family="Helvetica,sans-Serif" font-size="10.00">::controller::pid::InteAntiWindup::calc</text>
</a>
</g>
</g>
<!-- Node1&#45;&gt;Node7 -->
<g id="edge6_Node000001_Node000007" class="edge">
<title>Node1&#45;&gt;Node7</title>
<g id="a_edge6_Node000001_Node000007"><a xlink:title=" ">
<path fill="none" stroke="#63b8ff" d="M140.87,-329.95C160.37,-334.6 181.94,-339.74 202.06,-344.53"/>
<polygon fill="#63b8ff" stroke="#63b8ff" points="201.22,-348.16 211.76,-347.08 202.84,-341.36 201.22,-348.16"/>
</a>
</g>
</g>
<!-- Node8 -->
<g id="Node000008" class="node">
<title>Node8</title>
<g id="a_Node000008"><a xlink:href="classhello__world_1_1algorithms_1_1controller_1_1pid_1_1_diff_previous.html#ac654422982d9475cf5c6f6c061cd2aeb" target="_top" xlink:title="计算微分先行优化后的输出值">
<polygon fill="white" stroke="#666666" points="359,-329.5 198,-329.5 198,-299.5 359,-299.5 359,-329.5"/>
<text text-anchor="start" x="206" y="-317.5" font-family="Helvetica,sans-Serif" font-size="10.00">hello_world::algorithms</text>
<text text-anchor="middle" x="278.5" y="-306.5" font-family="Helvetica,sans-Serif" font-size="10.00">::controller::pid::DiffPrevious::calc</text>
</a>
</g>
</g>
<!-- Node1&#45;&gt;Node8 -->
<g id="edge7_Node000001_Node000008" class="edge">
<title>Node1&#45;&gt;Node8</title>
<g id="a_edge7_Node000001_Node000008"><a xlink:title=" ">
<path fill="none" stroke="#63b8ff" d="M150.46,-314.5C162.34,-314.5 174.74,-314.5 186.94,-314.5"/>
<polygon fill="#63b8ff" stroke="#63b8ff" points="186.6,-318 196.6,-314.5 186.6,-311 186.6,-318"/>
</a>
</g>
</g>
<!-- Node9 -->
<g id="Node000009" class="node">
<title>Node9</title>
<g id="a_Node000009"><a xlink:href="classhello__world_1_1algorithms_1_1controller_1_1pid_1_1_out_limit.html#a958ca6f80deb49af0d3c4d4bed32db42" target="_top" xlink:title=" ">
<polygon fill="white" stroke="#666666" points="352.5,-281.5 204.5,-281.5 204.5,-251.5 352.5,-251.5 352.5,-281.5"/>
<text text-anchor="start" x="212.5" y="-269.5" font-family="Helvetica,sans-Serif" font-size="10.00">hello_world::algorithms</text>
<text text-anchor="middle" x="278.5" y="-258.5" font-family="Helvetica,sans-Serif" font-size="10.00">::controller::pid::OutLimit::calc</text>
</a>
</g>
</g>
<!-- Node1&#45;&gt;Node9 -->
<g id="edge8_Node000001_Node000009" class="edge">
<title>Node1&#45;&gt;Node9</title>
<g id="a_edge8_Node000001_Node000009"><a xlink:title=" ">
<path fill="none" stroke="#63b8ff" d="M140.87,-299.05C160.37,-294.4 181.94,-289.26 202.06,-284.47"/>
<polygon fill="#63b8ff" stroke="#63b8ff" points="202.84,-287.64 211.76,-281.92 201.22,-280.84 202.84,-287.64"/>
</a>
</g>
</g>
<!-- Node10 -->
<g id="Node000010" class="node">
<title>Node10</title>
<g id="a_Node000010"><a xlink:href="classhello__world_1_1algorithms_1_1controller_1_1pid_1_1_setpoint_ramping.html#a7833313869bfc6845232378f32019e29" target="_top" xlink:title="计算设定点斜坡优化后的输出值">
<polygon fill="white" stroke="#666666" points="371,-233.5 186,-233.5 186,-203.5 371,-203.5 371,-233.5"/>
<text text-anchor="start" x="194" y="-221.5" font-family="Helvetica,sans-Serif" font-size="10.00">hello_world::algorithms</text>
<text text-anchor="middle" x="278.5" y="-210.5" font-family="Helvetica,sans-Serif" font-size="10.00">::controller::pid::SetpointRamping::calc</text>
</a>
</g>
</g>
<!-- Node1&#45;&gt;Node10 -->
<g id="edge9_Node000001_Node000010" class="edge">
<title>Node1&#45;&gt;Node10</title>
<g id="a_edge9_Node000001_Node000010"><a xlink:title=" ">
<path fill="none" stroke="#63b8ff" d="M95.15,-299.17C116.27,-282.97 151.79,-257.7 186,-242.5 190.05,-240.7 194.27,-239.01 198.57,-237.43"/>
<polygon fill="#63b8ff" stroke="#63b8ff" points="199.39,-240.51 207.71,-233.95 197.12,-233.89 199.39,-240.51"/>
</a>
</g>
</g>
<!-- Node11 -->
<g id="Node000011" class="node">
<title>Node11</title>
<g id="a_Node000011"><a xlink:href="namespacehello__world_1_1dsp_1_1tick.html#a97910b07255da1979f8ceafd8c6d2ea5" target="_top" xlink:title=" ">
<polygon fill="white" stroke="#666666" points="332.5,-185.5 224.5,-185.5 224.5,-155.5 332.5,-155.5 332.5,-185.5"/>
<text text-anchor="start" x="232.5" y="-173.5" font-family="Helvetica,sans-Serif" font-size="10.00">hello_world::dsp::tick</text>
<text text-anchor="middle" x="278.5" y="-162.5" font-family="Helvetica,sans-Serif" font-size="10.00">::GetTickMs</text>
</a>
</g>
</g>
<!-- Node1&#45;&gt;Node11 -->
<g id="edge10_Node000001_Node000011" class="edge">
<title>Node1&#45;&gt;Node11</title>
<g id="a_edge10_Node000001_Node000011"><a xlink:title=" ">
<path fill="none" stroke="#63b8ff" d="M85.53,-299.41C102.51,-273.79 140.5,-221.94 186,-194.5 194.47,-189.39 204.02,-185.36 213.67,-182.18"/>
<polygon fill="#63b8ff" stroke="#63b8ff" points="214.55,-185.27 223.13,-179.05 212.55,-178.56 214.55,-185.27"/>
</a>
</g>
</g>
<!-- Node13 -->
<g id="Node000013" class="node">
<title>Node13</title>
<g id="a_Node000013"><a xlink:href="namespacehello__world_1_1algorithms_1_1controller_1_1pid.html#a54cdae6f66cea881673bd9e6b366324c" target="_top" xlink:title="处理角度跨越 0 度的情况">
<polygon fill="white" stroke="#666666" points="355,-137.5 202,-137.5 202,-107.5 355,-107.5 355,-137.5"/>
<text text-anchor="start" x="210" y="-125.5" font-family="Helvetica,sans-Serif" font-size="10.00">hello_world::algorithms</text>
<text text-anchor="middle" x="278.5" y="-114.5" font-family="Helvetica,sans-Serif" font-size="10.00">::controller::pid::HandleAcross0</text>
</a>
</g>
</g>
<!-- Node1&#45;&gt;Node13 -->
<g id="edge12_Node000001_Node000013" class="edge">
<title>Node1&#45;&gt;Node13</title>
<g id="a_edge12_Node000001_Node000013"><a xlink:title=" ">
<path fill="none" stroke="#63b8ff" d="M81.56,-299.25C94.46,-266.06 129.69,-187.02 186,-146.5 187.95,-145.1 189.97,-143.78 192.06,-142.53"/>
<polygon fill="#63b8ff" stroke="#63b8ff" points="193.32,-145.3 200.55,-137.56 190.07,-139.1 193.32,-145.3"/>
</a>
</g>
</g>
<!-- Node17 -->
<g id="Node000017" class="node">
<title>Node17</title>
<g id="a_Node000017"><a xlink:href="classhello__world_1_1algorithms_1_1controller_1_1pid_1_1_basic_pid.html#a0dabd4a10fd3786e05c0fc5fa7bc9441" target="_top" xlink:title="获取 PID 控制器的输出">
<polygon fill="white" stroke="#666666" points="351.5,-89.5 205.5,-89.5 205.5,-59.5 351.5,-59.5 351.5,-89.5"/>
<text text-anchor="start" x="213.5" y="-77.5" font-family="Helvetica,sans-Serif" font-size="10.00">hello_world::algorithms</text>
<text text-anchor="middle" x="278.5" y="-66.5" font-family="Helvetica,sans-Serif" font-size="10.00">::controller::pid::BasicPid::out</text>
</a>
</g>
</g>
<!-- Node1&#45;&gt;Node17 -->
<g id="edge17_Node000001_Node000017" class="edge">
<title>Node1&#45;&gt;Node17</title>
<g id="a_edge17_Node000001_Node000017"><a xlink:title=" ">
<path fill="none" stroke="#63b8ff" d="M79.22,-299.22C88.4,-259.61 118.49,-152.89 186,-98.5 188.97,-96.11 192.15,-93.96 195.48,-92.01"/>
<polygon fill="#63b8ff" stroke="#63b8ff" points="196.87,-94.73 204.22,-87.09 193.71,-88.48 196.87,-94.73"/>
</a>
</g>
</g>
<!-- Node18 -->
<g id="Node000018" class="node">
<title>Node18</title>
<g id="a_Node000018"><a xlink:href="classhello__world_1_1algorithms_1_1controller_1_1pid_1_1_basic_pid.html#ad74407cecfa9cfb473f199d142869f0f" target="_top" xlink:title="重置PID数据">
<polygon fill="white" stroke="#666666" points="341.5,-41 215.5,-41 215.5,0 341.5,0 341.5,-41"/>
<text text-anchor="start" x="223.5" y="-29" font-family="Helvetica,sans-Serif" font-size="10.00">hello_world::algorithms</text>
<text text-anchor="start" x="223.5" y="-18" font-family="Helvetica,sans-Serif" font-size="10.00">::controller::pid::BasicPid</text>
<text text-anchor="middle" x="278.5" y="-7" font-family="Helvetica,sans-Serif" font-size="10.00">::reset</text>
</a>
</g>
</g>
<!-- Node1&#45;&gt;Node18 -->
<g id="edge18_Node000001_Node000018" class="edge">
<title>Node1&#45;&gt;Node18</title>
<g id="a_edge18_Node000001_Node000018"><a xlink:title=" ">
<path fill="none" stroke="#63b8ff" d="M77.92,-299.17C84.35,-254.22 109.27,-121.47 186,-50.5 191.74,-45.19 198.43,-40.82 205.54,-37.23"/>
<polygon fill="#63b8ff" stroke="#63b8ff" points="206.75,-40.07 214.44,-32.79 203.88,-33.69 206.75,-40.07"/>
</a>
</g>
</g>
<!-- Node12 -->
<g id="Node000012" class="node">
<title>Node12</title>
<g id="a_Node000012"><a xlink:href="namespacehello__world_1_1dsp_1_1tick.html#a0c9c44ee367dc665cc6f1a6d830da9ee" target="_top" xlink:title=" ">
<polygon fill="white" stroke="#666666" points="523.5,-185.5 415.5,-185.5 415.5,-155.5 523.5,-155.5 523.5,-185.5"/>
<text text-anchor="start" x="423.5" y="-173.5" font-family="Helvetica,sans-Serif" font-size="10.00">hello_world::dsp::tick</text>
<text text-anchor="middle" x="469.5" y="-162.5" font-family="Helvetica,sans-Serif" font-size="10.00">::GetTickUs</text>
</a>
</g>
</g>
<!-- Node11&#45;&gt;Node12 -->
<g id="edge11_Node000011_Node000012" class="edge">
<title>Node11&#45;&gt;Node12</title>
<g id="a_edge11_Node000011_Node000012"><a xlink:title=" ">
<path fill="none" stroke="#63b8ff" d="M332.9,-170.5C355.14,-170.5 381.15,-170.5 404.41,-170.5"/>
<polygon fill="#63b8ff" stroke="#63b8ff" points="404.23,-174 414.23,-170.5 404.23,-167 404.23,-174"/>
</a>
</g>
</g>
<!-- Node14 -->
<g id="Node000014" class="node">
<title>Node14</title>
<g id="a_Node000014"><a xlink:href="namespacehello__world.html#a7c9ce795c80c4bc674e5470984f99105" target="_top" xlink:title=" ">
<polygon fill="white" stroke="#666666" points="532,-137.5 407,-137.5 407,-107.5 532,-107.5 532,-137.5"/>
<text text-anchor="start" x="415" y="-125.5" font-family="Helvetica,sans-Serif" font-size="10.00">hello_world::HandleAngle</text>
<text text-anchor="middle" x="469.5" y="-114.5" font-family="Helvetica,sans-Serif" font-size="10.00">Cross0Deg</text>
</a>
</g>
</g>
<!-- Node13&#45;&gt;Node14 -->
<g id="edge13_Node000013_Node000014" class="edge">
<title>Node13&#45;&gt;Node14</title>
<g id="a_edge13_Node000013_Node000014"><a xlink:title=" ">
<path fill="none" stroke="#63b8ff" d="M355.28,-122.5C368.6,-122.5 382.44,-122.5 395.67,-122.5"/>
<polygon fill="#63b8ff" stroke="#63b8ff" points="395.63,-126 405.63,-122.5 395.63,-119 395.63,-126"/>
</a>
</g>
</g>
<!-- Node16 -->
<g id="Node000016" class="node">
<title>Node16</title>
<g id="a_Node000016"><a xlink:href="namespacehello__world.html#a7640febc082ad62910c63a8feac1c002" target="_top" xlink:title=" ">
<polygon fill="white" stroke="#666666" points="532,-89.5 407,-89.5 407,-59.5 532,-59.5 532,-89.5"/>
<text text-anchor="start" x="415" y="-77.5" font-family="Helvetica,sans-Serif" font-size="10.00">hello_world::HandleAngle</text>
<text text-anchor="middle" x="469.5" y="-66.5" font-family="Helvetica,sans-Serif" font-size="10.00">Cross0Rad</text>
</a>
</g>
</g>
<!-- Node13&#45;&gt;Node16 -->
<g id="edge15_Node000013_Node000016" class="edge">
<title>Node13&#45;&gt;Node16</title>
<g id="a_edge15_Node000013_Node000016"><a xlink:title=" ">
<path fill="none" stroke="#63b8ff" d="M340.34,-107.05C358.47,-102.44 378.49,-97.36 397.22,-92.6"/>
<polygon fill="#63b8ff" stroke="#63b8ff" points="397.94,-95.78 406.77,-89.92 396.22,-88.99 397.94,-95.78"/>
</a>
</g>
</g>
<!-- Node15 -->
<g id="Node000015" class="node">
<title>Node15</title>
<g id="a_Node000015"><a xlink:href="namespacehello__world.html#ab46e2d75fde6b8f67bd6d21c61508e47" target="_top" xlink:title="处理角度越过0值的情况，以半周期为基准">
<polygon fill="white" stroke="#666666" points="704,-108 568,-108 568,-89 704,-89 704,-108"/>
<text text-anchor="middle" x="636" y="-96" font-family="Helvetica,sans-Serif" font-size="10.00">hello_world::PeriodDataSub</text>
</a>
</g>
</g>
<!-- Node14&#45;&gt;Node15 -->
<g id="edge14_Node000014_Node000015" class="edge">
<title>Node14&#45;&gt;Node15</title>
<g id="a_edge14_Node000014_Node000015"><a xlink:title=" ">
<path fill="none" stroke="#63b8ff" d="M532.22,-113.5C540.27,-112.32 548.6,-111.11 556.88,-109.9"/>
<polygon fill="#63b8ff" stroke="#63b8ff" points="557.31,-113.23 566.7,-108.32 556.3,-106.3 557.31,-113.23"/>
</a>
</g>
</g>
<!-- Node16&#45;&gt;Node15 -->
<g id="edge16_Node000016_Node000015" class="edge">
<title>Node16&#45;&gt;Node15</title>
<g id="a_edge16_Node000016_Node000015"><a xlink:title=" ">
<path fill="none" stroke="#63b8ff" d="M532.22,-83.5C540.27,-84.68 548.6,-85.89 556.88,-87.1"/>
<polygon fill="#63b8ff" stroke="#63b8ff" points="556.3,-90.7 566.7,-88.68 557.31,-83.77 556.3,-90.7"/>
</a>
</g>
</g>
</g>
</svg>
