<?xml version="1.0" encoding="UTF-8" standalone="no"?>
<!DOCTYPE svg PUBLIC "-//W3C//DTD SVG 1.1//EN"
 "http://www.w3.org/Graphics/SVG/1.1/DTD/svg11.dtd">
<!-- Generated by graphviz version 8.0.3 (20230416.2022)
 -->
<!-- Title: hello_world::devices::imu::BMI088::gyroSelfTest Pages: 1 -->
<svg width="463pt" height="134pt"
 viewBox="0.00 0.00 463.00 134.00" xmlns="http://www.w3.org/2000/svg" xmlns:xlink="http://www.w3.org/1999/xlink">
<g id="graph0" class="graph" transform="scale(1 1) rotate(0) translate(4 130)">
<title>hello_world::devices::imu::BMI088::gyroSelfTest</title>
<!-- Node1 -->
<g id="Node000001" class="node">
<title>Node1</title>
<g id="a_Node000001"><a xlink:title="陀螺仪自检测">
<polygon fill="#999999" stroke="#666666" points="137,-78 0,-78 0,-48 137,-48 137,-78"/>
<text text-anchor="start" x="8" y="-66" font-family="Helvetica,sans-Serif" font-size="10.00">hello_world::devices</text>
<text text-anchor="middle" x="68.5" y="-55" font-family="Helvetica,sans-Serif" font-size="10.00">::imu::BMI088::gyroSelfTest</text>
</a>
</g>
</g>
<!-- Node2 -->
<g id="Node000002" class="node">
<title>Node2</title>
<g id="a_Node000002"><a xlink:href="namespacehello__world_1_1devices_1_1imu.html#a6fc8717b2ca9de9512855bad4d226769" target="_top" xlink:title="微秒级延时">
<polygon fill="white" stroke="#666666" points="287,-126 184,-126 184,-96 287,-96 287,-126"/>
<text text-anchor="start" x="192" y="-114" font-family="Helvetica,sans-Serif" font-size="10.00">hello_world::devices</text>
<text text-anchor="middle" x="235.5" y="-103" font-family="Helvetica,sans-Serif" font-size="10.00">::imu::DelayUs</text>
</a>
</g>
</g>
<!-- Node1&#45;&gt;Node2 -->
<g id="edge1_Node000001_Node000002" class="edge">
<title>Node1&#45;&gt;Node2</title>
<g id="a_edge1_Node000001_Node000002"><a xlink:title=" ">
<path fill="none" stroke="#63b8ff" d="M122.62,-78.45C138.84,-83.17 156.81,-88.4 173.52,-93.26"/>
<polygon fill="#63b8ff" stroke="#63b8ff" points="172.15,-96.8 182.73,-96.23 174.11,-90.08 172.15,-96.8"/>
</a>
</g>
</g>
<!-- Node3 -->
<g id="Node000003" class="node">
<title>Node3</title>
<g id="a_Node000003"><a xlink:href="classhello__world_1_1devices_1_1imu_1_1_b_m_i088.html#a16b8a6609a3b902bc05c4e2857801cd2" target="_top" xlink:title="读取陀螺仪寄存器数据">
<polygon fill="white" stroke="#666666" points="298,-30 173,-30 173,0 298,0 298,-30"/>
<text text-anchor="start" x="181" y="-18" font-family="Helvetica,sans-Serif" font-size="10.00">hello_world::devices</text>
<text text-anchor="middle" x="235.5" y="-7" font-family="Helvetica,sans-Serif" font-size="10.00">::imu::BMI088::gyroRead</text>
</a>
</g>
</g>
<!-- Node1&#45;&gt;Node3 -->
<g id="edge2_Node000001_Node000003" class="edge">
<title>Node1&#45;&gt;Node3</title>
<g id="a_edge2_Node000001_Node000003"><a xlink:title=" ">
<path fill="none" stroke="#63b8ff" d="M122.62,-47.55C138.07,-43.05 155.11,-38.1 171.13,-33.43"/>
<polygon fill="#63b8ff" stroke="#63b8ff" points="171.86,-36.58 180.48,-30.42 169.9,-29.86 171.86,-36.58"/>
</a>
</g>
</g>
<!-- Node6 -->
<g id="Node000006" class="node">
<title>Node6</title>
<g id="a_Node000006"><a xlink:href="classhello__world_1_1devices_1_1imu_1_1_b_m_i088.html#adf2ebc011e80e2ad115716307c773c6f" target="_top" xlink:title="向陀螺仪寄存器写入数据">
<polygon fill="white" stroke="#666666" points="298,-78 173,-78 173,-48 298,-48 298,-78"/>
<text text-anchor="start" x="181" y="-66" font-family="Helvetica,sans-Serif" font-size="10.00">hello_world::devices</text>
<text text-anchor="middle" x="235.5" y="-55" font-family="Helvetica,sans-Serif" font-size="10.00">::imu::BMI088::gyroWrite</text>
</a>
</g>
</g>
<!-- Node1&#45;&gt;Node6 -->
<g id="edge5_Node000001_Node000006" class="edge">
<title>Node1&#45;&gt;Node6</title>
<g id="a_edge5_Node000001_Node000006"><a xlink:title=" ">
<path fill="none" stroke="#63b8ff" d="M137.09,-63C145.26,-63 153.63,-63 161.86,-63"/>
<polygon fill="#63b8ff" stroke="#63b8ff" points="161.59,-66.5 171.59,-63 161.59,-59.5 161.59,-66.5"/>
</a>
</g>
</g>
<!-- Node4 -->
<g id="Node000004" class="node">
<title>Node4</title>
<g id="a_Node000004"><a xlink:href="classhello__world_1_1devices_1_1imu_1_1_b_m_i088.html#a54cd103bad13c06059088197dabd6acc" target="_top" xlink:title=" ">
<polygon fill="white" stroke="#666666" points="455,-78 334,-78 334,-48 455,-48 455,-78"/>
<text text-anchor="start" x="342" y="-66" font-family="Helvetica,sans-Serif" font-size="10.00">hello_world::devices</text>
<text text-anchor="middle" x="394.5" y="-55" font-family="Helvetica,sans-Serif" font-size="10.00">::imu::BMI088::gyroCsH</text>
</a>
</g>
</g>
<!-- Node3&#45;&gt;Node4 -->
<g id="edge3_Node000003_Node000004" class="edge">
<title>Node3&#45;&gt;Node4</title>
<g id="a_edge3_Node000003_Node000004"><a xlink:title=" ">
<path fill="none" stroke="#63b8ff" d="M287.04,-30.45C301.61,-34.91 317.65,-39.81 332.77,-44.43"/>
<polygon fill="#63b8ff" stroke="#63b8ff" points="331.47,-48 342.05,-47.58 333.51,-41.31 331.47,-48"/>
</a>
</g>
</g>
<!-- Node5 -->
<g id="Node000005" class="node">
<title>Node5</title>
<g id="a_Node000005"><a xlink:href="classhello__world_1_1devices_1_1imu_1_1_b_m_i088.html#ac7e428dbf85a72f9b9689a78e7e73f02" target="_top" xlink:title=" ">
<polygon fill="white" stroke="#666666" points="454,-30 335,-30 335,0 454,0 454,-30"/>
<text text-anchor="start" x="343" y="-18" font-family="Helvetica,sans-Serif" font-size="10.00">hello_world::devices</text>
<text text-anchor="middle" x="394.5" y="-7" font-family="Helvetica,sans-Serif" font-size="10.00">::imu::BMI088::gyroCsL</text>
</a>
</g>
</g>
<!-- Node3&#45;&gt;Node5 -->
<g id="edge4_Node000003_Node000005" class="edge">
<title>Node3&#45;&gt;Node5</title>
<g id="a_edge4_Node000003_Node000005"><a xlink:title=" ">
<path fill="none" stroke="#63b8ff" d="M298.1,-15C306.56,-15 315.29,-15 323.88,-15"/>
<polygon fill="#63b8ff" stroke="#63b8ff" points="323.64,-18.5 333.64,-15 323.64,-11.5 323.64,-18.5"/>
</a>
</g>
</g>
<!-- Node6&#45;&gt;Node4 -->
<g id="edge6_Node000006_Node000004" class="edge">
<title>Node6&#45;&gt;Node4</title>
<g id="a_edge6_Node000006_Node000004"><a xlink:title=" ">
<path fill="none" stroke="#63b8ff" d="M298.1,-63C306.22,-63 314.6,-63 322.86,-63"/>
<polygon fill="#63b8ff" stroke="#63b8ff" points="322.62,-66.5 332.62,-63 322.62,-59.5 322.62,-66.5"/>
</a>
</g>
</g>
<!-- Node6&#45;&gt;Node5 -->
<g id="edge7_Node000006_Node000005" class="edge">
<title>Node6&#45;&gt;Node5</title>
<g id="a_edge7_Node000006_Node000005"><a xlink:title=" ">
<path fill="none" stroke="#63b8ff" d="M287.04,-47.55C301.61,-43.09 317.65,-38.19 332.77,-33.57"/>
<polygon fill="#63b8ff" stroke="#63b8ff" points="333.51,-36.69 342.05,-30.42 331.47,-30 333.51,-36.69"/>
</a>
</g>
</g>
</g>
</svg>
