<?xml version="1.0" encoding="UTF-8" standalone="no"?>
<!DOCTYPE svg PUBLIC "-//W3C//DTD SVG 1.1//EN"
 "http://www.w3.org/Graphics/SVG/1.1/DTD/svg11.dtd">
<!-- Generated by graphviz version 8.0.3 (20230416.2022)
 -->
<!-- Title: hello_world::devices::imu::BMI088::getGyroData Pages: 1 -->
<svg width="485pt" height="86pt"
 viewBox="0.00 0.00 485.00 86.00" xmlns="http://www.w3.org/2000/svg" xmlns:xlink="http://www.w3.org/1999/xlink">
<g id="graph0" class="graph" transform="scale(1 1) rotate(0) translate(4 82)">
<title>hello_world::devices::imu::BMI088::getGyroData</title>
<!-- Node1 -->
<g id="Node000001" class="node">
<title>Node1</title>
<g id="a_Node000001"><a xlink:title="获取陀螺仪数据">
<polygon fill="#999999" stroke="#666666" points="138,-54 0,-54 0,-24 138,-24 138,-54"/>
<text text-anchor="start" x="8" y="-42" font-family="Helvetica,sans-Serif" font-size="10.00">hello_world::devices</text>
<text text-anchor="middle" x="69" y="-31" font-family="Helvetica,sans-Serif" font-size="10.00">::imu::BMI088::getGyroData</text>
</a>
</g>
</g>
<!-- Node2 -->
<g id="Node000002" class="node">
<title>Node2</title>
<g id="a_Node000002"><a xlink:href="classhello__world_1_1devices_1_1imu_1_1_b_m_i088.html#a443cf9b8f3e44acea8ac21258b4d7363" target="_top" xlink:title="陀螺仪多寄存器数据读取">
<polygon fill="white" stroke="#666666" points="320,-54 174,-54 174,-24 320,-24 320,-54"/>
<text text-anchor="start" x="182" y="-42" font-family="Helvetica,sans-Serif" font-size="10.00">hello_world::devices</text>
<text text-anchor="middle" x="247" y="-31" font-family="Helvetica,sans-Serif" font-size="10.00">::imu::BMI088::gyroMultiRead</text>
</a>
</g>
</g>
<!-- Node1&#45;&gt;Node2 -->
<g id="edge1_Node000001_Node000002" class="edge">
<title>Node1&#45;&gt;Node2</title>
<g id="a_edge1_Node000001_Node000002"><a xlink:title=" ">
<path fill="none" stroke="#63b8ff" d="M138.3,-39C146.36,-39 154.66,-39 162.89,-39"/>
<polygon fill="#63b8ff" stroke="#63b8ff" points="162.66,-42.5 172.66,-39 162.66,-35.5 162.66,-42.5"/>
</a>
</g>
</g>
<!-- Node3 -->
<g id="Node000003" class="node">
<title>Node3</title>
<g id="a_Node000003"><a xlink:href="classhello__world_1_1devices_1_1imu_1_1_b_m_i088.html#a54cd103bad13c06059088197dabd6acc" target="_top" xlink:title=" ">
<polygon fill="white" stroke="#666666" points="477,-78 356,-78 356,-48 477,-48 477,-78"/>
<text text-anchor="start" x="364" y="-66" font-family="Helvetica,sans-Serif" font-size="10.00">hello_world::devices</text>
<text text-anchor="middle" x="416.5" y="-55" font-family="Helvetica,sans-Serif" font-size="10.00">::imu::BMI088::gyroCsH</text>
</a>
</g>
</g>
<!-- Node2&#45;&gt;Node3 -->
<g id="edge2_Node000002_Node000003" class="edge">
<title>Node2&#45;&gt;Node3</title>
<g id="a_edge2_Node000002_Node000003"><a xlink:title=" ">
<path fill="none" stroke="#63b8ff" d="M320.49,-49.39C328.58,-50.55 336.81,-51.72 344.87,-52.88"/>
<polygon fill="#63b8ff" stroke="#63b8ff" points="344.33,-56.48 354.73,-54.44 345.32,-49.55 344.33,-56.48"/>
</a>
</g>
</g>
<!-- Node4 -->
<g id="Node000004" class="node">
<title>Node4</title>
<g id="a_Node000004"><a xlink:href="classhello__world_1_1devices_1_1imu_1_1_b_m_i088.html#ac7e428dbf85a72f9b9689a78e7e73f02" target="_top" xlink:title=" ">
<polygon fill="white" stroke="#666666" points="476,-30 357,-30 357,0 476,0 476,-30"/>
<text text-anchor="start" x="365" y="-18" font-family="Helvetica,sans-Serif" font-size="10.00">hello_world::devices</text>
<text text-anchor="middle" x="416.5" y="-7" font-family="Helvetica,sans-Serif" font-size="10.00">::imu::BMI088::gyroCsL</text>
</a>
</g>
</g>
<!-- Node2&#45;&gt;Node4 -->
<g id="edge3_Node000002_Node000004" class="edge">
<title>Node2&#45;&gt;Node4</title>
<g id="a_edge3_Node000002_Node000004"><a xlink:title=" ">
<path fill="none" stroke="#63b8ff" d="M320.49,-28.61C328.92,-27.41 337.49,-26.18 345.88,-24.98"/>
<polygon fill="#63b8ff" stroke="#63b8ff" points="346.35,-28.3 355.75,-23.42 345.36,-21.37 346.35,-28.3"/>
</a>
</g>
</g>
</g>
</svg>
