<?xml version="1.0" encoding="UTF-8" standalone="no"?>
<!DOCTYPE svg PUBLIC "-//W3C//DTD SVG 1.1//EN"
 "http://www.w3.org/Graphics/SVG/1.1/DTD/svg11.dtd">
<!-- Generated by graphviz version 8.0.3 (20230416.2022)
 -->
<!-- Title: hello_world::devices::referee::Referee::encodeFrame Pages: 1 -->
<svg width="741pt" height="86pt"
 viewBox="0.00 0.00 741.00 86.00" xmlns="http://www.w3.org/2000/svg" xmlns:xlink="http://www.w3.org/1999/xlink">
<g id="graph0" class="graph" transform="scale(1 1) rotate(0) translate(4 82)">
<title>hello_world::devices::referee::Referee::encodeFrame</title>
<!-- Node1 -->
<g id="Node000001" class="node">
<title>Node1</title>
<g id="a_Node000001"><a xlink:title=" ">
<polygon fill="#999999" stroke="#666666" points="156,-54 0,-54 0,-24 156,-24 156,-54"/>
<text text-anchor="start" x="8" y="-42" font-family="Helvetica,sans-Serif" font-size="10.00">hello_world::devices</text>
<text text-anchor="middle" x="78" y="-31" font-family="Helvetica,sans-Serif" font-size="10.00">::referee::Referee::encodeFrame</text>
</a>
</g>
</g>
<!-- Node2 -->
<g id="Node000002" class="node">
<title>Node2</title>
<g id="a_Node000002"><a xlink:href="classhello__world_1_1devices_1_1referee_1_1_referee.html#aabc8ab368e15253c1f375e15f625e640" target="_top" xlink:title=" ">
<polygon fill="white" stroke="#666666" points="350,-54 192,-54 192,-24 350,-24 350,-54"/>
<text text-anchor="start" x="200" y="-42" font-family="Helvetica,sans-Serif" font-size="10.00">hello_world::devices</text>
<text text-anchor="middle" x="271" y="-31" font-family="Helvetica,sans-Serif" font-size="10.00">::referee::Referee::encodeSetCrc</text>
</a>
</g>
</g>
<!-- Node1&#45;&gt;Node2 -->
<g id="edge1_Node000001_Node000002" class="edge">
<title>Node1&#45;&gt;Node2</title>
<g id="a_edge1_Node000001_Node000002"><a xlink:title=" ">
<path fill="none" stroke="#63b8ff" d="M156.41,-39C164.37,-39 172.51,-39 180.59,-39"/>
<polygon fill="#63b8ff" stroke="#63b8ff" points="180.55,-42.5 190.55,-39 180.55,-35.5 180.55,-42.5"/>
</a>
</g>
</g>
<!-- Node3 -->
<g id="Node000003" class="node">
<title>Node3</title>
<g id="a_Node000003"><a xlink:href="namespacehello__world_1_1devices_1_1referee.html#a73a313c37bf9c08d99668eb8e20b0126" target="_top" xlink:title="Set the last two bytes of a message to a CRC16 checksum.">
<polygon fill="white" stroke="#666666" points="550,-78 386,-78 386,-48 550,-48 550,-78"/>
<text text-anchor="start" x="394" y="-66" font-family="Helvetica,sans-Serif" font-size="10.00">hello_world::devices</text>
<text text-anchor="middle" x="468" y="-55" font-family="Helvetica,sans-Serif" font-size="10.00">::referee::SetEndCrc16CheckSum</text>
</a>
</g>
</g>
<!-- Node2&#45;&gt;Node3 -->
<g id="edge2_Node000002_Node000003" class="edge">
<title>Node2&#45;&gt;Node3</title>
<g id="a_edge2_Node000002_Node000003"><a xlink:title=" ">
<path fill="none" stroke="#63b8ff" d="M350.47,-48.66C358.49,-49.65 366.69,-50.65 374.84,-51.66"/>
<polygon fill="#63b8ff" stroke="#63b8ff" points="374.15,-55.22 384.51,-52.97 375.01,-48.27 374.15,-55.22"/>
</a>
</g>
</g>
<!-- Node5 -->
<g id="Node000005" class="node">
<title>Node5</title>
<g id="a_Node000005"><a xlink:href="namespacehello__world_1_1devices_1_1referee.html#a1010051b064aba848f58d85e35720c8e" target="_top" xlink:title="Set the last byte of a message to a CRC8 checksum.">
<polygon fill="white" stroke="#666666" points="547,-30 389,-30 389,0 547,0 547,-30"/>
<text text-anchor="start" x="397" y="-18" font-family="Helvetica,sans-Serif" font-size="10.00">hello_world::devices</text>
<text text-anchor="middle" x="468" y="-7" font-family="Helvetica,sans-Serif" font-size="10.00">::referee::SetEndCrc8CheckSum</text>
</a>
</g>
</g>
<!-- Node2&#45;&gt;Node5 -->
<g id="edge4_Node000002_Node000005" class="edge">
<title>Node2&#45;&gt;Node5</title>
<g id="a_edge4_Node000002_Node000005"><a xlink:title=" ">
<path fill="none" stroke="#63b8ff" d="M350.47,-29.34C359.52,-28.23 368.8,-27.09 377.98,-25.96"/>
<polygon fill="#63b8ff" stroke="#63b8ff" points="378.19,-29.33 387.69,-24.64 377.34,-22.39 378.19,-29.33"/>
</a>
</g>
</g>
<!-- Node4 -->
<g id="Node000004" class="node">
<title>Node4</title>
<g id="a_Node000004"><a xlink:href="namespacehello__world_1_1devices_1_1referee.html#a30f1e50d6e85c306486883a0668b7f50" target="_top" xlink:title="Calculate and return the CRC16 checksum of a message.">
<polygon fill="white" stroke="#666666" points="733,-78 586,-78 586,-48 733,-48 733,-78"/>
<text text-anchor="start" x="594" y="-66" font-family="Helvetica,sans-Serif" font-size="10.00">hello_world::devices</text>
<text text-anchor="middle" x="659.5" y="-55" font-family="Helvetica,sans-Serif" font-size="10.00">::referee::GetCrc16CheckSum</text>
</a>
</g>
</g>
<!-- Node3&#45;&gt;Node4 -->
<g id="edge3_Node000003_Node000004" class="edge">
<title>Node3&#45;&gt;Node4</title>
<g id="a_edge3_Node000003_Node000004"><a xlink:title=" ">
<path fill="none" stroke="#63b8ff" d="M550.46,-63C558.53,-63 566.73,-63 574.82,-63"/>
<polygon fill="#63b8ff" stroke="#63b8ff" points="574.77,-66.5 584.77,-63 574.77,-59.5 574.77,-66.5"/>
</a>
</g>
</g>
<!-- Node6 -->
<g id="Node000006" class="node">
<title>Node6</title>
<g id="a_Node000006"><a xlink:href="namespacehello__world_1_1devices_1_1referee.html#a42050a73d989fc581253585524abbf57" target="_top" xlink:title="Calculate and return the CRC8 checksum of a message.">
<polygon fill="white" stroke="#666666" points="730.5,-30 588.5,-30 588.5,0 730.5,0 730.5,-30"/>
<text text-anchor="start" x="596.5" y="-18" font-family="Helvetica,sans-Serif" font-size="10.00">hello_world::devices</text>
<text text-anchor="middle" x="659.5" y="-7" font-family="Helvetica,sans-Serif" font-size="10.00">::referee::GetCrc8CheckSum</text>
</a>
</g>
</g>
<!-- Node5&#45;&gt;Node6 -->
<g id="edge5_Node000005_Node000006" class="edge">
<title>Node5&#45;&gt;Node6</title>
<g id="a_edge5_Node000005_Node000006"><a xlink:title=" ">
<path fill="none" stroke="#63b8ff" d="M547.44,-15C557.39,-15 567.58,-15 577.57,-15"/>
<polygon fill="#63b8ff" stroke="#63b8ff" points="577.29,-18.5 587.29,-15 577.29,-11.5 577.29,-18.5"/>
</a>
</g>
</g>
</g>
</svg>
