<?xml version="1.0" encoding="UTF-8" standalone="no"?>
<!DOCTYPE svg PUBLIC "-//W3C//DTD SVG 1.1//EN"
 "http://www.w3.org/Graphics/SVG/1.1/DTD/svg11.dtd">
<!-- Generated by graphviz version 8.0.3 (20230416.2022)
 -->
<!-- Title: hello_world::devices::servo::Servo::setAngle Pages: 1 -->
<svg width="427pt" height="38pt"
 viewBox="0.00 0.00 427.00 38.00" xmlns="http://www.w3.org/2000/svg" xmlns:xlink="http://www.w3.org/1999/xlink">
<g id="graph0" class="graph" transform="scale(1 1) rotate(0) translate(4 34)">
<title>hello_world::devices::servo::Servo::setAngle</title>
<!-- Node1 -->
<g id="Node000001" class="node">
<title>Node1</title>
<g id="a_Node000001"><a xlink:title="设定舵机角度">
<polygon fill="#999999" stroke="#666666" points="119,-30 0,-30 0,0 119,0 119,-30"/>
<text text-anchor="start" x="8" y="-18" font-family="Helvetica,sans-Serif" font-size="10.00">hello_world::devices</text>
<text text-anchor="middle" x="59.5" y="-7" font-family="Helvetica,sans-Serif" font-size="10.00">::servo::Servo::setAngle</text>
</a>
</g>
</g>
<!-- Node2 -->
<g id="Node000002" class="node">
<title>Node2</title>
<g id="a_Node000002"><a xlink:href="classhello__world_1_1devices_1_1servo_1_1_servo.html#af678b6d9c70e3be611755ac1ae233aa5" target="_top" xlink:title="舵机角度转定时器PWM比较值">
<polygon fill="white" stroke="#666666" points="285,-30 155,-30 155,0 285,0 285,-30"/>
<text text-anchor="start" x="163" y="-18" font-family="Helvetica,sans-Serif" font-size="10.00">hello_world::devices</text>
<text text-anchor="middle" x="220" y="-7" font-family="Helvetica,sans-Serif" font-size="10.00">::servo::Servo::angle2Cmp</text>
</a>
</g>
</g>
<!-- Node1&#45;&gt;Node2 -->
<g id="edge1_Node000001_Node000002" class="edge">
<title>Node1&#45;&gt;Node2</title>
<g id="a_edge1_Node000001_Node000002"><a xlink:title=" ">
<path fill="none" stroke="#63b8ff" d="M119.07,-15C127.1,-15 135.44,-15 143.72,-15"/>
<polygon fill="#63b8ff" stroke="#63b8ff" points="143.54,-18.5 153.54,-15 143.54,-11.5 143.54,-18.5"/>
</a>
</g>
</g>
<!-- Node3 -->
<g id="Node000003" class="node">
<title>Node3</title>
<g id="a_Node000003"><a xlink:href="namespacehello__world.html#a34cb06299a34f746d556d23dc16904aa" target="_top" xlink:title="将输入值限制在一个范围内">
<polygon fill="white" stroke="#666666" points="419,-24.5 321,-24.5 321,-5.5 419,-5.5 419,-24.5"/>
<text text-anchor="middle" x="370" y="-12.5" font-family="Helvetica,sans-Serif" font-size="10.00">hello_world::Bound</text>
</a>
</g>
</g>
<!-- Node2&#45;&gt;Node3 -->
<g id="edge2_Node000002_Node000003" class="edge">
<title>Node2&#45;&gt;Node3</title>
<g id="a_edge2_Node000002_Node000003"><a xlink:title=" ">
<path fill="none" stroke="#63b8ff" d="M285.48,-15C293.62,-15 301.92,-15 309.97,-15"/>
<polygon fill="#63b8ff" stroke="#63b8ff" points="309.76,-18.5 319.76,-15 309.76,-11.5 309.76,-18.5"/>
</a>
</g>
</g>
</g>
</svg>
