<?xml version="1.0" encoding="UTF-8" standalone="no"?>
<!DOCTYPE svg PUBLIC "-//W3C//DTD SVG 1.1//EN"
 "http://www.w3.org/Graphics/SVG/1.1/DTD/svg11.dtd">
<!-- Generated by graphviz version 8.0.3 (20230416.2022)
 -->
<!-- Title: hello_world::algorithms::controller::pid::PidList::push Pages: 1 -->
<svg width="314pt" height="62pt"
 viewBox="0.00 0.00 314.00 61.50" xmlns="http://www.w3.org/2000/svg" xmlns:xlink="http://www.w3.org/1999/xlink">
<g id="graph0" class="graph" transform="scale(1 1) rotate(0) translate(4 57.5)">
<title>hello_world::algorithms::controller::pid::PidList::push</title>
<!-- Node1 -->
<g id="Node000001" class="node">
<title>Node1</title>
<g id="a_Node000001"><a xlink:title="向链表尾部添加一个新的 PidNode">
<polygon fill="#999999" stroke="#666666" points="144,-35.5 0,-35.5 0,-5.5 144,-5.5 144,-35.5"/>
<text text-anchor="start" x="8" y="-23.5" font-family="Helvetica,sans-Serif" font-size="10.00">hello_world::algorithms</text>
<text text-anchor="middle" x="72" y="-12.5" font-family="Helvetica,sans-Serif" font-size="10.00">::controller::pid::PidList::push</text>
</a>
</g>
</g>
<!-- Node1&#45;&gt;Node1 -->
<g id="edge2_Node000001_Node000001" class="edge">
<title>Node1&#45;&gt;Node1</title>
<g id="a_edge2_Node000001_Node000001"><a xlink:title=" ">
<path fill="none" stroke="#63b8ff" d="M41.94,-35.78C35.26,-44.91 45.28,-53.5 72,-53.5 87.45,-53.5 97.31,-50.63 101.6,-46.44"/>
<polygon fill="#63b8ff" stroke="#63b8ff" points="105.12,-46.92 102.06,-36.78 98.13,-46.61 105.12,-46.92"/>
</a>
</g>
</g>
<!-- Node2 -->
<g id="Node000002" class="node">
<title>Node2</title>
<g id="a_Node000002"><a xlink:href="classhello__world_1_1algorithms_1_1controller_1_1pid_1_1_basic_pid.html#a7de4709eb73b91ffef6b5896dd45d8ed" target="_top" xlink:title="获取 PID 参数的常量引用">
<polygon fill="white" stroke="#666666" points="306,-41 180,-41 180,0 306,0 306,-41"/>
<text text-anchor="start" x="188" y="-29" font-family="Helvetica,sans-Serif" font-size="10.00">hello_world::algorithms</text>
<text text-anchor="start" x="188" y="-18" font-family="Helvetica,sans-Serif" font-size="10.00">::controller::pid::BasicPid</text>
<text text-anchor="middle" x="243" y="-7" font-family="Helvetica,sans-Serif" font-size="10.00">::params</text>
</a>
</g>
</g>
<!-- Node1&#45;&gt;Node2 -->
<g id="edge1_Node000001_Node000002" class="edge">
<title>Node1&#45;&gt;Node2</title>
<g id="a_edge1_Node000001_Node000002"><a xlink:title=" ">
<path fill="none" stroke="#63b8ff" d="M144.18,-20.5C152.31,-20.5 160.6,-20.5 168.75,-20.5"/>
<polygon fill="#63b8ff" stroke="#63b8ff" points="168.75,-24 178.75,-20.5 168.75,-17 168.75,-24"/>
</a>
</g>
</g>
</g>
</svg>
