<?xml version="1.0" encoding="UTF-8" standalone="no"?>
<!DOCTYPE svg PUBLIC "-//W3C//DTD SVG 1.1//EN"
 "http://www.w3.org/Graphics/SVG/1.1/DTD/svg11.dtd">
<!-- Generated by graphviz version 8.0.3 (20230416.2022)
 -->
<!-- Title: hello_world::devices::imu::BMI088::accMultiRead Pages: 1 -->
<svg width="778pt" height="86pt"
 viewBox="0.00 0.00 778.00 86.00" xmlns="http://www.w3.org/2000/svg" xmlns:xlink="http://www.w3.org/1999/xlink">
<g id="graph0" class="graph" transform="scale(1 1) rotate(0) translate(4 82)">
<title>hello_world::devices::imu::BMI088::accMultiRead</title>
<!-- Node1 -->
<g id="Node000001" class="node">
<title>Node1</title>
<g id="a_Node000001"><a xlink:title="加速度计多寄存器数据读取">
<polygon fill="#999999" stroke="#666666" points="770,-54 627,-54 627,-24 770,-24 770,-54"/>
<text text-anchor="start" x="635" y="-42" font-family="Helvetica,sans-Serif" font-size="10.00">hello_world::devices</text>
<text text-anchor="middle" x="698.5" y="-31" font-family="Helvetica,sans-Serif" font-size="10.00">::imu::BMI088::accMultiRead</text>
</a>
</g>
</g>
<!-- Node2 -->
<g id="Node000002" class="node">
<title>Node2</title>
<g id="a_Node000002"><a xlink:href="classhello__world_1_1devices_1_1imu_1_1_b_m_i088.html#ad236f84f69a0ef4e8befa96479bf5618" target="_top" xlink:title="获取加速度计数据">
<polygon fill="white" stroke="#666666" points="591,-78 457,-78 457,-48 591,-48 591,-78"/>
<text text-anchor="start" x="465" y="-66" font-family="Helvetica,sans-Serif" font-size="10.00">hello_world::devices</text>
<text text-anchor="middle" x="524" y="-55" font-family="Helvetica,sans-Serif" font-size="10.00">::imu::BMI088::getAccData</text>
</a>
</g>
</g>
<!-- Node1&#45;&gt;Node2 -->
<g id="edge1_Node000001_Node000002" class="edge">
<title>Node1&#45;&gt;Node2</title>
<g id="a_edge1_Node000001_Node000002"><a xlink:title=" ">
<path fill="none" stroke="#63b8ff" d="M616.04,-50.33C607.78,-51.48 599.46,-52.64 591.38,-53.76"/>
<polygon fill="#63b8ff" stroke="#63b8ff" points="616.42,-53.68 625.84,-48.83 615.45,-46.74 616.42,-53.68"/>
</a>
</g>
</g>
<!-- Node7 -->
<g id="Node000007" class="node">
<title>Node7</title>
<g id="a_Node000007"><a xlink:href="classhello__world_1_1devices_1_1imu_1_1_b_m_i088.html#a0672cec3591e037942c7bc03b31dd24a" target="_top" xlink:title="获取温度数据">
<polygon fill="white" stroke="#666666" points="584.5,-30 463.5,-30 463.5,0 584.5,0 584.5,-30"/>
<text text-anchor="start" x="471.5" y="-18" font-family="Helvetica,sans-Serif" font-size="10.00">hello_world::devices</text>
<text text-anchor="middle" x="524" y="-7" font-family="Helvetica,sans-Serif" font-size="10.00">::imu::BMI088::getTemp</text>
</a>
</g>
</g>
<!-- Node1&#45;&gt;Node7 -->
<g id="edge6_Node000001_Node000007" class="edge">
<title>Node1&#45;&gt;Node7</title>
<g id="a_edge6_Node000001_Node000007"><a xlink:title=" ">
<path fill="none" stroke="#63b8ff" d="M615.96,-27.66C605.46,-26.19 594.87,-24.72 584.81,-23.32"/>
<polygon fill="#63b8ff" stroke="#63b8ff" points="615.45,-31.26 625.84,-29.17 616.42,-24.32 615.45,-31.26"/>
</a>
</g>
</g>
<!-- Node3 -->
<g id="Node000003" class="node">
<title>Node3</title>
<g id="a_Node000003"><a xlink:href="classhello__world_1_1devices_1_1imu_1_1_b_m_i088.html#a7bc81c0ed908d469d3c0bde126a80311" target="_top" xlink:title="加速度计自检测">
<polygon fill="white" stroke="#666666" points="421,-78 287,-78 287,-48 421,-48 421,-78"/>
<text text-anchor="start" x="295" y="-66" font-family="Helvetica,sans-Serif" font-size="10.00">hello_world::devices</text>
<text text-anchor="middle" x="354" y="-55" font-family="Helvetica,sans-Serif" font-size="10.00">::imu::BMI088::accSelfTest</text>
</a>
</g>
</g>
<!-- Node2&#45;&gt;Node3 -->
<g id="edge2_Node000002_Node000003" class="edge">
<title>Node2&#45;&gt;Node3</title>
<g id="a_edge2_Node000002_Node000003"><a xlink:title=" ">
<path fill="none" stroke="#63b8ff" d="M445.66,-63C437.58,-63 429.41,-63 421.47,-63"/>
<polygon fill="#63b8ff" stroke="#63b8ff" points="445.6,-66.5 455.6,-63 445.6,-59.5 445.6,-66.5"/>
</a>
</g>
</g>
<!-- Node6 -->
<g id="Node000006" class="node">
<title>Node6</title>
<g id="a_Node000006"><a xlink:href="classhello__world_1_1devices_1_1imu_1_1_b_m_i088.html#aa4b8ef9d615c0ead67e6b88c34bd84d1" target="_top" xlink:title="获取传感器数据">
<polygon fill="white" stroke="#666666" points="412.5,-30 295.5,-30 295.5,0 412.5,0 412.5,-30"/>
<text text-anchor="start" x="303.5" y="-18" font-family="Helvetica,sans-Serif" font-size="10.00">hello_world::devices</text>
<text text-anchor="middle" x="354" y="-7" font-family="Helvetica,sans-Serif" font-size="10.00">::imu::BMI088::getData</text>
</a>
</g>
</g>
<!-- Node2&#45;&gt;Node6 -->
<g id="edge5_Node000002_Node000006" class="edge">
<title>Node2&#45;&gt;Node6</title>
<g id="a_edge5_Node000002_Node000006"><a xlink:title=" ">
<path fill="none" stroke="#63b8ff" d="M458.37,-44.54C442.06,-39.87 424.71,-34.92 408.98,-30.42"/>
<polygon fill="#63b8ff" stroke="#63b8ff" points="457.34,-48.17 467.92,-47.55 459.27,-41.44 457.34,-48.17"/>
</a>
</g>
</g>
<!-- Node4 -->
<g id="Node000004" class="node">
<title>Node4</title>
<g id="a_Node000004"><a xlink:href="classhello__world_1_1devices_1_1imu_1_1_b_m_i088.html#af18363d9dd6de94e4961ce1772923483" target="_top" xlink:title="加速度计配置">
<polygon fill="white" stroke="#666666" points="251,-78 139,-78 139,-48 251,-48 251,-78"/>
<text text-anchor="start" x="147" y="-66" font-family="Helvetica,sans-Serif" font-size="10.00">hello_world::devices</text>
<text text-anchor="middle" x="195" y="-55" font-family="Helvetica,sans-Serif" font-size="10.00">::imu::BMI088::accInit</text>
</a>
</g>
</g>
<!-- Node3&#45;&gt;Node4 -->
<g id="edge3_Node000003_Node000004" class="edge">
<title>Node3&#45;&gt;Node4</title>
<g id="a_edge3_Node000003_Node000004"><a xlink:title=" ">
<path fill="none" stroke="#63b8ff" d="M275.92,-63C267.55,-63 259.17,-63 251.14,-63"/>
<polygon fill="#63b8ff" stroke="#63b8ff" points="275.87,-66.5 285.87,-63 275.87,-59.5 275.87,-66.5"/>
</a>
</g>
</g>
<!-- Node5 -->
<g id="Node000005" class="node">
<title>Node5</title>
<g id="a_Node000005"><a xlink:href="classhello__world_1_1devices_1_1imu_1_1_b_m_i088.html#a623a7d90db0585ea45bac12fd3d19061" target="_top" xlink:title="进行 BMI088 芯片配置">
<polygon fill="white" stroke="#666666" points="103,-78 0,-78 0,-48 103,-48 103,-78"/>
<text text-anchor="start" x="8" y="-66" font-family="Helvetica,sans-Serif" font-size="10.00">hello_world::devices</text>
<text text-anchor="middle" x="51.5" y="-55" font-family="Helvetica,sans-Serif" font-size="10.00">::imu::BMI088::init</text>
</a>
</g>
</g>
<!-- Node4&#45;&gt;Node5 -->
<g id="edge4_Node000004_Node000005" class="edge">
<title>Node4&#45;&gt;Node5</title>
<g id="a_edge4_Node000004_Node000005"><a xlink:title=" ">
<path fill="none" stroke="#63b8ff" d="M127.98,-63C119.61,-63 111.15,-63 103.07,-63"/>
<polygon fill="#63b8ff" stroke="#63b8ff" points="127.89,-66.5 137.89,-63 127.89,-59.5 127.89,-66.5"/>
</a>
</g>
</g>
<!-- Node7&#45;&gt;Node6 -->
<g id="edge7_Node000007_Node000006" class="edge">
<title>Node7&#45;&gt;Node6</title>
<g id="a_edge7_Node000007_Node000006"><a xlink:title=" ">
<path fill="none" stroke="#63b8ff" d="M452.36,-15C439.18,-15 425.56,-15 412.82,-15"/>
<polygon fill="#63b8ff" stroke="#63b8ff" points="452.3,-18.5 462.3,-15 452.3,-11.5 452.3,-18.5"/>
</a>
</g>
</g>
</g>
</svg>
