<?xml version="1.0" encoding="UTF-8" standalone="no"?>
<!DOCTYPE svg PUBLIC "-//W3C//DTD SVG 1.1//EN"
 "http://www.w3.org/Graphics/SVG/1.1/DTD/svg11.dtd">
<!-- Generated by graphviz version 8.0.3 (20230416.2022)
 -->
<!-- Title: hello_world::devices::motor::DM_J4310::setInput Pages: 1 -->
<svg width="465pt" height="268pt"
 viewBox="0.00 0.00 465.00 267.50" xmlns="http://www.w3.org/2000/svg" xmlns:xlink="http://www.w3.org/1999/xlink">
<g id="graph0" class="graph" transform="scale(1 1) rotate(0) translate(4 263.5)">
<title>hello_world::devices::motor::DM_J4310::setInput</title>
<!-- Node1 -->
<g id="Node000001" class="node">
<title>Node1</title>
<g id="a_Node000001"><a xlink:title="设定发给电调的期望值">
<polygon fill="#999999" stroke="#666666" points="140,-150 0,-150 0,-120 140,-120 140,-150"/>
<text text-anchor="start" x="8" y="-138" font-family="Helvetica,sans-Serif" font-size="10.00">hello_world::devices</text>
<text text-anchor="middle" x="70" y="-127" font-family="Helvetica,sans-Serif" font-size="10.00">::motor::DM_J4310::setInput</text>
</a>
</g>
</g>
<!-- Node2 -->
<g id="Node000002" class="node">
<title>Node2</title>
<g id="a_Node000002"><a xlink:href="namespacehello__world.html#a34cb06299a34f746d556d23dc16904aa" target="_top" xlink:title="将输入值限制在一个范围内">
<polygon fill="white" stroke="#666666" points="296,-259.5 198,-259.5 198,-240.5 296,-240.5 296,-259.5"/>
<text text-anchor="middle" x="247" y="-247.5" font-family="Helvetica,sans-Serif" font-size="10.00">hello_world::Bound</text>
</a>
</g>
</g>
<!-- Node1&#45;&gt;Node2 -->
<g id="edge1_Node000001_Node000002" class="edge">
<title>Node1&#45;&gt;Node2</title>
<g id="a_edge1_Node000001_Node000002"><a xlink:title=" ">
<path fill="none" stroke="#63b8ff" d="M83.57,-150.4C101.76,-171.68 137.48,-209.81 176,-231 179.68,-233.02 183.59,-234.84 187.61,-236.48"/>
<polygon fill="#63b8ff" stroke="#63b8ff" points="186.15,-240.04 196.74,-240.17 188.54,-233.46 186.15,-240.04"/>
</a>
</g>
</g>
<!-- Node3 -->
<g id="Node000003" class="node">
<title>Node3</title>
<g id="a_Node000003"><a xlink:href="classhello__world_1_1devices_1_1motor_1_1_d_m___j4310.html#a358bd9981d81d72077e27f42d775e431" target="_top" xlink:title="将转子电流转换为原始报文内容">
<polygon fill="white" stroke="#666666" points="318,-174 176,-174 176,-144 318,-144 318,-174"/>
<text text-anchor="start" x="184" y="-162" font-family="Helvetica,sans-Serif" font-size="10.00">hello_world::devices</text>
<text text-anchor="middle" x="247" y="-151" font-family="Helvetica,sans-Serif" font-size="10.00">::motor::DM_J4310::curr2raw</text>
</a>
</g>
</g>
<!-- Node1&#45;&gt;Node3 -->
<g id="edge2_Node000001_Node000003" class="edge">
<title>Node1&#45;&gt;Node3</title>
<g id="a_edge2_Node000001_Node000003"><a xlink:title=" ">
<path fill="none" stroke="#63b8ff" d="M140.42,-144.52C148.44,-145.62 156.69,-146.75 164.85,-147.87"/>
<polygon fill="#63b8ff" stroke="#63b8ff" points="164.14,-151.44 174.52,-149.33 165.09,-144.51 164.14,-151.44"/>
</a>
</g>
</g>
<!-- Node6 -->
<g id="Node000006" class="node">
<title>Node6</title>
<g id="a_Node000006"><a xlink:href="classhello__world_1_1devices_1_1motor_1_1_motor.html#a6e11db30817cf05232ee3d52ed48030b" target="_top" xlink:title="将转子电流转换为输出端力矩">
<polygon fill="white" stroke="#666666" points="308,-222 186,-222 186,-192 308,-192 308,-222"/>
<text text-anchor="start" x="194" y="-210" font-family="Helvetica,sans-Serif" font-size="10.00">hello_world::devices</text>
<text text-anchor="middle" x="247" y="-199" font-family="Helvetica,sans-Serif" font-size="10.00">::motor::Motor::curr2torq</text>
</a>
</g>
</g>
<!-- Node1&#45;&gt;Node6 -->
<g id="edge5_Node000001_Node000006" class="edge">
<title>Node1&#45;&gt;Node6</title>
<g id="a_edge5_Node000001_Node000006"><a xlink:title=" ">
<path fill="none" stroke="#63b8ff" d="M102.35,-150.31C123.04,-160.17 150.87,-172.97 176,-183 180.16,-184.66 184.49,-186.31 188.86,-187.93"/>
<polygon fill="#63b8ff" stroke="#63b8ff" points="187.48,-191.52 198.08,-191.63 189.86,-184.93 187.48,-191.52"/>
</a>
</g>
</g>
<!-- Node7 -->
<g id="Node000007" class="node">
<title>Node7</title>
<g id="a_Node000007"><a xlink:href="classhello__world_1_1devices_1_1motor_1_1_d_m___j4310.html#aa2784ed2ea68d2c48641004fdbd5ea52" target="_top" xlink:title="将原始报文内容转换为输出端力矩">
<polygon fill="white" stroke="#666666" points="318,-30 176,-30 176,0 318,0 318,-30"/>
<text text-anchor="start" x="184" y="-18" font-family="Helvetica,sans-Serif" font-size="10.00">hello_world::devices</text>
<text text-anchor="middle" x="247" y="-7" font-family="Helvetica,sans-Serif" font-size="10.00">::motor::DM_J4310::raw2torq</text>
</a>
</g>
</g>
<!-- Node1&#45;&gt;Node7 -->
<g id="edge7_Node000001_Node000007" class="edge">
<title>Node1&#45;&gt;Node7</title>
<g id="a_edge7_Node000001_Node000007"><a xlink:title=" ">
<path fill="none" stroke="#63b8ff" d="M84.08,-119.59C102.6,-98.66 138.4,-61.31 176,-39 178.37,-37.59 180.83,-36.26 183.36,-34.98"/>
<polygon fill="#63b8ff" stroke="#63b8ff" points="184.71,-37.76 192.33,-30.4 181.78,-31.4 184.71,-37.76"/>
</a>
</g>
</g>
<!-- Node9 -->
<g id="Node000009" class="node">
<title>Node9</title>
<g id="a_Node000009"><a xlink:href="classhello__world_1_1devices_1_1motor_1_1_motor.html#a44292bfea784425e2c2c81dc4d634371" target="_top" xlink:title="将输出端力矩转换为转子电流">
<polygon fill="white" stroke="#666666" points="308,-78 186,-78 186,-48 308,-48 308,-78"/>
<text text-anchor="start" x="194" y="-66" font-family="Helvetica,sans-Serif" font-size="10.00">hello_world::devices</text>
<text text-anchor="middle" x="247" y="-55" font-family="Helvetica,sans-Serif" font-size="10.00">::motor::Motor::torq2curr</text>
</a>
</g>
</g>
<!-- Node1&#45;&gt;Node9 -->
<g id="edge9_Node000001_Node000009" class="edge">
<title>Node1&#45;&gt;Node9</title>
<g id="a_edge9_Node000001_Node000009"><a xlink:title=" ">
<path fill="none" stroke="#63b8ff" d="M102.35,-119.69C123.04,-109.83 150.87,-97.03 176,-87 180.16,-85.34 184.49,-83.69 188.86,-82.07"/>
<polygon fill="#63b8ff" stroke="#63b8ff" points="189.86,-85.07 198.08,-78.37 187.48,-78.48 189.86,-85.07"/>
</a>
</g>
</g>
<!-- Node11 -->
<g id="Node000011" class="node">
<title>Node11</title>
<g id="a_Node000011"><a xlink:href="classhello__world_1_1devices_1_1motor_1_1_d_m___j4310.html#ace039722135c1bf08b429a4ad41ccc81" target="_top" xlink:title="将输出端力矩转换为原始报文内容">
<polygon fill="white" stroke="#666666" points="318,-126 176,-126 176,-96 318,-96 318,-126"/>
<text text-anchor="start" x="184" y="-114" font-family="Helvetica,sans-Serif" font-size="10.00">hello_world::devices</text>
<text text-anchor="middle" x="247" y="-103" font-family="Helvetica,sans-Serif" font-size="10.00">::motor::DM_J4310::torq2raw</text>
</a>
</g>
</g>
<!-- Node1&#45;&gt;Node11 -->
<g id="edge11_Node000001_Node000011" class="edge">
<title>Node1&#45;&gt;Node11</title>
<g id="a_edge11_Node000001_Node000011"><a xlink:title=" ">
<path fill="none" stroke="#63b8ff" d="M140.42,-125.48C148.44,-124.38 156.69,-123.25 164.85,-122.13"/>
<polygon fill="#63b8ff" stroke="#63b8ff" points="165.09,-125.49 174.52,-120.67 164.14,-118.56 165.09,-125.49"/>
</a>
</g>
</g>
<!-- Node4 -->
<g id="Node000004" class="node">
<title>Node4</title>
<g id="a_Node000004"><a xlink:href="namespacehello__world_1_1devices_1_1motor.html#a5102e8812e14a2caaf3a2fc96b18efa3" target="_top" xlink:title="根据给定的范围和位数，将 float 转换为 uint">
<polygon fill="white" stroke="#666666" points="457,-162 354,-162 354,-132 457,-132 457,-162"/>
<text text-anchor="start" x="362" y="-150" font-family="Helvetica,sans-Serif" font-size="10.00">hello_world::devices</text>
<text text-anchor="middle" x="405.5" y="-139" font-family="Helvetica,sans-Serif" font-size="10.00">::motor::_Float2Uint</text>
</a>
</g>
</g>
<!-- Node3&#45;&gt;Node4 -->
<g id="edge3_Node000003_Node000004" class="edge">
<title>Node3&#45;&gt;Node4</title>
<g id="a_edge3_Node000003_Node000004"><a xlink:title=" ">
<path fill="none" stroke="#63b8ff" d="M318.47,-153.6C326.61,-152.97 334.87,-152.34 342.88,-151.72"/>
<polygon fill="#63b8ff" stroke="#63b8ff" points="342.92,-155.16 352.62,-150.9 342.38,-148.18 342.92,-155.16"/>
</a>
</g>
</g>
<!-- Node5 -->
<g id="Node000005" class="node">
<title>Node5</title>
<g id="a_Node000005"><a xlink:href="classhello__world_1_1devices_1_1motor_1_1_motor.html#a7fbec1460a1db6c45b4c57fd0497e5e0" target="_top" xlink:title=" ">
<polygon fill="white" stroke="#666666" points="457,-216 354,-216 354,-186 457,-186 457,-216"/>
<text text-anchor="start" x="362" y="-204" font-family="Helvetica,sans-Serif" font-size="10.00">hello_world::devices</text>
<text text-anchor="middle" x="405.5" y="-193" font-family="Helvetica,sans-Serif" font-size="10.00">::motor::Motor::curr</text>
</a>
</g>
</g>
<!-- Node3&#45;&gt;Node5 -->
<g id="edge4_Node000003_Node000005" class="edge">
<title>Node3&#45;&gt;Node5</title>
<g id="a_edge4_Node000003_Node000005"><a xlink:title=" ">
<path fill="none" stroke="#63b8ff" d="M305.39,-174.4C317.72,-177.71 330.8,-181.22 343.28,-184.57"/>
<polygon fill="#63b8ff" stroke="#63b8ff" points="342.02,-188.12 352.59,-187.34 343.83,-181.36 342.02,-188.12"/>
</a>
</g>
</g>
<!-- Node6&#45;&gt;Node5 -->
<g id="edge6_Node000006_Node000005" class="edge">
<title>Node6&#45;&gt;Node5</title>
<g id="a_edge6_Node000006_Node000005"><a xlink:title=" ">
<path fill="none" stroke="#63b8ff" d="M308.06,-204.7C319.43,-204.26 331.33,-203.81 342.75,-203.37"/>
<polygon fill="#63b8ff" stroke="#63b8ff" points="342.65,-206.84 352.51,-202.95 342.39,-199.84 342.65,-206.84"/>
</a>
</g>
</g>
<!-- Node8 -->
<g id="Node000008" class="node">
<title>Node8</title>
<g id="a_Node000008"><a xlink:href="namespacehello__world_1_1devices_1_1motor.html#aa4ac89a85a2b03e90b1606d4c9962f7c" target="_top" xlink:title="根据给定的范围和位数，将 uint 转换为 float">
<polygon fill="white" stroke="#666666" points="457,-30 354,-30 354,0 457,0 457,-30"/>
<text text-anchor="start" x="362" y="-18" font-family="Helvetica,sans-Serif" font-size="10.00">hello_world::devices</text>
<text text-anchor="middle" x="405.5" y="-7" font-family="Helvetica,sans-Serif" font-size="10.00">::motor::_Uint2Float</text>
</a>
</g>
</g>
<!-- Node7&#45;&gt;Node8 -->
<g id="edge8_Node000007_Node000008" class="edge">
<title>Node7&#45;&gt;Node8</title>
<g id="a_edge8_Node000007_Node000008"><a xlink:title=" ">
<path fill="none" stroke="#63b8ff" d="M318.47,-15C326.61,-15 334.87,-15 342.88,-15"/>
<polygon fill="#63b8ff" stroke="#63b8ff" points="342.62,-18.5 352.62,-15 342.62,-11.5 342.62,-18.5"/>
</a>
</g>
</g>
<!-- Node10 -->
<g id="Node000010" class="node">
<title>Node10</title>
<g id="a_Node000010"><a xlink:href="classhello__world_1_1devices_1_1motor_1_1_motor.html#a987073404f2d04c10434f830884b9612" target="_top" xlink:title=" ">
<polygon fill="white" stroke="#666666" points="457,-102 354,-102 354,-72 457,-72 457,-102"/>
<text text-anchor="start" x="362" y="-90" font-family="Helvetica,sans-Serif" font-size="10.00">hello_world::devices</text>
<text text-anchor="middle" x="405.5" y="-79" font-family="Helvetica,sans-Serif" font-size="10.00">::motor::Motor::torq</text>
</a>
</g>
</g>
<!-- Node9&#45;&gt;Node10 -->
<g id="edge10_Node000009_Node000010" class="edge">
<title>Node9&#45;&gt;Node10</title>
<g id="a_edge10_Node000009_Node000010"><a xlink:title=" ">
<path fill="none" stroke="#63b8ff" d="M308.06,-72.21C319.43,-73.95 331.33,-75.78 342.75,-77.53"/>
<polygon fill="#63b8ff" stroke="#63b8ff" points="342.1,-81.12 352.51,-79.18 343.16,-74.21 342.1,-81.12"/>
</a>
</g>
</g>
<!-- Node11&#45;&gt;Node4 -->
<g id="edge12_Node000011_Node000004" class="edge">
<title>Node11&#45;&gt;Node4</title>
<g id="a_edge12_Node000011_Node000004"><a xlink:title=" ">
<path fill="none" stroke="#63b8ff" d="M315.28,-126.48C324.57,-128.61 334.07,-130.8 343.24,-132.91"/>
<polygon fill="#63b8ff" stroke="#63b8ff" points="342.29,-136.51 352.82,-135.34 343.86,-129.69 342.29,-136.51"/>
</a>
</g>
</g>
<!-- Node11&#45;&gt;Node10 -->
<g id="edge13_Node000011_Node000010" class="edge">
<title>Node11&#45;&gt;Node10</title>
<g id="a_edge13_Node000011_Node000010"><a xlink:title=" ">
<path fill="none" stroke="#63b8ff" d="M318.47,-100.19C326.61,-98.94 334.87,-97.68 342.88,-96.45"/>
<polygon fill="#63b8ff" stroke="#63b8ff" points="343.27,-99.78 352.62,-94.8 342.21,-92.86 343.27,-99.78"/>
</a>
</g>
</g>
</g>
</svg>
