<?xml version="1.0" encoding="UTF-8" standalone="no"?>
<!DOCTYPE svg PUBLIC "-//W3C//DTD SVG 1.1//EN"
 "http://www.w3.org/Graphics/SVG/1.1/DTD/svg11.dtd">
<!-- Generated by graphviz version 8.0.3 (20230416.2022)
 -->
<!-- Title: hello_world::devices::motor::Motor::raw2torq Pages: 1 -->
<svg width="313pt" height="566pt"
 viewBox="0.00 0.00 313.00 566.00" xmlns="http://www.w3.org/2000/svg" xmlns:xlink="http://www.w3.org/1999/xlink">
<g id="graph0" class="graph" transform="scale(1 1) rotate(0) translate(4 562)">
<title>hello_world::devices::motor::Motor::raw2torq</title>
<!-- Node1 -->
<g id="Node000001" class="node">
<title>Node1</title>
<g id="a_Node000001"><a xlink:title="将原始报文内容转换为输出端力矩">
<polygon fill="#999999" stroke="#666666" points="305,-294 184,-294 184,-264 305,-264 305,-294"/>
<text text-anchor="start" x="192" y="-282" font-family="Helvetica,sans-Serif" font-size="10.00">hello_world::devices</text>
<text text-anchor="middle" x="244.5" y="-271" font-family="Helvetica,sans-Serif" font-size="10.00">::motor::Motor::raw2torq</text>
</a>
</g>
</g>
<!-- Node2 -->
<g id="Node000002" class="node">
<title>Node2</title>
<g id="a_Node000002"><a xlink:href="classhello__world_1_1devices_1_1motor_1_1_a1.html#a1c439b72ce074a0e04d38b06749f499c" target="_top" xlink:title="A1 初始化">
<polygon fill="white" stroke="#666666" points="125.5,-558 22.5,-558 22.5,-528 125.5,-528 125.5,-558"/>
<text text-anchor="start" x="30.5" y="-546" font-family="Helvetica,sans-Serif" font-size="10.00">hello_world::devices</text>
<text text-anchor="middle" x="74" y="-535" font-family="Helvetica,sans-Serif" font-size="10.00">::motor::A1::A1</text>
</a>
</g>
</g>
<!-- Node1&#45;&gt;Node2 -->
<g id="edge1_Node000001_Node000002" class="edge">
<title>Node1&#45;&gt;Node2</title>
<g id="a_edge1_Node000001_Node000002"><a xlink:title=" ">
<path fill="none" stroke="#63b8ff" d="M240.4,-305.01C233.21,-353.88 210.9,-459.83 148,-519 141.68,-524.94 133.87,-529.41 125.72,-532.78"/>
<polygon fill="#63b8ff" stroke="#63b8ff" points="243.96,-305.79 241.85,-295.41 237.03,-304.84 243.96,-305.79"/>
</a>
</g>
</g>
<!-- Node3 -->
<g id="Node000003" class="node">
<title>Node3</title>
<g id="a_Node000003"><a xlink:href="classhello__world_1_1devices_1_1motor_1_1_a1.html#a1dc9df605f9df5fff3b2bc8ed4a63ff8" target="_top" xlink:title="将电调发回的 CAN 报文进行解包">
<polygon fill="white" stroke="#666666" points="125.5,-510 22.5,-510 22.5,-480 125.5,-480 125.5,-510"/>
<text text-anchor="start" x="30.5" y="-498" font-family="Helvetica,sans-Serif" font-size="10.00">hello_world::devices</text>
<text text-anchor="middle" x="74" y="-487" font-family="Helvetica,sans-Serif" font-size="10.00">::motor::A1::decode</text>
</a>
</g>
</g>
<!-- Node1&#45;&gt;Node3 -->
<g id="edge2_Node000001_Node000003" class="edge">
<title>Node1&#45;&gt;Node3</title>
<g id="a_edge2_Node000001_Node000003"><a xlink:title=" ">
<path fill="none" stroke="#63b8ff" d="M237.49,-304.95C226.66,-346.04 199.98,-426.01 148,-471 141.54,-476.59 133.75,-480.88 125.7,-484.18"/>
<polygon fill="#63b8ff" stroke="#63b8ff" points="241.09,-306.01 240.14,-295.46 234.3,-304.3 241.09,-306.01"/>
</a>
</g>
</g>
<!-- Node4 -->
<g id="Node000004" class="node">
<title>Node4</title>
<g id="a_Node000004"><a xlink:href="classhello__world_1_1devices_1_1motor_1_1_g_m6020.html#a732687f3fc5d5d302135f950ac260e3f" target="_top" xlink:title="将电调发回的 CAN 报文进行解包">
<polygon fill="white" stroke="#666666" points="138,-462 10,-462 10,-432 138,-432 138,-462"/>
<text text-anchor="start" x="18" y="-450" font-family="Helvetica,sans-Serif" font-size="10.00">hello_world::devices</text>
<text text-anchor="middle" x="74" y="-439" font-family="Helvetica,sans-Serif" font-size="10.00">::motor::GM6020::decode</text>
</a>
</g>
</g>
<!-- Node1&#45;&gt;Node4 -->
<g id="edge3_Node000001_Node000004" class="edge">
<title>Node1&#45;&gt;Node4</title>
<g id="a_edge3_Node000001_Node000004"><a xlink:title=" ">
<path fill="none" stroke="#63b8ff" d="M233.01,-304.45C218.51,-336.58 189.36,-391.46 148,-423 143.65,-426.32 138.82,-429.19 133.78,-431.67"/>
<polygon fill="#63b8ff" stroke="#63b8ff" points="236.56,-306.06 237.36,-295.49 230.15,-303.25 236.56,-306.06"/>
</a>
</g>
</g>
<!-- Node5 -->
<g id="Node000005" class="node">
<title>Node5</title>
<g id="a_Node000005"><a xlink:href="classhello__world_1_1devices_1_1motor_1_1_m2006.html#a4f74b1c55fc5c0f9e7c28d329ff0c9cd" target="_top" xlink:title="将电调发回的 CAN 报文进行解包">
<polygon fill="white" stroke="#666666" points="134,-414 14,-414 14,-384 134,-384 134,-414"/>
<text text-anchor="start" x="22" y="-402" font-family="Helvetica,sans-Serif" font-size="10.00">hello_world::devices</text>
<text text-anchor="middle" x="74" y="-391" font-family="Helvetica,sans-Serif" font-size="10.00">::motor::M2006::decode</text>
</a>
</g>
</g>
<!-- Node1&#45;&gt;Node5 -->
<g id="edge4_Node000001_Node000005" class="edge">
<title>Node1&#45;&gt;Node5</title>
<g id="a_edge4_Node000001_Node000005"><a xlink:title=" ">
<path fill="none" stroke="#63b8ff" d="M225.37,-302.79C207.75,-324.41 179.16,-355.77 148,-375 142.78,-378.22 137.07,-381.06 131.23,-383.55"/>
<polygon fill="#63b8ff" stroke="#63b8ff" points="228.73,-305.19 232.22,-295.19 223.26,-300.83 228.73,-305.19"/>
</a>
</g>
</g>
<!-- Node6 -->
<g id="Node000006" class="node">
<title>Node6</title>
<g id="a_Node000006"><a xlink:href="classhello__world_1_1devices_1_1motor_1_1_m3508.html#aec43855db5fbc6a2fb7b3b550b601f8e" target="_top" xlink:title="将电调发回的 CAN 报文进行解包">
<polygon fill="white" stroke="#666666" points="134,-366 14,-366 14,-336 134,-336 134,-366"/>
<text text-anchor="start" x="22" y="-354" font-family="Helvetica,sans-Serif" font-size="10.00">hello_world::devices</text>
<text text-anchor="middle" x="74" y="-343" font-family="Helvetica,sans-Serif" font-size="10.00">::motor::M3508::decode</text>
</a>
</g>
</g>
<!-- Node1&#45;&gt;Node6 -->
<g id="edge5_Node000001_Node000006" class="edge">
<title>Node1&#45;&gt;Node6</title>
<g id="a_edge5_Node000001_Node000006"><a xlink:title=" ">
<path fill="none" stroke="#63b8ff" d="M206.34,-299.29C188.91,-308.39 167.68,-318.87 148,-327 140.72,-330 132.93,-332.9 125.23,-335.57"/>
<polygon fill="#63b8ff" stroke="#63b8ff" points="207.39,-302.17 214.6,-294.4 204.12,-295.97 207.39,-302.17"/>
</a>
</g>
</g>
<!-- Node7 -->
<g id="Node000007" class="node">
<title>Node7</title>
<g id="a_Node000007"><a xlink:href="classhello__world_1_1devices_1_1motor_1_1_m8910.html#ae5b934cb41237293299dce618befba6d" target="_top" xlink:title="将电调发回的 CAN 报文进行解包">
<polygon fill="white" stroke="#666666" points="134,-318 14,-318 14,-288 134,-288 134,-318"/>
<text text-anchor="start" x="22" y="-306" font-family="Helvetica,sans-Serif" font-size="10.00">hello_world::devices</text>
<text text-anchor="middle" x="74" y="-295" font-family="Helvetica,sans-Serif" font-size="10.00">::motor::M8910::decode</text>
</a>
</g>
</g>
<!-- Node1&#45;&gt;Node7 -->
<g id="edge6_Node000001_Node000007" class="edge">
<title>Node1&#45;&gt;Node7</title>
<g id="a_edge6_Node000001_Node000007"><a xlink:title=" ">
<path fill="none" stroke="#63b8ff" d="M172.97,-289.05C160.14,-290.87 146.87,-292.76 134.4,-294.54"/>
<polygon fill="#63b8ff" stroke="#63b8ff" points="173.21,-292.4 182.62,-287.53 172.23,-285.47 173.21,-292.4"/>
</a>
</g>
</g>
<!-- Node8 -->
<g id="Node000008" class="node">
<title>Node8</title>
<g id="a_Node000008"><a xlink:href="classhello__world_1_1devices_1_1motor_1_1_m_f9025v2.html#ab446cad174a3d963931102233a88c7e8" target="_top" xlink:title="将电调发回的 CAN 报文进行解包">
<polygon fill="white" stroke="#666666" points="141.5,-270 6.5,-270 6.5,-240 141.5,-240 141.5,-270"/>
<text text-anchor="start" x="14.5" y="-258" font-family="Helvetica,sans-Serif" font-size="10.00">hello_world::devices</text>
<text text-anchor="middle" x="74" y="-247" font-family="Helvetica,sans-Serif" font-size="10.00">::motor::MF9025v2::decode</text>
</a>
</g>
</g>
<!-- Node1&#45;&gt;Node8 -->
<g id="edge7_Node000001_Node000008" class="edge">
<title>Node1&#45;&gt;Node8</title>
<g id="a_edge7_Node000001_Node000008"><a xlink:title=" ">
<path fill="none" stroke="#63b8ff" d="M173,-268.96C162.69,-267.49 152.09,-265.98 141.85,-264.52"/>
<polygon fill="#63b8ff" stroke="#63b8ff" points="172.23,-272.53 182.62,-270.47 173.21,-265.6 172.23,-272.53"/>
</a>
</g>
</g>
<!-- Node9 -->
<g id="Node000009" class="node">
<title>Node9</title>
<g id="a_Node000009"><a xlink:href="classhello__world_1_1devices_1_1motor_1_1_m2006.html#a52ce5e7bbbb2fffe82f86291b8876221" target="_top" xlink:title="M2006 初始化">
<polygon fill="white" stroke="#666666" points="133,-222 15,-222 15,-192 133,-192 133,-222"/>
<text text-anchor="start" x="23" y="-210" font-family="Helvetica,sans-Serif" font-size="10.00">hello_world::devices</text>
<text text-anchor="middle" x="74" y="-199" font-family="Helvetica,sans-Serif" font-size="10.00">::motor::M2006::M2006</text>
</a>
</g>
</g>
<!-- Node1&#45;&gt;Node9 -->
<g id="edge8_Node000001_Node000009" class="edge">
<title>Node1&#45;&gt;Node9</title>
<g id="a_edge8_Node000001_Node000009"><a xlink:title=" ">
<path fill="none" stroke="#63b8ff" d="M206.34,-258.71C188.91,-249.61 167.68,-239.13 148,-231 140.72,-228 132.93,-225.1 125.23,-222.43"/>
<polygon fill="#63b8ff" stroke="#63b8ff" points="204.12,-262.03 214.6,-263.6 207.39,-255.83 204.12,-262.03"/>
</a>
</g>
</g>
<!-- Node10 -->
<g id="Node000010" class="node">
<title>Node10</title>
<g id="a_Node000010"><a xlink:href="classhello__world_1_1devices_1_1motor_1_1_m3508.html#a2fbed6fbaa90b42893978a1805ea78e6" target="_top" xlink:title="M3508 初始化">
<polygon fill="white" stroke="#666666" points="133,-174 15,-174 15,-144 133,-144 133,-174"/>
<text text-anchor="start" x="23" y="-162" font-family="Helvetica,sans-Serif" font-size="10.00">hello_world::devices</text>
<text text-anchor="middle" x="74" y="-151" font-family="Helvetica,sans-Serif" font-size="10.00">::motor::M3508::M3508</text>
</a>
</g>
</g>
<!-- Node1&#45;&gt;Node10 -->
<g id="edge9_Node000001_Node000010" class="edge">
<title>Node1&#45;&gt;Node10</title>
<g id="a_edge9_Node000001_Node000010"><a xlink:title=" ">
<path fill="none" stroke="#63b8ff" d="M225.37,-255.21C207.75,-233.59 179.16,-202.23 148,-183 142.78,-179.78 137.07,-176.94 131.23,-174.45"/>
<polygon fill="#63b8ff" stroke="#63b8ff" points="223.26,-257.17 232.22,-262.81 228.73,-252.81 223.26,-257.17"/>
</a>
</g>
</g>
<!-- Node11 -->
<g id="Node000011" class="node">
<title>Node11</title>
<g id="a_Node000011"><a xlink:href="classhello__world_1_1devices_1_1motor_1_1_m8910.html#accd858d8bd3db4aa48532ec8c1f8bd44" target="_top" xlink:title="M8910 初始化">
<polygon fill="white" stroke="#666666" points="133,-126 15,-126 15,-96 133,-96 133,-126"/>
<text text-anchor="start" x="23" y="-114" font-family="Helvetica,sans-Serif" font-size="10.00">hello_world::devices</text>
<text text-anchor="middle" x="74" y="-103" font-family="Helvetica,sans-Serif" font-size="10.00">::motor::M8910::M8910</text>
</a>
</g>
</g>
<!-- Node1&#45;&gt;Node11 -->
<g id="edge10_Node000001_Node000011" class="edge">
<title>Node1&#45;&gt;Node11</title>
<g id="a_edge10_Node000001_Node000011"><a xlink:title=" ">
<path fill="none" stroke="#63b8ff" d="M233.01,-253.55C218.51,-221.42 189.36,-166.54 148,-135 143.54,-131.6 138.59,-128.67 133.41,-126.15"/>
<polygon fill="#63b8ff" stroke="#63b8ff" points="230.15,-254.75 237.36,-262.51 236.56,-251.94 230.15,-254.75"/>
</a>
</g>
</g>
<!-- Node12 -->
<g id="Node000012" class="node">
<title>Node12</title>
<g id="a_Node000012"><a xlink:href="classhello__world_1_1devices_1_1motor_1_1_m_f9025v2.html#a87787e5484356144bc7bce7b229398de" target="_top" xlink:title="MF9025v2 初始化">
<polygon fill="white" stroke="#666666" points="148,-78 0,-78 0,-48 148,-48 148,-78"/>
<text text-anchor="start" x="8" y="-66" font-family="Helvetica,sans-Serif" font-size="10.00">hello_world::devices</text>
<text text-anchor="middle" x="74" y="-55" font-family="Helvetica,sans-Serif" font-size="10.00">::motor::MF9025v2::MF9025v2</text>
</a>
</g>
</g>
<!-- Node1&#45;&gt;Node12 -->
<g id="edge11_Node000001_Node000012" class="edge">
<title>Node1&#45;&gt;Node12</title>
<g id="a_edge11_Node000001_Node000012"><a xlink:title=" ">
<path fill="none" stroke="#63b8ff" d="M237.49,-253.05C226.66,-211.96 199.98,-131.99 148,-87 144.17,-83.68 139.86,-80.82 135.31,-78.35"/>
<polygon fill="#63b8ff" stroke="#63b8ff" points="234.3,-253.7 240.14,-262.54 241.09,-251.99 234.3,-253.7"/>
</a>
</g>
</g>
<!-- Node13 -->
<g id="Node000013" class="node">
<title>Node13</title>
<g id="a_Node000013"><a xlink:href="classhello__world_1_1devices_1_1motor_1_1_motor.html#ad101045a9eef9a699001fc94631e8395" target="_top" xlink:title="设定发给电调的期望值">
<polygon fill="white" stroke="#666666" points="133.5,-30 14.5,-30 14.5,0 133.5,0 133.5,-30"/>
<text text-anchor="start" x="22.5" y="-18" font-family="Helvetica,sans-Serif" font-size="10.00">hello_world::devices</text>
<text text-anchor="middle" x="74" y="-7" font-family="Helvetica,sans-Serif" font-size="10.00">::motor::Motor::setInput</text>
</a>
</g>
</g>
<!-- Node1&#45;&gt;Node13 -->
<g id="edge12_Node000001_Node000013" class="edge">
<title>Node1&#45;&gt;Node13</title>
<g id="a_edge12_Node000001_Node000013"><a xlink:title=" ">
<path fill="none" stroke="#63b8ff" d="M240.4,-252.99C233.21,-204.12 210.9,-98.17 148,-39 143.82,-35.07 138.99,-31.78 133.84,-29.03"/>
<polygon fill="#63b8ff" stroke="#63b8ff" points="237.03,-253.16 241.85,-262.59 243.96,-252.21 237.03,-253.16"/>
</a>
</g>
</g>
</g>
</svg>
