<?xml version="1.0" encoding="UTF-8" standalone="no"?>
<!DOCTYPE svg PUBLIC "-//W3C//DTD SVG 1.1//EN"
 "http://www.w3.org/Graphics/SVG/1.1/DTD/svg11.dtd">
<!-- Generated by graphviz version 8.0.3 (20230416.2022)
 -->
<!-- Title: hello_world::devices::buzzer::Buzzer::play Pages: 1 -->
<svg width="440pt" height="183pt"
 viewBox="0.00 0.00 440.00 183.00" xmlns="http://www.w3.org/2000/svg" xmlns:xlink="http://www.w3.org/1999/xlink">
<g id="graph0" class="graph" transform="scale(1 1) rotate(0) translate(4 179)">
<title>hello_world::devices::buzzer::Buzzer::play</title>
<!-- Node1 -->
<g id="Node000001" class="node">
<title>Node1</title>
<g id="a_Node000001"><a xlink:title="播放乐曲">
<polygon fill="#999999" stroke="#666666" points="113,-113.5 0,-113.5 0,-83.5 113,-83.5 113,-113.5"/>
<text text-anchor="start" x="8" y="-101.5" font-family="Helvetica,sans-Serif" font-size="10.00">hello_world::devices</text>
<text text-anchor="middle" x="56.5" y="-90.5" font-family="Helvetica,sans-Serif" font-size="10.00">::buzzer::Buzzer::play</text>
</a>
</g>
</g>
<!-- Node2 -->
<g id="Node000002" class="node">
<title>Node2</title>
<g id="a_Node000002"><a xlink:href="namespacehello__world.html#a34cb06299a34f746d556d23dc16904aa" target="_top" xlink:title="将输入值限制在一个范围内">
<polygon fill="white" stroke="#666666" points="267.5,-175 169.5,-175 169.5,-156 267.5,-156 267.5,-175"/>
<text text-anchor="middle" x="218.5" y="-163" font-family="Helvetica,sans-Serif" font-size="10.00">hello_world::Bound</text>
</a>
</g>
</g>
<!-- Node1&#45;&gt;Node2 -->
<g id="edge1_Node000001_Node000002" class="edge">
<title>Node1&#45;&gt;Node2</title>
<g id="a_edge1_Node000001_Node000002"><a xlink:title=" ">
<path fill="none" stroke="#63b8ff" d="M83.23,-113.89C101.19,-124.15 125.98,-137.39 149,-146.5 154.38,-148.63 160.08,-150.62 165.82,-152.44"/>
<polygon fill="#63b8ff" stroke="#63b8ff" points="164.52,-156 175.1,-155.54 166.54,-149.3 164.52,-156"/>
</a>
</g>
</g>
<!-- Node3 -->
<g id="Node000003" class="node">
<title>Node3</title>
<g id="a_Node000003"><a xlink:href="namespacehello__world_1_1dsp_1_1tick.html#a97910b07255da1979f8ceafd8c6d2ea5" target="_top" xlink:title=" ">
<polygon fill="white" stroke="#666666" points="272.5,-137.5 164.5,-137.5 164.5,-107.5 272.5,-107.5 272.5,-137.5"/>
<text text-anchor="start" x="172.5" y="-125.5" font-family="Helvetica,sans-Serif" font-size="10.00">hello_world::dsp::tick</text>
<text text-anchor="middle" x="218.5" y="-114.5" font-family="Helvetica,sans-Serif" font-size="10.00">::GetTickMs</text>
</a>
</g>
</g>
<!-- Node1&#45;&gt;Node3 -->
<g id="edge2_Node000001_Node000003" class="edge">
<title>Node1&#45;&gt;Node3</title>
<g id="a_edge2_Node000001_Node000003"><a xlink:title=" ">
<path fill="none" stroke="#63b8ff" d="M113.46,-106.89C126.47,-108.85 140.42,-110.94 153.74,-112.94"/>
<polygon fill="#63b8ff" stroke="#63b8ff" points="152.85,-116.49 163.26,-114.51 153.89,-109.57 152.85,-116.49"/>
</a>
</g>
</g>
<!-- Node5 -->
<g id="Node000005" class="node">
<title>Node5</title>
<g id="a_Node000005"><a xlink:href="classhello__world_1_1devices_1_1buzzer_1_1_buzzer.html#ab2c457527b41d290e2e68101c508b73a" target="_top" xlink:title="关闭蜂鸣器">
<polygon fill="white" stroke="#666666" points="276.5,-89.5 160.5,-89.5 160.5,-59.5 276.5,-59.5 276.5,-89.5"/>
<text text-anchor="start" x="168.5" y="-77.5" font-family="Helvetica,sans-Serif" font-size="10.00">hello_world::devices</text>
<text text-anchor="middle" x="218.5" y="-66.5" font-family="Helvetica,sans-Serif" font-size="10.00">::buzzer::Buzzer::mute</text>
</a>
</g>
</g>
<!-- Node1&#45;&gt;Node5 -->
<g id="edge4_Node000001_Node000005" class="edge">
<title>Node1&#45;&gt;Node5</title>
<g id="a_edge4_Node000001_Node000005"><a xlink:title=" ">
<path fill="none" stroke="#63b8ff" d="M113.46,-90.11C125.05,-88.37 137.38,-86.52 149.36,-84.72"/>
<polygon fill="#63b8ff" stroke="#63b8ff" points="149.85,-88.04 159.22,-83.09 148.81,-81.11 149.85,-88.04"/>
</a>
</g>
</g>
<!-- Node6 -->
<g id="Node000006" class="node">
<title>Node6</title>
<g id="a_Node000006"><a xlink:href="classhello__world_1_1devices_1_1buzzer_1_1_buzzer.html#a4098153da83266e584a961b94e2213c4" target="_top" xlink:title="将音符转化为对应的定时器重载值">
<polygon fill="white" stroke="#666666" points="288,-41 149,-41 149,0 288,0 288,-41"/>
<text text-anchor="start" x="157" y="-29" font-family="Helvetica,sans-Serif" font-size="10.00">hello_world::devices</text>
<text text-anchor="start" x="157" y="-18" font-family="Helvetica,sans-Serif" font-size="10.00">::buzzer::Buzzer::tune2Auto</text>
<text text-anchor="middle" x="218.5" y="-7" font-family="Helvetica,sans-Serif" font-size="10.00">Reload</text>
</a>
</g>
</g>
<!-- Node1&#45;&gt;Node6 -->
<g id="edge5_Node000001_Node000006" class="edge">
<title>Node1&#45;&gt;Node6</title>
<g id="a_edge5_Node000001_Node000006"><a xlink:title=" ">
<path fill="none" stroke="#63b8ff" d="M85.68,-83.06C103.64,-73.39 127.5,-60.83 149,-50.5 152.16,-48.98 155.41,-47.45 158.71,-45.92"/>
<polygon fill="#63b8ff" stroke="#63b8ff" points="160.01,-48.72 167.66,-41.39 157.11,-42.35 160.01,-48.72"/>
</a>
</g>
</g>
<!-- Node4 -->
<g id="Node000004" class="node">
<title>Node4</title>
<g id="a_Node000004"><a xlink:href="namespacehello__world_1_1dsp_1_1tick.html#a0c9c44ee367dc665cc6f1a6d830da9ee" target="_top" xlink:title=" ">
<polygon fill="white" stroke="#666666" points="432,-137.5 324,-137.5 324,-107.5 432,-107.5 432,-137.5"/>
<text text-anchor="start" x="332" y="-125.5" font-family="Helvetica,sans-Serif" font-size="10.00">hello_world::dsp::tick</text>
<text text-anchor="middle" x="378" y="-114.5" font-family="Helvetica,sans-Serif" font-size="10.00">::GetTickUs</text>
</a>
</g>
</g>
<!-- Node3&#45;&gt;Node4 -->
<g id="edge3_Node000003_Node000004" class="edge">
<title>Node3&#45;&gt;Node4</title>
<g id="a_edge3_Node000003_Node000004"><a xlink:title=" ">
<path fill="none" stroke="#63b8ff" d="M272.82,-122.5C285.65,-122.5 299.49,-122.5 312.76,-122.5"/>
<polygon fill="#63b8ff" stroke="#63b8ff" points="312.73,-126 322.73,-122.5 312.73,-119 312.73,-126"/>
</a>
</g>
</g>
</g>
</svg>
