<?xml version="1.0" encoding="UTF-8" standalone="no"?>
<!DOCTYPE svg PUBLIC "-//W3C//DTD SVG 1.1//EN"
 "http://www.w3.org/Graphics/SVG/1.1/DTD/svg11.dtd">
<!-- Generated by graphviz version 8.0.3 (20230416.2022)
 -->
<!-- Title: hello_world::devices::imu::BMI088::init Pages: 1 -->
<svg width="938pt" height="287pt"
 viewBox="0.00 0.00 938.00 287.00" xmlns="http://www.w3.org/2000/svg" xmlns:xlink="http://www.w3.org/1999/xlink">
<g id="graph0" class="graph" transform="scale(1 1) rotate(0) translate(4 283)">
<title>hello_world::devices::imu::BMI088::init</title>
<!-- Node1 -->
<g id="Node000001" class="node">
<title>Node1</title>
<g id="a_Node000001"><a xlink:title="进行 BMI088 芯片配置">
<polygon fill="#999999" stroke="#666666" points="103,-166 0,-166 0,-136 103,-136 103,-166"/>
<text text-anchor="start" x="8" y="-154" font-family="Helvetica,sans-Serif" font-size="10.00">hello_world::devices</text>
<text text-anchor="middle" x="51.5" y="-143" font-family="Helvetica,sans-Serif" font-size="10.00">::imu::BMI088::init</text>
</a>
</g>
</g>
<!-- Node2 -->
<g id="Node000002" class="node">
<title>Node2</title>
<g id="a_Node000002"><a xlink:href="classhello__world_1_1devices_1_1imu_1_1_b_m_i088.html#af18363d9dd6de94e4961ce1772923483" target="_top" xlink:title="加速度计配置">
<polygon fill="white" stroke="#666666" points="252.5,-226 140.5,-226 140.5,-196 252.5,-196 252.5,-226"/>
<text text-anchor="start" x="148.5" y="-214" font-family="Helvetica,sans-Serif" font-size="10.00">hello_world::devices</text>
<text text-anchor="middle" x="196.5" y="-203" font-family="Helvetica,sans-Serif" font-size="10.00">::imu::BMI088::accInit</text>
</a>
</g>
</g>
<!-- Node1&#45;&gt;Node2 -->
<g id="edge1_Node000001_Node000002" class="edge">
<title>Node1&#45;&gt;Node2</title>
<g id="a_edge1_Node000001_Node000002"><a xlink:title=" ">
<path fill="none" stroke="#63b8ff" d="M89.33,-166.45C107.42,-174.04 129.43,-183.28 148.71,-191.37"/>
<polygon fill="#63b8ff" stroke="#63b8ff" points="147.22,-194.96 157.8,-195.6 149.93,-188.5 147.22,-194.96"/>
</a>
</g>
</g>
<!-- Node11 -->
<g id="Node000011" class="node">
<title>Node11</title>
<g id="a_Node000011"><a xlink:href="classhello__world_1_1devices_1_1imu_1_1_b_m_i088.html#a88754aa2ebac6fcdfde4c5ce4de33dd6" target="_top" xlink:title="陀螺仪配置">
<polygon fill="white" stroke="#666666" points="254,-107 139,-107 139,-77 254,-77 254,-107"/>
<text text-anchor="start" x="147" y="-95" font-family="Helvetica,sans-Serif" font-size="10.00">hello_world::devices</text>
<text text-anchor="middle" x="196.5" y="-84" font-family="Helvetica,sans-Serif" font-size="10.00">::imu::BMI088::gyroInit</text>
</a>
</g>
</g>
<!-- Node1&#45;&gt;Node11 -->
<g id="edge17_Node000001_Node000011" class="edge">
<title>Node1&#45;&gt;Node11</title>
<g id="a_edge17_Node000001_Node000011"><a xlink:title=" ">
<path fill="none" stroke="#63b8ff" d="M89.7,-135.65C107.52,-128.3 129.06,-119.41 148.04,-111.58"/>
<polygon fill="#63b8ff" stroke="#63b8ff" points="149.08,-114.53 156.99,-107.48 146.41,-108.05 149.08,-114.53"/>
</a>
</g>
</g>
<!-- Node3 -->
<g id="Node000003" class="node">
<title>Node3</title>
<g id="a_Node000003"><a xlink:href="classhello__world_1_1devices_1_1imu_1_1_b_m_i088.html#a3d46ca9f969584dbbc7060a0665edd0a" target="_top" xlink:title="读取加速度计寄存器数据">
<polygon fill="white" stroke="#666666" points="765.5,-279 643.5,-279 643.5,-249 765.5,-249 765.5,-279"/>
<text text-anchor="start" x="651.5" y="-267" font-family="Helvetica,sans-Serif" font-size="10.00">hello_world::devices</text>
<text text-anchor="middle" x="704.5" y="-256" font-family="Helvetica,sans-Serif" font-size="10.00">::imu::BMI088::accRead</text>
</a>
</g>
</g>
<!-- Node2&#45;&gt;Node3 -->
<g id="edge2_Node000002_Node000003" class="edge">
<title>Node2&#45;&gt;Node3</title>
<g id="a_edge2_Node000002_Node000003"><a xlink:title=" ">
<path fill="none" stroke="#63b8ff" d="M224.46,-226.3C242.42,-235.64 266.87,-246.75 290,-252 407.64,-278.69 548.9,-275.52 632.16,-270.19"/>
<polygon fill="#63b8ff" stroke="#63b8ff" points="632.27,-273.62 642.02,-269.46 631.8,-266.64 632.27,-273.62"/>
</a>
</g>
</g>
<!-- Node6 -->
<g id="Node000006" class="node">
<title>Node6</title>
<g id="a_Node000006"><a xlink:href="classhello__world_1_1devices_1_1imu_1_1_b_m_i088.html#a7bc81c0ed908d469d3c0bde126a80311" target="_top" xlink:title="加速度计自检测">
<polygon fill="white" stroke="#666666" points="425.5,-226 291.5,-226 291.5,-196 425.5,-196 425.5,-226"/>
<text text-anchor="start" x="299.5" y="-214" font-family="Helvetica,sans-Serif" font-size="10.00">hello_world::devices</text>
<text text-anchor="middle" x="358.5" y="-203" font-family="Helvetica,sans-Serif" font-size="10.00">::imu::BMI088::accSelfTest</text>
</a>
</g>
</g>
<!-- Node2&#45;&gt;Node6 -->
<g id="edge5_Node000002_Node000006" class="edge">
<title>Node2&#45;&gt;Node6</title>
<g id="a_edge5_Node000002_Node000006"><a xlink:title=" ">
<path fill="none" stroke="#63b8ff" d="M252.56,-211C261.46,-211 270.82,-211 280.13,-211"/>
<polygon fill="#63b8ff" stroke="#63b8ff" points="280.01,-214.5 290.01,-211 280.01,-207.5 280.01,-214.5"/>
</a>
</g>
</g>
<!-- Node7 -->
<g id="Node000007" class="node">
<title>Node7</title>
<g id="a_Node000007"><a xlink:href="classhello__world_1_1devices_1_1imu_1_1_b_m_i088.html#a7bbb5b66f79a9d0d40edf7f809743d59" target="_top" xlink:title="向加速度计寄存器写入数据">
<polygon fill="white" stroke="#666666" points="765.5,-231 643.5,-231 643.5,-201 765.5,-201 765.5,-231"/>
<text text-anchor="start" x="651.5" y="-219" font-family="Helvetica,sans-Serif" font-size="10.00">hello_world::devices</text>
<text text-anchor="middle" x="704.5" y="-208" font-family="Helvetica,sans-Serif" font-size="10.00">::imu::BMI088::accWrite</text>
</a>
</g>
</g>
<!-- Node2&#45;&gt;Node7 -->
<g id="edge15_Node000002_Node000007" class="edge">
<title>Node2&#45;&gt;Node7</title>
<g id="a_edge15_Node000002_Node000007"><a xlink:title=" ">
<path fill="none" stroke="#63b8ff" d="M247.45,-226.43C261.11,-229.97 276.01,-233.21 290,-235 409.56,-250.26 549.95,-237.37 632.55,-226.66"/>
<polygon fill="#63b8ff" stroke="#63b8ff" points="632.87,-230.02 642.32,-225.24 631.95,-223.08 632.87,-230.02"/>
</a>
</g>
</g>
<!-- Node8 -->
<g id="Node000008" class="node">
<title>Node8</title>
<g id="a_Node000008"><a xlink:href="namespacehello__world_1_1devices_1_1imu.html#a6fc8717b2ca9de9512855bad4d226769" target="_top" xlink:title="微秒级延时">
<polygon fill="white" stroke="#666666" points="581.5,-135 478.5,-135 478.5,-105 581.5,-105 581.5,-135"/>
<text text-anchor="start" x="486.5" y="-123" font-family="Helvetica,sans-Serif" font-size="10.00">hello_world::devices</text>
<text text-anchor="middle" x="530" y="-112" font-family="Helvetica,sans-Serif" font-size="10.00">::imu::DelayUs</text>
</a>
</g>
</g>
<!-- Node2&#45;&gt;Node8 -->
<g id="edge16_Node000002_Node000008" class="edge">
<title>Node2&#45;&gt;Node8</title>
<g id="a_edge16_Node000002_Node000008"><a xlink:title=" ">
<path fill="none" stroke="#63b8ff" d="M252.99,-195.77C312.4,-179.46 406.41,-153.65 467.9,-136.77"/>
<polygon fill="#63b8ff" stroke="#63b8ff" points="468.52,-139.96 477.23,-133.94 466.66,-133.21 468.52,-139.96"/>
</a>
</g>
</g>
<!-- Node4 -->
<g id="Node000004" class="node">
<title>Node4</title>
<g id="a_Node000004"><a xlink:href="classhello__world_1_1devices_1_1imu_1_1_b_m_i088.html#abe2be687095fa7b54d31a3a69693b306" target="_top" xlink:title=" ">
<polygon fill="white" stroke="#666666" points="930,-207 812,-207 812,-177 930,-177 930,-207"/>
<text text-anchor="start" x="820" y="-195" font-family="Helvetica,sans-Serif" font-size="10.00">hello_world::devices</text>
<text text-anchor="middle" x="871" y="-184" font-family="Helvetica,sans-Serif" font-size="10.00">::imu::BMI088::accCsH</text>
</a>
</g>
</g>
<!-- Node3&#45;&gt;Node4 -->
<g id="edge3_Node000003_Node000004" class="edge">
<title>Node3&#45;&gt;Node4</title>
<g id="a_edge3_Node000003_Node000004"><a xlink:title=" ">
<path fill="none" stroke="#63b8ff" d="M756.22,-248.52C762.98,-245.94 769.74,-243.09 776,-240 793.25,-231.5 795.03,-225.05 812,-216 814.57,-214.63 817.24,-213.28 819.95,-211.97"/>
<polygon fill="#63b8ff" stroke="#63b8ff" points="821.28,-214.75 828.9,-207.39 818.35,-208.39 821.28,-214.75"/>
</a>
</g>
</g>
<!-- Node5 -->
<g id="Node000005" class="node">
<title>Node5</title>
<g id="a_Node000005"><a xlink:href="classhello__world_1_1devices_1_1imu_1_1_b_m_i088.html#ad1ea4fa147f8bb2da18049c229404f65" target="_top" xlink:title=" ">
<polygon fill="white" stroke="#666666" points="929,-255 813,-255 813,-225 929,-225 929,-255"/>
<text text-anchor="start" x="821" y="-243" font-family="Helvetica,sans-Serif" font-size="10.00">hello_world::devices</text>
<text text-anchor="middle" x="871" y="-232" font-family="Helvetica,sans-Serif" font-size="10.00">::imu::BMI088::accCsL</text>
</a>
</g>
</g>
<!-- Node3&#45;&gt;Node5 -->
<g id="edge4_Node000003_Node000005" class="edge">
<title>Node3&#45;&gt;Node5</title>
<g id="a_edge4_Node000003_Node000005"><a xlink:title=" ">
<path fill="none" stroke="#63b8ff" d="M765.82,-255.2C777.54,-253.49 789.91,-251.68 801.86,-249.94"/>
<polygon fill="#63b8ff" stroke="#63b8ff" points="802.31,-253.27 811.7,-248.36 801.3,-246.34 802.31,-253.27"/>
</a>
</g>
</g>
<!-- Node6&#45;&gt;Node3 -->
<g id="edge6_Node000006_Node000003" class="edge">
<title>Node6&#45;&gt;Node3</title>
<g id="a_edge6_Node000006_Node000003"><a xlink:title=" ">
<path fill="none" stroke="#63b8ff" d="M425.76,-221.25C438.13,-223.16 450.96,-225.14 463,-227 519.94,-235.78 584.46,-245.71 632.34,-253.07"/>
<polygon fill="#63b8ff" stroke="#63b8ff" points="631.79,-256.68 642.21,-254.74 632.86,-249.76 631.79,-256.68"/>
</a>
</g>
</g>
<!-- Node6&#45;&gt;Node7 -->
<g id="edge7_Node000006_Node000007" class="edge">
<title>Node6&#45;&gt;Node7</title>
<g id="a_edge7_Node000006_Node000007"><a xlink:title=" ">
<path fill="none" stroke="#63b8ff" d="M425.83,-211.96C485.13,-212.83 571.81,-214.09 632.5,-214.97"/>
<polygon fill="#63b8ff" stroke="#63b8ff" points="632.09,-218.48 642.14,-215.12 632.19,-211.48 632.09,-218.48"/>
</a>
</g>
</g>
<!-- Node6&#45;&gt;Node8 -->
<g id="edge10_Node000006_Node000008" class="edge">
<title>Node6&#45;&gt;Node8</title>
<g id="a_edge10_Node000006_Node000008"><a xlink:title=" ">
<path fill="none" stroke="#63b8ff" d="M402.67,-195.57C411.07,-191.72 419.57,-187.18 427,-182 446.08,-168.69 443.55,-156.76 463,-144 464.99,-142.7 467.06,-141.45 469.18,-140.26"/>
<polygon fill="#63b8ff" stroke="#63b8ff" points="470.43,-143.05 477.78,-135.43 467.28,-136.8 470.43,-143.05"/>
</a>
</g>
</g>
<!-- Node9 -->
<g id="Node000009" class="node">
<title>Node9</title>
<g id="a_Node000009"><a xlink:href="classhello__world_1_1devices_1_1imu_1_1_b_m_i088.html#ad236f84f69a0ef4e8befa96479bf5618" target="_top" xlink:title="获取加速度计数据">
<polygon fill="white" stroke="#666666" points="597,-183 463,-183 463,-153 597,-153 597,-183"/>
<text text-anchor="start" x="471" y="-171" font-family="Helvetica,sans-Serif" font-size="10.00">hello_world::devices</text>
<text text-anchor="middle" x="530" y="-160" font-family="Helvetica,sans-Serif" font-size="10.00">::imu::BMI088::getAccData</text>
</a>
</g>
</g>
<!-- Node6&#45;&gt;Node9 -->
<g id="edge11_Node000006_Node000009" class="edge">
<title>Node6&#45;&gt;Node9</title>
<g id="a_edge11_Node000006_Node000009"><a xlink:title=" ">
<path fill="none" stroke="#63b8ff" d="M420.21,-195.6C432.39,-192.51 445.28,-189.24 457.77,-186.07"/>
<polygon fill="#63b8ff" stroke="#63b8ff" points="458.31,-189.29 467.14,-183.44 456.59,-182.51 458.31,-189.29"/>
</a>
</g>
</g>
<!-- Node7&#45;&gt;Node4 -->
<g id="edge8_Node000007_Node000004" class="edge">
<title>Node7&#45;&gt;Node4</title>
<g id="a_edge8_Node000007_Node000004"><a xlink:title=" ">
<path fill="none" stroke="#63b8ff" d="M765.82,-207.2C777.26,-205.53 789.32,-203.77 801,-202.07"/>
<polygon fill="#63b8ff" stroke="#63b8ff" points="801.22,-205.43 810.61,-200.52 800.21,-198.5 801.22,-205.43"/>
</a>
</g>
</g>
<!-- Node7&#45;&gt;Node5 -->
<g id="edge9_Node000007_Node000005" class="edge">
<title>Node7&#45;&gt;Node5</title>
<g id="a_edge9_Node000007_Node000005"><a xlink:title=" ">
<path fill="none" stroke="#63b8ff" d="M765.82,-224.8C777.54,-226.51 789.91,-228.32 801.86,-230.06"/>
<polygon fill="#63b8ff" stroke="#63b8ff" points="801.3,-233.66 811.7,-231.64 802.31,-226.73 801.3,-233.66"/>
</a>
</g>
</g>
<!-- Node10 -->
<g id="Node000010" class="node">
<title>Node10</title>
<g id="a_Node000010"><a xlink:href="classhello__world_1_1devices_1_1imu_1_1_b_m_i088.html#ad8bdc7c9eee4bb3c35ee8467df9e49ae" target="_top" xlink:title="加速度计多寄存器数据读取">
<polygon fill="white" stroke="#666666" points="776,-183 633,-183 633,-153 776,-153 776,-183"/>
<text text-anchor="start" x="641" y="-171" font-family="Helvetica,sans-Serif" font-size="10.00">hello_world::devices</text>
<text text-anchor="middle" x="704.5" y="-160" font-family="Helvetica,sans-Serif" font-size="10.00">::imu::BMI088::accMultiRead</text>
</a>
</g>
</g>
<!-- Node9&#45;&gt;Node10 -->
<g id="edge12_Node000009_Node000010" class="edge">
<title>Node9&#45;&gt;Node10</title>
<g id="a_edge12_Node000009_Node000010"><a xlink:title=" ">
<path fill="none" stroke="#63b8ff" d="M597.2,-168C605.26,-168 613.57,-168 621.82,-168"/>
<polygon fill="#63b8ff" stroke="#63b8ff" points="621.61,-171.5 631.61,-168 621.61,-164.5 621.61,-171.5"/>
</a>
</g>
</g>
<!-- Node10&#45;&gt;Node4 -->
<g id="edge13_Node000010_Node000004" class="edge">
<title>Node10&#45;&gt;Node4</title>
<g id="a_edge13_Node000010_Node000004"><a xlink:title=" ">
<path fill="none" stroke="#63b8ff" d="M776.22,-178.32C784.45,-179.52 792.84,-180.74 801.05,-181.94"/>
<polygon fill="#63b8ff" stroke="#63b8ff" points="800.31,-185.52 810.71,-183.5 801.32,-178.59 800.31,-185.52"/>
</a>
</g>
</g>
<!-- Node10&#45;&gt;Node5 -->
<g id="edge14_Node000010_Node000005" class="edge">
<title>Node10&#45;&gt;Node5</title>
<g id="a_edge14_Node000010_Node000005"><a xlink:title=" ">
<path fill="none" stroke="#63b8ff" d="M756.22,-183.48C762.98,-186.06 769.74,-188.91 776,-192 793.25,-200.5 795.03,-206.95 812,-216 814.57,-217.37 817.24,-218.72 819.95,-220.03"/>
<polygon fill="#63b8ff" stroke="#63b8ff" points="818.35,-223.61 828.9,-224.61 821.28,-217.25 818.35,-223.61"/>
</a>
</g>
</g>
<!-- Node11&#45;&gt;Node8 -->
<g id="edge18_Node000011_Node000008" class="edge">
<title>Node11&#45;&gt;Node8</title>
<g id="a_edge18_Node000011_Node000008"><a xlink:title=" ">
<path fill="none" stroke="#63b8ff" d="M254.14,-101.41C265.96,-103.14 278.37,-104.78 290,-106 350.02,-112.29 418.83,-115.95 467.16,-117.94"/>
<polygon fill="#63b8ff" stroke="#63b8ff" points="466.94,-121.47 477.07,-118.37 467.22,-114.47 466.94,-121.47"/>
</a>
</g>
</g>
<!-- Node12 -->
<g id="Node000012" class="node">
<title>Node12</title>
<g id="a_Node000012"><a xlink:href="classhello__world_1_1devices_1_1imu_1_1_b_m_i088.html#a16b8a6609a3b902bc05c4e2857801cd2" target="_top" xlink:title="读取陀螺仪寄存器数据">
<polygon fill="white" stroke="#666666" points="592.5,-78 467.5,-78 467.5,-48 592.5,-48 592.5,-78"/>
<text text-anchor="start" x="475.5" y="-66" font-family="Helvetica,sans-Serif" font-size="10.00">hello_world::devices</text>
<text text-anchor="middle" x="530" y="-55" font-family="Helvetica,sans-Serif" font-size="10.00">::imu::BMI088::gyroRead</text>
</a>
</g>
</g>
<!-- Node11&#45;&gt;Node12 -->
<g id="edge19_Node000011_Node000012" class="edge">
<title>Node11&#45;&gt;Node12</title>
<g id="a_edge19_Node000011_Node000012"><a xlink:title=" ">
<path fill="none" stroke="#63b8ff" d="M254.11,-87.55C300.57,-83.85 368.07,-78.33 427,-73 436.57,-72.14 446.63,-71.19 456.56,-70.24"/>
<polygon fill="#63b8ff" stroke="#63b8ff" points="456.64,-73.65 466.25,-69.21 455.96,-66.68 456.64,-73.65"/>
</a>
</g>
</g>
<!-- Node15 -->
<g id="Node000015" class="node">
<title>Node15</title>
<g id="a_Node000015"><a xlink:href="classhello__world_1_1devices_1_1imu_1_1_b_m_i088.html#ac8c0c2e64b56c3feb6888446b4830be3" target="_top" xlink:title="陀螺仪自检测">
<polygon fill="white" stroke="#666666" points="427,-64 290,-64 290,-34 427,-34 427,-64"/>
<text text-anchor="start" x="298" y="-52" font-family="Helvetica,sans-Serif" font-size="10.00">hello_world::devices</text>
<text text-anchor="middle" x="358.5" y="-41" font-family="Helvetica,sans-Serif" font-size="10.00">::imu::BMI088::gyroSelfTest</text>
</a>
</g>
</g>
<!-- Node11&#45;&gt;Node15 -->
<g id="edge22_Node000011_Node000015" class="edge">
<title>Node11&#45;&gt;Node15</title>
<g id="a_edge22_Node000011_Node000015"><a xlink:title=" ">
<path fill="none" stroke="#63b8ff" d="M254.36,-76.72C265.71,-73.67 277.73,-70.44 289.41,-67.3"/>
<polygon fill="#63b8ff" stroke="#63b8ff" points="290.26,-70.43 299.01,-64.45 288.45,-63.66 290.26,-70.43"/>
</a>
</g>
</g>
<!-- Node16 -->
<g id="Node000016" class="node">
<title>Node16</title>
<g id="a_Node000016"><a xlink:href="classhello__world_1_1devices_1_1imu_1_1_b_m_i088.html#adf2ebc011e80e2ad115716307c773c6f" target="_top" xlink:title="向陀螺仪寄存器写入数据">
<polygon fill="white" stroke="#666666" points="592.5,-30 467.5,-30 467.5,0 592.5,0 592.5,-30"/>
<text text-anchor="start" x="475.5" y="-18" font-family="Helvetica,sans-Serif" font-size="10.00">hello_world::devices</text>
<text text-anchor="middle" x="530" y="-7" font-family="Helvetica,sans-Serif" font-size="10.00">::imu::BMI088::gyroWrite</text>
</a>
</g>
</g>
<!-- Node11&#45;&gt;Node16 -->
<g id="edge28_Node000011_Node000016" class="edge">
<title>Node11&#45;&gt;Node16</title>
<g id="a_edge28_Node000011_Node000016"><a xlink:title=" ">
<path fill="none" stroke="#63b8ff" d="M212.54,-76.69C229.6,-60.47 259.09,-35.74 290,-25 343.52,-6.41 407.88,-4.79 456.32,-7.34"/>
<polygon fill="#63b8ff" stroke="#63b8ff" points="455.83,-10.88 466.02,-7.98 456.25,-3.89 455.83,-10.88"/>
</a>
</g>
</g>
<!-- Node13 -->
<g id="Node000013" class="node">
<title>Node13</title>
<g id="a_Node000013"><a xlink:href="classhello__world_1_1devices_1_1imu_1_1_b_m_i088.html#a54cd103bad13c06059088197dabd6acc" target="_top" xlink:title=" ">
<polygon fill="white" stroke="#666666" points="765,-78 644,-78 644,-48 765,-48 765,-78"/>
<text text-anchor="start" x="652" y="-66" font-family="Helvetica,sans-Serif" font-size="10.00">hello_world::devices</text>
<text text-anchor="middle" x="704.5" y="-55" font-family="Helvetica,sans-Serif" font-size="10.00">::imu::BMI088::gyroCsH</text>
</a>
</g>
</g>
<!-- Node12&#45;&gt;Node13 -->
<g id="edge20_Node000012_Node000013" class="edge">
<title>Node12&#45;&gt;Node13</title>
<g id="a_edge20_Node000012_Node000013"><a xlink:title=" ">
<path fill="none" stroke="#63b8ff" d="M592.79,-63C605.7,-63 619.42,-63 632.63,-63"/>
<polygon fill="#63b8ff" stroke="#63b8ff" points="632.59,-66.5 642.59,-63 632.59,-59.5 632.59,-66.5"/>
</a>
</g>
</g>
<!-- Node14 -->
<g id="Node000014" class="node">
<title>Node14</title>
<g id="a_Node000014"><a xlink:href="classhello__world_1_1devices_1_1imu_1_1_b_m_i088.html#ac7e428dbf85a72f9b9689a78e7e73f02" target="_top" xlink:title=" ">
<polygon fill="white" stroke="#666666" points="764,-30 645,-30 645,0 764,0 764,-30"/>
<text text-anchor="start" x="653" y="-18" font-family="Helvetica,sans-Serif" font-size="10.00">hello_world::devices</text>
<text text-anchor="middle" x="704.5" y="-7" font-family="Helvetica,sans-Serif" font-size="10.00">::imu::BMI088::gyroCsL</text>
</a>
</g>
</g>
<!-- Node12&#45;&gt;Node14 -->
<g id="edge21_Node000012_Node000014" class="edge">
<title>Node12&#45;&gt;Node14</title>
<g id="a_edge21_Node000012_Node000014"><a xlink:title=" ">
<path fill="none" stroke="#63b8ff" d="M586.53,-47.55C602.84,-43.01 620.84,-38 637.73,-33.3"/>
<polygon fill="#63b8ff" stroke="#63b8ff" points="638.38,-36.48 647.07,-30.42 636.5,-29.73 638.38,-36.48"/>
</a>
</g>
</g>
<!-- Node15&#45;&gt;Node8 -->
<g id="edge23_Node000015_Node000008" class="edge">
<title>Node15&#45;&gt;Node8</title>
<g id="a_edge23_Node000015_Node000008"><a xlink:title=" ">
<path fill="none" stroke="#63b8ff" d="M396.28,-64.41C421.4,-74.93 454.91,-88.97 481.98,-100.3"/>
<polygon fill="#63b8ff" stroke="#63b8ff" points="480.42,-103.87 491,-104.5 483.13,-97.41 480.42,-103.87"/>
</a>
</g>
</g>
<!-- Node15&#45;&gt;Node12 -->
<g id="edge24_Node000015_Node000012" class="edge">
<title>Node15&#45;&gt;Node12</title>
<g id="a_edge24_Node000015_Node000012"><a xlink:title=" ">
<path fill="none" stroke="#63b8ff" d="M427.47,-54.61C436.97,-55.4 446.76,-56.21 456.35,-57"/>
<polygon fill="#63b8ff" stroke="#63b8ff" points="455.8,-60.55 466.05,-57.88 456.38,-53.57 455.8,-60.55"/>
</a>
</g>
</g>
<!-- Node15&#45;&gt;Node16 -->
<g id="edge25_Node000015_Node000016" class="edge">
<title>Node15&#45;&gt;Node16</title>
<g id="a_edge25_Node000015_Node000016"><a xlink:title=" ">
<path fill="none" stroke="#63b8ff" d="M427.47,-35.37C436.97,-33.46 446.76,-31.5 456.35,-29.57"/>
<polygon fill="#63b8ff" stroke="#63b8ff" points="456.94,-32.82 466.05,-27.43 455.56,-25.96 456.94,-32.82"/>
</a>
</g>
</g>
<!-- Node16&#45;&gt;Node13 -->
<g id="edge26_Node000016_Node000013" class="edge">
<title>Node16&#45;&gt;Node13</title>
<g id="a_edge26_Node000016_Node000013"><a xlink:title=" ">
<path fill="none" stroke="#63b8ff" d="M586.53,-30.45C602.84,-34.99 620.84,-40 637.73,-44.7"/>
<polygon fill="#63b8ff" stroke="#63b8ff" points="636.5,-48.27 647.07,-47.58 638.38,-41.52 636.5,-48.27"/>
</a>
</g>
</g>
<!-- Node16&#45;&gt;Node14 -->
<g id="edge27_Node000016_Node000014" class="edge">
<title>Node16&#45;&gt;Node14</title>
<g id="a_edge27_Node000016_Node000014"><a xlink:title=" ">
<path fill="none" stroke="#63b8ff" d="M592.79,-15C606.14,-15 620.34,-15 633.96,-15"/>
<polygon fill="#63b8ff" stroke="#63b8ff" points="633.74,-18.5 643.74,-15 633.74,-11.5 633.74,-18.5"/>
</a>
</g>
</g>
</g>
</svg>
