<?xml version="1.0" encoding="UTF-8" standalone="no"?>
<!DOCTYPE svg PUBLIC "-//W3C//DTD SVG 1.1//EN"
 "http://www.w3.org/Graphics/SVG/1.1/DTD/svg11.dtd">
<!-- Generated by graphviz version 8.0.3 (20230416.2022)
 -->
<!-- Title: hello_world::devices::referee::Referee::processByte Pages: 1 -->
<svg width="535pt" height="205pt"
 viewBox="0.00 0.00 535.00 204.50" xmlns="http://www.w3.org/2000/svg" xmlns:xlink="http://www.w3.org/1999/xlink">
<g id="graph0" class="graph" transform="scale(1 1) rotate(0) translate(4 200.5)">
<title>hello_world::devices::referee::Referee::processByte</title>
<!-- Node1 -->
<g id="Node000001" class="node">
<title>Node1</title>
<g id="a_Node000001"><a xlink:title=" ">
<polygon fill="#999999" stroke="#666666" points="152,-105 0,-105 0,-75 152,-75 152,-105"/>
<text text-anchor="start" x="8" y="-93" font-family="Helvetica,sans-Serif" font-size="10.00">hello_world::devices</text>
<text text-anchor="middle" x="76" y="-82" font-family="Helvetica,sans-Serif" font-size="10.00">::referee::Referee::processByte</text>
</a>
</g>
</g>
<!-- Node2 -->
<g id="Node000002" class="node">
<title>Node2</title>
<g id="a_Node000002"><a xlink:href="classhello__world_1_1devices_1_1referee_1_1_referee.html#af9388d8910762162a0d23d0ba44df19a" target="_top" xlink:title=" ">
<polygon fill="white" stroke="#666666" points="336,-196.5 196,-196.5 196,-155.5 336,-155.5 336,-196.5"/>
<text text-anchor="start" x="204" y="-184.5" font-family="Helvetica,sans-Serif" font-size="10.00">hello_world::devices</text>
<text text-anchor="start" x="204" y="-173.5" font-family="Helvetica,sans-Serif" font-size="10.00">::referee::Referee::decodeRx</text>
<text text-anchor="middle" x="266" y="-162.5" font-family="Helvetica,sans-Serif" font-size="10.00">Package</text>
</a>
</g>
</g>
<!-- Node1&#45;&gt;Node2 -->
<g id="edge1_Node000001_Node000002" class="edge">
<title>Node1&#45;&gt;Node2</title>
<g id="a_edge1_Node000001_Node000002"><a xlink:title=" ">
<path fill="none" stroke="#63b8ff" d="M104.85,-105.43C127.05,-117.44 159.09,-134.18 188,-147 190.97,-148.32 194.03,-149.63 197.12,-150.93"/>
<polygon fill="#63b8ff" stroke="#63b8ff" points="195.53,-154.47 206.11,-155.01 198.18,-147.99 195.53,-154.47"/>
</a>
</g>
</g>
<!-- Node4 -->
<g id="Node000004" class="node">
<title>Node4</title>
<g id="a_Node000004"><a xlink:href="classhello__world_1_1devices_1_1referee_1_1_referee.html#a7531c733933a65549c9d019e87ee9d0b" target="_top" xlink:title=" ">
<polygon fill="white" stroke="#666666" points="328.5,-137.5 203.5,-137.5 203.5,-96.5 328.5,-96.5 328.5,-137.5"/>
<text text-anchor="start" x="211.5" y="-125.5" font-family="Helvetica,sans-Serif" font-size="10.00">hello_world::devices</text>
<text text-anchor="start" x="211.5" y="-114.5" font-family="Helvetica,sans-Serif" font-size="10.00">::referee::Referee::restart</text>
<text text-anchor="middle" x="266" y="-103.5" font-family="Helvetica,sans-Serif" font-size="10.00">DecodeFrame</text>
</a>
</g>
</g>
<!-- Node1&#45;&gt;Node4 -->
<g id="edge3_Node000001_Node000004" class="edge">
<title>Node1&#45;&gt;Node4</title>
<g id="a_edge3_Node000001_Node000004"><a xlink:title=" ">
<path fill="none" stroke="#63b8ff" d="M152.38,-100.83C165.55,-102.72 179.23,-104.68 192.32,-106.56"/>
<polygon fill="#63b8ff" stroke="#63b8ff" points="191.76,-110.16 202.16,-108.12 192.76,-103.23 191.76,-110.16"/>
</a>
</g>
</g>
<!-- Node5 -->
<g id="Node000005" class="node">
<title>Node5</title>
<g id="a_Node000005"><a xlink:href="namespacehello__world_1_1devices_1_1referee.html#aa177d9a48e848cf495e1119b8449a1f7" target="_top" xlink:title="Verifies the CRC16 checksum of a message.">
<polygon fill="white" stroke="#666666" points="344,-78 188,-78 188,-48 344,-48 344,-78"/>
<text text-anchor="start" x="196" y="-66" font-family="Helvetica,sans-Serif" font-size="10.00">hello_world::devices</text>
<text text-anchor="middle" x="266" y="-55" font-family="Helvetica,sans-Serif" font-size="10.00">::referee::VerifyCrc16CheckSum</text>
</a>
</g>
</g>
<!-- Node1&#45;&gt;Node5 -->
<g id="edge4_Node000001_Node000005" class="edge">
<title>Node1&#45;&gt;Node5</title>
<g id="a_edge4_Node000001_Node000005"><a xlink:title=" ">
<path fill="none" stroke="#63b8ff" d="M152.38,-79.17C160.48,-78.01 168.77,-76.82 177,-75.64"/>
<polygon fill="#63b8ff" stroke="#63b8ff" points="177.36,-78.98 186.76,-74.09 176.36,-72.05 177.36,-78.98"/>
</a>
</g>
</g>
<!-- Node7 -->
<g id="Node000007" class="node">
<title>Node7</title>
<g id="a_Node000007"><a xlink:href="namespacehello__world_1_1devices_1_1referee.html#a5ac9b8968addb626ab283eaf7b80bd6c" target="_top" xlink:title="Verifies the CRC8 checksum of a message.">
<polygon fill="white" stroke="#666666" points="341.5,-30 190.5,-30 190.5,0 341.5,0 341.5,-30"/>
<text text-anchor="start" x="198.5" y="-18" font-family="Helvetica,sans-Serif" font-size="10.00">hello_world::devices</text>
<text text-anchor="middle" x="266" y="-7" font-family="Helvetica,sans-Serif" font-size="10.00">::referee::VerifyCrc8CheckSum</text>
</a>
</g>
</g>
<!-- Node1&#45;&gt;Node7 -->
<g id="edge6_Node000001_Node000007" class="edge">
<title>Node1&#45;&gt;Node7</title>
<g id="a_edge6_Node000001_Node000007"><a xlink:title=" ">
<path fill="none" stroke="#63b8ff" d="M107.64,-74.63C129.68,-63.89 160.28,-49.64 188,-39 192.66,-37.21 197.51,-35.46 202.41,-33.76"/>
<polygon fill="#63b8ff" stroke="#63b8ff" points="203.14,-36.87 211.5,-30.37 200.91,-30.24 203.14,-36.87"/>
</a>
</g>
</g>
<!-- Node3 -->
<g id="Node000003" class="node">
<title>Node3</title>
<g id="a_Node000003"><a xlink:href="classhello__world_1_1devices_1_1referee_1_1_rx_package_info.html#acb3daf6092bba76a10fa7cc2d580a429" target="_top" xlink:title=" ">
<polygon fill="white" stroke="#666666" points="515,-196.5 392,-196.5 392,-155.5 515,-155.5 515,-196.5"/>
<text text-anchor="start" x="400" y="-184.5" font-family="Helvetica,sans-Serif" font-size="10.00">hello_world::devices</text>
<text text-anchor="start" x="400" y="-173.5" font-family="Helvetica,sans-Serif" font-size="10.00">::referee::RxPackageInfo</text>
<text text-anchor="middle" x="453.5" y="-162.5" font-family="Helvetica,sans-Serif" font-size="10.00">::decode</text>
</a>
</g>
</g>
<!-- Node2&#45;&gt;Node3 -->
<g id="edge2_Node000002_Node000003" class="edge">
<title>Node2&#45;&gt;Node3</title>
<g id="a_edge2_Node000002_Node000003"><a xlink:title=" ">
<path fill="none" stroke="#63b8ff" d="M336.34,-176C350.85,-176 366.19,-176 380.78,-176"/>
<polygon fill="#63b8ff" stroke="#63b8ff" points="380.78,-179.5 390.78,-176 380.78,-172.5 380.78,-179.5"/>
</a>
</g>
</g>
<!-- Node6 -->
<g id="Node000006" class="node">
<title>Node6</title>
<g id="a_Node000006"><a xlink:href="namespacehello__world_1_1devices_1_1referee.html#a30f1e50d6e85c306486883a0668b7f50" target="_top" xlink:title="Calculate and return the CRC16 checksum of a message.">
<polygon fill="white" stroke="#666666" points="527,-78 380,-78 380,-48 527,-48 527,-78"/>
<text text-anchor="start" x="388" y="-66" font-family="Helvetica,sans-Serif" font-size="10.00">hello_world::devices</text>
<text text-anchor="middle" x="453.5" y="-55" font-family="Helvetica,sans-Serif" font-size="10.00">::referee::GetCrc16CheckSum</text>
</a>
</g>
</g>
<!-- Node5&#45;&gt;Node6 -->
<g id="edge5_Node000005_Node000006" class="edge">
<title>Node5&#45;&gt;Node6</title>
<g id="a_edge5_Node000005_Node000006"><a xlink:title=" ">
<path fill="none" stroke="#63b8ff" d="M344.33,-63C352.48,-63 360.8,-63 369.02,-63"/>
<polygon fill="#63b8ff" stroke="#63b8ff" points="368.75,-66.5 378.75,-63 368.75,-59.5 368.75,-66.5"/>
</a>
</g>
</g>
<!-- Node8 -->
<g id="Node000008" class="node">
<title>Node8</title>
<g id="a_Node000008"><a xlink:href="namespacehello__world_1_1devices_1_1referee.html#a42050a73d989fc581253585524abbf57" target="_top" xlink:title="Calculate and return the CRC8 checksum of a message.">
<polygon fill="white" stroke="#666666" points="524.5,-30 382.5,-30 382.5,0 524.5,0 524.5,-30"/>
<text text-anchor="start" x="390.5" y="-18" font-family="Helvetica,sans-Serif" font-size="10.00">hello_world::devices</text>
<text text-anchor="middle" x="453.5" y="-7" font-family="Helvetica,sans-Serif" font-size="10.00">::referee::GetCrc8CheckSum</text>
</a>
</g>
</g>
<!-- Node7&#45;&gt;Node8 -->
<g id="edge7_Node000007_Node000008" class="edge">
<title>Node7&#45;&gt;Node8</title>
<g id="a_edge7_Node000007_Node000008"><a xlink:title=" ">
<path fill="none" stroke="#63b8ff" d="M341.92,-15C351.56,-15 361.47,-15 371.21,-15"/>
<polygon fill="#63b8ff" stroke="#63b8ff" points="371.11,-18.5 381.11,-15 371.11,-11.5 371.11,-18.5"/>
</a>
</g>
</g>
</g>
</svg>
