<?xml version="1.0" encoding="UTF-8" standalone="no"?>
<!DOCTYPE svg PUBLIC "-//W3C//DTD SVG 1.1//EN"
 "http://www.w3.org/Graphics/SVG/1.1/DTD/svg11.dtd">
<!-- Generated by graphviz version 8.0.3 (20230416.2022)
 -->
<!-- Title: hello_world::devices::motor::Motor::setInput Pages: 1 -->
<svg width="424pt" height="316pt"
 viewBox="0.00 0.00 424.00 315.50" xmlns="http://www.w3.org/2000/svg" xmlns:xlink="http://www.w3.org/1999/xlink">
<g id="graph0" class="graph" transform="scale(1 1) rotate(0) translate(4 311.5)">
<title>hello_world::devices::motor::Motor::setInput</title>
<!-- Node1 -->
<g id="Node000001" class="node">
<title>Node1</title>
<g id="a_Node000001"><a xlink:title="设定发给电调的期望值">
<polygon fill="#999999" stroke="#666666" points="119,-174 0,-174 0,-144 119,-144 119,-174"/>
<text text-anchor="start" x="8" y="-162" font-family="Helvetica,sans-Serif" font-size="10.00">hello_world::devices</text>
<text text-anchor="middle" x="59.5" y="-151" font-family="Helvetica,sans-Serif" font-size="10.00">::motor::Motor::setInput</text>
</a>
</g>
</g>
<!-- Node2 -->
<g id="Node000002" class="node">
<title>Node2</title>
<g id="a_Node000002"><a xlink:href="namespacehello__world.html#a34cb06299a34f746d556d23dc16904aa" target="_top" xlink:title="将输入值限制在一个范围内">
<polygon fill="white" stroke="#666666" points="265,-307.5 167,-307.5 167,-288.5 265,-288.5 265,-307.5"/>
<text text-anchor="middle" x="216" y="-295.5" font-family="Helvetica,sans-Serif" font-size="10.00">hello_world::Bound</text>
</a>
</g>
</g>
<!-- Node1&#45;&gt;Node2 -->
<g id="edge1_Node000001_Node000002" class="edge">
<title>Node1&#45;&gt;Node2</title>
<g id="a_edge1_Node000001_Node000002"><a xlink:title=" ">
<path fill="none" stroke="#63b8ff" d="M68.51,-174.31C82.59,-199.76 114.22,-250.79 155,-279 157.4,-280.66 159.96,-282.18 162.61,-283.58"/>
<polygon fill="#63b8ff" stroke="#63b8ff" points="160.96,-287.13 171.51,-288.08 163.85,-280.75 160.96,-287.13"/>
</a>
</g>
</g>
<!-- Node3 -->
<g id="Node000003" class="node">
<title>Node3</title>
<g id="a_Node000003"><a xlink:href="classhello__world_1_1devices_1_1motor_1_1_motor.html#aebf04ce4e3628c60907a29771f383027" target="_top" xlink:title="将转子电流转换为原始报文内容">
<polygon fill="white" stroke="#666666" points="276.5,-270 155.5,-270 155.5,-240 276.5,-240 276.5,-270"/>
<text text-anchor="start" x="163.5" y="-258" font-family="Helvetica,sans-Serif" font-size="10.00">hello_world::devices</text>
<text text-anchor="middle" x="216" y="-247" font-family="Helvetica,sans-Serif" font-size="10.00">::motor::Motor::curr2raw</text>
</a>
</g>
</g>
<!-- Node1&#45;&gt;Node3 -->
<g id="edge2_Node000001_Node000003" class="edge">
<title>Node1&#45;&gt;Node3</title>
<g id="a_edge2_Node000001_Node000003"><a xlink:title=" ">
<path fill="none" stroke="#63b8ff" d="M77.61,-174.33C95.81,-190.06 125.93,-214.52 155,-231 157.39,-232.36 159.87,-233.67 162.41,-234.94"/>
<polygon fill="#63b8ff" stroke="#63b8ff" points="160.82,-238.54 171.36,-239.62 163.8,-232.2 160.82,-238.54"/>
</a>
</g>
</g>
<!-- Node5 -->
<g id="Node000005" class="node">
<title>Node5</title>
<g id="a_Node000005"><a xlink:href="classhello__world_1_1devices_1_1motor_1_1_motor.html#a6e11db30817cf05232ee3d52ed48030b" target="_top" xlink:title="将转子电流转换为输出端力矩">
<polygon fill="white" stroke="#666666" points="277,-222 155,-222 155,-192 277,-192 277,-222"/>
<text text-anchor="start" x="163" y="-210" font-family="Helvetica,sans-Serif" font-size="10.00">hello_world::devices</text>
<text text-anchor="middle" x="216" y="-199" font-family="Helvetica,sans-Serif" font-size="10.00">::motor::Motor::curr2torq</text>
</a>
</g>
</g>
<!-- Node1&#45;&gt;Node5 -->
<g id="edge4_Node000001_Node000005" class="edge">
<title>Node1&#45;&gt;Node5</title>
<g id="a_edge4_Node000001_Node000005"><a xlink:title=" ">
<path fill="none" stroke="#63b8ff" d="M110.24,-174.45C124.57,-178.91 140.36,-183.81 155.23,-188.43"/>
<polygon fill="#63b8ff" stroke="#63b8ff" points="153.77,-191.95 164.36,-191.58 155.85,-185.27 153.77,-191.95"/>
</a>
</g>
</g>
<!-- Node6 -->
<g id="Node000006" class="node">
<title>Node6</title>
<g id="a_Node000006"><a xlink:href="classhello__world_1_1devices_1_1motor_1_1_motor.html#a1e4467d9f449b9c6c7d6886fffa89667" target="_top" xlink:title="将原始报文内容转换为转子电流">
<polygon fill="white" stroke="#666666" points="276.5,-174 155.5,-174 155.5,-144 276.5,-144 276.5,-174"/>
<text text-anchor="start" x="163.5" y="-162" font-family="Helvetica,sans-Serif" font-size="10.00">hello_world::devices</text>
<text text-anchor="middle" x="216" y="-151" font-family="Helvetica,sans-Serif" font-size="10.00">::motor::Motor::raw2curr</text>
</a>
</g>
</g>
<!-- Node1&#45;&gt;Node6 -->
<g id="edge6_Node000001_Node000006" class="edge">
<title>Node1&#45;&gt;Node6</title>
<g id="a_edge6_Node000001_Node000006"><a xlink:title=" ">
<path fill="none" stroke="#63b8ff" d="M119.35,-159C127.47,-159 135.89,-159 144.2,-159"/>
<polygon fill="#63b8ff" stroke="#63b8ff" points="144.03,-162.5 154.03,-159 144.03,-155.5 144.03,-162.5"/>
</a>
</g>
</g>
<!-- Node7 -->
<g id="Node000007" class="node">
<title>Node7</title>
<g id="a_Node000007"><a xlink:href="classhello__world_1_1devices_1_1motor_1_1_motor.html#af74a8c4ad7c0067a2d71afd711639366" target="_top" xlink:title="将原始报文内容转换为输出端力矩">
<polygon fill="white" stroke="#666666" points="276.5,-126 155.5,-126 155.5,-96 276.5,-96 276.5,-126"/>
<text text-anchor="start" x="163.5" y="-114" font-family="Helvetica,sans-Serif" font-size="10.00">hello_world::devices</text>
<text text-anchor="middle" x="216" y="-103" font-family="Helvetica,sans-Serif" font-size="10.00">::motor::Motor::raw2torq</text>
</a>
</g>
</g>
<!-- Node1&#45;&gt;Node7 -->
<g id="edge7_Node000001_Node000007" class="edge">
<title>Node1&#45;&gt;Node7</title>
<g id="a_edge7_Node000001_Node000007"><a xlink:title=" ">
<path fill="none" stroke="#63b8ff" d="M110.24,-143.55C124.57,-139.09 140.36,-134.19 155.23,-129.57"/>
<polygon fill="#63b8ff" stroke="#63b8ff" points="155.85,-132.73 164.36,-126.42 153.77,-126.05 155.85,-132.73"/>
</a>
</g>
</g>
<!-- Node8 -->
<g id="Node000008" class="node">
<title>Node8</title>
<g id="a_Node000008"><a xlink:href="classhello__world_1_1devices_1_1motor_1_1_motor.html#a44292bfea784425e2c2c81dc4d634371" target="_top" xlink:title="将输出端力矩转换为转子电流">
<polygon fill="white" stroke="#666666" points="277,-78 155,-78 155,-48 277,-48 277,-78"/>
<text text-anchor="start" x="163" y="-66" font-family="Helvetica,sans-Serif" font-size="10.00">hello_world::devices</text>
<text text-anchor="middle" x="216" y="-55" font-family="Helvetica,sans-Serif" font-size="10.00">::motor::Motor::torq2curr</text>
</a>
</g>
</g>
<!-- Node1&#45;&gt;Node8 -->
<g id="edge8_Node000001_Node000008" class="edge">
<title>Node1&#45;&gt;Node8</title>
<g id="a_edge8_Node000001_Node000008"><a xlink:title=" ">
<path fill="none" stroke="#63b8ff" d="M77.61,-143.67C95.81,-127.94 125.93,-103.48 155,-87 157.39,-85.64 159.87,-84.33 162.41,-83.06"/>
<polygon fill="#63b8ff" stroke="#63b8ff" points="163.8,-85.8 171.36,-78.38 160.82,-79.46 163.8,-85.8"/>
</a>
</g>
</g>
<!-- Node10 -->
<g id="Node000010" class="node">
<title>Node10</title>
<g id="a_Node000010"><a xlink:href="classhello__world_1_1devices_1_1motor_1_1_motor.html#a319adc3f1b7d43fa12015b52a153ea17" target="_top" xlink:title="将输出端力矩转换为原始报文内容">
<polygon fill="white" stroke="#666666" points="276.5,-30 155.5,-30 155.5,0 276.5,0 276.5,-30"/>
<text text-anchor="start" x="163.5" y="-18" font-family="Helvetica,sans-Serif" font-size="10.00">hello_world::devices</text>
<text text-anchor="middle" x="216" y="-7" font-family="Helvetica,sans-Serif" font-size="10.00">::motor::Motor::torq2raw</text>
</a>
</g>
</g>
<!-- Node1&#45;&gt;Node10 -->
<g id="edge10_Node000001_Node000010" class="edge">
<title>Node1&#45;&gt;Node10</title>
<g id="a_edge10_Node000001_Node000010"><a xlink:title=" ">
<path fill="none" stroke="#63b8ff" d="M68.97,-143.62C83.51,-118.5 115.5,-68.54 155,-39 156.48,-37.89 158.02,-36.83 159.61,-35.8"/>
<polygon fill="#63b8ff" stroke="#63b8ff" points="161.13,-38.39 168.08,-30.4 157.66,-32.32 161.13,-38.39"/>
</a>
</g>
</g>
<!-- Node4 -->
<g id="Node000004" class="node">
<title>Node4</title>
<g id="a_Node000004"><a xlink:href="classhello__world_1_1devices_1_1motor_1_1_motor.html#a7fbec1460a1db6c45b4c57fd0497e5e0" target="_top" xlink:title=" ">
<polygon fill="white" stroke="#666666" points="416,-246 313,-246 313,-216 416,-216 416,-246"/>
<text text-anchor="start" x="321" y="-234" font-family="Helvetica,sans-Serif" font-size="10.00">hello_world::devices</text>
<text text-anchor="middle" x="364.5" y="-223" font-family="Helvetica,sans-Serif" font-size="10.00">::motor::Motor::curr</text>
</a>
</g>
</g>
<!-- Node3&#45;&gt;Node4 -->
<g id="edge3_Node000003_Node000004" class="edge">
<title>Node3&#45;&gt;Node4</title>
<g id="a_edge3_Node000003_Node000004"><a xlink:title=" ">
<path fill="none" stroke="#63b8ff" d="M276.59,-245.24C285.05,-243.85 293.77,-242.42 302.27,-241.03"/>
<polygon fill="#63b8ff" stroke="#63b8ff" points="302.58,-244.36 311.88,-239.29 301.44,-237.46 302.58,-244.36"/>
</a>
</g>
</g>
<!-- Node5&#45;&gt;Node4 -->
<g id="edge5_Node000005_Node000004" class="edge">
<title>Node5&#45;&gt;Node4</title>
<g id="a_edge5_Node000005_Node000004"><a xlink:title=" ">
<path fill="none" stroke="#63b8ff" d="M277.43,-216.9C285.45,-218.21 293.68,-219.56 301.73,-220.88"/>
<polygon fill="#63b8ff" stroke="#63b8ff" points="301.1,-224.49 311.54,-222.65 302.24,-217.58 301.1,-224.49"/>
</a>
</g>
</g>
<!-- Node9 -->
<g id="Node000009" class="node">
<title>Node9</title>
<g id="a_Node000009"><a xlink:href="classhello__world_1_1devices_1_1motor_1_1_motor.html#a987073404f2d04c10434f830884b9612" target="_top" xlink:title=" ">
<polygon fill="white" stroke="#666666" points="416,-54 313,-54 313,-24 416,-24 416,-54"/>
<text text-anchor="start" x="321" y="-42" font-family="Helvetica,sans-Serif" font-size="10.00">hello_world::devices</text>
<text text-anchor="middle" x="364.5" y="-31" font-family="Helvetica,sans-Serif" font-size="10.00">::motor::Motor::torq</text>
</a>
</g>
</g>
<!-- Node8&#45;&gt;Node9 -->
<g id="edge9_Node000008_Node000009" class="edge">
<title>Node8&#45;&gt;Node9</title>
<g id="a_edge9_Node000008_Node000009"><a xlink:title=" ">
<path fill="none" stroke="#63b8ff" d="M277.43,-53.1C285.45,-51.79 293.68,-50.44 301.73,-49.12"/>
<polygon fill="#63b8ff" stroke="#63b8ff" points="302.24,-52.42 311.54,-47.35 301.1,-45.51 302.24,-52.42"/>
</a>
</g>
</g>
<!-- Node10&#45;&gt;Node9 -->
<g id="edge11_Node000010_Node000009" class="edge">
<title>Node10&#45;&gt;Node9</title>
<g id="a_edge11_Node000010_Node000009"><a xlink:title=" ">
<path fill="none" stroke="#63b8ff" d="M276.59,-24.76C285.05,-26.15 293.77,-27.58 302.27,-28.97"/>
<polygon fill="#63b8ff" stroke="#63b8ff" points="301.44,-32.54 311.88,-30.71 302.58,-25.64 301.44,-32.54"/>
</a>
</g>
</g>
</g>
</svg>
