<?xml version="1.0" encoding="UTF-8" standalone="no"?>
<!DOCTYPE svg PUBLIC "-//W3C//DTD SVG 1.1//EN"
 "http://www.w3.org/Graphics/SVG/1.1/DTD/svg11.dtd">
<!-- Generated by graphviz version 8.0.3 (20230416.2022)
 -->
<!-- Title: hello_world::devices::motor::Motor::torq Pages: 1 -->
<svg width="476pt" height="374pt"
 viewBox="0.00 0.00 476.00 374.00" xmlns="http://www.w3.org/2000/svg" xmlns:xlink="http://www.w3.org/1999/xlink">
<g id="graph0" class="graph" transform="scale(1 1) rotate(0) translate(4 370)">
<title>hello_world::devices::motor::Motor::torq</title>
<!-- Node1 -->
<g id="Node000001" class="node">
<title>Node1</title>
<g id="a_Node000001"><a xlink:title=" ">
<polygon fill="#999999" stroke="#666666" points="468,-318 365,-318 365,-288 468,-288 468,-318"/>
<text text-anchor="start" x="373" y="-306" font-family="Helvetica,sans-Serif" font-size="10.00">hello_world::devices</text>
<text text-anchor="middle" x="416.5" y="-295" font-family="Helvetica,sans-Serif" font-size="10.00">::motor::Motor::torq</text>
</a>
</g>
</g>
<!-- Node2 -->
<g id="Node000002" class="node">
<title>Node2</title>
<g id="a_Node000002"><a xlink:href="classhello__world_1_1devices_1_1motor_1_1_motor.html#a44292bfea784425e2c2c81dc4d634371" target="_top" xlink:title="将输出端力矩转换为转子电流">
<polygon fill="white" stroke="#666666" points="319,-318 197,-318 197,-288 319,-288 319,-318"/>
<text text-anchor="start" x="205" y="-306" font-family="Helvetica,sans-Serif" font-size="10.00">hello_world::devices</text>
<text text-anchor="middle" x="258" y="-295" font-family="Helvetica,sans-Serif" font-size="10.00">::motor::Motor::torq2curr</text>
</a>
</g>
</g>
<!-- Node1&#45;&gt;Node2 -->
<g id="edge1_Node000001_Node000002" class="edge">
<title>Node1&#45;&gt;Node2</title>
<g id="a_edge1_Node000001_Node000002"><a xlink:title=" ">
<path fill="none" stroke="#63b8ff" d="M353.97,-303C342.59,-303 330.72,-303 319.37,-303"/>
<polygon fill="#63b8ff" stroke="#63b8ff" points="353.69,-306.5 363.69,-303 353.69,-299.5 353.69,-306.5"/>
</a>
</g>
</g>
<!-- Node6 -->
<g id="Node000006" class="node">
<title>Node6</title>
<g id="a_Node000006"><a xlink:href="classhello__world_1_1devices_1_1motor_1_1_motor.html#a319adc3f1b7d43fa12015b52a153ea17" target="_top" xlink:title="将输出端力矩转换为原始报文内容">
<polygon fill="white" stroke="#666666" points="318.5,-174 197.5,-174 197.5,-144 318.5,-144 318.5,-174"/>
<text text-anchor="start" x="205.5" y="-162" font-family="Helvetica,sans-Serif" font-size="10.00">hello_world::devices</text>
<text text-anchor="middle" x="258" y="-151" font-family="Helvetica,sans-Serif" font-size="10.00">::motor::Motor::torq2raw</text>
</a>
</g>
</g>
<!-- Node1&#45;&gt;Node6 -->
<g id="edge5_Node000001_Node000006" class="edge">
<title>Node1&#45;&gt;Node6</title>
<g id="a_edge5_Node000001_Node000006"><a xlink:title=" ">
<path fill="none" stroke="#63b8ff" d="M390.71,-280.19C358.52,-250.57 303.2,-199.67 275.63,-174.3"/>
<polygon fill="#63b8ff" stroke="#63b8ff" points="388.02,-282.39 397.75,-286.59 392.76,-277.24 388.02,-282.39"/>
</a>
</g>
</g>
<!-- Node12 -->
<g id="Node000012" class="node">
<title>Node12</title>
<g id="a_Node000012"><a xlink:href="classhello__world_1_1devices_1_1motor_1_1_d_m___j4310.html#ace039722135c1bf08b429a4ad41ccc81" target="_top" xlink:title="将输出端力矩转换为原始报文内容">
<polygon fill="white" stroke="#666666" points="329,-366 187,-366 187,-336 329,-336 329,-366"/>
<text text-anchor="start" x="195" y="-354" font-family="Helvetica,sans-Serif" font-size="10.00">hello_world::devices</text>
<text text-anchor="middle" x="258" y="-343" font-family="Helvetica,sans-Serif" font-size="10.00">::motor::DM_J4310::torq2raw</text>
</a>
</g>
</g>
<!-- Node1&#45;&gt;Node12 -->
<g id="edge12_Node000001_Node000012" class="edge">
<title>Node1&#45;&gt;Node12</title>
<g id="a_edge12_Node000001_Node000012"><a xlink:title=" ">
<path fill="none" stroke="#63b8ff" d="M354.86,-321.6C339.79,-326.22 323.8,-331.13 309.28,-335.58"/>
<polygon fill="#63b8ff" stroke="#63b8ff" points="355.59,-324.73 364.12,-318.45 353.53,-318.04 355.59,-324.73"/>
</a>
</g>
</g>
<!-- Node3 -->
<g id="Node000003" class="node">
<title>Node3</title>
<g id="a_Node000003"><a xlink:href="classhello__world_1_1devices_1_1motor_1_1_d_m___j4310.html#a0a61fcd9a79f7bbb0addccaf677f2c5f" target="_top" xlink:title="DM_J4310 初始化">
<polygon fill="white" stroke="#666666" points="151,-318 0,-318 0,-288 151,-288 151,-318"/>
<text text-anchor="start" x="8" y="-306" font-family="Helvetica,sans-Serif" font-size="10.00">hello_world::devices</text>
<text text-anchor="middle" x="75.5" y="-295" font-family="Helvetica,sans-Serif" font-size="10.00">::motor::DM_J4310::DM_J4310</text>
</a>
</g>
</g>
<!-- Node2&#45;&gt;Node3 -->
<g id="edge2_Node000002_Node000003" class="edge">
<title>Node2&#45;&gt;Node3</title>
<g id="a_edge2_Node000002_Node000003"><a xlink:title=" ">
<path fill="none" stroke="#63b8ff" d="M185.89,-303C174.51,-303 162.71,-303 151.25,-303"/>
<polygon fill="#63b8ff" stroke="#63b8ff" points="185.65,-306.5 195.65,-303 185.65,-299.5 185.65,-306.5"/>
</a>
</g>
</g>
<!-- Node4 -->
<g id="Node000004" class="node">
<title>Node4</title>
<g id="a_Node000004"><a xlink:href="classhello__world_1_1devices_1_1motor_1_1_motor.html#ad101045a9eef9a699001fc94631e8395" target="_top" xlink:title="设定发给电调的期望值">
<polygon fill="white" stroke="#666666" points="135,-270 16,-270 16,-240 135,-240 135,-270"/>
<text text-anchor="start" x="24" y="-258" font-family="Helvetica,sans-Serif" font-size="10.00">hello_world::devices</text>
<text text-anchor="middle" x="75.5" y="-247" font-family="Helvetica,sans-Serif" font-size="10.00">::motor::Motor::setInput</text>
</a>
</g>
</g>
<!-- Node2&#45;&gt;Node4 -->
<g id="edge3_Node000002_Node000004" class="edge">
<title>Node2&#45;&gt;Node4</title>
<g id="a_edge3_Node000002_Node000004"><a xlink:title=" ">
<path fill="none" stroke="#63b8ff" d="M188.57,-284.8C170.75,-280.06 151.72,-275 134.5,-270.42"/>
<polygon fill="#63b8ff" stroke="#63b8ff" points="187.33,-288.36 197.9,-287.55 189.13,-281.6 187.33,-288.36"/>
</a>
</g>
</g>
<!-- Node5 -->
<g id="Node000005" class="node">
<title>Node5</title>
<g id="a_Node000005"><a xlink:href="classhello__world_1_1devices_1_1motor_1_1_d_m___j4310.html#ae15373ce02962c1a287d7e813413869b" target="_top" xlink:title="设定发给电调的期望值">
<polygon fill="white" stroke="#666666" points="145.5,-366 5.5,-366 5.5,-336 145.5,-336 145.5,-366"/>
<text text-anchor="start" x="13.5" y="-354" font-family="Helvetica,sans-Serif" font-size="10.00">hello_world::devices</text>
<text text-anchor="middle" x="75.5" y="-343" font-family="Helvetica,sans-Serif" font-size="10.00">::motor::DM_J4310::setInput</text>
</a>
</g>
</g>
<!-- Node2&#45;&gt;Node5 -->
<g id="edge4_Node000002_Node000005" class="edge">
<title>Node2&#45;&gt;Node5</title>
<g id="a_edge4_Node000002_Node000005"><a xlink:title=" ">
<path fill="none" stroke="#63b8ff" d="M188.57,-321.2C170.75,-325.94 151.72,-331 134.5,-335.58"/>
<polygon fill="#63b8ff" stroke="#63b8ff" points="189.13,-324.4 197.9,-318.45 187.33,-317.64 189.13,-324.4"/>
</a>
</g>
</g>
<!-- Node6&#45;&gt;Node4 -->
<g id="edge11_Node000006_Node000004" class="edge">
<title>Node6&#45;&gt;Node4</title>
<g id="a_edge11_Node000006_Node000004"><a xlink:title=" ">
<path fill="none" stroke="#63b8ff" d="M229.54,-180.88C208.89,-196.51 179.39,-217.14 151,-231 144.53,-234.16 137.54,-237.04 130.53,-239.62"/>
<polygon fill="#63b8ff" stroke="#63b8ff" points="231.3,-183.17 237.1,-174.3 227.04,-177.62 231.3,-183.17"/>
</a>
</g>
</g>
<!-- Node7 -->
<g id="Node000007" class="node">
<title>Node7</title>
<g id="a_Node000007"><a xlink:href="classhello__world_1_1devices_1_1motor_1_1_a1.html#a1c439b72ce074a0e04d38b06749f499c" target="_top" xlink:title="A1 初始化">
<polygon fill="white" stroke="#666666" points="127,-78 24,-78 24,-48 127,-48 127,-78"/>
<text text-anchor="start" x="32" y="-66" font-family="Helvetica,sans-Serif" font-size="10.00">hello_world::devices</text>
<text text-anchor="middle" x="75.5" y="-55" font-family="Helvetica,sans-Serif" font-size="10.00">::motor::A1::A1</text>
</a>
</g>
</g>
<!-- Node6&#45;&gt;Node7 -->
<g id="edge6_Node000006_Node000007" class="edge">
<title>Node6&#45;&gt;Node7</title>
<g id="a_edge6_Node000006_Node000007"><a xlink:title=" ">
<path fill="none" stroke="#63b8ff" d="M229.54,-137.12C208.89,-121.49 179.39,-100.86 151,-87 143.55,-83.36 135.42,-80.1 127.36,-77.23"/>
<polygon fill="#63b8ff" stroke="#63b8ff" points="227.04,-140.38 237.1,-143.7 231.3,-134.83 227.04,-140.38"/>
</a>
</g>
</g>
<!-- Node8 -->
<g id="Node000008" class="node">
<title>Node8</title>
<g id="a_Node000008"><a xlink:href="classhello__world_1_1devices_1_1motor_1_1_m2006.html#a52ce5e7bbbb2fffe82f86291b8876221" target="_top" xlink:title="M2006 初始化">
<polygon fill="white" stroke="#666666" points="134.5,-30 16.5,-30 16.5,0 134.5,0 134.5,-30"/>
<text text-anchor="start" x="24.5" y="-18" font-family="Helvetica,sans-Serif" font-size="10.00">hello_world::devices</text>
<text text-anchor="middle" x="75.5" y="-7" font-family="Helvetica,sans-Serif" font-size="10.00">::motor::M2006::M2006</text>
</a>
</g>
</g>
<!-- Node6&#45;&gt;Node8 -->
<g id="edge7_Node000006_Node000008" class="edge">
<title>Node6&#45;&gt;Node8</title>
<g id="a_edge7_Node000006_Node000008"><a xlink:title=" ">
<path fill="none" stroke="#63b8ff" d="M241.65,-134.92C223.23,-107.88 189.91,-64.46 151,-39 146,-35.73 140.51,-32.87 134.86,-30.38"/>
<polygon fill="#63b8ff" stroke="#63b8ff" points="239.07,-136.37 247.53,-142.75 244.9,-132.49 239.07,-136.37"/>
</a>
</g>
</g>
<!-- Node9 -->
<g id="Node000009" class="node">
<title>Node9</title>
<g id="a_Node000009"><a xlink:href="classhello__world_1_1devices_1_1motor_1_1_m3508.html#a2fbed6fbaa90b42893978a1805ea78e6" target="_top" xlink:title="M3508 初始化">
<polygon fill="white" stroke="#666666" points="134.5,-222 16.5,-222 16.5,-192 134.5,-192 134.5,-222"/>
<text text-anchor="start" x="24.5" y="-210" font-family="Helvetica,sans-Serif" font-size="10.00">hello_world::devices</text>
<text text-anchor="middle" x="75.5" y="-199" font-family="Helvetica,sans-Serif" font-size="10.00">::motor::M3508::M3508</text>
</a>
</g>
</g>
<!-- Node6&#45;&gt;Node9 -->
<g id="edge8_Node000006_Node000009" class="edge">
<title>Node6&#45;&gt;Node9</title>
<g id="a_edge8_Node000006_Node000009"><a xlink:title=" ">
<path fill="none" stroke="#63b8ff" d="M188.57,-177.2C170.75,-181.94 151.72,-187 134.5,-191.58"/>
<polygon fill="#63b8ff" stroke="#63b8ff" points="189.13,-180.4 197.9,-174.45 187.33,-173.64 189.13,-180.4"/>
</a>
</g>
</g>
<!-- Node10 -->
<g id="Node000010" class="node">
<title>Node10</title>
<g id="a_Node000010"><a xlink:href="classhello__world_1_1devices_1_1motor_1_1_m8910.html#accd858d8bd3db4aa48532ec8c1f8bd44" target="_top" xlink:title="M8910 初始化">
<polygon fill="white" stroke="#666666" points="134.5,-174 16.5,-174 16.5,-144 134.5,-144 134.5,-174"/>
<text text-anchor="start" x="24.5" y="-162" font-family="Helvetica,sans-Serif" font-size="10.00">hello_world::devices</text>
<text text-anchor="middle" x="75.5" y="-151" font-family="Helvetica,sans-Serif" font-size="10.00">::motor::M8910::M8910</text>
</a>
</g>
</g>
<!-- Node6&#45;&gt;Node10 -->
<g id="edge9_Node000006_Node000010" class="edge">
<title>Node6&#45;&gt;Node10</title>
<g id="a_edge9_Node000006_Node000010"><a xlink:title=" ">
<path fill="none" stroke="#63b8ff" d="M186.17,-159C169.21,-159 151.29,-159 134.96,-159"/>
<polygon fill="#63b8ff" stroke="#63b8ff" points="186.15,-162.5 196.15,-159 186.15,-155.5 186.15,-162.5"/>
</a>
</g>
</g>
<!-- Node11 -->
<g id="Node000011" class="node">
<title>Node11</title>
<g id="a_Node000011"><a xlink:href="classhello__world_1_1devices_1_1motor_1_1_m_f9025v2.html#a87787e5484356144bc7bce7b229398de" target="_top" xlink:title="MF9025v2 初始化">
<polygon fill="white" stroke="#666666" points="149.5,-126 1.5,-126 1.5,-96 149.5,-96 149.5,-126"/>
<text text-anchor="start" x="9.5" y="-114" font-family="Helvetica,sans-Serif" font-size="10.00">hello_world::devices</text>
<text text-anchor="middle" x="75.5" y="-103" font-family="Helvetica,sans-Serif" font-size="10.00">::motor::MF9025v2::MF9025v2</text>
</a>
</g>
</g>
<!-- Node6&#45;&gt;Node11 -->
<g id="edge10_Node000006_Node000011" class="edge">
<title>Node6&#45;&gt;Node11</title>
<g id="a_edge10_Node000006_Node000011"><a xlink:title=" ">
<path fill="none" stroke="#63b8ff" d="M188.57,-140.8C170.75,-136.06 151.72,-131 134.5,-126.42"/>
<polygon fill="#63b8ff" stroke="#63b8ff" points="187.33,-144.36 197.9,-143.55 189.13,-137.6 187.33,-144.36"/>
</a>
</g>
</g>
<!-- Node12&#45;&gt;Node5 -->
<g id="edge13_Node000012_Node000005" class="edge">
<title>Node12&#45;&gt;Node5</title>
<g id="a_edge13_Node000012_Node000005"><a xlink:title=" ">
<path fill="none" stroke="#63b8ff" d="M175.86,-351C165.8,-351 155.58,-351 145.72,-351"/>
<polygon fill="#63b8ff" stroke="#63b8ff" points="175.7,-354.5 185.7,-351 175.7,-347.5 175.7,-354.5"/>
</a>
</g>
</g>
</g>
</svg>
