<?xml version="1.0" encoding="UTF-8" standalone="no"?>
<!DOCTYPE svg PUBLIC "-//W3C//DTD SVG 1.1//EN"
 "http://www.w3.org/Graphics/SVG/1.1/DTD/svg11.dtd">
<!-- Generated by graphviz version 8.0.3 (20230416.2022)
 -->
<!-- Title: hello_world::devices::motor::DM_J4310::raw2torq Pages: 1 -->
<svg width="326pt" height="86pt"
 viewBox="0.00 0.00 326.00 86.00" xmlns="http://www.w3.org/2000/svg" xmlns:xlink="http://www.w3.org/1999/xlink">
<g id="graph0" class="graph" transform="scale(1 1) rotate(0) translate(4 82)">
<title>hello_world::devices::motor::DM_J4310::raw2torq</title>
<!-- Node1 -->
<g id="Node000001" class="node">
<title>Node1</title>
<g id="a_Node000001"><a xlink:title="将原始报文内容转换为输出端力矩">
<polygon fill="#999999" stroke="#666666" points="318,-54 176,-54 176,-24 318,-24 318,-54"/>
<text text-anchor="start" x="184" y="-42" font-family="Helvetica,sans-Serif" font-size="10.00">hello_world::devices</text>
<text text-anchor="middle" x="247" y="-31" font-family="Helvetica,sans-Serif" font-size="10.00">::motor::DM_J4310::raw2torq</text>
</a>
</g>
</g>
<!-- Node2 -->
<g id="Node000002" class="node">
<title>Node2</title>
<g id="a_Node000002"><a xlink:href="classhello__world_1_1devices_1_1motor_1_1_d_m___j4310.html#a84ecfac4c74e3f0f7b85fba6c69f2aa1" target="_top" xlink:title="将电调发回的 CAN 报文进行解包">
<polygon fill="white" stroke="#666666" points="138.5,-78 1.5,-78 1.5,-48 138.5,-48 138.5,-78"/>
<text text-anchor="start" x="9.5" y="-66" font-family="Helvetica,sans-Serif" font-size="10.00">hello_world::devices</text>
<text text-anchor="middle" x="70" y="-55" font-family="Helvetica,sans-Serif" font-size="10.00">::motor::DM_J4310::decode</text>
</a>
</g>
</g>
<!-- Node1&#45;&gt;Node2 -->
<g id="edge1_Node000001_Node000002" class="edge">
<title>Node1&#45;&gt;Node2</title>
<g id="a_edge1_Node000001_Node000002"><a xlink:title=" ">
<path fill="none" stroke="#63b8ff" d="M164.94,-50.12C156.17,-51.32 147.31,-52.53 138.72,-53.71"/>
<polygon fill="#63b8ff" stroke="#63b8ff" points="165.15,-53.48 174.58,-48.66 164.19,-46.55 165.15,-53.48"/>
</a>
</g>
</g>
<!-- Node3 -->
<g id="Node000003" class="node">
<title>Node3</title>
<g id="a_Node000003"><a xlink:href="classhello__world_1_1devices_1_1motor_1_1_d_m___j4310.html#ae15373ce02962c1a287d7e813413869b" target="_top" xlink:title="设定发给电调的期望值">
<polygon fill="white" stroke="#666666" points="140,-30 0,-30 0,0 140,0 140,-30"/>
<text text-anchor="start" x="8" y="-18" font-family="Helvetica,sans-Serif" font-size="10.00">hello_world::devices</text>
<text text-anchor="middle" x="70" y="-7" font-family="Helvetica,sans-Serif" font-size="10.00">::motor::DM_J4310::setInput</text>
</a>
</g>
</g>
<!-- Node1&#45;&gt;Node3 -->
<g id="edge2_Node000001_Node000003" class="edge">
<title>Node1&#45;&gt;Node3</title>
<g id="a_edge2_Node000001_Node000003"><a xlink:title=" ">
<path fill="none" stroke="#63b8ff" d="M164.89,-27.88C156.72,-26.76 148.46,-25.62 140.42,-24.52"/>
<polygon fill="#63b8ff" stroke="#63b8ff" points="164.19,-31.45 174.58,-29.34 165.15,-24.52 164.19,-31.45"/>
</a>
</g>
</g>
</g>
</svg>
