<?xml version="1.0" encoding="UTF-8" standalone="no"?>
<!DOCTYPE svg PUBLIC "-//W3C//DTD SVG 1.1//EN"
 "http://www.w3.org/Graphics/SVG/1.1/DTD/svg11.dtd">
<!-- Generated by graphviz version 8.0.3 (20230416.2022)
 -->
<!-- Title: hello_world::algorithms::controller::pid::PidList::empty Pages: 1 -->
<svg width="611pt" height="113pt"
 viewBox="0.00 0.00 611.00 113.34" xmlns="http://www.w3.org/2000/svg" xmlns:xlink="http://www.w3.org/1999/xlink">
<g id="graph0" class="graph" transform="scale(1 1) rotate(0) translate(4 109.34)">
<title>hello_world::algorithms::controller::pid::PidList::empty</title>
<!-- Node1 -->
<g id="Node000001" class="node">
<title>Node1</title>
<g id="a_Node000001"><a xlink:title="检查链表是否为空">
<polygon fill="#999999" stroke="#666666" points="603,-95 486,-95 486,-54 603,-54 603,-95"/>
<text text-anchor="start" x="494" y="-83" font-family="Helvetica,sans-Serif" font-size="10.00">hello_world::algorithms</text>
<text text-anchor="start" x="494" y="-72" font-family="Helvetica,sans-Serif" font-size="10.00">::controller::pid::PidList</text>
<text text-anchor="middle" x="544.5" y="-61" font-family="Helvetica,sans-Serif" font-size="10.00">::empty</text>
</a>
</g>
</g>
<!-- Node2 -->
<g id="Node000002" class="node">
<title>Node2</title>
<g id="a_Node000002"><a xlink:href="classhello__world_1_1algorithms_1_1controller_1_1pid_1_1_pid_list.html#acff9c6256713181463dac33bcc8930a5" target="_top" xlink:title="清空链表">
<polygon fill="white" stroke="#666666" points="270,-89 153,-89 153,-48 270,-48 270,-89"/>
<text text-anchor="start" x="161" y="-77" font-family="Helvetica,sans-Serif" font-size="10.00">hello_world::algorithms</text>
<text text-anchor="start" x="161" y="-66" font-family="Helvetica,sans-Serif" font-size="10.00">::controller::pid::PidList</text>
<text text-anchor="middle" x="211.5" y="-55" font-family="Helvetica,sans-Serif" font-size="10.00">::clear</text>
</a>
</g>
</g>
<!-- Node1&#45;&gt;Node2 -->
<g id="edge1_Node000001_Node000002" class="edge">
<title>Node1&#45;&gt;Node2</title>
<g id="a_edge1_Node000001_Node000002"><a xlink:title=" ">
<path fill="none" stroke="#63b8ff" d="M475.06,-94.16C466.68,-95.94 458.18,-97.47 450,-98.5 386.5,-106.52 369.23,-108.4 306,-98.5 293.54,-96.55 280.47,-93.22 268.18,-89.47"/>
<polygon fill="#63b8ff" stroke="#63b8ff" points="475.6,-97.4 484.58,-91.77 474.05,-90.57 475.6,-97.4"/>
</a>
</g>
</g>
<!-- Node4 -->
<g id="Node000004" class="node">
<title>Node4</title>
<g id="a_Node000004"><a xlink:href="classhello__world_1_1algorithms_1_1controller_1_1pid_1_1_pid_list.html#adc2b7b05bea0ffea750ed9a212467145" target="_top" xlink:title="向链表尾部添加一个新的 PidNode">
<polygon fill="white" stroke="#666666" points="450,-89.5 306,-89.5 306,-59.5 450,-59.5 450,-89.5"/>
<text text-anchor="start" x="314" y="-77.5" font-family="Helvetica,sans-Serif" font-size="10.00">hello_world::algorithms</text>
<text text-anchor="middle" x="378" y="-66.5" font-family="Helvetica,sans-Serif" font-size="10.00">::controller::pid::PidList::push</text>
</a>
</g>
</g>
<!-- Node1&#45;&gt;Node4 -->
<g id="edge3_Node000001_Node000004" class="edge">
<title>Node1&#45;&gt;Node4</title>
<g id="a_edge3_Node000001_Node000004"><a xlink:title=" ">
<path fill="none" stroke="#63b8ff" d="M474.67,-74.5C466.62,-74.5 458.39,-74.5 450.31,-74.5"/>
<polygon fill="#63b8ff" stroke="#63b8ff" points="474.5,-78 484.5,-74.5 474.5,-71 474.5,-78"/>
</a>
</g>
</g>
<!-- Node5 -->
<g id="Node000005" class="node">
<title>Node5</title>
<g id="a_Node000005"><a xlink:href="classhello__world_1_1algorithms_1_1controller_1_1pid_1_1_pid_list.html#a5ea468d831da1cfd880ad38897d227d2" target="_top" xlink:title="移除链表尾部的 PidNode">
<polygon fill="white" stroke="#666666" points="436.5,-41 319.5,-41 319.5,0 436.5,0 436.5,-41"/>
<text text-anchor="start" x="327.5" y="-29" font-family="Helvetica,sans-Serif" font-size="10.00">hello_world::algorithms</text>
<text text-anchor="start" x="327.5" y="-18" font-family="Helvetica,sans-Serif" font-size="10.00">::controller::pid::PidList</text>
<text text-anchor="middle" x="378" y="-7" font-family="Helvetica,sans-Serif" font-size="10.00">::removeTail</text>
</a>
</g>
</g>
<!-- Node1&#45;&gt;Node5 -->
<g id="edge4_Node000001_Node000005" class="edge">
<title>Node1&#45;&gt;Node5</title>
<g id="a_edge4_Node000001_Node000005"><a xlink:title=" ">
<path fill="none" stroke="#63b8ff" d="M475.34,-52.13C462.52,-47.92 449.22,-43.55 436.75,-39.46"/>
<polygon fill="#63b8ff" stroke="#63b8ff" points="473.91,-55.67 484.5,-55.46 476.09,-49.02 473.91,-55.67"/>
</a>
</g>
</g>
<!-- Node3 -->
<g id="Node000003" class="node">
<title>Node3</title>
<g id="a_Node000003"><a xlink:href="classhello__world_1_1algorithms_1_1controller_1_1pid_1_1_pid_list.html#a8ad0d9ef13dc836eab3f26c1de2e87ec" target="_top" xlink:title="析构函数，清空链表">
<polygon fill="white" stroke="#666666" points="117,-89 0,-89 0,-48 117,-48 117,-89"/>
<text text-anchor="start" x="8" y="-77" font-family="Helvetica,sans-Serif" font-size="10.00">hello_world::algorithms</text>
<text text-anchor="start" x="8" y="-66" font-family="Helvetica,sans-Serif" font-size="10.00">::controller::pid::PidList</text>
<text text-anchor="middle" x="58.5" y="-55" font-family="Helvetica,sans-Serif" font-size="10.00">::~PidList</text>
</a>
</g>
</g>
<!-- Node2&#45;&gt;Node3 -->
<g id="edge2_Node000002_Node000003" class="edge">
<title>Node2&#45;&gt;Node3</title>
<g id="a_edge2_Node000002_Node000003"><a xlink:title=" ">
<path fill="none" stroke="#63b8ff" d="M141.78,-68.5C133.51,-68.5 125.13,-68.5 117.04,-68.5"/>
<polygon fill="#63b8ff" stroke="#63b8ff" points="141.55,-72 151.55,-68.5 141.55,-65 141.55,-72"/>
</a>
</g>
</g>
<!-- Node5&#45;&gt;Node2 -->
<g id="edge5_Node000005_Node000002" class="edge">
<title>Node5&#45;&gt;Node2</title>
<g id="a_edge5_Node000005_Node000002"><a xlink:title=" ">
<path fill="none" stroke="#63b8ff" d="M308.46,-40.5C295.75,-44.21 282.6,-48.05 270.25,-51.65"/>
<polygon fill="#63b8ff" stroke="#63b8ff" points="309.38,-43.58 318,-37.42 307.42,-36.86 309.38,-43.58"/>
</a>
</g>
</g>
</g>
</svg>
