<?xml version="1.0" encoding="UTF-8" standalone="no"?>
<!DOCTYPE svg PUBLIC "-//W3C//DTD SVG 1.1//EN"
 "http://www.w3.org/Graphics/SVG/1.1/DTD/svg11.dtd">
<!-- Generated by graphviz version 8.0.3 (20230416.2022)
 -->
<!-- Title: hello_world::devices::referee::RxPackageInfo::isUpdated Pages: 1 -->
<svg width="419pt" height="49pt"
 viewBox="0.00 0.00 419.00 49.00" xmlns="http://www.w3.org/2000/svg" xmlns:xlink="http://www.w3.org/1999/xlink">
<g id="graph0" class="graph" transform="scale(1 1) rotate(0) translate(4 45)">
<title>hello_world::devices::referee::RxPackageInfo::isUpdated</title>
<!-- Node1 -->
<g id="Node000001" class="node">
<title>Node1</title>
<g id="a_Node000001"><a xlink:title=" ">
<polygon fill="#999999" stroke="#666666" points="123,-41 0,-41 0,0 123,0 123,-41"/>
<text text-anchor="start" x="8" y="-29" font-family="Helvetica,sans-Serif" font-size="10.00">hello_world::devices</text>
<text text-anchor="start" x="8" y="-18" font-family="Helvetica,sans-Serif" font-size="10.00">::referee::RxPackageInfo</text>
<text text-anchor="middle" x="61.5" y="-7" font-family="Helvetica,sans-Serif" font-size="10.00">::isUpdated</text>
</a>
</g>
</g>
<!-- Node2 -->
<g id="Node000002" class="node">
<title>Node2</title>
<g id="a_Node000002"><a xlink:href="namespacehello__world_1_1dsp_1_1tick.html#a97910b07255da1979f8ceafd8c6d2ea5" target="_top" xlink:title=" ">
<polygon fill="white" stroke="#666666" points="267,-35.5 159,-35.5 159,-5.5 267,-5.5 267,-35.5"/>
<text text-anchor="start" x="167" y="-23.5" font-family="Helvetica,sans-Serif" font-size="10.00">hello_world::dsp::tick</text>
<text text-anchor="middle" x="213" y="-12.5" font-family="Helvetica,sans-Serif" font-size="10.00">::GetTickMs</text>
</a>
</g>
</g>
<!-- Node1&#45;&gt;Node2 -->
<g id="edge1_Node000001_Node000002" class="edge">
<title>Node1&#45;&gt;Node2</title>
<g id="a_edge1_Node000001_Node000002"><a xlink:title=" ">
<path fill="none" stroke="#63b8ff" d="M123.31,-20.5C131.42,-20.5 139.76,-20.5 147.93,-20.5"/>
<polygon fill="#63b8ff" stroke="#63b8ff" points="147.92,-24 157.92,-20.5 147.92,-17 147.92,-24"/>
</a>
</g>
</g>
<!-- Node3 -->
<g id="Node000003" class="node">
<title>Node3</title>
<g id="a_Node000003"><a xlink:href="namespacehello__world_1_1dsp_1_1tick.html#a0c9c44ee367dc665cc6f1a6d830da9ee" target="_top" xlink:title=" ">
<polygon fill="white" stroke="#666666" points="411,-35.5 303,-35.5 303,-5.5 411,-5.5 411,-35.5"/>
<text text-anchor="start" x="311" y="-23.5" font-family="Helvetica,sans-Serif" font-size="10.00">hello_world::dsp::tick</text>
<text text-anchor="middle" x="357" y="-12.5" font-family="Helvetica,sans-Serif" font-size="10.00">::GetTickUs</text>
</a>
</g>
</g>
<!-- Node2&#45;&gt;Node3 -->
<g id="edge2_Node000002_Node000003" class="edge">
<title>Node2&#45;&gt;Node3</title>
<g id="a_edge2_Node000002_Node000003"><a xlink:title=" ">
<path fill="none" stroke="#63b8ff" d="M267.28,-20.5C275.38,-20.5 283.81,-20.5 292.1,-20.5"/>
<polygon fill="#63b8ff" stroke="#63b8ff" points="291.89,-24 301.89,-20.5 291.89,-17 291.89,-24"/>
</a>
</g>
</g>
</g>
</svg>
