<?xml version="1.0" encoding="UTF-8" standalone="no"?>
<!DOCTYPE svg PUBLIC "-//W3C//DTD SVG 1.1//EN"
 "http://www.w3.org/Graphics/SVG/1.1/DTD/svg11.dtd">
<!-- Generated by graphviz version 8.0.3 (20230416.2022)
 -->
<!-- Title: hello_world::devices::imu::BMI088::accCsH Pages: 1 -->
<svg width="932pt" height="215pt"
 viewBox="0.00 0.00 932.00 215.00" xmlns="http://www.w3.org/2000/svg" xmlns:xlink="http://www.w3.org/1999/xlink">
<g id="graph0" class="graph" transform="scale(1 1) rotate(0) translate(4 211)">
<title>hello_world::devices::imu::BMI088::accCsH</title>
<!-- Node1 -->
<g id="Node000001" class="node">
<title>Node1</title>
<g id="a_Node000001"><a xlink:title=" ">
<polygon fill="#999999" stroke="#666666" points="924,-92 806,-92 806,-62 924,-62 924,-92"/>
<text text-anchor="start" x="814" y="-80" font-family="Helvetica,sans-Serif" font-size="10.00">hello_world::devices</text>
<text text-anchor="middle" x="865" y="-69" font-family="Helvetica,sans-Serif" font-size="10.00">::imu::BMI088::accCsH</text>
</a>
</g>
</g>
<!-- Node2 -->
<g id="Node000002" class="node">
<title>Node2</title>
<g id="a_Node000002"><a xlink:href="classhello__world_1_1devices_1_1imu_1_1_b_m_i088.html#ad8bdc7c9eee4bb3c35ee8467df9e49ae" target="_top" xlink:title="加速度计多寄存器数据读取">
<polygon fill="white" stroke="#666666" points="770,-159 627,-159 627,-129 770,-129 770,-159"/>
<text text-anchor="start" x="635" y="-147" font-family="Helvetica,sans-Serif" font-size="10.00">hello_world::devices</text>
<text text-anchor="middle" x="698.5" y="-136" font-family="Helvetica,sans-Serif" font-size="10.00">::imu::BMI088::accMultiRead</text>
</a>
</g>
</g>
<!-- Node1&#45;&gt;Node2 -->
<g id="edge1_Node000001_Node000002" class="edge">
<title>Node1&#45;&gt;Node2</title>
<g id="a_edge1_Node000001_Node000002"><a xlink:title=" ">
<path fill="none" stroke="#63b8ff" d="M816.22,-96.46C791.12,-106.68 760.8,-119.03 737.35,-128.58"/>
<polygon fill="#63b8ff" stroke="#63b8ff" points="817.32,-99.38 825.26,-92.37 814.68,-92.9 817.32,-99.38"/>
</a>
</g>
</g>
<!-- Node9 -->
<g id="Node000009" class="node">
<title>Node9</title>
<g id="a_Node000009"><a xlink:href="classhello__world_1_1devices_1_1imu_1_1_b_m_i088.html#a3d46ca9f969584dbbc7060a0665edd0a" target="_top" xlink:title="读取加速度计寄存器数据">
<polygon fill="white" stroke="#666666" points="585,-63 463,-63 463,-33 585,-33 585,-63"/>
<text text-anchor="start" x="471" y="-51" font-family="Helvetica,sans-Serif" font-size="10.00">hello_world::devices</text>
<text text-anchor="middle" x="524" y="-40" font-family="Helvetica,sans-Serif" font-size="10.00">::imu::BMI088::accRead</text>
</a>
</g>
</g>
<!-- Node1&#45;&gt;Node9 -->
<g id="edge9_Node000001_Node000009" class="edge">
<title>Node1&#45;&gt;Node9</title>
<g id="a_edge9_Node000001_Node000009"><a xlink:title=" ">
<path fill="none" stroke="#63b8ff" d="M794.95,-71.09C733.37,-65.83 644.14,-58.19 585.37,-53.16"/>
<polygon fill="#63b8ff" stroke="#63b8ff" points="794.46,-74.65 804.72,-72.01 795.06,-67.68 794.46,-74.65"/>
</a>
</g>
</g>
<!-- Node10 -->
<g id="Node000010" class="node">
<title>Node10</title>
<g id="a_Node000010"><a xlink:href="classhello__world_1_1devices_1_1imu_1_1_b_m_i088.html#a7bbb5b66f79a9d0d40edf7f809743d59" target="_top" xlink:title="向加速度计寄存器写入数据">
<polygon fill="white" stroke="#666666" points="585,-111 463,-111 463,-81 585,-81 585,-111"/>
<text text-anchor="start" x="471" y="-99" font-family="Helvetica,sans-Serif" font-size="10.00">hello_world::devices</text>
<text text-anchor="middle" x="524" y="-88" font-family="Helvetica,sans-Serif" font-size="10.00">::imu::BMI088::accWrite</text>
</a>
</g>
</g>
<!-- Node1&#45;&gt;Node10 -->
<g id="edge12_Node000001_Node000010" class="edge">
<title>Node1&#45;&gt;Node10</title>
<g id="a_edge12_Node000001_Node000010"><a xlink:title=" ">
<path fill="none" stroke="#63b8ff" d="M794.95,-80.87C733.37,-84.32 644.14,-89.32 585.37,-92.62"/>
<polygon fill="#63b8ff" stroke="#63b8ff" points="794.94,-84.32 804.72,-80.27 794.54,-77.33 794.94,-84.32"/>
</a>
</g>
</g>
<!-- Node11 -->
<g id="Node000011" class="node">
<title>Node11</title>
<g id="a_Node000011"><a xlink:href="classhello__world_1_1devices_1_1imu_1_1_b_m_i088.html#a00b280798b0068e72d0235cd42d9356e" target="_top" xlink:title="BMI088 初始化">
<polygon fill="white" stroke="#666666" points="756.5,-30 640.5,-30 640.5,0 756.5,0 756.5,-30"/>
<text text-anchor="start" x="648.5" y="-18" font-family="Helvetica,sans-Serif" font-size="10.00">hello_world::devices</text>
<text text-anchor="middle" x="698.5" y="-7" font-family="Helvetica,sans-Serif" font-size="10.00">::imu::BMI088::BMI088</text>
</a>
</g>
</g>
<!-- Node1&#45;&gt;Node11 -->
<g id="edge15_Node000001_Node000011" class="edge">
<title>Node1&#45;&gt;Node11</title>
<g id="a_edge15_Node000001_Node000011"><a xlink:title=" ">
<path fill="none" stroke="#63b8ff" d="M812.84,-57.72C789.52,-48.93 762.28,-38.66 740.35,-30.4"/>
<polygon fill="#63b8ff" stroke="#63b8ff" points="811.32,-61.26 821.91,-61.51 813.79,-54.71 811.32,-61.26"/>
</a>
</g>
</g>
<!-- Node3 -->
<g id="Node000003" class="node">
<title>Node3</title>
<g id="a_Node000003"><a xlink:href="classhello__world_1_1devices_1_1imu_1_1_b_m_i088.html#ad236f84f69a0ef4e8befa96479bf5618" target="_top" xlink:title="获取加速度计数据">
<polygon fill="white" stroke="#666666" points="591,-159 457,-159 457,-129 591,-129 591,-159"/>
<text text-anchor="start" x="465" y="-147" font-family="Helvetica,sans-Serif" font-size="10.00">hello_world::devices</text>
<text text-anchor="middle" x="524" y="-136" font-family="Helvetica,sans-Serif" font-size="10.00">::imu::BMI088::getAccData</text>
</a>
</g>
</g>
<!-- Node2&#45;&gt;Node3 -->
<g id="edge2_Node000002_Node000003" class="edge">
<title>Node2&#45;&gt;Node3</title>
<g id="a_edge2_Node000002_Node000003"><a xlink:title=" ">
<path fill="none" stroke="#63b8ff" d="M616.04,-144C607.78,-144 599.46,-144 591.38,-144"/>
<polygon fill="#63b8ff" stroke="#63b8ff" points="615.84,-147.5 625.84,-144 615.84,-140.5 615.84,-147.5"/>
</a>
</g>
</g>
<!-- Node8 -->
<g id="Node000008" class="node">
<title>Node8</title>
<g id="a_Node000008"><a xlink:href="classhello__world_1_1devices_1_1imu_1_1_b_m_i088.html#a0672cec3591e037942c7bc03b31dd24a" target="_top" xlink:title="获取温度数据">
<polygon fill="white" stroke="#666666" points="584.5,-207 463.5,-207 463.5,-177 584.5,-177 584.5,-207"/>
<text text-anchor="start" x="471.5" y="-195" font-family="Helvetica,sans-Serif" font-size="10.00">hello_world::devices</text>
<text text-anchor="middle" x="524" y="-184" font-family="Helvetica,sans-Serif" font-size="10.00">::imu::BMI088::getTemp</text>
</a>
</g>
</g>
<!-- Node2&#45;&gt;Node8 -->
<g id="edge7_Node000002_Node000008" class="edge">
<title>Node2&#45;&gt;Node8</title>
<g id="a_edge7_Node000002_Node000008"><a xlink:title=" ">
<path fill="none" stroke="#63b8ff" d="M631.62,-162.33C614.73,-167.03 596.73,-172.04 580.43,-176.58"/>
<polygon fill="#63b8ff" stroke="#63b8ff" points="632.27,-165.5 640.97,-159.45 630.4,-158.76 632.27,-165.5"/>
</a>
</g>
</g>
<!-- Node4 -->
<g id="Node000004" class="node">
<title>Node4</title>
<g id="a_Node000004"><a xlink:href="classhello__world_1_1devices_1_1imu_1_1_b_m_i088.html#a7bc81c0ed908d469d3c0bde126a80311" target="_top" xlink:title="加速度计自检测">
<polygon fill="white" stroke="#666666" points="421,-106 287,-106 287,-76 421,-76 421,-106"/>
<text text-anchor="start" x="295" y="-94" font-family="Helvetica,sans-Serif" font-size="10.00">hello_world::devices</text>
<text text-anchor="middle" x="354" y="-83" font-family="Helvetica,sans-Serif" font-size="10.00">::imu::BMI088::accSelfTest</text>
</a>
</g>
</g>
<!-- Node3&#45;&gt;Node4 -->
<g id="edge3_Node000003_Node000004" class="edge">
<title>Node3&#45;&gt;Node4</title>
<g id="a_edge3_Node000003_Node000004"><a xlink:title=" ">
<path fill="none" stroke="#63b8ff" d="M463.66,-125.28C444.18,-119.13 422.75,-112.37 404.11,-106.49"/>
<polygon fill="#63b8ff" stroke="#63b8ff" points="462.37,-128.86 472.96,-128.53 464.47,-122.18 462.37,-128.86"/>
</a>
</g>
</g>
<!-- Node7 -->
<g id="Node000007" class="node">
<title>Node7</title>
<g id="a_Node000007"><a xlink:href="classhello__world_1_1devices_1_1imu_1_1_b_m_i088.html#aa4b8ef9d615c0ead67e6b88c34bd84d1" target="_top" xlink:title="获取传感器数据">
<polygon fill="white" stroke="#666666" points="412.5,-199 295.5,-199 295.5,-169 412.5,-169 412.5,-199"/>
<text text-anchor="start" x="303.5" y="-187" font-family="Helvetica,sans-Serif" font-size="10.00">hello_world::devices</text>
<text text-anchor="middle" x="354" y="-176" font-family="Helvetica,sans-Serif" font-size="10.00">::imu::BMI088::getData</text>
</a>
</g>
</g>
<!-- Node3&#45;&gt;Node7 -->
<g id="edge6_Node000003_Node000007" class="edge">
<title>Node3&#45;&gt;Node7</title>
<g id="a_edge6_Node000003_Node000007"><a xlink:title=" ">
<path fill="none" stroke="#63b8ff" d="M447.48,-161.98C435.88,-164.74 424.07,-167.56 412.93,-170.21"/>
<polygon fill="#63b8ff" stroke="#63b8ff" points="448.13,-165.19 457.05,-159.47 446.51,-158.38 448.13,-165.19"/>
</a>
</g>
</g>
<!-- Node5 -->
<g id="Node000005" class="node">
<title>Node5</title>
<g id="a_Node000005"><a xlink:href="classhello__world_1_1devices_1_1imu_1_1_b_m_i088.html#af18363d9dd6de94e4961ce1772923483" target="_top" xlink:title="加速度计配置">
<polygon fill="white" stroke="#666666" points="251,-106 139,-106 139,-76 251,-76 251,-106"/>
<text text-anchor="start" x="147" y="-94" font-family="Helvetica,sans-Serif" font-size="10.00">hello_world::devices</text>
<text text-anchor="middle" x="195" y="-83" font-family="Helvetica,sans-Serif" font-size="10.00">::imu::BMI088::accInit</text>
</a>
</g>
</g>
<!-- Node4&#45;&gt;Node5 -->
<g id="edge4_Node000004_Node000005" class="edge">
<title>Node4&#45;&gt;Node5</title>
<g id="a_edge4_Node000004_Node000005"><a xlink:title=" ">
<path fill="none" stroke="#63b8ff" d="M275.92,-91C267.55,-91 259.17,-91 251.14,-91"/>
<polygon fill="#63b8ff" stroke="#63b8ff" points="275.87,-94.5 285.87,-91 275.87,-87.5 275.87,-94.5"/>
</a>
</g>
</g>
<!-- Node6 -->
<g id="Node000006" class="node">
<title>Node6</title>
<g id="a_Node000006"><a xlink:href="classhello__world_1_1devices_1_1imu_1_1_b_m_i088.html#a623a7d90db0585ea45bac12fd3d19061" target="_top" xlink:title="进行 BMI088 芯片配置">
<polygon fill="white" stroke="#666666" points="103,-106 0,-106 0,-76 103,-76 103,-106"/>
<text text-anchor="start" x="8" y="-94" font-family="Helvetica,sans-Serif" font-size="10.00">hello_world::devices</text>
<text text-anchor="middle" x="51.5" y="-83" font-family="Helvetica,sans-Serif" font-size="10.00">::imu::BMI088::init</text>
</a>
</g>
</g>
<!-- Node5&#45;&gt;Node6 -->
<g id="edge5_Node000005_Node000006" class="edge">
<title>Node5&#45;&gt;Node6</title>
<g id="a_edge5_Node000005_Node000006"><a xlink:title=" ">
<path fill="none" stroke="#63b8ff" d="M127.98,-91C119.61,-91 111.15,-91 103.07,-91"/>
<polygon fill="#63b8ff" stroke="#63b8ff" points="127.89,-94.5 137.89,-91 127.89,-87.5 127.89,-94.5"/>
</a>
</g>
</g>
<!-- Node8&#45;&gt;Node7 -->
<g id="edge8_Node000008_Node000007" class="edge">
<title>Node8&#45;&gt;Node7</title>
<g id="a_edge8_Node000008_Node000007"><a xlink:title=" ">
<path fill="none" stroke="#63b8ff" d="M452.36,-188.64C439.18,-188.01 425.56,-187.36 412.82,-186.75"/>
<polygon fill="#63b8ff" stroke="#63b8ff" points="452.14,-192.18 462.3,-189.16 452.47,-185.19 452.14,-192.18"/>
</a>
</g>
</g>
<!-- Node9&#45;&gt;Node4 -->
<g id="edge11_Node000009_Node000004" class="edge">
<title>Node9&#45;&gt;Node4</title>
<g id="a_edge11_Node000009_Node000004"><a xlink:title=" ">
<path fill="none" stroke="#63b8ff" d="M452.17,-66.13C439.91,-69.27 427.27,-72.5 415.32,-75.56"/>
<polygon fill="#63b8ff" stroke="#63b8ff" points="453,-69.27 461.82,-63.4 451.27,-62.49 453,-69.27"/>
</a>
</g>
</g>
<!-- Node9&#45;&gt;Node5 -->
<g id="edge10_Node000009_Node000005" class="edge">
<title>Node9&#45;&gt;Node5</title>
<g id="a_edge10_Node000009_Node000005"><a xlink:title=" ">
<path fill="none" stroke="#63b8ff" d="M452.28,-50.41C405.19,-52.82 342.07,-57.6 287,-67 274.28,-69.17 260.74,-72.29 248.1,-75.56"/>
<polygon fill="#63b8ff" stroke="#63b8ff" points="452.17,-53.87 461.98,-49.89 451.83,-46.88 452.17,-53.87"/>
</a>
</g>
</g>
<!-- Node10&#45;&gt;Node4 -->
<g id="edge14_Node000010_Node000004" class="edge">
<title>Node10&#45;&gt;Node4</title>
<g id="a_edge14_Node000010_Node000004"><a xlink:title=" ">
<path fill="none" stroke="#63b8ff" d="M451.93,-93.88C441.78,-93.58 431.37,-93.27 421.31,-92.97"/>
<polygon fill="#63b8ff" stroke="#63b8ff" points="451.72,-97.41 461.82,-94.21 451.93,-90.41 451.72,-97.41"/>
</a>
</g>
</g>
<!-- Node10&#45;&gt;Node5 -->
<g id="edge13_Node000010_Node000005" class="edge">
<title>Node10&#45;&gt;Node5</title>
<g id="a_edge13_Node000010_Node000005"><a xlink:title=" ">
<path fill="none" stroke="#63b8ff" d="M451.92,-110.97C441.59,-112.64 431.05,-114.07 421,-115 361.7,-120.48 346.06,-122.66 287,-115 273.23,-113.21 258.57,-109.97 245.13,-106.43"/>
<polygon fill="#63b8ff" stroke="#63b8ff" points="452.31,-114.28 461.58,-109.15 451.13,-107.38 452.31,-114.28"/>
</a>
</g>
</g>
</g>
</svg>
