<?xml version="1.0" encoding="UTF-8" standalone="no"?>
<!DOCTYPE svg PUBLIC "-//W3C//DTD SVG 1.1//EN"
 "http://www.w3.org/Graphics/SVG/1.1/DTD/svg11.dtd">
<!-- Generated by graphviz version 8.0.3 (20230416.2022)
 -->
<!-- Title: hello_world::devices::motor::DM_J4310::DM_J4310 Pages: 1 -->
<svg width="456pt" height="172pt"
 viewBox="0.00 0.00 456.00 172.00" xmlns="http://www.w3.org/2000/svg" xmlns:xlink="http://www.w3.org/1999/xlink">
<g id="graph0" class="graph" transform="scale(1 1) rotate(0) translate(4 168)">
<title>hello_world::devices::motor::DM_J4310::DM_J4310</title>
<!-- Node1 -->
<g id="Node000001" class="node">
<title>Node1</title>
<g id="a_Node000001"><a xlink:title="DM_J4310 初始化">
<polygon fill="#999999" stroke="#666666" points="151,-94 0,-94 0,-64 151,-64 151,-94"/>
<text text-anchor="start" x="8" y="-82" font-family="Helvetica,sans-Serif" font-size="10.00">hello_world::devices</text>
<text text-anchor="middle" x="75.5" y="-71" font-family="Helvetica,sans-Serif" font-size="10.00">::motor::DM_J4310::DM_J4310</text>
</a>
</g>
</g>
<!-- Node2 -->
<g id="Node000002" class="node">
<title>Node2</title>
<g id="a_Node000002"><a xlink:href="classhello__world_1_1devices_1_1motor_1_1_motor.html#a6e11db30817cf05232ee3d52ed48030b" target="_top" xlink:title="将转子电流转换为输出端力矩">
<polygon fill="white" stroke="#666666" points="309,-164 187,-164 187,-134 309,-134 309,-164"/>
<text text-anchor="start" x="195" y="-152" font-family="Helvetica,sans-Serif" font-size="10.00">hello_world::devices</text>
<text text-anchor="middle" x="248" y="-141" font-family="Helvetica,sans-Serif" font-size="10.00">::motor::Motor::curr2torq</text>
</a>
</g>
</g>
<!-- Node1&#45;&gt;Node2 -->
<g id="edge1_Node000001_Node000002" class="edge">
<title>Node1&#45;&gt;Node2</title>
<g id="a_edge1_Node000001_Node000002"><a xlink:title=" ">
<path fill="none" stroke="#63b8ff" d="M113.28,-94.46C134.75,-103.45 162.37,-114.95 187,-125 190.64,-126.49 194.41,-128.02 198.21,-129.55"/>
<polygon fill="#63b8ff" stroke="#63b8ff" points="196.65,-133.1 207.24,-133.59 199.27,-126.61 196.65,-133.1"/>
</a>
</g>
</g>
<!-- Node4 -->
<g id="Node000004" class="node">
<title>Node4</title>
<g id="a_Node000004"><a xlink:href="classhello__world_1_1devices_1_1motor_1_1_motor.html#ab3e2187f017e86c6d4a83caa55fe9419" target="_top" xlink:title=" ">
<polygon fill="white" stroke="#666666" points="299.5,-116 196.5,-116 196.5,-86 299.5,-86 299.5,-116"/>
<text text-anchor="start" x="204.5" y="-104" font-family="Helvetica,sans-Serif" font-size="10.00">hello_world::devices</text>
<text text-anchor="middle" x="248" y="-93" font-family="Helvetica,sans-Serif" font-size="10.00">::motor::Motor::id</text>
</a>
</g>
</g>
<!-- Node1&#45;&gt;Node4 -->
<g id="edge3_Node000001_Node000004" class="edge">
<title>Node1&#45;&gt;Node4</title>
<g id="a_edge3_Node000001_Node000004"><a xlink:title=" ">
<path fill="none" stroke="#63b8ff" d="M151.28,-88.65C162.69,-90.12 174.35,-91.63 185.44,-93.06"/>
<polygon fill="#63b8ff" stroke="#63b8ff" points="184.93,-96.65 195.29,-94.46 185.82,-89.71 184.93,-96.65"/>
</a>
</g>
</g>
<!-- Node5 -->
<g id="Node000005" class="node">
<title>Node5</title>
<g id="a_Node000005"><a xlink:href="namespacehello__world.html#a94594f3432536927055026f3f48af251" target="_top" xlink:title="获取两个变量间的最小值">
<polygon fill="white" stroke="#666666" points="291,-67.5 205,-67.5 205,-48.5 291,-48.5 291,-67.5"/>
<text text-anchor="middle" x="248" y="-55.5" font-family="Helvetica,sans-Serif" font-size="10.00">hello_world::Min</text>
</a>
</g>
</g>
<!-- Node1&#45;&gt;Node5 -->
<g id="edge4_Node000001_Node000005" class="edge">
<title>Node1&#45;&gt;Node5</title>
<g id="a_edge4_Node000001_Node000005"><a xlink:title=" ">
<path fill="none" stroke="#63b8ff" d="M151.28,-69.79C165.69,-68.02 180.49,-66.19 194.03,-64.52"/>
<polygon fill="#63b8ff" stroke="#63b8ff" points="194.08,-67.92 203.58,-63.23 193.22,-60.97 194.08,-67.92"/>
</a>
</g>
</g>
<!-- Node6 -->
<g id="Node000006" class="node">
<title>Node6</title>
<g id="a_Node000006"><a xlink:href="classhello__world_1_1devices_1_1motor_1_1_motor.html#a44292bfea784425e2c2c81dc4d634371" target="_top" xlink:title="将输出端力矩转换为转子电流">
<polygon fill="white" stroke="#666666" points="309,-30 187,-30 187,0 309,0 309,-30"/>
<text text-anchor="start" x="195" y="-18" font-family="Helvetica,sans-Serif" font-size="10.00">hello_world::devices</text>
<text text-anchor="middle" x="248" y="-7" font-family="Helvetica,sans-Serif" font-size="10.00">::motor::Motor::torq2curr</text>
</a>
</g>
</g>
<!-- Node1&#45;&gt;Node6 -->
<g id="edge5_Node000001_Node000006" class="edge">
<title>Node1&#45;&gt;Node6</title>
<g id="a_edge5_Node000001_Node000006"><a xlink:title=" ">
<path fill="none" stroke="#63b8ff" d="M117.77,-63.51C141.25,-54.7 170.85,-43.59 195.79,-34.22"/>
<polygon fill="#63b8ff" stroke="#63b8ff" points="196.68,-37.25 204.81,-30.46 194.22,-30.7 196.68,-37.25"/>
</a>
</g>
</g>
<!-- Node3 -->
<g id="Node000003" class="node">
<title>Node3</title>
<g id="a_Node000003"><a xlink:href="classhello__world_1_1devices_1_1motor_1_1_motor.html#a7fbec1460a1db6c45b4c57fd0497e5e0" target="_top" xlink:title=" ">
<polygon fill="white" stroke="#666666" points="448,-164 345,-164 345,-134 448,-134 448,-164"/>
<text text-anchor="start" x="353" y="-152" font-family="Helvetica,sans-Serif" font-size="10.00">hello_world::devices</text>
<text text-anchor="middle" x="396.5" y="-141" font-family="Helvetica,sans-Serif" font-size="10.00">::motor::Motor::curr</text>
</a>
</g>
</g>
<!-- Node2&#45;&gt;Node3 -->
<g id="edge2_Node000002_Node000003" class="edge">
<title>Node2&#45;&gt;Node3</title>
<g id="a_edge2_Node000002_Node000003"><a xlink:title=" ">
<path fill="none" stroke="#63b8ff" d="M309.43,-149C317.45,-149 325.68,-149 333.73,-149"/>
<polygon fill="#63b8ff" stroke="#63b8ff" points="333.54,-152.5 343.54,-149 333.54,-145.5 333.54,-152.5"/>
</a>
</g>
</g>
<!-- Node7 -->
<g id="Node000007" class="node">
<title>Node7</title>
<g id="a_Node000007"><a xlink:href="classhello__world_1_1devices_1_1motor_1_1_motor.html#a987073404f2d04c10434f830884b9612" target="_top" xlink:title=" ">
<polygon fill="white" stroke="#666666" points="448,-30 345,-30 345,0 448,0 448,-30"/>
<text text-anchor="start" x="353" y="-18" font-family="Helvetica,sans-Serif" font-size="10.00">hello_world::devices</text>
<text text-anchor="middle" x="396.5" y="-7" font-family="Helvetica,sans-Serif" font-size="10.00">::motor::Motor::torq</text>
</a>
</g>
</g>
<!-- Node6&#45;&gt;Node7 -->
<g id="edge6_Node000006_Node000007" class="edge">
<title>Node6&#45;&gt;Node7</title>
<g id="a_edge6_Node000006_Node000007"><a xlink:title=" ">
<path fill="none" stroke="#63b8ff" d="M309.43,-15C317.45,-15 325.68,-15 333.73,-15"/>
<polygon fill="#63b8ff" stroke="#63b8ff" points="333.54,-18.5 343.54,-15 333.54,-11.5 333.54,-18.5"/>
</a>
</g>
</g>
</g>
</svg>
