<?xml version="1.0" encoding="UTF-8" standalone="no"?>
<!DOCTYPE svg PUBLIC "-//W3C//DTD SVG 1.1//EN"
 "http://www.w3.org/Graphics/SVG/1.1/DTD/svg11.dtd">
<!-- Generated by graphviz version 8.0.3 (20230416.2022)
 -->
<!-- Title: hello_world::devices::motor::MF9025v2::decode Pages: 1 -->
<svg width="488pt" height="155pt"
 viewBox="0.00 0.00 488.00 155.00" xmlns="http://www.w3.org/2000/svg" xmlns:xlink="http://www.w3.org/1999/xlink">
<g id="graph0" class="graph" transform="scale(1 1) rotate(0) translate(4 151)">
<title>hello_world::devices::motor::MF9025v2::decode</title>
<!-- Node1 -->
<g id="Node000001" class="node">
<title>Node1</title>
<g id="a_Node000001"><a xlink:title="将电调发回的 CAN 报文进行解包">
<polygon fill="#999999" stroke="#666666" points="135,-78 0,-78 0,-48 135,-48 135,-78"/>
<text text-anchor="start" x="8" y="-66" font-family="Helvetica,sans-Serif" font-size="10.00">hello_world::devices</text>
<text text-anchor="middle" x="67.5" y="-55" font-family="Helvetica,sans-Serif" font-size="10.00">::motor::MF9025v2::decode</text>
</a>
</g>
</g>
<!-- Node2 -->
<g id="Node000002" class="node">
<title>Node2</title>
<g id="a_Node000002"><a xlink:href="classhello__world_1_1devices_1_1motor_1_1_motor.html#a21092858a98af5688b398d57cd203592" target="_top" xlink:title="将角度转换到指定范围">
<polygon fill="white" stroke="#666666" points="302,-126 171,-126 171,-96 302,-96 302,-126"/>
<text text-anchor="start" x="179" y="-114" font-family="Helvetica,sans-Serif" font-size="10.00">hello_world::devices</text>
<text text-anchor="middle" x="236.5" y="-103" font-family="Helvetica,sans-Serif" font-size="10.00">::motor::Motor::normAngle</text>
</a>
</g>
</g>
<!-- Node1&#45;&gt;Node2 -->
<g id="edge1_Node000001_Node000002" class="edge">
<title>Node1&#45;&gt;Node2</title>
<g id="a_edge1_Node000001_Node000002"><a xlink:title=" ">
<path fill="none" stroke="#63b8ff" d="M122.26,-78.45C137.9,-82.95 155.15,-87.9 171.36,-92.57"/>
<polygon fill="#63b8ff" stroke="#63b8ff" points="170.26,-96.18 180.84,-95.58 172.2,-89.45 170.26,-96.18"/>
</a>
</g>
</g>
<!-- Node5 -->
<g id="Node000005" class="node">
<title>Node5</title>
<g id="a_Node000005"><a xlink:href="classhello__world_1_1devices_1_1motor_1_1_motor.html#a1e4467d9f449b9c6c7d6886fffa89667" target="_top" xlink:title="将原始报文内容转换为转子电流">
<polygon fill="white" stroke="#666666" points="297,-78 176,-78 176,-48 297,-48 297,-78"/>
<text text-anchor="start" x="184" y="-66" font-family="Helvetica,sans-Serif" font-size="10.00">hello_world::devices</text>
<text text-anchor="middle" x="236.5" y="-55" font-family="Helvetica,sans-Serif" font-size="10.00">::motor::Motor::raw2curr</text>
</a>
</g>
</g>
<!-- Node1&#45;&gt;Node5 -->
<g id="edge4_Node000001_Node000005" class="edge">
<title>Node1&#45;&gt;Node5</title>
<g id="a_edge4_Node000001_Node000005"><a xlink:title=" ">
<path fill="none" stroke="#63b8ff" d="M135.46,-63C145.09,-63 155.02,-63 164.72,-63"/>
<polygon fill="#63b8ff" stroke="#63b8ff" points="164.54,-66.5 174.54,-63 164.54,-59.5 164.54,-66.5"/>
</a>
</g>
</g>
<!-- Node6 -->
<g id="Node000006" class="node">
<title>Node6</title>
<g id="a_Node000006"><a xlink:href="classhello__world_1_1devices_1_1motor_1_1_motor.html#af74a8c4ad7c0067a2d71afd711639366" target="_top" xlink:title="将原始报文内容转换为输出端力矩">
<polygon fill="white" stroke="#666666" points="297,-30 176,-30 176,0 297,0 297,-30"/>
<text text-anchor="start" x="184" y="-18" font-family="Helvetica,sans-Serif" font-size="10.00">hello_world::devices</text>
<text text-anchor="middle" x="236.5" y="-7" font-family="Helvetica,sans-Serif" font-size="10.00">::motor::Motor::raw2torq</text>
</a>
</g>
</g>
<!-- Node1&#45;&gt;Node6 -->
<g id="edge5_Node000001_Node000006" class="edge">
<title>Node1&#45;&gt;Node6</title>
<g id="a_edge5_Node000001_Node000006"><a xlink:title=" ">
<path fill="none" stroke="#63b8ff" d="M122.26,-47.55C137.9,-43.05 155.15,-38.1 171.36,-33.43"/>
<polygon fill="#63b8ff" stroke="#63b8ff" points="172.2,-36.55 180.84,-30.42 170.26,-29.82 172.2,-36.55"/>
</a>
</g>
</g>
<!-- Node3 -->
<g id="Node000003" class="node">
<title>Node3</title>
<g id="a_Node000003"><a xlink:href="classhello__world_1_1devices_1_1motor_1_1_motor.html#acad1e1f1792ab8cb6265b1d5195737f6" target="_top" xlink:title=" ">
<polygon fill="white" stroke="#666666" points="462.5,-147 355.5,-147 355.5,-117 462.5,-117 462.5,-147"/>
<text text-anchor="start" x="363.5" y="-135" font-family="Helvetica,sans-Serif" font-size="10.00">hello_world::devices</text>
<text text-anchor="middle" x="409" y="-124" font-family="Helvetica,sans-Serif" font-size="10.00">::motor::Motor::angle</text>
</a>
</g>
</g>
<!-- Node2&#45;&gt;Node3 -->
<g id="edge2_Node000002_Node000003" class="edge">
<title>Node2&#45;&gt;Node3</title>
<g id="a_edge2_Node000002_Node000003"><a xlink:title=" ">
<path fill="none" stroke="#63b8ff" d="M302.45,-119C316.18,-120.69 330.67,-122.48 344.36,-124.16"/>
<polygon fill="#63b8ff" stroke="#63b8ff" points="343.78,-127.74 354.13,-125.49 344.64,-120.79 343.78,-127.74"/>
</a>
</g>
</g>
<!-- Node4 -->
<g id="Node000004" class="node">
<title>Node4</title>
<g id="a_Node000004"><a xlink:href="namespacehello__world.html#a71f5ddbc81f1fa181ecefaf0b1f51fa8" target="_top" xlink:title="将周期性数据归一化到指定周期区间">
<polygon fill="white" stroke="#666666" points="480,-98.5 338,-98.5 338,-79.5 480,-79.5 480,-98.5"/>
<text text-anchor="middle" x="409" y="-86.5" font-family="Helvetica,sans-Serif" font-size="10.00">hello_world::NormPeriodData</text>
</a>
</g>
</g>
<!-- Node2&#45;&gt;Node4 -->
<g id="edge3_Node000002_Node000004" class="edge">
<title>Node2&#45;&gt;Node4</title>
<g id="a_edge3_Node000002_Node000004"><a xlink:title=" ">
<path fill="none" stroke="#63b8ff" d="M302.45,-102.62C310.43,-101.59 318.66,-100.53 326.85,-99.47"/>
<polygon fill="#63b8ff" stroke="#63b8ff" points="327.08,-102.84 336.55,-98.09 326.19,-95.9 327.08,-102.84"/>
</a>
</g>
</g>
</g>
</svg>
