<?xml version="1.0" encoding="UTF-8" standalone="no"?>
<!DOCTYPE svg PUBLIC "-//W3C//DTD SVG 1.1//EN"
 "http://www.w3.org/Graphics/SVG/1.1/DTD/svg11.dtd">
<!-- Generated by graphviz version 8.0.3 (20230416.2022)
 -->
<!-- Title: hello_world::devices::motor::M8910::M8910 Pages: 1 -->
<svg width="422pt" height="268pt"
 viewBox="0.00 0.00 422.00 268.00" xmlns="http://www.w3.org/2000/svg" xmlns:xlink="http://www.w3.org/1999/xlink">
<g id="graph0" class="graph" transform="scale(1 1) rotate(0) translate(4 264)">
<title>hello_world::devices::motor::M8910::M8910</title>
<!-- Node1 -->
<g id="Node000001" class="node">
<title>Node1</title>
<g id="a_Node000001"><a xlink:title="M8910 初始化">
<polygon fill="#999999" stroke="#666666" points="118,-147 0,-147 0,-117 118,-117 118,-147"/>
<text text-anchor="start" x="8" y="-135" font-family="Helvetica,sans-Serif" font-size="10.00">hello_world::devices</text>
<text text-anchor="middle" x="59" y="-124" font-family="Helvetica,sans-Serif" font-size="10.00">::motor::M8910::M8910</text>
</a>
</g>
</g>
<!-- Node2 -->
<g id="Node000002" class="node">
<title>Node2</title>
<g id="a_Node000002"><a xlink:href="classhello__world_1_1devices_1_1motor_1_1_motor.html#aebf04ce4e3628c60907a29771f383027" target="_top" xlink:title="将转子电流转换为原始报文内容">
<polygon fill="white" stroke="#666666" points="275,-260 154,-260 154,-230 275,-230 275,-260"/>
<text text-anchor="start" x="162" y="-248" font-family="Helvetica,sans-Serif" font-size="10.00">hello_world::devices</text>
<text text-anchor="middle" x="214.5" y="-237" font-family="Helvetica,sans-Serif" font-size="10.00">::motor::Motor::curr2raw</text>
</a>
</g>
</g>
<!-- Node1&#45;&gt;Node2 -->
<g id="edge1_Node000001_Node000002" class="edge">
<title>Node1&#45;&gt;Node2</title>
<g id="a_edge1_Node000001_Node000002"><a xlink:title=" ">
<path fill="none" stroke="#63b8ff" d="M72.92,-147.38C89.86,-166.74 121.28,-200 154,-221 155.98,-222.27 158.04,-223.5 160.15,-224.67"/>
<polygon fill="#63b8ff" stroke="#63b8ff" points="158.16,-228.1 168.65,-229.53 161.34,-221.86 158.16,-228.1"/>
</a>
</g>
</g>
<!-- Node4 -->
<g id="Node000004" class="node">
<title>Node4</title>
<g id="a_Node000004"><a xlink:href="classhello__world_1_1devices_1_1motor_1_1_motor.html#ab3e2187f017e86c6d4a83caa55fe9419" target="_top" xlink:title=" ">
<polygon fill="white" stroke="#666666" points="266,-212 163,-212 163,-182 266,-182 266,-212"/>
<text text-anchor="start" x="171" y="-200" font-family="Helvetica,sans-Serif" font-size="10.00">hello_world::devices</text>
<text text-anchor="middle" x="214.5" y="-189" font-family="Helvetica,sans-Serif" font-size="10.00">::motor::Motor::id</text>
</a>
</g>
</g>
<!-- Node1&#45;&gt;Node4 -->
<g id="edge3_Node000001_Node000004" class="edge">
<title>Node1&#45;&gt;Node4</title>
<g id="a_edge3_Node000001_Node000004"><a xlink:title=" ">
<path fill="none" stroke="#63b8ff" d="M94.72,-147.42C112.41,-155.21 134.3,-164.73 154,-173 157.44,-174.44 161,-175.92 164.59,-177.4"/>
<polygon fill="#63b8ff" stroke="#63b8ff" points="163.13,-180.99 173.71,-181.53 165.78,-174.51 163.13,-180.99"/>
</a>
</g>
</g>
<!-- Node5 -->
<g id="Node000005" class="node">
<title>Node5</title>
<g id="a_Node000005"><a xlink:href="namespacehello__world.html#a94594f3432536927055026f3f48af251" target="_top" xlink:title="获取两个变量间的最小值">
<polygon fill="white" stroke="#666666" points="257.5,-163.5 171.5,-163.5 171.5,-144.5 257.5,-144.5 257.5,-163.5"/>
<text text-anchor="middle" x="214.5" y="-151.5" font-family="Helvetica,sans-Serif" font-size="10.00">hello_world::Min</text>
</a>
</g>
</g>
<!-- Node1&#45;&gt;Node5 -->
<g id="edge4_Node000001_Node000005" class="edge">
<title>Node1&#45;&gt;Node5</title>
<g id="a_edge4_Node000001_Node000005"><a xlink:title=" ">
<path fill="none" stroke="#63b8ff" d="M118.47,-140.38C132.38,-142.37 147.13,-144.49 160.76,-146.44"/>
<polygon fill="#63b8ff" stroke="#63b8ff" points="160.02,-150.01 170.42,-147.97 161.01,-143.08 160.02,-150.01"/>
</a>
</g>
</g>
<!-- Node6 -->
<g id="Node000006" class="node">
<title>Node6</title>
<g id="a_Node000006"><a xlink:href="classhello__world_1_1devices_1_1motor_1_1_motor.html#a1e4467d9f449b9c6c7d6886fffa89667" target="_top" xlink:title="将原始报文内容转换为转子电流">
<polygon fill="white" stroke="#666666" points="275,-126 154,-126 154,-96 275,-96 275,-126"/>
<text text-anchor="start" x="162" y="-114" font-family="Helvetica,sans-Serif" font-size="10.00">hello_world::devices</text>
<text text-anchor="middle" x="214.5" y="-103" font-family="Helvetica,sans-Serif" font-size="10.00">::motor::Motor::raw2curr</text>
</a>
</g>
</g>
<!-- Node1&#45;&gt;Node6 -->
<g id="edge5_Node000001_Node000006" class="edge">
<title>Node1&#45;&gt;Node6</title>
<g id="a_edge5_Node000001_Node000006"><a xlink:title=" ">
<path fill="none" stroke="#63b8ff" d="M118.47,-124C126.48,-122.9 134.78,-121.77 142.97,-120.65"/>
<polygon fill="#63b8ff" stroke="#63b8ff" points="143.23,-124.01 152.67,-119.19 142.28,-117.07 143.23,-124.01"/>
</a>
</g>
</g>
<!-- Node7 -->
<g id="Node000007" class="node">
<title>Node7</title>
<g id="a_Node000007"><a xlink:href="classhello__world_1_1devices_1_1motor_1_1_motor.html#af74a8c4ad7c0067a2d71afd711639366" target="_top" xlink:title="将原始报文内容转换为输出端力矩">
<polygon fill="white" stroke="#666666" points="275,-78 154,-78 154,-48 275,-48 275,-78"/>
<text text-anchor="start" x="162" y="-66" font-family="Helvetica,sans-Serif" font-size="10.00">hello_world::devices</text>
<text text-anchor="middle" x="214.5" y="-55" font-family="Helvetica,sans-Serif" font-size="10.00">::motor::Motor::raw2torq</text>
</a>
</g>
</g>
<!-- Node1&#45;&gt;Node7 -->
<g id="edge6_Node000001_Node000007" class="edge">
<title>Node1&#45;&gt;Node7</title>
<g id="a_edge6_Node000001_Node000007"><a xlink:title=" ">
<path fill="none" stroke="#63b8ff" d="M91.1,-116.5C109.31,-107.59 132.81,-96.34 154,-87 157.36,-85.52 160.85,-84.02 164.37,-82.53"/>
<polygon fill="#63b8ff" stroke="#63b8ff" points="165.42,-85.47 173.31,-78.4 162.73,-79.01 165.42,-85.47"/>
</a>
</g>
</g>
<!-- Node8 -->
<g id="Node000008" class="node">
<title>Node8</title>
<g id="a_Node000008"><a xlink:href="classhello__world_1_1devices_1_1motor_1_1_motor.html#a319adc3f1b7d43fa12015b52a153ea17" target="_top" xlink:title="将输出端力矩转换为原始报文内容">
<polygon fill="white" stroke="#666666" points="275,-30 154,-30 154,0 275,0 275,-30"/>
<text text-anchor="start" x="162" y="-18" font-family="Helvetica,sans-Serif" font-size="10.00">hello_world::devices</text>
<text text-anchor="middle" x="214.5" y="-7" font-family="Helvetica,sans-Serif" font-size="10.00">::motor::Motor::torq2raw</text>
</a>
</g>
</g>
<!-- Node1&#45;&gt;Node8 -->
<g id="edge7_Node000001_Node000008" class="edge">
<title>Node1&#45;&gt;Node8</title>
<g id="a_edge7_Node000001_Node000008"><a xlink:title=" ">
<path fill="none" stroke="#63b8ff" d="M72.2,-116.59C88.83,-96.43 120.43,-61.07 154,-39 155.97,-37.71 158.01,-36.46 160.11,-35.27"/>
<polygon fill="#63b8ff" stroke="#63b8ff" points="161.31,-38.07 168.59,-30.37 158.1,-31.86 161.31,-38.07"/>
</a>
</g>
</g>
<!-- Node3 -->
<g id="Node000003" class="node">
<title>Node3</title>
<g id="a_Node000003"><a xlink:href="classhello__world_1_1devices_1_1motor_1_1_motor.html#a7fbec1460a1db6c45b4c57fd0497e5e0" target="_top" xlink:title=" ">
<polygon fill="white" stroke="#666666" points="414,-260 311,-260 311,-230 414,-230 414,-260"/>
<text text-anchor="start" x="319" y="-248" font-family="Helvetica,sans-Serif" font-size="10.00">hello_world::devices</text>
<text text-anchor="middle" x="362.5" y="-237" font-family="Helvetica,sans-Serif" font-size="10.00">::motor::Motor::curr</text>
</a>
</g>
</g>
<!-- Node2&#45;&gt;Node3 -->
<g id="edge2_Node000002_Node000003" class="edge">
<title>Node2&#45;&gt;Node3</title>
<g id="a_edge2_Node000002_Node000003"><a xlink:title=" ">
<path fill="none" stroke="#63b8ff" d="M275.31,-245C283.43,-245 291.77,-245 299.92,-245"/>
<polygon fill="#63b8ff" stroke="#63b8ff" points="299.88,-248.5 309.88,-245 299.88,-241.5 299.88,-248.5"/>
</a>
</g>
</g>
<!-- Node9 -->
<g id="Node000009" class="node">
<title>Node9</title>
<g id="a_Node000009"><a xlink:href="classhello__world_1_1devices_1_1motor_1_1_motor.html#a987073404f2d04c10434f830884b9612" target="_top" xlink:title=" ">
<polygon fill="white" stroke="#666666" points="414,-30 311,-30 311,0 414,0 414,-30"/>
<text text-anchor="start" x="319" y="-18" font-family="Helvetica,sans-Serif" font-size="10.00">hello_world::devices</text>
<text text-anchor="middle" x="362.5" y="-7" font-family="Helvetica,sans-Serif" font-size="10.00">::motor::Motor::torq</text>
</a>
</g>
</g>
<!-- Node8&#45;&gt;Node9 -->
<g id="edge8_Node000008_Node000009" class="edge">
<title>Node8&#45;&gt;Node9</title>
<g id="a_edge8_Node000008_Node000009"><a xlink:title=" ">
<path fill="none" stroke="#63b8ff" d="M275.31,-15C283.43,-15 291.77,-15 299.92,-15"/>
<polygon fill="#63b8ff" stroke="#63b8ff" points="299.88,-18.5 309.88,-15 299.88,-11.5 299.88,-18.5"/>
</a>
</g>
</g>
</g>
</svg>
