<?xml version="1.0" encoding="UTF-8" standalone="no"?>
<!DOCTYPE svg PUBLIC "-//W3C//DTD SVG 1.1//EN"
 "http://www.w3.org/Graphics/SVG/1.1/DTD/svg11.dtd">
<!-- Generated by graphviz version 8.0.3 (20230416.2022)
 -->
<!-- Title: hello_world::algorithms::controller::pid::PidList::~PidList Pages: 1 -->
<svg width="584pt" height="73pt"
 viewBox="0.00 0.00 584.00 73.00" xmlns="http://www.w3.org/2000/svg" xmlns:xlink="http://www.w3.org/1999/xlink">
<g id="graph0" class="graph" transform="scale(1 1) rotate(0) translate(4 69)">
<title>hello_world::algorithms::controller::pid::PidList::~PidList</title>
<!-- Node1 -->
<g id="Node000001" class="node">
<title>Node1</title>
<g id="a_Node000001"><a xlink:title="析构函数，清空链表">
<polygon fill="#999999" stroke="#666666" points="117,-65 0,-65 0,-24 117,-24 117,-65"/>
<text text-anchor="start" x="8" y="-53" font-family="Helvetica,sans-Serif" font-size="10.00">hello_world::algorithms</text>
<text text-anchor="start" x="8" y="-42" font-family="Helvetica,sans-Serif" font-size="10.00">::controller::pid::PidList</text>
<text text-anchor="middle" x="58.5" y="-31" font-family="Helvetica,sans-Serif" font-size="10.00">::~PidList</text>
</a>
</g>
</g>
<!-- Node2 -->
<g id="Node000002" class="node">
<title>Node2</title>
<g id="a_Node000002"><a xlink:href="classhello__world_1_1algorithms_1_1controller_1_1pid_1_1_pid_list.html#acff9c6256713181463dac33bcc8930a5" target="_top" xlink:title="清空链表">
<polygon fill="white" stroke="#666666" points="270,-65 153,-65 153,-24 270,-24 270,-65"/>
<text text-anchor="start" x="161" y="-53" font-family="Helvetica,sans-Serif" font-size="10.00">hello_world::algorithms</text>
<text text-anchor="start" x="161" y="-42" font-family="Helvetica,sans-Serif" font-size="10.00">::controller::pid::PidList</text>
<text text-anchor="middle" x="211.5" y="-31" font-family="Helvetica,sans-Serif" font-size="10.00">::clear</text>
</a>
</g>
</g>
<!-- Node1&#45;&gt;Node2 -->
<g id="edge1_Node000001_Node000002" class="edge">
<title>Node1&#45;&gt;Node2</title>
<g id="a_edge1_Node000001_Node000002"><a xlink:title=" ">
<path fill="none" stroke="#63b8ff" d="M117.45,-44.5C125.54,-44.5 133.93,-44.5 142.19,-44.5"/>
<polygon fill="#63b8ff" stroke="#63b8ff" points="141.96,-48 151.96,-44.5 141.96,-41 141.96,-48"/>
</a>
</g>
</g>
<!-- Node3 -->
<g id="Node000003" class="node">
<title>Node3</title>
<g id="a_Node000003"><a xlink:href="classhello__world_1_1algorithms_1_1controller_1_1pid_1_1_pid_list.html#a2d94d2bc545bc8d673f4de9592d647c1" target="_top" xlink:title="检查链表是否为空">
<polygon fill="white" stroke="#666666" points="576,-65 459,-65 459,-24 576,-24 576,-65"/>
<text text-anchor="start" x="467" y="-53" font-family="Helvetica,sans-Serif" font-size="10.00">hello_world::algorithms</text>
<text text-anchor="start" x="467" y="-42" font-family="Helvetica,sans-Serif" font-size="10.00">::controller::pid::PidList</text>
<text text-anchor="middle" x="517.5" y="-31" font-family="Helvetica,sans-Serif" font-size="10.00">::empty</text>
</a>
</g>
</g>
<!-- Node2&#45;&gt;Node3 -->
<g id="edge2_Node000002_Node000003" class="edge">
<title>Node2&#45;&gt;Node3</title>
<g id="a_edge2_Node000002_Node000003"><a xlink:title=" ">
<path fill="none" stroke="#63b8ff" d="M270.33,-48.79C282.12,-49.5 294.46,-50.13 306,-50.5 357.97,-52.17 371.03,-52.17 423,-50.5 431.03,-50.24 439.43,-49.86 447.78,-49.41"/>
<polygon fill="#63b8ff" stroke="#63b8ff" points="447.89,-52.86 457.67,-48.79 447.49,-45.87 447.89,-52.86"/>
</a>
</g>
</g>
<!-- Node4 -->
<g id="Node000004" class="node">
<title>Node4</title>
<g id="a_Node000004"><a xlink:href="classhello__world_1_1algorithms_1_1controller_1_1pid_1_1_pid_list.html#a5ea468d831da1cfd880ad38897d227d2" target="_top" xlink:title="移除链表尾部的 PidNode">
<polygon fill="white" stroke="#666666" points="423,-41 306,-41 306,0 423,0 423,-41"/>
<text text-anchor="start" x="314" y="-29" font-family="Helvetica,sans-Serif" font-size="10.00">hello_world::algorithms</text>
<text text-anchor="start" x="314" y="-18" font-family="Helvetica,sans-Serif" font-size="10.00">::controller::pid::PidList</text>
<text text-anchor="middle" x="364.5" y="-7" font-family="Helvetica,sans-Serif" font-size="10.00">::removeTail</text>
</a>
</g>
</g>
<!-- Node2&#45;&gt;Node4 -->
<g id="edge3_Node000002_Node000004" class="edge">
<title>Node2&#45;&gt;Node4</title>
<g id="a_edge3_Node000002_Node000004"><a xlink:title=" ">
<path fill="none" stroke="#63b8ff" d="M270.45,-35.29C278.54,-34 286.93,-32.67 295.19,-31.36"/>
<polygon fill="#63b8ff" stroke="#63b8ff" points="295.63,-34.67 304.96,-29.65 294.53,-27.76 295.63,-34.67"/>
</a>
</g>
</g>
<!-- Node4&#45;&gt;Node3 -->
<g id="edge4_Node000004_Node000003" class="edge">
<title>Node4&#45;&gt;Node3</title>
<g id="a_edge4_Node000004_Node000003"><a xlink:title=" ">
<path fill="none" stroke="#63b8ff" d="M423.45,-29.71C431.54,-31 439.93,-32.33 448.19,-33.64"/>
<polygon fill="#63b8ff" stroke="#63b8ff" points="447.53,-37.24 457.96,-35.35 448.63,-30.33 447.53,-37.24"/>
</a>
</g>
</g>
</g>
</svg>
