<?xml version="1.0" encoding="UTF-8" standalone="no"?>
<!DOCTYPE svg PUBLIC "-//W3C//DTD SVG 1.1//EN"
 "http://www.w3.org/Graphics/SVG/1.1/DTD/svg11.dtd">
<!-- Generated by graphviz version 8.0.3 (20230416.2022)
 -->
<!-- Title: hello_world::devices::motor::Motor::normAngle Pages: 1 -->
<svg width="312pt" height="326pt"
 viewBox="0.00 0.00 312.00 326.00" xmlns="http://www.w3.org/2000/svg" xmlns:xlink="http://www.w3.org/1999/xlink">
<g id="graph0" class="graph" transform="scale(1 1) rotate(0) translate(4 322)">
<title>hello_world::devices::motor::Motor::normAngle</title>
<!-- Node1 -->
<g id="Node000001" class="node">
<title>Node1</title>
<g id="a_Node000001"><a xlink:title="将角度转换到指定范围">
<polygon fill="#999999" stroke="#666666" points="304,-174 173,-174 173,-144 304,-144 304,-174"/>
<text text-anchor="start" x="181" y="-162" font-family="Helvetica,sans-Serif" font-size="10.00">hello_world::devices</text>
<text text-anchor="middle" x="238.5" y="-151" font-family="Helvetica,sans-Serif" font-size="10.00">::motor::Motor::normAngle</text>
</a>
</g>
</g>
<!-- Node2 -->
<g id="Node000002" class="node">
<title>Node2</title>
<g id="a_Node000002"><a xlink:href="classhello__world_1_1devices_1_1motor_1_1_a1.html#a1dc9df605f9df5fff3b2bc8ed4a63ff8" target="_top" xlink:title="将电调发回的 CAN 报文进行解包">
<polygon fill="white" stroke="#666666" points="120,-318 17,-318 17,-288 120,-288 120,-318"/>
<text text-anchor="start" x="25" y="-306" font-family="Helvetica,sans-Serif" font-size="10.00">hello_world::devices</text>
<text text-anchor="middle" x="68.5" y="-295" font-family="Helvetica,sans-Serif" font-size="10.00">::motor::A1::decode</text>
</a>
</g>
</g>
<!-- Node1&#45;&gt;Node2 -->
<g id="edge1_Node000001_Node000002" class="edge">
<title>Node1&#45;&gt;Node2</title>
<g id="a_edge1_Node000001_Node000002"><a xlink:title=" ">
<path fill="none" stroke="#63b8ff" d="M222.87,-183.25C205.5,-210.15 174.16,-253.16 137,-279 131.89,-282.55 126.21,-285.63 120.36,-288.29"/>
<polygon fill="#63b8ff" stroke="#63b8ff" points="226.25,-185.46 228.63,-175.13 220.33,-181.72 226.25,-185.46"/>
</a>
</g>
</g>
<!-- Node3 -->
<g id="Node000003" class="node">
<title>Node3</title>
<g id="a_Node000003"><a xlink:href="classhello__world_1_1devices_1_1motor_1_1_d_m___j4310.html#a84ecfac4c74e3f0f7b85fba6c69f2aa1" target="_top" xlink:title="将电调发回的 CAN 报文进行解包">
<polygon fill="white" stroke="#666666" points="137,-270 0,-270 0,-240 137,-240 137,-270"/>
<text text-anchor="start" x="8" y="-258" font-family="Helvetica,sans-Serif" font-size="10.00">hello_world::devices</text>
<text text-anchor="middle" x="68.5" y="-247" font-family="Helvetica,sans-Serif" font-size="10.00">::motor::DM_J4310::decode</text>
</a>
</g>
</g>
<!-- Node1&#45;&gt;Node3 -->
<g id="edge2_Node000001_Node000003" class="edge">
<title>Node1&#45;&gt;Node3</title>
<g id="a_edge2_Node000001_Node000003"><a xlink:title=" ">
<path fill="none" stroke="#63b8ff" d="M210.9,-181.22C191.38,-196.71 163.72,-217.03 137,-231 131.05,-234.11 124.6,-236.98 118.14,-239.56"/>
<polygon fill="#63b8ff" stroke="#63b8ff" points="212.67,-183.48 218.26,-174.48 208.28,-178.03 212.67,-183.48"/>
</a>
</g>
</g>
<!-- Node4 -->
<g id="Node000004" class="node">
<title>Node4</title>
<g id="a_Node000004"><a xlink:href="classhello__world_1_1devices_1_1motor_1_1_g_m6020.html#a732687f3fc5d5d302135f950ac260e3f" target="_top" xlink:title="将电调发回的 CAN 报文进行解包">
<polygon fill="white" stroke="#666666" points="132.5,-222 4.5,-222 4.5,-192 132.5,-192 132.5,-222"/>
<text text-anchor="start" x="12.5" y="-210" font-family="Helvetica,sans-Serif" font-size="10.00">hello_world::devices</text>
<text text-anchor="middle" x="68.5" y="-199" font-family="Helvetica,sans-Serif" font-size="10.00">::motor::GM6020::decode</text>
</a>
</g>
</g>
<!-- Node1&#45;&gt;Node4 -->
<g id="edge3_Node000001_Node000004" class="edge">
<title>Node1&#45;&gt;Node4</title>
<g id="a_edge3_Node000001_Node000004"><a xlink:title=" ">
<path fill="none" stroke="#63b8ff" d="M172.87,-177.46C156.56,-182.13 139.21,-187.08 123.48,-191.58"/>
<polygon fill="#63b8ff" stroke="#63b8ff" points="173.77,-180.56 182.42,-174.45 171.84,-173.83 173.77,-180.56"/>
</a>
</g>
</g>
<!-- Node5 -->
<g id="Node000005" class="node">
<title>Node5</title>
<g id="a_Node000005"><a xlink:href="classhello__world_1_1devices_1_1motor_1_1_m2006.html#a4f74b1c55fc5c0f9e7c28d329ff0c9cd" target="_top" xlink:title="将电调发回的 CAN 报文进行解包">
<polygon fill="white" stroke="#666666" points="128.5,-174 8.5,-174 8.5,-144 128.5,-144 128.5,-174"/>
<text text-anchor="start" x="16.5" y="-162" font-family="Helvetica,sans-Serif" font-size="10.00">hello_world::devices</text>
<text text-anchor="middle" x="68.5" y="-151" font-family="Helvetica,sans-Serif" font-size="10.00">::motor::M2006::decode</text>
</a>
</g>
</g>
<!-- Node1&#45;&gt;Node5 -->
<g id="edge4_Node000001_Node000005" class="edge">
<title>Node1&#45;&gt;Node5</title>
<g id="a_edge4_Node000001_Node000005"><a xlink:title=" ">
<path fill="none" stroke="#63b8ff" d="M161.62,-159C150.61,-159 139.41,-159 128.79,-159"/>
<polygon fill="#63b8ff" stroke="#63b8ff" points="161.55,-162.5 171.55,-159 161.55,-155.5 161.55,-162.5"/>
</a>
</g>
</g>
<!-- Node6 -->
<g id="Node000006" class="node">
<title>Node6</title>
<g id="a_Node000006"><a xlink:href="classhello__world_1_1devices_1_1motor_1_1_m3508.html#aec43855db5fbc6a2fb7b3b550b601f8e" target="_top" xlink:title="将电调发回的 CAN 报文进行解包">
<polygon fill="white" stroke="#666666" points="128.5,-126 8.5,-126 8.5,-96 128.5,-96 128.5,-126"/>
<text text-anchor="start" x="16.5" y="-114" font-family="Helvetica,sans-Serif" font-size="10.00">hello_world::devices</text>
<text text-anchor="middle" x="68.5" y="-103" font-family="Helvetica,sans-Serif" font-size="10.00">::motor::M3508::decode</text>
</a>
</g>
</g>
<!-- Node1&#45;&gt;Node6 -->
<g id="edge5_Node000001_Node000006" class="edge">
<title>Node1&#45;&gt;Node6</title>
<g id="a_edge5_Node000001_Node000006"><a xlink:title=" ">
<path fill="none" stroke="#63b8ff" d="M172.87,-140.54C156.56,-135.87 139.21,-130.92 123.48,-126.42"/>
<polygon fill="#63b8ff" stroke="#63b8ff" points="171.84,-144.17 182.42,-143.55 173.77,-137.44 171.84,-144.17"/>
</a>
</g>
</g>
<!-- Node7 -->
<g id="Node000007" class="node">
<title>Node7</title>
<g id="a_Node000007"><a xlink:href="classhello__world_1_1devices_1_1motor_1_1_m8910.html#ae5b934cb41237293299dce618befba6d" target="_top" xlink:title="将电调发回的 CAN 报文进行解包">
<polygon fill="white" stroke="#666666" points="128.5,-78 8.5,-78 8.5,-48 128.5,-48 128.5,-78"/>
<text text-anchor="start" x="16.5" y="-66" font-family="Helvetica,sans-Serif" font-size="10.00">hello_world::devices</text>
<text text-anchor="middle" x="68.5" y="-55" font-family="Helvetica,sans-Serif" font-size="10.00">::motor::M8910::decode</text>
</a>
</g>
</g>
<!-- Node1&#45;&gt;Node7 -->
<g id="edge6_Node000001_Node000007" class="edge">
<title>Node1&#45;&gt;Node7</title>
<g id="a_edge6_Node000001_Node000007"><a xlink:title=" ">
<path fill="none" stroke="#63b8ff" d="M210.9,-136.78C191.38,-121.29 163.72,-100.97 137,-87 131.05,-83.89 124.6,-81.02 118.14,-78.44"/>
<polygon fill="#63b8ff" stroke="#63b8ff" points="208.28,-139.97 218.26,-143.52 212.67,-134.52 208.28,-139.97"/>
</a>
</g>
</g>
<!-- Node8 -->
<g id="Node000008" class="node">
<title>Node8</title>
<g id="a_Node000008"><a xlink:href="classhello__world_1_1devices_1_1motor_1_1_m_f9025v2.html#ab446cad174a3d963931102233a88c7e8" target="_top" xlink:title="将电调发回的 CAN 报文进行解包">
<polygon fill="white" stroke="#666666" points="136,-30 1,-30 1,0 136,0 136,-30"/>
<text text-anchor="start" x="9" y="-18" font-family="Helvetica,sans-Serif" font-size="10.00">hello_world::devices</text>
<text text-anchor="middle" x="68.5" y="-7" font-family="Helvetica,sans-Serif" font-size="10.00">::motor::MF9025v2::decode</text>
</a>
</g>
</g>
<!-- Node1&#45;&gt;Node8 -->
<g id="edge7_Node000001_Node000008" class="edge">
<title>Node1&#45;&gt;Node8</title>
<g id="a_edge7_Node000001_Node000008"><a xlink:title=" ">
<path fill="none" stroke="#63b8ff" d="M222.87,-134.75C205.5,-107.85 174.16,-64.84 137,-39 132.3,-35.73 127.11,-32.87 121.76,-30.36"/>
<polygon fill="#63b8ff" stroke="#63b8ff" points="220.33,-136.28 228.63,-142.87 226.25,-132.54 220.33,-136.28"/>
</a>
</g>
</g>
</g>
</svg>
