<?xml version="1.0" encoding="UTF-8" standalone="no"?>
<!DOCTYPE svg PUBLIC "-//W3C//DTD SVG 1.1//EN"
 "http://www.w3.org/Graphics/SVG/1.1/DTD/svg11.dtd">
<!-- Generated by graphviz version 8.0.3 (20230416.2022)
 -->
<!-- Title: hello_world::algorithms::controller::pid::MultiNodesPid::paramsAt Pages: 1 -->
<svg width="319pt" height="157pt"
 viewBox="0.00 0.00 319.00 157.00" xmlns="http://www.w3.org/2000/svg" xmlns:xlink="http://www.w3.org/1999/xlink">
<g id="graph0" class="graph" transform="scale(1 1) rotate(0) translate(4 153)">
<title>hello_world::algorithms::controller::pid::MultiNodesPid::paramsAt</title>
<!-- Node1 -->
<g id="Node000001" class="node">
<title>Node1</title>
<g id="a_Node000001"><a xlink:title="获取指定索引处 PID 控制器的参数">
<polygon fill="#999999" stroke="#666666" points="136,-95 0,-95 0,-54 136,-54 136,-95"/>
<text text-anchor="start" x="8" y="-83" font-family="Helvetica,sans-Serif" font-size="10.00">hello_world::algorithms</text>
<text text-anchor="start" x="8" y="-72" font-family="Helvetica,sans-Serif" font-size="10.00">::controller::pid::MultiNodes</text>
<text text-anchor="middle" x="68" y="-61" font-family="Helvetica,sans-Serif" font-size="10.00">Pid::paramsAt</text>
</a>
</g>
</g>
<!-- Node2 -->
<g id="Node000002" class="node">
<title>Node2</title>
<g id="a_Node000002"><a xlink:href="classhello__world_1_1algorithms_1_1controller_1_1pid_1_1_pid_list.html#a3f374c443b6a07e0df4e800c253643c9" target="_top" xlink:title="获取链表的开始迭代器">
<polygon fill="white" stroke="#666666" points="300,-149 183,-149 183,-108 300,-108 300,-149"/>
<text text-anchor="start" x="191" y="-137" font-family="Helvetica,sans-Serif" font-size="10.00">hello_world::algorithms</text>
<text text-anchor="start" x="191" y="-126" font-family="Helvetica,sans-Serif" font-size="10.00">::controller::pid::PidList</text>
<text text-anchor="middle" x="241.5" y="-115" font-family="Helvetica,sans-Serif" font-size="10.00">::begin</text>
</a>
</g>
</g>
<!-- Node1&#45;&gt;Node2 -->
<g id="edge1_Node000001_Node000002" class="edge">
<title>Node1&#45;&gt;Node2</title>
<g id="a_edge1_Node000001_Node000002"><a xlink:title=" ">
<path fill="none" stroke="#63b8ff" d="M135.31,-95.38C147.53,-99.23 160.31,-103.25 172.58,-107.11"/>
<polygon fill="#63b8ff" stroke="#63b8ff" points="171.16,-110.65 181.75,-110.32 173.26,-103.97 171.16,-110.65"/>
</a>
</g>
</g>
<!-- Node3 -->
<g id="Node000003" class="node">
<title>Node3</title>
<g id="a_Node000003"><a xlink:href="classhello__world_1_1algorithms_1_1controller_1_1pid_1_1_pid_list.html#a25c937a246eff76147e6f2c0cf5a0d86" target="_top" xlink:title="获取链表的结束迭代器">
<polygon fill="white" stroke="#666666" points="311,-89.5 172,-89.5 172,-59.5 311,-59.5 311,-89.5"/>
<text text-anchor="start" x="180" y="-77.5" font-family="Helvetica,sans-Serif" font-size="10.00">hello_world::algorithms</text>
<text text-anchor="middle" x="241.5" y="-66.5" font-family="Helvetica,sans-Serif" font-size="10.00">::controller::pid::PidList::end</text>
</a>
</g>
</g>
<!-- Node1&#45;&gt;Node3 -->
<g id="edge2_Node000001_Node000003" class="edge">
<title>Node1&#45;&gt;Node3</title>
<g id="a_edge2_Node000001_Node000003"><a xlink:title=" ">
<path fill="none" stroke="#63b8ff" d="M136.29,-74.5C144.38,-74.5 152.7,-74.5 160.95,-74.5"/>
<polygon fill="#63b8ff" stroke="#63b8ff" points="160.71,-78 170.71,-74.5 160.71,-71 160.71,-78"/>
</a>
</g>
</g>
<!-- Node4 -->
<g id="Node000004" class="node">
<title>Node4</title>
<g id="a_Node000004"><a xlink:href="classhello__world_1_1algorithms_1_1controller_1_1pid_1_1_basic_pid.html#a7de4709eb73b91ffef6b5896dd45d8ed" target="_top" xlink:title="获取 PID 参数的常量引用">
<polygon fill="white" stroke="#666666" points="304.5,-41 178.5,-41 178.5,0 304.5,0 304.5,-41"/>
<text text-anchor="start" x="186.5" y="-29" font-family="Helvetica,sans-Serif" font-size="10.00">hello_world::algorithms</text>
<text text-anchor="start" x="186.5" y="-18" font-family="Helvetica,sans-Serif" font-size="10.00">::controller::pid::BasicPid</text>
<text text-anchor="middle" x="241.5" y="-7" font-family="Helvetica,sans-Serif" font-size="10.00">::params</text>
</a>
</g>
</g>
<!-- Node1&#45;&gt;Node4 -->
<g id="edge3_Node000001_Node000004" class="edge">
<title>Node1&#45;&gt;Node4</title>
<g id="a_edge3_Node000001_Node000004"><a xlink:title=" ">
<path fill="none" stroke="#63b8ff" d="M135.31,-53.62C145.95,-50.27 157.01,-46.79 167.8,-43.39"/>
<polygon fill="#63b8ff" stroke="#63b8ff" points="168.54,-46.51 177.03,-40.17 166.44,-39.84 168.54,-46.51"/>
</a>
</g>
</g>
</g>
</svg>
