<?xml version="1.0" encoding="UTF-8" standalone="no"?>
<!DOCTYPE svg PUBLIC "-//W3C//DTD SVG 1.1//EN"
 "http://www.w3.org/Graphics/SVG/1.1/DTD/svg11.dtd">
<!-- Generated by graphviz version 8.0.3 (20230416.2022)
 -->
<!-- Title: hello_world::devices::imu::BMI088::accMultiRead Pages: 1 -->
<svg width="305pt" height="86pt"
 viewBox="0.00 0.00 305.00 86.00" xmlns="http://www.w3.org/2000/svg" xmlns:xlink="http://www.w3.org/1999/xlink">
<g id="graph0" class="graph" transform="scale(1 1) rotate(0) translate(4 82)">
<title>hello_world::devices::imu::BMI088::accMultiRead</title>
<!-- Node1 -->
<g id="Node000001" class="node">
<title>Node1</title>
<g id="a_Node000001"><a xlink:title="加速度计多寄存器数据读取">
<polygon fill="#999999" stroke="#666666" points="143,-54 0,-54 0,-24 143,-24 143,-54"/>
<text text-anchor="start" x="8" y="-42" font-family="Helvetica,sans-Serif" font-size="10.00">hello_world::devices</text>
<text text-anchor="middle" x="71.5" y="-31" font-family="Helvetica,sans-Serif" font-size="10.00">::imu::BMI088::accMultiRead</text>
</a>
</g>
</g>
<!-- Node2 -->
<g id="Node000002" class="node">
<title>Node2</title>
<g id="a_Node000002"><a xlink:href="classhello__world_1_1devices_1_1imu_1_1_b_m_i088.html#abe2be687095fa7b54d31a3a69693b306" target="_top" xlink:title=" ">
<polygon fill="white" stroke="#666666" points="297,-78 179,-78 179,-48 297,-48 297,-78"/>
<text text-anchor="start" x="187" y="-66" font-family="Helvetica,sans-Serif" font-size="10.00">hello_world::devices</text>
<text text-anchor="middle" x="238" y="-55" font-family="Helvetica,sans-Serif" font-size="10.00">::imu::BMI088::accCsH</text>
</a>
</g>
</g>
<!-- Node1&#45;&gt;Node2 -->
<g id="edge1_Node000001_Node000002" class="edge">
<title>Node1&#45;&gt;Node2</title>
<g id="a_edge1_Node000001_Node000002"><a xlink:title=" ">
<path fill="none" stroke="#63b8ff" d="M143.22,-49.32C151.45,-50.52 159.84,-51.74 168.05,-52.94"/>
<polygon fill="#63b8ff" stroke="#63b8ff" points="167.31,-56.52 177.71,-54.5 168.32,-49.59 167.31,-56.52"/>
</a>
</g>
</g>
<!-- Node3 -->
<g id="Node000003" class="node">
<title>Node3</title>
<g id="a_Node000003"><a xlink:href="classhello__world_1_1devices_1_1imu_1_1_b_m_i088.html#ad1ea4fa147f8bb2da18049c229404f65" target="_top" xlink:title=" ">
<polygon fill="white" stroke="#666666" points="296,-30 180,-30 180,0 296,0 296,-30"/>
<text text-anchor="start" x="188" y="-18" font-family="Helvetica,sans-Serif" font-size="10.00">hello_world::devices</text>
<text text-anchor="middle" x="238" y="-7" font-family="Helvetica,sans-Serif" font-size="10.00">::imu::BMI088::accCsL</text>
</a>
</g>
</g>
<!-- Node1&#45;&gt;Node3 -->
<g id="edge2_Node000001_Node000003" class="edge">
<title>Node1&#45;&gt;Node3</title>
<g id="a_edge2_Node000001_Node000003"><a xlink:title=" ">
<path fill="none" stroke="#63b8ff" d="M143.22,-28.68C151.79,-27.43 160.53,-26.16 169.06,-24.91"/>
<polygon fill="#63b8ff" stroke="#63b8ff" points="169.34,-28.26 178.73,-23.36 168.33,-21.34 169.34,-28.26"/>
</a>
</g>
</g>
</g>
</svg>
