<?xml version="1.0" encoding="UTF-8" standalone="no"?>
<!DOCTYPE svg PUBLIC "-//W3C//DTD SVG 1.1//EN"
 "http://www.w3.org/Graphics/SVG/1.1/DTD/svg11.dtd">
<!-- Generated by graphviz version 8.0.3 (20230416.2022)
 -->
<!-- Title: hello_world::algorithms::controller::pid::PidList::push Pages: 1 -->
<svg width="324pt" height="108pt"
 viewBox="0.00 0.00 324.00 108.00" xmlns="http://www.w3.org/2000/svg" xmlns:xlink="http://www.w3.org/1999/xlink">
<g id="graph0" class="graph" transform="scale(1 1) rotate(0) translate(4 104)">
<title>hello_world::algorithms::controller::pid::PidList::push</title>
<!-- Node1 -->
<g id="Node000001" class="node">
<title>Node1</title>
<g id="a_Node000001"><a xlink:title="向链表尾部添加一个新的 PidNode">
<polygon fill="#999999" stroke="#666666" points="316,-64.5 172,-64.5 172,-34.5 316,-34.5 316,-64.5"/>
<text text-anchor="start" x="180" y="-52.5" font-family="Helvetica,sans-Serif" font-size="10.00">hello_world::algorithms</text>
<text text-anchor="middle" x="244" y="-41.5" font-family="Helvetica,sans-Serif" font-size="10.00">::controller::pid::PidList::push</text>
</a>
</g>
</g>
<!-- Node1&#45;&gt;Node1 -->
<g id="edge3_Node000001_Node000001" class="edge">
<title>Node1&#45;&gt;Node1</title>
<g id="a_edge3_Node000001_Node000001"><a xlink:title=" ">
<path fill="none" stroke="#63b8ff" d="M274.46,-75.44C270.05,-79.63 259.9,-82.5 244,-82.5 216.5,-82.5 206.19,-73.91 213.06,-64.78"/>
<polygon fill="#63b8ff" stroke="#63b8ff" points="277.99,-75.92 274.94,-65.78 271,-75.61 277.99,-75.92"/>
</a>
</g>
</g>
<!-- Node2 -->
<g id="Node000002" class="node">
<title>Node2</title>
<g id="a_Node000002"><a xlink:href="classhello__world_1_1algorithms_1_1controller_1_1pid_1_1_multi_nodes_pid.html#a8e4bfd26c1bb829f58d3fb14e80c4c0b" target="_top" xlink:title="构造函数，初始化 MultiNodesPid 对象，至少会存在一个 PID 控制器节点，推荐和 paramsAt 函数一起使用">
<polygon fill="white" stroke="#666666" points="136,-100 0,-100 0,-59 136,-59 136,-100"/>
<text text-anchor="start" x="8" y="-88" font-family="Helvetica,sans-Serif" font-size="10.00">hello_world::algorithms</text>
<text text-anchor="start" x="8" y="-77" font-family="Helvetica,sans-Serif" font-size="10.00">::controller::pid::MultiNodes</text>
<text text-anchor="middle" x="68" y="-66" font-family="Helvetica,sans-Serif" font-size="10.00">Pid::MultiNodesPid</text>
</a>
</g>
</g>
<!-- Node1&#45;&gt;Node2 -->
<g id="edge1_Node000001_Node000002" class="edge">
<title>Node1&#45;&gt;Node2</title>
<g id="a_edge1_Node000001_Node000002"><a xlink:title=" ">
<path fill="none" stroke="#63b8ff" d="M160.92,-63.65C152.65,-65.08 144.32,-66.51 136.24,-67.91"/>
<polygon fill="#63b8ff" stroke="#63b8ff" points="161.47,-66.94 170.73,-61.79 160.28,-60.04 161.47,-66.94"/>
</a>
</g>
</g>
<!-- Node3 -->
<g id="Node000003" class="node">
<title>Node3</title>
<g id="a_Node000003"><a xlink:href="classhello__world_1_1algorithms_1_1controller_1_1pid_1_1_multi_nodes_pid.html#a9a3282e6e51a5b7689717079f0d25abe" target="_top" xlink:title="构造函数，初始化 MultiNodesPid 对象，至少会存在一个 PID 控制器节点">
<polygon fill="white" stroke="#666666" points="136,-41 0,-41 0,0 136,0 136,-41"/>
<text text-anchor="start" x="8" y="-29" font-family="Helvetica,sans-Serif" font-size="10.00">hello_world::algorithms</text>
<text text-anchor="start" x="8" y="-18" font-family="Helvetica,sans-Serif" font-size="10.00">::controller::pid::MultiNodes</text>
<text text-anchor="middle" x="68" y="-7" font-family="Helvetica,sans-Serif" font-size="10.00">Pid::MultiNodesPid</text>
</a>
</g>
</g>
<!-- Node1&#45;&gt;Node3 -->
<g id="edge2_Node000001_Node000003" class="edge">
<title>Node1&#45;&gt;Node3</title>
<g id="a_edge2_Node000001_Node000003"><a xlink:title=" ">
<path fill="none" stroke="#63b8ff" d="M160.92,-35.82C152.65,-34.44 144.32,-33.05 136.24,-31.71"/>
<polygon fill="#63b8ff" stroke="#63b8ff" points="160.29,-39.43 170.73,-37.62 161.44,-32.52 160.29,-39.43"/>
</a>
</g>
</g>
</g>
</svg>
