<?xml version="1.0" encoding="UTF-8" standalone="no"?>
<!DOCTYPE svg PUBLIC "-//W3C//DTD SVG 1.1//EN"
 "http://www.w3.org/Graphics/SVG/1.1/DTD/svg11.dtd">
<!-- Generated by graphviz version 8.0.3 (20230416.2022)
 -->
<!-- Title: HW&#45;Components/algorithms/controller/inc/controller_base.hpp Pages: 1 -->
<svg width="343pt" height="247pt"
 viewBox="0.00 0.00 343.00 247.00" xmlns="http://www.w3.org/2000/svg" xmlns:xlink="http://www.w3.org/1999/xlink">
<g id="graph0" class="graph" transform="scale(1 1) rotate(0) translate(4 243)">
<title>HW&#45;Components/algorithms/controller/inc/controller_base.hpp</title>
<!-- Node1 -->
<g id="Node000001" class="node">
<title>Node1</title>
<g id="a_Node000001"><a xlink:title=": @history : Version Date Author Note V0.9.0 2023&#45;11&#45;25 Caikunzhen 1.">
<polygon fill="#999999" stroke="#666666" points="237,-239 98,-239 98,-198 237,-198 237,-239"/>
<text text-anchor="start" x="106" y="-227" font-family="Helvetica,sans-Serif" font-size="10.00">HW&#45;Components/algorithms</text>
<text text-anchor="start" x="106" y="-216" font-family="Helvetica,sans-Serif" font-size="10.00">/controller/inc/controller</text>
<text text-anchor="middle" x="167.5" y="-205" font-family="Helvetica,sans-Serif" font-size="10.00">_base.hpp</text>
</a>
</g>
</g>
<!-- Node2 -->
<g id="Node000002" class="node">
<title>Node2</title>
<g id="a_Node000002"><a xlink:href="controller_8hpp.html" target="_top" xlink:title=": @history : Version Date Author Note V0.9.0 yyyy&#45;mm&#45;dd &lt;author&gt; 1.">
<polygon fill="white" stroke="#666666" points="139,-162 0,-162 0,-132 139,-132 139,-162"/>
<text text-anchor="start" x="8" y="-150" font-family="Helvetica,sans-Serif" font-size="10.00">HW&#45;Components/algorithms</text>
<text text-anchor="middle" x="69.5" y="-139" font-family="Helvetica,sans-Serif" font-size="10.00">/controller/inc/controller.hpp</text>
</a>
</g>
</g>
<!-- Node1&#45;&gt;Node2 -->
<g id="edge1_Node000001_Node000002" class="edge">
<title>Node1&#45;&gt;Node2</title>
<g id="a_edge1_Node000001_Node000002"><a xlink:title=" ">
<path fill="none" stroke="#63b8ff" d="M130.58,-191.32C116.76,-181.52 101.58,-170.75 89.8,-162.4"/>
<polygon fill="#63b8ff" stroke="#63b8ff" points="128.24,-194.65 138.42,-197.58 132.28,-188.94 128.24,-194.65"/>
</a>
</g>
</g>
<!-- Node3 -->
<g id="Node000003" class="node">
<title>Node3</title>
<g id="a_Node000003"><a xlink:href="pid_8hpp.html" target="_top" xlink:title=" ">
<polygon fill="white" stroke="#666666" points="286,-96 147,-96 147,-66 286,-66 286,-96"/>
<text text-anchor="start" x="155" y="-84" font-family="Helvetica,sans-Serif" font-size="10.00">HW&#45;Components/algorithms</text>
<text text-anchor="middle" x="216.5" y="-73" font-family="Helvetica,sans-Serif" font-size="10.00">/controller/inc/pid.hpp</text>
</a>
</g>
</g>
<!-- Node1&#45;&gt;Node3 -->
<g id="edge2_Node000001_Node000003" class="edge">
<title>Node1&#45;&gt;Node3</title>
<g id="a_edge2_Node000001_Node000003"><a xlink:title=" ">
<path fill="none" stroke="#63b8ff" d="M172.38,-186.89C175.59,-170.28 180.51,-149.62 187.5,-132 192.53,-119.31 200.4,-106 206.68,-96.3"/>
<polygon fill="#63b8ff" stroke="#63b8ff" points="168.77,-186.18 170.43,-196.64 175.66,-187.43 168.77,-186.18"/>
</a>
</g>
</g>
<!-- Node5 -->
<g id="Node000005" class="node">
<title>Node5</title>
<g id="a_Node000005"><a xlink:href="pid__opt_8hpp.html" target="_top" xlink:title=" ">
<polygon fill="white" stroke="#666666" points="335,-162 196,-162 196,-132 335,-132 335,-162"/>
<text text-anchor="start" x="204" y="-150" font-family="Helvetica,sans-Serif" font-size="10.00">HW&#45;Components/algorithms</text>
<text text-anchor="middle" x="265.5" y="-139" font-family="Helvetica,sans-Serif" font-size="10.00">/controller/inc/pid_opt.hpp</text>
</a>
</g>
</g>
<!-- Node1&#45;&gt;Node5 -->
<g id="edge4_Node000001_Node000005" class="edge">
<title>Node1&#45;&gt;Node5</title>
<g id="a_edge4_Node000001_Node000005"><a xlink:title=" ">
<path fill="none" stroke="#63b8ff" d="M204.42,-191.32C218.24,-181.52 233.42,-170.75 245.2,-162.4"/>
<polygon fill="#63b8ff" stroke="#63b8ff" points="202.72,-188.94 196.58,-197.58 206.76,-194.65 202.72,-188.94"/>
</a>
</g>
</g>
<!-- Node4 -->
<g id="Node000004" class="node">
<title>Node4</title>
<g id="a_Node000004"><a xlink:href="pid_8cpp.html" target="_top" xlink:title=" ">
<polygon fill="white" stroke="#666666" points="286,-30 147,-30 147,0 286,0 286,-30"/>
<text text-anchor="start" x="155" y="-18" font-family="Helvetica,sans-Serif" font-size="10.00">HW&#45;Components/algorithms</text>
<text text-anchor="middle" x="216.5" y="-7" font-family="Helvetica,sans-Serif" font-size="10.00">/controller/src/pid.cpp</text>
</a>
</g>
</g>
<!-- Node3&#45;&gt;Node4 -->
<g id="edge3_Node000003_Node000004" class="edge">
<title>Node3&#45;&gt;Node4</title>
<g id="a_edge3_Node000003_Node000004"><a xlink:title=" ">
<path fill="none" stroke="#63b8ff" d="M216.5,-54.97C216.5,-46.55 216.5,-37.45 216.5,-30.16"/>
<polygon fill="#63b8ff" stroke="#63b8ff" points="213,-54.8 216.5,-64.8 220,-54.8 213,-54.8"/>
</a>
</g>
</g>
<!-- Node5&#45;&gt;Node3 -->
<g id="edge5_Node000005_Node000003" class="edge">
<title>Node5&#45;&gt;Node3</title>
<g id="a_edge5_Node000005_Node000003"><a xlink:title=" ">
<path fill="none" stroke="#63b8ff" d="M248.08,-123.24C241.16,-114.21 233.43,-104.11 227.34,-96.16"/>
<polygon fill="#63b8ff" stroke="#63b8ff" points="245.77,-124.98 254.63,-130.8 251.33,-120.73 245.77,-124.98"/>
</a>
</g>
</g>
</g>
</svg>
