<?xml version="1.0" encoding="UTF-8" standalone="no"?>
<!DOCTYPE svg PUBLIC "-//W3C//DTD SVG 1.1//EN"
 "http://www.w3.org/Graphics/SVG/1.1/DTD/svg11.dtd">
<!-- Generated by graphviz version 8.0.3 (20230416.2022)
 -->
<!-- Title: HW&#45;Components/algorithms/controller/inc/controller_base.hpp Pages: 1 -->
<svg width="150pt" height="159pt"
 viewBox="0.00 0.00 149.50 159.00" xmlns="http://www.w3.org/2000/svg" xmlns:xlink="http://www.w3.org/1999/xlink">
<g id="graph0" class="graph" transform="scale(1 1) rotate(0) translate(4 155)">
<title>HW&#45;Components/algorithms/controller/inc/controller_base.hpp</title>
<!-- Node1 -->
<g id="Node000001" class="node">
<title>Node1</title>
<g id="a_Node000001"><a xlink:title=": @history : Version Date Author Note V0.9.0 2023&#45;11&#45;25 Caikunzhen 1.">
<polygon fill="#999999" stroke="#666666" points="139,-151 0,-151 0,-110 139,-110 139,-151"/>
<text text-anchor="start" x="8" y="-139" font-family="Helvetica,sans-Serif" font-size="10.00">HW&#45;Components/algorithms</text>
<text text-anchor="start" x="8" y="-128" font-family="Helvetica,sans-Serif" font-size="10.00">/controller/inc/controller</text>
<text text-anchor="middle" x="69.5" y="-117" font-family="Helvetica,sans-Serif" font-size="10.00">_base.hpp</text>
</a>
</g>
</g>
<!-- Node2 -->
<g id="Node000002" class="node">
<title>Node2</title>
<g id="a_Node000002"><a xlink:title=" ">
<polygon fill="#e0e0e0" stroke="#999999" points="55.5,-74 7.5,-74 7.5,-55 55.5,-55 55.5,-74"/>
<text text-anchor="middle" x="31.5" y="-62" font-family="Helvetica,sans-Serif" font-size="10.00">cstddef</text>
</a>
</g>
</g>
<!-- Node1&#45;&gt;Node2 -->
<g id="edge1_Node000001_Node000002" class="edge">
<title>Node1&#45;&gt;Node2</title>
<g id="a_edge1_Node000001_Node000002"><a xlink:title=" ">
<path fill="none" stroke="#63b8ff" d="M57.68,-109.6C52.72,-101.24 46.99,-91.59 42.16,-83.45"/>
<polygon fill="#63b8ff" stroke="#63b8ff" points="44.76,-81.97 36.64,-75.16 38.74,-85.55 44.76,-81.97"/>
</a>
</g>
</g>
<!-- Node3 -->
<g id="Node000003" class="node">
<title>Node3</title>
<g id="a_Node000003"><a xlink:href="system_8hpp.html" target="_top" xlink:title=" ">
<polygon fill="white" stroke="#666666" points="141.5,-74 73.5,-74 73.5,-55 141.5,-55 141.5,-74"/>
<text text-anchor="middle" x="107.5" y="-62" font-family="Helvetica,sans-Serif" font-size="10.00">system.hpp</text>
</a>
</g>
</g>
<!-- Node1&#45;&gt;Node3 -->
<g id="edge2_Node000001_Node000003" class="edge">
<title>Node1&#45;&gt;Node3</title>
<g id="a_edge2_Node000001_Node000003"><a xlink:title=" ">
<path fill="none" stroke="#63b8ff" d="M81.32,-109.6C86.28,-101.24 92.01,-91.59 96.84,-83.45"/>
<polygon fill="#63b8ff" stroke="#63b8ff" points="100.26,-85.55 102.36,-75.16 94.24,-81.97 100.26,-85.55"/>
</a>
</g>
</g>
<!-- Node4 -->
<g id="Node000004" class="node">
<title>Node4</title>
<g id="a_Node000004"><a xlink:title=" ">
<polygon fill="#e0e0e0" stroke="#999999" points="130,-19 85,-19 85,0 130,0 130,-19"/>
<text text-anchor="middle" x="107.5" y="-7" font-family="Helvetica,sans-Serif" font-size="10.00">cstdlib</text>
</a>
</g>
</g>
<!-- Node3&#45;&gt;Node4 -->
<g id="edge3_Node000003_Node000004" class="edge">
<title>Node3&#45;&gt;Node4</title>
<g id="a_edge3_Node000003_Node000004"><a xlink:title=" ">
<path fill="none" stroke="#63b8ff" d="M107.5,-54.75C107.5,-48.11 107.5,-38.73 107.5,-30.31"/>
<polygon fill="#63b8ff" stroke="#63b8ff" points="111,-30.44 107.5,-20.44 104,-30.44 111,-30.44"/>
</a>
</g>
</g>
</g>
</svg>
