<?xml version="1.0" encoding="UTF-8" standalone="no"?>
<!DOCTYPE svg PUBLIC "-//W3C//DTD SVG 1.1//EN"
 "http://www.w3.org/Graphics/SVG/1.1/DTD/svg11.dtd">
<!-- Generated by graphviz version 8.0.3 (20230416.2022)
 -->
<!-- Title: HW&#45;Components/devices Pages: 1 -->
<svg width="557pt" height="141pt"
 viewBox="0.00 0.00 557.00 141.00" xmlns="http://www.w3.org/2000/svg" xmlns:xlink="http://www.w3.org/1999/xlink">
<g id="graph0" class="graph" transform="scale(1 1) rotate(0) translate(4 137)">
<title>HW&#45;Components/devices</title>
<g id="clust1" class="cluster">
<title>clusterdir_bf2c932e12fd3661bca25c493e91b85c</title>
<g id="a_clust1"><a xlink:href="dir_bf2c932e12fd3661bca25c493e91b85c.html" target="_top" xlink:title="HW&#45;Components">
<polygon fill="#edf0f7" stroke="#404040" stroke-dasharray="5,2" points="8,-8 8,-125 541,-125 541,-8 8,-8"/>
<text text-anchor="middle" x="274.5" y="-113" font-family="Helvetica,sans-Serif" font-size="10.00">HW&#45;Components</text>
</a>
</g>
</g>
<g id="clust2" class="cluster">
<title>clusterdir_49decd52c970b6c26b1892145b8c54b6</title>
<g id="a_clust2"><a xlink:href="dir_49decd52c970b6c26b1892145b8c54b6.html" target="_top">
<polygon fill="#edf0f7" stroke="#404040" stroke-width="2" points="16,-63 16,-98 533,-98 533,-63 16,-63"/>
</a>
</g>
</g>
<!-- dir_41354485d893139e386cb38ed5404f14 -->
<g id="node1" class="node">
<title>dir_41354485d893139e386cb38ed5404f14</title>
<g id="a_node1"><a xlink:href="dir_41354485d893139e386cb38ed5404f14.html" target="_top" xlink:title="tools">
<polygon fill="#a2b4d6" stroke="red" points="212,-35 174,-35 174,-16 212,-16 212,-35"/>
<text text-anchor="middle" x="193" y="-23" font-family="Helvetica,sans-Serif" font-size="10.00">tools</text>
</a>
</g>
</g>
<!-- dir_efb0ec8d37d4e3ee43207fb26754ffbf -->
<g id="node2" class="node">
<title>dir_efb0ec8d37d4e3ee43207fb26754ffbf</title>
<g id="a_node2"><a xlink:href="dir_efb0ec8d37d4e3ee43207fb26754ffbf.html" target="_top" xlink:title="dsp">
<polygon fill="#a2b4d6" stroke="red" points="418,-35 386,-35 386,-16 418,-16 418,-35"/>
<text text-anchor="middle" x="402" y="-23" font-family="Helvetica,sans-Serif" font-size="10.00">dsp</text>
</a>
</g>
</g>
<!-- dir_49decd52c970b6c26b1892145b8c54b6 -->
<g id="node3" class="node">
<title>dir_49decd52c970b6c26b1892145b8c54b6</title>
<text text-anchor="middle" x="500" y="-78" font-family="Helvetica,sans-Serif" font-size="10.00">devices</text>
</g>
<!-- dir_5eb125e48023cbf65e0f94ef2b5a6143 -->
<g id="node4" class="node">
<title>dir_5eb125e48023cbf65e0f94ef2b5a6143</title>
<g id="a_node4"><a xlink:href="dir_5eb125e48023cbf65e0f94ef2b5a6143.html" target="_top" xlink:title="buzzer">
<polygon fill="#a2b4d6" stroke="#404040" points="393,-90 347,-90 347,-71 393,-71 393,-90"/>
<text text-anchor="middle" x="370" y="-78" font-family="Helvetica,sans-Serif" font-size="10.00">buzzer</text>
</a>
</g>
</g>
<!-- dir_5eb125e48023cbf65e0f94ef2b5a6143&#45;&gt;dir_41354485d893139e386cb38ed5404f14 -->
<g id="edge1" class="edge">
<title>dir_5eb125e48023cbf65e0f94ef2b5a6143&#45;&gt;dir_41354485d893139e386cb38ed5404f14</title>
<g id="a_edge1"><a xlink:href="dir_000001_000036.html" target="_top">
<path fill="none" stroke="#63b8ff" d="M354.38,-70.54C349.27,-67.85 343.5,-65.08 338,-63 299.24,-48.35 252.45,-37.78 222.71,-31.9"/>
<polygon fill="#63b8ff" stroke="#63b8ff" points="223.68,-28.33 213.19,-29.87 222.35,-35.2 223.68,-28.33"/>
</a>
</g>
<g id="a_edge1&#45;headlabel"><a xlink:href="dir_000001_000036.html" target="_top" xlink:title="3">
<text text-anchor="middle" x="226.74" y="-23.72" font-family="Helvetica,sans-Serif" font-size="10.00" fill="#63b8ff">3</text>
</a>
</g>
</g>
<!-- dir_5eb125e48023cbf65e0f94ef2b5a6143&#45;&gt;dir_efb0ec8d37d4e3ee43207fb26754ffbf -->
<g id="edge2" class="edge">
<title>dir_5eb125e48023cbf65e0f94ef2b5a6143&#45;&gt;dir_efb0ec8d37d4e3ee43207fb26754ffbf</title>
<g id="a_edge2"><a xlink:href="dir_000001_000004.html" target="_top">
<path fill="none" stroke="#63b8ff" d="M375.28,-70.75C379.57,-63.66 385.74,-53.42 391.08,-44.59"/>
<polygon fill="#63b8ff" stroke="#63b8ff" points="394.43,-46.81 396.6,-36.44 388.44,-43.19 394.43,-46.81"/>
</a>
</g>
<g id="a_edge2&#45;headlabel"><a xlink:href="dir_000001_000004.html" target="_top" xlink:title="1">
<text text-anchor="middle" x="395" y="-47.86" font-family="Helvetica,sans-Serif" font-size="10.00" fill="#63b8ff">1</text>
</a>
</g>
</g>
<!-- dir_0d36f70e890197f66be298058bd32981 -->
<g id="node5" class="node">
<title>dir_0d36f70e890197f66be298058bd32981</title>
<g id="a_node5"><a xlink:href="dir_0d36f70e890197f66be298058bd32981.html" target="_top" xlink:title="imu">
<polygon fill="#a2b4d6" stroke="#404040" points="172,-90 140,-90 140,-71 172,-71 172,-90"/>
<text text-anchor="middle" x="156" y="-78" font-family="Helvetica,sans-Serif" font-size="10.00">imu</text>
</a>
</g>
</g>
<!-- dir_0d36f70e890197f66be298058bd32981&#45;&gt;dir_41354485d893139e386cb38ed5404f14 -->
<g id="edge3" class="edge">
<title>dir_0d36f70e890197f66be298058bd32981&#45;&gt;dir_41354485d893139e386cb38ed5404f14</title>
<g id="a_edge3"><a xlink:href="dir_000007_000036.html" target="_top">
<path fill="none" stroke="#63b8ff" d="M162.11,-70.75C167.11,-63.58 174.36,-53.2 180.57,-44.3"/>
<polygon fill="#63b8ff" stroke="#63b8ff" points="183.9,-46.65 186.76,-36.44 178.16,-42.64 183.9,-46.65"/>
</a>
</g>
<g id="a_edge3&#45;headlabel"><a xlink:href="dir_000007_000036.html" target="_top" xlink:title="3">
<text text-anchor="middle" x="184.17" y="-47.72" font-family="Helvetica,sans-Serif" font-size="10.00" fill="#63b8ff">3</text>
</a>
</g>
</g>
<!-- dir_ff73d26a6cf1671bb96d43a8fce53ce5 -->
<g id="node6" class="node">
<title>dir_ff73d26a6cf1671bb96d43a8fce53ce5</title>
<g id="a_node6"><a xlink:href="dir_ff73d26a6cf1671bb96d43a8fce53ce5.html" target="_top" xlink:title="laser">
<polygon fill="#a2b4d6" stroke="#404040" points="122,-90 84,-90 84,-71 122,-71 122,-90"/>
<text text-anchor="middle" x="103" y="-78" font-family="Helvetica,sans-Serif" font-size="10.00">laser</text>
</a>
</g>
</g>
<!-- dir_ff73d26a6cf1671bb96d43a8fce53ce5&#45;&gt;dir_41354485d893139e386cb38ed5404f14 -->
<g id="edge4" class="edge">
<title>dir_ff73d26a6cf1671bb96d43a8fce53ce5&#45;&gt;dir_41354485d893139e386cb38ed5404f14</title>
<g id="a_edge4"><a xlink:href="dir_000018_000036.html" target="_top">
<path fill="none" stroke="#63b8ff" d="M118.27,-70.51C132.06,-62.39 152.59,-50.3 168.64,-40.85"/>
<polygon fill="#63b8ff" stroke="#63b8ff" points="170.12,-43.45 176.96,-35.36 166.57,-37.42 170.12,-43.45"/>
</a>
</g>
<g id="a_edge4&#45;headlabel"><a xlink:href="dir_000018_000036.html" target="_top" xlink:title="3">
<text text-anchor="middle" x="169.46" y="-45.22" font-family="Helvetica,sans-Serif" font-size="10.00" fill="#63b8ff">3</text>
</a>
</g>
</g>
<!-- dir_0b2a1104b376de6ed9ae0678ded7e530 -->
<g id="node7" class="node">
<title>dir_0b2a1104b376de6ed9ae0678ded7e530</title>
<g id="a_node7"><a xlink:href="dir_0b2a1104b376de6ed9ae0678ded7e530.html" target="_top" xlink:title="motor">
<polygon fill="#a2b4d6" stroke="#404040" points="65.5,-90 24.5,-90 24.5,-71 65.5,-71 65.5,-90"/>
<text text-anchor="middle" x="45" y="-78" font-family="Helvetica,sans-Serif" font-size="10.00">motor</text>
</a>
</g>
</g>
<!-- dir_0b2a1104b376de6ed9ae0678ded7e530&#45;&gt;dir_41354485d893139e386cb38ed5404f14 -->
<g id="edge5" class="edge">
<title>dir_0b2a1104b376de6ed9ae0678ded7e530&#45;&gt;dir_41354485d893139e386cb38ed5404f14</title>
<g id="a_edge5"><a xlink:href="dir_000019_000036.html" target="_top">
<path fill="none" stroke="#63b8ff" d="M59.66,-70.66C64.45,-67.99 69.86,-65.18 75,-63 104.27,-50.58 139.22,-40.3 163.46,-33.85"/>
<polygon fill="#63b8ff" stroke="#63b8ff" points="163.98,-37.07 172.78,-31.16 162.22,-30.29 163.98,-37.07"/>
</a>
</g>
<g id="a_edge5&#45;headlabel"><a xlink:href="dir_000019_000036.html" target="_top" xlink:title="10">
<text text-anchor="middle" x="162.22" y="-38.22" font-family="Helvetica,sans-Serif" font-size="10.00" fill="#63b8ff">10</text>
</a>
</g>
</g>
<!-- dir_9af9d0b351d08575a4dd73329768ab86 -->
<g id="node8" class="node">
<title>dir_9af9d0b351d08575a4dd73329768ab86</title>
<g id="a_node8"><a xlink:href="dir_9af9d0b351d08575a4dd73329768ab86.html" target="_top" xlink:title="referee">
<polygon fill="#a2b4d6" stroke="#404040" points="457,-90 411,-90 411,-71 457,-71 457,-90"/>
<text text-anchor="middle" x="434" y="-78" font-family="Helvetica,sans-Serif" font-size="10.00">referee</text>
</a>
</g>
</g>
<!-- dir_9af9d0b351d08575a4dd73329768ab86&#45;&gt;dir_efb0ec8d37d4e3ee43207fb26754ffbf -->
<g id="edge6" class="edge">
<title>dir_9af9d0b351d08575a4dd73329768ab86&#45;&gt;dir_efb0ec8d37d4e3ee43207fb26754ffbf</title>
<g id="a_edge6"><a xlink:href="dir_000022_000004.html" target="_top">
<path fill="none" stroke="#63b8ff" d="M428.72,-70.75C424.43,-63.66 418.26,-53.42 412.92,-44.59"/>
<polygon fill="#63b8ff" stroke="#63b8ff" points="415.56,-43.19 407.4,-36.44 409.57,-46.81 415.56,-43.19"/>
</a>
</g>
<g id="a_edge6&#45;headlabel"><a xlink:href="dir_000022_000004.html" target="_top" xlink:title="1">
<text text-anchor="middle" x="419.85" y="-41.3" font-family="Helvetica,sans-Serif" font-size="10.00" fill="#63b8ff">1</text>
</a>
</g>
</g>
<!-- dir_1353eb1815ab0f68dcb05da1f0dd2617 -->
<g id="node9" class="node">
<title>dir_1353eb1815ab0f68dcb05da1f0dd2617</title>
<g id="a_node9"><a xlink:href="dir_1353eb1815ab0f68dcb05da1f0dd2617.html" target="_top" xlink:title="remote_control">
<polygon fill="#a2b4d6" stroke="#404040" points="271.5,-90 190.5,-90 190.5,-71 271.5,-71 271.5,-90"/>
<text text-anchor="middle" x="231" y="-78" font-family="Helvetica,sans-Serif" font-size="10.00">remote_control</text>
</a>
</g>
</g>
<!-- dir_1353eb1815ab0f68dcb05da1f0dd2617&#45;&gt;dir_41354485d893139e386cb38ed5404f14 -->
<g id="edge7" class="edge">
<title>dir_1353eb1815ab0f68dcb05da1f0dd2617&#45;&gt;dir_41354485d893139e386cb38ed5404f14</title>
<g id="a_edge7"><a xlink:href="dir_000023_000036.html" target="_top">
<path fill="none" stroke="#63b8ff" d="M224.73,-70.75C219.59,-63.58 212.15,-53.2 205.76,-44.3"/>
<polygon fill="#63b8ff" stroke="#63b8ff" points="208.08,-42.53 199.41,-36.44 202.39,-46.61 208.08,-42.53"/>
</a>
</g>
<g id="a_edge7&#45;headlabel"><a xlink:href="dir_000023_000036.html" target="_top" xlink:title="2">
<text text-anchor="middle" x="212.48" y="-40.3" font-family="Helvetica,sans-Serif" font-size="10.00" fill="#63b8ff">2</text>
</a>
</g>
</g>
<!-- dir_d18940ad4f50f2b9dcdd3c2a03bfb76d -->
<g id="node10" class="node">
<title>dir_d18940ad4f50f2b9dcdd3c2a03bfb76d</title>
<g id="a_node10"><a xlink:href="dir_d18940ad4f50f2b9dcdd3c2a03bfb76d.html" target="_top" xlink:title="servo">
<polygon fill="#a2b4d6" stroke="#404040" points="328.5,-90 289.5,-90 289.5,-71 328.5,-71 328.5,-90"/>
<text text-anchor="middle" x="309" y="-78" font-family="Helvetica,sans-Serif" font-size="10.00">servo</text>
</a>
</g>
</g>
<!-- dir_d18940ad4f50f2b9dcdd3c2a03bfb76d&#45;&gt;dir_41354485d893139e386cb38ed5404f14 -->
<g id="edge8" class="edge">
<title>dir_d18940ad4f50f2b9dcdd3c2a03bfb76d&#45;&gt;dir_41354485d893139e386cb38ed5404f14</title>
<g id="a_edge8"><a xlink:href="dir_000024_000036.html" target="_top">
<path fill="none" stroke="#63b8ff" d="M294.68,-70.54C290.35,-67.98 285.54,-65.27 281,-63 261.88,-53.46 239.65,-44.25 222.31,-37.47"/>
<polygon fill="#63b8ff" stroke="#63b8ff" points="223.81,-33.91 213.22,-33.58 221.3,-40.45 223.81,-33.91"/>
</a>
</g>
<g id="a_edge8&#45;headlabel"><a xlink:href="dir_000024_000036.html" target="_top" xlink:title="3">
<text text-anchor="middle" x="227.19" y="-30.06" font-family="Helvetica,sans-Serif" font-size="10.00" fill="#63b8ff">3</text>
</a>
</g>
</g>
</g>
</svg>
