<?xml version="1.0" encoding="UTF-8" standalone="no"?>
<!DOCTYPE svg PUBLIC "-//W3C//DTD SVG 1.1//EN"
 "http://www.w3.org/Graphics/SVG/1.1/DTD/svg11.dtd">
<!-- Generated by graphviz version 8.0.3 (20230416.2022)
 -->
<!-- Title: 类继承关系图 Pages: 1 -->
<svg width="525pt" height="168pt"
 viewBox="0.00 0.00 525.00 167.50" xmlns="http://www.w3.org/2000/svg" xmlns:xlink="http://www.w3.org/1999/xlink">
<g id="graph0" class="graph" transform="scale(1 1) rotate(0) translate(4 163.5)">
<title>类继承关系图</title>
<!-- Node0 -->
<g id="Node000000" class="node">
<title>Node0</title>
<g id="a_Node000000"><a xlink:href="classhello__world_1_1devices_1_1referee_1_1_rx_package_info.html" target="_top" xlink:title=" ">
<polygon fill="white" stroke="#666666" points="123,-89 0,-89 0,-59 123,-59 123,-89"/>
<text text-anchor="start" x="8" y="-77" font-family="Helvetica,sans-Serif" font-size="10.00">hello_world::devices</text>
<text text-anchor="middle" x="61.5" y="-66" font-family="Helvetica,sans-Serif" font-size="10.00">::referee::RxPackageInfo</text>
</a>
</g>
</g>
<!-- Node1 -->
<g id="Node000001" class="node">
<title>Node1</title>
<g id="a_Node000001"><a xlink:href="classhello__world_1_1devices_1_1referee_1_1_rx_package.html" target="_top" xlink:title=" ">
<polygon fill="white" stroke="#666666" points="301.5,-159.5 186.5,-159.5 186.5,-118.5 301.5,-118.5 301.5,-159.5"/>
<text text-anchor="start" x="194.5" y="-147.5" font-family="Helvetica,sans-Serif" font-size="10.00">hello_world::devices</text>
<text text-anchor="start" x="194.5" y="-136.5" font-family="Helvetica,sans-Serif" font-size="10.00">::referee::RxPackage</text>
<text text-anchor="middle" x="244" y="-125.5" font-family="Helvetica,sans-Serif" font-size="10.00">&lt; InterRadarWarning &gt;</text>
</a>
</g>
</g>
<!-- Node0&#45;&gt;Node1 -->
<g id="edge2_Node000000_Node000001" class="edge">
<title>Node0&#45;&gt;Node1</title>
<g id="a_edge2_Node000000_Node000001"><a xlink:title=" ">
<path fill="none" stroke="#63b8ff" d="M114.92,-93.07C129.21,-98.25 144.7,-103.85 159,-109 167.74,-112.15 177,-115.47 186.05,-118.7"/>
<polygon fill="#63b8ff" stroke="#63b8ff" points="116.35,-89.5 105.76,-89.38 113.97,-96.08 116.35,-89.5"/>
</a>
</g>
</g>
<!-- Node3 -->
<g id="Node000003" class="node">
<title>Node3</title>
<g id="a_Node000003"><a xlink:href="classhello__world_1_1devices_1_1referee_1_1_rx_package.html" target="_top" xlink:title=" ">
<polygon fill="white" stroke="#666666" points="329,-100 159,-100 159,-48 329,-48 329,-100"/>
<text text-anchor="start" x="167" y="-88" font-family="Helvetica,sans-Serif" font-size="10.00">hello_world::devices</text>
<text text-anchor="start" x="167" y="-77" font-family="Helvetica,sans-Serif" font-size="10.00">::referee::RxPackage</text>
<text text-anchor="start" x="167" y="-66" font-family="Helvetica,sans-Serif" font-size="10.00">&lt; hello_world::devices</text>
<text text-anchor="middle" x="244" y="-55" font-family="Helvetica,sans-Serif" font-size="10.00">::referee::__REFEREE_PACKED &gt;</text>
</a>
</g>
</g>
<!-- Node0&#45;&gt;Node3 -->
<g id="edge4_Node000000_Node000003" class="edge">
<title>Node0&#45;&gt;Node3</title>
<g id="a_edge4_Node000000_Node000003"><a xlink:title=" ">
<path fill="none" stroke="#63b8ff" d="M134.19,-74C142.24,-74 150.5,-74 158.69,-74"/>
<polygon fill="#63b8ff" stroke="#63b8ff" points="134.36,-70.5 124.36,-74 134.36,-77.5 134.36,-70.5"/>
</a>
</g>
</g>
<!-- Node4 -->
<g id="Node000004" class="node">
<title>Node4</title>
<g id="a_Node000004"><a xlink:href="classhello__world_1_1devices_1_1referee_1_1_rx_package.html" target="_top" xlink:title=" ">
<polygon fill="white" stroke="#666666" points="309.5,-30 178.5,-30 178.5,0 309.5,0 309.5,-30"/>
<text text-anchor="start" x="186.5" y="-18" font-family="Helvetica,sans-Serif" font-size="10.00">hello_world::devices</text>
<text text-anchor="middle" x="244" y="-7" font-family="Helvetica,sans-Serif" font-size="10.00">::referee::RxPackage&lt; T &gt;</text>
</a>
</g>
</g>
<!-- Node0&#45;&gt;Node4 -->
<g id="edge5_Node000000_Node000004" class="edge">
<title>Node0&#45;&gt;Node4</title>
<g id="a_edge5_Node000000_Node000004"><a xlink:title=" ">
<path fill="none" stroke="#63b8ff" d="M113.07,-54.91C127.81,-49.55 143.98,-43.86 159,-39 167.95,-36.1 177.49,-33.2 186.81,-30.47"/>
<polygon fill="#63b8ff" stroke="#63b8ff" points="112.32,-51.82 104.13,-58.55 114.73,-58.4 112.32,-51.82"/>
</a>
</g>
</g>
<!-- Node2 -->
<g id="Node000002" class="node">
<title>Node2</title>
<g id="a_Node000002"><a xlink:href="classhello__world_1_1devices_1_1referee_1_1_rx_package_inter_radar_warning.html" target="_top" xlink:title=" ">
<polygon fill="white" stroke="#666666" points="517,-159.5 365,-159.5 365,-118.5 517,-118.5 517,-159.5"/>
<text text-anchor="start" x="373" y="-147.5" font-family="Helvetica,sans-Serif" font-size="10.00">hello_world::devices</text>
<text text-anchor="start" x="373" y="-136.5" font-family="Helvetica,sans-Serif" font-size="10.00">::referee::RxPackageInterRadar</text>
<text text-anchor="middle" x="441" y="-125.5" font-family="Helvetica,sans-Serif" font-size="10.00">Warning</text>
</a>
</g>
</g>
<!-- Node1&#45;&gt;Node2 -->
<g id="edge3_Node000001_Node000002" class="edge">
<title>Node1&#45;&gt;Node2</title>
<g id="a_edge3_Node000001_Node000002"><a xlink:title=" ">
<path fill="none" stroke="#63b8ff" d="M312.7,-139C329.42,-139 347.44,-139 364.5,-139"/>
<polygon fill="#63b8ff" stroke="#63b8ff" points="312.93,-135.5 302.93,-139 312.93,-142.5 312.93,-135.5"/>
</a>
</g>
</g>
</g>
</svg>
