<?xml version="1.0" encoding="UTF-8" standalone="no"?>
<!DOCTYPE svg PUBLIC "-//W3C//DTD SVG 1.1//EN"
 "http://www.w3.org/Graphics/SVG/1.1/DTD/svg11.dtd">
<!-- Generated by graphviz version 8.0.3 (20230416.2022)
 -->
<!-- Title: 类继承关系图 Pages: 1 -->
<svg width="317pt" height="278pt"
 viewBox="0.00 0.00 317.00 278.00" xmlns="http://www.w3.org/2000/svg" xmlns:xlink="http://www.w3.org/1999/xlink">
<g id="graph0" class="graph" transform="scale(1 1) rotate(0) translate(4 274)">
<title>类继承关系图</title>
<!-- Node0 -->
<g id="Node000000" class="node">
<title>Node0</title>
<g id="a_Node000000"><a xlink:href="classhello__world_1_1devices_1_1referee_1_1_ui_frame.html" target="_top" xlink:title=" ">
<polygon fill="white" stroke="#666666" points="103,-150 0,-150 0,-120 103,-120 103,-150"/>
<text text-anchor="start" x="8" y="-138" font-family="Helvetica,sans-Serif" font-size="10.00">hello_world::devices</text>
<text text-anchor="middle" x="51.5" y="-127" font-family="Helvetica,sans-Serif" font-size="10.00">::referee::UiFrame</text>
</a>
</g>
</g>
<!-- Node1 -->
<g id="Node000001" class="node">
<title>Node1</title>
<g id="a_Node000001"><a xlink:href="classhello__world_1_1devices_1_1referee_1_1_ui_frame_delete.html" target="_top" xlink:title=" ">
<polygon fill="white" stroke="#666666" points="285,-270 163,-270 163,-240 285,-240 285,-270"/>
<text text-anchor="start" x="171" y="-258" font-family="Helvetica,sans-Serif" font-size="10.00">hello_world::devices</text>
<text text-anchor="middle" x="224" y="-247" font-family="Helvetica,sans-Serif" font-size="10.00">::referee::UiFrameDelete</text>
</a>
</g>
</g>
<!-- Node0&#45;&gt;Node1 -->
<g id="edge6_Node000000_Node000001" class="edge">
<title>Node0&#45;&gt;Node1</title>
<g id="a_edge6_Node000000_Node000001"><a xlink:title=" ">
<path fill="none" stroke="#63b8ff" d="M68.48,-159.42C83.99,-181.26 109.49,-212.59 139,-231 146.33,-235.58 154.57,-239.3 162.93,-242.34"/>
<polygon fill="#63b8ff" stroke="#63b8ff" points="70.82,-157.66 62.26,-151.42 65.06,-161.64 70.82,-157.66"/>
</a>
</g>
</g>
<!-- Node2 -->
<g id="Node000002" class="node">
<title>Node2</title>
<g id="a_Node000002"><a xlink:href="classhello__world_1_1devices_1_1referee_1_1_ui_frame_graphic_character.html" target="_top" xlink:title=" ">
<polygon fill="white" stroke="#666666" points="309,-222 139,-222 139,-192 309,-192 309,-222"/>
<text text-anchor="start" x="147" y="-210" font-family="Helvetica,sans-Serif" font-size="10.00">hello_world::devices</text>
<text text-anchor="middle" x="224" y="-199" font-family="Helvetica,sans-Serif" font-size="10.00">::referee::UiFrameGraphicCharacter</text>
</a>
</g>
</g>
<!-- Node0&#45;&gt;Node2 -->
<g id="edge7_Node000000_Node000002" class="edge">
<title>Node0&#45;&gt;Node2</title>
<g id="a_edge7_Node000000_Node000002"><a xlink:title=" ">
<path fill="none" stroke="#63b8ff" d="M86,-155.94C101.68,-165.12 120.86,-175.49 139,-183 146.57,-186.13 154.68,-189.01 162.77,-191.6"/>
<polygon fill="#63b8ff" stroke="#63b8ff" points="88.12,-152.53 77.73,-150.42 84.53,-158.54 88.12,-152.53"/>
</a>
</g>
</g>
<!-- Node3 -->
<g id="Node000003" class="node">
<title>Node3</title>
<g id="a_Node000003"><a xlink:href="classhello__world_1_1devices_1_1referee_1_1_ui_frame_graphic_pack1.html" target="_top" xlink:title=" ">
<polygon fill="white" stroke="#666666" points="302,-174 146,-174 146,-144 302,-144 302,-174"/>
<text text-anchor="start" x="154" y="-162" font-family="Helvetica,sans-Serif" font-size="10.00">hello_world::devices</text>
<text text-anchor="middle" x="224" y="-151" font-family="Helvetica,sans-Serif" font-size="10.00">::referee::UiFrameGraphicPack1</text>
</a>
</g>
</g>
<!-- Node0&#45;&gt;Node3 -->
<g id="edge8_Node000000_Node000003" class="edge">
<title>Node0&#45;&gt;Node3</title>
<g id="a_edge8_Node000000_Node000003"><a xlink:title=" ">
<path fill="none" stroke="#63b8ff" d="M113.76,-143.62C124.11,-145.08 134.97,-146.61 145.66,-148.11"/>
<polygon fill="#63b8ff" stroke="#63b8ff" points="114.58,-140.06 104.19,-142.14 113.61,-147 114.58,-140.06"/>
</a>
</g>
</g>
<!-- Node4 -->
<g id="Node000004" class="node">
<title>Node4</title>
<g id="a_Node000004"><a xlink:href="classhello__world_1_1devices_1_1referee_1_1_ui_frame_graphic_pack2.html" target="_top" xlink:title=" ">
<polygon fill="white" stroke="#666666" points="302,-126 146,-126 146,-96 302,-96 302,-126"/>
<text text-anchor="start" x="154" y="-114" font-family="Helvetica,sans-Serif" font-size="10.00">hello_world::devices</text>
<text text-anchor="middle" x="224" y="-103" font-family="Helvetica,sans-Serif" font-size="10.00">::referee::UiFrameGraphicPack2</text>
</a>
</g>
</g>
<!-- Node0&#45;&gt;Node4 -->
<g id="edge9_Node000000_Node000004" class="edge">
<title>Node0&#45;&gt;Node4</title>
<g id="a_edge9_Node000000_Node000004"><a xlink:title=" ">
<path fill="none" stroke="#63b8ff" d="M113.76,-126.38C124.11,-124.92 134.97,-123.39 145.66,-121.89"/>
<polygon fill="#63b8ff" stroke="#63b8ff" points="113.61,-123 104.19,-127.86 114.58,-129.94 113.61,-123"/>
</a>
</g>
</g>
<!-- Node5 -->
<g id="Node000005" class="node">
<title>Node5</title>
<g id="a_Node000005"><a xlink:href="classhello__world_1_1devices_1_1referee_1_1_ui_frame_graphic_pack5.html" target="_top" xlink:title=" ">
<polygon fill="white" stroke="#666666" points="302,-78 146,-78 146,-48 302,-48 302,-78"/>
<text text-anchor="start" x="154" y="-66" font-family="Helvetica,sans-Serif" font-size="10.00">hello_world::devices</text>
<text text-anchor="middle" x="224" y="-55" font-family="Helvetica,sans-Serif" font-size="10.00">::referee::UiFrameGraphicPack5</text>
</a>
</g>
</g>
<!-- Node0&#45;&gt;Node5 -->
<g id="edge10_Node000000_Node000005" class="edge">
<title>Node0&#45;&gt;Node5</title>
<g id="a_edge10_Node000000_Node000005"><a xlink:title=" ">
<path fill="none" stroke="#63b8ff" d="M86,-114.06C101.68,-104.88 120.86,-94.51 139,-87 146.57,-83.87 154.68,-80.99 162.77,-78.4"/>
<polygon fill="#63b8ff" stroke="#63b8ff" points="84.53,-111.46 77.73,-119.58 88.12,-117.47 84.53,-111.46"/>
</a>
</g>
</g>
<!-- Node6 -->
<g id="Node000006" class="node">
<title>Node6</title>
<g id="a_Node000006"><a xlink:href="classhello__world_1_1devices_1_1referee_1_1_ui_frame_graphic_pack7.html" target="_top" xlink:title=" ">
<polygon fill="white" stroke="#666666" points="302,-30 146,-30 146,0 302,0 302,-30"/>
<text text-anchor="start" x="154" y="-18" font-family="Helvetica,sans-Serif" font-size="10.00">hello_world::devices</text>
<text text-anchor="middle" x="224" y="-7" font-family="Helvetica,sans-Serif" font-size="10.00">::referee::UiFrameGraphicPack7</text>
</a>
</g>
</g>
<!-- Node0&#45;&gt;Node6 -->
<g id="edge11_Node000000_Node000006" class="edge">
<title>Node0&#45;&gt;Node6</title>
<g id="a_edge11_Node000000_Node000006"><a xlink:title=" ">
<path fill="none" stroke="#63b8ff" d="M68.48,-110.58C83.99,-88.74 109.49,-57.41 139,-39 144.28,-35.71 150.02,-32.86 155.94,-30.38"/>
<polygon fill="#63b8ff" stroke="#63b8ff" points="65.06,-108.36 62.26,-118.58 70.82,-112.34 65.06,-108.36"/>
</a>
</g>
</g>
</g>
</svg>
