<?xml version="1.0" encoding="UTF-8" standalone="no"?>
<!DOCTYPE svg PUBLIC "-//W3C//DTD SVG 1.1//EN"
 "http://www.w3.org/Graphics/SVG/1.1/DTD/svg11.dtd">
<!-- Generated by graphviz version 8.0.3 (20230416.2022)
 -->
<!-- Title: HW&#45;Components/devices/motor/inc/motor.hpp Pages: 1 -->
<svg width="842pt" height="258pt"
 viewBox="0.00 0.00 841.50 258.00" xmlns="http://www.w3.org/2000/svg" xmlns:xlink="http://www.w3.org/1999/xlink">
<g id="graph0" class="graph" transform="scale(1 1) rotate(0) translate(4 254)">
<title>HW&#45;Components/devices/motor/inc/motor.hpp</title>
<!-- Node1 -->
<g id="Node000001" class="node">
<title>Node1</title>
<g id="a_Node000001"><a xlink:title=": @history : Version Date Author Note V0.9.0 2023&#45;11&#45;25 Caikunzhen 1.">
<polygon fill="#999999" stroke="#666666" points="435.5,-250 309.5,-250 309.5,-220 435.5,-220 435.5,-250"/>
<text text-anchor="start" x="317.5" y="-238" font-family="Helvetica,sans-Serif" font-size="10.00">HW&#45;Components/devices</text>
<text text-anchor="middle" x="372.5" y="-227" font-family="Helvetica,sans-Serif" font-size="10.00">/motor/inc/motor.hpp</text>
</a>
</g>
</g>
<!-- Node2 -->
<g id="Node000002" class="node">
<title>Node2</title>
<g id="a_Node000002"><a xlink:href="motor___a1_8hpp.html" target="_top" xlink:title=": @history : Version Date Author Note V0.9.0 2023&#45;11&#45;25 Caikunzhen 1.">
<polygon fill="white" stroke="#666666" points="77,-184 0,-184 0,-165 77,-165 77,-184"/>
<text text-anchor="middle" x="38.5" y="-172" font-family="Helvetica,sans-Serif" font-size="10.00">motor_A1.hpp</text>
</a>
</g>
</g>
<!-- Node1&#45;&gt;Node2 -->
<g id="edge1_Node000001_Node000002" class="edge">
<title>Node1&#45;&gt;Node2</title>
<g id="a_edge1_Node000001_Node000002"><a xlink:title=" ">
<path fill="none" stroke="#63b8ff" d="M309.28,-222.93C245.01,-211.67 146.76,-194.46 87.95,-184.16"/>
<polygon fill="#63b8ff" stroke="#63b8ff" points="88.9,-180.6 78.45,-182.32 87.7,-187.49 88.9,-180.6"/>
</a>
</g>
</g>
<!-- Node3 -->
<g id="Node000003" class="node">
<title>Node3</title>
<g id="a_Node000003"><a xlink:href="motor__base_8hpp.html" target="_top" xlink:title=": @history : Version Date Author Note V0.9.0 2023&#45;11&#45;25 Caikunzhen 1.">
<polygon fill="white" stroke="#666666" points="415.5,-129 329.5,-129 329.5,-110 415.5,-110 415.5,-129"/>
<text text-anchor="middle" x="372.5" y="-117" font-family="Helvetica,sans-Serif" font-size="10.00">motor_base.hpp</text>
</a>
</g>
</g>
<!-- Node1&#45;&gt;Node3 -->
<g id="edge22_Node000001_Node000003" class="edge">
<title>Node1&#45;&gt;Node3</title>
<g id="a_edge22_Node000001_Node000003"><a xlink:title=" ">
<path fill="none" stroke="#63b8ff" d="M309.17,-230.14C243.55,-224.67 147.42,-212 124.5,-184 119.15,-177.47 119.08,-171.48 124.5,-165 148.71,-136.06 252.92,-125.92 318.31,-122.38"/>
<polygon fill="#63b8ff" stroke="#63b8ff" points="318.43,-125.83 328.24,-121.83 318.08,-118.83 318.43,-125.83"/>
</a>
</g>
</g>
<!-- Node11 -->
<g id="Node000011" class="node">
<title>Node11</title>
<g id="a_Node000011"><a xlink:href="motor___d_m___j4310_8hpp.html" target="_top" xlink:title=": @history : Version Date Author Note V0.9.0 2023&#45;11&#45;25 Caikunzhen 1.">
<polygon fill="white" stroke="#666666" points="245,-184 134,-184 134,-165 245,-165 245,-184"/>
<text text-anchor="middle" x="189.5" y="-172" font-family="Helvetica,sans-Serif" font-size="10.00">motor_DM_J4310.hpp</text>
</a>
</g>
</g>
<!-- Node1&#45;&gt;Node11 -->
<g id="edge10_Node000001_Node000011" class="edge">
<title>Node1&#45;&gt;Node11</title>
<g id="a_edge10_Node000001_Node000011"><a xlink:title=" ">
<path fill="none" stroke="#63b8ff" d="M327.26,-219.54C296.63,-209.75 256.6,-196.95 227.59,-187.68"/>
<polygon fill="#63b8ff" stroke="#63b8ff" points="229.03,-184.14 218.44,-184.43 226.9,-190.81 229.03,-184.14"/>
</a>
</g>
</g>
<!-- Node12 -->
<g id="Node000012" class="node">
<title>Node12</title>
<g id="a_Node000012"><a xlink:href="motor___g_m6020_8hpp.html" target="_top" xlink:title=": @history : Version Date Author Note V0.9.0 2023&#45;11&#45;25 Caikunzhen 1.">
<polygon fill="white" stroke="#666666" points="365.5,-184 263.5,-184 263.5,-165 365.5,-165 365.5,-184"/>
<text text-anchor="middle" x="314.5" y="-172" font-family="Helvetica,sans-Serif" font-size="10.00">motor_GM6020.hpp</text>
</a>
</g>
</g>
<!-- Node1&#45;&gt;Node12 -->
<g id="edge12_Node000001_Node000012" class="edge">
<title>Node1&#45;&gt;Node12</title>
<g id="a_edge12_Node000001_Node000012"><a xlink:title=" ">
<path fill="none" stroke="#63b8ff" d="M358.16,-219.54C349.82,-211.13 339.29,-200.51 330.66,-191.8"/>
<polygon fill="#63b8ff" stroke="#63b8ff" points="333.63,-189.81 324.1,-185.18 328.66,-194.74 333.63,-189.81"/>
</a>
</g>
</g>
<!-- Node13 -->
<g id="Node000013" class="node">
<title>Node13</title>
<g id="a_Node000013"><a xlink:href="motor___m2006_8hpp.html" target="_top" xlink:title=": @history : Version Date Author Note V0.9.0 2023&#45;11&#45;25 Caikunzhen 1.">
<polygon fill="white" stroke="#666666" points="479,-184 384,-184 384,-165 479,-165 479,-184"/>
<text text-anchor="middle" x="431.5" y="-172" font-family="Helvetica,sans-Serif" font-size="10.00">motor_M2006.hpp</text>
</a>
</g>
</g>
<!-- Node1&#45;&gt;Node13 -->
<g id="edge14_Node000001_Node000013" class="edge">
<title>Node1&#45;&gt;Node13</title>
<g id="a_edge14_Node000001_Node000013"><a xlink:title=" ">
<path fill="none" stroke="#63b8ff" d="M387.08,-219.54C395.57,-211.13 406.28,-200.51 415.06,-191.8"/>
<polygon fill="#63b8ff" stroke="#63b8ff" points="417.11,-194.7 421.75,-185.18 412.19,-189.73 417.11,-194.7"/>
</a>
</g>
</g>
<!-- Node14 -->
<g id="Node000014" class="node">
<title>Node14</title>
<g id="a_Node000014"><a xlink:href="motor___m3508_8hpp.html" target="_top" xlink:title=": @history : Version Date Author Note V0.9.0 2023&#45;11&#45;25 Caikunzhen 1.">
<polygon fill="white" stroke="#666666" points="592,-184 497,-184 497,-165 592,-165 592,-184"/>
<text text-anchor="middle" x="544.5" y="-172" font-family="Helvetica,sans-Serif" font-size="10.00">motor_M3508.hpp</text>
</a>
</g>
</g>
<!-- Node1&#45;&gt;Node14 -->
<g id="edge16_Node000001_Node000014" class="edge">
<title>Node1&#45;&gt;Node14</title>
<g id="a_edge16_Node000001_Node000014"><a xlink:title=" ">
<path fill="none" stroke="#63b8ff" d="M415.02,-219.54C443.56,-209.83 480.77,-197.17 507.98,-187.92"/>
<polygon fill="#63b8ff" stroke="#63b8ff" points="508.9,-190.97 517.24,-184.43 506.64,-184.34 508.9,-190.97"/>
</a>
</g>
</g>
<!-- Node15 -->
<g id="Node000015" class="node">
<title>Node15</title>
<g id="a_Node000015"><a xlink:href="motor___m8910_8hpp.html" target="_top" xlink:title=": @history : Version Date Author Note V0.9.0 2023&#45;11&#45;25 Caikunzhen 1.">
<polygon fill="white" stroke="#666666" points="705,-184 610,-184 610,-165 705,-165 705,-184"/>
<text text-anchor="middle" x="657.5" y="-172" font-family="Helvetica,sans-Serif" font-size="10.00">motor_M8910.hpp</text>
</a>
</g>
</g>
<!-- Node1&#45;&gt;Node15 -->
<g id="edge18_Node000001_Node000015" class="edge">
<title>Node1&#45;&gt;Node15</title>
<g id="a_edge18_Node000001_Node000015"><a xlink:title=" ">
<path fill="none" stroke="#63b8ff" d="M435.75,-221.02C485.96,-210.71 555.41,-196.46 603.14,-186.66"/>
<polygon fill="#63b8ff" stroke="#63b8ff" points="603.78,-189.89 612.88,-184.45 602.38,-183.04 603.78,-189.89"/>
</a>
</g>
</g>
<!-- Node16 -->
<g id="Node000016" class="node">
<title>Node16</title>
<g id="a_Node000016"><a xlink:href="motor___m_f9025v2_8hpp.html" target="_top" xlink:title=": @history : Version Date Author Note V0.9.0 2023&#45;11&#45;25 Caikunzhen 1.">
<polygon fill="white" stroke="#666666" points="833.5,-184 723.5,-184 723.5,-165 833.5,-165 833.5,-184"/>
<text text-anchor="middle" x="778.5" y="-172" font-family="Helvetica,sans-Serif" font-size="10.00">motor_MF9025v2.hpp</text>
</a>
</g>
</g>
<!-- Node1&#45;&gt;Node16 -->
<g id="edge20_Node000001_Node000016" class="edge">
<title>Node1&#45;&gt;Node16</title>
<g id="a_edge20_Node000001_Node000016"><a xlink:title=" ">
<path fill="none" stroke="#63b8ff" d="M435.94,-224.86C511.23,-214.01 636.18,-196.01 712.56,-185"/>
<polygon fill="#63b8ff" stroke="#63b8ff" points="712.61,-188.39 722,-183.5 711.61,-181.46 712.61,-188.39"/>
</a>
</g>
</g>
<!-- Node2&#45;&gt;Node3 -->
<g id="edge2_Node000002_Node000003" class="edge">
<title>Node2&#45;&gt;Node3</title>
<g id="a_edge2_Node000002_Node000003"><a xlink:title=" ">
<path fill="none" stroke="#63b8ff" d="M77.29,-167.27C82.07,-166.5 86.9,-165.73 91.5,-165 170.38,-152.43 261.74,-137.98 318.33,-129.05"/>
<polygon fill="#63b8ff" stroke="#63b8ff" points="318.84,-132.35 328.17,-127.33 317.75,-125.44 318.84,-132.35"/>
</a>
</g>
</g>
<!-- Node4 -->
<g id="Node000004" class="node">
<title>Node4</title>
<g id="a_Node000004"><a xlink:title=" ">
<polygon fill="#e0e0e0" stroke="#999999" points="326.5,-74 286.5,-74 286.5,-55 326.5,-55 326.5,-74"/>
<text text-anchor="middle" x="306.5" y="-62" font-family="Helvetica,sans-Serif" font-size="10.00">limits</text>
</a>
</g>
</g>
<!-- Node3&#45;&gt;Node4 -->
<g id="edge3_Node000003_Node000004" class="edge">
<title>Node3&#45;&gt;Node4</title>
<g id="a_edge3_Node000003_Node000004"><a xlink:title=" ">
<path fill="none" stroke="#63b8ff" d="M361.3,-109.51C351.67,-101.77 337.55,-90.43 326.05,-81.2"/>
<polygon fill="#63b8ff" stroke="#63b8ff" points="328.52,-77.89 318.53,-74.36 324.14,-83.35 328.52,-77.89"/>
</a>
</g>
</g>
<!-- Node5 -->
<g id="Node000005" class="node">
<title>Node5</title>
<g id="a_Node000005"><a xlink:href="base_8hpp.html" target="_top" xlink:title=": @history : Version Date Author Note V0.9.0 yyyy&#45;mm&#45;dd &lt;author&gt; 1.">
<polygon fill="white" stroke="#666666" points="400.5,-74 344.5,-74 344.5,-55 400.5,-55 400.5,-74"/>
<text text-anchor="middle" x="372.5" y="-62" font-family="Helvetica,sans-Serif" font-size="10.00">base.hpp</text>
</a>
</g>
</g>
<!-- Node3&#45;&gt;Node5 -->
<g id="edge4_Node000003_Node000005" class="edge">
<title>Node3&#45;&gt;Node5</title>
<g id="a_edge4_Node000003_Node000005"><a xlink:title=" ">
<path fill="none" stroke="#63b8ff" d="M372.5,-109.75C372.5,-103.11 372.5,-93.73 372.5,-85.31"/>
<polygon fill="#63b8ff" stroke="#63b8ff" points="376,-85.44 372.5,-75.44 369,-85.44 376,-85.44"/>
</a>
</g>
</g>
<!-- Node9 -->
<g id="Node000009" class="node">
<title>Node9</title>
<g id="a_Node000009"><a xlink:href="system_8hpp.html" target="_top" xlink:title=" ">
<polygon fill="white" stroke="#666666" points="518.5,-74 450.5,-74 450.5,-55 518.5,-55 518.5,-74"/>
<text text-anchor="middle" x="484.5" y="-62" font-family="Helvetica,sans-Serif" font-size="10.00">system.hpp</text>
</a>
</g>
</g>
<!-- Node3&#45;&gt;Node9 -->
<g id="edge8_Node000003_Node000009" class="edge">
<title>Node3&#45;&gt;Node9</title>
<g id="a_edge8_Node000003_Node000009"><a xlink:title=" ">
<path fill="none" stroke="#63b8ff" d="M391.5,-109.51C409.14,-101.16 435.66,-88.61 455.87,-79.05"/>
<polygon fill="#63b8ff" stroke="#63b8ff" points="457.24,-81.8 464.78,-74.36 454.25,-75.47 457.24,-81.8"/>
</a>
</g>
</g>
<!-- Node6 -->
<g id="Node000006" class="node">
<title>Node6</title>
<g id="a_Node000006"><a xlink:title=" ">
<polygon fill="#e0e0e0" stroke="#999999" points="315.5,-19 271.5,-19 271.5,0 315.5,0 315.5,-19"/>
<text text-anchor="middle" x="293.5" y="-7" font-family="Helvetica,sans-Serif" font-size="10.00">cmath</text>
</a>
</g>
</g>
<!-- Node5&#45;&gt;Node6 -->
<g id="edge5_Node000005_Node000006" class="edge">
<title>Node5&#45;&gt;Node6</title>
<g id="a_edge5_Node000005_Node000006"><a xlink:title=" ">
<path fill="none" stroke="#63b8ff" d="M359.1,-54.51C347.22,-46.54 329.65,-34.75 315.68,-25.38"/>
<polygon fill="#63b8ff" stroke="#63b8ff" points="317.96,-22.02 307.7,-19.36 314.06,-27.84 317.96,-22.02"/>
</a>
</g>
</g>
<!-- Node7 -->
<g id="Node000007" class="node">
<title>Node7</title>
<g id="a_Node000007"><a xlink:title=" ">
<polygon fill="#e0e0e0" stroke="#999999" points="379.5,-19 333.5,-19 333.5,0 379.5,0 379.5,-19"/>
<text text-anchor="middle" x="356.5" y="-7" font-family="Helvetica,sans-Serif" font-size="10.00">cstdint</text>
</a>
</g>
</g>
<!-- Node5&#45;&gt;Node7 -->
<g id="edge6_Node000005_Node000007" class="edge">
<title>Node5&#45;&gt;Node7</title>
<g id="a_edge6_Node000005_Node000007"><a xlink:title=" ">
<path fill="none" stroke="#63b8ff" d="M369.86,-54.75C367.81,-47.96 364.89,-38.3 362.31,-29.73"/>
<polygon fill="#63b8ff" stroke="#63b8ff" points="365.44,-29 359.2,-20.44 358.74,-31.03 365.44,-29"/>
</a>
</g>
</g>
<!-- Node8 -->
<g id="Node000008" class="node">
<title>Node8</title>
<g id="a_Node000008"><a xlink:href="assert_8hpp.html" target="_top" xlink:title=": @history : Version Date Author Note V0.9.0 yyyy&#45;mm&#45;dd &lt;author&gt; 1.">
<polygon fill="white" stroke="#666666" points="459.5,-19 397.5,-19 397.5,0 459.5,0 459.5,-19"/>
<text text-anchor="middle" x="428.5" y="-7" font-family="Helvetica,sans-Serif" font-size="10.00">assert.hpp</text>
</a>
</g>
</g>
<!-- Node5&#45;&gt;Node8 -->
<g id="edge7_Node000005_Node000008" class="edge">
<title>Node5&#45;&gt;Node8</title>
<g id="a_edge7_Node000005_Node000008"><a xlink:title=" ">
<path fill="none" stroke="#63b8ff" d="M382,-54.51C390.01,-46.93 401.68,-35.88 411.33,-26.75"/>
<polygon fill="#63b8ff" stroke="#63b8ff" points="413.28,-29.77 418.14,-20.36 408.47,-24.69 413.28,-29.77"/>
</a>
</g>
</g>
<!-- Node10 -->
<g id="Node000010" class="node">
<title>Node10</title>
<g id="a_Node000010"><a xlink:title=" ">
<polygon fill="#e0e0e0" stroke="#999999" points="523,-19 478,-19 478,0 523,0 523,-19"/>
<text text-anchor="middle" x="500.5" y="-7" font-family="Helvetica,sans-Serif" font-size="10.00">cstdlib</text>
</a>
</g>
</g>
<!-- Node9&#45;&gt;Node10 -->
<g id="edge9_Node000009_Node000010" class="edge">
<title>Node9&#45;&gt;Node10</title>
<g id="a_edge9_Node000009_Node000010"><a xlink:title=" ">
<path fill="none" stroke="#63b8ff" d="M487.14,-54.75C489.19,-47.96 492.11,-38.3 494.69,-29.73"/>
<polygon fill="#63b8ff" stroke="#63b8ff" points="498.26,-31.03 497.8,-20.44 491.56,-29 498.26,-31.03"/>
</a>
</g>
</g>
<!-- Node11&#45;&gt;Node3 -->
<g id="edge11_Node000011_Node000003" class="edge">
<title>Node11&#45;&gt;Node3</title>
<g id="a_edge11_Node000011_Node000003"><a xlink:title=" ">
<path fill="none" stroke="#63b8ff" d="M220.54,-164.51C251,-155.69 297.63,-142.18 331.21,-132.46"/>
<polygon fill="#63b8ff" stroke="#63b8ff" points="331.98,-135.59 340.61,-129.45 330.03,-128.87 331.98,-135.59"/>
</a>
</g>
</g>
<!-- Node12&#45;&gt;Node3 -->
<g id="edge13_Node000012_Node000003" class="edge">
<title>Node12&#45;&gt;Node3</title>
<g id="a_edge13_Node000012_Node000003"><a xlink:title=" ">
<path fill="none" stroke="#63b8ff" d="M324.34,-164.51C332.64,-156.93 344.73,-145.88 354.72,-136.75"/>
<polygon fill="#63b8ff" stroke="#63b8ff" points="356.79,-139.69 361.81,-130.36 352.06,-134.52 356.79,-139.69"/>
</a>
</g>
</g>
<!-- Node13&#45;&gt;Node3 -->
<g id="edge15_Node000013_Node000003" class="edge">
<title>Node13&#45;&gt;Node3</title>
<g id="a_edge15_Node000013_Node000003"><a xlink:title=" ">
<path fill="none" stroke="#63b8ff" d="M421.49,-164.51C412.96,-156.85 400.5,-145.66 390.28,-136.47"/>
<polygon fill="#63b8ff" stroke="#63b8ff" points="393.14,-134.44 383.36,-130.36 388.46,-139.64 393.14,-134.44"/>
</a>
</g>
</g>
<!-- Node14&#45;&gt;Node3 -->
<g id="edge17_Node000014_Node000003" class="edge">
<title>Node14&#45;&gt;Node3</title>
<g id="a_edge17_Node000014_Node000003"><a xlink:title=" ">
<path fill="none" stroke="#63b8ff" d="M515.32,-164.51C486.82,-155.73 443.25,-142.3 411.72,-132.59"/>
<polygon fill="#63b8ff" stroke="#63b8ff" points="413.12,-129.05 402.53,-129.45 411.06,-135.74 413.12,-129.05"/>
</a>
</g>
</g>
<!-- Node15&#45;&gt;Node3 -->
<g id="edge19_Node000015_Node000003" class="edge">
<title>Node15&#45;&gt;Node3</title>
<g id="a_edge19_Node000015_Node000003"><a xlink:title=" ">
<path fill="none" stroke="#63b8ff" d="M609.8,-164.63C559.1,-155.2 479.09,-140.32 426.21,-130.49"/>
<polygon fill="#63b8ff" stroke="#63b8ff" points="427.16,-126.92 416.69,-128.53 425.88,-133.8 427.16,-126.92"/>
</a>
</g>
</g>
<!-- Node16&#45;&gt;Node3 -->
<g id="edge21_Node000016_Node000003" class="edge">
<title>Node16&#45;&gt;Node3</title>
<g id="a_edge21_Node000016_Node000003"><a xlink:title=" ">
<path fill="none" stroke="#63b8ff" d="M723.34,-166.17C720.35,-165.77 717.39,-165.38 714.5,-165 612.86,-151.64 494.19,-136.24 426.74,-127.51"/>
<polygon fill="#63b8ff" stroke="#63b8ff" points="427.33,-123.93 416.96,-126.12 426.43,-130.87 427.33,-123.93"/>
</a>
</g>
</g>
</g>
</svg>
