<?xml version="1.0" encoding="UTF-8" standalone="no"?>
<!DOCTYPE svg PUBLIC "-//W3C//DTD SVG 1.1//EN"
 "http://www.w3.org/Graphics/SVG/1.1/DTD/svg11.dtd">
<!-- Generated by graphviz version 8.0.3 (20230416.2022)
 -->
<!-- Title: HW&#45;Components/devices/motor/inc/motor_GM6020.hpp Pages: 1 -->
<svg width="260pt" height="203pt"
 viewBox="0.00 0.00 259.50 203.00" xmlns="http://www.w3.org/2000/svg" xmlns:xlink="http://www.w3.org/1999/xlink">
<g id="graph0" class="graph" transform="scale(1 1) rotate(0) translate(4 199)">
<title>HW&#45;Components/devices/motor/inc/motor_GM6020.hpp</title>
<!-- Node1 -->
<g id="Node000001" class="node">
<title>Node1</title>
<g id="a_Node000001"><a xlink:title=": @history : Version Date Author Note V0.9.0 2023&#45;11&#45;25 Caikunzhen 1.">
<polygon fill="#999999" stroke="#666666" points="175.5,-195 26.5,-195 26.5,-165 175.5,-165 175.5,-195"/>
<text text-anchor="start" x="34.5" y="-183" font-family="Helvetica,sans-Serif" font-size="10.00">HW&#45;Components/devices</text>
<text text-anchor="middle" x="101" y="-172" font-family="Helvetica,sans-Serif" font-size="10.00">/motor/inc/motor_GM6020.hpp</text>
</a>
</g>
</g>
<!-- Node2 -->
<g id="Node000002" class="node">
<title>Node2</title>
<g id="a_Node000002"><a xlink:href="motor__base_8hpp.html" target="_top" xlink:title=": @history : Version Date Author Note V0.9.0 2023&#45;11&#45;25 Caikunzhen 1.">
<polygon fill="white" stroke="#666666" points="144,-129 58,-129 58,-110 144,-110 144,-129"/>
<text text-anchor="middle" x="101" y="-117" font-family="Helvetica,sans-Serif" font-size="10.00">motor_base.hpp</text>
</a>
</g>
</g>
<!-- Node1&#45;&gt;Node2 -->
<g id="edge1_Node000001_Node000002" class="edge">
<title>Node1&#45;&gt;Node2</title>
<g id="a_edge1_Node000001_Node000002"><a xlink:title=" ">
<path fill="none" stroke="#63b8ff" d="M101,-164.54C101,-157.17 101,-148.1 101,-140.11"/>
<polygon fill="#63b8ff" stroke="#63b8ff" points="104.5,-140.18 101,-130.18 97.5,-140.18 104.5,-140.18"/>
</a>
</g>
</g>
<!-- Node3 -->
<g id="Node000003" class="node">
<title>Node3</title>
<g id="a_Node000003"><a xlink:title=" ">
<polygon fill="#e0e0e0" stroke="#999999" points="55,-74 15,-74 15,-55 55,-55 55,-74"/>
<text text-anchor="middle" x="35" y="-62" font-family="Helvetica,sans-Serif" font-size="10.00">limits</text>
</a>
</g>
</g>
<!-- Node2&#45;&gt;Node3 -->
<g id="edge2_Node000002_Node000003" class="edge">
<title>Node2&#45;&gt;Node3</title>
<g id="a_edge2_Node000002_Node000003"><a xlink:title=" ">
<path fill="none" stroke="#63b8ff" d="M89.8,-109.51C80.17,-101.77 66.05,-90.43 54.55,-81.2"/>
<polygon fill="#63b8ff" stroke="#63b8ff" points="57.02,-77.89 47.03,-74.36 52.64,-83.35 57.02,-77.89"/>
</a>
</g>
</g>
<!-- Node4 -->
<g id="Node000004" class="node">
<title>Node4</title>
<g id="a_Node000004"><a xlink:href="base_8hpp.html" target="_top" xlink:title=": @history : Version Date Author Note V0.9.0 yyyy&#45;mm&#45;dd &lt;author&gt; 1.">
<polygon fill="white" stroke="#666666" points="129,-74 73,-74 73,-55 129,-55 129,-74"/>
<text text-anchor="middle" x="101" y="-62" font-family="Helvetica,sans-Serif" font-size="10.00">base.hpp</text>
</a>
</g>
</g>
<!-- Node2&#45;&gt;Node4 -->
<g id="edge3_Node000002_Node000004" class="edge">
<title>Node2&#45;&gt;Node4</title>
<g id="a_edge3_Node000002_Node000004"><a xlink:title=" ">
<path fill="none" stroke="#63b8ff" d="M101,-109.75C101,-103.11 101,-93.73 101,-85.31"/>
<polygon fill="#63b8ff" stroke="#63b8ff" points="104.5,-85.44 101,-75.44 97.5,-85.44 104.5,-85.44"/>
</a>
</g>
</g>
<!-- Node8 -->
<g id="Node000008" class="node">
<title>Node8</title>
<g id="a_Node000008"><a xlink:href="system_8hpp.html" target="_top" xlink:title=" ">
<polygon fill="white" stroke="#666666" points="247,-74 179,-74 179,-55 247,-55 247,-74"/>
<text text-anchor="middle" x="213" y="-62" font-family="Helvetica,sans-Serif" font-size="10.00">system.hpp</text>
</a>
</g>
</g>
<!-- Node2&#45;&gt;Node8 -->
<g id="edge7_Node000002_Node000008" class="edge">
<title>Node2&#45;&gt;Node8</title>
<g id="a_edge7_Node000002_Node000008"><a xlink:title=" ">
<path fill="none" stroke="#63b8ff" d="M120,-109.51C137.64,-101.16 164.16,-88.61 184.37,-79.05"/>
<polygon fill="#63b8ff" stroke="#63b8ff" points="185.74,-81.8 193.28,-74.36 182.75,-75.47 185.74,-81.8"/>
</a>
</g>
</g>
<!-- Node5 -->
<g id="Node000005" class="node">
<title>Node5</title>
<g id="a_Node000005"><a xlink:title=" ">
<polygon fill="#e0e0e0" stroke="#999999" points="44,-19 0,-19 0,0 44,0 44,-19"/>
<text text-anchor="middle" x="22" y="-7" font-family="Helvetica,sans-Serif" font-size="10.00">cmath</text>
</a>
</g>
</g>
<!-- Node4&#45;&gt;Node5 -->
<g id="edge4_Node000004_Node000005" class="edge">
<title>Node4&#45;&gt;Node5</title>
<g id="a_edge4_Node000004_Node000005"><a xlink:title=" ">
<path fill="none" stroke="#63b8ff" d="M87.6,-54.51C75.72,-46.54 58.15,-34.75 44.18,-25.38"/>
<polygon fill="#63b8ff" stroke="#63b8ff" points="46.46,-22.02 36.2,-19.36 42.56,-27.84 46.46,-22.02"/>
</a>
</g>
</g>
<!-- Node6 -->
<g id="Node000006" class="node">
<title>Node6</title>
<g id="a_Node000006"><a xlink:title=" ">
<polygon fill="#e0e0e0" stroke="#999999" points="108,-19 62,-19 62,0 108,0 108,-19"/>
<text text-anchor="middle" x="85" y="-7" font-family="Helvetica,sans-Serif" font-size="10.00">cstdint</text>
</a>
</g>
</g>
<!-- Node4&#45;&gt;Node6 -->
<g id="edge5_Node000004_Node000006" class="edge">
<title>Node4&#45;&gt;Node6</title>
<g id="a_edge5_Node000004_Node000006"><a xlink:title=" ">
<path fill="none" stroke="#63b8ff" d="M98.36,-54.75C96.31,-47.96 93.39,-38.3 90.81,-29.73"/>
<polygon fill="#63b8ff" stroke="#63b8ff" points="93.94,-29 87.7,-20.44 87.24,-31.03 93.94,-29"/>
</a>
</g>
</g>
<!-- Node7 -->
<g id="Node000007" class="node">
<title>Node7</title>
<g id="a_Node000007"><a xlink:href="assert_8hpp.html" target="_top" xlink:title=": @history : Version Date Author Note V0.9.0 yyyy&#45;mm&#45;dd &lt;author&gt; 1.">
<polygon fill="white" stroke="#666666" points="188,-19 126,-19 126,0 188,0 188,-19"/>
<text text-anchor="middle" x="157" y="-7" font-family="Helvetica,sans-Serif" font-size="10.00">assert.hpp</text>
</a>
</g>
</g>
<!-- Node4&#45;&gt;Node7 -->
<g id="edge6_Node000004_Node000007" class="edge">
<title>Node4&#45;&gt;Node7</title>
<g id="a_edge6_Node000004_Node000007"><a xlink:title=" ">
<path fill="none" stroke="#63b8ff" d="M110.5,-54.51C118.51,-46.93 130.18,-35.88 139.83,-26.75"/>
<polygon fill="#63b8ff" stroke="#63b8ff" points="141.78,-29.77 146.64,-20.36 136.97,-24.69 141.78,-29.77"/>
</a>
</g>
</g>
<!-- Node9 -->
<g id="Node000009" class="node">
<title>Node9</title>
<g id="a_Node000009"><a xlink:title=" ">
<polygon fill="#e0e0e0" stroke="#999999" points="251.5,-19 206.5,-19 206.5,0 251.5,0 251.5,-19"/>
<text text-anchor="middle" x="229" y="-7" font-family="Helvetica,sans-Serif" font-size="10.00">cstdlib</text>
</a>
</g>
</g>
<!-- Node8&#45;&gt;Node9 -->
<g id="edge8_Node000008_Node000009" class="edge">
<title>Node8&#45;&gt;Node9</title>
<g id="a_edge8_Node000008_Node000009"><a xlink:title=" ">
<path fill="none" stroke="#63b8ff" d="M215.64,-54.75C217.69,-47.96 220.61,-38.3 223.19,-29.73"/>
<polygon fill="#63b8ff" stroke="#63b8ff" points="226.76,-31.03 226.3,-20.44 220.06,-29 226.76,-31.03"/>
</a>
</g>
</g>
</g>
</svg>
