<?xml version="1.0" encoding="UTF-8" standalone="no"?>
<!DOCTYPE svg PUBLIC "-//W3C//DTD SVG 1.1//EN"
 "http://www.w3.org/Graphics/SVG/1.1/DTD/svg11.dtd">
<!-- Generated by graphviz version 8.0.3 (20230416.2022)
 -->
<!-- Title: HW&#45;Components/devices/motor/src/motor.cpp Pages: 1 -->
<svg width="872pt" height="313pt"
 viewBox="0.00 0.00 872.00 313.00" xmlns="http://www.w3.org/2000/svg" xmlns:xlink="http://www.w3.org/1999/xlink">
<g id="graph0" class="graph" transform="scale(1 1) rotate(0) translate(4 309)">
<title>HW&#45;Components/devices/motor/src/motor.cpp</title>
<!-- Node1 -->
<g id="Node000001" class="node">
<title>Node1</title>
<g id="a_Node000001"><a xlink:title=": @history : Version Date Author Note V0.9.0 yyyy&#45;mm&#45;dd &lt;author&gt; 1.">
<polygon fill="#999999" stroke="#666666" points="751,-305 625,-305 625,-275 751,-275 751,-305"/>
<text text-anchor="start" x="633" y="-293" font-family="Helvetica,sans-Serif" font-size="10.00">HW&#45;Components/devices</text>
<text text-anchor="middle" x="688" y="-282" font-family="Helvetica,sans-Serif" font-size="10.00">/motor/src/motor.cpp</text>
</a>
</g>
</g>
<!-- Node2 -->
<g id="Node000002" class="node">
<title>Node2</title>
<g id="a_Node000002"><a xlink:href="motor_8hpp.html" target="_top" xlink:title=": @history : Version Date Author Note V0.9.0 2023&#45;11&#45;25 Caikunzhen 1.">
<polygon fill="white" stroke="#666666" points="545,-239 485,-239 485,-220 545,-220 545,-239"/>
<text text-anchor="middle" x="515" y="-227" font-family="Helvetica,sans-Serif" font-size="10.00">motor.hpp</text>
</a>
</g>
</g>
<!-- Node1&#45;&gt;Node2 -->
<g id="edge1_Node000001_Node000002" class="edge">
<title>Node1&#45;&gt;Node2</title>
<g id="a_edge1_Node000001_Node000002"><a xlink:title=" ">
<path fill="none" stroke="#63b8ff" d="M645.24,-274.54C616.53,-264.83 579.1,-252.17 551.73,-242.92"/>
<polygon fill="#63b8ff" stroke="#63b8ff" points="553.01,-239.32 542.41,-239.43 550.77,-245.95 553.01,-239.32"/>
</a>
</g>
</g>
<!-- Node9 -->
<g id="Node000009" class="node">
<title>Node9</title>
<g id="a_Node000009"><a xlink:href="assert_8hpp.html" target="_top" xlink:title=": @history : Version Date Author Note V0.9.0 yyyy&#45;mm&#45;dd &lt;author&gt; 1.">
<polygon fill="white" stroke="#666666" points="864,-19 802,-19 802,0 864,0 864,-19"/>
<text text-anchor="middle" x="833" y="-7" font-family="Helvetica,sans-Serif" font-size="10.00">assert.hpp</text>
</a>
</g>
</g>
<!-- Node1&#45;&gt;Node9 -->
<g id="edge24_Node000001_Node000009" class="edge">
<title>Node1&#45;&gt;Node9</title>
<g id="a_edge24_Node000001_Node000009"><a xlink:title=" ">
<path fill="none" stroke="#63b8ff" d="M751.44,-274.76C800.81,-259.48 861,-229.74 861,-175.5 861,-175.5 861,-175.5 861,-118.5 861,-86.32 849.21,-50.42 840.93,-29.18"/>
<polygon fill="#63b8ff" stroke="#63b8ff" points="843.9,-28.21 836.89,-20.26 837.42,-30.84 843.9,-28.21"/>
</a>
</g>
</g>
<!-- Node3 -->
<g id="Node000003" class="node">
<title>Node3</title>
<g id="a_Node000003"><a xlink:href="motor___a1_8hpp.html" target="_top" xlink:title=": @history : Version Date Author Note V0.9.0 2023&#45;11&#45;25 Caikunzhen 1.">
<polygon fill="white" stroke="#666666" points="703.5,-184 626.5,-184 626.5,-165 703.5,-165 703.5,-184"/>
<text text-anchor="middle" x="665" y="-172" font-family="Helvetica,sans-Serif" font-size="10.00">motor_A1.hpp</text>
</a>
</g>
</g>
<!-- Node2&#45;&gt;Node3 -->
<g id="edge2_Node000002_Node000003" class="edge">
<title>Node2&#45;&gt;Node3</title>
<g id="a_edge2_Node000002_Node000003"><a xlink:title=" ">
<path fill="none" stroke="#63b8ff" d="M540.45,-219.51C564.87,-210.88 601.99,-197.76 629.35,-188.1"/>
<polygon fill="#63b8ff" stroke="#63b8ff" points="630.42,-191.08 638.68,-184.45 628.09,-184.48 630.42,-191.08"/>
</a>
</g>
</g>
<!-- Node4 -->
<g id="Node000004" class="node">
<title>Node4</title>
<g id="a_Node000004"><a xlink:href="motor__base_8hpp.html" target="_top" xlink:title=": @history : Version Date Author Note V0.9.0 2023&#45;11&#45;25 Caikunzhen 1.">
<polygon fill="white" stroke="#666666" points="558,-129 472,-129 472,-110 558,-110 558,-129"/>
<text text-anchor="middle" x="515" y="-117" font-family="Helvetica,sans-Serif" font-size="10.00">motor_base.hpp</text>
</a>
</g>
</g>
<!-- Node2&#45;&gt;Node4 -->
<g id="edge23_Node000002_Node000004" class="edge">
<title>Node2&#45;&gt;Node4</title>
<g id="a_edge23_Node000002_Node000004"><a xlink:title=" ">
<path fill="none" stroke="#63b8ff" d="M537.43,-219.56C552.17,-212.36 570.29,-200.67 579,-184 589.63,-163.67 567.11,-145.81 545.92,-134.25"/>
<polygon fill="#63b8ff" stroke="#63b8ff" points="547.9,-130.82 537.4,-129.39 544.72,-137.05 547.9,-130.82"/>
</a>
</g>
</g>
<!-- Node12 -->
<g id="Node000012" class="node">
<title>Node12</title>
<g id="a_Node000012"><a xlink:href="motor___d_m___j4310_8hpp.html" target="_top" xlink:title=": @history : Version Date Author Note V0.9.0 2023&#45;11&#45;25 Caikunzhen 1.">
<polygon fill="white" stroke="#666666" points="832.5,-184 721.5,-184 721.5,-165 832.5,-165 832.5,-184"/>
<text text-anchor="middle" x="777" y="-172" font-family="Helvetica,sans-Serif" font-size="10.00">motor_DM_J4310.hpp</text>
</a>
</g>
</g>
<!-- Node2&#45;&gt;Node12 -->
<g id="edge11_Node000002_Node000012" class="edge">
<title>Node2&#45;&gt;Node12</title>
<g id="a_edge11_Node000002_Node000012"><a xlink:title=" ">
<path fill="none" stroke="#63b8ff" d="M545.31,-222.37C588.41,-213.65 668.12,-197.53 721.85,-186.66"/>
<polygon fill="#63b8ff" stroke="#63b8ff" points="722.46,-189.9 731.57,-184.49 721.07,-183.04 722.46,-189.9"/>
</a>
</g>
</g>
<!-- Node13 -->
<g id="Node000013" class="node">
<title>Node13</title>
<g id="a_Node000013"><a xlink:href="motor___g_m6020_8hpp.html" target="_top" xlink:title=": @history : Version Date Author Note V0.9.0 2023&#45;11&#45;25 Caikunzhen 1.">
<polygon fill="white" stroke="#666666" points="102,-184 0,-184 0,-165 102,-165 102,-184"/>
<text text-anchor="middle" x="51" y="-172" font-family="Helvetica,sans-Serif" font-size="10.00">motor_GM6020.hpp</text>
</a>
</g>
</g>
<!-- Node2&#45;&gt;Node13 -->
<g id="edge13_Node000002_Node000013" class="edge">
<title>Node2&#45;&gt;Node13</title>
<g id="a_edge13_Node000002_Node000013"><a xlink:title=" ">
<path fill="none" stroke="#63b8ff" d="M484.55,-225.47C418.81,-218.86 258.41,-202.37 113.24,-184.25"/>
<polygon fill="#63b8ff" stroke="#63b8ff" points="113.73,-180.66 103.37,-182.88 112.86,-187.6 113.73,-180.66"/>
</a>
</g>
</g>
<!-- Node14 -->
<g id="Node000014" class="node">
<title>Node14</title>
<g id="a_Node000014"><a xlink:href="motor___m2006_8hpp.html" target="_top" xlink:title=": @history : Version Date Author Note V0.9.0 2023&#45;11&#45;25 Caikunzhen 1.">
<polygon fill="white" stroke="#666666" points="215.5,-184 120.5,-184 120.5,-165 215.5,-165 215.5,-184"/>
<text text-anchor="middle" x="168" y="-172" font-family="Helvetica,sans-Serif" font-size="10.00">motor_M2006.hpp</text>
</a>
</g>
</g>
<!-- Node2&#45;&gt;Node14 -->
<g id="edge15_Node000002_Node000014" class="edge">
<title>Node2&#45;&gt;Node14</title>
<g id="a_edge15_Node000002_Node000014"><a xlink:title=" ">
<path fill="none" stroke="#63b8ff" d="M484.51,-223.84C426.82,-215.03 300.81,-195.79 226.36,-184.41"/>
<polygon fill="#63b8ff" stroke="#63b8ff" points="227.18,-180.85 216.77,-182.8 226.12,-187.77 227.18,-180.85"/>
</a>
</g>
</g>
<!-- Node15 -->
<g id="Node000015" class="node">
<title>Node15</title>
<g id="a_Node000015"><a xlink:href="motor___m3508_8hpp.html" target="_top" xlink:title=": @history : Version Date Author Note V0.9.0 2023&#45;11&#45;25 Caikunzhen 1.">
<polygon fill="white" stroke="#666666" points="328.5,-184 233.5,-184 233.5,-165 328.5,-165 328.5,-184"/>
<text text-anchor="middle" x="281" y="-172" font-family="Helvetica,sans-Serif" font-size="10.00">motor_M3508.hpp</text>
</a>
</g>
</g>
<!-- Node2&#45;&gt;Node15 -->
<g id="edge17_Node000002_Node000015" class="edge">
<title>Node2&#45;&gt;Node15</title>
<g id="a_edge17_Node000002_Node000015"><a xlink:title=" ">
<path fill="none" stroke="#63b8ff" d="M484.89,-221.68C445.95,-212.86 377.61,-197.38 330.87,-186.79"/>
<polygon fill="#63b8ff" stroke="#63b8ff" points="331.89,-183.21 321.36,-184.41 330.34,-190.04 331.89,-183.21"/>
</a>
</g>
</g>
<!-- Node16 -->
<g id="Node000016" class="node">
<title>Node16</title>
<g id="a_Node000016"><a xlink:href="motor___m8910_8hpp.html" target="_top" xlink:title=": @history : Version Date Author Note V0.9.0 2023&#45;11&#45;25 Caikunzhen 1.">
<polygon fill="white" stroke="#666666" points="441.5,-184 346.5,-184 346.5,-165 441.5,-165 441.5,-184"/>
<text text-anchor="middle" x="394" y="-172" font-family="Helvetica,sans-Serif" font-size="10.00">motor_M8910.hpp</text>
</a>
</g>
</g>
<!-- Node2&#45;&gt;Node16 -->
<g id="edge19_Node000002_Node000016" class="edge">
<title>Node2&#45;&gt;Node16</title>
<g id="a_edge19_Node000002_Node000016"><a xlink:title=" ">
<path fill="none" stroke="#63b8ff" d="M494.47,-219.51C475.15,-211.04 445.98,-198.27 424.03,-188.66"/>
<polygon fill="#63b8ff" stroke="#63b8ff" points="425.79,-185.16 415.22,-184.36 422.98,-191.58 425.79,-185.16"/>
</a>
</g>
</g>
<!-- Node17 -->
<g id="Node000017" class="node">
<title>Node17</title>
<g id="a_Node000017"><a xlink:href="motor___m_f9025v2_8hpp.html" target="_top" xlink:title=": @history : Version Date Author Note V0.9.0 2023&#45;11&#45;25 Caikunzhen 1.">
<polygon fill="white" stroke="#666666" points="570,-184 460,-184 460,-165 570,-165 570,-184"/>
<text text-anchor="middle" x="515" y="-172" font-family="Helvetica,sans-Serif" font-size="10.00">motor_MF9025v2.hpp</text>
</a>
</g>
</g>
<!-- Node2&#45;&gt;Node17 -->
<g id="edge21_Node000002_Node000017" class="edge">
<title>Node2&#45;&gt;Node17</title>
<g id="a_edge21_Node000002_Node000017"><a xlink:title=" ">
<path fill="none" stroke="#63b8ff" d="M515,-219.75C515,-213.11 515,-203.73 515,-195.31"/>
<polygon fill="#63b8ff" stroke="#63b8ff" points="518.5,-195.44 515,-185.44 511.5,-195.44 518.5,-195.44"/>
</a>
</g>
</g>
<!-- Node3&#45;&gt;Node4 -->
<g id="edge3_Node000003_Node000004" class="edge">
<title>Node3&#45;&gt;Node4</title>
<g id="a_edge3_Node000003_Node000004"><a xlink:title=" ">
<path fill="none" stroke="#63b8ff" d="M639.55,-164.51C615.13,-155.88 578.01,-142.76 550.65,-133.1"/>
<polygon fill="#63b8ff" stroke="#63b8ff" points="551.91,-129.48 541.32,-129.45 549.58,-136.08 551.91,-129.48"/>
</a>
</g>
</g>
<!-- Node5 -->
<g id="Node000005" class="node">
<title>Node5</title>
<g id="a_Node000005"><a xlink:title=" ">
<polygon fill="#e0e0e0" stroke="#999999" points="499,-74 459,-74 459,-55 499,-55 499,-74"/>
<text text-anchor="middle" x="479" y="-62" font-family="Helvetica,sans-Serif" font-size="10.00">limits</text>
</a>
</g>
</g>
<!-- Node4&#45;&gt;Node5 -->
<g id="edge4_Node000004_Node000005" class="edge">
<title>Node4&#45;&gt;Node5</title>
<g id="a_edge4_Node000004_Node000005"><a xlink:title=" ">
<path fill="none" stroke="#63b8ff" d="M509.06,-109.75C504.19,-102.58 497.14,-92.2 491.09,-83.3"/>
<polygon fill="#63b8ff" stroke="#63b8ff" points="493.59,-81.75 485.07,-75.44 487.8,-85.68 493.59,-81.75"/>
</a>
</g>
</g>
<!-- Node6 -->
<g id="Node000006" class="node">
<title>Node6</title>
<g id="a_Node000006"><a xlink:href="base_8hpp.html" target="_top" xlink:title=": @history : Version Date Author Note V0.9.0 yyyy&#45;mm&#45;dd &lt;author&gt; 1.">
<polygon fill="white" stroke="#666666" points="702,-74 646,-74 646,-55 702,-55 702,-74"/>
<text text-anchor="middle" x="674" y="-62" font-family="Helvetica,sans-Serif" font-size="10.00">base.hpp</text>
</a>
</g>
</g>
<!-- Node4&#45;&gt;Node6 -->
<g id="edge5_Node000004_Node000006" class="edge">
<title>Node4&#45;&gt;Node6</title>
<g id="a_edge5_Node000004_Node000006"><a xlink:title=" ">
<path fill="none" stroke="#63b8ff" d="M541.97,-109.51C568.09,-100.8 607.9,-87.53 636.98,-77.84"/>
<polygon fill="#63b8ff" stroke="#63b8ff" points="637.78,-80.93 646.16,-74.45 635.57,-74.29 637.78,-80.93"/>
</a>
</g>
</g>
<!-- Node10 -->
<g id="Node000010" class="node">
<title>Node10</title>
<g id="a_Node000010"><a xlink:href="system_8hpp.html" target="_top" xlink:title=" ">
<polygon fill="white" stroke="#666666" points="585,-74 517,-74 517,-55 585,-55 585,-74"/>
<text text-anchor="middle" x="551" y="-62" font-family="Helvetica,sans-Serif" font-size="10.00">system.hpp</text>
</a>
</g>
</g>
<!-- Node4&#45;&gt;Node10 -->
<g id="edge9_Node000004_Node000010" class="edge">
<title>Node4&#45;&gt;Node10</title>
<g id="a_edge9_Node000004_Node000010"><a xlink:title=" ">
<path fill="none" stroke="#63b8ff" d="M520.94,-109.75C525.81,-102.58 532.86,-92.2 538.91,-83.3"/>
<polygon fill="#63b8ff" stroke="#63b8ff" points="542.2,-85.68 544.93,-75.44 536.41,-81.75 542.2,-85.68"/>
</a>
</g>
</g>
<!-- Node7 -->
<g id="Node000007" class="node">
<title>Node7</title>
<g id="a_Node000007"><a xlink:title=" ">
<polygon fill="#e0e0e0" stroke="#999999" points="664,-19 620,-19 620,0 664,0 664,-19"/>
<text text-anchor="middle" x="642" y="-7" font-family="Helvetica,sans-Serif" font-size="10.00">cmath</text>
</a>
</g>
</g>
<!-- Node6&#45;&gt;Node7 -->
<g id="edge6_Node000006_Node000007" class="edge">
<title>Node6&#45;&gt;Node7</title>
<g id="a_edge6_Node000006_Node000007"><a xlink:title=" ">
<path fill="none" stroke="#63b8ff" d="M668.72,-54.75C664.43,-47.66 658.26,-37.42 652.92,-28.59"/>
<polygon fill="#63b8ff" stroke="#63b8ff" points="655.56,-27.19 647.4,-20.44 649.57,-30.81 655.56,-27.19"/>
</a>
</g>
</g>
<!-- Node8 -->
<g id="Node000008" class="node">
<title>Node8</title>
<g id="a_Node000008"><a xlink:title=" ">
<polygon fill="#e0e0e0" stroke="#999999" points="728,-19 682,-19 682,0 728,0 728,-19"/>
<text text-anchor="middle" x="705" y="-7" font-family="Helvetica,sans-Serif" font-size="10.00">cstdint</text>
</a>
</g>
</g>
<!-- Node6&#45;&gt;Node8 -->
<g id="edge7_Node000006_Node000008" class="edge">
<title>Node6&#45;&gt;Node8</title>
<g id="a_edge7_Node000006_Node000008"><a xlink:title=" ">
<path fill="none" stroke="#63b8ff" d="M679.12,-54.75C683.22,-47.73 689.12,-37.64 694.25,-28.87"/>
<polygon fill="#63b8ff" stroke="#63b8ff" points="697.74,-30.84 699.77,-20.44 691.7,-27.31 697.74,-30.84"/>
</a>
</g>
</g>
<!-- Node6&#45;&gt;Node9 -->
<g id="edge8_Node000006_Node000009" class="edge">
<title>Node6&#45;&gt;Node9</title>
<g id="a_edge8_Node000006_Node000009"><a xlink:title=" ">
<path fill="none" stroke="#63b8ff" d="M700.97,-54.51C727.09,-45.8 766.9,-32.53 795.98,-22.84"/>
<polygon fill="#63b8ff" stroke="#63b8ff" points="796.78,-25.93 805.16,-19.45 794.57,-19.29 796.78,-25.93"/>
</a>
</g>
</g>
<!-- Node11 -->
<g id="Node000011" class="node">
<title>Node11</title>
<g id="a_Node000011"><a xlink:title=" ">
<polygon fill="#e0e0e0" stroke="#999999" points="573.5,-19 528.5,-19 528.5,0 573.5,0 573.5,-19"/>
<text text-anchor="middle" x="551" y="-7" font-family="Helvetica,sans-Serif" font-size="10.00">cstdlib</text>
</a>
</g>
</g>
<!-- Node10&#45;&gt;Node11 -->
<g id="edge10_Node000010_Node000011" class="edge">
<title>Node10&#45;&gt;Node11</title>
<g id="a_edge10_Node000010_Node000011"><a xlink:title=" ">
<path fill="none" stroke="#63b8ff" d="M551,-54.75C551,-48.11 551,-38.73 551,-30.31"/>
<polygon fill="#63b8ff" stroke="#63b8ff" points="554.5,-30.44 551,-20.44 547.5,-30.44 554.5,-30.44"/>
</a>
</g>
</g>
<!-- Node12&#45;&gt;Node4 -->
<g id="edge12_Node000012_Node000004" class="edge">
<title>Node12&#45;&gt;Node4</title>
<g id="a_edge12_Node000012_Node000004"><a xlink:title=" ">
<path fill="none" stroke="#63b8ff" d="M732.56,-164.51C687.36,-155.37 617.28,-141.19 568.93,-131.41"/>
<polygon fill="#63b8ff" stroke="#63b8ff" points="569.85,-127.82 559.35,-129.27 568.46,-134.68 569.85,-127.82"/>
</a>
</g>
</g>
<!-- Node13&#45;&gt;Node4 -->
<g id="edge14_Node000013_Node000004" class="edge">
<title>Node13&#45;&gt;Node4</title>
<g id="a_edge14_Node000013_Node000004"><a xlink:title=" ">
<path fill="none" stroke="#63b8ff" d="M102.37,-166.12C105.29,-165.73 108.18,-165.35 111,-165 235.95,-149.27 383.04,-133.85 460.66,-125.94"/>
<polygon fill="#63b8ff" stroke="#63b8ff" points="461.01,-129.33 470.6,-124.83 460.3,-122.36 461.01,-129.33"/>
</a>
</g>
</g>
<!-- Node14&#45;&gt;Node4 -->
<g id="edge16_Node000014_Node000004" class="edge">
<title>Node14&#45;&gt;Node4</title>
<g id="a_edge16_Node000014_Node000004"><a xlink:title=" ">
<path fill="none" stroke="#63b8ff" d="M215.88,-166.19C280.08,-156.38 393.72,-139.02 460.93,-128.76"/>
<polygon fill="#63b8ff" stroke="#63b8ff" points="461.35,-132.08 470.7,-127.11 460.29,-125.16 461.35,-132.08"/>
</a>
</g>
</g>
<!-- Node15&#45;&gt;Node4 -->
<g id="edge18_Node000015_Node000004" class="edge">
<title>Node15&#45;&gt;Node4</title>
<g id="a_edge18_Node000015_Node000004"><a xlink:title=" ">
<path fill="none" stroke="#63b8ff" d="M320.69,-164.51C360.48,-155.5 421.86,-141.6 464.96,-131.83"/>
<polygon fill="#63b8ff" stroke="#63b8ff" points="465.52,-135.07 474.5,-129.45 463.98,-128.24 465.52,-135.07"/>
</a>
</g>
</g>
<!-- Node16&#45;&gt;Node4 -->
<g id="edge20_Node000016_Node000004" class="edge">
<title>Node16&#45;&gt;Node4</title>
<g id="a_edge20_Node000016_Node000004"><a xlink:title=" ">
<path fill="none" stroke="#63b8ff" d="M414.53,-164.51C433.85,-156.04 463.02,-143.27 484.97,-133.66"/>
<polygon fill="#63b8ff" stroke="#63b8ff" points="486.02,-136.58 493.78,-129.36 483.21,-130.16 486.02,-136.58"/>
</a>
</g>
</g>
<!-- Node17&#45;&gt;Node4 -->
<g id="edge22_Node000017_Node000004" class="edge">
<title>Node17&#45;&gt;Node4</title>
<g id="a_edge22_Node000017_Node000004"><a xlink:title=" ">
<path fill="none" stroke="#63b8ff" d="M515,-164.75C515,-158.11 515,-148.73 515,-140.31"/>
<polygon fill="#63b8ff" stroke="#63b8ff" points="518.5,-140.44 515,-130.44 511.5,-140.44 518.5,-140.44"/>
</a>
</g>
</g>
</g>
</svg>
