<?xml version="1.0" encoding="UTF-8" standalone="no"?>
<!DOCTYPE svg PUBLIC "-//W3C//DTD SVG 1.1//EN"
 "http://www.w3.org/Graphics/SVG/1.1/DTD/svg11.dtd">
<!-- Generated by graphviz version 8.0.3 (20230416.2022)
 -->
<!-- Title: HW&#45;Components/devices/motor/inc/motor_M8910.hpp Pages: 1 -->
<svg width="294pt" height="170pt"
 viewBox="0.00 0.00 294.00 170.00" xmlns="http://www.w3.org/2000/svg" xmlns:xlink="http://www.w3.org/1999/xlink">
<g id="graph0" class="graph" transform="scale(1 1) rotate(0) translate(4 166)">
<title>HW&#45;Components/devices/motor/inc/motor_M8910.hpp</title>
<!-- Node1 -->
<g id="Node000001" class="node">
<title>Node1</title>
<g id="a_Node000001"><a xlink:title=": @history : Version Date Author Note V0.9.0 2023&#45;11&#45;25 Caikunzhen 1.">
<polygon fill="#999999" stroke="#666666" points="209.5,-162 68.5,-162 68.5,-132 209.5,-132 209.5,-162"/>
<text text-anchor="start" x="76.5" y="-150" font-family="Helvetica,sans-Serif" font-size="10.00">HW&#45;Components/devices</text>
<text text-anchor="middle" x="139" y="-139" font-family="Helvetica,sans-Serif" font-size="10.00">/motor/inc/motor_M8910.hpp</text>
</a>
</g>
</g>
<!-- Node2 -->
<g id="Node000002" class="node">
<title>Node2</title>
<g id="a_Node000002"><a xlink:href="motor_8hpp.html" target="_top" xlink:title=": @history : Version Date Author Note V0.9.0 2023&#45;11&#45;25 Caikunzhen 1.">
<polygon fill="white" stroke="#666666" points="126,-96 0,-96 0,-66 126,-66 126,-96"/>
<text text-anchor="start" x="8" y="-84" font-family="Helvetica,sans-Serif" font-size="10.00">HW&#45;Components/devices</text>
<text text-anchor="middle" x="63" y="-73" font-family="Helvetica,sans-Serif" font-size="10.00">/motor/inc/motor.hpp</text>
</a>
</g>
</g>
<!-- Node1&#45;&gt;Node2 -->
<g id="edge1_Node000001_Node000002" class="edge">
<title>Node1&#45;&gt;Node2</title>
<g id="a_edge1_Node000001_Node000002"><a xlink:title=" ">
<path fill="none" stroke="#63b8ff" d="M114.03,-124.97C102.91,-115.61 90.09,-104.81 80.08,-96.39"/>
<polygon fill="#63b8ff" stroke="#63b8ff" points="111.23,-128.03 121.13,-131.8 115.74,-122.68 111.23,-128.03"/>
</a>
</g>
</g>
<!-- Node4 -->
<g id="Node000004" class="node">
<title>Node4</title>
<g id="a_Node000004"><a xlink:href="motor___m8910_8cpp.html" target="_top" xlink:title=": @history : Version Date Author Note V0.9.0 2023&#45;11&#45;25 Caikunzhen 1.">
<polygon fill="white" stroke="#666666" points="286,-96 144,-96 144,-66 286,-66 286,-96"/>
<text text-anchor="start" x="152" y="-84" font-family="Helvetica,sans-Serif" font-size="10.00">HW&#45;Components/devices</text>
<text text-anchor="middle" x="215" y="-73" font-family="Helvetica,sans-Serif" font-size="10.00">/motor/src/motor_M8910.cpp</text>
</a>
</g>
</g>
<!-- Node1&#45;&gt;Node4 -->
<g id="edge3_Node000001_Node000004" class="edge">
<title>Node1&#45;&gt;Node4</title>
<g id="a_edge3_Node000001_Node000004"><a xlink:title=" ">
<path fill="none" stroke="#63b8ff" d="M163.97,-124.97C175.09,-115.61 187.91,-104.81 197.92,-96.39"/>
<polygon fill="#63b8ff" stroke="#63b8ff" points="162.26,-122.68 156.87,-131.8 166.77,-128.03 162.26,-122.68"/>
</a>
</g>
</g>
<!-- Node3 -->
<g id="Node000003" class="node">
<title>Node3</title>
<g id="a_Node000003"><a xlink:href="motor_8cpp.html" target="_top" xlink:title=": @history : Version Date Author Note V0.9.0 yyyy&#45;mm&#45;dd &lt;author&gt; 1.">
<polygon fill="white" stroke="#666666" points="126,-30 0,-30 0,0 126,0 126,-30"/>
<text text-anchor="start" x="8" y="-18" font-family="Helvetica,sans-Serif" font-size="10.00">HW&#45;Components/devices</text>
<text text-anchor="middle" x="63" y="-7" font-family="Helvetica,sans-Serif" font-size="10.00">/motor/src/motor.cpp</text>
</a>
</g>
</g>
<!-- Node2&#45;&gt;Node3 -->
<g id="edge2_Node000002_Node000003" class="edge">
<title>Node2&#45;&gt;Node3</title>
<g id="a_edge2_Node000002_Node000003"><a xlink:title=" ">
<path fill="none" stroke="#63b8ff" d="M63,-54.97C63,-46.55 63,-37.45 63,-30.16"/>
<polygon fill="#63b8ff" stroke="#63b8ff" points="59.5,-54.8 63,-64.8 66.5,-54.8 59.5,-54.8"/>
</a>
</g>
</g>
</g>
</svg>
