<?xml version="1.0" encoding="UTF-8" standalone="no"?>
<!DOCTYPE svg PUBLIC "-//W3C//DTD SVG 1.1//EN"
 "http://www.w3.org/Graphics/SVG/1.1/DTD/svg11.dtd">
<!-- Generated by graphviz version 8.0.3 (20230416.2022)
 -->
<!-- Title: hello_world::devices::imu::DelayUs Pages: 1 -->
<svg width="574pt" height="193pt"
 viewBox="0.00 0.00 574.00 192.59" xmlns="http://www.w3.org/2000/svg" xmlns:xlink="http://www.w3.org/1999/xlink">
<g id="graph0" class="graph" transform="scale(1 1) rotate(0) translate(4 188.59)">
<title>hello_world::devices::imu::DelayUs</title>
<!-- Node1 -->
<g id="Node000001" class="node">
<title>Node1</title>
<g id="a_Node000001"><a xlink:title="微秒级延时">
<polygon fill="#999999" stroke="#666666" points="566,-116 463,-116 463,-86 566,-86 566,-116"/>
<text text-anchor="start" x="471" y="-104" font-family="Helvetica,sans-Serif" font-size="10.00">hello_world::devices</text>
<text text-anchor="middle" x="514.5" y="-93" font-family="Helvetica,sans-Serif" font-size="10.00">::imu::DelayUs</text>
</a>
</g>
</g>
<!-- Node2 -->
<g id="Node000002" class="node">
<title>Node2</title>
<g id="a_Node000002"><a xlink:href="classhello__world_1_1devices_1_1imu_1_1_b_m_i088.html#af18363d9dd6de94e4961ce1772923483" target="_top" xlink:title="加速度计配置">
<polygon fill="white" stroke="#666666" points="252.5,-164 140.5,-164 140.5,-134 252.5,-134 252.5,-164"/>
<text text-anchor="start" x="148.5" y="-152" font-family="Helvetica,sans-Serif" font-size="10.00">hello_world::devices</text>
<text text-anchor="middle" x="196.5" y="-141" font-family="Helvetica,sans-Serif" font-size="10.00">::imu::BMI088::accInit</text>
</a>
</g>
</g>
<!-- Node1&#45;&gt;Node2 -->
<g id="edge1_Node000001_Node000002" class="edge">
<title>Node1&#45;&gt;Node2</title>
<g id="a_edge1_Node000001_Node000002"><a xlink:title=" ">
<path fill="none" stroke="#63b8ff" d="M493.92,-124.35C477.93,-141.47 453.69,-163.35 427,-173 364.84,-195.48 287.47,-179.02 240.32,-164.47"/>
<polygon fill="#63b8ff" stroke="#63b8ff" points="495.99,-127.18 500.08,-117.4 490.79,-122.49 495.99,-127.18"/>
</a>
</g>
</g>
<!-- Node4 -->
<g id="Node000004" class="node">
<title>Node4</title>
<g id="a_Node000004"><a xlink:href="classhello__world_1_1devices_1_1imu_1_1_b_m_i088.html#a7bc81c0ed908d469d3c0bde126a80311" target="_top" xlink:title="加速度计自检测">
<polygon fill="white" stroke="#666666" points="425.5,-164 291.5,-164 291.5,-134 425.5,-134 425.5,-164"/>
<text text-anchor="start" x="299.5" y="-152" font-family="Helvetica,sans-Serif" font-size="10.00">hello_world::devices</text>
<text text-anchor="middle" x="358.5" y="-141" font-family="Helvetica,sans-Serif" font-size="10.00">::imu::BMI088::accSelfTest</text>
</a>
</g>
</g>
<!-- Node1&#45;&gt;Node4 -->
<g id="edge3_Node000001_Node000004" class="edge">
<title>Node1&#45;&gt;Node4</title>
<g id="a_edge3_Node000001_Node000004"><a xlink:title=" ">
<path fill="none" stroke="#63b8ff" d="M453.83,-119.6C439,-124.22 423.26,-129.13 408.98,-133.58"/>
<polygon fill="#63b8ff" stroke="#63b8ff" points="454.42,-122.77 462.93,-116.45 452.34,-116.09 454.42,-122.77"/>
</a>
</g>
</g>
<!-- Node5 -->
<g id="Node000005" class="node">
<title>Node5</title>
<g id="a_Node000005"><a xlink:href="classhello__world_1_1devices_1_1imu_1_1_b_m_i088.html#aa4b8ef9d615c0ead67e6b88c34bd84d1" target="_top" xlink:title="获取传感器数据">
<polygon fill="white" stroke="#666666" points="417,-116 300,-116 300,-86 417,-86 417,-116"/>
<text text-anchor="start" x="308" y="-104" font-family="Helvetica,sans-Serif" font-size="10.00">hello_world::devices</text>
<text text-anchor="middle" x="358.5" y="-93" font-family="Helvetica,sans-Serif" font-size="10.00">::imu::BMI088::getData</text>
</a>
</g>
</g>
<!-- Node1&#45;&gt;Node5 -->
<g id="edge5_Node000001_Node000005" class="edge">
<title>Node1&#45;&gt;Node5</title>
<g id="a_edge5_Node000001_Node000005"><a xlink:title=" ">
<path fill="none" stroke="#63b8ff" d="M451.93,-101C440.57,-101 428.75,-101 417.5,-101"/>
<polygon fill="#63b8ff" stroke="#63b8ff" points="451.65,-104.5 461.65,-101 451.65,-97.5 451.65,-104.5"/>
</a>
</g>
</g>
<!-- Node6 -->
<g id="Node000006" class="node">
<title>Node6</title>
<g id="a_Node000006"><a xlink:href="classhello__world_1_1devices_1_1imu_1_1_b_m_i088.html#a88754aa2ebac6fcdfde4c5ce4de33dd6" target="_top" xlink:title="陀螺仪配置">
<polygon fill="white" stroke="#666666" points="254,-73 139,-73 139,-43 254,-43 254,-73"/>
<text text-anchor="start" x="147" y="-61" font-family="Helvetica,sans-Serif" font-size="10.00">hello_world::devices</text>
<text text-anchor="middle" x="196.5" y="-50" font-family="Helvetica,sans-Serif" font-size="10.00">::imu::BMI088::gyroInit</text>
</a>
</g>
</g>
<!-- Node1&#45;&gt;Node6 -->
<g id="edge6_Node000001_Node000006" class="edge">
<title>Node1&#45;&gt;Node6</title>
<g id="a_edge6_Node000001_Node000006"><a xlink:title=" ">
<path fill="none" stroke="#63b8ff" d="M453.42,-82.77C444.62,-80.56 435.62,-78.54 427,-77 368.75,-66.6 301.15,-61.88 254.47,-59.74"/>
<polygon fill="#63b8ff" stroke="#63b8ff" points="452.45,-86.4 463.01,-85.55 454.23,-79.63 452.45,-86.4"/>
</a>
</g>
</g>
<!-- Node7 -->
<g id="Node000007" class="node">
<title>Node7</title>
<g id="a_Node000007"><a xlink:href="classhello__world_1_1devices_1_1imu_1_1_b_m_i088.html#ac8c0c2e64b56c3feb6888446b4830be3" target="_top" xlink:title="陀螺仪自检测">
<polygon fill="white" stroke="#666666" points="427,-30 290,-30 290,0 427,0 427,-30"/>
<text text-anchor="start" x="298" y="-18" font-family="Helvetica,sans-Serif" font-size="10.00">hello_world::devices</text>
<text text-anchor="middle" x="358.5" y="-7" font-family="Helvetica,sans-Serif" font-size="10.00">::imu::BMI088::gyroSelfTest</text>
</a>
</g>
</g>
<!-- Node1&#45;&gt;Node7 -->
<g id="edge8_Node000001_Node000007" class="edge">
<title>Node1&#45;&gt;Node7</title>
<g id="a_edge8_Node000001_Node000007"><a xlink:title=" ">
<path fill="none" stroke="#63b8ff" d="M483.89,-79.61C467.55,-68.29 446.64,-54.58 427,-44 418.02,-39.16 408.06,-34.51 398.61,-30.41"/>
<polygon fill="#63b8ff" stroke="#63b8ff" points="481.27,-82.75 491.47,-85.62 485.29,-77.01 481.27,-82.75"/>
</a>
</g>
</g>
<!-- Node3 -->
<g id="Node000003" class="node">
<title>Node3</title>
<g id="a_Node000003"><a xlink:href="classhello__world_1_1devices_1_1imu_1_1_b_m_i088.html#a623a7d90db0585ea45bac12fd3d19061" target="_top" xlink:title="进行 BMI088 芯片配置">
<polygon fill="white" stroke="#666666" points="103,-118 0,-118 0,-88 103,-88 103,-118"/>
<text text-anchor="start" x="8" y="-106" font-family="Helvetica,sans-Serif" font-size="10.00">hello_world::devices</text>
<text text-anchor="middle" x="51.5" y="-95" font-family="Helvetica,sans-Serif" font-size="10.00">::imu::BMI088::init</text>
</a>
</g>
</g>
<!-- Node2&#45;&gt;Node3 -->
<g id="edge2_Node000002_Node000003" class="edge">
<title>Node2&#45;&gt;Node3</title>
<g id="a_edge2_Node000002_Node000003"><a xlink:title=" ">
<path fill="none" stroke="#63b8ff" d="M137.02,-130.19C124.92,-126.3 112.31,-122.24 100.63,-118.48"/>
<polygon fill="#63b8ff" stroke="#63b8ff" points="135.89,-133.82 146.49,-133.55 138.04,-127.16 135.89,-133.82"/>
</a>
</g>
</g>
<!-- Node4&#45;&gt;Node2 -->
<g id="edge4_Node000004_Node000002" class="edge">
<title>Node4&#45;&gt;Node2</title>
<g id="a_edge4_Node000004_Node000002"><a xlink:title=" ">
<path fill="none" stroke="#63b8ff" d="M280.23,-149C270.99,-149 261.69,-149 252.84,-149"/>
<polygon fill="#63b8ff" stroke="#63b8ff" points="280.04,-152.5 290.04,-149 280.04,-145.5 280.04,-152.5"/>
</a>
</g>
</g>
<!-- Node6&#45;&gt;Node3 -->
<g id="edge7_Node000006_Node000003" class="edge">
<title>Node6&#45;&gt;Node3</title>
<g id="a_edge7_Node000006_Node000003"><a xlink:title=" ">
<path fill="none" stroke="#63b8ff" d="M135.87,-76.76C124.36,-80.39 112.43,-84.14 101.32,-87.64"/>
<polygon fill="#63b8ff" stroke="#63b8ff" points="136.8,-79.83 145.29,-73.49 134.7,-73.15 136.8,-79.83"/>
</a>
</g>
</g>
<!-- Node7&#45;&gt;Node6 -->
<g id="edge9_Node000007_Node000006" class="edge">
<title>Node7&#45;&gt;Node6</title>
<g id="a_edge9_Node000007_Node000006"><a xlink:title=" ">
<path fill="none" stroke="#63b8ff" d="M289.92,-33.16C278.1,-36.34 265.91,-39.62 254.41,-42.71"/>
<polygon fill="#63b8ff" stroke="#63b8ff" points="290.44,-36.38 299.19,-30.4 288.62,-29.62 290.44,-36.38"/>
</a>
</g>
</g>
</g>
</svg>
