<?xml version="1.0" encoding="UTF-8" standalone="no"?>
<!DOCTYPE svg PUBLIC "-//W3C//DTD SVG 1.1//EN"
 "http://www.w3.org/Graphics/SVG/1.1/DTD/svg11.dtd">
<!-- Generated by graphviz version 8.0.3 (20230416.2022)
 -->
<!-- Title: hello_world::devices::motor::_Uint2Float Pages: 1 -->
<svg width="465pt" height="101pt"
 viewBox="0.00 0.00 465.00 101.03" xmlns="http://www.w3.org/2000/svg" xmlns:xlink="http://www.w3.org/1999/xlink">
<g id="graph0" class="graph" transform="scale(1 1) rotate(0) translate(4 97.03)">
<title>hello_world::devices::motor::_Uint2Float</title>
<!-- Node1 -->
<g id="Node000001" class="node">
<title>Node1</title>
<g id="a_Node000001"><a xlink:title="根据给定的范围和位数，将 uint 转换为 float">
<polygon fill="#999999" stroke="#666666" points="457,-78 354,-78 354,-48 457,-48 457,-78"/>
<text text-anchor="start" x="362" y="-66" font-family="Helvetica,sans-Serif" font-size="10.00">hello_world::devices</text>
<text text-anchor="middle" x="405.5" y="-55" font-family="Helvetica,sans-Serif" font-size="10.00">::motor::_Uint2Float</text>
</a>
</g>
</g>
<!-- Node2 -->
<g id="Node000002" class="node">
<title>Node2</title>
<g id="a_Node000002"><a xlink:href="classhello__world_1_1devices_1_1motor_1_1_d_m___j4310.html#a84ecfac4c74e3f0f7b85fba6c69f2aa1" target="_top" xlink:title="将电调发回的 CAN 报文进行解包">
<polygon fill="white" stroke="#666666" points="138.5,-78 1.5,-78 1.5,-48 138.5,-48 138.5,-78"/>
<text text-anchor="start" x="9.5" y="-66" font-family="Helvetica,sans-Serif" font-size="10.00">hello_world::devices</text>
<text text-anchor="middle" x="70" y="-55" font-family="Helvetica,sans-Serif" font-size="10.00">::motor::DM_J4310::decode</text>
</a>
</g>
</g>
<!-- Node1&#45;&gt;Node2 -->
<g id="edge1_Node000001_Node000002" class="edge">
<title>Node1&#45;&gt;Node2</title>
<g id="a_edge1_Node000001_Node000002"><a xlink:title=" ">
<path fill="none" stroke="#63b8ff" d="M347.46,-81.16C337.72,-83.59 327.64,-85.69 318,-87 255.47,-95.51 238.71,-94.08 176,-87 160.3,-85.23 143.52,-82.01 128.09,-78.5"/>
<polygon fill="#63b8ff" stroke="#63b8ff" points="348.07,-84.36 356.85,-78.43 346.28,-77.59 348.07,-84.36"/>
</a>
</g>
</g>
<!-- Node3 -->
<g id="Node000003" class="node">
<title>Node3</title>
<g id="a_Node000003"><a xlink:href="classhello__world_1_1devices_1_1motor_1_1_d_m___j4310.html#acb60cb1b9843925d02c8a07c4b39aff4" target="_top" xlink:title="将原始报文内容转换为转子电流">
<polygon fill="white" stroke="#666666" points="318,-78 176,-78 176,-48 318,-48 318,-78"/>
<text text-anchor="start" x="184" y="-66" font-family="Helvetica,sans-Serif" font-size="10.00">hello_world::devices</text>
<text text-anchor="middle" x="247" y="-55" font-family="Helvetica,sans-Serif" font-size="10.00">::motor::DM_J4310::raw2curr</text>
</a>
</g>
</g>
<!-- Node1&#45;&gt;Node3 -->
<g id="edge2_Node000001_Node000003" class="edge">
<title>Node1&#45;&gt;Node3</title>
<g id="a_edge2_Node000001_Node000003"><a xlink:title=" ">
<path fill="none" stroke="#63b8ff" d="M342.93,-63C334.9,-63 326.62,-63 318.46,-63"/>
<polygon fill="#63b8ff" stroke="#63b8ff" points="342.69,-66.5 352.69,-63 342.69,-59.5 342.69,-66.5"/>
</a>
</g>
</g>
<!-- Node4 -->
<g id="Node000004" class="node">
<title>Node4</title>
<g id="a_Node000004"><a xlink:href="classhello__world_1_1devices_1_1motor_1_1_d_m___j4310.html#aa2784ed2ea68d2c48641004fdbd5ea52" target="_top" xlink:title="将原始报文内容转换为输出端力矩">
<polygon fill="white" stroke="#666666" points="318,-30 176,-30 176,0 318,0 318,-30"/>
<text text-anchor="start" x="184" y="-18" font-family="Helvetica,sans-Serif" font-size="10.00">hello_world::devices</text>
<text text-anchor="middle" x="247" y="-7" font-family="Helvetica,sans-Serif" font-size="10.00">::motor::DM_J4310::raw2torq</text>
</a>
</g>
</g>
<!-- Node1&#45;&gt;Node4 -->
<g id="edge4_Node000001_Node000004" class="edge">
<title>Node1&#45;&gt;Node4</title>
<g id="a_edge4_Node000001_Node000004"><a xlink:title=" ">
<path fill="none" stroke="#63b8ff" d="M343.86,-44.4C328.79,-39.78 312.8,-34.87 298.28,-30.42"/>
<polygon fill="#63b8ff" stroke="#63b8ff" points="342.53,-47.96 353.12,-47.55 344.59,-41.27 342.53,-47.96"/>
</a>
</g>
</g>
<!-- Node3&#45;&gt;Node2 -->
<g id="edge3_Node000003_Node000002" class="edge">
<title>Node3&#45;&gt;Node2</title>
<g id="a_edge3_Node000003_Node000002"><a xlink:title=" ">
<path fill="none" stroke="#63b8ff" d="M164.65,-63C155.98,-63 147.22,-63 138.72,-63"/>
<polygon fill="#63b8ff" stroke="#63b8ff" points="164.58,-66.5 174.58,-63 164.58,-59.5 164.58,-66.5"/>
</a>
</g>
</g>
<!-- Node4&#45;&gt;Node2 -->
<g id="edge5_Node000004_Node000002" class="edge">
<title>Node4&#45;&gt;Node2</title>
<g id="a_edge5_Node000004_Node000002"><a xlink:title=" ">
<path fill="none" stroke="#63b8ff" d="M179.17,-33.33C162.03,-38.03 143.77,-43.04 127.23,-47.58"/>
<polygon fill="#63b8ff" stroke="#63b8ff" points="179.95,-36.47 188.67,-30.45 178.1,-29.72 179.95,-36.47"/>
</a>
</g>
</g>
<!-- Node5 -->
<g id="Node000005" class="node">
<title>Node5</title>
<g id="a_Node000005"><a xlink:href="classhello__world_1_1devices_1_1motor_1_1_d_m___j4310.html#ae15373ce02962c1a287d7e813413869b" target="_top" xlink:title="设定发给电调的期望值">
<polygon fill="white" stroke="#666666" points="140,-30 0,-30 0,0 140,0 140,-30"/>
<text text-anchor="start" x="8" y="-18" font-family="Helvetica,sans-Serif" font-size="10.00">hello_world::devices</text>
<text text-anchor="middle" x="70" y="-7" font-family="Helvetica,sans-Serif" font-size="10.00">::motor::DM_J4310::setInput</text>
</a>
</g>
</g>
<!-- Node4&#45;&gt;Node5 -->
<g id="edge6_Node000004_Node000005" class="edge">
<title>Node4&#45;&gt;Node5</title>
<g id="a_edge6_Node000004_Node000005"><a xlink:title=" ">
<path fill="none" stroke="#63b8ff" d="M164.62,-15C156.53,-15 148.37,-15 140.42,-15"/>
<polygon fill="#63b8ff" stroke="#63b8ff" points="164.58,-18.5 174.58,-15 164.58,-11.5 164.58,-18.5"/>
</a>
</g>
</g>
</g>
</svg>
