<?xml version="1.0" encoding="UTF-8" standalone="no"?>
<!DOCTYPE svg PUBLIC "-//W3C//DTD SVG 1.1//EN"
 "http://www.w3.org/Graphics/SVG/1.1/DTD/svg11.dtd">
<!-- Generated by graphviz version 8.0.3 (20230416.2022)
 -->
<!-- Title: hello_world::devices::referee::GetCrc16CheckSum Pages: 1 -->
<svg width="741pt" height="86pt"
 viewBox="0.00 0.00 741.00 86.00" xmlns="http://www.w3.org/2000/svg" xmlns:xlink="http://www.w3.org/1999/xlink">
<g id="graph0" class="graph" transform="scale(1 1) rotate(0) translate(4 82)">
<title>hello_world::devices::referee::GetCrc16CheckSum</title>
<!-- Node1 -->
<g id="Node000001" class="node">
<title>Node1</title>
<g id="a_Node000001"><a xlink:title="Calculate and return the CRC16 checksum of a message.">
<polygon fill="#999999" stroke="#666666" points="733,-54 586,-54 586,-24 733,-24 733,-54"/>
<text text-anchor="start" x="594" y="-42" font-family="Helvetica,sans-Serif" font-size="10.00">hello_world::devices</text>
<text text-anchor="middle" x="659.5" y="-31" font-family="Helvetica,sans-Serif" font-size="10.00">::referee::GetCrc16CheckSum</text>
</a>
</g>
</g>
<!-- Node2 -->
<g id="Node000002" class="node">
<title>Node2</title>
<g id="a_Node000002"><a xlink:href="namespacehello__world_1_1devices_1_1referee.html#a73a313c37bf9c08d99668eb8e20b0126" target="_top" xlink:title="Set the last two bytes of a message to a CRC16 checksum.">
<polygon fill="white" stroke="#666666" points="550,-78 386,-78 386,-48 550,-48 550,-78"/>
<text text-anchor="start" x="394" y="-66" font-family="Helvetica,sans-Serif" font-size="10.00">hello_world::devices</text>
<text text-anchor="middle" x="468" y="-55" font-family="Helvetica,sans-Serif" font-size="10.00">::referee::SetEndCrc16CheckSum</text>
</a>
</g>
</g>
<!-- Node1&#45;&gt;Node2 -->
<g id="edge1_Node000001_Node000002" class="edge">
<title>Node1&#45;&gt;Node2</title>
<g id="a_edge1_Node000001_Node000002"><a xlink:title=" ">
<path fill="none" stroke="#63b8ff" d="M574.64,-49.62C566.61,-50.64 558.48,-51.67 550.47,-52.68"/>
<polygon fill="#63b8ff" stroke="#63b8ff" points="575.02,-52.97 584.51,-48.24 574.14,-46.03 575.02,-52.97"/>
</a>
</g>
</g>
<!-- Node5 -->
<g id="Node000005" class="node">
<title>Node5</title>
<g id="a_Node000005"><a xlink:href="namespacehello__world_1_1devices_1_1referee.html#aa177d9a48e848cf495e1119b8449a1f7" target="_top" xlink:title="Verifies the CRC16 checksum of a message.">
<polygon fill="white" stroke="#666666" points="546,-30 390,-30 390,0 546,0 546,-30"/>
<text text-anchor="start" x="398" y="-18" font-family="Helvetica,sans-Serif" font-size="10.00">hello_world::devices</text>
<text text-anchor="middle" x="468" y="-7" font-family="Helvetica,sans-Serif" font-size="10.00">::referee::VerifyCrc16CheckSum</text>
</a>
</g>
</g>
<!-- Node1&#45;&gt;Node5 -->
<g id="edge4_Node000001_Node000005" class="edge">
<title>Node1&#45;&gt;Node5</title>
<g id="a_edge4_Node000001_Node000005"><a xlink:title=" ">
<path fill="none" stroke="#63b8ff" d="M574.88,-28.41C565.39,-27.21 555.76,-25.99 546.36,-24.8"/>
<polygon fill="#63b8ff" stroke="#63b8ff" points="574.14,-31.97 584.51,-29.76 575.02,-25.03 574.14,-31.97"/>
</a>
</g>
</g>
<!-- Node3 -->
<g id="Node000003" class="node">
<title>Node3</title>
<g id="a_Node000003"><a xlink:href="classhello__world_1_1devices_1_1referee_1_1_referee.html#aabc8ab368e15253c1f375e15f625e640" target="_top" xlink:title=" ">
<polygon fill="white" stroke="#666666" points="350,-78 192,-78 192,-48 350,-48 350,-78"/>
<text text-anchor="start" x="200" y="-66" font-family="Helvetica,sans-Serif" font-size="10.00">hello_world::devices</text>
<text text-anchor="middle" x="271" y="-55" font-family="Helvetica,sans-Serif" font-size="10.00">::referee::Referee::encodeSetCrc</text>
</a>
</g>
</g>
<!-- Node2&#45;&gt;Node3 -->
<g id="edge2_Node000002_Node000003" class="edge">
<title>Node2&#45;&gt;Node3</title>
<g id="a_edge2_Node000002_Node000003"><a xlink:title=" ">
<path fill="none" stroke="#63b8ff" d="M374.95,-63C366.72,-63 358.44,-63 350.34,-63"/>
<polygon fill="#63b8ff" stroke="#63b8ff" points="374.71,-66.5 384.71,-63 374.71,-59.5 374.71,-66.5"/>
</a>
</g>
</g>
<!-- Node4 -->
<g id="Node000004" class="node">
<title>Node4</title>
<g id="a_Node000004"><a xlink:href="classhello__world_1_1devices_1_1referee_1_1_referee.html#a5ce1901e90b5565bf0de6c9ce2d48c91" target="_top" xlink:title=" ">
<polygon fill="white" stroke="#666666" points="156,-78 0,-78 0,-48 156,-48 156,-78"/>
<text text-anchor="start" x="8" y="-66" font-family="Helvetica,sans-Serif" font-size="10.00">hello_world::devices</text>
<text text-anchor="middle" x="78" y="-55" font-family="Helvetica,sans-Serif" font-size="10.00">::referee::Referee::encodeFrame</text>
</a>
</g>
</g>
<!-- Node3&#45;&gt;Node4 -->
<g id="edge3_Node000003_Node000004" class="edge">
<title>Node3&#45;&gt;Node4</title>
<g id="a_edge3_Node000003_Node000004"><a xlink:title=" ">
<path fill="none" stroke="#63b8ff" d="M180.77,-63C172.66,-63 164.49,-63 156.5,-63"/>
<polygon fill="#63b8ff" stroke="#63b8ff" points="180.76,-66.5 190.76,-63 180.76,-59.5 180.76,-66.5"/>
</a>
</g>
</g>
<!-- Node6 -->
<g id="Node000006" class="node">
<title>Node6</title>
<g id="a_Node000006"><a xlink:href="classhello__world_1_1devices_1_1referee_1_1_referee.html#a823f73d223421b7d025005e99ff08291" target="_top" xlink:title=" ">
<polygon fill="white" stroke="#666666" points="347,-30 195,-30 195,0 347,0 347,-30"/>
<text text-anchor="start" x="203" y="-18" font-family="Helvetica,sans-Serif" font-size="10.00">hello_world::devices</text>
<text text-anchor="middle" x="271" y="-7" font-family="Helvetica,sans-Serif" font-size="10.00">::referee::Referee::processByte</text>
</a>
</g>
</g>
<!-- Node5&#45;&gt;Node6 -->
<g id="edge5_Node000005_Node000006" class="edge">
<title>Node5&#45;&gt;Node6</title>
<g id="a_edge5_Node000005_Node000006"><a xlink:title=" ">
<path fill="none" stroke="#63b8ff" d="M378.78,-15C368.28,-15 357.64,-15 347.35,-15"/>
<polygon fill="#63b8ff" stroke="#63b8ff" points="378.65,-18.5 388.65,-15 378.65,-11.5 378.65,-18.5"/>
</a>
</g>
</g>
<!-- Node7 -->
<g id="Node000007" class="node">
<title>Node7</title>
<g id="a_Node000007"><a xlink:href="classhello__world_1_1devices_1_1referee_1_1_referee.html#aaa5ff496d5c254b8fd821c351bb75325" target="_top" xlink:title=" ">
<polygon fill="white" stroke="#666666" points="156,-30 0,-30 0,0 156,0 156,-30"/>
<text text-anchor="start" x="8" y="-18" font-family="Helvetica,sans-Serif" font-size="10.00">hello_world::devices</text>
<text text-anchor="middle" x="78" y="-7" font-family="Helvetica,sans-Serif" font-size="10.00">::referee::Referee::decodeFrame</text>
</a>
</g>
</g>
<!-- Node6&#45;&gt;Node7 -->
<g id="edge6_Node000006_Node000007" class="edge">
<title>Node6&#45;&gt;Node7</title>
<g id="a_edge6_Node000006_Node000007"><a xlink:title=" ">
<path fill="none" stroke="#63b8ff" d="M183.56,-15C174.52,-15 165.38,-15 156.45,-15"/>
<polygon fill="#63b8ff" stroke="#63b8ff" points="183.51,-18.5 193.51,-15 183.51,-11.5 183.51,-18.5"/>
</a>
</g>
</g>
</g>
</svg>
