<?xml version="1.0" encoding="UTF-8" standalone="no"?>
<!DOCTYPE svg PUBLIC "-//W3C//DTD SVG 1.1//EN"
 "http://www.w3.org/Graphics/SVG/1.1/DTD/svg11.dtd">
<!-- Generated by graphviz version 8.0.3 (20230416.2022)
 -->
<!-- Title: hello_world::algorithms::controller::pid::HandleAcross0 Pages: 1 -->
<svg width="494pt" height="86pt"
 viewBox="0.00 0.00 494.00 86.00" xmlns="http://www.w3.org/2000/svg" xmlns:xlink="http://www.w3.org/1999/xlink">
<g id="graph0" class="graph" transform="scale(1 1) rotate(0) translate(4 82)">
<title>hello_world::algorithms::controller::pid::HandleAcross0</title>
<!-- Node1 -->
<g id="Node000001" class="node">
<title>Node1</title>
<g id="a_Node000001"><a xlink:title="处理角度跨越 0 度的情况">
<polygon fill="#999999" stroke="#666666" points="153,-54 0,-54 0,-24 153,-24 153,-54"/>
<text text-anchor="start" x="8" y="-42" font-family="Helvetica,sans-Serif" font-size="10.00">hello_world::algorithms</text>
<text text-anchor="middle" x="76.5" y="-31" font-family="Helvetica,sans-Serif" font-size="10.00">::controller::pid::HandleAcross0</text>
</a>
</g>
</g>
<!-- Node2 -->
<g id="Node000002" class="node">
<title>Node2</title>
<g id="a_Node000002"><a xlink:href="namespacehello__world.html#a7c9ce795c80c4bc674e5470984f99105" target="_top" xlink:title=" ">
<polygon fill="white" stroke="#666666" points="314,-78 189,-78 189,-48 314,-48 314,-78"/>
<text text-anchor="start" x="197" y="-66" font-family="Helvetica,sans-Serif" font-size="10.00">hello_world::HandleAngle</text>
<text text-anchor="middle" x="251.5" y="-55" font-family="Helvetica,sans-Serif" font-size="10.00">Cross0Deg</text>
</a>
</g>
</g>
<!-- Node1&#45;&gt;Node2 -->
<g id="edge1_Node000001_Node000002" class="edge">
<title>Node1&#45;&gt;Node2</title>
<g id="a_edge1_Node000001_Node000002"><a xlink:title=" ">
<path fill="none" stroke="#63b8ff" d="M153.38,-49.53C161.49,-50.65 169.74,-51.8 177.81,-52.92"/>
<polygon fill="#63b8ff" stroke="#63b8ff" points="177.31,-56.52 187.69,-54.43 178.27,-49.58 177.31,-56.52"/>
</a>
</g>
</g>
<!-- Node4 -->
<g id="Node000004" class="node">
<title>Node4</title>
<g id="a_Node000004"><a xlink:href="namespacehello__world.html#a7640febc082ad62910c63a8feac1c002" target="_top" xlink:title=" ">
<polygon fill="white" stroke="#666666" points="314,-30 189,-30 189,0 314,0 314,-30"/>
<text text-anchor="start" x="197" y="-18" font-family="Helvetica,sans-Serif" font-size="10.00">hello_world::HandleAngle</text>
<text text-anchor="middle" x="251.5" y="-7" font-family="Helvetica,sans-Serif" font-size="10.00">Cross0Rad</text>
</a>
</g>
</g>
<!-- Node1&#45;&gt;Node4 -->
<g id="edge3_Node000001_Node000004" class="edge">
<title>Node1&#45;&gt;Node4</title>
<g id="a_edge3_Node000001_Node000004"><a xlink:title=" ">
<path fill="none" stroke="#63b8ff" d="M153.38,-28.47C161.49,-27.35 169.74,-26.2 177.81,-25.08"/>
<polygon fill="#63b8ff" stroke="#63b8ff" points="178.27,-28.42 187.69,-23.57 177.31,-21.48 178.27,-28.42"/>
</a>
</g>
</g>
<!-- Node3 -->
<g id="Node000003" class="node">
<title>Node3</title>
<g id="a_Node000003"><a xlink:href="namespacehello__world.html#ab46e2d75fde6b8f67bd6d21c61508e47" target="_top" xlink:title="处理角度越过0值的情况，以半周期为基准">
<polygon fill="white" stroke="#666666" points="486,-48.5 350,-48.5 350,-29.5 486,-29.5 486,-48.5"/>
<text text-anchor="middle" x="418" y="-36.5" font-family="Helvetica,sans-Serif" font-size="10.00">hello_world::PeriodDataSub</text>
</a>
</g>
</g>
<!-- Node2&#45;&gt;Node3 -->
<g id="edge2_Node000002_Node000003" class="edge">
<title>Node2&#45;&gt;Node3</title>
<g id="a_edge2_Node000002_Node000003"><a xlink:title=" ">
<path fill="none" stroke="#63b8ff" d="M314.22,-54C322.27,-52.82 330.6,-51.61 338.88,-50.4"/>
<polygon fill="#63b8ff" stroke="#63b8ff" points="339.31,-53.73 348.7,-48.82 338.3,-46.8 339.31,-53.73"/>
</a>
</g>
</g>
<!-- Node4&#45;&gt;Node3 -->
<g id="edge4_Node000004_Node000003" class="edge">
<title>Node4&#45;&gt;Node3</title>
<g id="a_edge4_Node000004_Node000003"><a xlink:title=" ">
<path fill="none" stroke="#63b8ff" d="M314.22,-24C322.27,-25.18 330.6,-26.39 338.88,-27.6"/>
<polygon fill="#63b8ff" stroke="#63b8ff" points="338.3,-31.2 348.7,-29.18 339.31,-24.27 338.3,-31.2"/>
</a>
</g>
</g>
</g>
</svg>
