<?xml version="1.0" encoding="UTF-8" standalone="no"?>
<!DOCTYPE svg PUBLIC "-//W3C//DTD SVG 1.1//EN"
 "http://www.w3.org/Graphics/SVG/1.1/DTD/svg11.dtd">
<!-- Generated by graphviz version 8.0.3 (20230416.2022)
 -->
<!-- Title: hello_world::Min Pages: 1 -->
<svg width="281pt" height="326pt"
 viewBox="0.00 0.00 281.00 326.00" xmlns="http://www.w3.org/2000/svg" xmlns:xlink="http://www.w3.org/1999/xlink">
<g id="graph0" class="graph" transform="scale(1 1) rotate(0) translate(4 322)">
<title>hello_world::Min</title>
<!-- Node1 -->
<g id="Node000001" class="node">
<title>Node1</title>
<g id="a_Node000001"><a xlink:title="获取两个变量间的最小值">
<polygon fill="#999999" stroke="#666666" points="273,-168.5 187,-168.5 187,-149.5 273,-149.5 273,-168.5"/>
<text text-anchor="middle" x="230" y="-156.5" font-family="Helvetica,sans-Serif" font-size="10.00">hello_world::Min</text>
</a>
</g>
</g>
<!-- Node2 -->
<g id="Node000002" class="node">
<title>Node2</title>
<g id="a_Node000002"><a xlink:href="classhello__world_1_1devices_1_1motor_1_1_a1.html#a1c439b72ce074a0e04d38b06749f499c" target="_top" xlink:title="A1 初始化">
<polygon fill="white" stroke="#666666" points="127,-318 24,-318 24,-288 127,-288 127,-318"/>
<text text-anchor="start" x="32" y="-306" font-family="Helvetica,sans-Serif" font-size="10.00">hello_world::devices</text>
<text text-anchor="middle" x="75.5" y="-295" font-family="Helvetica,sans-Serif" font-size="10.00">::motor::A1::A1</text>
</a>
</g>
</g>
<!-- Node1&#45;&gt;Node2 -->
<g id="edge1_Node000001_Node000002" class="edge">
<title>Node1&#45;&gt;Node2</title>
<g id="a_edge1_Node000001_Node000002"><a xlink:title=" ">
<path fill="none" stroke="#63b8ff" d="M221.23,-178.71C209.78,-205.28 185.88,-252.32 151,-279 143.98,-284.37 135.73,-288.56 127.32,-291.82"/>
<polygon fill="#63b8ff" stroke="#63b8ff" points="224.79,-180.27 225.37,-169.69 218.32,-177.6 224.79,-180.27"/>
</a>
</g>
</g>
<!-- Node3 -->
<g id="Node000003" class="node">
<title>Node3</title>
<g id="a_Node000003"><a xlink:href="classhello__world_1_1devices_1_1motor_1_1_d_m___j4310.html#a0a61fcd9a79f7bbb0addccaf677f2c5f" target="_top" xlink:title="DM_J4310 初始化">
<polygon fill="white" stroke="#666666" points="151,-270 0,-270 0,-240 151,-240 151,-270"/>
<text text-anchor="start" x="8" y="-258" font-family="Helvetica,sans-Serif" font-size="10.00">hello_world::devices</text>
<text text-anchor="middle" x="75.5" y="-247" font-family="Helvetica,sans-Serif" font-size="10.00">::motor::DM_J4310::DM_J4310</text>
</a>
</g>
</g>
<!-- Node1&#45;&gt;Node3 -->
<g id="edge2_Node000001_Node000003" class="edge">
<title>Node1&#45;&gt;Node3</title>
<g id="a_edge2_Node000001_Node000003"><a xlink:title=" ">
<path fill="none" stroke="#63b8ff" d="M213.75,-176.97C199.13,-193.16 175.71,-216.57 151,-231 145.48,-234.22 139.48,-237.07 133.36,-239.57"/>
<polygon fill="#63b8ff" stroke="#63b8ff" points="216.94,-179.65 220.91,-169.82 211.68,-175.02 216.94,-179.65"/>
</a>
</g>
</g>
<!-- Node4 -->
<g id="Node000004" class="node">
<title>Node4</title>
<g id="a_Node000004"><a xlink:href="classhello__world_1_1devices_1_1motor_1_1_g_m6020.html#ad61341de888f13343d20bd7e0b06f3c1" target="_top" xlink:title="GM6020 初始化">
<polygon fill="white" stroke="#666666" points="142,-222 9,-222 9,-192 142,-192 142,-222"/>
<text text-anchor="start" x="17" y="-210" font-family="Helvetica,sans-Serif" font-size="10.00">hello_world::devices</text>
<text text-anchor="middle" x="75.5" y="-199" font-family="Helvetica,sans-Serif" font-size="10.00">::motor::GM6020::GM6020</text>
</a>
</g>
</g>
<!-- Node1&#45;&gt;Node4 -->
<g id="edge3_Node000001_Node000004" class="edge">
<title>Node1&#45;&gt;Node4</title>
<g id="a_edge3_Node000001_Node000004"><a xlink:title=" ">
<path fill="none" stroke="#63b8ff" d="M186.95,-172.24C167.91,-178.23 145.28,-185.35 125.48,-191.58"/>
<polygon fill="#63b8ff" stroke="#63b8ff" points="187.91,-175.29 196.4,-168.95 185.81,-168.61 187.91,-175.29"/>
</a>
</g>
</g>
<!-- Node5 -->
<g id="Node000005" class="node">
<title>Node5</title>
<g id="a_Node000005"><a xlink:href="classhello__world_1_1devices_1_1motor_1_1_m2006.html#a52ce5e7bbbb2fffe82f86291b8876221" target="_top" xlink:title="M2006 初始化">
<polygon fill="white" stroke="#666666" points="134.5,-174 16.5,-174 16.5,-144 134.5,-144 134.5,-174"/>
<text text-anchor="start" x="24.5" y="-162" font-family="Helvetica,sans-Serif" font-size="10.00">hello_world::devices</text>
<text text-anchor="middle" x="75.5" y="-151" font-family="Helvetica,sans-Serif" font-size="10.00">::motor::M2006::M2006</text>
</a>
</g>
</g>
<!-- Node1&#45;&gt;Node5 -->
<g id="edge4_Node000001_Node000005" class="edge">
<title>Node1&#45;&gt;Node5</title>
<g id="a_edge4_Node000001_Node000005"><a xlink:title=" ">
<path fill="none" stroke="#63b8ff" d="M175.74,-159C162.57,-159 148.39,-159 134.99,-159"/>
<polygon fill="#63b8ff" stroke="#63b8ff" points="175.52,-162.5 185.52,-159 175.52,-155.5 175.52,-162.5"/>
</a>
</g>
</g>
<!-- Node6 -->
<g id="Node000006" class="node">
<title>Node6</title>
<g id="a_Node000006"><a xlink:href="classhello__world_1_1devices_1_1motor_1_1_m3508.html#a2fbed6fbaa90b42893978a1805ea78e6" target="_top" xlink:title="M3508 初始化">
<polygon fill="white" stroke="#666666" points="134.5,-126 16.5,-126 16.5,-96 134.5,-96 134.5,-126"/>
<text text-anchor="start" x="24.5" y="-114" font-family="Helvetica,sans-Serif" font-size="10.00">hello_world::devices</text>
<text text-anchor="middle" x="75.5" y="-103" font-family="Helvetica,sans-Serif" font-size="10.00">::motor::M3508::M3508</text>
</a>
</g>
</g>
<!-- Node1&#45;&gt;Node6 -->
<g id="edge5_Node000001_Node000006" class="edge">
<title>Node1&#45;&gt;Node6</title>
<g id="a_edge5_Node000001_Node000006"><a xlink:title=" ">
<path fill="none" stroke="#63b8ff" d="M186.95,-145.76C167.91,-139.77 145.28,-132.65 125.48,-126.42"/>
<polygon fill="#63b8ff" stroke="#63b8ff" points="185.81,-149.39 196.4,-149.05 187.91,-142.71 185.81,-149.39"/>
</a>
</g>
</g>
<!-- Node7 -->
<g id="Node000007" class="node">
<title>Node7</title>
<g id="a_Node000007"><a xlink:href="classhello__world_1_1devices_1_1motor_1_1_m8910.html#accd858d8bd3db4aa48532ec8c1f8bd44" target="_top" xlink:title="M8910 初始化">
<polygon fill="white" stroke="#666666" points="134.5,-78 16.5,-78 16.5,-48 134.5,-48 134.5,-78"/>
<text text-anchor="start" x="24.5" y="-66" font-family="Helvetica,sans-Serif" font-size="10.00">hello_world::devices</text>
<text text-anchor="middle" x="75.5" y="-55" font-family="Helvetica,sans-Serif" font-size="10.00">::motor::M8910::M8910</text>
</a>
</g>
</g>
<!-- Node1&#45;&gt;Node7 -->
<g id="edge6_Node000001_Node000007" class="edge">
<title>Node1&#45;&gt;Node7</title>
<g id="a_edge6_Node000001_Node000007"><a xlink:title=" ">
<path fill="none" stroke="#63b8ff" d="M213.75,-141.03C199.13,-124.84 175.71,-101.43 151,-87 145.48,-83.78 139.48,-80.93 133.36,-78.43"/>
<polygon fill="#63b8ff" stroke="#63b8ff" points="211.68,-142.98 220.91,-148.18 216.94,-138.35 211.68,-142.98"/>
</a>
</g>
</g>
<!-- Node8 -->
<g id="Node000008" class="node">
<title>Node8</title>
<g id="a_Node000008"><a xlink:href="classhello__world_1_1devices_1_1motor_1_1_m_f9025v2.html#a87787e5484356144bc7bce7b229398de" target="_top" xlink:title="MF9025v2 初始化">
<polygon fill="white" stroke="#666666" points="149.5,-30 1.5,-30 1.5,0 149.5,0 149.5,-30"/>
<text text-anchor="start" x="9.5" y="-18" font-family="Helvetica,sans-Serif" font-size="10.00">hello_world::devices</text>
<text text-anchor="middle" x="75.5" y="-7" font-family="Helvetica,sans-Serif" font-size="10.00">::motor::MF9025v2::MF9025v2</text>
</a>
</g>
</g>
<!-- Node1&#45;&gt;Node8 -->
<g id="edge7_Node000001_Node000008" class="edge">
<title>Node1&#45;&gt;Node8</title>
<g id="a_edge7_Node000001_Node000008"><a xlink:title=" ">
<path fill="none" stroke="#63b8ff" d="M221.23,-139.29C209.78,-112.72 185.88,-65.68 151,-39 146.68,-35.7 141.9,-32.84 136.89,-30.37"/>
<polygon fill="#63b8ff" stroke="#63b8ff" points="218.32,-140.4 225.37,-148.31 224.79,-137.73 218.32,-140.4"/>
</a>
</g>
</g>
</g>
</svg>
