<?xml version="1.0" encoding="UTF-8" standalone="no"?>
<!DOCTYPE svg PUBLIC "-//W3C//DTD SVG 1.1//EN"
 "http://www.w3.org/Graphics/SVG/1.1/DTD/svg11.dtd">
<!-- Generated by graphviz version 8.0.3 (20230416.2022)
 -->
<!-- Title: HW&#45;Components/algorithms/controller/inc/pid_opt.hpp Pages: 1 -->
<svg width="150pt" height="203pt"
 viewBox="0.00 0.00 149.50 203.00" xmlns="http://www.w3.org/2000/svg" xmlns:xlink="http://www.w3.org/1999/xlink">
<g id="graph0" class="graph" transform="scale(1 1) rotate(0) translate(4 199)">
<title>HW&#45;Components/algorithms/controller/inc/pid_opt.hpp</title>
<!-- Node1 -->
<g id="Node000001" class="node">
<title>Node1</title>
<g id="a_Node000001"><a xlink:title=" ">
<polygon fill="#999999" stroke="#666666" points="139,-195 0,-195 0,-165 139,-165 139,-195"/>
<text text-anchor="start" x="8" y="-183" font-family="Helvetica,sans-Serif" font-size="10.00">HW&#45;Components/algorithms</text>
<text text-anchor="middle" x="69.5" y="-172" font-family="Helvetica,sans-Serif" font-size="10.00">/controller/inc/pid_opt.hpp</text>
</a>
</g>
</g>
<!-- Node2 -->
<g id="Node000002" class="node">
<title>Node2</title>
<g id="a_Node000002"><a xlink:href="controller__base_8hpp.html" target="_top" xlink:title=": @history : Version Date Author Note V0.9.0 2023&#45;11&#45;25 Caikunzhen 1.">
<polygon fill="white" stroke="#666666" points="120,-129 19,-129 19,-110 120,-110 120,-129"/>
<text text-anchor="middle" x="69.5" y="-117" font-family="Helvetica,sans-Serif" font-size="10.00">controller_base.hpp</text>
</a>
</g>
</g>
<!-- Node1&#45;&gt;Node2 -->
<g id="edge1_Node000001_Node000002" class="edge">
<title>Node1&#45;&gt;Node2</title>
<g id="a_edge1_Node000001_Node000002"><a xlink:title=" ">
<path fill="none" stroke="#63b8ff" d="M69.5,-164.54C69.5,-157.17 69.5,-148.1 69.5,-140.11"/>
<polygon fill="#63b8ff" stroke="#63b8ff" points="73,-140.18 69.5,-130.18 66,-140.18 73,-140.18"/>
</a>
</g>
</g>
<!-- Node3 -->
<g id="Node000003" class="node">
<title>Node3</title>
<g id="a_Node000003"><a xlink:title=" ">
<polygon fill="#e0e0e0" stroke="#999999" points="55.5,-74 7.5,-74 7.5,-55 55.5,-55 55.5,-74"/>
<text text-anchor="middle" x="31.5" y="-62" font-family="Helvetica,sans-Serif" font-size="10.00">cstddef</text>
</a>
</g>
</g>
<!-- Node2&#45;&gt;Node3 -->
<g id="edge2_Node000002_Node000003" class="edge">
<title>Node2&#45;&gt;Node3</title>
<g id="a_edge2_Node000002_Node000003"><a xlink:title=" ">
<path fill="none" stroke="#63b8ff" d="M63.23,-109.75C58.09,-102.58 50.65,-92.2 44.26,-83.3"/>
<polygon fill="#63b8ff" stroke="#63b8ff" points="46.58,-81.53 37.91,-75.44 40.89,-85.61 46.58,-81.53"/>
</a>
</g>
</g>
<!-- Node4 -->
<g id="Node000004" class="node">
<title>Node4</title>
<g id="a_Node000004"><a xlink:href="system_8hpp.html" target="_top" xlink:title=" ">
<polygon fill="white" stroke="#666666" points="141.5,-74 73.5,-74 73.5,-55 141.5,-55 141.5,-74"/>
<text text-anchor="middle" x="107.5" y="-62" font-family="Helvetica,sans-Serif" font-size="10.00">system.hpp</text>
</a>
</g>
</g>
<!-- Node2&#45;&gt;Node4 -->
<g id="edge3_Node000002_Node000004" class="edge">
<title>Node2&#45;&gt;Node4</title>
<g id="a_edge3_Node000002_Node000004"><a xlink:title=" ">
<path fill="none" stroke="#63b8ff" d="M75.77,-109.75C80.91,-102.58 88.35,-92.2 94.74,-83.3"/>
<polygon fill="#63b8ff" stroke="#63b8ff" points="98.11,-85.61 101.09,-75.44 92.42,-81.53 98.11,-85.61"/>
</a>
</g>
</g>
<!-- Node5 -->
<g id="Node000005" class="node">
<title>Node5</title>
<g id="a_Node000005"><a xlink:title=" ">
<polygon fill="#e0e0e0" stroke="#999999" points="130,-19 85,-19 85,0 130,0 130,-19"/>
<text text-anchor="middle" x="107.5" y="-7" font-family="Helvetica,sans-Serif" font-size="10.00">cstdlib</text>
</a>
</g>
</g>
<!-- Node4&#45;&gt;Node5 -->
<g id="edge4_Node000004_Node000005" class="edge">
<title>Node4&#45;&gt;Node5</title>
<g id="a_edge4_Node000004_Node000005"><a xlink:title=" ">
<path fill="none" stroke="#63b8ff" d="M107.5,-54.75C107.5,-48.11 107.5,-38.73 107.5,-30.31"/>
<polygon fill="#63b8ff" stroke="#63b8ff" points="111,-30.44 107.5,-20.44 104,-30.44 111,-30.44"/>
</a>
</g>
</g>
</g>
</svg>
