<?xml version="1.0" encoding="UTF-8" standalone="no"?>
<!DOCTYPE svg PUBLIC "-//W3C//DTD SVG 1.1//EN"
 "http://www.w3.org/Graphics/SVG/1.1/DTD/svg11.dtd">
<!-- Generated by graphviz version 8.0.3 (20230416.2022)
 -->
<!-- Title: HW&#45;Components/devices/referee/src/referee.cpp Pages: 1 -->
<svg width="488pt" height="313pt"
 viewBox="0.00 0.00 487.85 313.00" xmlns="http://www.w3.org/2000/svg" xmlns:xlink="http://www.w3.org/1999/xlink">
<g id="graph0" class="graph" transform="scale(1 1) rotate(0) translate(4 309)">
<title>HW&#45;Components/devices/referee/src/referee.cpp</title>
<!-- Node1 -->
<g id="Node000001" class="node">
<title>Node1</title>
<g id="a_Node000001"><a xlink:title=" ">
<polygon fill="#999999" stroke="#666666" points="326.35,-305 200.35,-305 200.35,-275 326.35,-275 326.35,-305"/>
<text text-anchor="start" x="208.35" y="-293" font-family="Helvetica,sans-Serif" font-size="10.00">HW&#45;Components/devices</text>
<text text-anchor="middle" x="263.35" y="-282" font-family="Helvetica,sans-Serif" font-size="10.00">/referee/src/referee.cpp</text>
</a>
</g>
</g>
<!-- Node2 -->
<g id="Node000002" class="node">
<title>Node2</title>
<g id="a_Node000002"><a xlink:href="referee_8hpp.html" target="_top" xlink:title=" ">
<polygon fill="white" stroke="#666666" points="154.85,-239 89.85,-239 89.85,-220 154.85,-220 154.85,-239"/>
<text text-anchor="middle" x="122.35" y="-227" font-family="Helvetica,sans-Serif" font-size="10.00">referee.hpp</text>
</a>
</g>
</g>
<!-- Node1&#45;&gt;Node2 -->
<g id="edge1_Node000001_Node000002" class="edge">
<title>Node1&#45;&gt;Node2</title>
<g id="a_edge1_Node000001_Node000002"><a xlink:title=" ">
<path fill="none" stroke="#63b8ff" d="M228.5,-274.54C205.55,-265.02 175.76,-252.66 153.58,-243.46"/>
<polygon fill="#63b8ff" stroke="#63b8ff" points="155.25,-239.95 144.68,-239.35 152.57,-246.41 155.25,-239.95"/>
</a>
</g>
</g>
<!-- Node11 -->
<g id="Node000011" class="node">
<title>Node11</title>
<g id="a_Node000011"><a xlink:title=" ">
<polygon fill="#e0e0e0" stroke="#999999" points="241.35,-239 173.35,-239 173.35,-220 241.35,-220 241.35,-239"/>
<text text-anchor="middle" x="207.35" y="-227" font-family="Helvetica,sans-Serif" font-size="10.00">arm_math.h</text>
</a>
</g>
</g>
<!-- Node1&#45;&gt;Node11 -->
<g id="edge15_Node000001_Node000011" class="edge">
<title>Node1&#45;&gt;Node11</title>
<g id="a_edge15_Node000001_Node000011"><a xlink:title=" ">
<path fill="none" stroke="#63b8ff" d="M249.51,-274.54C241.54,-266.22 231.5,-255.72 223.22,-247.07"/>
<polygon fill="#63b8ff" stroke="#63b8ff" points="226.1,-244.98 216.66,-240.18 221.05,-249.82 226.1,-244.98"/>
</a>
</g>
</g>
<!-- Node12 -->
<g id="Node000012" class="node">
<title>Node12</title>
<g id="a_Node000012"><a xlink:href="referee__crc_8hpp.html" target="_top" xlink:title=" ">
<polygon fill="white" stroke="#666666" points="479.85,-239 396.85,-239 396.85,-220 479.85,-220 479.85,-239"/>
<text text-anchor="middle" x="438.35" y="-227" font-family="Helvetica,sans-Serif" font-size="10.00">referee_crc.hpp</text>
</a>
</g>
</g>
<!-- Node1&#45;&gt;Node12 -->
<g id="edge16_Node000001_Node000012" class="edge">
<title>Node1&#45;&gt;Node12</title>
<g id="a_edge16_Node000001_Node000012"><a xlink:title=" ">
<path fill="none" stroke="#63b8ff" d="M306.61,-274.54C335.78,-264.79 373.85,-252.06 401.56,-242.8"/>
<polygon fill="#63b8ff" stroke="#63b8ff" points="402.26,-245.92 410.63,-239.43 400.04,-239.28 402.26,-245.92"/>
</a>
</g>
</g>
<!-- Node14 -->
<g id="Node000014" class="node">
<title>Node14</title>
<g id="a_Node000014"><a xlink:href="referee__size__check_8hpp.html" target="_top" xlink:title=" ">
<polygon fill="white" stroke="#666666" points="378.85,-239 259.85,-239 259.85,-220 378.85,-220 378.85,-239"/>
<text text-anchor="middle" x="319.35" y="-227" font-family="Helvetica,sans-Serif" font-size="10.00">referee_size_check.hpp</text>
</a>
</g>
</g>
<!-- Node1&#45;&gt;Node14 -->
<g id="edge19_Node000001_Node000014" class="edge">
<title>Node1&#45;&gt;Node14</title>
<g id="a_edge19_Node000001_Node000014"><a xlink:title=" ">
<path fill="none" stroke="#63b8ff" d="M277.2,-274.54C285.16,-266.22 295.21,-255.72 303.49,-247.07"/>
<polygon fill="#63b8ff" stroke="#63b8ff" points="305.66,-249.82 310.05,-240.18 300.61,-244.98 305.66,-249.82"/>
</a>
</g>
</g>
<!-- Node3 -->
<g id="Node000003" class="node">
<title>Node3</title>
<g id="a_Node000003"><a xlink:title=" ">
<polygon fill="#e0e0e0" stroke="#999999" points="170.35,-19 122.35,-19 122.35,0 170.35,0 170.35,-19"/>
<text text-anchor="middle" x="146.35" y="-7" font-family="Helvetica,sans-Serif" font-size="10.00">cstddef</text>
</a>
</g>
</g>
<!-- Node2&#45;&gt;Node3 -->
<g id="edge2_Node000002_Node000003" class="edge">
<title>Node2&#45;&gt;Node3</title>
<g id="a_edge2_Node000002_Node000003"><a xlink:title=" ">
<path fill="none" stroke="#63b8ff" d="M108.63,-219.6C70.23,-193.62 -32.66,-115.85 11.35,-55 23.25,-38.56 75.59,-24.87 111.49,-17.19"/>
<polygon fill="#63b8ff" stroke="#63b8ff" points="111.96,-20.46 121.04,-15 110.54,-13.61 111.96,-20.46"/>
</a>
</g>
</g>
<!-- Node4 -->
<g id="Node000004" class="node">
<title>Node4</title>
<g id="a_Node000004"><a xlink:href="referee__custom__define_8hpp.html" target="_top" xlink:title=" ">
<polygon fill="white" stroke="#666666" points="310.85,-184 177.85,-184 177.85,-165 310.85,-165 310.85,-184"/>
<text text-anchor="middle" x="244.35" y="-172" font-family="Helvetica,sans-Serif" font-size="10.00">referee_custom_define.hpp</text>
</a>
</g>
</g>
<!-- Node2&#45;&gt;Node4 -->
<g id="edge3_Node000002_Node000004" class="edge">
<title>Node2&#45;&gt;Node4</title>
<g id="a_edge3_Node000002_Node000004"><a xlink:title=" ">
<path fill="none" stroke="#63b8ff" d="M143.05,-219.51C162.53,-211.04 191.95,-198.27 214.07,-188.66"/>
<polygon fill="#63b8ff" stroke="#63b8ff" points="215.19,-191.55 222.96,-184.36 212.4,-185.13 215.19,-191.55"/>
</a>
</g>
</g>
<!-- Node5 -->
<g id="Node000005" class="node">
<title>Node5</title>
<g id="a_Node000005"><a xlink:href="referee__protocol_8hpp.html" target="_top" xlink:title=" ">
<polygon fill="white" stroke="#666666" points="296.35,-74 192.35,-74 192.35,-55 296.35,-55 296.35,-74"/>
<text text-anchor="middle" x="244.35" y="-62" font-family="Helvetica,sans-Serif" font-size="10.00">referee_protocol.hpp</text>
</a>
</g>
</g>
<!-- Node2&#45;&gt;Node5 -->
<g id="edge13_Node000002_Node000005" class="edge">
<title>Node2&#45;&gt;Node5</title>
<g id="a_edge13_Node000002_Node000005"><a xlink:title=" ">
<path fill="none" stroke="#63b8ff" d="M128.53,-219.82C137.3,-207.55 153.89,-184.44 168.35,-165 189.87,-136.07 215.41,-102.86 230.73,-83.06"/>
<polygon fill="#63b8ff" stroke="#63b8ff" points="234,-85.55 237.36,-75.5 228.47,-81.26 234,-85.55"/>
</a>
</g>
</g>
<!-- Node7 -->
<g id="Node000007" class="node">
<title>Node7</title>
<g id="a_Node000007"><a xlink:href="referee__rx__template_8hpp.html" target="_top" xlink:title=" ">
<polygon fill="white" stroke="#666666" points="171.85,-129 50.85,-129 50.85,-110 171.85,-110 171.85,-129"/>
<text text-anchor="middle" x="111.35" y="-117" font-family="Helvetica,sans-Serif" font-size="10.00">referee_rx_template.hpp</text>
</a>
</g>
</g>
<!-- Node2&#45;&gt;Node7 -->
<g id="edge14_Node000002_Node000007" class="edge">
<title>Node2&#45;&gt;Node7</title>
<g id="a_edge14_Node000002_Node000007"><a xlink:title=" ">
<path fill="none" stroke="#63b8ff" d="M121.45,-219.66C119.7,-202.42 115.77,-163.9 113.37,-140.27"/>
<polygon fill="#63b8ff" stroke="#63b8ff" points="116.76,-140.05 112.27,-130.46 109.8,-140.76 116.76,-140.05"/>
</a>
</g>
</g>
<!-- Node4&#45;&gt;Node5 -->
<g id="edge4_Node000004_Node000005" class="edge">
<title>Node4&#45;&gt;Node5</title>
<g id="a_edge4_Node000004_Node000005"><a xlink:title=" ">
<path fill="none" stroke="#63b8ff" d="M244.35,-164.66C244.35,-147.42 244.35,-108.9 244.35,-85.27"/>
<polygon fill="#63b8ff" stroke="#63b8ff" points="247.85,-85.46 244.35,-75.46 240.85,-85.46 247.85,-85.46"/>
</a>
</g>
</g>
<!-- Node4&#45;&gt;Node7 -->
<g id="edge7_Node000004_Node000007" class="edge">
<title>Node4&#45;&gt;Node7</title>
<g id="a_edge7_Node000004_Node000007"><a xlink:title=" ">
<path fill="none" stroke="#63b8ff" d="M221.79,-164.51C200.36,-155.97 167.9,-143.03 143.71,-133.4"/>
<polygon fill="#63b8ff" stroke="#63b8ff" points="145.17,-129.81 134.58,-129.36 142.58,-136.31 145.17,-129.81"/>
</a>
</g>
</g>
<!-- Node5&#45;&gt;Node3 -->
<g id="edge5_Node000005_Node000003" class="edge">
<title>Node5&#45;&gt;Node3</title>
<g id="a_edge5_Node000005_Node000003"><a xlink:title=" ">
<path fill="none" stroke="#63b8ff" d="M227.73,-54.51C212.57,-46.31 189.94,-34.07 172.39,-24.58"/>
<polygon fill="#63b8ff" stroke="#63b8ff" points="174.19,-21.04 163.73,-19.36 170.86,-27.19 174.19,-21.04"/>
</a>
</g>
</g>
<!-- Node6 -->
<g id="Node000006" class="node">
<title>Node6</title>
<g id="a_Node000006"><a xlink:title=" ">
<polygon fill="#e0e0e0" stroke="#999999" points="267.35,-19 221.35,-19 221.35,0 267.35,0 267.35,-19"/>
<text text-anchor="middle" x="244.35" y="-7" font-family="Helvetica,sans-Serif" font-size="10.00">cstdint</text>
</a>
</g>
</g>
<!-- Node5&#45;&gt;Node6 -->
<g id="edge6_Node000005_Node000006" class="edge">
<title>Node5&#45;&gt;Node6</title>
<g id="a_edge6_Node000005_Node000006"><a xlink:title=" ">
<path fill="none" stroke="#63b8ff" d="M244.35,-54.75C244.35,-48.11 244.35,-38.73 244.35,-30.31"/>
<polygon fill="#63b8ff" stroke="#63b8ff" points="247.85,-30.44 244.35,-20.44 240.85,-30.44 247.85,-30.44"/>
</a>
</g>
</g>
<!-- Node7&#45;&gt;Node5 -->
<g id="edge10_Node000007_Node000005" class="edge">
<title>Node7&#45;&gt;Node5</title>
<g id="a_edge10_Node000007_Node000005"><a xlink:title=" ">
<path fill="none" stroke="#63b8ff" d="M133.92,-109.51C155.35,-100.97 187.81,-88.03 211.99,-78.4"/>
<polygon fill="#63b8ff" stroke="#63b8ff" points="213.13,-81.31 221.13,-74.36 210.54,-74.81 213.13,-81.31"/>
</a>
</g>
</g>
<!-- Node7&#45;&gt;Node6 -->
<g id="edge8_Node000007_Node000006" class="edge">
<title>Node7&#45;&gt;Node6</title>
<g id="a_edge8_Node000007_Node000006"><a xlink:title=" ">
<path fill="none" stroke="#63b8ff" d="M120.89,-109.58C134.45,-97.02 160.22,-73.57 183.35,-55 196.1,-44.77 210.9,-33.95 222.73,-25.54"/>
<polygon fill="#63b8ff" stroke="#63b8ff" points="224.32,-27.99 230.48,-19.37 220.29,-22.27 224.32,-27.99"/>
</a>
</g>
</g>
<!-- Node8 -->
<g id="Node000008" class="node">
<title>Node8</title>
<g id="a_Node000008"><a xlink:title=" ">
<polygon fill="#e0e0e0" stroke="#999999" points="136.35,-74 90.35,-74 90.35,-55 136.35,-55 136.35,-74"/>
<text text-anchor="middle" x="113.35" y="-62" font-family="Helvetica,sans-Serif" font-size="10.00">cstring</text>
</a>
</g>
</g>
<!-- Node7&#45;&gt;Node8 -->
<g id="edge9_Node000007_Node000008" class="edge">
<title>Node7&#45;&gt;Node8</title>
<g id="a_edge9_Node000007_Node000008"><a xlink:title=" ">
<path fill="none" stroke="#63b8ff" d="M111.68,-109.75C111.93,-103.11 112.29,-93.73 112.61,-85.31"/>
<polygon fill="#63b8ff" stroke="#63b8ff" points="116.14,-85.57 113.02,-75.44 109.14,-85.3 116.14,-85.57"/>
</a>
</g>
</g>
<!-- Node9 -->
<g id="Node000009" class="node">
<title>Node9</title>
<g id="a_Node000009"><a xlink:href="tick_8hpp.html" target="_top" xlink:title=" ">
<polygon fill="white" stroke="#666666" points="71.85,-74 20.85,-74 20.85,-55 71.85,-55 71.85,-74"/>
<text text-anchor="middle" x="46.35" y="-62" font-family="Helvetica,sans-Serif" font-size="10.00">tick.hpp</text>
</a>
</g>
</g>
<!-- Node7&#45;&gt;Node9 -->
<g id="edge11_Node000007_Node000009" class="edge">
<title>Node7&#45;&gt;Node9</title>
<g id="a_edge11_Node000007_Node000009"><a xlink:title=" ">
<path fill="none" stroke="#63b8ff" d="M100.33,-109.51C90.84,-101.77 76.93,-90.43 65.61,-81.2"/>
<polygon fill="#63b8ff" stroke="#63b8ff" points="68.18,-77.96 58.22,-74.36 63.76,-83.39 68.18,-77.96"/>
</a>
</g>
</g>
<!-- Node10 -->
<g id="Node000010" class="node">
<title>Node10</title>
<g id="a_Node000010"><a xlink:title=" ">
<polygon fill="#e0e0e0" stroke="#999999" points="70.85,-19 21.85,-19 21.85,0 70.85,0 70.85,-19"/>
<text text-anchor="middle" x="46.35" y="-7" font-family="Helvetica,sans-Serif" font-size="10.00">stdint.h</text>
</a>
</g>
</g>
<!-- Node9&#45;&gt;Node10 -->
<g id="edge12_Node000009_Node000010" class="edge">
<title>Node9&#45;&gt;Node10</title>
<g id="a_edge12_Node000009_Node000010"><a xlink:title=" ">
<path fill="none" stroke="#63b8ff" d="M46.35,-54.75C46.35,-48.11 46.35,-38.73 46.35,-30.31"/>
<polygon fill="#63b8ff" stroke="#63b8ff" points="49.85,-30.44 46.35,-20.44 42.85,-30.44 49.85,-30.44"/>
</a>
</g>
</g>
<!-- Node12&#45;&gt;Node6 -->
<g id="edge18_Node000012_Node000006" class="edge">
<title>Node12&#45;&gt;Node6</title>
<g id="a_edge18_Node000012_Node000006"><a xlink:title=" ">
<path fill="none" stroke="#63b8ff" d="M439.13,-219.71C439.87,-206.89 439.72,-182.67 430.35,-165 394.4,-97.15 314.87,-47.38 272.39,-24.5"/>
<polygon fill="#63b8ff" stroke="#63b8ff" points="274.16,-20.95 263.68,-19.39 270.9,-27.14 274.16,-20.95"/>
</a>
</g>
</g>
<!-- Node13 -->
<g id="Node000013" class="node">
<title>Node13</title>
<g id="a_Node000013"><a xlink:title=" ">
<polygon fill="#e0e0e0" stroke="#999999" points="420.85,-184 367.85,-184 367.85,-165 420.85,-165 420.85,-184"/>
<text text-anchor="middle" x="394.35" y="-172" font-family="Helvetica,sans-Serif" font-size="10.00">cstdbool</text>
</a>
</g>
</g>
<!-- Node12&#45;&gt;Node13 -->
<g id="edge17_Node000012_Node000013" class="edge">
<title>Node12&#45;&gt;Node13</title>
<g id="a_edge17_Node000012_Node000013"><a xlink:title=" ">
<path fill="none" stroke="#63b8ff" d="M431.09,-219.75C425.01,-212.43 416.16,-201.76 408.66,-192.74"/>
<polygon fill="#63b8ff" stroke="#63b8ff" points="410.86,-190.9 401.78,-185.44 405.47,-195.37 410.86,-190.9"/>
</a>
</g>
</g>
<!-- Node14&#45;&gt;Node4 -->
<g id="edge20_Node000014_Node000004" class="edge">
<title>Node14&#45;&gt;Node4</title>
<g id="a_edge20_Node000014_Node000004"><a xlink:title=" ">
<path fill="none" stroke="#63b8ff" d="M306.63,-219.51C295.47,-211.62 279,-199.98 265.8,-190.65"/>
<polygon fill="#63b8ff" stroke="#63b8ff" points="268.08,-187.27 257.89,-184.36 264.04,-192.99 268.08,-187.27"/>
</a>
</g>
</g>
<!-- Node14&#45;&gt;Node5 -->
<g id="edge21_Node000014_Node000005" class="edge">
<title>Node14&#45;&gt;Node5</title>
<g id="a_edge21_Node000014_Node000005"><a xlink:title=" ">
<path fill="none" stroke="#63b8ff" d="M321.33,-219.58C323.7,-207.03 326.64,-183.59 320.35,-165 308.94,-131.25 280.99,-99.93 262.35,-81.76"/>
<polygon fill="#63b8ff" stroke="#63b8ff" points="265.21,-79.71 255.54,-75.38 260.41,-84.79 265.21,-79.71"/>
</a>
</g>
</g>
</g>
</svg>
