<?xml version="1.0" encoding="UTF-8" standalone="no"?>
<!DOCTYPE svg PUBLIC "-//W3C//DTD SVG 1.1//EN"
 "http://www.w3.org/Graphics/SVG/1.1/DTD/svg11.dtd">
<!-- Generated by graphviz version 8.0.3 (20230416.2022)
 -->
<!-- Title: HW&#45;Components/devices/referee/prv/referee_size_check.hpp Pages: 1 -->
<svg width="284pt" height="269pt"
 viewBox="0.00 0.00 283.50 269.00" xmlns="http://www.w3.org/2000/svg" xmlns:xlink="http://www.w3.org/1999/xlink">
<g id="graph0" class="graph" transform="scale(1 1) rotate(0) translate(4 265)">
<title>HW&#45;Components/devices/referee/prv/referee_size_check.hpp</title>
<!-- Node1 -->
<g id="Node000001" class="node">
<title>Node1</title>
<g id="a_Node000001"><a xlink:title=" ">
<polygon fill="#999999" stroke="#666666" points="143,-261 17,-261 17,-220 143,-220 143,-261"/>
<text text-anchor="start" x="25" y="-249" font-family="Helvetica,sans-Serif" font-size="10.00">HW&#45;Components/devices</text>
<text text-anchor="start" x="25" y="-238" font-family="Helvetica,sans-Serif" font-size="10.00">/referee/prv/referee</text>
<text text-anchor="middle" x="80" y="-227" font-family="Helvetica,sans-Serif" font-size="10.00">_size_check.hpp</text>
</a>
</g>
</g>
<!-- Node2 -->
<g id="Node000002" class="node">
<title>Node2</title>
<g id="a_Node000002"><a xlink:href="referee__custom__define_8hpp.html" target="_top" xlink:title=" ">
<polygon fill="white" stroke="#666666" points="194.5,-184 61.5,-184 61.5,-165 194.5,-165 194.5,-184"/>
<text text-anchor="middle" x="128" y="-172" font-family="Helvetica,sans-Serif" font-size="10.00">referee_custom_define.hpp</text>
</a>
</g>
</g>
<!-- Node1&#45;&gt;Node2 -->
<g id="edge1_Node000001_Node000002" class="edge">
<title>Node1&#45;&gt;Node2</title>
<g id="a_edge1_Node000001_Node000002"><a xlink:title=" ">
<path fill="none" stroke="#63b8ff" d="M94.92,-219.6C101.33,-211.06 108.75,-201.16 114.94,-192.91"/>
<polygon fill="#63b8ff" stroke="#63b8ff" points="118.3,-195.26 121.5,-185.16 112.7,-191.06 118.3,-195.26"/>
</a>
</g>
</g>
<!-- Node3 -->
<g id="Node000003" class="node">
<title>Node3</title>
<g id="a_Node000003"><a xlink:href="referee__protocol_8hpp.html" target="_top" xlink:title=" ">
<polygon fill="white" stroke="#666666" points="104,-74 0,-74 0,-55 104,-55 104,-74"/>
<text text-anchor="middle" x="52" y="-62" font-family="Helvetica,sans-Serif" font-size="10.00">referee_protocol.hpp</text>
</a>
</g>
</g>
<!-- Node1&#45;&gt;Node3 -->
<g id="edge11_Node000001_Node000003" class="edge">
<title>Node1&#45;&gt;Node3</title>
<g id="a_edge11_Node000001_Node000003"><a xlink:title=" ">
<path fill="none" stroke="#63b8ff" d="M67.08,-219.56C61.23,-209.36 54.97,-196.49 52,-184 43.89,-149.91 46.57,-108.73 49.27,-84.98"/>
<polygon fill="#63b8ff" stroke="#63b8ff" points="52.84,-85.65 50.63,-75.28 45.9,-84.76 52.84,-85.65"/>
</a>
</g>
</g>
<!-- Node2&#45;&gt;Node3 -->
<g id="edge2_Node000002_Node000003" class="edge">
<title>Node2&#45;&gt;Node3</title>
<g id="a_edge2_Node000002_Node000003"><a xlink:title=" ">
<path fill="none" stroke="#63b8ff" d="M119.67,-164.66C111.65,-155.93 99.37,-142.04 90,-129 79.47,-114.35 69.06,-96.66 61.8,-83.67"/>
<polygon fill="#63b8ff" stroke="#63b8ff" points="64.6,-82.5 56.72,-75.42 58.46,-85.87 64.6,-82.5"/>
</a>
</g>
</g>
<!-- Node6 -->
<g id="Node000006" class="node">
<title>Node6</title>
<g id="a_Node000006"><a xlink:href="referee__rx__template_8hpp.html" target="_top" xlink:title=" ">
<polygon fill="white" stroke="#666666" points="220.5,-129 99.5,-129 99.5,-110 220.5,-110 220.5,-129"/>
<text text-anchor="middle" x="160" y="-117" font-family="Helvetica,sans-Serif" font-size="10.00">referee_rx_template.hpp</text>
</a>
</g>
</g>
<!-- Node2&#45;&gt;Node6 -->
<g id="edge5_Node000002_Node000006" class="edge">
<title>Node2&#45;&gt;Node6</title>
<g id="a_edge5_Node000002_Node000006"><a xlink:title=" ">
<path fill="none" stroke="#63b8ff" d="M133.28,-164.75C137.57,-157.66 143.74,-147.42 149.08,-138.59"/>
<polygon fill="#63b8ff" stroke="#63b8ff" points="152.43,-140.81 154.6,-130.44 146.44,-137.19 152.43,-140.81"/>
</a>
</g>
</g>
<!-- Node4 -->
<g id="Node000004" class="node">
<title>Node4</title>
<g id="a_Node000004"><a xlink:title=" ">
<polygon fill="#e0e0e0" stroke="#999999" points="76,-19 28,-19 28,0 76,0 76,-19"/>
<text text-anchor="middle" x="52" y="-7" font-family="Helvetica,sans-Serif" font-size="10.00">cstddef</text>
</a>
</g>
</g>
<!-- Node3&#45;&gt;Node4 -->
<g id="edge3_Node000003_Node000004" class="edge">
<title>Node3&#45;&gt;Node4</title>
<g id="a_edge3_Node000003_Node000004"><a xlink:title=" ">
<path fill="none" stroke="#63b8ff" d="M52,-54.75C52,-48.11 52,-38.73 52,-30.31"/>
<polygon fill="#63b8ff" stroke="#63b8ff" points="55.5,-30.44 52,-20.44 48.5,-30.44 55.5,-30.44"/>
</a>
</g>
</g>
<!-- Node5 -->
<g id="Node000005" class="node">
<title>Node5</title>
<g id="a_Node000005"><a xlink:title=" ">
<polygon fill="#e0e0e0" stroke="#999999" points="148,-19 102,-19 102,0 148,0 148,-19"/>
<text text-anchor="middle" x="125" y="-7" font-family="Helvetica,sans-Serif" font-size="10.00">cstdint</text>
</a>
</g>
</g>
<!-- Node3&#45;&gt;Node5 -->
<g id="edge4_Node000003_Node000005" class="edge">
<title>Node3&#45;&gt;Node5</title>
<g id="a_edge4_Node000003_Node000005"><a xlink:title=" ">
<path fill="none" stroke="#63b8ff" d="M64.38,-54.51C75.25,-46.62 91.28,-34.98 104.13,-25.65"/>
<polygon fill="#63b8ff" stroke="#63b8ff" points="105.76,-28.07 111.8,-19.36 101.65,-22.4 105.76,-28.07"/>
</a>
</g>
</g>
<!-- Node6&#45;&gt;Node3 -->
<g id="edge8_Node000006_Node000003" class="edge">
<title>Node6&#45;&gt;Node3</title>
<g id="a_edge8_Node000006_Node000003"><a xlink:title=" ">
<path fill="none" stroke="#63b8ff" d="M141.68,-109.51C124.74,-101.2 99.33,-88.73 79.88,-79.18"/>
<polygon fill="#63b8ff" stroke="#63b8ff" points="81.57,-75.62 71.05,-74.36 78.49,-81.91 81.57,-75.62"/>
</a>
</g>
</g>
<!-- Node6&#45;&gt;Node5 -->
<g id="edge6_Node000006_Node000005" class="edge">
<title>Node6&#45;&gt;Node5</title>
<g id="a_edge6_Node000006_Node000005"><a xlink:title=" ">
<path fill="none" stroke="#63b8ff" d="M157.14,-109.66C151.5,-92.26 138.84,-53.19 131.2,-29.62"/>
<polygon fill="#63b8ff" stroke="#63b8ff" points="134.32,-28.89 127.9,-20.46 127.66,-31.05 134.32,-28.89"/>
</a>
</g>
</g>
<!-- Node7 -->
<g id="Node000007" class="node">
<title>Node7</title>
<g id="a_Node000007"><a xlink:title=" ">
<polygon fill="#e0e0e0" stroke="#999999" points="206,-74 160,-74 160,-55 206,-55 206,-74"/>
<text text-anchor="middle" x="183" y="-62" font-family="Helvetica,sans-Serif" font-size="10.00">cstring</text>
</a>
</g>
</g>
<!-- Node6&#45;&gt;Node7 -->
<g id="edge7_Node000006_Node000007" class="edge">
<title>Node6&#45;&gt;Node7</title>
<g id="a_edge7_Node000006_Node000007"><a xlink:title=" ">
<path fill="none" stroke="#63b8ff" d="M163.8,-109.75C166.78,-102.88 171.03,-93.08 174.78,-84.45"/>
<polygon fill="#63b8ff" stroke="#63b8ff" points="178.35,-86.01 179.12,-75.44 171.93,-83.22 178.35,-86.01"/>
</a>
</g>
</g>
<!-- Node8 -->
<g id="Node000008" class="node">
<title>Node8</title>
<g id="a_Node000008"><a xlink:href="tick_8hpp.html" target="_top" xlink:title=" ">
<polygon fill="white" stroke="#666666" points="275.5,-74 224.5,-74 224.5,-55 275.5,-55 275.5,-74"/>
<text text-anchor="middle" x="250" y="-62" font-family="Helvetica,sans-Serif" font-size="10.00">tick.hpp</text>
</a>
</g>
</g>
<!-- Node6&#45;&gt;Node8 -->
<g id="edge9_Node000006_Node000008" class="edge">
<title>Node6&#45;&gt;Node8</title>
<g id="a_edge9_Node000006_Node000008"><a xlink:title=" ">
<path fill="none" stroke="#63b8ff" d="M175.27,-109.51C189.06,-101.39 209.59,-89.3 225.64,-79.85"/>
<polygon fill="#63b8ff" stroke="#63b8ff" points="227.12,-82.45 233.96,-74.36 223.57,-76.42 227.12,-82.45"/>
</a>
</g>
</g>
<!-- Node9 -->
<g id="Node000009" class="node">
<title>Node9</title>
<g id="a_Node000009"><a xlink:title=" ">
<polygon fill="#e0e0e0" stroke="#999999" points="274.5,-19 225.5,-19 225.5,0 274.5,0 274.5,-19"/>
<text text-anchor="middle" x="250" y="-7" font-family="Helvetica,sans-Serif" font-size="10.00">stdint.h</text>
</a>
</g>
</g>
<!-- Node8&#45;&gt;Node9 -->
<g id="edge10_Node000008_Node000009" class="edge">
<title>Node8&#45;&gt;Node9</title>
<g id="a_edge10_Node000008_Node000009"><a xlink:title=" ">
<path fill="none" stroke="#63b8ff" d="M250,-54.75C250,-48.11 250,-38.73 250,-30.31"/>
<polygon fill="#63b8ff" stroke="#63b8ff" points="253.5,-30.44 250,-20.44 246.5,-30.44 253.5,-30.44"/>
</a>
</g>
</g>
</g>
</svg>
