<?xml version="1.0" encoding="UTF-8" standalone="no"?>
<!DOCTYPE svg PUBLIC "-//W3C//DTD SVG 1.1//EN"
 "http://www.w3.org/Graphics/SVG/1.1/DTD/svg11.dtd">
<!-- Generated by graphviz version 8.0.3 (20230416.2022)
 -->
<!-- Title: hello_world::algorithms::controller::pid::BasicPidParams Pages: 1 -->
<svg width="453pt" height="422pt"
 viewBox="0.00 0.00 453.00 422.00" xmlns="http://www.w3.org/2000/svg" xmlns:xlink="http://www.w3.org/1999/xlink">
<g id="graph0" class="graph" transform="scale(1 1) rotate(0) translate(4 418)">
<title>hello_world::algorithms::controller::pid::BasicPidParams</title>
<!-- Node1 -->
<g id="Node000001" class="node">
<title>Node1</title>
<g id="a_Node000001"><a xlink:title="定义了基础 PID 的参数">
<polygon fill="#999999" stroke="#666666" points="445,-222 285,-222 285,-192 445,-192 445,-222"/>
<text text-anchor="start" x="293" y="-210" font-family="Helvetica,sans-Serif" font-size="10.00">hello_world::algorithms</text>
<text text-anchor="middle" x="365" y="-199" font-family="Helvetica,sans-Serif" font-size="10.00">::controller::pid::BasicPidParams</text>
</a>
</g>
</g>
<!-- Node2 -->
<g id="Node000002" class="node">
<title>Node2</title>
<g id="a_Node000002"><a xlink:href="classhello__world_1_1algorithms_1_1controller_1_1pid_1_1_out_limit.html" target="_top" xlink:title=" ">
<polygon fill="white" stroke="#666666" points="144,-414 20,-414 20,-384 144,-384 144,-414"/>
<text text-anchor="start" x="28" y="-402" font-family="Helvetica,sans-Serif" font-size="10.00">hello_world::algorithms</text>
<text text-anchor="middle" x="82" y="-391" font-family="Helvetica,sans-Serif" font-size="10.00">::controller::pid::OutLimit</text>
</a>
</g>
</g>
<!-- Node2&#45;&gt;Node1 -->
<g id="edge1_Node000001_Node000002" class="edge">
<title>Node2&#45;&gt;Node1</title>
<g id="a_edge1_Node000001_Node000002"><a xlink:title=" ">
<path fill="none" stroke="#9a32cd" stroke-dasharray="5,2" d="M154.8,-387.69C191.04,-379.31 234.15,-365.03 267,-341 311.27,-308.62 343.48,-249.96 356.98,-222.27"/>
<polygon fill="#9a32cd" stroke="#9a32cd" points="154.3,-384.44 145.28,-390 155.8,-391.27 154.3,-384.44"/>
</a>
</g>
<text text-anchor="middle" x="224.5" y="-383" font-family="Helvetica,sans-Serif" font-size="10.00" fill="grey"> out_limit</text>
</g>
<!-- Node3 -->
<g id="Node000003" class="node">
<title>Node3</title>
<g id="a_Node000003"><a xlink:href="classhello__world_1_1algorithms_1_1controller_1_1pid_1_1_inte_trapezoidal.html" target="_top" xlink:title="梯形积分优化类">
<polygon fill="white" stroke="#666666" points="158,-366 6,-366 6,-336 158,-336 158,-366"/>
<text text-anchor="start" x="14" y="-354" font-family="Helvetica,sans-Serif" font-size="10.00">hello_world::algorithms</text>
<text text-anchor="middle" x="82" y="-343" font-family="Helvetica,sans-Serif" font-size="10.00">::controller::pid::InteTrapezoidal</text>
</a>
</g>
</g>
<!-- Node3&#45;&gt;Node1 -->
<g id="edge2_Node000001_Node000003" class="edge">
<title>Node3&#45;&gt;Node1</title>
<g id="a_edge2_Node000001_Node000003"><a xlink:title=" ">
<path fill="none" stroke="#9a32cd" stroke-dasharray="5,2" d="M165.5,-332.64C198.41,-323.29 235.8,-310.01 267,-292 300.35,-272.74 332.68,-240.99 350.3,-222.23"/>
<polygon fill="#9a32cd" stroke="#9a32cd" points="164.69,-329.51 155.98,-335.54 166.55,-336.26 164.69,-329.51"/>
</a>
</g>
<text text-anchor="middle" x="224.5" y="-329" font-family="Helvetica,sans-Serif" font-size="10.00" fill="grey"> inte_trapezoidal</text>
</g>
<!-- Node4 -->
<g id="Node000004" class="node">
<title>Node4</title>
<g id="a_Node000004"><a xlink:href="classhello__world_1_1algorithms_1_1controller_1_1pid_1_1_inte_anti_windup.html" target="_top" xlink:title="积分抗饱和优化类">
<polygon fill="white" stroke="#666666" points="158.5,-318 5.5,-318 5.5,-288 158.5,-288 158.5,-318"/>
<text text-anchor="start" x="13.5" y="-306" font-family="Helvetica,sans-Serif" font-size="10.00">hello_world::algorithms</text>
<text text-anchor="middle" x="82" y="-295" font-family="Helvetica,sans-Serif" font-size="10.00">::controller::pid::InteAntiWindup</text>
</a>
</g>
</g>
<!-- Node4&#45;&gt;Node1 -->
<g id="edge3_Node000001_Node000004" class="edge">
<title>Node4&#45;&gt;Node1</title>
<g id="a_edge3_Node000001_Node000004"><a xlink:title=" ">
<path fill="none" stroke="#9a32cd" stroke-dasharray="5,2" d="M157.06,-284.79C190.95,-275.77 231.4,-264.02 267,-251 289.58,-242.74 314.24,-231.53 333.04,-222.48"/>
<polygon fill="#9a32cd" stroke="#9a32cd" points="156.55,-281.57 147.77,-287.51 158.33,-288.34 156.55,-281.57"/>
</a>
</g>
<text text-anchor="middle" x="224.5" y="-280" font-family="Helvetica,sans-Serif" font-size="10.00" fill="grey"> inte_anti_windup</text>
</g>
<!-- Node5 -->
<g id="Node000005" class="node">
<title>Node5</title>
<g id="a_Node000005"><a xlink:href="classhello__world_1_1algorithms_1_1controller_1_1pid_1_1_inte_changing_rate.html" target="_top" xlink:title="控制器参数类">
<polygon fill="white" stroke="#666666" points="164,-270 0,-270 0,-240 164,-240 164,-270"/>
<text text-anchor="start" x="8" y="-258" font-family="Helvetica,sans-Serif" font-size="10.00">hello_world::algorithms</text>
<text text-anchor="middle" x="82" y="-247" font-family="Helvetica,sans-Serif" font-size="10.00">::controller::pid::InteChangingRate</text>
</a>
</g>
</g>
<!-- Node5&#45;&gt;Node1 -->
<g id="edge4_Node000001_Node000005" class="edge">
<title>Node5&#45;&gt;Node1</title>
<g id="a_edge4_Node000001_Node000005"><a xlink:title=" ">
<path fill="none" stroke="#9a32cd" stroke-dasharray="5,2" d="M175.12,-239.26C210.57,-233.21 250.71,-226.35 284.84,-220.52"/>
<polygon fill="#9a32cd" stroke="#9a32cd" points="174.54,-235.98 165.28,-241.12 175.72,-242.88 174.54,-235.98"/>
</a>
</g>
<text text-anchor="middle" x="224.5" y="-239" font-family="Helvetica,sans-Serif" font-size="10.00" fill="grey"> inte_changing_rate</text>
</g>
<!-- Node6 -->
<g id="Node000006" class="node">
<title>Node6</title>
<g id="a_Node000006"><a xlink:href="classhello__world_1_1algorithms_1_1controller_1_1pid_1_1_inte_separation.html" target="_top" xlink:title="积分分离优化类">
<polygon fill="white" stroke="#666666" points="156.5,-222 7.5,-222 7.5,-192 156.5,-192 156.5,-222"/>
<text text-anchor="start" x="15.5" y="-210" font-family="Helvetica,sans-Serif" font-size="10.00">hello_world::algorithms</text>
<text text-anchor="middle" x="82" y="-199" font-family="Helvetica,sans-Serif" font-size="10.00">::controller::pid::InteSeparation</text>
</a>
</g>
</g>
<!-- Node6&#45;&gt;Node1 -->
<g id="edge5_Node000001_Node000006" class="edge">
<title>Node6&#45;&gt;Node1</title>
<g id="a_edge5_Node000001_Node000006"><a xlink:title=" ">
<path fill="none" stroke="#9a32cd" stroke-dasharray="5,2" d="M167.64,-207C204.82,-207 248.22,-207 284.76,-207"/>
<polygon fill="#9a32cd" stroke="#9a32cd" points="167.83,-203.5 157.83,-207 167.83,-210.5 167.83,-203.5"/>
</a>
</g>
<text text-anchor="middle" x="224.5" y="-210" font-family="Helvetica,sans-Serif" font-size="10.00" fill="grey"> inte_separation</text>
</g>
<!-- Node7 -->
<g id="Node000007" class="node">
<title>Node7</title>
<g id="a_Node000007"><a xlink:href="classhello__world_1_1algorithms_1_1controller_1_1pid_1_1_diff_filter.html" target="_top" xlink:title="用于实现差分滤波器功能">
<polygon fill="white" stroke="#666666" points="143,-174 21,-174 21,-144 143,-144 143,-174"/>
<text text-anchor="start" x="29" y="-162" font-family="Helvetica,sans-Serif" font-size="10.00">hello_world::algorithms</text>
<text text-anchor="middle" x="82" y="-151" font-family="Helvetica,sans-Serif" font-size="10.00">::controller::pid::DiffFilter</text>
</a>
</g>
</g>
<!-- Node7&#45;&gt;Node1 -->
<g id="edge6_Node000001_Node000007" class="edge">
<title>Node7&#45;&gt;Node1</title>
<g id="a_edge6_Node000001_Node000007"><a xlink:title=" ">
<path fill="none" stroke="#9a32cd" stroke-dasharray="5,2" d="M153.96,-171.12C193.76,-177.92 243.51,-186.42 284.6,-193.44"/>
<polygon fill="#9a32cd" stroke="#9a32cd" points="154.73,-167.53 144.28,-169.3 153.55,-174.43 154.73,-167.53"/>
</a>
</g>
<text text-anchor="middle" x="224.5" y="-193" font-family="Helvetica,sans-Serif" font-size="10.00" fill="grey"> diff_filter</text>
</g>
<!-- Node8 -->
<g id="Node000008" class="node">
<title>Node8</title>
<g id="a_Node000008"><a xlink:href="classhello__world_1_1algorithms_1_1controller_1_1pid_1_1_diff_previous.html" target="_top" xlink:title="微分先行优化类">
<polygon fill="white" stroke="#666666" points="150.5,-126 13.5,-126 13.5,-96 150.5,-96 150.5,-126"/>
<text text-anchor="start" x="21.5" y="-114" font-family="Helvetica,sans-Serif" font-size="10.00">hello_world::algorithms</text>
<text text-anchor="middle" x="82" y="-103" font-family="Helvetica,sans-Serif" font-size="10.00">::controller::pid::DiffPrevious</text>
</a>
</g>
</g>
<!-- Node8&#45;&gt;Node1 -->
<g id="edge7_Node000001_Node000008" class="edge">
<title>Node8&#45;&gt;Node1</title>
<g id="a_edge7_Node000001_Node000008"><a xlink:title=" ">
<path fill="none" stroke="#9a32cd" stroke-dasharray="5,2" d="M159.59,-129.22C192.98,-137.94 232.33,-149.25 267,-162 290,-170.46 315.07,-182.16 333.96,-191.51"/>
<polygon fill="#9a32cd" stroke="#9a32cd" points="160.53,-125.59 149.97,-126.49 158.78,-132.37 160.53,-125.59"/>
</a>
</g>
<text text-anchor="middle" x="224.5" y="-165" font-family="Helvetica,sans-Serif" font-size="10.00" fill="grey"> diff_previous</text>
</g>
<!-- Node9 -->
<g id="Node000009" class="node">
<title>Node9</title>
<g id="a_Node000009"><a xlink:href="classhello__world_1_1algorithms_1_1controller_1_1pid_1_1_dead_band.html" target="_top" xlink:title="死区优化类">
<polygon fill="white" stroke="#666666" points="148,-78 16,-78 16,-48 148,-48 148,-78"/>
<text text-anchor="start" x="24" y="-66" font-family="Helvetica,sans-Serif" font-size="10.00">hello_world::algorithms</text>
<text text-anchor="middle" x="82" y="-55" font-family="Helvetica,sans-Serif" font-size="10.00">::controller::pid::DeadBand</text>
</a>
</g>
</g>
<!-- Node9&#45;&gt;Node1 -->
<g id="edge8_Node000001_Node000009" class="edge">
<title>Node9&#45;&gt;Node1</title>
<g id="a_edge8_Node000001_Node000009"><a xlink:title=" ">
<path fill="none" stroke="#9a32cd" stroke-dasharray="5,2" d="M158.93,-78.5C193.37,-87.51 233.74,-100.93 267,-120 300.95,-139.47 333.31,-172.35 350.73,-191.63"/>
<polygon fill="#9a32cd" stroke="#9a32cd" points="160,-74.91 149.44,-75.85 158.28,-81.7 160,-74.91"/>
</a>
</g>
<text text-anchor="middle" x="224.5" y="-123" font-family="Helvetica,sans-Serif" font-size="10.00" fill="grey"> dead_band</text>
</g>
<!-- Node10 -->
<g id="Node000010" class="node">
<title>Node10</title>
<g id="a_Node000010"><a xlink:href="classhello__world_1_1algorithms_1_1controller_1_1pid_1_1_setpoint_ramping.html" target="_top" xlink:title="设定点斜坡优化类">
<polygon fill="white" stroke="#666666" points="162.5,-30 1.5,-30 1.5,0 162.5,0 162.5,-30"/>
<text text-anchor="start" x="9.5" y="-18" font-family="Helvetica,sans-Serif" font-size="10.00">hello_world::algorithms</text>
<text text-anchor="middle" x="82" y="-7" font-family="Helvetica,sans-Serif" font-size="10.00">::controller::pid::SetpointRamping</text>
</a>
</g>
</g>
<!-- Node10&#45;&gt;Node1 -->
<g id="edge9_Node000001_Node000010" class="edge">
<title>Node10&#45;&gt;Node1</title>
<g id="a_edge9_Node000001_Node000010"><a xlink:title=" ">
<path fill="none" stroke="#9a32cd" stroke-dasharray="5,2" d="M173.54,-29.43C205.2,-37.61 239.64,-50.32 267,-70 312.43,-102.67 344.28,-163.4 357.36,-191.72"/>
<polygon fill="#9a32cd" stroke="#9a32cd" points="174.47,-25.81 163.93,-26.83 172.8,-32.61 174.47,-25.81"/>
</a>
</g>
<text text-anchor="middle" x="224.5" y="-73" font-family="Helvetica,sans-Serif" font-size="10.00" fill="grey"> setpointe_ramping</text>
</g>
</g>
</svg>
