<?xml version="1.0" encoding="UTF-8" standalone="no"?>
<!DOCTYPE svg PUBLIC "-//W3C//DTD SVG 1.1//EN"
 "http://www.w3.org/Graphics/SVG/1.1/DTD/svg11.dtd">
<!-- Generated by graphviz version 8.0.3 (20230416.2022)
 -->
<!-- Title: hello_world::devices::referee::__REFEREE_PACKED Pages: 1 -->
<svg width="242pt" height="126pt"
 viewBox="0.00 0.00 241.50 126.00" xmlns="http://www.w3.org/2000/svg" xmlns:xlink="http://www.w3.org/1999/xlink">
<g id="graph0" class="graph" transform="scale(1 1) rotate(0) translate(4 122)">
<title>hello_world::devices::referee::__REFEREE_PACKED</title>
<!-- Node1 -->
<g id="Node000001" class="node">
<title>Node1</title>
<g id="a_Node000001"><a xlink:title=" ">
<polygon fill="#999999" stroke="#666666" points="130.5,-118 15.5,-118 15.5,-77 130.5,-77 130.5,-118"/>
<text text-anchor="start" x="23.5" y="-106" font-family="Helvetica,sans-Serif" font-size="10.00">hello_world::devices</text>
<text text-anchor="start" x="23.5" y="-95" font-family="Helvetica,sans-Serif" font-size="10.00">::referee::__REFEREE</text>
<text text-anchor="middle" x="73" y="-84" font-family="Helvetica,sans-Serif" font-size="10.00">_PACKED</text>
</a>
</g>
</g>
<!-- Node1&#45;&gt;Node1 -->
<g id="edge1_Node000001_Node000001" class="edge">
<title>Node1&#45;&gt;Node1</title>
<g id="a_edge1_Node000001_Node000001"><a xlink:title=" ">
<path fill="none" stroke="#9a32cd" stroke-dasharray="5,2" d="M141.72,-103.25C145.95,-101.89 148.5,-99.97 148.5,-97.5 148.5,-93.33 141.27,-90.74 130.93,-89.73"/>
<polygon fill="#9a32cd" stroke="#9a32cd" points="141.12,-99.99 131.93,-105.27 142.4,-106.87 141.12,-99.99"/>
</a>
</g>
<text text-anchor="middle" x="191" y="-95" font-family="Helvetica,sans-Serif" font-size="10.00" fill="grey"> interaction_graphic</text>
</g>
<!-- Node2 -->
<g id="Node000002" class="node">
<title>Node2</title>
<g id="a_Node000002"><a xlink:href="unionhello__world_1_1devices_1_1referee_1_1_main_ctrller_keyboard.html" target="_top" xlink:title=" ">
<polygon fill="white" stroke="#666666" points="146,-30 0,-30 0,0 146,0 146,-30"/>
<text text-anchor="start" x="8" y="-18" font-family="Helvetica,sans-Serif" font-size="10.00">hello_world::devices</text>
<text text-anchor="middle" x="73" y="-7" font-family="Helvetica,sans-Serif" font-size="10.00">::referee::MainCtrllerKeyboard</text>
</a>
</g>
</g>
<!-- Node1&#45;&gt;Node2 -->
<g id="edge3_Node000002_Node000001" class="edge">
<title>Node1&#45;&gt;Node2</title>
<g id="a_edge3_Node000002_Node000001"><a xlink:title=" ">
<path fill="none" stroke="#9a32cd" stroke-dasharray="5,2" d="M51.27,-67.3C48.87,-61.05 47.94,-54.4 50,-48 52.06,-41.62 55.91,-35.43 59.88,-30.23"/>
<polygon fill="#9a32cd" stroke="#9a32cd" points="48.38,-68.35 56.02,-75.69 54.63,-65.19 48.38,-68.35"/>
</a>
</g>
<text text-anchor="middle" x="59.5" y="-51" font-family="Helvetica,sans-Serif" font-size="10.00" fill="grey"> key</text>
</g>
<!-- Node2&#45;&gt;Node1 -->
<g id="edge2_Node000001_Node000002" class="edge">
<title>Node2&#45;&gt;Node1</title>
<g id="a_edge2_Node000001_Node000002"><a xlink:title=" ">
<path fill="none" stroke="#9a32cd" stroke-dasharray="5,2" d="M73,-41.36C73,-52.74 73,-65.96 73,-76.6"/>
<polygon fill="#9a32cd" stroke="#9a32cd" points="76.5,-41.37 73,-31.37 69.5,-41.37 76.5,-41.37"/>
</a>
</g>
<text text-anchor="middle" x="94.5" y="-51" font-family="Helvetica,sans-Serif" font-size="10.00" fill="grey"> keyboard</text>
</g>
</g>
</svg>
