<?xml version="1.0" encoding="UTF-8" standalone="no"?>
<!DOCTYPE svg PUBLIC "-//W3C//DTD SVG 1.1//EN"
 "http://www.w3.org/Graphics/SVG/1.1/DTD/svg11.dtd">
<!-- Generated by graphviz version 8.0.3 (20230416.2022)
 -->
<!-- Title: hello_world::devices::referee::MainCtrllerKeyboard Pages: 1 -->
<svg width="242pt" height="126pt"
 viewBox="0.00 0.00 241.50 126.00" xmlns="http://www.w3.org/2000/svg" xmlns:xlink="http://www.w3.org/1999/xlink">
<g id="graph0" class="graph" transform="scale(1 1) rotate(0) translate(4 122)">
<title>hello_world::devices::referee::MainCtrllerKeyboard</title>
<!-- Node1 -->
<g id="Node000001" class="node">
<title>Node1</title>
<g id="a_Node000001"><a xlink:title=" ">
<polygon fill="#999999" stroke="#666666" points="146,-118 0,-118 0,-88 146,-88 146,-118"/>
<text text-anchor="start" x="8" y="-106" font-family="Helvetica,sans-Serif" font-size="10.00">hello_world::devices</text>
<text text-anchor="middle" x="73" y="-95" font-family="Helvetica,sans-Serif" font-size="10.00">::referee::MainCtrllerKeyboard</text>
</a>
</g>
</g>
<!-- Node2 -->
<g id="Node000002" class="node">
<title>Node2</title>
<g id="a_Node000002"><a xlink:href="structhello__world_1_1devices_1_1referee_1_1_____r_e_f_e_r_e_e___p_a_c_k_e_d.html" target="_top" xlink:title=" ">
<polygon fill="white" stroke="#666666" points="130.5,-41 15.5,-41 15.5,0 130.5,0 130.5,-41"/>
<text text-anchor="start" x="23.5" y="-29" font-family="Helvetica,sans-Serif" font-size="10.00">hello_world::devices</text>
<text text-anchor="start" x="23.5" y="-18" font-family="Helvetica,sans-Serif" font-size="10.00">::referee::__REFEREE</text>
<text text-anchor="middle" x="73" y="-7" font-family="Helvetica,sans-Serif" font-size="10.00">_PACKED</text>
</a>
</g>
</g>
<!-- Node1&#45;&gt;Node2 -->
<g id="edge3_Node000002_Node000001" class="edge">
<title>Node1&#45;&gt;Node2</title>
<g id="a_edge3_Node000002_Node000001"><a xlink:title=" ">
<path fill="none" stroke="#9a32cd" stroke-dasharray="5,2" d="M42.02,-80.21C36.8,-73.89 33.93,-66.62 37,-59 39.63,-52.47 44,-46.44 48.8,-41.21"/>
<polygon fill="#9a32cd" stroke="#9a32cd" points="39.03,-82.16 48.62,-86.66 43.93,-77.16 39.03,-82.16"/>
</a>
</g>
<text text-anchor="middle" x="58.5" y="-62" font-family="Helvetica,sans-Serif" font-size="10.00" fill="grey"> keyboard</text>
</g>
<!-- Node2&#45;&gt;Node1 -->
<g id="edge1_Node000001_Node000002" class="edge">
<title>Node2&#45;&gt;Node1</title>
<g id="a_edge1_Node000001_Node000002"><a xlink:title=" ">
<path fill="none" stroke="#9a32cd" stroke-dasharray="5,2" d="M83.56,-51.66C84.62,-57.71 85,-64.04 84,-70 83.01,-75.91 81.07,-82.19 79.08,-87.61"/>
<polygon fill="#9a32cd" stroke="#9a32cd" points="86.79,-51.12 81.04,-42.22 79.98,-52.76 86.79,-51.12"/>
</a>
</g>
<text text-anchor="middle" x="93.5" y="-62" font-family="Helvetica,sans-Serif" font-size="10.00" fill="grey"> key</text>
</g>
<!-- Node2&#45;&gt;Node2 -->
<g id="edge2_Node000002_Node000002" class="edge">
<title>Node2&#45;&gt;Node2</title>
<g id="a_edge2_Node000002_Node000002"><a xlink:title=" ">
<path fill="none" stroke="#9a32cd" stroke-dasharray="5,2" d="M141.72,-26.25C145.95,-24.89 148.5,-22.97 148.5,-20.5 148.5,-16.33 141.27,-13.74 130.93,-12.73"/>
<polygon fill="#9a32cd" stroke="#9a32cd" points="141.12,-22.99 131.93,-28.27 142.4,-29.87 141.12,-22.99"/>
</a>
</g>
<text text-anchor="middle" x="191" y="-18" font-family="Helvetica,sans-Serif" font-size="10.00" fill="grey"> interaction_graphic</text>
</g>
</g>
</svg>
